<?xml version="1.0" encoding="UTF-8"?>
<svg
  id="Layer_1"
  xmlns="http://www.w3.org/2000/svg"
  viewBox="0 0 419.53 595.28"
>
  <path fill="#58b6d0"
    d="M168.15,382.54l.33,.62-.62,2.71,1.55,1.49,.19-.14c.39,1.09,.93,2.15,1.14,3.27,.19,1.07,.03,2.2,.03,3.3l.25,.04c.08-.16,.23-.32,.24-.49,.02-1.48,.01-2.97,.03-4.45,.02-1.54,.19-3.03,1.23-4.29,.3-.36,.41-.89,.6-1.34,.1-.24,.18-.5,.34-.93,.51,.83,.26,1.47,0,2.02-1.44,3.03-1.31,6.28-1.48,9.48l2.81,.05c.23-1.87,.45-3.62,.65-5.36,.06-.47,.21-.83,.83-.8,.55,1.04-.13,2.03-.18,3.05-.05,1.05-.04,2.1-.06,3.25,2.8,.3,5.66-.21,8.55-.27,0-2.25-.24-4.32,.43-6.36l.09,.87,.2,.02,1.06-5.91,.25,.02c.03,.18,.1,.37,.07,.54-.37,2.41-.73,4.82-1.13,7.22-.2,1.17-.27,2.31,.2,3.52l4.22,.07c1.54-2.2,3.39-4.24,3.09-7.25,.54,1.29,.43,2.54-.13,3.73-.53,1.14-1.15,2.25-1.83,3.58,3.03-.03,5.91-.06,8.89-.09l-.13-1.44c1.21-.73,2.5-1.54,2.95-3.06,.42-1.41,.74-2.85,1.09-4.22,.51,.68,.18,2.11-.57,4.6-.5,1.67-1.35,2.99-2.87,3.92l8.94,.15c.01-.7,.09-1.26,.02-1.8-.4-2.82-.81-5.66-2.29-8.16-.75-1.26-1.68-2.42-2.55-3.6-1.19-1.61-2.59-3.02-4.01-4.42-.96-.95-1.65-2.18-2.44-3.3-.11-.15-.11-.38-.18-.68l.71,.13-.67-.96-.4,.7-1.25-1.72c-.11-2.86-1.09-5.78,.21-8.72,.74,.37,.52,.92,.43,1.35-.38,1.85-.24,3.65,.3,5.44,.43,1.44,1.47,2.42,2.46,3.75,.29-.63,.52-1.02,.66-1.43,.45-1.34,.81-2.71,1.3-4.03,.32-.88,.43-1.78,.07-2.59-.5-1.1-.47-2.25-.64-3.39-.11-.8-.24-1.61-.45-2.39-.64-2.38-.24-4.69,.38-6.99,.1-.37,.18-.76,.31-1.12,.42-1.16,.58-2.51,2.11-2.9,.32-.08,.57-.48,.99-.62-.58,.9-1.2,1.78-1.71,2.71-.42,.76-.82,1.56-1.05,2.4-.28,1.02-.39,2.08-.55,3.13-.04,.27-.04,.57,.03,.84,.28,1.16,.45,2.38,.93,3.46,.93,2.08,.94,4.2,.61,6.35-.31,1.96-.68,3.92-1.47,5.78-.27,.64-.38,1.34-.61,2.17,.93,1.29,1.93,2.67,3.07,4.25l.6-3.51c.77,1.16,.67,2.61,.21,4.53,3.15,3.65,5.04,8.07,5.89,13.01,1.19-2.33,1.9-4.72,1.82-7.33h.33c.06,.24,.15,.47,.17,.71,.22,2.6-.58,4.95-1.69,7.24-.22,.46-.36,.96-.61,1.63,6.69,.44,13.19,.17,19.62,.19,1.02-1.25,1.29-2.63,1.38-4.04,.15-2.42-.6-4.73-1.01-7.09-.06-.33-.13-.65-.08-.99,1.24,2.45,1.81,5.08,2.08,7.83l.75,.22c.08-.12,.17-.23,.22-.35,1.41-3.6,1.32-7.21,.06-10.87l-.86,.17c.68-3.62-.5-6.86-1.56-10.16,.13,.17,.28,.34,.39,.52,1.06,1.81,1.87,3.73,2.17,5.82,.05,.31,.14,.65,.09,.95-.37,2.03,.67,3.71,1.33,5.47,.98,2.58,1.13,5.17,.1,7.72-.32,.8-1.1,1.41-1.66,2.1l-.93-.35-1.14,2.97c1.05,.02,1.95,.05,2.85,.04,.91-.01,1.83-.07,2.68-.11,.91-.77,1.7-1.54,2.59-2.17,1.08-.76,1.29-1.79,1.2-2.97-.02-.21-.03-.41-.05-.66,.99,1.12,.86,2.94-.25,3.89-.43,.37-.9,.68-1.35,1.03-.26,.21-.52,.43-.78,.64l.08,.21,4.71,.08c.88-.91,1.35-1.91,1.52-3.13,.4-2.89,.54-5.76-.2-8.62-.05-.19-.08-.39-.03-.6,1.39,2.16,.97,4.66,1.38,7.03,.03-.35,.07-.7,.09-1.04,.02-.34,.01-.69,.13-1.03,.6,1.36,.09,2.76,.04,4.22,.78-.29,1.04-.8,.96-1.54,1.21-.83,1.35-2.14,1.36-3.4,.02-2.01-.12-4.02-.19-6.03-.02-.41-.04-.83-.07-1.24l.29-.05c.13,.56,.28,1.11,.37,1.68,.11,.66,.19,1.33,.26,1.99,.06,.63,.1,1.26,.28,1.89l.05-2.96,.18-.04c.07,.13,.2,.25,.21,.39,.15,1.94,.17,3.87-.61,5.72-.39,.94-.64,1.96-1.17,2.81-.78,1.25-1.03,1.34-2.42,1.92l-1.11,2c1.64,.4,3.13-.1,4.68,.11l-.13-4.64,.36-.03c.27,1.51,.02,3.12,.71,4.5l4.57,.08,.1-5.72h.21l.21,.69,.41-.95,.35,5.82c4.01,.31,7.82,.02,11.72,0-.22-.54-.31-.96-.53-1.3-1.23-1.82-1.57-3.97-2.25-5.99-.47-1.39-.7-2.87-1.04-4.3-.4-1.68-.84-3.35-1.22-5.04-.46-2.05-.84-4.12-1.3-6.17-.14-.61-.42-1.2-.71-1.76-.97-1.92-1.94-3.85-2.96-5.74-.54-.99-1.23-1.89-2.55-2.44,1.05,1.58,.25,2.8-.11,4.08l-.3-.03c0-.19-.02-.38,.01-.56,.14-.8,.3-1.57-.26-2.32-.23-.32-.24-.8-.37-1.2-.18-.57-.3-1.18-.58-1.69-.65-1.18-.87-2.45-.91-3.76-.03-1.04,.03-2.08,.11-3.14-.16-.63-.63-.87-1.26-1.05-1.44-.41-2.85-.94-4.28-1.38-.38-.12-.91-.25-1.2-.08-1.05,.61-1.85,.24-2.65-.43-.22-.18-.42-.37-.61-.53l-.44-1.69c1.06-1.76,1.61-3.75,1.7-5.82-2.76-1.38-5.4-2.69-8.14-4.06l-.6-.92,.27-.27c1.66,.89,3.14,1.6,4.52,2.47,1.4,.89,2.93,1.39,4.53,1.97,.83,2.59-.79,4.93-1.25,7.56,.45,.38,.89,.75,1.36,1.15l.91-.49c.31-2.33,.62-4.62,.93-6.99l-1.4-.58,.02-.93,.22-.12c.57,.48,1.2,.91,1.69,1.47,.23,.27,.28,.79,.25,1.18-.07,1-.24,2-.36,3-.11,.91-.2,1.82-.31,2.89l3.02,.82c1.61-.83,2.05-2.25,1.2-3.66-.62-1.02-1.37-1.97-2.52-2.5-.27-.13-.46-.43-.82-.78,1.17-.49,1.76,.21,2.35,.59,.92,.07,1.77,.16,2.61,.19,1.52,.05,2.92-.43,4.3-1.02,.93-.39,1.86-.88,2.96-.53-2.36,1.07-4.71,2.14-7.33,2.56,.86,.48,1.91,.46,2.72,1.32-1.13,.71-2.1-.44-3.15-.02,.35,1.57,.71,3.21-1.09,4.45l2.16,.72c1.78-.5,.99-2.16,1.31-3.37-.37-.15-.69-.28-1-.42-.05-.02-.06-.12-.1-.21,.04-.07,.07-.24,.12-.24,3.59-.51,6.81-2.14,10.19-3.3,.49-.17,1.03-.54,1.74,.04-1.34,1.26-2.86,2.15-4.46,2.77-1.66,.65-3.45,.94-5.31,1.42l.24,.75c2.35,1.06,4.33,.19,6.25-.77,1.09-.54,2.08-1.3,3.14-1.92,.31-.18,.68-.26,1.01-.38,.37,.89,.23,1.25-.55,1.87-1.5,1.2-3.23,1.87-5.08,2.25-.62,.13-1.24,.24-1.82,.34l-1.55,4.44,.27,.17c1.33-.45,1.39-2.12,2.55-2.78l-.22-1.32c3.58-.03,6.65-1.47,9.51-3.51,.21-.04,.41-.08,.62-.12,.21-.04,.41-.07,.7-.11l.41,.76c-2.47,2.05-5.53,2.57-8.4,3.69v.85l3.04,.05c1.53-.83,3.16-1.68,4.75-2.58,1.1-.63,2.14-1.38,3.25-1.98,.5-.27,1.11-.31,1.67-.46l-.02-.02c.1,.64-.31,.99-.76,1.28-2.34,1.5-4.46,3.39-7.25,4.11-.16,.04-.31,.15-.31,.15,.04,.82,.11,1.52,.11,2.23,0,2.65-.05,5.3-.06,7.96,0,1.47,.05,2.95,.04,4.42,0,.38-.14,.76-.23,1.2,.39,1.02,.34,2.14,.14,3.26-.04,.24-.17,.51-.11,.72,.52,1.87,.07,3.78,.25,5.66,.06,.58-.11,1.19-.15,1.78-.02,.35-.11,.76,.03,1.03,.39,.75,.22,1.44-.06,2.14l.38,.88c-.2,4.15,.42,8.16,1.89,12.05l-.26,.12-.55-.86c-.63,.14-1.22,.38-1.81,.38-5.06,.02-10.11,0-15.17-.02-2.71-.01-5.42-.09-8.13-.07-6.25,.05-12.49,.14-18.74,.21-2.4,.03-4.8,.05-7.21,.04-4.45,0-8.89-.06-13.34-.06-3.32,0-6.64,.09-9.96,.09-3.46,0-6.92-.08-10.38-.07-1.24,0-2.47,.18-3.71,.19-2.75,.01-5.5-.05-8.25-.05-3.6,0-7.21,.01-10.81,0-4.21,0-8.41-.05-12.62-.04-2.82,0-5.64,.09-8.47,.12-1.98,.02-3.96,0-5.93-.01-5.02-.02-10.03-.06-15.05-.08-2.62-.01-5.23-.02-7.85,0-3.42,.02-6.85,.07-10.27,.08-4.35,0-8.69-.05-13.04,0-.99,0-1.89-.1-2.77-.73-.43-.51-.48-1.16-.47-1.9,.04-2.36-.05-4.72-.05-7.07,0-.88,.16-1.76,.15-2.64-.01-1.59-.09-3.18-.16-4.76-.27-6.01-.12-12.01-.13-18.02,0-4.05-.13-8.11-.19-12.16-.02-1.37,.06-2.75,.03-4.12-.01-.55-.2-1.09-.25-1.6,.04-.94,.13-1.87,.13-2.81-.04-5.12-.09-10.25-.16-15.37-.04-2.85-.15-5.71-.17-8.56-.03-3,.03-6,.02-9,0-2.44-.06-4.88-.09-7.31-.03-2.86-.07-5.72-.09-8.58-.02-2.97-.03-5.93-.04-8.9,0-3.61,.01-7.21,0-10.82,0-4.1,0-8.19-.03-12.28,0-.7-.16-1.41-.16-2.11,0-2.26,.1-4.52,.07-6.78-.07-4.2-.23-8.39-.31-12.58-.04-2.16,0-4.31-.02-6.47-.04-2.86-.12-5.71-.15-8.57-.02-1.73,.04-3.46,0-5.19-.05-2.26-.2-4.52-.25-6.78-.03-1.32,.02-2.65,.13-3.97,.04-.48,.37-.95,.55-1.37,1.88,.03,3.6,.05,5.32,.09,2.78,.06,5.56,.16,8.33,.2,2.89,.04,5.77,.05,8.66,.05,4.12,0,8.25-.02,12.37,0,6.32,.02,12.64,.08,18.96,.07,3.03,0,6.06-.17,9.09-.2,1.01-.01,2.02,.21,3.03,.27,.87,.05,1.76,.06,2.63,.01,2.04-.1,4.08-.28,6.12-.36,.49-.02,.98,.19,1.57,.32l-.79-1.64,.11-.09-1.4-1.19,.24-.32,1.48,.78,1.03-.32-.47,1.55,1.87,2.92,1.11-.14c-.29-1.5-1.98-1.86-2.22-3.32l2.5,2.31c.93-.05,2.02-.12,3.11-.16,.88-.03,1.77-.08,2.64-.02,.68,.04,1.18-.16,1.56-.69,.47-.65,.92-1.32,1.36-2,.16-.24,.27-.5,.4-.75l.25,.34,1.87,.22c.15,.82-.39,1.46-.81,2.16,1.01,.79,2.14,.98,3.23,.99,3,.03,5.99-.07,8.99-.12,3.04-.05,6.07-.12,9.11-.14,1.44,0,2.88,.09,4.33,.12,.3,0,.6-.06,1.14-.12l-1.79-1.7-1.12-.19c-.46-.59-.97-1.16-.56-2.21l1.4,1.64,.17-.9,1.53,.22-.19,.76-.96-.13c.01,.12-.01,.25,.04,.31,.2,.23,.4,.47,.63,.66,.63,.49,1.28,.96,1.94,1.42,.42,.3,.86,.61,1.52,.3l-.84-1.24,.24-.2c.43,.34,.86,.68,1.29,1.03,.56,.46,1.16,.7,1.92,.7,1.39,0,2.77,.15,4.3,.25-.78,1.01-1.84,.2-2.71,.54,.07,.84,.85,.98,1.32,1.55l1.29-1.11,.65,.25,2.53-3.44-.23-.26c-1.16,.06-1.49,1.5-2.61,1.76,.97-2.15,3.04-2.64,4.81-3.55l.2,.22-.87,.92-.11,.94-1.13,1.15,.12,.27,2.58,.16-.03,.36c-.94,.45-1.88-.02-2.96-.15l-.95,1.36c2.29,.11,4.34,.27,6.39-.14,.3-.06,.64-.1,.93-.03,2.02,.48,4.05,.34,6.09,.29,2.15-.06,4.31-.01,6.46-.05,1.94-.03,3.88-.11,5.82-.16,.62-.01,1.24,.02,1.95,.03l-.06-.93-.02,.02c.71-.24,1.3-.59,1.33-1.6l.75,.69,3.73,.23q-.3,.47-1.52,.54c-.38-.16-.76-.73-1.31,0,.47,.56,.91,1.18,1.46,1.69,.38,.35,.91,.37,1.41-.07l-.21-.73,.15-.14c.31,.28,.58,.64,.94,.82,.33,.17,.75,.15,1.35,.26l-.43-1.73-1.41-.19-.05-.33,1.26-.55c.66-1.08,1.19-2.25,2-3.19,.5-.58,1.42-.81,2.16-1.17,.47-.23,.97-.4,1.53-.63,.18,1.09-1.01,.95-1.08,1.64-.48,1.67-.97,3.35-1.5,5.21,.84,.01,1.66,.03,2.49,.04,2.71,.03,5.42,.08,8.13,.09,1.59,0,3.17-.03,4.76-.09,.31-.01,.61-.22,1.03-.37l-.61-.79-3.56-.06c-3.7,.36-7.43,.23-11.15,.31-.13,0-.26-.1-.32-.31,5.53-.31,10.98-.57,16.64-.33l-.55,1.16,.48,1.04-.28,1.96h.15c-.02,.93-.05,1.87-.04,2.8,.02,1.85,.08,3.71,.11,5.56,.03,1.53,.03,3.07,.07,4.6,.03,1.41,.14,2.81,.14,4.22,0,1.43-.16,2.87-.17,4.3-.01,1.55,.12,3.1,.1,4.65-.01,1.44-.16,2.89-.18,4.33-.01,.94,.12,1.88,.13,2.83,.01,1.23-.05,2.46-.04,3.69,0,1.41,.06,2.82,.07,4.22,0,1.65-.02,3.29-.01,4.94,0,.56,.11,1.12,.1,1.68-.04,1.93-.1,3.85-.16,5.77,0,.21-.08,.42-.07,.63,.08,1.43,.17,2.85,.25,4.28l-.21,.12,.78,.45-.61,.65c-.05,2.98-.12,5.9-.14,8.82,0,1.16,.1,2.31,.11,3.47,.02,1.9-.02,3.79,0,5.69,.01,1.36,.09,2.72,.11,4.08,0,.63-.08,1.25-.07,1.88,0,.34,.13,.68,.2,1.04,.93,.27,1.8,.62,2.69,.76,2.85,.46,5.16,2.07,7.55,3.48,.49,.29,.84,.84,1.24,1.29,.33,.37,.64,.75,1.03,1.22,.79-.12,1.59-.22,2.38-.38,2.74-.58,5.47-.96,8.28-.36,1.69,.36,3.41,.57,5.11,.87,1.56,.28,2.89,1.11,4.21,1.94,1.11,.7,2.17,1.43,2.73,2.72,.31,.71,1.11,.82,1.81,.96,1.63,.33,3.27,.61,4.88,1,.92,.23,1.78,.73,2.71,.95,1.23,.29,2.49,.44,3.74,.64,2.47,.41,4.99,.67,7.41,1.28,1.52,.38,2.97,.23,4.46,.23,2.16-.01,4.37-.46,6.48,.38,.55,.22,1.07,.5,1.68,.79l1.56,1.81c-.09,.42-.2,.91-.33,1.47l.42,.13c.12,.84-.53,.37-.89,.5l-.15,1.97-.44-.49-.23,.09,.23,.88-.91,.78-.55-.18-.14,.93-.28,.19-.11-.88c-.81,1.21-1.41,2.12-2.03,3.05,.04,2.56-1.46,4.27-3.38,5.83-.03,.18-.08,.42-.1,.66-.07,.98-.27,1.83-1.16,2.48-.63,.46-1.05,1.2-1.62,1.88l-.93-.41c.04-1.25,.55-2.25,1.11-3.23,.18,.37,.37,.74,.56,1.12,1.14-.54,1.53-1.54,.93-2.72l-1.43-.02c.01,.33,.04,.65,.03,.96,0,.23-.05,.46-.07,.68-.32-.53-.62-1.08-.98-1.58-.2-.27-.52-.46-.75-.66-.46,1.1-.84,2.06-1.25,3-.38,.87-.95,1.53-1.98,1.72-.37,.07-.68,.43-1.05,.68l-.87-.4c1.26-1.78,1.53-3.62,.6-5.5l-5.67-.64c0,.9,.38,1.91-.47,2.68-.52,.75-1.05,1.51-1.65,2.38l-.47-.63-.16-3.8c-1.62,1.08-2.47,2.4-3.09,4.08-.6,3.14-.87,6.45,.37,9.7,1.12,.08,1.86-.91,2.24-3.05l.48-.13c.73,.54,1.1,2.92,.62,4.19,.7,.79,1.46,1.63,2.21,2.47,.82,.38,1.65,.76,2.46,1.14,.63-.71,.96-1.42,.87-2.36-.04-.46,.24-.95,.37-1.43l.34-.02,1.24,2.55c1.83-1.13,2.69-2.82,3.3-4.9,.83,1.08,.68,2.11,.88,2.99l-.46,1.3,2.09,1.57c.05,2.08-1.59,3.13-2.52,4.34l-4.91,1.02c-.8-.1-1.83-.19-2.84-.37-1.47-.25-3.03-.2-4.31-1.11-.77-.55-1.47-1.21-2.2-1.83-.87-.73-1.84-1.14-3-1.14-1.07,0-2.06-.31-3.03-.81-1.69-.88-3.48-1.61-4.78-3.07-1.49-1.67-2.23-3.65-2.02-5.92,.06-.66,.05-1.35,.23-1.98,.45-1.53,1.31-2.79,2.36-4.01,1.85-2.16,4.23-3.49,6.7-4.7,.59-.29,1.28-.47,1.94-.51,1.92-.11,3.85-.26,5.77,.15,1.03,.22,2.08,.3,3.1,.66,.83,.29,1.8,.16,2.7,.29,1.08,.15,2.14,.38,3.7,.66,.97-.04,2.45-.19,3.93,.65l2.75-.88c.81-1.48,1.55-2.83,2.21-4.02-.84-1.51-1.58-2.85-2.25-4.06-.83-.45-1.58-.85-2.4-1.29,.67-1.26-.04-1.99-.71-2.79-.45-.53-.75-1.19-1.28-2.04-1.45-.33-3.12-.73-4.8-1.08-1.18-.25-2.36-.45-3.55-.65-.9-.15-1.82-.2-2.71-.37-1.87-.36-3.72-.79-5.58-1.18-1.33-.28-2.67-.55-4.02-.83-.29,.71-.52,1.25-.82,1.98,1.34,.63,2.64,1.25,3.95,1.86l-.11,.34-1.44-.32-1.8,.09,.62-.64-1.06-.46,.07,.71-1.86,.93c.11-.69,.75-1.32,0-1.86,.3-.64,.55-1.18,.79-1.7-.03-1.82-1.49-2.82-2.17-4.14-.65-.41-1.24-.72-1.76-1.12-1.34-1.03-3.01-.88-4.51-1.32-1.93-.57-3.92-.35-5.89-.38-.8-.02-1.59-.17-2.35-.26-.56,.06-1.11,.09-1.64,.18-.61,.1-1.21,.29-1.82,.37-1.49,.21-3,.58-4.48,.54-1.84-.05-3.68-.45-5.51-.73-.29-.04-.56-.26-.84-.39l.08-.25c1.21,.02,2.42,.1,3.62,.04,1.21-.06,2.42-.27,3.86-.44l-.84-1.18-.14,.08,.43,.94c-.34-.11-.59-.11-.68-.23-.73-.99-1.76-1.57-2.81-2.1-1.34-.67-2.67-1.46-4.1-1.79-1.73-.4-3.56-.36-5.34-.53-1.49-.14-2.97-.1-4.36-.96-1.32-.82-2.85-1.29-4.29-1.92-.88,1.45-.31,3.95,1.26,5.23l.33,1.08c1.59,.58,3.24,1.16,4.87,1.78,.88,.34,1.81,.65,2.58,1.17,1.3,.9,2.68,1.19,4.2,1.04,.13-.01,.27,.02,.6,.05-.25,.22-.36,.41-.5,.43-.37,.06-.76,.01-1.13,.09-1.68,.36-2.98-.55-4.34-1.26-1-.52-1.94-1.08-3.09-1.31-.91-.18-1.79-.62-2.65-1.01-1.54-.69-3.11-.32-4.68-.23-1.84,.11-3.26,1.21-4.84,1.96-1.58,.74-3.28,.97-5.02,.8-1.18-.12-2.31,.02-3.42,.53l1.12,1.32h0l1.43,1.71-.91,1.24,.71,.36c0,.14,.02,.23,0,.27-.34,.4-.66,.32-.95-.06-1.69,.68-3.33-.27-5-.23l-1.71-.49,.31,1.83,3.02,.05,.02,.17c-.44,.04-.88,.09-1.32,.1-1.05,.03-2.11,.11-3.15,.02-1.69-.13-3.01-.99-4.1-2.29,.45-.55,.71-.26,1.04-.02,.8,.57,1.62,1.12,2.48,1.59,.33,.18,.78,.12,1.18,.17l.19-.25-.88-1.57-1.94-.33,.43-.82-.25-.19-.8,.67-.36-.41-1.47-.02-.11,.75-1.2,.31,.59,1.47,2.46,1.75-.14,.21-2.85-1.28-.56-2.07c-.64-.34-1.35-.71-2.06-1.09l-.18,.33,.79,.45-.21,.64c-10.39,.33-20.72,.01-30.96,.36l-.85-.52c-1.11-.22-1.8,.55-1.57,1.9,10.71,.07,21.45,.14,32.13,.21l.95,1.24c-.4,.57-1.04,.72-1.76,.73-1.31,.03-2.61,.05-3.92,.12-.41,.02-.82,.21-1.22,.47,1.07,.71,2.31,.56,3.41,.95,1.11,.4,2.22,.81,3.43,1.25-.56,.44-1.09,.56-1.64,.36-2.27-.81-4.66-.5-6.98-.76-.68-.08-1.37-.03-2.06-.04l-.04,.22c1.38,.29,2.75,.57,4.13,.86l-.08,.14,1.09,1.25c-.94,.46-1.79-.2-2.65-.12-.9,.08-1.83-.03-2.74-.15-.89-.11-1.77-.34-2.68-.42,1.32,1.36,3.23,1.53,4.82,2.32l-.04,.26c-.81-.1-1.64-.14-2.43-.33-.83-.19-1.62-.53-2.59-.85,1.54,1.58,3.51,1.82,5.23,2.6,1.82,.82,3.68,.37,5.49,.72-1.05,.56-2.15,.62-3.25,.46-3.05-.45-5.97-1.33-8.77-2.6-.7-.32-1.44-.54-2.2-.71l-1.58-1.09c-1.77-.17-3.38,.06-4.96,.7-.81,.33-1.68,.52-2.54,.72-.26,.06-.56,0-.83-.05-1.49-.29-2.97-.59-4.46-.89-.1-.02-.22-.03-.32,0-1.76,.47-3.53,.93-5.28,1.44-.23,.07-.38,.38-.54,.54-.59,.17-1.15,.33-1.69,.49-4.74-1.38-7.71-1.02-10.54,1.96-.77,.3-1.32-.17-2.06-.74l.27,2.25c.81,.42,1.59,.17,2.34-.2,.91-2.22,1.99-2.88,4.47-2.8,1.12,.03,2.24,0,3.35,0,.85,0,1.55,.36,2.59,1.37l2.69-.19c.11-.16,.39-.43,.47-.74,.37-1.5,1.34-2.13,2.83-2.19,1.74-.07,3.42,.1,5.02,.7l.41,1.26,2.85-.09c.48-1.89,1.85-2.33,3.56-2.25,.98,.04,1.96-.04,2.94-.01,.38,.01,.75,.16,1.01,.41l2.02,2.1,.17-.26c1.26,.52,2.51,1.03,3.83,1.58l1-.71c.28,.13,.78,.21,.91,.46,.74,1.5,2.41,1.9,3.39,3.06,2.33,.11,4.3-1.03,6.45-1.53-1.57,1.23-3.32,2.07-5.35,2.68l1.24,1.02c2.5,.02,4.75-1,7.07-1.86-1.46,1.57-3.51,1.92-5.45,2.52-.03,1.06,1.49,1.25,1.27,2.51-3.37-2.16-6.23-4.78-9.13-7.31-1.66,.55-3.01,2.5-3.06,4.4,2.71,2.67,5.36,5.43,8.41,7.74l2.58,1.24c.32-1.16,.57-2.31,.96-3.42,.37-1.07,.22-2.31,.92-3.27l1.23-.11,1.74,1.98-.03,1.85-.13-.03c-.47,1.6-.94,3.2-1.43,4.87l3.52,2.99c.9-2.19,.3-4.45,.87-6.42-.59-1.16-2.07-1.3-2.42-2.47l.21-.24,2.41,1.66,.62-.21c-.2,2.94-.38,5.8-.58,8.7l1.1,.62c.81-.74,.78-1.74,.96-2.64,.17-.86,.27-1.74,.36-2.62,.09-.87,.12-1.75,.18-2.7l-1.65-.78,.49-.62c1.57,.59,2.03,1.59,1.8,3.13-.28,1.88-.36,3.79-.51,5.62,.74,.66,1.39,1.36,2.16,1.89,.56,.39,1.27,.59,1.93,.85,1.11,.43,2.24,.82,3.35,1.27,.19,.08,.32,.33,.41,.74-.26,0-.54,.06-.77-.02-1.97-.75-3.93-1.52-5.96-2.32-1.04,3.18,.36,6.13,1.37,9.15-1.37-1.17-1.32-2.93-1.91-4.4-.63-1.57-.37-3.27,.02-4.85l-.75-1.67-.68,1.01-1.12-.02c-.97-.48-2.04-.95-2.03-2.21-.84-.6-1.54-1.2-2.34-1.62-.77-.41-1.62-.72-2.46-.91-.85-.2-1.41-.6-1.6-1.36-.68-.41-1.27-.77-1.88-1.13l-.86,1.35-.17-.05-.62,4.28c-.81-1.37-.41-4.48,.64-5.99-1.55-1.29-3.09-2.58-4.62-3.86-.5-.56-.97-1.12-1.48-1.65-.66-.68-1.43-1.27-2.02-2-.7-.88-1.61-1.03-2.6-1.12-1.38,1.49-3.21,1.97-5.15,2.4l-.42,.87c-.51,.08-1.06,.16-1.61,.26-.31,.05-.62,.1-.92,.2-1.17,.39-2.31,.92-3.5,1.18-1.23,.26-2.51,.26-3.77,.39-1.19,.13-2.4,.19-3.58,.43-1.23,.25-2,1.22-2.76,2.16l1.96-.73c0,.97-.72,1.03-.93,1.27-.83,1.46-1.56,2.75-2.17,3.83l-.03,1.85,1.63-.05c.52-1.58,1.36-2.9,2.76-4.03,.85,.21,1.4-1.01,2.65-.82-.99,1.16-1.9,2.15-2.71,3.21-.79,1.05-1.47,2.18-2.14,3.43,.26-.14,.62-.22,.76-.43,.45-.67,.75-1.44,1.24-2.08,.7-.92,1.46-1.8,2.27-2.64,.57-.59,1.26-1.08,2.03-1.46-1.12,1.26-2.2,2.55-3.36,3.77-1.18,1.25-1.71,2.87-2.43,4.39l-.21-.08-.13-.85c-.53-.27-.95-.17-1.3,.2-.46,.49-.96,.95-1.32,1.5-.89,1.36-2.27,2.13-3.62,2.83-2.4,1.24-4.68,2.66-6.88,4.2-.68,.48-1.14,1.31-1.63,2.04-.41,.61-.73,1.29-1.04,1.96-.8,1.74-1.32,3.56-1.43,5.49-.12,2.21-2.35,4.54-4.32,4.89-.13,.18-.31,.4-.46,.63-.13,.2-.22,.42-.39,.75,.98-.17,1.83-.31,2.85-.48-.09,.57-.14,.97-.22,1.37-.03,.13-.13,.25-.2,.37-.82,1.36-1.64,2.71-2.5,4.13l.33,.59c-.1,.09-.15,.18-.2,.18-2.57,.04-5.11-.22-7.88-.49l.72-.82-.35-1.03c1.22-1.91,1.19-4.01,1.06-6.25-.13-2.36-1.26-4.09-2.58-5.82,.24-.97,.52-1.87,.68-2.8,.08-.46-.03-.97-.08-1.45-.08-.8-.19-1.59-.28-2.42l-1.21,.21c.12,.83,.22,1.69,.36,2.55,.18,1.13,.02,2.14-.72,3.07-.22,.28-.23,.81-.16,1.2,.11,.62,.36,1.21,.57,1.88,2.74,1.66,3.08,4.16,2.15,7.1-1.88,.77-.75,2.7-1.4,4.07l1.78,2.81-.06,3.5-1.15,2.15-2.16,.24c-1.23,1.1-1.68,2.29-1.64,3.78,.04,1.33-.36,2.56-1.86,3.26l-1.53,.3,.14,1.06,3.89-1.59c.06-.32,.15-.68,.2-1.05,.11-.81,.21-1.61,.31-2.42,.14-1.11,.8-1.76,1.83-2.08,.54-.17,1.07-.38,1.66-.59l1.11-1.39c.38-1.47-.29-3.12,.56-4.66l-.57-.84c.25-.18,.45-.44,.67-.45,.84-.06,1.69-.06,2.54-.04,.91,.02,1.83,.07,2.74,.12,.4,.02,.79,.1,1.18,.28l1.59-.16-.24,.86c.55,0,.78-.3,.97-.69,.44-.88,.89-1.77,1.39-2.63,.2-.34,.55-.6,.83-.89l-.69,1.6c.52-.43,.97-.89,.68-1.6l.52,.18c-.23,1.15-.52,2.28-1.32,3.1-.98,1.01-1.47,2.22-1.86,3.52-.24,.78-.52,1.54-.84,2.29-.13,.31-.39,.57-.59,.85-.5-.95-.16-1.85,.13-2.76,.21-.65,.4-1.31,.6-1.96l-.24-.16c-.2,.15-.55,.27-.57,.45-.26,1.57-1.4,2.99-.9,4.82l.99-.4Zm17.92-73.11l1.04,.7,1.43-.53-1.9-1.82-1.76-.24-.12,.3,.95,.85,.38,.76-1.8-1.31-.47,.53-.5-1.27c-.84,.59-.25,1.27-.35,2.01l1.05-.05,1.91,.77,.13-.72Zm-19.99-33.09l-2.26-1.78-.95,.37,.61,2.28,1.47,.02c.24-.16,.45-.29,.64-.44,.17-.14,.32-.31,.47-.47,.73,.32,1.48,.49,2.37,.21l-1.47-1.86-2.05-.03,1.17,1.71Zm2.87,70.14l1.08-.06-.35-1.45-2.67-.36-.54,.7c-.79-.25-1.41-1.03-2.5-.61,.38,.92,1.24,1.36,1.78,2.04,.66,.83,1.73,.29,2.66,.58l.57-.87-.02,.02Zm2.08-138.93c.14,0,.28,.02,.42,.02,4.13,0,8.26-.02,12.4,.01,4.3,.03,8.6,.13,12.9,.19,1.51,.02,3.02,.02,4.53,.03,.24,0,.48-.02,.8-.04l.3,.75-.74,1.76c-.91,.87-2.22,1.42-2.39,3.1,2.09-.32,2.56-2.18,3.64-3.19l.03-1.81c-.19-.22-.43-.39-.49-.61-.35-1.17-1.27-1.29-2.27-1.32-.98-.02-1.97-.03-2.95-.07-4.54-.16-9.09-.3-13.61,.25-3.11,.38-6.18,.38-9.26-.08-.79-.12-1.6-.15-2.48-.23l-.81,1.26-1.32,1.04,.75,.87,.25-.07-.03-1.11,.33-.74Zm69.64,67.88c-.2,.43-.34,.9-.6,1.28-.52,.75-1.14,1.43-1.67,2.17-.17,.24-.2,.58-.33,.98,1.31-.23,2.03-.85,2.24-1.79l1.66-1.77-1.32-.86-.13-1.02c-.94,.05-1.75,.14-2.55,.12-1.97-.05-3.94-.15-5.91-.22-1.05-.04-2.11-.05-3.16-.06-2.12-.02-4.23-.04-6.35-.03-2.12,.02-4.23,.08-6.35,.13-1.12,.03-2.25,.11-3.37,.09-1.22-.02-2.54,.32-3.56-.72-.03-.03-.13,.01-.34,.04l.36,2.11c.78-.03,1.44-.09,2.09-.07,1.06,.03,2.11,.16,3.16,.17,1.65,0,3.3-.09,4.95-.09,3.24,.02,6.47,.07,9.71,.12,1.37,.02,2.74,.05,4.1,.07,1.08,.01,2.18,.12,3.25,0,1.37-.15,2.84,.19,4.11-.66Zm-69.97,42.14c-1.42-.88-2.94-.88-4.4-1.11-1.31-.21-2.64-.36-3.95-.57-.59-.09-1.18-.24-1.75-.42-.79-.25-1.6-.5-2.34-.86-1.5-.74-2.97-1.56-4.45-2.34-.34-.18-.78-.22-1.06-.46-1.11-.98-2.39-.54-3.61-.46-.67,.04-1.33,.21-1.99,.32l-.13-.3c.39-.73,1.58-.42,1.91-1.26,.02-1.17,.05-2.36,.06-3.55,.03-3.33,.09-6.67,.08-10-.01-4.84-.08-9.68-.12-14.51-.02-3-.03-6-.06-9.01-.03-2.61-.19-5.23-.11-7.84,.1-3.04,.07-6.08,.04-9.11-.02-2.31-.03-4.62-.08-6.93-.04-1.83-.16-3.65-.18-5.48-.03-2.18,.01-4.37,.02-6.56,0-2.86,0-5.72,.01-8.58,0-2.3,.07-4.59,.04-6.89-.02-1.51-.23-3.02-.27-4.53-.08-2.74-.11-5.48-.16-8.23-.02-.91-.05-1.81-.08-2.84-8.97,0-17.83,0-26.7-.01-.11,.3-.21,.48-.25,.68-.4,2.12-.79,4.23-1.17,6.35-.19,1.08-.48,2.15-.53,3.24-.1,2.18-.11,4.37-.09,6.56,.04,3.29,.18,6.57,.2,9.86,.01,2.22-.08,4.45-.16,6.67-.07,1.73-.32,3.46-.28,5.18,.05,2.86,.34,5.71,.39,8.57,.1,6.15,.11,12.3,.14,18.46,0,1.1-.15,2.19-.12,3.29,.08,3.14,.24,6.28,.32,9.43,.03,1.2,.2,2.49-.17,3.58-.46,1.36-.19,2.63-.29,3.97,1.69,.78,3.31,1.52,4.79,2.2,.42,.26,.71,.48,1.03,.64,.97,.48,1.96,.92,2.92,1.42,.81,.42,1.57,.91,2.37,1.35,1.2,.67,2.43,1.3,3.62,1.99,.66,.38,1.26,.88,1.92,1.28,.67,.4,1.37,.75,2.05,1.11l-.09,.17,1.39-.18c0,.9-.46,1.14-1.11,1.28-.51,.11-1.04,.29-.76,1.09l.96-.53,1.03,.73-1.59,1.1c1.13,1.22,2.62,1.36,4.16,1.62l.47-.6c-.07-.82-1.57-1.05-.57-2.17l1.39,1.25,.19-.11c-.04-.26,0-.57-.14-.76-.9-1.2-2.19-1.8-3.62-2.09,.15-.69,.54-.72,1-.65,1.04,.14,1.89,.6,2.7,1.3,.88,.77,1.2,1.61,.96,2.71-.11,.51-.07,.95,.33,1.36,.56,.58,1.04,1.24,1.6,1.83,.48,.51,.56,1.42,.04,1.7l-.57-.22c-.39,.27-.74,.57-1.14,.77-.37,.18-.78,.32-1.18,.37-1.43,.17-2.3,.86-2.72,2.22-.34,1.11-.7,2.21-1.06,3.31-.67,2.05-.15,3.97,.66,5.94l.93,.28,.71-4.48h.25c.04,.16,.13,.31,.13,.46-.04,.99-.08,1.98-.15,2.97-.19,2.38,.11,4.65,1.46,6.69,.78,1.17,1.71,2.22,3.04,2.78,1.5,.63,3.07,.78,4.72,.39-.01-.34-.06-.66-.04-.97,.06-1.01-.29-1.78-.99-2.54-1.45-1.57-2.99-3.09-3.92-5.06-.97-2.07-1.21-4.25-.99-6.5,.02-.17,.09-.33,.13-.5l.33,.25c.01,.27,.06,.53,.04,.8-.23,3.28,.75,6.09,3.05,8.48,1.43,1.48,2.62,3.2,4.37,4.34,.37,.24,.51,.55,.22,1.04l-1.19-.85-.03,1.71c.85,.95,.76,2.06,.12,3.23-.59,1.06-.37,2.03,.47,2.88,.97,.25,1.16-.68,1.65-1.1,.16-.14,.03-.6,.04-.87l-1.22-.46c.43-.78,1.09-.15,1.49-.46l1.34,1.05c.41-.84,1.74-.92,1.46-2.15-.12-.69-1.25-.76-.99-1.89l1.21,.87c.19-.86,.52-1.66,.5-2.45-.05-1.85,.7-3.37,1.71-4.79,.67-.93,.86-1.98,1.02-3.06,.05-.37,.14-.74,.21-1.11l.25,.03c.03,.52,.1,1.04,.09,1.55-.02,.55-.12,1.09-.19,1.72,.99,.12,1.71-.2,2.36-.55l.4-1.31c2.68-1.63,5.47-.51,8.21-1.25-.18-1.78-.65-3.52-1.91-4.96Zm-85.8-7.26c-.05,.71-.12,1.19-.12,1.67,.04,3.36,.08,6.71,.18,10.07,.01,.44,.22,.96,.51,1.3,1.62,1.91,3.3,3.77,4.95,5.65,.31,.35,.43,.71-.1,1.05-1.74-2-3.45-3.97-5.17-5.94-.15,2.81-.12,5.52-.06,8.23,.06,3.35,.15,6.7,.21,10.06,.03,1.69,.02,3.39,.09,5.08,.03,.91,.29,1.82,.26,2.73-.04,1.29-.26,2.58-.41,3.94l.65,.34-.02,1,.21-.17c.26,.37,.49,.78,.8,1.11,2,2.19,4.01,4.37,6.03,6.55,.65,.7,1.33,1.37,2,2.06,.27,.28,.55,.57,.24,.85-1.58-1.57-3.12-3.11-4.66-4.64-1.55-1.55-2.79-3.44-5-4.62,.17,9.18-.13,18.19,.57,27.21l.6,.31c.32,.61,.47,1.11,.78,1.46,1.66,1.88,3.37,3.72,5.05,5.58,.22,.24,.42,.5,.62,.76l-.16,.15c-2.6-1.77-4.3-4.57-7.03-6.54,.08,3.03-.07,5.84,.4,8.77,8.75-.01,17.38-.03,26.19-.04,.02-.92,.04-1.64,.04-2.37,0-.78-.04-1.55-.03-2.33,.02-2.5,.09-5.01,.08-7.51-.01-3.77-.08-7.53-.11-11.3-.01-1.59,.04-3.18,.01-4.77-.04-2.36-.16-4.72-.19-7.09-.03-2.43,.02-4.86-.01-7.29-.05-3.85-.15-7.69-.21-11.54-.05-2.82-.06-5.64-.1-8.47-.01-.85-.1-1.69-.09-2.54,0-1.75,.19-3.52,.04-5.26-.1-1.22-.1-2.37,.26-3.4l-.82-1.65c-3.95-.1-7.91-.46-11.93-1.61-5.1-1.21-9.67-4.01-14.54-6.8Zm6.96-35.95l-.34,.32-6.89-7.42,.12,3.91,6.45,7.47c-2.63-1.6-4.01-4.5-6.43-6.3l-.21,.16,.86,1.35-.84,.36-.06,3.53c.35,.17,.7,.42,1.09,.51,2.19,.52,4.16,1.69,6.4,2.11,1.08,.2,2.08,.81,3.12,1.22,2.14,.84,4.27,1.68,6.42,2.49,1.48,.55,2.91,1.18,4.32,1.88,1.55,.77,3.29,1.15,4.69,2.26,.12,.09,.31,.08,.6,.14,.04-.43,.1-.77,.1-1.1-.01-3.69-.03-7.37-.06-11.06-.01-2.42-.02-4.85-.06-7.27-.04-2.33-.15-4.65-.16-6.98,0-2.5,.08-4.99,.13-7.49,.02-1.26,.06-2.51,.07-3.77,0-1.29-.04-2.58-.05-3.87-.02-1.56,0-3.12-.04-4.68-.06-2.1-.21-4.19-.26-6.29-.08-3.34-.1-6.69-.14-10.03-.08-5.54-.16-11.08-.23-16.61-.01-.97,.03-1.94,.05-3.03-.85-.05-1.71-.13-2.57-.14-1.86-.02-3.73,.03-5.59,.01-2.5-.03-5-.12-7.5-.15-2.26-.02-4.51-.01-6.77,.02-.81,.01-1.61,.11-2.42,.18l-.06,.27c.24,.29,.44,.63,.72,.88,.9,.8,1.86,1.53,2.74,2.34,.85,.79,1.66,1.63,2.44,2.5,.24,.26,.59,.64,.06,1.1-.66-1.52-1.96-2.33-3.08-3.33-1.15-1.01-2.4-1.73-3.98-1.85l-.03,2.01,.29-.22c1.28,1.46,2.52,2.96,3.85,4.37,.74,.79,1.63,1.43,2.42,2.17,.24,.22,.38,.55,.57,.83l-.21,.18c-.31-.21-.67-.38-.93-.64-1.04-1.01-2.07-2.03-3.07-3.08-.82-.86-1.8-1.42-3.08-1.99-.19,1.48-.53,2.81-.22,3.95,.78,.64,1.38,1.07,1.91,1.58,1.34,1.31,2.64,2.66,3.96,3.98,.44,.45,.91,.87,1.35,1.32,.06,.07,0,.25,0,.46l-.85-.17,.14-.19-4.83-4.8-.44,1.03-1.15-1.59-.17,.06,.1,2.58c1.51,1.67,2.79,3.13,4.11,4.53,1.32,1.4,2.9,2.56,3.98,4.23-.78-.18-1.58-.23-2.16-.85l.09-.7c-2.05-2.31-5.01-4.88-5.92-5.14-.02,.96-.09,1.9-.02,2.84,.04,.49,.22,1.05,.52,1.43,1.99,2.47,4.05,4.9,6.06,7.36,.19,.23,.28,.54,.41,.81l-.21,.14c-.16-.12-.34-.21-.46-.35-1.49-1.79-2.95-3.62-4.48-5.38-.5-.57-1.18-.99-1.93-1.6l.32,23.34,.4-.31c.32,.51,.6,1.05,.97,1.53,.49,.64,1.02,1.27,1.58,1.85,1.14,1.16,2.32,2.28,3.48,3.43,.32,.32,.75,.61,.63,1.31l-6.83-6.36-.21,.1-.05,2.94c.47,.53,.82,.91,1.15,1.32,.93,1.15,1.83,2.33,2.79,3.45,.62,.72,1.34,1.36,2,2.05,.35,.37,.51,.74-.09,1.11-.39-.52-.71-1.03-1.11-1.46-1.63-1.77-3.59-3.26-4.79-5.49l.23,5.14c1.09,1.36,2.08,2.65,3.14,3.87,1.04,1.2,2.38,2.13,3.33,3.4l-.26,.24c-2.02-2.09-4.03-4.17-6.15-6.36-.06,.3-.11,.43-.11,.56,.06,1.27,.13,2.53,.18,3.43l7.12,8.11Zm43.26,55.31l-2.2-4.21c-2.01-.67-3.11-2.12-3.63-4.01-2.93-.52-5.74-1.01-8.67-1.53-.01,.66-.03,1.14-.02,1.62,.01,.85,.05,1.7,.07,2.54,.05,2.05,.09,4.1,.15,6.14,.08,2.58,.18,5.15,.24,7.73,.06,2.51,.03,5.02,.11,7.53,.04,1.16,.37,2.32,.35,3.48-.03,2.54-.22,5.08-.31,7.62-.06,1.84-.08,3.68-.09,5.52-.01,2.44,.03,4.87,0,7.31-.02,1.87-.19,3.74-.11,5.61,.18,4.41,.52,8.81,.7,13.22,.08,1.95-.05,3.91-.08,6.04,9.2-.1,18.56-.2,28.03-.31l-.16-4.09c-.42-.48-.95-.94-1.26-1.51-.31-.56-.39-1.25-.58-1.92-.88-.33-1.79-.68-2.77-1.05l-.98,.89c-1.93,.45-3.79-1.08-4.61-2.42-1.17-1.91-.91-3.84,.57-5.59-.25-1.62-.5-3.28-.73-4.83-2.96-2.3-2.81-6.92,.18-8.46l.38-.95c-.15-.86-.16-1.7-.12-2.54,.03-.69-.07-1.27-.5-1.88-.81-1.16-.67-3.6,.15-4.63,.55-.68,1.12-1.35,1.67-2.02l.28,.24,.06-3.66c-2.97-2.3-2.16-5.12-1.27-7.94l-1.52-3.59c-2.06-.28-3.37-1.65-3.97-3.32-.59-1.62-.84-3.52,.61-5.04Zm-4.92-30.83l.1-.19c-.24-.04-.51-.03-.71-.14-1.57-.85-3.05-1.87-4.84-2.27-.15-.03-.26-.23-.42-.31-.86-.47-1.71-.95-2.58-1.4-.4-.21-.87-.31-1.24-.56-.7-.47-1.41-.8-2.24-.61-1.21-.85-2.4-1.63-3.87-1.82-.21-.03-.42-.09-.61-.18-1.18-.62-2.36-1.24-3.52-1.89-.69-.39-1.32-.92-2.03-1.26-1.34-.64-2.69-1.3-4.11-1.74-1.56-.48-3.1-.99-4.58-1.68-1.05-.49-2.03-1.2-3.27-1.22-.18,0-.36-.19-.54-.28-1.38-.69-2.88-1.07-4.3-1.69-1.31-.58-2.78-.8-4.16-1.24-.85-.27-1.66-.67-2.57-1.05l-.19,11.61,1.01,.65c.16,.73,.24,1.39,.46,2.01,.36,1.02,.78,2.02,1.21,3.02,.31,.71,.61,1.44,1.04,2.07,.99,1.45,1.99,2.91,3.11,4.25,1.46,1.76,3.04,3.43,4.58,5.13,1.53,1.69,3.69,2.44,5.52,3.7,.46,.32,.88,.73,1.39,.92,2.1,.81,4.17,1.65,6.36,2.25,2.15,.59,4.34,.93,6.51,1.38,2.51,.52,5.1,.66,7.52,1.63,.61,.25,1.22,.54,1.85,.72,1.33,.37,2.68,.68,4.03,1.02l.13-1.41,1.83-1.91c0-.08,0-.32,.01-.57,.09-1.1-.09-2.06-.99-2.86-.4-.36-.66-1.02-.74-1.58-.19-1.33,.05-2.65,.78-3.77,.79-1.2,1.51-2.67,3.44-2.12,.17,.05,.39-.1,.56-.15l.82,.63,1.51-.82,.04-2.36-1.83-1.3-4.51-2.62Zm9.18,38.92l1.26,3.06,.99,.43c.12,.81,.22,1.57,.33,2.33,.34,.44,.99,.8,.44,1.51-1.39,.15-.65-1.66-1.68-1.8-.85,1.23-.77,3.43,.2,4.54,.36-.27,.49-1.05,1.2-.66l.37,1.02c.81-1.02,.94-2.05,.98-3.17,.05-1.17-.6-2.03-1.01-3.07,.35,.05,.64,.15,.84,.35,1.7,1.76,1.1,3.77,.64,5.75-1.35,.71-1.79,1.39-1.72,2.88,.04,.9,0,1.89,.37,2.68,.56,1.21,1.1,2.37,.88,3.72-.28,1.69-.65,3.37-2.8,3.92,0,.54-.02,1.09-.03,1.63,0,.48-.02,.97-.02,1.45,0,.54-.02,1.08-.03,1.54l.88,.6c.45,.93,1,1.74,.68,2.84-.27,.92-.31,1.91-.44,2.86l-.7,.15-.77,1.36,.69,4.55,1.23-.04c1.28,1.71,2.66,3.47,2.98,5.81l.44,.62,3.08,1.06,1.39-1.16-.69-.85c.1-1.38,.28-2.79,.29-4.19,.01-2.1-.15-4.21-.15-6.31,0-3.56,.09-7.12,.08-10.68,0-2.6-.16-5.2-.17-7.81-.01-2.09,.13-4.17,.13-6.26,0-2.07-.08-4.15-.13-6.22l.27-.15-1.35-1.33c-.99-2.7-2.43-5.33-2.65-8.36-2.87-1.74-3.89-4.56-4.29-7.76l-1.32,1.01c-1.83-.56-3.59-1.11-5.33-1.64l-.83,1.47,1.93,3.58,2.34,1.47c.2,.6,.48,1.12,.86,1.56,1.12,1.28,1.29,2.81,1.4,4.19l-1.04,1.5Zm-27.63-111.5c.13,.52,.3,.92,.31,1.33,.06,2.11,.07,4.22,.11,6.33,.05,2.96-.18,5.92,.17,8.87,.11,.97,.02,1.97,.04,2.96,.04,2,.12,4,.12,6,0,1.09-.16,2.19-.15,3.28,.03,3.11,.13,6.21,.15,9.32,.02,2.36-.06,4.72-.05,7.08,0,1.53,.08,3.07,.11,4.6,.02,.84,.01,1.69,.03,2.54,.05,2.82,.1,5.64,.16,8.47,.01,.67,.04,1.33,.06,2.01,1.16,.85,2.37,1.41,3.96,1.65,.02-1.33,.04-2.53,.06-3.72,.03-1.94,.09-3.89,.06-5.83-.03-2.11-.17-4.22-.21-6.34-.03-2.15,.01-4.29,.02-6.44,.01-4.08,.04-8.15,.02-12.23-.01-2.9-.07-5.79-.15-8.69-.01-.44-.29-.87-.46-1.33,.06-.2,.2-.48,.21-.76,.03-1.88,.03-3.77,.04-5.65,0-1.9,0-3.79,.01-5.69,0-.07,0-.14,0-.21-.1-2.46-.24-4.91-.29-7.37-.09-4.47-.12-8.95-.19-13.42-.03-1.9-.09-3.81-.13-5.54l.81-1.29-4.78-.08c.02,6.5,.22,12.86,.17,19.42l-.21,.71Zm6.32,167.96l.04-2.16c-.07-1.29-.04-2.59-.03-3.88,0-1.41,.01-2.82-.03-4.24-.03-1.12-.18-2.24-.17-3.36,.04-3.1,.17-6.2,.2-9.3,.03-2.58-.05-5.15-.05-7.73,0-2.85,.03-5.7,.04-8.55,0-1.55-.02-3.11,0-4.66,.01-2.22,.07-4.44,.07-6.66,0-1.62-.01-3.25-.08-4.87-.04-1.11-.18-2.21-.3-3.53,.49-.96,.39-2.24,.34-3.49-.09-2.09-.36-4.17-.44-6.26-.07-1.53,.03-3.07,.06-4.48l-.62-1.54-3.57-.43-.71,2.02,.55,.45-.61,2.27h.67l-.4,2.68c.23,2.13,.73,4.26,.12,6.45,.61,1.03,.33,2.16,.28,3.27-.04,.83-.1,1.66-.15,2.48l.17,.02-.45,.72,.62,.2c-.02,1.2-.03,2.36-.06,3.52-.02,.77-.15,1.54-.12,2.3,.03,1.25,.2,2.5,.22,3.76,.03,2-.02,4.01-.01,6.02,0,.95,.09,1.9,.09,2.86,0,2.11-.14,4.23,0,6.33,.07,1.16,.11,2.3,.07,3.45-.08,2.49-.06,4.98-.08,7.47,0,.14,.02,.28,.03,.42,.09,1.58,.23,3.16,.26,4.75,.06,3.5,.06,7,.1,10.49,.01,1.04,.1,2.08,.15,3.12l3.83,.06Zm43.52-58.81l-.02-.31,.85,.22-.24,.82,.61,.71c.95,0,1.83,.19,2.71,.36,.24,.05,.49,.06,.73,.05,.68-.02,1.35-.07,2.02-.1,.64,.1,1.19-.21,1.9-.2,.64,.02,1.71-.13,2-1.08,.28-.93,.55-1.9,.6-2.86,.07-1.51-.04-3.02,.41-4.5,.23-.75,.17-1.53-.57-2.16-1.78,1.1-3.63,1.73-5.61,.83-.58,1.04-.69,3.37-.24,4.22,.11,.21,.33,.35,.48,.53,.43,.51,.99,.96,.82,1.86l-1.45-1.31c-2.16,.19-4.12,.37-6.12,.55l-.74,.86c-.62-.35-.42-.74-.07-1.02,.61-.48,1.29-.85,2.12-.74,.37,.05,.74,.07,1.4,.14-.31-.44-.45-.69-.64-.9-.22-.24-.48-.44-.73-.66l.12-.23,1.19,.27,.48,.64,2.04,.27,.08-4.69-1.18-.88c-1.19,.28-2.49,.59-3.82,.91-.28,.44-.53,.85-.8,1.26-.95,1.4-.88,2.99-.82,4.56,.05,1.08-.04,2.1-.59,3.06-.15,.27-.14,.63-.19,.89,1.01,.75,1.87,.06,2.88,.08l.36-1.46Zm-26.43-28.3c.9,1.36,.36,2.55-.15,3.76-.54,1.29-1.31,2.31-2.75,2.58-.44,.86-.51,2.87-.11,3.61,.13,.24,.32,.47,.54,.61,1.1,.68,1.62,1.73,1.9,2.93,.15,.63,.26,1.27,.39,1.94,1.22-.67,2.32,.77,3.5,.08l-.49-3.27-.7-.52c.24-.22,.5-.35,.57-.54,.37-1.06,.68-2.14,1.05-3.2,.37-1.05,.63-2.19,1.23-3.1,.89-1.36,2.46-1.6,3.97-1.8,.51-.07,1.07-.05,1.31-.74l-2.02-1.81c-2.56,1.19-4.54-.19-6.63-1.53l-1.61,.99Zm46.89,1.03c-.76,.04-1.31,.1-1.87,.1-3.25,.03-6.49,.02-9.74,.08-.82,.01-1.64,.31-2.46,.3-.93-.02-1.86-.33-2.8-.37-1.54-.06-3.09,0-4.63,0-3.11,.03-6.24,.42-9.33-.29-.16-.04-.34,.03-.65,.06l.17,2.02c1.49,.09,2.89,.21,4.29,.24,3.92,.08,7.84,.07,11.75,.17,3.77,.1,7.52,.06,11.29-.17,1.44-.09,2.93-.51,4.35,.22,.02,.01,.09-.08,.15-.13l-.55-.75,.02-1.49Zm38.21-64.69c1.35-.72,2.93,.23,4.23-.98l-.77-.82c-.75-.01-1.35-.03-1.95-.03-1.23,0-2.47-.03-3.7,.03-.8,.03-1.6,.24-2.41,.27-.4,.01-.8-.2-1.21-.32l.03-.19c-7.87,.07-15.74,.14-23.6,.2l-.21-.86-.2-.04-.66,1.51,.81,1.2c1.4-.65,2.82-.43,4.22-.39,1.83,.06,3.66,.09,5.49,.12,1.55,.03,3.09,.07,4.64,.05,1.08-.02,2.17-.16,3.25-.18,1.62-.03,3.23,.01,4.85,0,2.2-.02,4.41-.06,6.63-.1l.55,.53Zm-68.99,98.9c.85,.1,1.52,.26,2.19,.26,1.46,0,2.94-.26,4.37-.1,2.59,.29,5-.3,7.36-1.19,.96-.36,1.82-.91,2.19-1.98,.18-.51,.25-.95-.38-1.29l-1.38,1.25c-1.74,.7-3.56,1.06-5.49,.93-2.44-.17-4.88-.24-6.91-.33-1.13-.83-1.94-1.36-2.69-1.98-1.33-1.1-1.74-2.66-2.02-4.42l-1.58-.38c.05,.53,.03,.87,.12,1.17,.52,1.6,.99,3.22,1.65,4.76,.4,.93,.67,2.07,1.87,2.42l1.24-.22-.55,1.11Zm34.06-16.39l-.03-.26c.7-.41,1.4-.82,1.96-1.15,.61,.2,1,.36,1.41,.44,.71,.14,1.44,.23,2.16,.36,.24,.04,.47,.2,.71,.19,2.32-.08,4.49-.74,6.58-1.71,.72-.34,1.5-.59,2.27-.8,.27-.07,.64,.02,.91,.16,.9,.44,1.75,.98,2.65,1.39,.36,.17,.84,.21,1.24,.14,.82-.14,1.64-.37,2.44-.61,1.18-.34,2.27-.35,3.25,.54,.19,.17,.5,.2,.82,.32l.22-.66c-1.28-.56-2.5-1.09-3.73-1.62l-.69,.59c-1,.15-1.9,.32-2.81,.41-1.26,.13-2.38-.1-3.06-1.37-.18-.34-.59-.75-.92-.78-.82-.07-1.66,.05-2.4,.09-1.78,3.22-7.5,3.76-10.11,1.12l-2.16-.04c-.31,.45-.56,.96-.94,1.36-1.28,1.35-2.97,1.52-4.69,1.44-.8-.03-1.59-.2-2.26-.28l-1.84-1.04-2.8,.63-.35,1.27c1.53-.35,2.88-.66,4.22-.97l-.02,.26c.35,.26,.67,.61,1.06,.76,.58,.21,1.21,.29,1.83,.4,1.75,.3,3.43,.05,5.07-.57Zm-13.4-82.31c.18-.17,.3-.39,.42-.39,2.9-.03,5.81-.03,8.79-.04l.52,.41,.22-.11-.36-1.28c-10.31-.57-20.58-.13-30.8-.44l-.48-.95-.21,2.35,1.27,.19,.13,.74,.55-.59,.36,.23,1.85-.46,.78,.31c1.57-.44,6.1-.3,7.24,.24,.44-.97,1.02-.32,1.56-.31l7.77-.35,.39,.46Zm93.27-2.04c-.51,.02-.94,.05-1.36,.04-3.31-.09-6.61-.23-9.92-.29-4.36-.08-8.72-.16-13.09-.14-2.56,.01-5.12,.23-7.67,.36-.13,0-.25,.09-.42,.16l.18,.9c.91,.02,1.78,.04,2.65,.04,3.52,0,7.05-.03,10.57-.02,1.72,0,3.44,.13,5.17,.12,1.51,0,3.02-.14,4.53-.18,2.75-.08,5.49-.14,8.24-.19,.35,0,.71,.1,1.03,.14l.08,.88,.24-.03-.22-1.81Zm-93.59,34.51c4.5,.02,8.79,.04,13.09,.04,4.28,0,8.56-.02,12.97-.03l-.05-1.37c-1.82-.03-3.5-.06-5.19-.09-3.77-.06-7.54-.12-11.3-.16-2.18-.02-4.36,.01-6.54,0-.91,0-1.81-.03-2.86-.05l-.11,1.63Zm-15.86,84.31c-3.21-1.24-4.54-4.22-2.8-7.8l.87-.61-.32-2.08-2.31-2.43-.04,2.39,.91,.63q.2,1-.95,2.39c-.49,3.39,.41,6.2,3.29,8.06l.19,.84-1.02,2.97c.26,.38,.39,.74,.41,1.1,.12,1.61,.26,3.2,1.81,4.19,.11,.07,.16,.23,.24,.34l.35,3.16,.57,.67c.5-1.21,.36-2.37,.42-3.47-2.28-1.97-2.45-4.39-1.68-6.99,.33-1.1,.66-2.16,.07-3.38Zm15.78-14.7l.14,.25,14.14,.24,1.48-2.09c-.85-.08-1.43-.2-2-.18-1.8,.09-3.59,.28-5.39,.36-1.86,.09-3.72,.1-5.58,.16-.2,0-.39,.07-.56,.1l-.4-1.06c-.87,.68-1.3,1.5-1.84,2.22Zm89.36-69.74l4.34-.24c.49-.51,.32-.94-.19-1.41-4.6-.51-9.23,.1-13.63,.18l-1.55-.99,.18,2.27,10.85,.18Zm43.61,63.95c-.53-.22-.85-.35-1.16-.49-1.63-.78-3.28-1.57-3.86-3.49-.28-.93-.53-1.9-.62-2.87-.08-.83,.1-1.69,.16-2.53-.63,.49-1.21,.98-1.54,1.61-.26,.49-.35,1.16-.26,1.71,.16,1.04,.57,2.03,.74,3.07,.26,1.67,1.27,2.7,2.69,3.42,.87,.44,1.74,.88,2.73,1.37l1.14-1.8Zm-142.7-65.02l-11.43-.19-.03,1.57,12.51,.21-1.05-1.59Zm34.67,45.9c.06-.68-.28-.81-.7-.87-.97-.13-1.93-.33-2.91-.37-1.19-.05-2.54,.42-2.78,1.77,.41,0,.82,.03,1.22,.02,.42-.01,.87-.11,1,.52-.53,.92-1.68,.18-2.43,.88,.99,.89,2.06,.99,3.25,.77,2.2-.42,3.43-.97,3.68-1.72-.81-.36-1.98,.67-2.71-.69l2.36-.31Zm135.18-1.64l-.02-.2c.61-.51,1.21-1.05,1.85-1.53,1.02-.76,1.04-1.8,.81-2.87-.2-.93-.92-1.36-1.83-1.53-1.47-.27-2.8-.02-3.99,.97l-.53,.98c-.63,.15-1.04,.58-1.05,1.18l1.04,1.16c.84-.9,.79-2.31,1.96-3.2l1.55-.14,1.78,1.5c-.31,1.15-.59,2.09-1.52,2.62l-2.07-.03-.03,1.61,2.04-.53Zm-151.8,3.5l.07,.74-2.21,.56c1.94,1.17,5.99,.93,6.72-.96-.95,.02-1.96,.35-2.73-.57,.49-.16,.97-.17,1.46-.22,.51-.06,1.09,.03,1.55-.58-.31-.07-.5-.14-.69-.14-1.37-.06-2.75-.17-4.11-.12-.74,.03-1.5,.3-2.21,.56-.28,.11-.46,.49-.68,.75l.14,.2,2.7-.23Zm-47.53-16.11c-2.05,2.3-2.53,3.96-1.65,5.69,.75-.7-.12-1.91,.79-2.73,.59,1.15,.46,2.22,.29,3.32,2.2-.9,3.35-3.35,2.5-5.45l-1.59,.67c-.38-.44-.23-.76,.18-1.06,.33-.24,.63-.53,.94-.79l-.14-.15-1.32,.5Zm22.66,32.27l.04,.24c.43,.11,.85,.3,1.28,.32,1.64,.07,3.29,.18,4.92,.08,1.31-.09,2.61-.45,3.91-.73,.22-.05,.39-.34,.71-.64-.58-.14-.91-.29-1.25-.29-1.33,0-2.65,.09-3.98,.09-1.1,0-2.29,.27-3.11-.84l-2.52,1.77Zm16.36-15.4l-.04,.26c-.79-.01-1.59-.09-2.38-.02-1.14,.1-2.28,.28-3.41,.49-.29,.05-.53,.37-.79,.56l.07,.27,1.92,.19,.17,.34-1.04,.37c.42,.31,.56,.51,.73,.53,1.01,.12,2.03,.33,3.02,.24,.73-.07,1.43-.52,2.12-.85,.16-.08,.19-.39,.36-.75q-1.95,.69-2.34,.03l2.56-1.03-.95-.6Zm-34.53,7.16c-.22,.69,.68,1.39-.41,1.67l-.9-1.06c-.84,1.18,.19,2.31-.23,3.39,.89,.68,1.23,1.81,2.31,2.26,.28-.63-.09-.89-.41-1.25-.3-.34-.62-.77-.24-1.5l2.13,2.68,.55-.86-.69-2.62-2.12-2.72Zm-5.81-12.56c-1.85,1.65-.51,3.28-.34,4.94,.71,.1,.76,1.27,1.81,.99-.4-1-1.2-1.79-1.08-3.1,1.57,.64,1.03,2.53,2.18,3.25,1.12-1.43,.43-4.46-1.21-5.67l-.47,1.25c-.94-.24-.67-.94-.88-1.66Zm76.61-46.35l.03,.16-1.49,1.71,1.51,1.57c-1.14-.22-1.68-.72-2.41-2.02-.52,.22-1.19-.17-1.75,.44l2.13,2.57c.19,.02,.45,.1,.68,.07,.72-.1,1.43-.25,2.24-.4l-.74-2.86c1.53-1.12,2.28-2.67,3.51-4.01l-.81-.23c-.99,1.03-1.94,2.02-2.88,3.01Zm-56.03,102.09h-.21l-.14,1.8c1.49,.3,2.87,0,4.37,.43-1.43,2.06-.74,4.15-.4,6.25-.67,.38-1.21,.79-1.83,1-.6,.21-1.27,.22-1.9,.32l-.03,.27c.42,.1,.84,.24,1.27,.28,.44,.04,.89-.03,1.52-.07l1.55-1.95c-.16-1.47-.47-2.69-.37-3.88,.1-1.21,.6-2.39,.98-3.75l-4.5-.08-.31-.63Zm3.58-16.6l.3-.1,.95,1.56c.89-1.95,.26-4.43-1.29-5.5-.7,.61,.71,1.57-.45,2.2-.18-.3-.43-.56-.52-.87-.1-.34-.07-.72-.1-1.22-1.71,1.89-1.09,4.46,1.24,5.64l-.13-1.71Zm27.09-116.02l-.11,1.17,.87,1.27,2.4,.04v-.13l.84,.33,.75-.46,1.68,.24,.79-.61-.79-1.54-1.08-.29,.57-1.27-.2-.1-.82,1.38-.75,.43,.57,.92-.13,.16-1.52-1.09,.06-.17-1.39,.05,.63,1.25c-.88-.48-1.2-1.5-2.36-1.58Zm139.57,103.43c.2-.81,.81-1.59,.38-2.57-.99,.95-1.92,1.86-2.86,2.76,.16,.99,.32,2.02,.5,3.21l1.75-.3,.71,.67c.66-.99,1.58-1.79,1.49-3.13-1.33-.33-2.47,.97-3.79,.4q.34-.57,1.82-1.03Zm-147.43-61.42l-2.72-3.16c-.27-.57-.5-.96-.64-1.38-.14-.42-.23-.86-.25-1.3-.03-.86,.02-1.72,.03-2.45-1.04-.87-1.88-.36-2.87-.24,.45,1.33,1.31,2.06,2.58,2.47l-.35,.88-.81-.31c0,.29-.09,.55,0,.68,.77,1.09,1.52,2.2,2.37,3.23,.47,.57,1.08,1,1.14,1.83,.02,.22,.2,.43,.33,.68l1.19-.93Zm-34.34,96.75c-.99,2.35,.32,3.78,1.87,5.15,.54-.02,1.14,.5,1.72-.18l-1.82-.99c.88-1.22,1.64-.29,2.37-.09,.09-1.19-.64-2.36-2.06-3.31l-1.42,.86-.66-1.44Zm8.92,7.16c-.12,1.7,1.48,2.14,4.1,1.24,.28-.55,1.14-.88,.79-1.82l-1,1.02-.51-.91c.27-.7,1.19-.95,.85-1.8-1.42,.13-2.79,.23-3.73,1.51,.1,.41,1.14,.41,.55,1.2l-1.05-.46Zm83.32-144.98l-2.22-2.47-1.99,.27,1.43,1.74c-1.18-.46-1.75-2.03-3.52-1.43,.89,.84,1.15,2.13,2.48,2.22l.27,.65c.21,.02,.39,.06,.56,.04,.17-.01,.33-.08,.48-.12l.11-.57,1.51,.68,.89-1Zm-92.31,130.17c1.36-1.02,1.79-3.62,.91-4.8l-1.1,.19-.54-1.49c-1.47,1.4-1.62,4.79-.23,5.85-.1-.57-.2-1-.25-1.44-.06-.55,.07-.98,.94-.96l.27,2.64Zm85.83-34.2c.55-1.99,1.1-3.99,1.63-5.92l-1.31-1.53c-.17,.31-.3,.47-.35,.66-.39,1.38-.81,2.76-1.12,4.16-.14,.63-.08,1.33,0,1.99,.05,.45,.4,.73,1.15,.65Zm-29.57-35.41l-.16-.17c-.15,.04-.36,.03-.45,.13-1.59,1.65-3.16,3.31-4.74,4.97l-2.89,.15c.69,1.62,1.81,2.24,3.29,1.43,.3-.8,.52-1.7,1.6-1.79,.82-1.82,2.49-3,3.35-4.72Zm-42.71,42.32l-.25,.02-.69-1.77-.33,.02c-.6,1.19-.42,2.49-.35,3.79l1.07,1.24c.25-.53-.11-1.29,.72-1.42,.43,.42-.34,1.26,.58,1.54,.65-1.4,.87-2.83,.66-4.32-.08-.54-.43-.87-1.05-.72l-.36,1.61Zm-3.75-137.46c1.31,.41,10.42,.36,11.3-.06-.17-.67-.68-.66-1.23-.67-2.27-.02-4.53-.09-6.8-.09-1.08,0-2.16,.1-3.27,.15v.67Zm164.91,140.15l.17-.98,1.09-.1c-.3-.22-.4-.3-.51-.37-1.26-.76-2.61-1.4-3.53-2.61-.1-.13-.28-.22-.43-.3-1.05-.55-2.12-1.06-3.15-1.64-.5-.28-.93-.67-1.39-1.02l-.25,.08c.06,.55,.11,1.1,.15,1.53,3.15,1.17,5.77,2.82,7.86,5.41Zm-8.36-2.85c1.08,.62,2.18,1.03,2.98,1.77,1.2,1.12,2.57,1.85,4.04,2.45,.58,.24,1.2,.47,1.89,.13-.92-.58-1.8-1.09-2.63-1.67-1.03-.72-1.96-1.63-3.05-2.23-.92-.5-2.02-.68-3.11-1.02l-.12,.57Zm-111.17-75.7l-.26,.28c.87,1.46,2.18,2.53,3.32,3.67l.45,2.26c.96,.95,2,1.13,3.3,.66-.19-.16-.28-.24-.38-.33-.78-.76-1.85-1.39-2.27-2.32-.56-1.23-1.45-2.05-2.37-2.89-.55-.5-1.2-.89-1.8-1.33Zm-36.92,100.33c1.41-.95,1.16-4.07-.4-5.35l-.42,.38,.46,1.71c-.43,0-.76,.05-.8-.02-.26-.61-.47-1.24-.69-1.86-.19,1.71-.73,3.47,.72,4.98l.55-1.34,.32,.05,.25,1.46Zm-1.21,11.97l1.47-.29c.64-2.01,.93-3.88-.2-5.89-.55,.58-.39,1.1-.37,1.6,.01,.54,.02,1.14-.76,1.33-.1-.2-.17-.35-.24-.5-.07-.16-.13-.33-.25-.63-.59,1.27-.53,2.39-.16,3.56l.79-.5,.21,.13-.49,1.19Zm5.61-103.46l-4.78,5.65c.63,.48,1.1,.26,1.48-.03,.49-.39,.96-.83,1.37-1.31,1.2-1.41,2.36-2.86,3.55-4.32-.62-.61-1.18,.1-1.61,.01Zm63.27-35.23l.87-.33-.43-.77-1.01-.31c-.36-.75-.73-1.53-1.1-2.3-.09-.19-.19-.39-.35-.52-.8-.68-1.61-1.34-2.42-2-.36-.3-.72-.41-1.09-.02,.67,.95,1.32,1.88,1.98,2.82,1.03,.75,1.98,1.6,2.5,2.87l1.04,.56Zm-85.22,114.82l.34,2.65c1.67-1.11,2.25-4.21,1.05-5.05-.29,.51,.29,1.32-.49,1.63-.91-.28-.17-1.19-.67-1.62-1.23,.55-1.57,1.25-1.34,2.76l1.12-.38Zm25.88-150.21l.63,.9c-.6-.3-1.12-.66-1.7-.82-.57-.15-1.19-.1-1.78-.14l-.05,.28,3.5,2.16,1.8-.2,.15-1.86-1.05-.46-1.49,.13Zm37.53,112.97l.09,.97-2.03,.09c.57,1.31,1.11,1.61,2.24,1.4,.38-.07,.76-.08,1.14-.15,.28-.05,.54-.17,.81-.26l.1-.24c-1.39-.41-1.93-1.33-1.68-2.62-1.43-.38-2.52-.05-2.93,.99l2.26-.18Zm-23.72-4.7c1.08,.21,1.64-.22,2.02-.92,.72-1.32,1.41-2.66,2.19-4.13l-1.3-.33-2.91,5.38Zm55.42-13.21c-1.07,1.58-2.89,2.64-3.18,4.85l1.55,.26c.86-1.66,1.62-3.25,1.63-5.11Zm-74.29,44.96c-1.95,1.41-2.11,3.87-3.56,5.58,.55-.11,1.07-.26,1.39-.61,.49-.54,.84-1.21,1.24-1.82,.19-.29,.35-.61,.56-.88,.45-.59,.93-1.15,1.46-1.81l-1.09-.46Zm16.94-45.07l.29-.11c.22,.4,.39,.84,.67,1.18,.82,.98,1.72,1.9,2.53,2.89,.49,.6,1.02,.61,1.74,.35l-.58-1.27-.52,.08c-1.68-1.4-2.59-3.7-5.03-3.98l-.21,.18,.89,1.23,.21-.55Zm-27.18,34.93l1.04-2.7-.45-1.06c-.96-.03-1.83-.04-2.68,.22,.21,1.54,1.09,2.53,2.09,3.54Zm166.44,7.21c-.31,.65-.59,1.29-.91,1.9-.33,.64-.71,1.26-1.11,1.95l.93,1.02c1.72-.37,2.35-3.25,1.08-4.88Zm-10.9-14.62c-2.7,3.11-2.15,7.09-.53,8.21-.17-1.35-.37-2.69-.48-4.05-.04-.51,.14-1.03,.22-1.55h.11l.26,.61c.16-1.02,.83-1.96,.42-3.23Zm-152.51,20.11l.32,1.84,2.19,1.5,.28-1.07c-1.46-.95-1.71-1.51-1.29-2.73,.06-.17,.2-.33,.2-.49-.01-.61,.53-1.24-.04-1.95l-1.66,2.89Zm58.85-27.5c-2.5-.75-4.73-1.52-7.11-1.73,.78,1.03,2.09,.84,3.06,1.41,.98,.58,2.03,1.07,3.14,1.65l.92-1.33Zm28.5-50.6c-.9-1.46-1.95-2.64-3.14-3.69-.49-.43-1.1-.72-1.82-.54,.04,.73,.51,.76,.92,.71,.86,1.32,1.69,2.57,2.48,3.78l1.57-.26Zm-66.53-2.97c-.8-.25-1.32,.13-1.72,.54-.73,.75-1.43,1.54-2.03,2.39-.42,.6-.67,1.33-.99,2.01,.62,.42,1.03,.19,1.3-.29,.7-1.28,1.57-2.41,2.65-3.39,.34-.31,.51-.8,.79-1.26Zm-5.14,75.98l1.04,.61c.66-1.13,1.28-2.16,2.06-3.5,.47-.33,1.34-.79,1.77-1.9-.92,.3-1.79,.32-2.33,1.1-.81,1.18-1.63,2.36-2.55,3.69Zm3.08,8.02c-.53-1.94-1.54-3.37-2.86-4.66l-.94,.35c.41,1.84,2.26,2.64,2.67,4.3l1.12,.02Zm60.61-118.46l-.91,.03-2.21,4.66c.59,.42,.6,1.27,1.36,1.4,.09-.69,.07-1.37,.26-1.98,.43-1.33,.96-2.63,1.51-4.1Zm-35.16,41.79c-1.31,1.65-2.59,3.12-3.49,4.99l1.66-.14,.48-1.19,.11,.07,1.81-3.06-.57-.67Zm49.03-68.75c.99-.58,2.32-3.75,2.08-5.01-.57,.1-.95,.39-1.16,.95-.11,.29-.25,.61-.46,.82-1.02,.97-1.09,2.06-.46,3.25Zm74.88,120.24l-2.17-.24c.06,1.29,.12,2.48,.17,3.68,.74,.04,.98-.23,2.2-2.41l-.2-1.04Zm-163.65-58.71l-.28,.22,3.54,5.16,1.47-.26c-1.2-1.62-2.88-2.6-3.42-4.39l-1.31-.73Zm41.62,4.11c.63,1.69,2.19,2.35,3.41,3.39l1.32-.44-2.91-2.48,.2-.2-2.01-.27Zm-21.84-25.1l.12,.28c.22,.04,.5,.2,.66,.11,.55-.29,1.18-.56,1.56-1.02,.64-.78,1.1-1.69,1.65-2.55,.24-.37,.29-.7-.24-1.01-1.26,1.4-2.51,2.8-3.75,4.19Zm-18.97,96.74c-.79,.07-1.39,.16-1.98,.16-.56,0-1.11-.12-1.76-.2l.05,1.4,4.27,.07-.58-1.42Zm65.54-39.05q2.31,1.47,3,1.05l-5.47-5.04c-.18,.99,.45,1.28,.87,1.62,.78,.64,1.44,1.33,1.61,2.37Zm28.86-37.47c-1.04-.25-1.32-.24-1.82,.32-1.05,1.16-2.06,2.36-3.07,3.55-.04,.04-.02,.13-.03,.27l.51,.44c.3-.25,.64-.45,.86-.74,.81-1.05,1.44-2.25,2.7-2.9,.31-.16,.51-.54,.86-.95Zm-76.09-31.35c.52,1.51,2.99,3.65,4.4,3.65-1.1-1.32-2.11-2.53-3.19-3.82l-1.21,.18Zm69.49,38.43l1.74-.27,.17-1.72-3.27-.43c-.06,1.25,1.07,1.52,1.37,2.43Zm-53.55,39.81c-.28-1.03-.98-1.77-1.42-2.2-.74-1.23-1.26-2.12-1.81-3.03l-.9,.52c.67,.93,1.28,1.83,1.94,2.69,.6,.78,.96,1.82,2.19,2.01Zm31.18-71.72l-.41-.28c-1.09,1.35-2.19,2.7-3.25,4.07-.12,.16-.06,.46-.08,.7l.31,.09c1.34-1.39,2.87-2.63,3.43-4.58Zm-33.31-7.1c-1.85,.9-2.02,2.81-3.01,4.26l.8,.99,2.21-5.25Zm58.98,43.69c-.94-1.39-.88-2.86-1.94-3.81l-1.21-.02c.1,.26,.13,.43,.22,.56,.78,1.12,1.53,2.26,2.36,3.35,.4,.52,.74,1.22,1.83,1.08l-1.26-1.16Zm12.26,94.89l.29,1.6c.45,.1,.83,.24,1.22,.27,.4,.03,.81-.03,1.29-.05l-.07-1.78-2.72-.05Zm-104.1-161.27l.19,.22c.38-.2,.81-.33,1.12-.6,.57-.49,1.07-1.06,1.6-1.6,.24-.25,.53-.48,.7-.78,.13-.23,.12-.55,.17-.82l-.3-.16-2.09,1.65-1.39,2.11Zm11.11-5.78c.66-1.71,2.45-2.44,2.78-4.25-1-.05-2.27,1.36-2.49,2.59l-.89,.71,.59,.95Zm69.38,.65c.03,1.56-1.43,2.65-1.13,4.26,1.42-.78,1.15-2.55,2.18-3.45-.06-.65-.3-.94-1.06-.81Zm3.52,64.28l-.15,.11c.92,.92,1.84,1.83,2.71,2.71l1.31-.41-1.57-1.25,.12-.73-2.44-.43Zm-36.15-63.38l1.74,.14,.12-.25c-1.07-.68-2.46-1-2.75-2.49l-1.57,.05-.09,.3c.43,.34,.87,.66,1.28,1.02,.42,.37,.8,.77,1.28,1.23Zm98.13,117l-1.64,.92c.63,.61,1.26,1.22,1.83,1.78,.61-.98,.62-1.64-.19-2.69Zm-112.88-79.21c-.82-1.02-1.48-1.88-2.19-2.7-.3-.35-.69-.62-1.33-.08l1.94,2.59,1.58,.2Zm43.13,.34l-2.8-3.8-1.15,.16v.24l.76,.32,2.42,3.36,.78-.28Zm-70.15,99.74l.09-.36c-.71-.63-1.42-1.27-2.13-1.9-.71,.78-.84,1.18-.63,2.04l2.67,.21Zm45.87-65.4c.08-.28,.16-.41,.12-.46-.99-1.47-1.98-2.94-3.02-4.38-.11-.15-.51-.1-.78-.14l-.13,.25,3.8,4.73Zm-7.49-72.82c.94,.56,1.78,.67,2.6,.35l-2.92-2.76c-.24,.7,.26,1.14,.52,1.68l-.2,.73Zm-31.13,3.65c.02-1.1-.82-2.15-1.98-2.52-.35-.11-.85-.31-1.01,.4,.74,.97,1.71,1.67,2.98,2.11Zm-10.09,131.65l-.81-1.04-1.01,.12c.12,.88-.25,1.77,.6,2.5l.6-.1,.62-1.48Zm87.49-131.74l.56-.39-2.31-3.16-1.18-.02,2.93,3.57Zm62.42,116.26c.84-.73,.93-1.26,.44-2.62l-1.74-.32,1.31,2.94Zm-68.09-53.38l.16-.28c-.76-.58-1.11-1.62-2.23-1.83-.57,.48-.69,.97-.21,1.57l2.27,.54Zm-68.56,76.92c-1.61-.23-2.04-1.59-2.9-2.47,.17,.59,.49,1.08,.61,1.61,.2,.9,.62,1.52,1.57,1.76l.72-.91Zm-12.71-144.68c-.17,.71-.4,1.37,.28,1.76,.61,.35,1.3,.44,2.04-.25l-2.32-1.52Zm142.98,133.91l-.26-.12c-.74,.85-1.48,1.7-2.36,2.72l1.68,.11c.17-.56,.28-.98,.43-1.39,.16-.44,.35-.87,.52-1.31Zm-96.63-130.85l2.63,2.41,.21-.22-2.3-2.92-.54,.74Zm90.05,131.16l-.16,.27c.72,.52,1.45,1.03,2.15,1.53l1.02-.43,.02-.24-3.04-1.14Zm11.77-2.01l-.33-.03c-.29,.37-.58,.73-1,1.27l1.33,.75,.25-.17-.25-1.82Zm-131.46-38.87c-.83-.87-2.04-1.05-2.43-.58l1.97,.89,.46-.31Zm61.84-94.74c-.57-.13-.9,.19-.96,.73-.06,.49,.1,.96,.75,.99l.21-1.72Zm17.67,139.16l.03,.21c1.16-.08,2.18-.51,3.08-1.28l-3.11,1.07Zm-94.91-71.46c-.45-1.36-.62-1.57-1.34-1.82l1.34,1.82Zm-22.96,105.22l.17,1.14,.91-.83-1.08-.3Zm101.25-171.66l-.82-.5-.02,1.21,.84-.71Zm-35.12,112.18l.04-.37-1.16-.02-.02,.25,1.13,.14Zm-40.08,28.3l1.45,.35q-.59-.68-1.45-.35Zm3.65-.67l-.19,.15,.73,.98,.28-.23-.82-.9Zm.7,14.14h-.23l-.25,1.15,.26,.04,.22-1.19Zm-11.21-14.17q.81-.21,.38-.77l-.38,.77Zm24.3-41.3l-.25,.23,.57,.63,.24-.22-.56-.64Zm52.42-38.98l.06-.43-.78-.06-.04,.33,.77,.16Zm27.78,6.25l.54,.64,.28-.17-.14-.91-.68,.43Zm-7.5,76.92l.63-.75-1.03-.02,.4,.77Zm-88.75,15.89l.27,.29,.68-.69-.22-.22-.73,.62Zm12.92-63.01l-.18,.2,.9,.89,.14-.15-.87-.94Zm-5.04-34.63l-.27-.21-.48,.74,.17,.12,.58-.64Z"
  />
  <path fill="#58b6d0"
    d="M268.28,354.05c.59-.39,1.19-.77,1.78-1.18,.56-.39,1.11-.81,1.58-1.34,1.5-.48,3.03-.9,4.51-1.45,1.29-.48,2.48-1.21,3.78-1.63,3.55-1.15,7.12-2.28,10.72-3.24,1-.27,2.24-.19,3.23,.15,2.4,.82,4.69,1.93,6.85,3.31,1.74,1.11,3.44,2.38,5.57,2.76,.95,.17,1.9,.35,2.88,.53l-.02,1.07,2.14,.04c-1.22,.61-2.49,.87-3.78,.51-.87-.24-1.74-.56-2.54-.98-1.08-.56-2.06-1.34-3.16-1.87-1.61-.78-3.26-1.48-4.94-2.1-.88-.33-1.86-.39-2.79-.6-2.17-.5-4.33-.32-6.49,.05-2.52,.43-5.03,.86-7.4,1.89-1.51,.66-3.05,1.25-4.59,1.86-.36,.14-.75,.19-1.11,.33-.71,.28-1.42,.57-2.12,.88-1.28,.57-2.55,1.17-3.96,1.32l-.16-.31Z"
  />
  <path fill="#58b6d0"
    d="M295.99,309.72c.37-1.29,.18-1.71-.97-2.2-.63-.26-1.16-.61-1.45-1.29,1.43,.05,3.11,1.19,3.76,2.54-.1,.98-.5,1.75-1.59,2.05,.24,.57,.46,1.08,.69,1.61,1.19-.11,2.28,0,3.33,.96l-1.55-.03,.02,.12c-1.22,.27-2.43,.54-3.88,.86-.83-.21-1.93-.36-2.92-.77-.86-.36-1.83-.85-2.33-1.57-.94-1.36-2.25-1.85-3.76-2.19-.31-1.12-1.65-.88-2.24-1.83,.82,.16,1.67,.25,2.47,.5,1.75,.54,3.45,1.25,5.22,1.7,.94,.24,2,.12,2.99,.04,.73-.06,1.44-.32,2.23-.5Zm-3.46,1.31c-.83,.09-1.55-.4-2.29,.15l.85,1.18,1.98,.56c-.22-.75-.37-1.28-.54-1.89Z"
  />
  <path fill="#58b6d0"
    d="M227.34,366.51c.03,.34-.03,.64,.08,.87,.91,1.92,1.5,3.93,1.81,6.02,.3,2.09,.56,4.2,.14,6.3-.38,1.9-.89,3.78-1.36,5.66-.09,.34-.31,.64-.57,.93-.42-1.04-.14-2.04,.14-2.97,.56-1.92,.72-3.87,.76-5.84,.03-1.48,.1-2.97-.03-4.44-.1-1.11-.45-2.21-.76-3.29-.3-1.05-.68-2.08-1.04-3.12-.1-.3-.23-.6-.41-.86-1.03-1.51-2.08-3-3.14-4.5-.95-1.35-1.44-2.9-1.76-4.49-.27-1.34-.36-2.71-.52-4.07-.02-.17,0-.35,.17-.55,.29,1.41,.49,2.85,.89,4.24,.41,1.41,1.01,2.77,1.54,4.22,1.25,.36,1.51,1.65,2.05,2.6,.54,.93,1.26,1.8,1.49,2.92,.03,.17,.37,.28,.51,.38Z"
  />
  <path fill="#58b6d0"
    d="M252.65,390.24l.35-3.92,.38,.03c-.14,2.06,.06,4.13-.34,6.18-1.43-1.53-1.7-3.39-1.88-5.38l-.84,1.27-.22-.83-.9,.17c.96-1.82,2.16-3.31,2.39-5.21,.22-1.81,.48-3.62,.73-5.48,.56,2.96-.04,5.77-.91,8.57,2.18-3.32,2.16-6.97,1.66-10.73,.32,1.45,.85,2.85,.78,4.35-.07,1.51-.17,3.01-.26,4.55-1.93,1.89-1.96,4.08-.95,6.42Z"
  />
  <path fill="#58b6d0"
    d="M238.84,206.38l-23.18-.39-.03-.13c.87-.1,1.75-.26,2.62-.28,2.39-.05,4.79-.04,7.19-.04,3.34,0,6.67,.04,10.01,.04,.76,0,1.52-.09,2.38-.14-.1-.3-.11-.53-.23-.67-.9-1.02-1.84-2.01-2.74-3.03-.25-.29-.49-.62-.62-.97-.1-.28-.01-.63,0-1.01l2.43,.65,.08-.21,.66,1.03-1.78-.19c.26,.44,.42,.79,.65,1.1,.61,.81,1.32,1.57,1.86,2.42,.34,.54,.46,1.22,.68,1.83l.02-.02Z"
  />
  <path fill="#58b6d0"
    d="M289.78,317.21c-.75-.01-1.5-.07-2.24-.03-1.18,.07-2.34,.06-3.41-.51-.14-.08-.25-.21-.42-.35,.35-.52,.77-.51,1.23-.34,1.57,.58,3.07,.47,4.63-.18,.88-.37,1.91-.38,2.95-.57l.61,.57,1.66-.19c-.31,.59-.52,.98-.77,1.46-1.12-.14-2.08,.4-3.11,.9-1.29,.62-2.72,.96-4.1,1.4-.77,.25-1.56,.47-2.34,.68-.24,.06-.5,.05-.76,.07l-.04-.2c2.06-.8,4.12-1.59,6.17-2.39l-.04-.32Zm.33-.61q.82,.41,1.36-.41l-1.36,.41Z"
  />
  <path fill="#58b6d0"
    d="M236.49,369.84c.22-.2,.42-.56,.65-.58,2.15-.2,3.41-1.52,4.42-3.3l-.47,1.44c1.16-1.15,1.79-2.54,2.07-4.09,.28-1.59,.49-3.18,.91-4.75,.59-2.2,.45-4.47-.02-6.81,1.71,2.01,1.52,7.05-.33,8.93-.01,.62,0,1.32-.04,2.02-.16,3.02-1.59,5.31-4.12,6.9-.88,.56-1.94,.44-2.94,.5l-.14-.26Z"
  />
  <path fill="#58b6d0"
    d="M172.66,367.34c.33,2.46-.87,4.21-2.69,5.61l.06,1.09c-.95,.4-1.19,.39-2.22-.12,.44-.9,.83-1.8,1.53-2.58,.65-.72,1.4-1.43,1.18-2.62,1.31-1.27,1.38-3.13,2.1-4.71,.03,2.14-.74,4.09-1.45,6.06,.91-.7,.95-1.83,1.49-2.74Z"
  />
  <path fill="#58b6d0"
    d="M174.79,379.07c.84-2.97,1.36-5.89,3.06-8.36,.62-.89,1.38-1.68,2.08-2.51l.24,.17c-.57,.82-1.14,1.64-1.81,2.6l.8-.37,.12,.14c-.17,.19-.31,.41-.5,.58-1.45,1.28-2.02,2.89-1.89,4.81,.1,1.55,.13,3.1,.17,4.65,0,.27-.09,.54-.25,.82-.45-1.29-.39-2.63-.34-4.14-1.07,1.11-.07,2.39-.67,3.49-1.1-.35-.62-1.37-1.01-1.88Z"
  />
  <path fill="#58b6d0"
    d="M186.41,353.04c-.19,.32-.35,.67-.58,.96-1.14,1.41-2.46,2.68-4.1,3.46-1.56,.74-2.61,1.9-3.43,3.32-.62,1.06-1.12,2.2-1.7,3.28-.24,.44-.57,.84-.86,1.26l-.31-.06c-.06-.26-.23-.56-.15-.78,.57-1.71,1.42-3.26,2.5-4.74,1.18-1.62,2.84-2.48,4.48-3.42,1.28-.73,2.39-1.62,3.3-2.76,.19-.24,.43-.44,.65-.66l.2,.15Z"
  />
  <path fill="#58b6d0"
    d="M237.18,388.62l.03-2.05c.94-1.58,.32-3.3,.08-4.97-.18-1.31-.71-2.58-1-3.88-.1-.46,.06-.98,.04-1.47-.03-.84-.05-1.68-.17-2.51-.18-1.35-.44-2.69-.66-4.03l.19-.09c.13,.25,.3,.48,.39,.74,.82,2.26,1.13,4.6,.89,6.98-.14,1.45,.33,2.76,.97,3.93,.52,.97,.69,1.95,.64,2.93-.06,1.25-.43,2.49-.72,3.71-.07,.29-.36,.53-.55,.79l-.14-.09Z"
  />
  <path fill="#58b6d0"
    d="M322.9,349.18l.78,.32c0,.19,.04,.3,.01,.39-.36,1.21-.71,2.43-1.1,3.63-.11,.32-.3,.65-.54,.9-1.38,1.42-3.01,2.49-4.69,3.49l-.19-.21,.96-.9c.44-.57,.72-1.02,1.08-1.38,1.59-1.56,2.79-3.35,3.31-5.55,.05-.19,.2-.36,.37-.68Z"
  />
  <path fill="#58b6d0"
    d="M179.89,386.97c-.71-.66-1.04-1.4-1.04-2.47,0-1.42,.11-2.8,.39-4.17,.26-1.31,.54-2.62,.89-3.91,.25-.93,.71-1.74,1.81-2.02-.62,.97-1.42,1.85-1.38,3.24l1.41-1.66,.11,.08c-.52,.89-1.16,1.74-1.53,2.69-.87,2.25-.95,4.6-.47,6.97,.08,.39,.05,.81,.07,1.21l-.26,.04Z"
  />
  <path fill="#58b6d0"
    d="M221.78,376.68c.08,.43,.15,.86,.25,1.29,.52,2.29,.5,4.54-.45,6.74-.68,1.57-1.34,3.16-2.05,4.85l-.66-.64-1.19,.69-.17-.18c.1-.18,.16-.43,.31-.54,1.73-1.34,2.64-3.13,3.02-5.25,.14-.79,.56-1.54,.67-2.33,.13-.99,.08-2.01,.07-3.01,0-.51-.09-1.03-.14-1.54l.35-.06Z"
  />
  <path fill="#58b6d0"
    d="M249.61,304.69c1.09-.04,2.17-.08,3.26-.12,1.49-.07,2.99-.14,4.48-.22,.17,0,.38-.1,.52-.04,1.47,.7,3.13,1.1,4.23,2.35l-.02,.94,1.55,.87-.11,.29-2.41-.56-.35-1.74-2.14-1.05v-.19c-1.53,.04-3.07,.14-4.61,.11-1.49-.02-2.99,.03-4.44-.4l.04-.26Z"
  />
  <path fill="#58b6d0"
    d="M240.83,370.91c1.59,.7,2.48,.49,3.63-.82,1.19-1.34,2.12-2.8,2.06-4.69-.02-.55-.04-1.09-.06-1.64l.22-.04c.1,.49,.27,.98,.3,1.47,.14,2.05-.59,3.87-1.54,5.63-.57,1.05-1.54,1.39-2.64,1.47-.91,.06-1.82,.08-2.8,.11-.43-.91,.84-.84,.82-1.5Z"
  />
  <path fill="#58b6d0"
    d="M306.7,356.34c2.43-1.39,5.6-1.15,7.5-3.8l.78,.28c-.15,.43-.26,.74-.44,1.24l1.44-.77,.16,.29c-1.03,.77-2.12,1.46-3.34,1.92-1.96,.73-4.01,.94-6.1,.85Z"
  />
  <path fill="#58b6d0"
    d="M218.81,377.87l-.03,1.51,.59,.27-.52,.88c.05,3.21-1.21,7.23-3.15,8.58l-2.23,.28c1.14-1.17,2.29-2.05,3.05-3.19,.81-1.2,1.48-2.55,1.64-4.07,.15-1.43,.34-2.86,.52-4.29l.14,.04Z"
  />
  <path fill="#58b6d0"
    d="M203.76,341.43c-2.05,1.76-3.56,3.89-4.44,6.41l-.88,2.4-.28-.04c-.03,1.51-.05,3.02-.09,4.52,0,.09-.19,.17-.44,.38-.16-.37-.33-.65-.39-.95-.29-1.47,0-2.87,.5-4.25,.38-1.02,.57-2.14,1.08-3.08,.67-1.23,1.51-2.37,2.4-3.46,.66-.81,1.5-1.47,2.26-2.19l.27,.26Z"
  />
  <path fill="#58b6d0"
    d="M215.67,372.23c.17,1.32,.4,2.63,.51,3.96,.15,1.89,.42,3.78-.2,5.67-.45,1.36-1.14,2.47-2.33,3.26-.57-.42-.37-.83-.13-1.25,.5-.88,1.1-1.73,1.47-2.67,.66-1.66,.71-3.44,.63-5.21-.04-.92-.13-1.83-.19-2.75-.02-.33,0-.66,.01-.99l.22-.02Z"
  />
  <path fill="#58b6d0"
    d="M184.78,380.45c-.24,.58-.42,1.19-.74,1.72-1.69,2.71-1.9,5.63-1.37,8.68,.1,.6,.39,1.27-.6,1.75-.17-.35-.4-.68-.5-1.04-.44-1.62-.15-3.24,.17-4.82,.32-1.58,.8-3.12,1.22-4.68l.21,.08,1.45-1.77,.17,.08Z"
  />
  <path fill="#58b6d0"
    d="M229.37,326.62c.5-.08,.83-.2,1.15-.18,1.2,.08,2.4,.17,3.58,.33,1.47,.2,2.8-.17,4.1-.79,1.37-.64,1.38-.62,2.18-.44-.86,1.21-2.25,1.23-3.36,1.77-1.21,.58-2.45,.53-3.73,.49-1.3-.05-2.61,0-3.92-1.19Z"
  />
  <path fill="#58b6d0"
    d="M204.87,370.92c.98-2.07,.78-4.21,.65-6.39,1.07-1.11-.16-2.29,0-3.5,2.39,2.97,1.55,9.48-.65,9.89Z"
  />
  <path fill="#58b6d0"
    d="M208.53,376.59c.09-2.14,.23-4.27,.25-6.41,.01-2.14-.11-4.27,.02-6.44,.13,.68,.3,1.35,.38,2.03,.27,2.38,.57,4.77,.74,7.16,.06,.89-.15,1.82-.33,2.71-.08,.37-.4,.69-.61,1.03l-.43-.09Z"
  />
  <path fill="#58b6d0"
    d="M206.68,359.63c-.87-.95-.86-2.12-.93-3.16-.3-3.99,.7-7.69,3.02-11.01-.33,.89-.64,1.78-1,2.66-.65,1.57-1.17,3.15-1.24,4.9-.08,1.83,.05,3.6,.59,5.34,.16,.53,.24,.95-.44,1.28Z"
  />
  <path fill="#58b6d0"
    d="M217.77,358.4c-2.1-1.76-1.99-11.52-1.23-14.89,.06,2.49,0,4.99,.2,7.47,.21,2.49,.68,4.95,1.03,7.42Z"
  />
  <path fill="#58b6d0"
    d="M169.63,386.41c-.63-.55-.76-1.63-.34-2.68,.73-1.83,1.5-3.64,2.99-5.04,.25-.23,.43-.52,.76-.73-.51,1.22-1.07,2.41-1.5,3.66-.37,1.06-.6,2.16-.86,3.25-.16,.66-.23,1.34-1.04,1.54Z"
  />
  <path fill="#58b6d0"
    d="M243.04,318.46c-4.33-1.09-8.74-.88-13.33-.86,2.31-1.41,11.87-.81,13.33,.86Z"
  />
  <path fill="#58b6d0"
    d="M187.02,362.52c-.95-.08-1.03-.67-1.12-1.16-.26-1.35,.16-2.62,.78-3.77,1.33-2.47,3.2-4.54,5.1-6.57,.25-.26,.57-.46,.86-.69l.16,.15c-.14,.22-.26,.45-.42,.65-1.45,1.82-2.93,3.61-4.34,5.46-.71,.93-1.21,2.01-1.27,3.2-.03,.58,.13,1.16,.19,1.75,.03,.29,.03,.58,.06,.98Z"
  />
  <path fill="#58b6d0"
    d="M291.42,306.41c-3.06-.24-6.05-.48-9.03-.71l-.05-.27c.62-.17,1.22-.44,1.85-.49,2.12-.18,4.23-.06,6.32,.33,.47,.09,1.11,.11,.91,1.14Z"
  />
  <path fill="#58b6d0"
    d="M223.5,387.3l-1.52,1-.22-.21c.11-.22,.18-.49,.34-.66,.68-.76,1.05-1.64,1.26-2.62,.78-3.57,.87-7.14-.01-10.71-.06-.23-.05-.47-.07-.71l.22-.06c.18,.62,.38,1.23,.53,1.86,.97,4.09,.57,8.13-.55,12.12l.02-.02Z"
  />
  <path fill="#58b6d0"
    d="M195.33,388.45c.1-.49,.12-.76,.22-1.01,.61-1.52,.84-3.12,1.2-4.7,.35-1.54,.28-3-.02-4.49-.14-.67-.32-1.34-.41-2.02,1.92,2.54,2.02,10.07-.99,12.22Z"
  />
  <path fill="#58b6d0"
    d="M202.62,338.54c-1.98,2.81-4.02,5.58-5.91,8.44-.67,1.01-1.02,2.23-1.46,3.38-.16,.42-.32,.75-.83,.89-.21-1.21,.23-2.22,.77-3.15,1.54-2.66,3.3-5.15,5.41-7.4,.68-.73,1.32-1.5,1.97-2.25l.05,.1Z"
  />
  <path fill="#58b6d0"
    d="M285.81,311.95c-.14,.64-.22,.99-.3,1.35l-.16-.15c-1.14,.75-2.23,1.58-3.44,2.21-.65,.34-1.48,.37-2.25,.45-.36,.04-.74-.13-1.34-.25l.8-.87-.1-.41c.31,.03,.59,.03,.86,.08,1.2,.22,2.22-.11,3.09-.98,.71-.71,1.57-1.13,2.83-1.44Z"
  />
  <path fill="#58b6d0"
    d="M186.75,373.28c-.62-1.47-.97-2.9-.66-4.39,.64-3.06,1.69-5.97,3.26-8.68,.11-.18,.22-.36,.35-.53,.03-.04,.11-.05,.34-.14-.18,.45-.28,.81-.45,1.14-1.2,2.37-2.28,4.8-2.56,7.46-.14,1.27,.09,2.58,.16,3.88,.02,.42,.34,.91-.42,1.25Z"
  />
  <path fill="#58b6d0"
    d="M238.62,311.92c-.5,.15-.72,.25-.95,.28-2.21,.25-4.43,.45-6.63,.1-1.5-.24-3-.62-4.32-1.48-.42-.27-.96-.37-1.51-.56-.08-.45,.18-.62,.59-.52,.33,.08,.67,.22,.95,.42,1.13,.81,2.41,1.24,3.75,1.59,.6,.15,1.13,.12,1.74,.06,1.89-.2,3.79-.26,5.69-.35,.15,0,.31,.2,.68,.46Z"
  />
  <path fill="#58b6d0"
    d="M234.62,314.4c-2.58,1-10.63,.16-11.75-1.68,.64,.17,1.13,.25,1.58,.42,2.82,1.03,5.71,1.13,8.63,.56,.67-.13,1.16,.04,1.55,.7Z"
  />
  <path fill="#58b6d0"
    d="M212.79,346.33c-1.99-2.91,.6-9.28,3.31-11.04-.51,.8-1.02,1.6-1.53,2.4-1.43,2.3-1.71,4.82-1.36,7.44,.06,.46,.23,.91-.43,1.19Z"
  />
  <path fill="#58b6d0"
    d="M211.67,362.26c-2.32-1.7-2.07-10.85-.74-14.52-.13,1.91-.28,3.83-.38,5.74-.15,2.59,.13,5.14,.96,7.61,.12,.37,.12,.78,.17,1.17Z"
  />
  <path fill="#58b6d0"
    d="M215.6,369.03c-.66-.94-1.17-1.87-1.2-3.03-.01-.55-.24-1.1-.35-1.65-.45-2.13,.08-4.09,1.19-5.96,.02,.12,.08,.25,.04,.34-1.16,3.02-.48,5.9,.6,8.76,.21,.55,.5,1.12-.29,1.54Z"
  />
  <path fill="#58b6d0"
    d="M248.76,374.03l.65-1.1-.17-.79c1.58-1.96,2.24-4.02,1.29-6.43l.46-.56-.11-.85c.1,.03,.19,.04,.19,.06,.28,1.36,.66,2.72,.78,4.1,.07,.8-.15,1.7-.49,2.45-.48,1.05-1.18,2-1.82,2.97-.11,.17-.36,.26-.54,.38l-.24-.21Z"
  />
  <path fill="#58b6d0"
    d="M228.87,323.94c.27-.08,.53-.22,.8-.22,.56,0,1.13,.03,1.69,.11,2.31,.35,4.57,.09,6.78-.62,.3-.1,.64-.09,.99,.02-1.48,.88-3.12,1.28-4.76,1.56-1.83,.31-3.64-.21-5.46-.35l-.04-.5Z"
  />
  <path fill="#58b6d0"
    d="M238.25,355.29c.2,3.88-3.55,9.28-7.07,10.36l.15-.8c3.79-1.81,5.49-5.05,6.64-8.7,.09-.29,.18-.57,.28-.86Z"
  />
  <path fill="#58b6d0"
    d="M199.17,333.35c-5.29,.25-8.91,2.99-11.42,7.46l-.27-.16c.07-.3,.1-.6,.2-.88,.56-1.53,1.82-2.51,2.94-3.55,2.39-2.23,5.35-2.98,8.55-2.86Z"
  />
  <path fill="#58b6d0"
    d="M182.71,360.99c-1.64,1.95-3.21,3.65-4.59,5.5-.77,1.04-1.67,2.07-1.74,3.52-.03,.63-.38,1.24-.61,1.93-.17-.17-.27-.22-.26-.26,.26-1.47,.21-3.06,1.15-4.29,1.36-1.79,2.83-3.51,4.31-5.2,.4-.46,1.02-.72,1.74-1.2Z"
  />
  <path fill="#58b6d0"
    d="M184.96,348.81c-.85,1.64-2.16,2.82-3.48,3.99-1.66,1.47-3.33,2.94-5,4.41-.28,.25-.54,.6-1.11,.11,.41-.45,.75-.93,1.19-1.29,1.06-.88,2.2-1.66,3.24-2.56,1.44-1.24,2.82-2.56,4.23-3.84,.31-.28,.62-.55,.93-.83Z"
  />
  <path fill="#58b6d0"
    d="M230.26,360.45c-1.79-1.18-3.62-8.75-2.84-11.43,.39,2.01,.74,3.92,1.12,5.82,.39,1.92,1.08,3.75,1.72,5.61Z"
  />
  <path fill="#58b6d0"
    d="M293.26,321.56l-.2-.84c.14-.07,.23-.14,.33-.15,2.78-.17,5.22-1.25,7.47-2.83,.4-.28,.93-.39,1.47-.48-.24,.76-.77,1.2-1.43,1.51-1.49,.69-2.97,1.42-4.51,2-.96,.37-2.01,.51-3.13,.79Z"
  />
  <path fill="#58b6d0"
    d="M211.45,380.56c.13-.34,.22-.71,.41-1.01,1.17-1.83,1.26-3.84,1.03-5.9-.16-1.39-.33-2.78-.31-4.21,.17,.55,.38,1.09,.49,1.65,.41,2,.88,4.01,.45,6.06-.21,.99-.53,1.97-.9,2.92-.12,.32-.54,.52-.83,.77l-.35-.28Z"
  />
  <path fill="#58b6d0"
    d="M229.08,384.21c.5,1.72,.03,3.37-.5,4.99-.56,1.73-1.7,2.99-3.52,3.71l-.56-.55c.27-.28,.45-.62,.71-.7,2.01-.64,2.52-2.45,3.15-4.09,.41-1.06,.49-2.23,.72-3.36Z"
  />
  <path fill="#58b6d0"
    d="M192.96,347.61c-.13,.07-.24,.15-.37,.2-.09,.03-.2,0-.3,0-.07-.11-.16-.19-.17-.28-.18-1.17,.46-2.1,.93-3.08,1.35-2.81,3.69-4.55,6.41-5.87,.08-.04,.2-.02,.25-.02-1.46,1.2-3.13,2.27-4.39,3.69-1.27,1.44-2.35,3.15-2.35,5.36Z"
  />
  <path fill="#58b6d0"
    d="M257.96,319.2c1.37-2.35,8.5-4.23,10.21-2.65-1.81,.22-3.6,.26-5.29,.7-1.71,.45-3.31,1.3-4.92,1.95Z"
  />
  <path fill="#58b6d0"
    d="M234.13,369.4c-.37-1.1,.42-1.27,.94-1.62,.99-.66,2.05-1.24,2.96-1.99,1.77-1.44,2.71-3.39,3.19-5.59,.09-.4,.19-.8,.34-1.37,.27,1.23-.09,3.01-.84,4.47-.69,1.34-1.64,2.47-2.84,3.38-1.2,.9-2.42,1.77-3.75,2.73Z"
  />
  <path fill="#58b6d0"
    d="M281.93,310.6l.34,1.26c-2.51,1.28-5.08,.87-7.78,.61,.41-.75,1.04-.73,1.46-.66,2.08,.33,3.98-.11,5.98-1.21Z"
  />
  <path fill="#58b6d0"
    d="M262.47,332.82c-.19-.92,.04-1.68,.6-2.31,1.4-1.59,2.83-3.15,4.26-4.71,.39-.42,.84-.57,1.47-.09-1.92,.65-2.81,2.18-3.7,3.67-.74,1.24-1.51,2.43-2.63,3.44Z"
  />
  <path fill="#58b6d0"
    d="M270.63,323.14c1.34-3.22,6.34-4.68,8.94-3.36-.19,.09-.32,.23-.45,.22-2.87-.22-5.44,.34-7.38,2.71-.23,.29-.64,.44-.96,.65l-.16-.22Z"
  />
  <path fill="#58b6d0"
    d="M258.11,386.28c.46-3.92,.93-7.85,1.39-11.77h.29c.03,.21,.09,.42,.07,.63-.26,3.16-.51,6.33-.8,9.49-.06,.6-.29,1.18-.44,1.76l-.51-.11Z"
  />
  <path fill="#58b6d0"
    d="M193.18,383.86c-.18-3.6,.26-7.18-.58-10.85,.82,.68,1.25,3.18,1.24,7.09,0,1.27,.19,2.61-.67,3.76Z"
  />
  <path fill="#58b6d0"
    d="M277.45,333.68c2.14-1.14,2.57-3.23,3.53-4.97l.22,.05,.11,.97,.14,.05,.53-2.24c.17,.72,.12,1.69-.3,2.62-.56,1.25-1.22,2.44-2.3,3.35-.52,.44-.87,.51-1.93,.18Z"
  />
  <path fill="#58b6d0"
    d="M269.98,327.22c-.14,.28-.23,.61-.42,.83-.78,.89-1.22,1.96-1.81,2.96-.73,1.26-1.42,2.61-2.68,3.49-.13,.09-.28,.13-.5,.11,1.11-1.19,2.22-2.35,2.72-3.97-.83,1.02-1.67,2.05-2.5,3.07l-.27-.13c.09-.28,.12-.62,.29-.84,.81-1.03,1.64-2.03,2.49-3.02,.77-.9,1.58-1.77,2.37-2.66l.3,.15Z"
  />
  <path fill="#58b6d0"
    d="M258.81,326.98c.04-.46,0-.84,.1-1.16,.32-.94,.85-1.72,1.59-2.44,1.93-1.88,4.22-3.04,6.78-3.73,.16-.04,.34-.05,.51-.06,.04,0,.09,.09,.18,.2-.82,.32-1.63,.59-2.41,.95-1.91,.87-3.72,1.91-5.03,3.6-.37,.48-.61,1.09-.77,1.68-.12,.43-.17,.82-.96,.97Z"
  />
  <path fill="#58b6d0"
    d="M266.7,323.56c-.49,.25-.98,.39-1.32,.69-1.59,1.39-3.01,2.95-4.23,4.68-.33,.47-.79,.85-1.19,1.27l-.3-.14c.04-.25,0-.55,.12-.75,1.44-2.31,3.38-4.14,5.58-5.71,.39-.28,.89-.69,1.34-.04Z"
  />
  <path fill="#58b6d0"
    d="M240.73,348.69c2.52,2.59,1.5,6.83-.69,8.87-.48-.35-.31-.77-.02-1.09,1.55-1.73,1.44-3.81,1.22-5.89-.07-.64-.33-1.26-.51-1.89Z"
  />
  <path fill="#58b6d0"
    d="M238.59,320.34c-.24,.16-.45,.44-.71,.48-2.66,.42-5.34,.67-8,.03-.09-.02-.16-.12-.43-.31,1.17-.03,2.16-.04,3.15-.08,.99-.05,1.98-.22,2.96-.17,.99,.05,1.92-.74,2.91-.28l.12,.34Z"
  />
  <path fill="#58b6d0"
    d="M220.47,316.34l-.63-.72c1.02,.23,2.02,.56,3.03,.65,1.25,.1,2.52,0,3.79-.01,.39,0,.79-.06,1.16,.03,.27,.06,.5,.32,.69,.62-2.74,.84-5.34,.3-8.03-.56Z"
  />
  <path fill="#58b6d0"
    d="M296.8,325.02c-2.52,.87-4.04,2.58-5.33,4.75l-.5-1.01-.42,.63c-.05-.11-.1-.17-.09-.2,.56-1.79,3.87-4.68,6.33-4.17Z"
  />
  <path fill="#58b6d0"
    d="M270.4,341.47c.96-.62,1.87-1.13,2.68-1.76,1.25-.98,2.42-2.04,3.62-3.07,.39-.34,.74-.55,1.12-.02-.48,1.44-5.65,4.87-7.42,4.85Z"
  />
  <path fill="#58b6d0"
    d="M272.37,313.65c-1.4-.21-2.81-.38-4.19-.64-1.46-.28-2.77,.37-4.15,.66,.47-1.18,1.43-1.64,2.45-1.56,1.71,.14,3.4,.52,5.09,.85,.33,.06,.61,.37,.92,.56l-.12,.13Z"
  />
  <path fill="#58b6d0"
    d="M318.98,353.37c-.1,.89-.09,1.9-.91,2.47-1.39,.96-2.88,1.77-4.36,2.61-.24,.13-.59,.06-.94-.06,2.17-1.54,4.72-2.54,5.83-5.23l.38,.21Z"
  />
  <path fill="#58b6d0"
    d="M275.68,327.01c.22-.88,.58-1.59,1.22-2.02,1.17-.78,2.39-1.48,3.63-2.16,.59-.32,1.24-.34,2.01,0-.24,.17-.35,.31-.49,.34-2.07,.35-3.61,1.48-4.75,3.19-.38,.57-.82,.82-1.63,.65Z"
  />
  <path fill="#58b6d0"
    d="M275.14,346.56c.24-.24,.45-.54,.74-.71,1.97-1.21,3.67-2.73,5.21-4.43,.66-.73,.85-.77,1.64-.22-2.16,2.34-4.59,4.25-7.6,5.34l.02,.02Z"
  />
  <path fill="#58b6d0"
    d="M274.01,330.17l-.47,2.27-.86,.14-.67,1.11,.09,.06,1.01-.97q-.12,1.14-2.74,3.2c-.5-.18-.46-.48-.19-.87,1.02-1.51,2.02-3.04,3.05-4.54,.14-.21,.38-.36,.57-.54l.21,.15Z"
  />
  <path fill="#58b6d0"
    d="M248.16,367.69c.04,.88,.08,1.77,.12,2.72,.92-.75,.94-1.9,1.37-2.87,.21,.7,.22,1.45-.2,2.02-.93,1.27-1.96,2.47-2.98,3.67-.35,.41-.84,.42-1.41,.37,.8-.93,1.7-1.68,2.18-2.63,.48-.97,.55-2.15,.8-3.23l.13-.04Z"
  />
  <path fill="#58b6d0"
    d="M274.33,325.77l-1.17,.26c1.07-2.99,6.23-5.34,7.75-4.02-2.75,.35-5.16,1.13-6.58,3.76Z"
  />
  <path fill="#58b6d0"
    d="M277.67,339.86c1.59-1.8,3.19-3.6,4.86-5.48l.81,.32c-.22,.47-.31,.96-.6,1.23-1.39,1.3-2.82,2.55-4.25,3.8-.17,.15-.41,.23-.61,.35l-.2-.22Z"
  />
  <path fill="#58b6d0"
    d="M276.78,328.64c.96,.71,0,1.42,.31,2.06,.08-.03,.18-.04,.25-.09,.09-.05,.16-.12,.41-.32-.42,.88-.69,1.61-1.09,2.25-.41,.64-.95,1.2-1.43,1.79l.08,.24-1.74,.15-.17-.3c2.32-1.19,2.87-3.38,3.37-5.78Z"
  />
  <path fill="#58b6d0"
    d="M223.18,340.68c.09,.28,.19,.46,.19,.65,.06,2,.08,4.01,.15,6.01,.03,.84,.16,1.68,.25,2.52,.06,.57,.07,.57-.47,.97-.59-.95-.72-8.62-.12-10.15Z"
  />
  <path fill="#58b6d0"
    d="M208.89,341.96c-.34-.62-.46-1.25-.28-1.98,.49-1.98,1.61-3.66,2.65-5.37,.1-.16,.32-.24,.6-.43,0,.26,.04,.42-.02,.49-1.38,1.75-1.89,3.8-2.14,5.96-.06,.48-.31,.93-.47,1.4l-.33-.07Z"
  />
  <path fill="#58b6d0"
    d="M295.33,317.15l1.64-.28c-.61,1.61-2.51,1.48-3.21,2.5-.51,.08-.86,.11-1.19,.2-1.11,.29-2.19,.81-3.41,.21,.2-.68,.77-.54,1.21-.61,.72-.12,1.48-.11,2.18-.3,1.1-.29,2.12-.77,2.77-1.72Z"
  />
  <path fill="#58b6d0"
    d="M231.16,346.45c.05,.83,.14,1.66,.15,2.5,.03,2.03,.65,3.94,1.22,5.86,.16,.54,.34,1.07,.44,1.62,.05,.24-.06,.51-.18,.75-1.59-2.63-2.4-7.35-1.63-10.73Z"
  />
  <path fill="#58b6d0"
    d="M272.98,310.19v-.81c1.13-.06,2.17-.1,3.21-.18,.97-.08,1.89-.6,2.89-.54l.08,.3-2.05,.73,.04,.25,3.28-.28v.28c-2.4,.75-4.87-.07-7.44,.25Z"
  />
  <path fill="#58b6d0"
    d="M283.03,337.44c.18-.3,.23-.5,.35-.58,1.64-1.02,2.42-2.59,2.85-4.39,.12-.5,.43-.7,.93-.48,.35,2.2-1.53,4.78-4.12,5.45Z"
  />
  <path fill="#58b6d0"
    d="M227.65,363.23c-1.5-3.94-2.81-7.94-3.2-12.18l.2-.04c.11,.78,.16,1.58,.34,2.34,.18,.78,.49,1.54,.75,2.31,.58,1.74,1.18,3.46,1.74,5.21,.23,.74,.36,1.52,.54,2.28l-.37,.09Z"
  />
  <path fill="#58b6d0"
    d="M246.38,360.77c.47-1.42,1.65-2.59,1.48-4.24-.16-1.49-.15-3-.03-4.55,.19,.71,.41,1.41,.57,2.13,.46,2.09,.54,4.14-.88,5.95-.25,.32-.54,.59-.82,.89l-.32-.18Z"
  />
  <path fill="#58b6d0"
    d="M310.02,319.14c-1.5,1.02-2.85,1.95-4.21,2.88l-.14-.16,1.34-1.62c1.65-.81,2.75-2.55,4.22-3.91,.54,1.46-1.32,1.83-1.2,2.81Z"
  />
  <path fill="#58b6d0"
    d="M245.79,314.54l-8.34-.14-.07-.2c.21-.1,.42-.24,.64-.29,2.27-.44,4.56-.24,6.84-.12,.42,.02,.87,.05,.93,.75Z"
  />
  <path fill="#58b6d0"
    d="M190.63,366.83c-.37,1.39-.72,2.78-1.11,4.17-.44,1.54-.47,3.06,.03,4.59,.13,.39,.32,.79-.12,1.19-.53-.36-.76-.86-.77-1.43-.03-1.12-.17-2.29,.06-3.36,.37-1.68,1.02-3.29,1.57-4.93,.04-.12,.17-.21,.26-.32l.09,.09Z"
  />
  <path fill="#58b6d0"
    d="M199.71,381.26c.93,2.52,.53,7.92-2.33,9.79,.06-.38,.04-.64,.14-.82,.46-.87,1.1-1.67,1.39-2.58,.39-1.19,.57-2.45,.73-3.69,.11-.88,.05-1.79,.06-2.69Z"
  />
  <path fill="#58b6d0"
    d="M217.73,362.55c.72,2.66,1.45,5.33,2.15,8,.15,.58,.07,.65-.51,1.18-.7-3.06-1.39-6.07-2.08-9.09l.44-.08Z"
  />
  <path fill="#58b6d0"
    d="M219.63,352.69c-.87-1.4-.86-7.84-.05-9.14,.06,.09,.17,.16,.17,.24,.05,2.81,.09,5.62,.12,8.43,0,.12-.12,.24-.24,.47Z"
  />
  <path fill="#58b6d0"
    d="M245.57,327.61c-.13-.77,.33-1.24,.81-1.53,1.59-.96,3.23-1.84,4.86-2.74,.39-.21,.8-.31,1.02,.25-1.25,.61-2.5,1.13-3.66,1.81-.64,.37-1.16,.97-1.65,1.55-.36,.43-.65,.83-1.38,.65Z"
  />
  <path fill="#58b6d0"
    d="M235.91,332.16l.74-.34c1.19,.87,2.44,.61,3.68,.3,.98-.25,1.94-.52,3.19-.12-.69,.21-1.18,.39-1.69,.52-.91,.23-1.82,.5-2.75,.61-.76,.1-1.54,.06-2.3-.05-.34-.05-.65-.39-.97-.6l.1-.33Z"
  />
  <path fill="#58b6d0"
    d="M286.12,339.02l.72,.4c.3,1.05-1.86,3.75-3.62,4.33,.94-1.53,1.88-3.07,2.9-4.73Z"
  />
  <path fill="#58b6d0"
    d="M232.23,329.83c.27-.67,.75-.59,1.18-.48,1.58,.41,3.09,.08,4.56-.43,.58-.2,1.09-.59,1.61-.87,.57,.41,.52,.87,.05,1.05-2.3,.85-4.65,1.46-7.13,.88-.09-.02-.18-.1-.27-.16Z"
  />
  <path fill="#58b6d0"
    d="M252.51,309.84l7.93,1.17,.06,.22c-.5,.15-1,.43-1.49,.41-.91-.03-1.82-.16-2.7-.38-1.3-.32-2.58-.76-3.87-1.15l.07-.27Z"
  />
  <path fill="#58b6d0"
    d="M253.29,336.51c-1.8,2.01-7,3.11-8.17,1.76,.26-.08,.49-.23,.68-.19,1.99,.46,3.74-.36,5.54-.95,.65-.21,1.31-.41,1.96-.62Z"
  />
  <path fill="#58b6d0"
    d="M256.68,369.25c-.79,3.2-.58,6.43-.31,9.67-1.33-1.44-1.11-7.47,.31-9.67Z"
  />
  <path fill="#58b6d0"
    d="M266.31,335.21c.91-.85,1.74-1.54,2.46-2.33,.7-.77,1.28-1.64,2.04-2.63,.1,2.34-2.63,5.38-4.5,4.96Z"
  />
  <path fill="#58b6d0"
    d="M272.44,307.28c-.74-.16-1.5-.08-2.08-.92l1.13-.42v.21l1.69,.59-.19-.64,2.85-.21,.15,.37c-.97,.34-1.88,.67-2.84,1.01,.2,.75,.9,.46,1.31,.71-.81,.43-1.38,.23-2.04-.7Z"
  />
  <path fill="#58b6d0"
    d="M239.26,385.67c.01-.13-.03-.3,.04-.39,1.04-1.37,.86-2.94,.75-4.49-.09-1.4-.24-2.8-.24-4.25,.15,.6,.37,1.2,.44,1.81,.2,1.75,.39,3.5,.48,5.26,.03,.53-.19,1.12-.43,1.61-.14,.29-.55,.44-.83,.65l-.21-.2Z"
  />
  <path fill="#58b6d0"
    d="M206.42,338.64c-.73-.58-.69-1.16-.48-1.61,.45-.94,.95-1.88,1.58-2.71,1.1-1.46,2.05-2.18,3.37-2.66-.27,.28-.51,.61-.82,.83-1.2,.86-2.09,2-2.8,3.26-.3,.53-.34,1.2-.51,1.8-.09,.31-.2,.62-.34,1.07Z"
  />
  <path fill="#58b6d0"
    d="M299.8,321.46c1.67-.77,3.27-1.6,4.28-3.17l1.56,.2c-.2,1.14-3.71,3.08-5.83,2.97Z"
  />
  <path fill="#58b6d0"
    d="M245.58,324.02c2-2.44,5.48-4.3,6.7-3.45-.35,.18-.64,.46-.94,.46-1.05,.02-1.87,.58-2.72,1.07-.62,.35-1.15,.74-1.41,1.49-.3,.86-.92,.99-1.63,.44Z"
  />
  <path fill="#58b6d0"
    d="M240.08,335.5c.55-.61,1.17-.25,1.72-.25,1.08,0,2.17,.21,3.24,.11,.73-.07,1.43-.51,2.2-.8l.31,.48c-2.35,1.13-6.06,1.69-7.48,.46Z"
  />
  <path fill="#58b6d0"
    d="M216.98,317.98c3.2,.84,6.26,1.13,9.39,.61l.09,.27c-.3,.16-.6,.44-.91,.45-1.72,.02-3.44,.02-5.15-.07-.65-.04-1.29-.33-1.93-.53-.44-.14-.88-.37-1.23,.26l-.26-.98Z"
  />
  <path fill="#58b6d0"
    d="M223.48,387.32c.61,.24,.7,.73,.65,1.3-.18,1.79-1.03,3.26-2.22,4.56-.09,.1-.23,.17-.35,.23-.06,.03-.13,.01-.25,.02-.39-.46-.24-.91,.14-1.28,1.36-1.33,2.18-2.89,2.05-4.85l-.02,.02Z"
  />
  <path fill="#58b6d0"
    d="M232.87,368.09c.25-.22,.47-.49,.75-.64,2.07-1.07,3.81-2.56,5.4-4.23,.52-.55,.89-1.26,1.5-1.84-.16,.41-.25,.87-.49,1.22-1.43,2.02-3.26,3.61-5.35,4.91-.5,.31-1.02,.6-1.53,.89l-.27-.31Z"
  />
  <path fill="#58b6d0"
    d="M278.55,316.94c-1.5,.13-3.02,.16-4.5,.41-1.45,.25-2.59,1.24-3.78,2.08l-.21-.22c.3-.34,.56-.72,.91-1,1.74-1.43,3.78-1.81,5.97-1.65,.55,.04,1.09,.12,1.63,.18l-.02,.2Z"
  />
  <path fill="#58b6d0"
    d="M294.37,329.3c-.41,.41-.79,.72-1.08,1.1-.66,.85-1.33,1.7-1.89,2.61-.45,.73-.79,.99-1.49,.76,.3-1.71,2.95-4.46,4.45-4.48Z"
  />
  <path fill="#58b6d0"
    d="M260.64,381.11c.09,1.87,.08,3.52,.28,5.14,.2,1.62,.61,3.21,.93,4.81l-.24,.13c-.17-.25-.43-.48-.5-.76-.73-2.89-1.06-5.82-.72-8.81,.01-.09,.09-.18,.25-.51Z"
  />
  <path fill="#58b6d0"
    d="M257.06,308.68c1.68-.03,3.26,.53,5.04,.79l-.59,.94c-1.24-.26-2.48-.48-3.7-.79-.33-.09-.6-.45-.89-.69l.14-.25Z"
  />
  <path fill="#58b6d0"
    d="M284.6,326.62l.4,1.79c-.62,1.41-1.11,2.98-2.5,3.84,.62-1.85,1.25-3.75,1.88-5.64h.22Z"
  />
  <path fill="#58b6d0"
    d="M264.09,318.68c-1.91,1.21-4.04,2.15-5.32,4.21-.21,.09-.46,.21-.72,.32-.06,.03-.14,.02-.35,.03,.06-.25,.05-.49,.17-.63,.86-1.08,1.82-2.05,3.08-2.68,.99-.5,1.95-1.05,2.93-1.57l.22,.32Z"
  />
  <path fill="#58b6d0"
    d="M288.1,307.65c1.65-.19,3.28-.24,4.81,.49,.23,.11,.38,.4,.47,.75-1.87-.11-3.66-.28-5.28-1.24Z"
  />
  <path fill="#58b6d0"
    d="M291.97,342.4c-.32,.02-.46,.06-.59,.04-.2-.03-.4-.09-.69-.16-.12-2.13,1.23-3.45,2.47-4.84-.16,1.7-1.82,2.98-1.19,4.96Z"
  />
  <path fill="#58b6d0"
    d="M254.19,328.15c-1.76,.81-3.83,1.16-4.49,3.32l-1.14,.8-.33-.62c1.44-2.14,3.39-3.34,5.96-3.51Z"
  />
  <path fill="#58b6d0"
    d="M261.42,334.2c-2.46,.83-4.89,.84-7.35,.7l-.03-.22c.68-.1,1.36-.2,2.04-.31,1.43-.21,2.86-.4,4.28-.65,.43-.07,.75-.09,1.05,.47Z"
  />
  <path fill="#58b6d0"
    d="M259.73,337.7c2.22-.61,4.45-1.23,6.68-1.82,.1-.03,.26,.17,.62,.43-2.5,.86-4.76,1.75-7.29,1.39Z"
  />
  <path fill="#58b6d0"
    d="M311.6,320.06c1.8-.06,2.8-1.39,3.87-2.57,.84,.49,.38,.93,.15,1.43-1.31,.78-2.65,1.58-4.19,2.49l.17-1.35Z"
  />
  <path fill="#58b6d0"
    d="M246.39,330.53q-.08-.81,1.16-2.24c.63-.4,1.25-.82,1.9-1.2,.64-.38,1.24-.91,2.34-.67-.87,.53-1.57,.94-2.26,1.37-.86,.53-1.76,1.02-2.24,2.01-.14,.28-.52,.44-.91,.74Z"
  />
  <path fill="#58b6d0"
    d="M266.28,340.13c1.77-.87,3.44-1.69,5.1-2.51,.37-.18,.71-.34,1.01,.1-.82,1.01-4.81,2.61-6.11,2.41Z"
  />
  <path fill="#58b6d0"
    d="M271.65,344.89c1.94-1.15,3.73-2.21,5.54-3.25,.13-.08,.37,.03,.59,.05-.43,1-4.4,3.1-6.13,3.21Z"
  />
  <path fill="#58b6d0"
    d="M253.17,364.27c1.73,2.26,1.48,5.3-.27,7.44-.46-.47-.06-.85,.13-1.23,.69-1.36,1.04-2.75,.52-4.27-.21-.61-.26-1.29-.38-1.94Z"
  />
  <path fill="#58b6d0"
    d="M292.5,334.14c-.48,.81-1.06,1.58-1.4,2.44-.34,.86-.46,1.81-.68,2.78l-.65-.09c-.22-1.59,1.25-4.51,2.74-5.14Z"
  />
  <path fill="#58b6d0"
    d="M319.88,318.46l.3,1.4-1.11,.44-.44-.27c-.69,.86-1.69,.95-2.67,1.11,1.03-1.14,2.48-1.65,3.92-2.67Z"
  />
  <path fill="#58b6d0"
    d="M246.96,320.26l-.92,.29c-.04-.63,.72-1.51,2.22-2.16,1.06-.46,2.17-1.2,3.48-.57-1.9,.16-3.51,.86-4.77,2.43Z"
  />
  <path fill="#58b6d0"
    d="M249.81,311.94l.78-.19c.94,.27,1.73,.56,2.55,.72,.8,.15,1.62,.17,2.44,.25v.33c-.59,.06-1.19,.19-1.78,.17-.64-.02-1.3-.09-1.9-.3-.72-.25-1.37-.66-2.06-1.01l-.02,.02Z"
  />
  <path fill="#58b6d0"
    d="M244.74,309.31c.9-.36,1.39,.49,2.07,.75,.77,.29,1.5,.71,2.22,1.12,.3,.18,.52,.5,.77,.75l.02-.02c-.67-.23-1.35-.41-1.99-.69-.77-.34-1.53-.73-2.26-1.16-.31-.18-.55-.51-.81-.78l-.02,.02Z"
  />
  <path fill="#58b6d0"
    d="M240.43,386.73c.75-2.41,1.48-4.82,.99-7.44,.44,.36,.64,1.46,.52,2.38-.12,.9-.16,1.81-.35,2.7-.18,.83-.5,1.64-.75,2.46l-.41-.09Z"
  />
  <path fill="#58b6d0"
    d="M315.08,316.35c1.53-.59,3.07-1.18,4.68-1.79,.2,.87-.4,1.07-.83,1.19-1.24,.35-2.51,.59-3.77,.87l-.08-.26Z"
  />
  <path fill="#58b6d0"
    d="M254.57,332.66c1-.94,2.32-1.22,3.51-1.75,.19-.08,.48,.09,.75,.29-1.27,.97-2.8,1.1-4.26,1.46Z"
  />
  <path fill="#58b6d0"
    d="M315.96,314.04l-4.6,1.37-.1-.19c.17-.13,.32-.31,.52-.39,1.01-.41,2.02-.82,3.05-1.16,.55-.18,.57-.12,1.13,.37Z"
  />
  <path fill="#58b6d0"
    d="M306.84,314.31c1.45-1.24,3.63-1.76,4.63-1.09-1.61,.38-3.12,.73-4.63,1.09Z"
  />
  <path fill="#58b6d0"
    d="M254.89,342.02c1.31-.93,2.52-2.08,4.26-2.07-1.26,1.01-2.82,1.43-4.26,2.07Z"
  />
  <path fill="#58b6d0"
    d="M286.82,329.56c-.71-.92-.68-1.21,.28-3.85,.33,.43,.18,2.83-.28,3.85Z"
  />
  <path fill="#58b6d0"
    d="M237.46,201.5c.83,.06,1.91,1.47,2.33,2.95-.86-.06-.83-.94-1.27-1.34-.43-.39-.67-.99-1.06-1.61Z"
  />
  <path fill="#58b6d0"
    d="M318.84,323.15q.53-.69,1.39-.51l.35,1.83-.22,.1c-.5-.47-1.01-.95-1.52-1.43Z"
  />
  <path fill="#58b6d0"
    d="M322.34,315.59c-1.01,1.03-2.27,1.51-3.68,1.68,1.35-.3,2.24-1.58,3.68-1.68Z"
  />
  <path fill="#58b6d0" d="M323.63,319.7c1.04-.74,1.25-.75,1.95-.05l-1.05,.83-.9-.78Z" />
  <path fill="#58b6d0" d="M322.7,323.9l.89-1.11c.89,.41,.68,.93,.32,1.59l-1.2-.49Z" />
  <path fill="#58b6d0"
    d="M244.76,309.29c-.81-.3-1.77-.44-1.93-1.68,.25,0,.52-.04,.54,.02,.28,.71,1.22,.87,1.36,1.68l.02-.02Z"
  />
  <path fill="#58b6d0"
    d="M248.91,346.95l-.9-.45c.07-.68,.42-.83,.88-.62,.45,.2,.49,.56,.01,1.07Z"
  />
  <path fill="#58b6d0" d="M241.22,342.55l.56,.97c-.53,.46-.92,.5-1.24-.29l.67-.69Z" />
  <path fill="#58b6d0" d="M215.54,326.36l.51,1.07-.18,.24-1.13-.33,.79-.99Z" />
  <path fill="#58b6d0" d="M325.32,322.04l.96,.13-.02,1.02c-.56-.24-1.22-.22-.95-1.15Z" />
  <path fill="#58b6d0" d="M222.01,332.89l1.04-.33-.02,1.34-1.07-.74,.05-.27Z" />
  <path fill="#58b6d0" d="M220.35,332.08l-.82-1.02,.88-.64,.38,1.42-.44,.24Z" />
  <path fill="#58b6d0" d="M236.46,341.23l-1.11-.64,1.26-.75-.14,1.39Z" />
  <path fill="#58b6d0" d="M200.07,203.15c.51,.07,.87,.26,.85,.82l-.22,.22-.86-.78,.23-.26Z" />
  <path fill="#58b6d0" d="M217.32,329.23l.97-.35-.02,1.05-.26,.11-.7-.8Z" />
  <path fill="#58b6d0"
    d="M228.12,336.62l.67-.56,.26,.16c-.07,.26-.07,.56-.23,.75-.07,.09-.43-.05-.65-.09l-.06-.27Z"
  />
  <path fill="#58b6d0" d="M248.04,327.23l1.05-.77,.12,.16-.97,.84-.2-.22Z" />
  <path fill="#58b6d0" d="M238.56,342.58l-.76-.1,.46-.93,.5,.83-.19,.2Z" />
  <path fill="#58b6d0"
    d="M91.92,324.98l-1.05-.84c-1.49-2.22-3.06-4.36-5.57-5.72l-.22-1.84,1.25,.59-.12,.12c1.27,1.51,2.54,3.01,3.8,4.52,.67,.81,1.33,1.65,1.97,2.48,.11,.14,.11,.36,.16,.54l-.22,.13Z"
  />
  <path fill="#58b6d0"
    d="M94.43,344.85c-.87-.81-1.76-1.59-2.61-2.42-1.7-1.68-3.38-3.38-5.08-5.06-.22-.22-.54-.34-.78-.53-.38-.3-.43-.62,.11-1.06,.44,.37,.92,.7,1.32,1.11,1.72,1.82,3.41,3.67,5.12,5.5,.53,.56,1.12,1.08,1.66,1.63,.19,.19,.33,.42,.49,.63l-.23,.21Z"
  />
  <path fill="#58b6d0"
    d="M85.66,312.28c.2,.06,.38,.05,.44,.14,1.79,2.61,3.86,4.97,6.27,7.05l-.09,.29-1.13,.37-.05-.7c-1.75-1.96-3.36-3.77-4.98-5.58-.39-.43-.65-.9-.46-1.57Z"
  />
  <path fill="#58b6d0"
    d="M86.08,348.3c.22,.17,.49,.3,.66,.51,2.61,3.01,5.21,6.02,7.81,9.04,.22,.25,.38,.55,.63,.92-.32,.11-.5,.17-.46,.16-1.17-1.35-2.23-2.6-3.32-3.82-1.6-1.78-3.23-3.52-4.82-5.31-.32-.36-.51-.85-.76-1.28l.25-.22Z"
  />
  <path fill="#58b6d0"
    d="M86.15,378.03c.9,.41,9.46,9.5,9.66,10.44-.46-.43-.95-.83-1.38-1.29-1.89-2.01-3.74-4.04-5.64-6.04-.6-.64-1.3-1.19-1.96-1.77-.39-.35-.76-.7-.68-1.34Z"
  />
  <path fill="#58b6d0"
    d="M85.95,342.94l.83-.54c2.25,3.96,5.62,6.86,8.34,10.31-3.3-2.97-6.25-6.28-9.18-9.76Z"
  />
  <path fill="#58b6d0"
    d="M85.86,371.08c.35,.23,.6,.35,.8,.53,2.49,2.31,4.91,4.67,6.89,7.45,.18,.25,.21,.61,.15,.93-1.06-1.29-2.04-2.65-3.19-3.85-1.24-1.29-2.63-2.44-3.99-3.61-.42-.36-.83-.64-.66-1.45Z"
  />
  <path fill="#58b6d0"
    d="M85.59,331.24l.12-1.35c.42,.36,.71,.52,.87,.76,1.37,2.12,3.28,3.76,4.97,5.59,.33,.36,.94,.69,.48,1.41-1.06-1.12-2.03-2.25-3.1-3.27-1.04-.99-1.78-2.31-3.34-3.14Z"
  />
  <path fill="#58b6d0"
    d="M93.77,372.39c-2.6-2.98-4.98-6.15-8.02-8.72l.19-.24c.22,.12,.49,.18,.66,.35,1.18,1.21,2.37,2.41,3.5,3.66,1.21,1.33,2.37,2.7,3.54,4.07,.17,.2,.25,.48,.38,.72l-.25,.15Z"
  />
  <path fill="#58b6d0" d="M89.11,391.83l-2.45-2.26c.86-.07,1.63,.59,2.6,2.1l-.15,.16Z" />
  <path fill="#58b6d0"
    d="M85,240.55l.02-1.48c2.77,2.06,5,4.47,7.48,6.61l-.23,.32c-.21-.11-.47-.19-.64-.35-.88-.81-1.75-1.64-2.61-2.48-.95-.92-1.98-1.69-3.23-2.16-.29-.11-.54-.32-.78-.47Z"
  />
  <path fill="#58b6d0"
    d="M86.4,234.93l-1.14-.14q-.56-.77-.29-1.82c.46,.19,5.83,5.32,6.4,6.15,.18,.26,.27,.58,.25,.95-1.76-1.74-3.51-3.47-5.21-5.15Z"
  />
  <path fill="#58b6d0"
    d="M92.7,253.76c-1.92-2.06-3.83-4.12-5.77-6.16-.55-.59-1.18-1.1-1.74-1.68-.2-.2-.29-.51-.42-.77l.21-.18c.2,.09,.44,.15,.6,.29,1.26,1.09,7.1,7.84,7.12,8.5Z"
  />
  <path fill="#58b6d0" d="M161.34,330.99l-1.64-1.2,.23-.69c.56-.08,1.26,.78,1.41,1.89Z" />
  <path fill="#58b6d0"
    d="M168.97,346.46l-2.03-.79,.13-.28c.77,.09,1.43,.37,1.88,1.09l.02-.02Z"
  />
</svg>
