<?xml version="1.0" encoding="UTF-8"?>
<svg
  id="Layer_1"
  xmlns="http://www.w3.org/2000/svg"
  viewBox="0 0 419.53 595.28"
>
  <path fill="#58b6d0"
    d="M110.03,379.38l-.91,.33c-1.48-.34-3.06-.65-4.6-1.06-1.13-.3-2.23-.72-3.34-1.08-2.46-.8-4.92-1.61-7.38-2.41-.2-.06-.39-.14-.82-.3l1.54-.47c.4,.12,.83,.27,1.27,.38,1.56,.38,3.11,.85,4.69,1.08,1.05,.15,2.15-.08,3.23-.08,1.11,0,2.22,.08,3.32,.11,.81,.03,1.64,.14,2.44,.05,2.43-.29,4.7-1.13,6.95-2.09,2.47-1.05,4.93-2.19,7.59-2.75,1.51-.32,3-.71,4.47-1.19,.99-.32,1.9-.87,2.86-1.28,2.35-1,4.73-1.96,7.07-2.99,1.34-.59,2.6-1.38,3.95-1.93,1.64-.67,2.94-1.83,4.4-2.75,.27-.17,.56-.32,.9-.51l.38-.94c-.92-1.13-1.9-2.26-2.79-3.45-.87-1.17-1.82-2.33-2.43-3.63-.45-.95-1.11-1.7-1.61-2.58-.24-.42-.38-.9-.56-1.36l.18-.1-.49-.14c-.35-.48-.68-.82-.88-1.22-1.17-2.43-2.36-4.85-3.46-7.31-.86-1.94-1.53-3.95-2.22-5.96-.41-1.19-.83-2.39-1.24-3.58-.82-2.39-.94-4.9-1.23-7.39-.31-2.64-.77-5.25-1.14-7.88-.09-.64-.09-1.3-.05-1.95,.15-2.16,.3-4.31,.53-6.46,.09-.87,.43-1.72,.58-2.59,.21-1.23,.32-2.47,.53-3.7,.17-.97,.39-1.93,.66-2.87,.44-1.55,.83-3.13,1.42-4.62,.88-2.21,1.43-4.55,2.63-6.64,.74-1.29,1.21-2.73,1.83-4.09,.16-.36,.42-.66,.6-1.01,.58-1.14,1.06-2.33,1.71-3.42,1.16-1.93,2.36-3.84,3.65-5.69,.91-1.3,1.99-2.47,2.98-3.72,.15-.19,.19-.47,.14-.83,2.72-2.27,5.49-4.48,8.12-6.84,1.57-1.41,3.42-2.27,5.2-3.31,2.56-1.5,5.41-2.32,8.16-3.38,2.32-.89,4.7-1.65,7.05-2.47,.12-.04,.25-.09,.36-.15,.95-.51,1.9-.94,3-1.1,1.14-.16,2.24-.63,3.36-.95,.45-.13,.92-.19,1.37-.29,2.05-.23,4.1-.47,6.15-.69,.62-.07,1.25-.09,1.87-.12,.92-.05,1.84-.13,2.76-.12,1.57,.02,3.14,.06,4.71,.18,2,.14,3.99,.35,5.98,.57,.73,.08,1.45,.3,2.35,.5,.34-1.17,.67-2.22,.95-3.28,.16-.58,.16-1.21,.38-1.75,.54-1.37,.61-2.8,.77-4.23,.13-1.09,.23-2.21,.55-3.25,.24-.79,.77-1.51,1.24-2.21,.48-.72,1.05-1.37,1.63-2.12-.71-2.27-1.4-4.65-3.06-6.61-.79-.94-1.47-1.98-2.16-3-.65-.96-1.24-1.95-1.87-2.95-.4-.07-.78-.25-1.08-.17-.71,.19-1.34-.02-2.02-.1-.96-.12-1.95-.1-2.92-.03-2.71,.2-5.42,.52-8.14,.68-2.48,.15-4.84,.76-7.18,1.51-2.21,.71-4.47,1.29-6.65,2.1-2.65,.98-5.34,1.9-7.76,3.42-.74,.46-1.46,.96-2.19,1.44-.46,.31-.93,.61-1.49,.98l.26,.96c.14,1.35-.26,2.56-1.3,3.75l-1.84,.38c-1.72,1.14-2.64,3.28-4.08,4.99-1.45,1.74-2.94,3.46-4.16,5.35-1.22,1.89-3.07,3.33-4,5.41-.35,.35-.75,.68-1.07,1.08-1.21,1.51-2.41,3.03-3.6,4.55-.61,.77-1.22,1.54-1.8,2.33-.18,.25-.26,.59-.38,.88l-.27-.3c-.41,.59-.79,1.21-1.23,1.77-1.2,1.55-2.43,3.08-3.64,4.62-1.6,2.03-3.21,4.05-4.78,6.1-1.75,2.29-3.44,4.63-5.2,6.92-1.44,1.86-2.96,3.66-4.42,5.51-1.59,2.01-3.14,4.05-4.73,6.11,.08,.27,.11,.54,.24,.75,1.06,1.74-.13,3.78-1.11,4.81-.57,.6-1.27,1.07-1.99,1.67h-4.14l-.55,1.39-.39,.1c.24,.84-.5,1.13-.99,1.71,.17,1.58-.34,3.26,.15,4.93,.06,.22,.08,.45,.1,.68,.19,2.36,.91,4.61,1.38,6.9,.45,2.16,.89,4.32,1.41,6.47,.35,1.43,.64,2.92,1.28,4.21,1.38,2.78,2.41,5.74,4.36,8.23,.81,1.03,1.42,2.21,2.25,3.22,1.59,1.94,3.33,3.77,4.9,5.73,1.45,1.8,3.25,3.37,4.05,5.64,.06,.18,.16,.36,.28,.52,1.42,1.83,1.7,3.87,1.33,6.13-.18,1.13-.45,2.2-.9,3.22-.29,.65-.72,1.24-1.08,1.86-.16,.27-.33,.54-.56,.91l-4.87,2.09c-.95,0-2.47-.03-3.99,0-1.54,.04-2.89-.69-4.24-.98-1.16-1.2-2.47-1.97-3.95-2.53l-.76-1.01-.88-.18c-.69-.97-1.37-1.95-2.29-2.31-.57-.61-.98-1.04-1.37-1.49-.15-.17-.26-.36-.37-.55-1-1.77-2-3.54-3.14-5.26v-.98l-.76-.53,.27-.84c-1.01-1.1-.78-2.55-1.23-3.81-.95-2.13-.87-4.5-1.49-6.8l.22-.75-.35-.66-.12-1.69c.36-.34,.57-.77,.23-1.43-.14-.27-.57-.89,.22-1.16l-.51-.48,.53-3.89h.2l-.37-1.04c.94-6.79,2.34-13.47,4.65-19.94l1.74-4.15-.94-.78c-.52-1.65-.54-3.22,.91-4.52-.27-.59-.56-1.15-.78-1.73-.16-.41-.34-.87-.3-1.29,.09-.9-.38-1.83,.18-2.7,.52-.82,.91-1.69,1.7-2.36,.75-.63,1.34-1.42,2.36-1.69,.19-.05,.36-.28,.5-.46,1.88-2.36,3.76-4.72,5.64-7.08,1.39-1.75,2.76-3.5,4.15-5.24,.93-1.17,1.84-2.35,2.8-3.49,.31-.37,.74-.64,1.04-1.01,.47-.64,.93-1.29,1.42-1.92,1.09-1.39,2.2-2.77,3.31-4.14,.64-.79,1.33-1.54,1.95-2.34,1.13-1.45,2.23-2.94,3.35-4.4,.38-.49,.8-.95,1.19-1.44,2.46-3.08,4.92-6.15,7.35-9.25,1.74-2.21,3.42-4.47,5.15-6.69,.95-1.21,1.98-2.35,2.93-3.56,.34-.43,.52-.98,.82-1.44,.76-1.17,1.6-2.29,2.31-3.49,.45-.76,.74-1.63,1.24-2.76,.91-.81,2.12-1.74,3.88-1.24,1.62-.8,3.24-1.61,4.87-2.41,1.11-.54,2.2-1.14,3.36-1.56,1.16-.42,2.41-.61,3.6-.96,.54-.16,1.04-.47,1.77-.81,.48,0,1.23,0,1.47-.6,1.49-.46,2.75-.86,4.03-1.24,.34-.1,.7-.15,1.05-.25,1.69-.46,3.38-.97,5.08-1.4,1.78-.45,3.56-.89,5.36-1.21,1.9-.33,3.82-.53,5.74-.72,1.76-.18,3.52-.31,5.28-.38,1.78-.07,3.56-.01,5.32,.29,.74,.13,1.5,.09,2.24,.22,1.22,.22,2.44,.51,3.65,.76,.15,.03,.32,0,.75,0-1.21-1.08-1.41-2.69-2.87-3.3l.32-1.39c2.22,1.29,3.42,3.48,4.77,5.27,1.06,.35,1.73-.66,2.66-.26,.76,.33,1.6,.47,2.39,.76,3.58,1.03,7.16,2.07,10.42,3.01l2.09,1.85,.87,.14c.86-.82,1.31-1.84,1.67-2.89,.23-.68,.42-1.38,.62-2.07,.24-.79,.64-.99,1.41-.71,1.45,.52,2.55,1.55,3.62,2.6,.19,.18,.35,.39,.56,.54,1.93,1.39,3.07,3.37,4.08,5.46,.59,1.22,1.18,2.45,1.83,3.81,1.4-.48,2.99-.97,4.55-1.55,1.57-.59,3.1-1.27,4.66-1.91l.64,.61c-.14,1.35,.7,2.34,1.52,3.29,1.08,1.26,1.91,2.66,2.36,4.23,.54,1.89,1.37,3.76,.71,5.84-.19,.6,.08,1.35,.13,2.03-.54,.51-.95,.34-1.32-.21l-1.61,.83c-1.85-.23-3.7-.49-5.56-.67-.84-.08-1.72-.08-2.54,.08-.68,.14-1.31,.54-1.94,.88-.68,.36-1.39,.71-1.96,1.21-.53,.47-.9,1.12-1.33,1.7-.5,.67-.99,1.34-1.71,2.31l.67,3.14,.94-.27,.07-.99c1.94-1.35,3.94-2.74,5.93-4.13l.17,.2c-1.27,1.15-2.54,2.31-3.81,3.46l.07,.25c.26,.02,.52,.08,.77,.05,.18-.02,.34-.22,.53-.25,2.29-.4,3.87-1.98,5.57-3.36,.08-.06,.16-.12,.24-.17,.05-.02,.12-.01,.45-.04l-2.45,2.49,.12,.22c1.34-.33,2.89,.22,3.99-1.15,.53-.66,1.16-1.25,1.74-1.88l.27,.22-2.11,2.77,1.77,.5c1.24-1.63,2.45-3.23,3.66-4.83l.21,.14-3.06,5.07,1.29,.67c1.24-.59,1.51-1.94,2.55-2.66l-1.69,3.18c.5,.58,.67,.58,1.06,0,.45-.66,.87-1.34,1.4-1.95-.1,1.3-1.11,2.18-1.64,3.48l4.65-.38v4.41h.7c1.07-1.44,1.22-3.04,1.18-4.64-.02-.87-.34-1.74-.6-2.6-.29-.96-.61-1.92-1-2.85-.21-.5-.58-.95-.91-1.39-.83-1.11-1.68-2.21-2.58-3.38l-.72,.06-.13-.32-.96-.08-.08-.28,2.28-1.41c1.5,2.13,2.98,4.21,4.51,6.39,.4-.43,.75-.88,1.17-1.26,2.15-1.97,4.66-3.36,7.33-4.48,1.69-.71,3.38-1.43,5.1-2.04,.71-.25,1.51-.26,2.32-.22-.75,.87-1.86,1.07-2.77,1.59-.93,.53-2,.83-3.23,1.32-.21,.42-.65,.96-1.25,.96-1.88,1.71-3.61,3.27-5.49,4.97,.42,.12,.6,.21,.76,.21,1.64-.05,3.17,.42,4.68,.97,.27,.1,.51,.27,.77,.41l-.17,.25,.42-.14,6.22,1.58c.56,.21,.65,.65,.47,1.29-.36,1.31-.65,2.6-.6,4.03,.06,1.73,.46,3.33,.8,4.99,.37,1.79,.45,3.63-.16,5.42-.23,.67-.37,1.38-.55,2.07l-.18-.1-2.59,2.98,.33,.84c.93-.06,1.83-.12,2.73-.18,.43-4.34,2.69-7.8,5.22-11.16l.94,.18,.29-.85,.21,.02,.15,.89c.3-.05,.63-.02,.88-.16,1.07-.58,2.1-1.24,3.19-1.79,.42-.21,.94-.22,1.57-.35-.01,.05,.03-.12,.08-.29l1.75-.52,.5,.45,6.53-.41,.96,.69,.16,.79h2.6l.93,1.12,.34-.32,.15,.9c.17,.03,.34,.1,.48,.08,1.12-.17,2.22-.25,3.24,.4,1.92-.04,3.58,1.02,5.41,1.31,1.21,.19,2.44,.2,3.69,.17l1.37,.73c-1.59,1.16-3.28,2.13-4.44,4.3-.08,1.13-1.19,1.59-2.66,1.59l-.17,.64-.66,.19-.58,.77-.18,1.51-1.53,.79-.18,.65-.74-.1-.06,.49-.79-.05-.37,.72c.47,.64,.68,1.33,.11,2.01l-2.02,.7,.04,.15h-.88l.05,.17-2.84,.89v-.13h-2.04l-.53,1.34-.78,.31-1.03-.4c-.48,.2-1,.45-1.55,.62-.33,.11-.75,.23-1.05,.13-1.45-.53-2.98-.49-4.62-.83l-.31,1.75c-1.59,0-3.12,.26-4.65-.7-1.21-.76-2.16-1.66-2.9-2.84-.23-.36-.69-.57-.96-.92-.61-.76-1.18-1.57-1.84-2.45l-3.45,.87,.85,2.12c1.28,.85,1.52,2.48,2.3,3.92,.52,.39,1.15,.83,1.76,1.32,.8,.64,1.01,1.32,.44,2.14-.69,.99-.57,1.91-.27,2.97,.72,2.52,1.44,5.04,2,7.6,.42,1.93,.6,3.92,.9,5.88,.11,.71,.29,1.42,.36,2.13,.11,1.07,.18,2.15,.22,3.22,.07,1.5,.17,2.99,.13,4.49-.04,1.4-.21,2.79-.38,4.18-.4,3.19-.79,6.38-1.27,9.56-.18,1.22-.56,2.42-.9,3.62-.43,1.51-.87,3.01-1.37,4.49-.35,1.05-.83,2.05-1.2,3.09-.24,.67-.41,1.37-.56,2.06-.43,1.91-1.29,3.63-2.2,5.34-.16,.31-.31,.63-.46,.95-.13,.02-.25,.03-.26,.03-.09,1.09-.66,1.94-1.15,2.81-.52,.92-1.1,1.8-1.72,2.64l-1.5,3.38-1.12,1.01-.56-.75c.7-1.37,1.38-2.7,2.06-4.02l-.14-.11,1.15-.45-.18-.3,.68-1.75c.57-.6,1.24-1.4,1.34-2.52,0-.03,.02-.07,.04-.09,1.04-1.28,1.44-2.88,2.16-4.32,.95-1.9,1.73-3.84,1.15-6.03-.04-.15-.11-.29-.28-.45-.68,1.38-1.29,2.77-1.27,4.37-.85,.2-1.2,.8-.89,1.71l-.58,.17c-.18,.54-.35,1.14-.58,1.71-.23,.57-.51,1.12-.8,1.67-.59,1.12-1.22,2.22-1.79,3.36-.15,.3-.14,.69-.2,1.08-.74,.64-.89,.95-1.03,2.21l-.64,.17-.84,1.29-.05,1.09-.73,.06-1.89,3.11c-.61,.26-1.09,1.04-1.15,1.87-1.31,1.43-2.48,2.72-2.8,4.62l-.6-.34c-.47,.53-1.09,.93-1.15,1.57-.69,.51-1.41,.9-1.95,1.47-1.02,1.08-2.27,1.96-2.93,3.36-.06,.13-.25,.19-.38,.28l.02,.02-.21-.35c-.21,.15-.4,.23-.51,.38-.66,.94-1.48,1.7-2.39,2.41-.48,.37-.75,1.02-1.08,1.57-.21,.35-.36,.74-.56,1.18l.24,.31,1.49-1.77v.78c.93-.73,2.05-1.11,2.21-2.43l.79,.2c1.53-.48,2-1.85,2.86-2.84l-.03,.02c1.09-.58,1.15-.65,1.32-1.55,1.33-.64,1.93-1.8,2.6-2.91l-.14-.16,.67-.18,.79-1.6,.48,.21c.94-.4,.83-1.26,.97-2.08l.69-.06c.09-.19,.23-.41,.31-.65,.2-.63,.5-1.14,1.01-1.61,.49-.46,.74-1.19,1.09-1.8,.1-.19,.17-.4,.28-.66,.48,.82-.27,1.25-.47,1.94l.85-.11c-1.33,4.07-10.93,14.4-13.9,14.95,.02,.8-.73,.98-1.19,1.35-.85,.69-1.78,1.31-2.73,1.85-.91,.52-1.72,1.1-2.49,1.82-.52,.49-1.33,.65-1.99,1.01-1.55,.85-3.07,1.78-4.64,2.6-1.24,.65-2.54,1.17-3.82,1.76-.62,.28-1.23,.6-1.86,.85-.35,.14-.74,.17-1.19,.27-.38,.75-1.19,.93-1.99,1.16-.68,.2-1.34,.47-2.01,.69-.74,.24-1.48,.49-2.23,.7-1.04,.29-2.09,.53-3.13,.81-.28,.07-.58,.15-.81,.31-.87,.62-1.92,.55-2.89,.81-.37,.1-.76,.14-1.11,.27-.62,.23-1.21,.52-1.89,.09-.62,1-1.68,.27-2.51,.79l-.34-1.06c.97-.45,2.17-.2,2.89-1.07l-.06-.23c-1.8,.3-3.61,.61-5.43,.91l-1.19,1.37,.23,.32c-1.23,.37-2.44,.76-3.62,.16l-3.74,.85,.43-.57c.47-.15,.93-.32,1.06-1.05-.65,.25-1.03,.49-1.04,1.08h-1.5v-1.21l-.44,.82c-1-.85-2.13-.15-3.3-.33l.38,.79-1.35-.31,.35-1.05c1.37,0,2.76,.24,4.06-.36-.57-.11-1.15-.12-1.71-.21-.88-.15-1.68-.1-2.33,.58-1.13,.98-2.52,.47-3.78,.69l-.32-.42-1.5,.17,.78,.52c-.56,.43-1.09,.12-1.56-.02-.52-.15-.99-.44-1.49-.67l.78-.14,.41-.56,.31,1.08,.47-.93c1.06-.02,2.11,.01,2.95-.94-1.72-.27-3.23-.1-4.62,.77-.28,.18-.57,.33-.83-.19,.35-.13,.65-.23,.94-.34,.28-.11,.56-.23,.98-.4-1.25-.3-2.24,.11-2.97,1.23l1.61,.4c-.26,.75-.9,.26-1.41,.53l-.61-1.26c-.97-.34-.49,.91-1.1,1.04l-1.6-.2,.09-.97-.97,.13,.36,.76c-1.32-.29-2.49-.7-3.69-.76-1.28-.06-2.13-1.04-3.48-1.23l-.57,.14c-.94-.37-1.83-.77-2.74-1.09-.93-.32-1.91-.53-2.84-.85-1.1-.38-2.17-.85-3.26-1.26-.79-.29-1.61-.5-2.39-.82-2.63-1.09-5.17-2.36-7.55-3.94-1.08-.72-2.26-1.27-3.38-1.93-1.26-.75-2.51-1.52-3.76-2.29-1.02-.64-2.04-1.29-3.05-1.94-.65-.41-1.3-.82-2.01-1.27l.29-.5-3.43-3.26c-3.39,1.53-6.51,3.42-9.71,5.26,.13,.15,.18,.26,.26,.29,1.44,.55,2.78,1.4,4.36,1.5,.69,.04,1.39-.21,2.1-.24,.5-.03,1.02,.08,1.52,.13l.11,.8c-.92,.43-1.76,.86-2.63,1.21-.57,.23-1.18,.37-1.78,.51-.73,.17-1.47,.37-2.22,.43-1.79,.14-3.59,.24-5.39,.3-1.4,.05-2.8,0-4.17,0-.27-.71-.48-1.09-1.18-.65-.4,.25-1.02,.13-1.5,.3-.86,.32-1.69,.71-2.52,1.11-1.03,.48-2.04,1.03-3.08,1.48-.48,.21-1.01,.28-1.53,.42l.11,1.05-1.24,1.06c-.77-.03-1.38,1.43-2.57,.63-.33,.53-.71,.75-1.39,.53-.44-.14-.99,.08-1.5,.08-2.25,0-4.5-.01-6.75-.06-.48-.01-.95-.22-1.5-.35l.18-.47c.64-.7,1.11,.05,1.64,.13h6.2l.02-.34c-3.87,.08-7.58-.9-11.37-1.3h5.84s.14-.22,.25-.22c.97,0,1.94,.03,2.91,.03,.36,0,.73,0,1.07-.11,2-.62,3.78-.26,5.45,1.14,.77,.03,1.41-.32,1.9-.99-.38-.99-.51-1.06-1.4-1.13-1.76-.13-3.52-.31-5.28-.42-2.04-.13-4.08-.23-6.11,.29-1.35,.34-2.72,.75-4.17,.28-1.34-.44-2.72-.37-4.09-.06-.2,.04-.38,.15-.75,.3,1.22,.64,2.33,.82,3.47,.86,.33,.2,.67,.4,1.03,.5,.82,.22,1.66,.37,2.48,.6,.32,.09,.61,.3,.92,.46Zm51.29-148.34c-.76,.3-1.07,.8-.89,1.54,.33-.55,1.06-.77,.86-1.56,.2-.32,.62-.58,.38-1.11-.6,.28-.64,.66-.36,1.13Zm21.99,149.68c.69,.29,1.35,.73,2.11,.47l.04-.33-2.17-.12-1.42-.78-1.38,.58c.64,.61,1.11,.03,1.39-.02l1.43,.2Zm48.78-159.45c.67,.15,1.14-.04,1.32-.73-.61-.84-1.89-.85-3.29,.05,.37,.14,.64,.25,.92,.35,.36,.13,.72,.24,1.08,.36l-.64,.16v.21l1.07,.29-.46-.68Zm-72.4,5.95l-.38,.91,.15,.11,1.22-.74-.08-.26h-.93l.65-.52-.84-1.59c-1.29-.14-1.95,.18-2.41,1.07-.45,.9-.33,1.84,.43,2.71,.33-.29,.66-.59,1.01-.86,.38-.29,.79-.55,1.18-.83Zm30.98-10.46c1.01,.38,1.71-.24,2.47-.74,1-.66,2.05-1.25,3.08-1.86l-3.07,2.32c2.14,.38,3.31-1.06,4.72-1.85l.11,.18-1.46,1.2,.11,.21,1.84-.22c.83-1.22,1.81-2.17,3.58-1.96-.99,.6-2.28,.43-2.73,1.69,1.09-.32,2.37,.19,3.26-.92,.11-.14,.33-.22,.51-.3,.06-.03,.16,.02,.31,.04l-.62,.8,3.28-.33c.64,.4,1.42,.12,2.03-.23,1.07,.54,2.01,.46,2.76,.14l2.17,.68,.83-.27,.45,.74,1.04,.2,.21-.25c-.56-.68-.75-1.62-1.9-2.09l-1.63,.79-.46-.64-1.99-.12-.46-.34c-2.34-.19-4.55-.43-6.78-.53-1.26-.05-2.54,.06-3.79,.26-.81,.13-1.58,.53-2.37,.81l.06-.51c-1.07-.47-1.72,.6-2.52,.53l-1.69,1.19,1.08-1.45-1.21-.06-.73,1.01c-.28-.79-.67-.76-1.21-.54-.43,.18-.94,.19-1.43,.28v.73l-1.05,.61-.11-.16,.53-.68-.15-.22-2.08,1-1.58,2.2,.12,.22,1.17-.23,1.56-1.92,.22,.16-.68,1.27c.79,.09,1.33-.05,1.82-.64,.51-.62,1.19-1.11,1.79-1.66l.17,.19-1.64,1.66c.83,.22,1.43-.12,2.04-.4Zm-8.69,.62l-.74,1.51,1.88-.16,2.15-2.85-.14-.25-2.65,.7,.32,.69-.84,.38,.04-.77-5.01,1.25-.04-.14-2.09,1.26c-.94-.11-1.71,.47-2.58,.72l-1.96,.49-.31,.87-.6-.35c-1.13,.07-1.76,.87-2.47,1.55l-.7-.14-1.94,1.48c-.89-.33-1.41,.53-2.17,.61-.5-.06-1.09-.54-1.52,.19l1.53,2.43,1.11-.56,.3-.97,.53,.64,1.91-1.15,.2-1.01,.31,.54,4.72-2.49,.64-1.11,.22,.1-.42,1.19,1.92-.65,.44-.89,.26,.72,2.08-.76,.11-.58,.38,.49c1.19-.12,1.84-.87,2.44-1.73,.29-.43,.66-.81,.99-1.21l.19,.15-1.48,2.04c1.08,0,1.3-.2,1.68-.93,.29-.56,.38-1.37,1.3-1.33Zm-51.38,49.61l.65-.17-.22-5.74-.28-.09c-2.59,2.93-4.9,6.08-7.38,9.11l.41,.54c.05,2.06-.21,4.03,.54,5.88h.31v-2.76h.12l.44,1.67,.82-.56-.26-3.72,.15-.02,.66,3.24,.27-.03v-3.19c.44,1.1,.11,2.32,.79,3.34,.16-.68,.2-1.35,.25-2.02,.03-.46,.08-.91,.07-1.37-.05-1.57-.15-3.13-.18-4.69,0-.33,.19-.66,.29-.99l.29,.05c-.21,1.5-.36,3,.39,4.64,.86-.78,.4-1.71,.59-2.49l.81-.25,.35,1.76,.15-.04v-2.12l-.02,.03Zm146.43,.01c.16,.08,.34,.14,.46,.25,.52,.49,.79,1.28,1.85,1.4,1.93-1.16,3.83-2.54,4.86-4.67,0-.73,.11-1.32-.03-1.85-.18-.72-.57-1.39-.82-2.09-.36-.98-.7-1.96-1.01-2.95-.13-.4-.17-.83-.27-1.35,.47-.36,.03-.87-.15-1.44l1.61-3.55v.02l1.57-3.59c-1.65,.33-2.95,0-3.95-.82-1.33-.07-2.46-.34-3.56-.76-1.02-.39-1.97-1.02-3.14-1-1.33,.02-2.68-.13-3.84,.82l.82,4.3c1.13-.4,1.82-1.46,3.03-1.64-.91,.97-1.82,1.94-2.74,2.92l.65,1.1c1.59-.74,2.81-1.98,4.2-2.93l.19,.24-4.04,3.93,.56,1.36,5.13-2.98,.12,.18c-1.41,1.51-3.29,2.47-4.87,3.9l.23,1.12c1.9-1.16,3.65-2.22,5.41-3.29l.17,.26c-1.59,1.58-3.37,2.93-5.35,4.12l.07,.92c1.16-.54,2.16-1.07,3.21-1.49,1.01-.4,1.87-1.17,3.01-1.29-.08,.18-.21,.28-.34,.36-1.75,1.04-3.49,2.09-5.25,3.12-.84,.5-.95,.71-.74,1.88,1.08-.26,2.15-.51,3.22-.78,1.07-.27,2.04-.88,3.18-.92-2.18,1.2-4.31,2.5-6.84,2.99,1.67,.48,3.34,.23,5,.19l.04,.34-3.66,.98,.29,.89c.3,.25,.59,.47,.84,.73,.33,.34,.61,.72,.92,1.08l-1.4-.66c.35,.53,.73,.97,1.39,.64Zm23.91,7.97c1.72,.27,3.4,.29,5.19-.72-.83-.4-1.48-.68-2.11-1.02-.32-.17-.59-.43-.89-.65l-.02,.02c.33,.12,.67,.24,.99,.37,1,.41,1.97,.93,3.1,.79,.97-.12,1.95-.24,2.9-.45,.68-.15,1.34-.43,2.16-.71l-1.61-1.14,.11-.19,1.07,.25,1.6-2.21c-1.71-.83-3.73-.77-5.33-1.89,2.46,.57,4.85,1.56,7.43,1.4l.48-.5c.14-.6,.24-1.06,.37-1.65-1.27-.69-2.84-.21-4.15-.87h4.28c.76-.41,1.69-1.44,3.15-1.24-1.19-.72-2.62-.09-3.88-.79h4.77l1.08-1.43c-.48,.04-.73,.05-.97,.09-.74,.13-1.49,.27-2.23,.41-1.38,.26-2.78,.45-4.14,.78-1.69,.41-3.35,.92-5.02,1.42-.63,.19-1.22,.49-1.86,.65-1.53,.37-3.08,.66-4.61,1.04-2.17,.53-4.32,1.12-6.49,1.66-1.66,.42-3.33,.77-4.97,1.21-.94,.25-1.84,.62-2.79,.94,.09,.25,.1,.39,.17,.49,.92,1.34,1.83,2.7,2.8,4.01,.3,.4,.71,.82,1.16,1,.96,.38,1.97,.6,2.96,.88,.04,.01,.1-.07-.01,.01,.73-.77-.48-1.48,.16-2.14l2.07,.84v-.2c.7-.03,1.4-.11,2.08-.06,.44,.03,.78,0,1.01-.4l-.02,.02Zm-111.65,23.55l.02,.02c.82-.57,.68-1.53,.98-2.36l-.32-.58c-.22-.01-.43-.07-.61-.03-.99,.23-1.96,.57-2.95,.71-1.44,.2-2.48,1.13-3.68,1.77-.29,.16-.46,.53-.69,.8-.34,.4-.61,.89-1.03,1.18-.98,.69-2.03,1.29-3.06,1.93-.55,.34-1.12,.67-1.71,1.03v2.09c.75-.06,1.43-.08,2.1-.17,1.29-.17,2.58-.44,3.87-.55,1.22-.1,2.52,.2,3.68-.1,1.75-.45,3.42-.1,5.12,.03,1.14,.09,2.28,.14,3.41,.26,1.39,.15,2.78,.33,4.17,.54,.3,.05,.59,.25,.87,.37l.8-.39v.2c1.28,.2,2.57,.42,3.86,.61,2.66,.39,5.38,.28,7.98,1.12,.37,.12,.81,.02,1.41,.02l-1.93-1.76-.1,.08-.63-1.46c-.54-.09-1.09-.27-1.63-.26-.57,.01-1.14,.2-1.71,.33-.5,.11-.99,.25-1.48,.38l-.04-.13,1.93-.82-1.28-.69,.1-1.13c-1.21,.28-2.32,.54-3.43,.8,.99-.79,2.35-.66,3.42-1.53-.86-.67-1.77-.79-2.7-.89-2.02-.22-3.66,.81-5.37,1.61l.02,.02c.25-.23,.48-.51,.77-.68,.67-.39,1.37-.73,2.03-1.07l.46-1.38c-.74-.58-1.54-.34-2.28-.27-1.09,.1-2.17,.35-3.25,.53l.02,.02,.57-1.9-.88-.45-.02,.12h-2.95l-1.18,.58-.34,.74-2.34,.7Zm4.92,72.31c.56,.3,1.17,.55,1.68,.92,.76,.54,1.46,1.18,2.15,1.74l1.82-1.43c-.71-.5-1.37-.95-2.02-1.44-.89-.66-1.68-1.53-2.66-1.96-1.73-.76-3.57-1.26-5.47-1.9,0,.05,0-.1,0-.23-3.6-1.17-7.18-2.35-10.76-3.51-2.98-.96-6.02-1.58-9.18-1.32-.21,.02-.42,.08-.64,.12,0,.17-.02,.27,0,.35,.34,1.22,.58,2.48,1.07,3.64,.42,1,.7,2.12,1.52,2.93,.8,.77,1.58,1.56,2.37,2.34,.35,.34,.72,.59,1.33,.22l.24-1.88c.48,1.25,1.53,1.9,2.62,2.42,.46,.97,1.32,1.29,2.18,1.63,.72,.29,1.43,.61,2.33,1l1.44,.1c-.07-.29-.05-.61-.19-.78-.46-.51-.98-.96-1.47-1.44-.67-.64-1.35-1.27-2.02-1.91,1.19,.82,2.16,1.98,3.4,2.63,1.2,.63,2.55,1.2,4.08,1.22l-1.03-1.39-.03,.02c.49,.33,.99,.64,1.46,1,.87,.67,1.79,1.1,2.98,.63l.31-1.31-4.33-3.77,.13-.15c.98,.73,1.96,1.46,2.92,2.21,.7,.54,1.3,1.42,2.07,1.61,1.44,.34,2.97,.29,4.46,.39,.02,0,.06-.11,.1-.2-.07-.09-.14-.19-.23-.28-.86-.75-1.73-1.5-2.59-2.25l-.02,.03Zm-11.64-86.55l.03,.03,1.41-3.07v-2.21h-2.11c-.16,.35-.29,.65-.44,.93-.15,.28-.32,.55-.48,.83l-.25-.13c1.1-1.67,1.77-3.49,1.86-5.5l-.49-1.27-1.32-.3-.93,3.2-.33-.1,1.42-5.28-.36-.67,.17-.68-1.23,.47-1.56,3.7c.2-1.2,.6-2.33,.96-3.47,.42-1.33,.14-2.6-.34-3.84h-.52l-.73-1.41,.08-.61-.8-.49,.54-.61-.53-.19c-.22-1.1-1.3-1.85-1.01-3.1h-.82c0,1.04-.03,2.05,0,3.06,.08,1.99,.2,3.98,.29,5.98,.03,.72-.04,1.44,.01,2.15,.11,1.57,.33,3.12,.39,4.69,.07,1.61,.03,3.23,.01,4.85,0,.58-.1,1.16-.13,1.75-.09,1.72-.3,3.45-.22,5.17,.18,4.13,.5,8.25,.78,12.38,.02,.32,.21,.62,.34,.99,1.31-1.02,2.49-1.94,3.66-2.86,.49-.38,1.03-.72,1.43-1.18,.66-.76,1.22-1.61,1.89-2.51l-1.18-.98,.25-.7-.16-.11-1.19,.69-.11-.16,2.65-1.91-.23-.17c.79-1.22,.9-2.75,1.81-4.02l-.46-.49-2.65,2.66-.19-.18c1.18-1.33,2.62-2.48,3.49-4.25l-1.13-.1,.11-1.74-.42-.75-1.29,1.53Zm13.88,25.65c2.25,1.08,4.45,2.24,6.28,3.91,1.41-.23,2.73-.45,4.11-.68l.2-.95c-2.21-1.45-4.75-1.77-7.09-2.65,.13-.09,.26-.13,.37-.1,2.08,.55,4.19,1.03,6.24,1.69,1.33,.43,2.51,.21,3.72-.2l.05-.23c-1.44-.48-2.88-.96-4.32-1.44l.09-.25c1.65,.47,3.3,.94,4.95,1.4l1.71-1.5c-1.78-.44-3.58-.88-5.39-1.32-.13-.03-.26-.04-.39-.05-2.69-.36-5.38-.78-8.09-1.07-1.63-.17-3.28-.21-4.92-.17-1.86,.05-3.7,.07-5.55-.29-.86-.16-1.76-.23-2.63-.16-2.78,.25-5.53,.74-8.23,1.49-.31,.09-.58,.29-.98,.5,.28,.22,.4,.32,.52,.41,.16,.11,.33,.22,.3,.2,2.23,3.64,5.3,6.02,8.81,8.03l.23,.64,.8-.94-.27-1.35c-.39-.26-.74-.49-1.09-.72-.33-.21-.66-.4-.99-.6l.11-.16c3.46,1.95,6.98,3.71,11.14,3.68l-.09-.8-1.1-.78,.08-.15,.72,.12,1.39-.59c-1.19-.88-2.33-1.71-3.48-2.55,.26-.05,.47,.01,.64,.12,.96,.63,2,1.17,2.85,1.92,1.38,1.22,2.85,.7,4.37,.58v-1.16l-.15,.12-1.59-1.42,.19-.17c-1.07-.63-2.15-1.24-3.21-1.89-.15-.09-.2-.33-.3-.49l-.02,.03Zm23.28,7.57l.02,.02c.23-.48,.62-.94,.15-1.48-3.07,.24-9.33,3.32-10.86,5.36,.54,.07,1.07,.06,1.55,.21,1.84,.59,3.64,1.25,5.58,1.52,1.71,.24,3.36,.87,5.07,1.1,1.9,.26,3.71,.81,5.53,1.34,2.64,.77,5.26,1.62,7.89,2.46,2.59,.83,5.2,1.61,7.76,2.55,2.12,.78,4.17,1.76,6.25,2.64,.97,.41,1.96,.81,2.99,1.23,0-1.22-1.24-3.1-2.18-3.53l-.68-1.65-.14,.14-1.79-1.64,.13-1.34c-2.74-.06-5.22,1.1-7.85,1,1.77-.38,3.54-.76,5.47-1.18l.85-.64-.84-.62c-.43-.02-.82-.19-1.22-.26-.41-.08-.86-.17-1.25-.09-2.33,.49-4.65,1.02-6.98,1.54l-.05-.2c2.7-.69,5.4-1.38,8.09-2.06,.06-.93-.83-1.04-1.12-1.8l-8.32,1.15-.02-.17c1.64-.32,3.28-.64,5.05-.99l-.69-1.04,.79-1.27-.27-.38-2-.74c-1.14,.2-2.39,.43-3.69,.66-.61-.26-.25-.9-.42-1.37l-.92-.71c-1.54-.44-2.99-.25-4.24,.58-1.26-.15-.99-1.03-1.01-1.85-.28-.07-.57-.24-.81-.2-.9,.17-1.8,.37-2.67,.63-1.05,.32-1.93,1.16-3.13,1.06Zm14.82,18.72c1.54,1.11,3.08,2.23,4.63,3.33,.27,.19,.57,.35,.66,.4,.61-.43,1.01-.8,1.47-1.02,.47-.22,1.01-.29,1.74-.49-2.21-1.66-4.18-3.15-6.16-4.65,2.7,1.27,4.77,3.48,7.2,4.83l2.25-1.58c-1.57-.92-3.05-1.79-4.52-2.65l.11-.19c1.59,.87,3.19,1.75,4.8,2.64,1.44-.21,2.91-.42,4.49-.65l.26-.46c-1.65-.74-3.21-1.52-4.82-2.15-.74-.29-1.61-.22-2.38-.44-1.07-.3-2.11-.72-3.16-1.08-2.05-.71-4.11-1.39-6.14-2.14-3-1.1-6.05-1.97-9.19-2.55-2.52-.47-5.05-.84-7.58-1.23-2.46-.39-4.93-.76-7.4-1.12-1.08-.16-2.18-.28-3.2-.41,.59,1.71,1.27,3.32,1.68,5,.49,1.98,1.39,3.74,2.41,5.46,.17,.3,.58,.46,.89,.68l.87-1.18,1.37,1.23,.12-.12-.09-.43,.12-.08,1.3,2.04c.69,.59,1.56,1.39,2.84,1.21l.5-1.56,1.41,1.14c.82-.23,1.35,.13,1.76,.73l-.1,.2-1.14-.71-.17,.23c.89,.74,1.74,1.54,2.69,2.19,.96,.66,2.02,1.18,3.07,1.78,.95-.8,.35-1.93,.75-2.76l-2.63-2.8,.16-.19c2.23,2.31,4.41,4.71,7.97,4.86,.13-.81-.05-1.35-.58-1.8-.97-.83-1.91-1.69-2.85-2.56-.3-.28-.55-.62-.82-.93l.11-.07c1.59,1.34,3.18,2.68,4.74,3.99l5.01,.9,.67-.74c-.31-.2-.6-.35-.86-.55-1.24-.98-2.47-1.96-3.7-2.95-.21-.17-.36-.42-.54-.64l-.02,.02Zm-23.4-88.08l.03,.02c.06-.29,.09-.59,.19-.87,.47-1.28,.17-2.53-.13-3.77-.08-.34-.32-.65-.48-.97l-.28,.04-1.4,6.48,.52,1.12c-.54,.26-1.02,.39-1.35,.69-.76,.66-1.43,1.42-2.15,2.12-.9,.88-1.81,1.76-2.74,2.65,.06,.14,.1,.27,.17,.38,1.01,1.44,2.22,2.75,2.81,4.47,.11,.33,.56,.64,.92,.79,2.03,.8,3.41,2.1,4.02,4.3,.42,1.5,.78,2.95,.52,4.5-.03,.17-.12,.33-.23,.62-.58-.86-.22-1.59-.06-2.33l-.54-.41,.13-.08-.8-1.87,.07-.79c-1.05-.66-1.17-2.46-3.07-2.55l1.67,4.29c.43,1.03,.52,2.21,1.25,2.87,.16,.52,.2,.88,.36,1.17,.65,1.14,1.14,2.33,1.2,3.66,0,.16,.01,.35,.1,.48,.91,1.44,1.1,3.13,1.6,4.71,.35,1.1,.57,2.24,.92,3.35,.17,.55,.39,1.17,.78,1.54,1.2,1.11,3.22,1.19,4.68,.38,1.57-.88,3.21-1.63,4.42-3.05,.27-.32,.82-.4,1.21-.65,.96-.6,1.9-1.23,2.94-1.91-1.23-1.9-2.36-3.64-3.48-5.38l.19-.1-1.18-3.11h-.29c-.1,.28-.24,.54-.31,.83-.6,2.46-1.49,4.81-2.86,6.96-.37,.57-.8,1.11-1.45,1.44-.01-.33,.05-.61,.2-.82,2.06-3.03,3.13-6.39,3.3-10.04,0-.2-.12-.41-.18-.62h-.27c-.6,1.33-1.15,2.68-1.8,3.99-1.29,2.6-1.77,3.22-2.51,3.45,.35-.74,.68-1.43,1-2.14,.32-.72,.64-1.44,.94-2.17,.31-.76,.64-1.51,.88-2.29,.21-.69,.85-1.26,.71-2.25-1.02,1.18-1.87,2.22-2.8,3.19-.93,.98-1.97,1.84-3.33,2.16,.92-1.07,1.99-1.99,2.84-3.09,.84-1.08,2.01-1.96,2.35-3.37-.5-.41-.7-.08-.98,.17-1.63,1.52-3.28,3.03-4.93,4.52-.23,.21-.57,.31-.85,.46l-.19-.26c1.77-2.21,4.29-3.77,5.91-6.26-.25-.02-.33-.05-.38-.03-.17,.1-.33,.21-.49,.32-1.43,1.06-2.95,1.97-4.61,2.63-.22,.09-.49,.08-.73,.11l-.08-.25c1.69-1.19,3.46-2.29,4.86-3.87-.68,.15-1.29,.44-1.94,.62-.63,.18-1.29,.27-1.94,.34-.62,.07-1.26,.4-1.89-.03,1.9-.97,4.04-1.28,5.96-2.35l-.6-.8c-1.04,.23-2.02,.57-3.01,.64-2.09,.15-2.49,.04-3.12-.51,.87-.12,1.62-.14,2.32-.35,.69-.21,1.5-.2,2.22-.8-2.23-.52-4.42-.72-5.77-2.65,2.24,.55,4.38,1.46,6.88,1.39l-.44-1.7c-.84-.23-1.6-.43-2.36-.65-1.84-.52-3.62-1.2-5.21-2.29-.27-.19-.47-.49-.7-.74l.18-.21c2.54,1.23,5.2,2.04,8.07,2.56v-1.82c-.21-.07-.43-.14-.63-.23-1.14-.51-2.27-1.02-3.4-1.54-.38-.17-.67-.41-.51-.96,1.59,.38,3,1.48,4.95,1.22-.43-1.05-1.44-1.15-2.05-1.7-.63-.57-1.33-1.06-1.71-2.11,1.4,.6,2.4,1.51,3.78,1.81l.97-2.67c-2.88-2.75-3.13-3.09-3.08-4.17l3.74,3.29,.75-.86c-.77-1.02-1.58-1.9-2.14-2.92-.56-1.01-1.26-2.07-.73-3.41,.62,1.61,1.62,2.92,2.75,4.13l.24-.09-.09-1.94-.37-.17c.13-2.02-.4-4,.34-5.84l-1.35-1.13-3.61-1.56-1.4,.68c-.53,.9-1.01,1.63-1.4,2.41-.57,1.16-.62,2.41-.57,3.78l.85-.3,.33,1.1-1.11-.38-.1,.27,1.06,.5c.29,.96,.71,1.88,.81,2.83,.1,.95-.12,1.93-.19,2.79l-1.5,.9Zm-58.14,16.87c-1.11,1.23-2.19,2.44-3.29,3.63-.45,.49-1.01,.89-1.4,1.42-.64,.86-1.18,1.78-1.75,2.69-.48,.76-.93,1.55-1.42,2.31-.69,1.06-1.4,2.1-2.1,3.15-.13,.19-.22,.42-.38,.57-1.08,1-1.48,2.42-2.14,3.64-.99,1.81-1.5,3.87-2.25,5.81-.79,2.07-1.61,4.14-2.42,6.2-.44,1.12-.89,2.23-1.35,3.36h-.83l-.04,.15,.54,.32c-.23,1.4-.53,2.68-.61,3.96-.05,.82-.13,1.58-.42,2.35-.17,.45-.22,.95-.28,1.43-.14,1.17-.13,2.37-.39,3.51-.5,2.24-.2,4.43,.22,6.63,.1,.51,.25,1.03,.23,1.53-.05,1.13,0,2.25,.25,3.35,.13,.58,.23,1.16,.37,1.74,.17,.72,.37,1.44,.55,2.16,.24,.98,.49,1.95,.71,2.93,.02,.1-.1,.22-.1,.23,.23,.45,.45,.81,.59,1.19,.87,2.35,1.69,4.73,2.61,7.07,.7,1.8,1.53,3.54,2.26,5.33,1.41,3.45,3.45,6.51,5.63,9.64l-.04,.77,.39-.27,1.98,2.85c.83,.03,.67,1.55,1.62,1.54,.74-.8,1.42-1.5,2.07-2.23,2.03-2.26,4.5-3.9,7.29-5.06,.7-.29,1.55-.38,2.4,.18-1.96,2.07-4.44,3.54-5.53,6.34,.28-.03,.48-.01,.64-.08,1.8-.8,3.43-1.92,4.92-3.16,1.88-1.57,3.75-3.19,5.06-5.33,.51-.84,1.22-1.56,1.74-2.39,.53-.83,1.08-1.7,1.37-2.63,.47-1.54,.74-3.14,1.11-4.83l-1.09,.13c-.57-.49-1.03-.85-1.44-1.26-1.32-1.32-2.63-2.64-3.91-3.99-.8-.85-1.55-1.75-2.27-2.67-1.05-1.33-2.06-2.69-3.05-4.07-.18-.24-.18-.61-.29-1.02l1.61,1.04c1.46,1.88,2.87,3.82,4.51,5.62,1.65,1.81,3.41,3.43,5.32,4.69l.33,.9h.28l.6-1.68c-1.73-1.85-3.39-3.62-5.05-5.39l.07-.09c1.67,1.36,3.33,2.73,5,4.09l.3-.12,.4-2.92c-.74-.79-1.39-1.47-2.03-2.15-.61-.41-4.12-5.1-5.01-6.99l1.43,.21c.44,.56,.85,1.06,1.25,1.58,1.26,1.64,2.5,3.28,3.78,4.9,.14,.18,.45,.21,.77,.35,.13-1.67,.27-3.16,.35-4.65,.16-2.91,.29-5.81,.42-8.72,.06-1.41,.12-2.81,.15-4.22,0-.39-.04-.79-.16-1.16-.06-.18-.32-.29-.48-.41-1.08,1.35-2.1,2.55-3.04,3.81-.6,.79-1.22,1.54-2.18,1.84-1.04,.33-1.88,.96-2.76,1.57-.84,.58-1.83,.72-2.86,.74v-1.14l-1.09-.1,.03,.13c-1.09,.52-2.18,1.04-3.37,1.6l-2.71-.38,.22-1.36c-1.17,.09-2.23,.18-3.28,.26v.12l-.98-.31-.96-1.15-3.56-.31-.7-1.57-2.23-1.15q-1.5-.48-1.83-.97c-.43-.17-.83-.2-.97-.4-.63-.91-1.59-1.26-2.54-1.64-.88-.35-1.77-.69-2.85-1.12,2.6-1.95,5.19-3.53,7.83-4.91l.22-1.14c.89-.35,1.85-.73,2.8-1.11l-.38-.32,1.11-.62,.14,.14,.07-.56,5.12-.24-.71-.85,.84-.51-.07-.68c1.59-.45,3.12-.55,4.53,0l2.29-.25-.12-.83,.91,.34c.59-.22,1.18-.34,1.77-.33,.61,.02,1.21,.16,1.85,.26v-1.15l-.64-.48,.06-.9-.97-.73,.82-.68c-1.07-2.35-.95-4.73-.24-7.03l1.08-.6,.81,.23c-.74-2.4-1.4-4.67-.5-7.07l1.03,.55c.64-1.74,.58-3.52,1.07-5.16l.74-1.33h1.08c.55-1.24,.16-2.84,1.51-3.76l.75,.09c.18-.28,.39-.54,.53-.82,.34-.71,.62-1.44,.98-2.13,.16-.31,.47-.54,.71-.81-.02-.14-.17-.43-.08-.59,.79-1.47,.7-3.36,2.17-4.45l.16-1.29h1.29c.16,.53,.29,1.07,.48,1.59,.22,.57,.4,1.2,.77,1.67,.72,.91,1.01,1.94,1.21,3.11l1.87,1.76,.53,2.9,.95,.33-.12,.54c.98,.59,.54,1.78,1.16,2.53l.92,.28,.08,1.53h-.02l.31,2.47-.15,.96c.29,.04,.48,.08,.66,.08,.21,0,.43-.03,.74-.06l.61,6.29,.81,.05,.28,1.15c-.21,.54-.22,1.08-.25,1.62-.01,.26-.02,.53-.11,.77-.41,1.11-.85,2.22-1.27,3.29h-.46l-.69,2.53h1.3c0,.94-.57,1.46-1.17,1.93,.27,.66,.5,.76,1.19,.48,.73-.3,1.43-.68,2.18-.91,.67-.21,1.39-.57,1.98-.13l1.94-.45v1.31c2.21,.21,4.37-.34,6.53,.19l.04,.65,.93,.86,2.96-.32c.54-2.71,1.65-5.12,4.4-6.46-.66,1.78-.38,3.47,.19,5.29l4.68-3.42-5.09-3.75c-1.35-.43-2.69-1.32-3.46-2.93-.26-.55-.08-.95,.35-1.38,.52-.52,1.17-.66,1.8-.91,2.39-.96,4.89-1.45,7.42-1.79,.43-.06,.68-.19,.68-.64-.7-1.21-.84-1.96-.59-3.1-.12-.03-.34-.02-.36-.08-.23-.77-.44-1.55-.62-2.2-.39-.37-.65-.71-.99-.93-1.85-1.14-3.87-1.86-5.98-2.36-1.95-.46-3.93-.69-5.94-.76-.42-.02-.84-.13-1.25-.09-2.01,.21-4,.56-6.04,.46-.09,0-.17-.08-.39-.19,.56-.31,.93-.59,1.34-.73,1.86-.61,3.74-1.19,5.62-1.77,.71-.22,1.43-.54,2.15-.57,1.4-.06,2.82,.07,4.23,.1,1.22,.03,2.43,.06,3.65,.06,.21,0,.42-.12,.66-.19,0-1.05-.18-1.98-.66-2.88-.75-1.41-1.4-2.87-2.1-4.3-.32-.66-.63-1.33-1.03-1.94-.32-.48-.78-.86-1.15-1.31-.35-.43-.66-.9-1.09-1.49,.32-.44-.17-.8-.6-1.14,1.3-1.2,2.53-2.39,4.17-2.99l-.02-.09-.51-.04,.8-1.01c-.38-.13-.64-.25-.92-.31-.93-.18-1.87-.34-2.8-.51-2.31-.43-4.62-.48-6.95-.2-1.27,.15-2.55,.16-3.83,.22-1.53,.06-3.07,.05-4.6,.18-1.62,.13-3.23,.34-4.83,.61-1.05,.18-2.08,.48-3.11,.79-1.17,.36-2.32,.81-3.49,1.19-.72,.23-1.47,.36-2.17,.63-2.72,1.04-5.41,2.16-8.14,3.17-1.83,.68-3.33,1.87-4.9,2.95l-1.02,.35,.1,.15-1.34,1.14c-.66,.99-2.07,1.17-3.08,1.94-.28,.82-.91,1.36-1.86,1.54Zm129.41,22.29c-.72,.48-1.45,.89-2.1,1.41-.42,.33-.69,.86-1.09,1.22-1.42,1.28-2.49,2.82-3.43,4.47-.19,.33-.54,.6-.66,.95-1.02,3.07-3.24,5.27-5.42,7.51-.13,.13-.32,.2-.55,.34l-.95-2.73-1.82-1.34-1.67-.17-.43-.65c-.51,.81-.72,.03-1.14,0-.36,.94-1.5-.53-1.88,.4,.64,.82,1.22,1.48,1.69,2.21,.57,.88,1.05,1.81,1.58,2.72,.33,.57,.7,1.11,.98,1.7,.79,1.66,1.56,3.32,2.31,5,.32,.72,.61,1.46,.79,2.22,.65,2.78,1.25,5.56,1.85,8.35,.03,.13-.06,.28-.16,.68-.75-1.2-1.21-2.28-1.65-3.49-.68-.37-.69-1.14-.69-1.79-.33-.54-.63-.97-.86-1.44-.57-1.16-1.05-2.37-1.66-3.51-.94-1.76-1.94-3.48-2.97-5.19-.36-.61-.76-1.26-1.58-1.55,.33,.93,.56,1.78,.94,2.57,1.1,2.3,1.07,4.84,1.61,7.26,.51,2.27,.59,4.59,.69,6.9,.03,.6-.14,1.22-.25,2.02,0,0,.08,.22,.1,.45,.02,.26-.06,.53,0,.77,.21,.92-.07,1.72-.48,2.53-.23,.44-.27,.99-.37,1.49-.21,1.01-.11,2.05-.41,3.08-.43,1.49-.65,3.05-.99,4.57-.11,.51-.3,1-.51,1.48-.52,1.19-1.05,2.38-1.6,3.56-.54,1.16-1.03,2.36-1.71,3.45-1.02,1.63-2.1,3.23-3.29,4.73-1.25,1.57-2.53,3.15-4.04,4.46-2.16,1.87-4.69,3.22-7.31,4.36-1.32,.58-2.57,1.4-3.94,1.76-3.28,.88-6.66,1.14-10.06,1.01-2.42-.1-4.85-.25-7.2-.92-1.42-.41-2.88-.73-4.23-1.31-1.52-.65-3.07-1.07-4.68-1.39-1.96-.39-3.96-.66-5.88-1.2-1.95-.55-3.84-1.31-5.72-2.08-2.63-1.08-5.45-1.67-7.95-3.11-1.21-.7-2.53-1.22-3.8-1.83-1.02-.5-2.03-1-3.03-1.53-.79-.42-1.56-.9-2.62-1.51-2.11-.61-4-2.48-6.34-3.28-3.85,5.25-8.45,9.62-13.56,13.5,.72,.68,3.99,1.7,4.92,1.64,.93-1.38,2.35-2.17,3.52-3.24,1.29-1.19,2.99-.87,4.37-1.59l.52,1.02c2.75-1.26,5.57-1.91,8.6-1.58l.08,.82c2.27,.51,4.44,.99,6.61,1.48l-.35,.8c1.51,.62,2.96,1.21,4.33,1.77l.56,1.61,2.21,1.17c.05,.25,.08,.38,.1,.51,.2,1.36,.72,1.71,2.09,1.39,.19-.04,.39-.02,.58-.01,.04,0,.07,.09,.13,.16l-.55,.42c.46,.68,.94,1.26,1.28,1.92,.84,1.64,1.91,3.09,3.49,4.24,.33,2.02,1.76,3.39,3.19,4.68l-1.61,.27c-1.36-.82-2.98-1.24-4.71-.72l-.9-.76-.48,.58h-1.5l-1.57,1.5-.22-.97-.29,.72c-1.79,1.05-3.58,.35-5.31,.42l-2.59,.66,.43,.41-.95,.36-1.12-.75-.03,.17-4.31-.52,.34,.96-1.07-.59-.06,.22c-.72-.13-1.44-.21-2.14-.39-1.18-.3-2.25-.83-3.19-1.63-.62-.53-1.27-1.03-1.93-1.5-.17-.12-.46-.07-.78-.12l-.16,1.64c-.8,.06-.76-.6-.94-1.04l-1.63-.72c-.3-.52-.71-.87-1.09-1.25-.46-.45-.98-.86-1.32-1.39-.49-.76-.93-1.58-1.23-2.44-.53-1.53-1.35-3.01-1.03-4.88-.54-.1-1.04-.23-1.54-.27-2.39-.15-4.78-.29-7.18-.4-.37-.02-.77,.09-1.12,.23-.98,.39-1.86,1.08-3.06,.97,1.27,1.17,2.55,2.34,3.82,3.51v.82l.63-.34c.57,.52,1.13,1.12,1.78,1.6,1.13,.82,2.27,1.67,3.51,2.3,.72,.37,1.52,.57,2.13,1.16,.18,.17,.46,.25,.69,.36,1.12,.53,2.26,1.01,3.34,1.6,1.14,.61,2.18,1.43,3.35,1.96,1.34,.6,2.76,1.01,4.16,1.45,1.53,.49,3.09,.9,4.62,1.38,1.77,.56,3.5,1.34,5.31,1.73,2.43,.52,4.92,.82,7.4,1.11,1.4,.16,2.82,.11,4.23,.18,2.46,.13,4.92,.4,7.38,.4,4.24,0,8.47-.14,12.71-.22,.59-.01,1.21,.05,1.77-.1,2.43-.63,4.99-.58,7.37-1.5,.41-.16,.94-.02,1.43-.02l.02-.37c1.07-.32,2.15-.61,3.2-.97,1.48-.5,2.96-1.02,4.41-1.59,1.15-.45,2.27-1,3.41-1.47,1.03-.43,2.16-.67,3.08-1.26,1.71-1.08,3.5-2,5.34-2.82,2.26-1.01,4.27-2.43,6.21-3.92,1.62-1.25,3.06-2.73,4.54-4.14,.56-.53,.97-1.21,1.53-1.73,.64-.6,1.36-1.1,2.05-1.64,.33-.64,.63-1.47,1.2-1.74,1.09-.52,1.33-1.65,2.12-2.38l.87-.37-.15-.53,.67-.18v-.56l.6-.33v-.59c.64-.92,2.03-.97,1.81-2.35l.66-.18c.66-1.37,1.3-2.69,1.93-4.01,.25-.52,.45-1.07,.75-1.55,.26-.42,.64-.77,1.08-1.28,.99-2.49,2.05-5.16,3.13-7.82,.15-.38,.45-.7,.71-1.1,.06-.85,.28-1.68,1.23-2.12l-.22-.73c.32-.77,.7-1.47,.9-2.21,.31-1.14,.49-2.32,.73-3.48,.07-.35,.18-.69,.27-1.04,.33-1.31,.67-2.62,1-3.92l.12,.02-.25-1.15,.21,.03c.44-2.88,.87-5.77,1.31-8.65,.03-.38-.03-.8-.03-1.22,0-.48,.07-.96,.08-1.43,.01-1.13,.05-2.26,0-3.39-.06-1.29-.19-2.57-.29-3.86-.06-.8-.15-1.61-.2-2.41-.06-1.08-.04-2.17-.12-3.26-.08-1.07-.23-2.12-.53-3.17-.44-1.56-.61-3.19-.95-4.78-.13-.62-.4-1.2-.64-1.92l-1.15,.86,.49,.28Zm-36.01,53.42c-2.51-.45-4.68-.18-6.55,1.56l-4.68-.6-.83,.87-1.47-.11v-.48l-.69,.4c-1.2-.45-2.38-.57-3.5-.53l-.29,1.75c-.92-.35-1.74-.65-2.55-.97-.57-.23-1.26-.35-1.67-.74-1.11-1.06-2.55-1.56-3.73-2.49-.06-.05-.18-.02-.33-.03-.02,.14-.04,.25-.05,.37-.01,.12-.01,.24-.02,.35l-.2,.14-.92-.86c-1.86,.2-2.97-1.27-4.19-2.3l-1.33-.15-.47,.78-.75-1.09c-.78-.37-1.4-.81-1.59-1.69-.04-.2-.22-.45-.4-.54-.79-.39-.99-.98-.7-1.76-1.14-1.11-1.11-2.59-1.49-3.95-1.18-1.13-.78-2.91-1.66-4.18-2.47-.45-11.47,1.22-12.91,1.78,.33,1.21,.6,2.44,1.01,3.63,.52,1.49,1.17,2.92,1.72,4.4,.62,1.67,1.59,3.13,2.57,4.59,.49,.73,.89,1.51,1.4,2.22,.86,1.19,1.78,2.34,2.69,3.5,.13,.16,.38,.24,.57,.35-1.31-3.03-2.93-5.81-4.17-8.8-1.28-3.08-1.45-6.35-2.31-9.49,.58,.98,1.19,1.95,1.62,2.98,.58,1.42,1.01,2.91,1.53,4.35,.44,1.2,.87,2.42,1.4,3.58,.64,1.4,1.38,2.75,2.09,4.12,.07,.14,.26,.22,.4,.33l.2-.13c-.2-.4-.45-.78-.58-1.2-.94-2.86-1.62-5.73-.92-8.79,.22-.98,.46-1.9,1.09-2.68,.03-.04,.12-.03,.21-.06l.32,.63,.71,.05-.82,1.79,.17,1.05c-.26,.61-.44,1.25-.41,1.87,.05,1.01,.22,2.01,.36,3.01,.1,.68,.1,1.41,.36,2.03,.61,1.41,1.26,2.81,2.06,4.12,1.1,1.81,2.35,3.54,3.55,5.29,1.21,1.76,2.66,3.3,4.34,4.63,.8,.63,1.59,1.27,2.35,1.95,.73,.66,1.67,.71,2.53,1.01,1.24,.43,2.46,.88,3.7,1.3,.71,.24,1.41,.55,2.14,.67,1.58,.26,3.19,.38,4.77,.64,3.66,.6,7.01-.63,10.33-1.83,2.5-.9,4.67-2.49,6.89-3.93,.41-.27,.83-.54,1.2-.85,1.22-1.04,2.48-2.04,3.61-3.18,1.07-1.09,2.06-2.28,2.96-3.52,1.3-1.8,2.22-3.81,3.04-5.86,.4-1,.82-1.99,1.12-3.02,.55-1.88,1.02-3.78,1.53-5.66,.27-1.01,.64-2,.82-3.02,.5-2.76,.37-5.55,.12-8.33-.15-1.73-.43-3.44-.69-5.16-.19-1.26-.36-2.53-.68-3.75-.24-.92-.49-1.92-1.39-2.52l-2.51,.96-.82-.22c-1.79,.46-3.58,.75-5.42,.55l-.05-.21-1.89,.83c-1.6,.45-3.09,.87-4.59,1.29-.91,.25-1.82,.5-2.73,.74-.57,.16-1.13,.64-1.72,.05l-.37,.61h-2.92l-.03-.2-.62,.43c-1.65-.14-3.28-.12-4.92-.15-.51,0-1.02-.19-1.53-.19-.92,0-1.48-.34-1.67-1.27-.25-1.19-.88-2.17-1.49-3.18-.9-1.5-1.77-3.03-2.65-4.54l.1-.06-.78-.49,.16-.44-1.51-.97,.19-.16-1.53-2.55-.13,.08-.09-.79-.83-.32-.13-.93-1.08-.44-.27-.5-2.41-1.47c-2.49,1.36-5,2.94-6.63,5.61l.11,1.36,2.04,.98h1.37c.53,.76,.91,1.58,1.53,2.13,.84,.75,1.86,1.32,2.81,1.93,.6,.38,1.22,.51,1.96,.32,.57-.15,1.24-.16,1.75,.38-2.32,.9-4.61,1.79-6.84,2.65l-.4,1.15c-1.11,1.11-2.79,.62-4.04,1.34l-.12,1.11c-1.66,.35-3.31,.71-4.95,1.06l-.23,.73-.91,.21-.53-.47-.35,.71c-1.25,.08-2.45,.15-3.66,.23l-.22,.95c-2.73,.37-3.88,2.51-5.08,4.75,.27,.06,.42,.14,.57,.13,1.59-.12,3.19-.22,4.78-.38,1.92-.18,3.83-.44,5.75-.58,.59-.04,1.2,.19,1.81,.26,1.12,.14,1.99-.27,2.64-1.14,3.94-3.38,8.31-5.77,13.72-6.17l-.36,.82,.08,.23c1.99-.61,3.99-1.07,6.11-.39l.11,.55,1.13,.45c1.09-.36,2.15-.38,3.16,.34,.32,.23,.81,.22,1.23,.3,.38,.08,.77,.14,1.15,.2l-.03,.75c1,.05,1.95,.04,2.89,.17,.93,.13,1.84,.4,2.73,.61l.41,2.39h.96l-.02,.12,1.44,.43,1.49,1.36,.6,.05-.17,.91c1.26,.83,2.53,1.66,3.8,2.5-.11,.76,.13,1.27,.62,1.75,.57,.56,1,1.26,1.48,1.91,.37,.5,.72,1.03,1.07,1.54l.19-.1,.22,.91,1.44,2.24c.69,.47,1.66,1.14,2.77,1.9l-.18,1.01c-3.55-.07-8.8,.84-9.47,1.66l.4,1.48-.5,.39Zm7.32-38.36c-1.71-1.73-3.35-3.54-5.58-4.68-.53,.34-.23,.6,.07,.9,.99,1,2.03,1.97,2.93,3.05,.75,.88,1.42,1.85,1.34,3.15-1.46-2.34-3.25-4.33-5.48-5.9l-.17,.15c.73,1.22,1.45,2.45,2.18,3.67-.6-.43-1.09-.9-1.52-1.42-.43-.53-.74-1.18-1.21-1.67-.49-.51-1.15-.86-1.66-1.36-1.08-1.06-1.06-1.08-1.53-1.13,.32,.49,.65,.93,.93,1.41,.64,1.11,1.28,2.22,1.87,3.34,.27,.5,.44,1.06,.17,1.79-1.3-2.54-2.72-4.84-4.61-6.83l-.97,.47c.3,.7,.59,1.32,.85,1.95,.43,1.06,.87,2.13,1.25,3.21,.13,.38,.34,.85-.13,1.26-.96-2.07-1.91-4.05-2.8-6.05-.42-.95-1.04-1.51-2.2-1.48,.44,1.27,.89,2.46,1.26,3.68,.37,1.21,.6,2.45,.41,3.78-.58-.12-.64-.55-.77-.95-.7-2.12-1.42-4.23-2.13-6.35-.13-.39-.28-.74-.88-.61,.06,1.35,.16,2.68,.16,4.02,0,1.34-.07,2.69-.84,3.87-.09-.1-.12-.2-.1-.28,.83-3.04,.43-6.06-.19-9.08-.1-.47-.32-.79-.88-.61-.05,.1-.12,.19-.13,.28-.03,.23-.03,.46-.04,.69-.07,2.73-.07,5.46-.62,8.15-.12,.57-.33,1.13-.49,1.69l-.19-.05c.52-3.9,.9-7.81,.51-11.81l-1.22-.61c-.17,2.39-.29,4.61-.5,6.82-.21,2.22-.36,4.46-1.24,6.56-.09-.13-.11-.26-.1-.38,.24-2.12,.49-4.23,.71-6.35,.09-.91,.13-1.83,.16-2.75,.05-1.51,.08-3.01,.1-4.52,0-.44-.17-.76-.88-.74-.51,3.18-1.02,6.39-1.56,9.79-.12-.28-.17-.33-.17-.39,.33-3.14,.59-6.28,1.03-9.4,.17-1.22-.44-1.96-1-2.82-.03-.05-.18-.01-.39-.02l-1.55,7.27-.3-.06c.12-1.06,.24-2.13,.38-3.18,.14-1.07,.36-2.14,.47-3.22,.11-1.03,.61-2.03,.33-3.13-1.65,2.53-2.63,5.32-3.52,8.17,.15-2.35,.72-4.6,1.18-6.94-1.44,1.32-2.66,2.83-4.23,3.94l-.16-.16c1.34-1.56,2.69-3.13,4.03-4.69l-.23-.28c-2.33,1.06-4.1,3.14-6.66,3.81,.4-.53,.91-.91,1.41-1.31,.51-.41,1.01-.85,1.67-1.41-.9-.23-1.45-.05-1.82,.26-.85-.21-1.6-.31-2.28-.58-.67-.27-1.27-.73-1.96-1.13l-1.16-1.99,.44-.83c-.58-.1-1.1-.37-1.47-.23-.88,.34-1.76,.53-2.69,.68-1.41,.22-2.79,.66-4.16,1.07-.63,.19-1.22,.5-1.83,.76,.51,1.1,1.41,1.93,2.41,2.46,.89,.48,1.77,1,2.59,1.58,1.93,1.36,3.77,2.84,5.75,4.11,1.06,.68,2.11,1.31,2.87,2.35l.87,.15-.08,.11,3.36,2.48,.1-.2,2.71,1.19v.15l-.66,.11v.2l.88,.1,.92,.66,1.29,1.64c.34,1.12,.56,1.97,.87,2.79,.27,.74,.22,1.41-.14,2.09-.21,.4-.41,.82-.59,1.16,.93,1.21,1.94,2.16,2,3.57l2.75,.7c2.7-.5,5.59,.33,8.26-.47,.11-.48,.08-.94,.29-1.13,1-.86,1.88-1.93,3.28-2.23,.73-.16,1.45-.4,2.19-.52,.44-.07,.92-.05,1.34,.06,.79,.21,1.55,.54,2.33,.76,.43,.12,.9,.21,1.35,.19,1.07-.05,2.14-.24,3.22-.26,1.67-.04,3.28-.4,5-.82-.05-.53-.04-1.02-.17-1.48-.2-.72-.54-1.4-.76-2.11-.49-1.58-.95-3.16-1.41-4.73l.34-.51-2.68-1.05-.62,.35-.76-.34c-.67,.76-1.37-.14-2.24,.05,1.32,1.5,3.05,2.54,3.53,4.55Zm24.61-16.28c-3.35-.48-6.69-.52-10.04-.1,.24,.17,.48,.23,.73,.25,2.26,.22,4.49,.6,6.63,1.36,.33,.12,.78,.11,.8,.72-.76-.19-1.44-.43-2.14-.52-2.44-.32-4.89-.6-7.33-.86-.59-.06-1.16,.1-1.62,.68,2.24,1.01,4.49,1.89,6.25,3.6-.86-.31-1.65-.74-2.47-1.11-1.29-.57-2.58-1.13-3.9-1.63-.51-.19-1.11-.44-1.7,.18,2.25,1.37,4.59,2.51,6.2,4.61-.14,.04-.24,.02-.31-.03-1.97-1.62-4.24-2.72-6.53-3.8-.51-.24-1.03-.4-1.6,.13,2.27,1.33,4.21,2.92,5.67,5.04-.12,.01-.21-.01-.27-.07-1.81-1.68-3.68-3.23-5.96-4.29-1.3-.6-2.43-.06-3.64,.03l3.09,2.11-.14,.24c-.26-.1-.52-.19-.78-.3-1.88-.85-3.76-1.72-5.65-2.56-.24-.11-.54-.08-.92-.12l.66,1.4-.15,.02v1.35c-.08,.02-.23,.1-.26,.07-1.08-1.14-2.14-2.3-3.24-3.48-.91,.84,.31,1.93-.15,2.87-.99-.01-.97-.88-1.41-1.58l-1.54,1.8c.21-1.73,.4-3.31,.62-5.1-.97,.65-1.22,1.6-1.72,2.35-.5,.76-.86,1.65-1.82,2.03,.37-.91,.89-1.72,1.27-2.59,.37-.85,1.19-1.5,1.21-2.52-.97,.78-1.86,1.6-2.72,2.46-.85,.84-1.68,1.7-2.73,2.28l-.14-.17c1.57-1.71,3.14-3.42,4.71-5.14-2.48,.5-4.51,1.81-6.48,3.27,.73-1.42,2.25-1.99,3.33-3.25-1.48-.03-2.85,.27-4.09-.46-.44-.26-.92-.46-1.4-.61-.4-.13-.84-.16-1.3-.24l-.34,1.05c.72,1.26,.56,2.6,.6,3.91,.03,1.11,.09,2.23,.26,3.33,.18,1.15,.93,1.79,2.11,2.02,1.38,.27,2.73,.73,4.11,.99,1.25,.24,2.55,.55,3.79,.42,1.88-.19,3.71-.77,5.58-1.12,.89-.17,1.82-.3,2.72-.26,2.3,.09,4.39,1.05,6.53,1.77,1.75,.59,3.5,1.08,5.33,1.33,1.37,.19,2.3,1.04,3.15,2.02,.28,.33,.42,.77,.71,1.31,.8-.91,1.53-1.58,2.06-2.38,.84-1.27,1.56-2.62,2.32-3.95,.28-.48,.53-.97,.78-1.47,.33-.67,.49-1.48,.97-2,1.51-1.63,3.07-3.22,4.73-4.7,1.76-1.56,3.65-2.97,5.49-4.44,.46-.37,.92-.73,1.51-1.2-.57-.6-.94-.99-1.31-1.37-.64-.66-1.47-.93-2.31-1.2-.59-.19-1.16-.44-1.72-.71-1-.49-2.06-.7-3.16-.78-1.27-.08-2.56-.1-3.79-.37-.61-.13-1.15-.36-1.92-.18-.37,.7-.66,1.57-1.22,2.21-.53,.6-.82,1.52-1.76,1.72l.25,.39-1.41,1.62-.67-.05-.02,.26c.43,.03,.86,.11,1.28,.08,1.57-.11,3.13-.28,4.7-.39,.23-.02,.48,.13,.72,.21l-.02,.26c-.2,.05-.39,.14-.59,.15-2.26,.11-4.39,.75-6.5,1.5-.16,.06-.27,.27-.59,.6,3.77-.09,7.28-.07,10.66,1.12Zm-170.31,26.28c-.21,1.08-.41,2.08-.6,3.08-.13,.66-.25,1.33-.4,1.99-.25,1.08-.57,2.15-.77,3.24-.13,.67-.12,1.36-.13,2.05-.02,1.89-.03,3.78,0,5.67,.01,1.26,.18,2.53,.12,3.79-.1,2.04,.01,4.02,.47,6.03,.42,1.86,.84,3.69,1.66,5.42,.08,.17,.01,.42,.01,.47,.77,1.12,1.49,2.13,2.16,3.17,1.29,2.01,2.6,4.01,4.7,5.31,.41,.26,.91,.4,1.28,.71,1.41,1.19,2.87,2.28,4.65,2.82,1.6,.49,3.22,.88,4.82,.74l1.03-.91-.12-.69c1.15-.7,1.56-1.73,1.48-3-.04-.58-.12-1.17-.08-1.75,.1-1.33-.4-2.39-1.18-3.42-.44-.57-.71-1.27-1.06-1.92-1.15-1.08-2.39-2.09-3.17-3.23-3.21-3.1-5.82-6.41-8.08-10.19v-.49c-.78-1.26-2.09-2.24-1.85-3.98-.93-.59-.55-1.61-.83-2.42-.27-.79-.57-1.57-.9-2.46,.11-1.08-.47-2.13-.84-3.46v-.5c-1.33-1.78-.88-3.9-1.66-5.8l-.69-.26Zm64.68-10.76c.09-.33,.18-.57,.21-.82,.39-3.88,.88-7.76,1.13-11.66,.19-2.91,.09-5.85,.09-8.77,0-4.76-.05-9.53-.07-14.29,0-1.17,0-2.34,0-3.55-.7,.02-.84,.36-.97,.85-.21,.81-.38,1.72-.86,2.36-.68,.9-1.09,1.76-.76,2.78l-2.1,.66,1.46,3.49c-.9-.71-.86-2.03-1.9-2.82-.36,2.22,.39,4.06,1.4,5.83l-.23,.08-1.09-2-1.94-.98-.72,.78,.61,2.74h-.68c-.2,1.47,.73,2.9-.14,4.47l-1-1.31-1.35,.25c.66,.74,.94,1.47,.57,2.18,.29,.42,.6,.72,.71,1.07,.22,.73,.43,1.4,1.05,1.94,.28,.25,.29,.81,.46,1.33h-.98l-.24,.77-1.49-.68,.08,1.08c-.4-.28-.37-1.08-1.16-.9l-.37,.74,.47,2.56,1.54,2.51,.77,.59-.17,.14,2.62,3.38-.17,.14-2.29-2.56-1.36-.15-.23,.63c.09,.16,.21,.29,.24,.44,.24,1.29,1.16,2.01,2.18,2.65,1.16,.74,2.29,1.51,3.47,2.22,1.03,.62,2.09,1.18,3.22,1.81Zm82.76-16.64c.21,.05,.5,.17,.78,.17,1.3,0,2.6-.08,3.89,0,1.69,.09,3.29-.43,4.75-1.04,1.44-.6,2.81-1.61,3.89-2.74,1.58-1.66,3.14-3.4,3.93-5.65,.15-.41,.28-.83,.48-1.22,1-1.96,2.24-3.74,3.96-5.14,.2-.16,.44-.27,.75-.45-1.43-1.31-3.26-1.82-3.62-3.41-1.82-1.44-3.4-2.87-5.9-2.86-.17,.19-.6,.5-.78,.92-.39,.89-.66,1.83-.93,2.62l-1.19,.96-2.05,.83,.7,.99c2.22-1.24,3.98-2.92,5.62-4.77-.11,.42-.31,.74-.52,1.05-1.36,1.96-3.1,3.55-4.92,5.05-.8,.66-1.07,1.5-1.39,2.52,.81-.05,1.34-.5,1.79-.9,1.2-1.06,2.32-2.21,3.47-3.33,.29-.28,.57-.58,.86-.87l.16,.18c-1.95,2.71-4,5.32-7.34,6.78-.11,.17-.3,.48-.49,.79-.2,.32-.41,.64-.64,1q.97,.16,3.25-1.38l.1,.7c.58-.33,1.14-.6,1.65-.94,.49-.33,.91-.75,1.37-1.12,.44-.36,.77-.91,1.14-.93-.49,.6-1.22,1.26-1.67,2.08-.98,1.81-2.59,2.91-4.24,3.94-1.05,.66-2.26,1.03-3.53,.99-1.11-.04-2.22-.17-3.58-.28l-3.86,1.37c.28,1.55,.55,3,.82,4.45l3.28-.32Zm-9.48-55.98c.33-.37,.52-.58,.7-.79,.21-.25,.42-.5,.72-.86-.52-2.3-2.39-3.96-3.19-6.22-.31-.45-.56-.98-.97-1.35-.96-.88-1.97-1.72-3.01-2.5-.62-.46-1.33-.79-2.05-1.21l-5.62,7.56,.07,.05-1.17,1.68,.33,.39v1.34c-1.42,2.04-2.81,4.04-4.2,6.03l-.17-.17-1.08,.85c.79,3.02-.7,5.22-2.52,6.31-.98,.58-1.83,1.17-2.28,2.22-.38,.88-.67,1.73-.3,2.74,.62,1.69,1.1,3.43,1.66,5.14,.12,.36,.36,.67,.54,1.01l.23-.07c.05-.21,.11-.41,.13-.62,.32-2.61,.64-5.23,1.9-7.6,.84-1.57,1.34-3.4,3.04-4.22l.39-1.6c.53-.48,1.01-.73,1.22-1.13,.64-1.25,1.18-2.55,1.76-3.83,.38-.85,.76-1.7,1.14-2.55l.26,.09c-.46,1.46-.92,2.92-1.4,4.41,.82-.12,1.44-.64,1.82-1.52,.31-.72,.57-1.47,.85-2.21,.67-1.76,1.34-3.51,2-5.27l.29,.09c-.59,2.22-1.19,4.44-1.81,6.79,.99-.14,1.62-.6,1.96-1.46,.81-2.07,1.6-4.14,2.4-6.21-.03,.9-.12,1.81-.3,2.69-.19,.91-.47,1.81-.77,2.93l1.52-.47c.93-2.55,1.57-5.1,1.82-7.75,.44,2.46-.37,4.83-.42,7.28,1.55-.76,1.11-2.5,1.8-3.71,.65,.52,.13,1.17,.37,1.8,.15,.08,.37,.28,.6,.28,.26,0,.52-.17,.7-.24l1.05,1.85Zm-8.19,43.88c-5.37,1.63-6.89,1.86-7.9,1.15,2.38-.52,4.73-.97,6.8-2.32-2.28,.26-4.54,.39-6.79-.04,.11-.15,.22-.22,.33-.24,1.46-.22,2.92-.4,4.38-.65,.44-.08,.86-.32,1.29-.49v-.33c-.31-.12-.6-.34-.91-.36-2.18-.12-4.3-.47-6.31-1.35-.17-.08-.32-.22-.48-.33,1.92,.34,3.79,.64,5.83,.36-3.4-2.75-6.72-5.32-9.73-8.5-.17,.29-.4,.51-.41,.73-.03,1.86-.15,3.74,.03,5.59,.19,2.02,.95,3.92,1.55,5.86,.69,2.2,1.91,4.05,3.23,5.87,.3,.42,.69,.8,1.1,1.11,1.09,.84,2.18,1.68,3.33,2.43,1.07,.69,2.16,1.38,3.33,1.87,1.65,.68,3.3,1.44,5.16,1.36,.09,0,.19,.06,.29,.07,1.18,.07,2.39,.38,3.54-.37-1.06-1.56-1.43-3.26-1.41-5.05,0-.56-.18-.99-.61-1.41-1.26,.95-2.2,2.29-3.76,2.8,.5-.72,1.05-1.39,1.65-2,.63-.63,1.14-1.31,1.49-2.13-.51-.45-.93-.37-1.4-.07-.99,.64-1.99,1.27-3.02,1.85-.86,.48-1.77,.87-2.66,1.29l-.13-.24c1.51-1.45,3.57-2.21,5.07-3.86l-.91-.68c-1.86,.67-3.53,1.28-5.21,1.89l-.09-.2c1.17-1.22,2.99-1.48,4.09-2.55l-.76-1.1Zm-74.44,41.07l2.65-2.54,.16,.17c-1.13,1.18-2.27,2.36-3.57,3.72l1.73,.33,.1-.64,3.21-1.3,4.71-6.04,.25,.12,.15-1.75c-.61-.07-1.06-.14-1.51-.16-1.5-.05-3-.12-4.5-.11-1.77,0-3.54,.04-5.31,.13-2.3,.12-4.59,.32-6.88,.45-1.5,.08-3.01,.04-4.51,.15-3.23,.23-6.46,.52-9.69,.79-.44,.04-.88,.06-1.32,.09l-.03,.19c1.11,.7,2.22,1.41,3.27,2.07,.46-.2,.78-.38,1.12-.49,1.31-.42,2.63-.83,3.94-1.23,.47-.14,.94-.26,1.42-.39l.08,.26-5.81,2.32,2.94,1.29c1.58-.64,3.27-1.32,4.95-2l.07,.18c-1.56,.79-3.12,1.58-4.72,2.39l.85,1.28c1.3-.08,2.63,.25,3.87-.62,1.39-.97,2.87-1.82,4.3-2.73,.69-.44,1.36-.9,2.04-1.35l.11,.17-6.4,4.6,.21,1.61c1.98-.2,3.71-.74,5.27-1.88,.85-.62,1.81-1.1,2.72-1.64l.1,.16-3.4,2.39v2.23c.4,0,.77,.08,1.09-.01,1.51-.42,2.82-1.22,3.92-2.33,.68-.69,1.35-1.39,2.18-2.25l1.02-1.24,.25,.21c-.96,1.14-1.93,2.29-3.03,3.6l1.99-.19Zm124.12-46.19c.41-.08,.73-.13,1.04-.2,1.3-.29,2.6-.61,3.91-.88,.76-.16,1.55-.21,2.31-.39,1.33-.32,2.65-.74,3.98-1.06,1.11-.27,2.26-.39,3.35-.7,2.11-.6,4.17-1.31,6.38-1.59,2.3-.29,4.57-.82,6.85-1.29,1.57-.32,3.14-.7,4.82-1.08,.46,.26,1.02,.36,1.66-.29l-9.34-1.49q-1.13,.28-1.9-.32c-1.09,1-2.2,2.01-3.3,3.03l-.21-.21c.94-1.44,2.61-2.28,3.43-3.9-1.14-.54-2.22-.22-3.04,.35-1.11,.78-2,1.87-2.99,2.82-.4,.38-.74,.86-1.48,1.03,.14-.25,.19-.37,.26-.46,.93-1.06,1.87-2.11,2.8-3.17,.32-.37,.54-.77-.15-1.15-1.18,.73-2.38,1.46-3.33,2.53-.74,.83-1.49,1.66-2.25,2.48-.18,.19-.42,.34-.63,.5l-.14-.16c.8-1.08,1.53-2.23,2.43-3.23,.89-.98,1.96-1.81,2.95-2.71l-.11-.19c-.86,.15-1.72,.36-2.59,.44-1.52,.13-2.73,.81-3.71,1.91-.96,1.07-1.88,2.19-2.82,3.28-.2,.23-.45,.43-.68,.64l-.18-.2c1.16-1.5,2.32-3,3.49-4.49,.37-.47,.6-.93,.22-1.61-.36,.07-.79,.05-1.1,.24-1.09,.67-2.13,1.4-3.19,2.12-.1,.07-.16,.21-.24,.31-.44,.55-.89,1.1-1.44,1.78-.01,.59-.38,1.18-1.18,1.51l.89-1.72-.91-1.11c-.33,.33-.7,.54-.85,.85-1.22,2.44-3.01,4.66-3,7.74Zm-113.45,56.93l.12,1.93-.51-.1c-.07,.14-.19,.28-.21,.43-.2,1.25-.37,2.5-.58,3.74-.28,1.68-.57,3.36-.87,5.03-.23,1.25-.54,2.49-.72,3.75-.31,2.16-.8,4.29-2.18,6.02-1.28,1.61-2.73,3.09-4.15,4.59-.69,.73-1.48,1.38-2.25,2.02-.96,.8-1.94,1.56-2.92,2.33-.41,.32-.82,.63-1.25,.91-1.39,.87-2.66,1.88-3.51,3.02l-2.34,1.23,1.04,.72c.83-.56,1.61-1.11,2.42-1.6,.88-.53,1.68-1.32,2.76-1.01,1.22-.83,2.3-1.69,3.49-2.35,1.31-.72,2.02-1.92,2.93-2.96,.61-.36,1.18-.77,1.74-1.2,.76-.58,1.52-1.16,2.27-1.74,.17-.15,.27-.43,.45-.65,.88-1.06,2-1.86,2.95-2.86,1.09-1.14,2-2.39,2.94-3.62,.79-1.04,1.42-2.2,2.15-3.28,.37-.54,.84-1,1.21-1.54,1.03-1.51,1.92-3.13,3.08-4.54,.95-1.16,2.03-2.19,2.62-3.61,.07-.17,.29-.26,.41-.41,1.19-1.5,3-2.48,3.73-4.38l-.34-.69,1.21-.45-.48-.42c.06-.52,.84-.8,.42-1.52l.92-.85c.09-.51,.16-1.08,.3-1.63,.14-.55,.36-1.08,.54-1.64-.56-.21-.64-.21-.98,.31-.66,.98-1.32,1.96-1.94,2.96-.52,.83-.95,1.73-1.51,2.53-1.26,1.82-2.56,3.61-3.87,5.39-1.41,1.92-2.84,3.82-4.28,5.72-1.13,1.47-2.25,2.96-3.48,4.35-.53,.6-1.01,1.38-1.96,1.53l-.31-1.48c.8-2.28,1.55-4.56,1.56-6.86,.17-1.71,.49-3.27,.43-4.82-.06-1.5,.38-3.07-.25-4.52l-.25-.02-.53,2.25Zm-9.24-23.82l-.11,.23c-1.81-.83-3.47-1.97-5.55-2.17-.69-.06-1.32-.77-2-1.19l-3.73-.32-.59,.55c1.83,1.31,3.96,1.53,5.67,2.63-1.67-.28-3.16-1.19-5-1.49l-.14,1.76c-1.07-.41-2.14-.82-3.24-1.25l-.37,.41-1.98,.11-.09,.3c.74,1.1,2.24,1.19,3.13,2.12-1.02-.3-1.99-.93-3-.99-1.03-.06-2.2,.02-3.27,.86,1.16,.71,2.22,1.36,3.31,2.03-1.48-.01-2.49-1.07-3.71-1.63-1.46,1.81-3.79,2.16-5.53,3.67l1.09,.26c.47-.23,.95-.32,1.43-.41,.73-.14,1.47-.28,2.2-.4,.35-.06,.71-.11,1.07-.14,1.1-.1,2.21-.19,3.32-.28,.68-.06,1.4-.25,2.05-.12,1.17,.23,2.27,0,3.41-.16,2.33-.33,4.66-.72,7-.92,2.15-.18,4.31-.15,6.47-.19,.71-.01,1.42,.12,2.12,.11,1.34-.02,2.69-.55,4.07,.26,.21-.75,.42-1.32-.2-1.81-1.83-.17-3.14-1.25-4.47-2.43l.33-.45-.52-.46-.72,.39c-.39-.26-.74-.64-1.17-.74-1.09-.27-1.89-1.01-2.75-1.62-.89-.64-1.91-.61-2.87-.86-.23-.06-.53,.16-.9,.29l.66,1.62c1.7,.91,3.15,1.69,4.6,2.47Zm59.96-42.85l-.12,.14c.07,.16,.11,.37,.23,.48,.93,.91,1.87,1.83,2.83,2.7,1.14,1.03,2.28,2.08,3.49,3.03,1.45,1.14,2.63,2.63,4.4,3.36,1.61,.66,3.21,1.24,5.01,1.17,1.11-.05,2.23,.18,3.03,1.11,.56,.65,.94,1.38,1.2,2.21,.27,.86,.61,1.66,.5,2.61-.17,1.42-.49,2.86,.11,4.27,.06,.14,.05,.32,.05,.49,0,2.38,1.02,4.36,2.47,6.14,.76,.93,1.68,1.73,2.56,2.57,.21,.2,.51,.3,.85,.5,.07-.32,.15-.47,.14-.62-.06-.78-.14-1.55-.23-2.32-.09-.81-.19-1.62-.32-2.43-.13-.85-.28-1.7-.43-2.55-.09-.54-.17-1.08-.3-1.62-.17-.71-.58-1.41-.55-2.1,.06-1.4-.55-2.62-.77-3.94-.06-.34-.3-.64-.46-.96-.31-.61-.63-1.23-.94-1.84l.14-.1,.59,.35,.1-.23-1.44-.62-.34-.84c-.41-.24-.77-.58-1.13-.93-1.37-1.31-2.75-2.59-4.54-3.35-.91-.39-1.82-.73-2.77-1.02-2.28-.7-4.51-1.56-6.76-2.36-.65-.23-1.31-.44-1.92-.76-1.09-.58-2.13-1.24-3.21-1.85-.47-.26-.96-.48-1.45-.72Zm-40.07,58.84c-.31-.14-.64-.26-.93-.44-.69-.43-1.39-.85-2.03-1.34-.93-.71-1.92-1.39-2.69-2.26-.72-.81-1.19-1.84-1.77-2.78-.22-.37-.45-.7-.94-.71-.06,.13-.15,.21-.14,.3,.04,1.28,.08,2.55,.14,3.83,.07,1.37,.21,2.73,.21,4.1,0,1.66-.29,3.32-.1,4.99,.06,.57-.04,1.19-.19,1.75-.6,2.22-.45,4.49-.56,6.65,.89,1.07,1.72,2.06,2.59,3.11l1.97-2.63-2.87-4.73,.11-.07,3.18,3.87c1-.33,1.04-1.49,1.64-2.01-1.48-2.71-2.91-5.34-4.3-7.9,.64-.93,1.2-.95,1.66-.2,.13,.22,.21,.48,.33,.71,1.03,1.92,2.07,3.84,3.17,5.86,.94-.64,1.02-1.71,1.63-2.15-.28-.74-.46-1.35-.72-1.91-.4-.87-.86-1.71-1.35-2.69,1.15,0,1.04,1.01,1.48,1.47,.48,.49,.79,1.15,1.32,1.94,1.8-2.16,2.74-4.61,4.47-6.64l-1.34-.55-.83,.42,.3,.85-.62,.38c-.83-.58-2.12-.11-2.79-1.23Zm59.88-81.96l.19,.09c-.39,1.41-.83,2.8-1.14,4.23-.32,1.43-1.08,2.74-1.08,4.27l1.63-2.21,.7,.82c1.39-.97,1.87-2.84,3.59-3.22l.46-1.26-.91-1.32,.04-.79-.14,.05-.54-1.14-1.24-1.43-.16-1.12-.17,.08-1.21-2.44-.93-.17c-.51,.6-.99,1.24-1.55,1.8-.41,.41-1.1,.61-1.36,1.07-.67,1.22-2.09,1.36-2.98,2.24-.49,.48-1.3,.62-1.85,1.06-1.7,1.35-3.29,2.81-3.63,5.12-.06,.41,.08,.85,.01,1.26-.28,1.63,.76,2.57,1.94,3.76l.73-6.82,.27,.02c0,1.21-.09,2.42,.03,3.62,.12,1.17-.13,2.42,.56,3.54,1.03-2.67,1.31-5.51,2.25-8.17,.16,2.43-.69,4.79-.64,7.33l1.15-.18c.89-3.5,1.86-6.93,3.51-10.14-.91,3.15-1.71,6.32-2.14,9.57,.76,.2,.9-.31,1.07-.71,.85-2.06,1.67-4.13,2.51-6.19,.35-.87,.72-1.73,1.08-2.6Zm12.29-3.58c.27,1.7,.02,3.36-.34,4.98,.71,.3,.88,.24,1.07-.43,.18-.64,.31-1.3,.46-1.95l.18,.03-.26,3.81c1.21,.37,2.34,.36,3.47-.21,.04-.18,.09-.33,.1-.49,.02-1.2,.02-2.39,.03-3.59,0-.16-.04-.32-.09-.47-.08-.3-.17-.6-.28-.89-.31-.77-.63-1.54-.95-2.3l-.15,.06,.06-.46-.77-1.21-.62-.13-.1-.71c-1.24-.36-1.29-1.58-1.89-2.48l-.84-.37-.5,.59-1.04,.08c-.85,.42-1.73,.73-2.62,.99-1.03,.3-2.13,.58-2.86,1.36-.84,.9-1.46,2-2.23,3.09,.38,1.34,1.29,2.44,1.89,3.68,.07,.14,.36,.16,.59,.26l.44-3.18c.82,.98,.26,2.12,.8,3.09l1.02-.14,.83-5.52c.53,1.81,.02,3.68,.14,5.57l1.26,.26c.74-2.56,.62-5.09,.77-7.59,.53,2.71,.24,5.45,.21,8.26l.93,.39c.78-1.44,1.24-2.83,1.3-4.37Zm-13.42,26.98c-.18-.59-.52-.65-.88-.43-.55,.34-1.11,.7-1.57,1.15-.81,.78-1.54,1.63-2.31,2.45l-.17-.16c1.28-1.58,2.13-3.5,3.82-4.78,.19-.14,.23-.48,.4-.9-2.39,.25-3.52,2.15-5.15,3.18l-.17-.22c1.33-1.51,2.66-3.02,4.04-4.57-.1-.38-.43-.43-.81-.24-.61,.32-1.19,.69-1.78,1.04-.27,.16-.53,.33-.8,.5l-.14-.21c.93-1,1.85-2.01,2.75-2.98l.36-1.62c-.42-.69,.28-1.76-.6-2.63-.91,.44-1.87,.74-2.64,1.3-1.24,.9-2.35,1.98-3.46,2.94-.21,.71-.58,1.37-.56,2.01,.06,1.54-.28,3.01-.61,4.48-.13,.6-.26,1.2-.39,1.83,1.05,.46,2.01,.96,3.03,1.3,1.21,.41,2.46,.7,3.7,.99,2.12,.51,4,1.39,5.4,3.15,.26,.32,.73,.48,1.1,.72l.18-.16c-.38-2.21-1.23-4.25-2.25-6.37-.46,.2-.89,.3-1.21,.54-.34,.26-.56,.67-.98,1.17v-1.29l1.69-2.21Zm-16.23-.5c.37-3.4,.7-6.49,1.03-9.58,.05,1.59,.01,3.16,.06,4.73,.05,1.52-.35,3.06,.06,4.56l.3,.02,.76-5.14,.19,.03v6.79c.84,0,1.33,.96,2.37,.4,.43-3.81,.87-7.71,1.26-11.17-.8-1.74-1.52-3.03-1.98-4.41-.27-.83-.14-1.8-.17-2.71-.02-.38,0-.76,0-1.33-.38,.21-.68,.29-.84,.48-1.06,1.34-2.15,2.67-3.1,4.09-.63,.94-1.32,1.96-1.54,3.04-.58,2.83-1.52,5.63-1.2,8.78l2.8,1.41Zm-49.7,98.32l-2.38,.82c.69-.6,1.55-.97,1.41-1.99-1.38-.24-4.9,1.75-5.84,3.32,.6,.12,1.17,.2,1.74,.35,1.46,.37,2.93,.71,4.37,1.16,.83,.26,1.58,.79,2.42,1.04,1.75,.52,3.52,.93,5.22,1.37,3.35-1.42,6.62-2.81,9.89-4.2l-.02-.23-2.48-.33-.42-1.16c-2.7,.71-5.09,2.05-7.69,2.87l6.46-3.17c-1.6-.99-3.07-.52-4.55-.11l-.72-.38c-1.37,.66-2.69,1.29-4.01,1.93l-.09-.18c1.22-.71,2.44-1.4,3.65-2.12,.41-.24,.86-.51,.65-1.18-1.73-.14-3.42,.03-5.02,.61-.97,.35-2.14,.52-2.59,1.58Zm79.69-89.53l.06-.09c-.55-.19-1.13-.33-1.66-.57-1.47-.68-2.87-.24-4.08,.5-1.29,.78-2.5,1.78-2.95,3.48l.35,.69c1.53-.23,2.2-1.71,3.64-2.38-.66,1.56-1.9,2.37-2.98,3.46l.38,.75c2.43-1.02,3.88-3.12,5.92-4.46-1.52,2.15-3.12,4.23-5.73,5.45l.34,1.22c2.26-1.02,3.99-2.51,5.88-3.76-.62,1.16-1.57,2.01-2.57,2.77-1.04,.79-2.16,1.46-3.26,2.19-.05,1.28,.36,2.41,1.03,3.53,2.72-.95,4.76-2.72,6.67-4.62,1.65-1.79,3.15-3.68,3.46-6.24-.12-.07-.22-.17-.34-.2-.99-.33-2-.62-2.98-.99-.43-.16-.79-.47-1.19-.72Zm-49.26-47.29c.17,.19,.28,.35,.42,.47,.56,.44,1.2,.8,1.68,1.31,1.09,1.16,2.12,2.39,3.15,3.61,.52,.62,1.03,1.25,1.48,1.93,.48,.72,.82,1.54,1.33,2.25,1.09,1.53,2.1,3.09,2.37,5.04l1.5,.64c.66-.79,1.23-1.44,1.77-2.11,.42-.52,.72-1.07,.49-1.81-.36-1.17-.56-2.39-.96-3.54-.61-1.76-1.32-3.49-2.02-5.22-.22-.55-.57-1.05-.82-1.49-2.25,.22-4.21-.47-6.22-.79-1.28-.2-2.58-.32-3.87-.47-.05,0-.11,.07-.28,.18Zm-11.44,146.64l-.03-.17c1.75-.4,3.5-.79,5.49-1.24l-1.13-1.24c-.57-.05-1.1-.15-1.61-.12-.52,.04-1.02,.23-1.53,.33-.47,.09-.95,.14-1.43,.21l-.02-.18,2.91-.79-.75-1.9-1.55-.3-1.06-.88-.21-1c-1.3-.26-9.27,2.6-10.44,3.75,.26,.1,.49,.21,.73,.29,2.17,.73,4.36,1.4,6.52,2.19,.98,.36,1.84,1.06,2.83,1.35,.86,.25,1.61,.65,2.4,1.03,.41,.2,.81,.46,1.24,.59,.38,.11,.84,.19,1.21,.09,1.03-.28,2.04-.66,3.07-1.01,.23-.94-.67-1.1-1.09-1.78-1.83,.25-3.69,.51-5.56,.76Zm51.32-97.14c2.05-2.96,3.52-5.87,2.38-9.44l.52-.33c-.2-.23-.39-.38-.47-.57-.8-1.8-1.48-3.66-2.92-5.11-.44-.44-1.09-.91-.84-1.72-.9-.63-1.33-1.51-1.63-2.49-.25-.32-.49-.66-.62-1.03-.22-.65-.36-1.33-.57-1.98-.06-.2-.26-.36-.51-.68-.29,.72-.47,1.24-.71,1.74-.65,1.38-.54,2.73,.12,4.07,.13,.26,.25,.54,.37,.81,.65,1.47,1.33,2.88,2.78,3.81,.92,.59,1.87,1.29,1.8,2.49l-1.59,2.86c.35,1.25,.66,2.52,1.05,3.76,.22,.7,.46,1.37-.01,2.06l.86,1.77Zm-107.69,99.52c1.27-.51,8.84-4.12,9.51-4.93l-.04-.73,.95,.28,.06-.19-1.69-2.38-.57,.06-.88,1.28c-.47,.06-.85,.22-1.18,.44-.57,.38-1.07,.85-1.66,1.18-1.43,.8-2.88,1.54-4.34,2.28-.9,.46-1.8,.9-2.73,1.31-1.11,.48-2.23,.91-3.35,1.37-.85,.35-1.7,.7-2.55,1.04-1.51,.61-3.03,1.21-4.55,1.83-1.21,.5-2.42,1.01-3.63,1.52l.13,.34c2.08-.68,4.15-1.36,6.24-2.04l.22,.45c.5-.27,.93-.5,1.36-.73,.44-.23,.86-.54,1.47-.24-1.5,.79-2.92,1.52-4.45,2.33,.73,.12,1.31,.22,1.9-.14,.45-.27,.93-.5,1.42-.68,2.2-.82,4.39-1.63,6.6-2.41,.73-.26,1.41-.54,1.76-1.23Zm113.71-111.73c-.16-.4-.21-.74-.39-.98-.99-1.29-1.34-2.84-1.85-4.32-.13-.37-.01-.83,.04-1.25,.07-.53,.19-1.06,.29-1.58-2.28-.99-5.05-.29-5.43,1.01l1.4,2.22c.2-.22,.28-.31,.36-.4,.09-.11,.18-.22,.28-.33l.23-.03c-.46,1.49,.1,2.5,1.29,3.32l.65-.97,.15,.07-.52,2.26c.88,.81,.53,2.23,1.47,3.4l.88-1.99c.14,.27,.15,.51,.08,.73-.29,.91-.6,1.81-.9,2.71-.26,.75-.35,1.5,.12,2.41l1.39-1.94c-.24,1.23-.96,2.29-1.06,3.53l3.46-.73c1.15-1.4,1.04-3.14,1.21-5.02-1.61,.05-1.76-1.86-3.15-2.13Zm5.76,2.49c-1.45,.54-1.55,1.78-1.95,2.85,1.13-.53,1.54-1.78,2.55-2.42-.81,1.5-1.47,3.1-3.1,4.03l.13,.22,2.57,.27,.02-.16,.73,.35c1.01-.52,.63-1.45,.72-2.18,.25-.43,.6-.8,.68-1.22,.34-1.77,.4-3.56,.04-5.34-.05-.25-.19-.48-.3-.71-.49-.98-.98-1.96-1.52-3.04-1.81-1.31-3.49-3.11-6.07-3.14-.65,1.47-.35,3.19,.72,4.18l3.19-1.44,.07,1.53c.69,2,1.31,4.02,1.5,6.22Zm-139.15,21.68c-.14-.87-.35-1.77-.42-2.68-.06-.87,.01-1.74,.03-2.61h.3l.52,6.89,.59-.05c.13-.37,.32-.68,.32-.99,0-.97-.09-1.94-.14-2.73l.52,1.34c.7-.37,.77-.89,.75-1.42-.02-.53-.07-1.06-.11-1.59h.14l.48,1.25,.29-.07c.13-1.2-.25-2.39-.3-3.58-.05-1.22-.01-2.43-.01-3.71-.22,0-.41-.05-.45,0-2.19,2.72-4.37,5.46-6.56,8.2l.46,.6c-.06,.81-.13,1.51-.16,2.22-.01,.35,.08,.7,.12,1.05,.09,.84,.16,1.69,.26,2.53,.05,.39,.23,.69,.85,.46-.4-1.69-.28-3.38-.05-5.07h.21l.47,2.38-.61,.41,.66,.22c.49,.5-.05,1.27,.89,1.63,.05-1.68-.25-3.24-.27-4.98,.31,.52,.59,.86,1.19,.29Zm5.76,61.79l.17-.17c-.6-.88-1.21-1.77-1.81-2.65-.35-.51-.67-1.04-1.06-1.52-.61-.74-1.35-1.39-1.9-2.17-.9-1.27-1.71-2.61-2.52-3.94-1-1.64-1.96-3.3-2.94-4.95-1.26-2.13-2.58-4.23-3.53-6.52-.13-.3-.4-.54-.6-.81l-.27,.09c0,.23-.05,.46,0,.68,.23,.87,.5,1.74,.75,2.61,.28,.99,.47,2.02,.85,2.98,.56,1.41,.93,2.9,1.95,4.11,.38,.46,.48,1.14,.81,1.65,1.47,2.31,3.2,4.43,5.02,6.48,1.23,1.39,2.56,2.71,3.85,4.05,.1,.1,.3,.11,.46,.16l.13-.16-2.11-2.76,.18-.13,2.57,2.97Zm101.77-111.47l-.08-.16c.08-.18,.14-.38,.25-.55,.8-1.27,1.63-2.52,2.42-3.8,.12-.2,.12-.48,.23-.91-2.27,1.09-3.7,2.81-5.23,4.03-.33,.7,.41,1.3-.35,1.75l-.7-.74,.35,.46-1.72,1.28c-2.42,2.28-3.2,5.17-2.6,8.61,.31-.23,.68-.35,.81-.61,.49-.97,1.28-1.46,2.21-1.62,2.25-1.68,2.47-3.82,1.69-6.17l2.75-1.57Zm35.01,32.64c1.32-.09,2.41-.26,3.37-1.03,.68-.55,.73-1.3,.94-2,.37-1.23,.51-2.51,.18-3.76-.5-1.87-.94-3.74-.86-5.7,.01-.31-.04-.63-.06-.91-.73-.2-4.11,.52-4.85,1.03l1.18,1.72c.05,.72,.17,1.49,.68,2.26l.66-.87v4.83c.91-.57,1.01-1.41,1.54-2.18-.07,.48-.05,.82-.18,1.09-.52,1.09-1.08,2.16-1.62,3.24-.35,.7-.97,1.29-.97,2.28Zm27.43,41.62c.24-1.79-.05-3.35-1.36-4.63l.2-.09,1.03,.76c-.07-.67-.09-1.17-.19-1.67-.2-1.04-.35-2.09-1.05-2.96-.28-.35-.53-.64-1.09-.49,.24,1.19-.29,2.48,.94,3.54-.31,0-.42,0-.54,0-.12,0-.25-.03-.39-.04-.32,1.16,.43,1.97,.79,2.86-.85,.94-.3,2.01-.39,2.83l1.09,1.77-.15,.09-.75-.57c-.05,.98-.06,1.9,.5,2.57-.24,.36-.57,.63-.58,.91-.02,.87,.06,1.75,.16,2.62,.05,.42,.26,.83,.41,1.29l-.91-1.08c-.57,1.7,.57,3.07,.42,4.84l-.67-2.03-.24,.04c-.08,.51-.23,1.02-.21,1.53,.02,.51,.23,1.02,.33,1.53,.09,.46,.14,.94,.22,1.55-.49-.46,.01-1.28-.82-1.33-.61,1.42,.3,2.38,1.07,3.59,.86-1.21,.63-2.5,.66-3.79l.43-.53c.08-1.19,.16-2.33,.24-3.47-.02,0,.13,.02,.31,.06,.09-.71-.33-1.61,.71-1.96l-.48-.21-.38-1.76,.19,.05,.53-1.47-.46-1.08h.22l.35-2.05-.8-.85,.63-.38Zm-100.3,24.45c.15,.16,.23,.22,.28,.3,.92,1.4,1.82,2.8,2.75,4.19,.78,1.17,1.56,2.35,2.38,3.49,.89,1.24,1.83,2.46,2.77,3.67,.08,.11,.3,.11,.7,.24-.31-.55-.49-.89-.68-1.21-1.01-1.68-2.12-3.31-3-5.05-.71-1.42-1.07-3.01-1.74-4.46-.64-1.37-1.24-2.71-1.07-4.42-1.1,.45-2.19,.51-2.99,1.39-1.04,1.15-2.16,2.24-3.23,3.36-.03,.03,0,.12,0,.09l2.89,2.75,2.22-.68c-.45-.76-.87-1.46-1.28-2.16-.4-.68-1.13-1.13-1.46-1.85l.19-.15,.67,.63,.61-.12Zm-82.25-21.08c0-.15-.05-.53,0-.89,.2-1.33,.33-2.68,.69-3.96,.35-1.25,.79-2.53,2.05-3.51l-1.9-.68c-.66,1.67-1.28,3.15-1.83,4.67-.42,1.16-.75,2.35-1.1,3.53-.37,1.27-.75,2.53-1.07,3.81-.24,.96-.37,1.94-.55,2.91l.1,.03,.55-.8,.23,.07c.16,.99-.32,1.93-.32,2.91,0,.96-.59,1.92-.03,2.95l.92-.72c-.25-1.01-.14-1.97,.54-2.82,.06-.07,.07-.18,.09-.27,.41-1.87,.96-3.7,1.08-5.63,.03-.48,.31-.94,.55-1.6Zm.98,38.34l-.25,.22c.76,1.28,1.44,2.62,2.31,3.82,.86,1.19,1.9,2.25,2.98,3.5-1.78-.75-2.77-2.14-4.01-3.44l-.85,.31c.88,.79,1.66,1.37,2.3,2.08,1.91,2.09,4.26,3.61,6.68,4.96,2.58,1.44,5.45,1.25,8.28,.86,.14-.02,.26-.21,.6-.49-1.41-.36-2.66-.31-3.85-.57-1.24-.28-2.45-.69-3.75-1.07-.09-.11-.19-.34-.37-.46-1.04-.67-2.12-1.29-3.14-1.99-.82-.56-1.56-1.24-2.38-1.81-1-.69-1.52-1.75-2.25-2.65-.58-.72-1.01-1.48-1.42-2.29-.19-.37-.56-.65-.85-.97Zm117.46-119.11c1.21-1.57,3.26-2.2,4.4-4.16-2.1-.8-4.03-1.52-5.95-2.25-.69-.26-1.44-.36-1.98-1-.27-.31-.77-.61-1.31-.34,1.59,2.55,3.17,5.08,4.83,7.75Zm-83.83,29.53l.25,.13c.12-.24,.32-.47,.36-.72,.2-1.52,.02-3.01-.34-4.49-.12-.51-.18-1.03-.23-1.55-.1-1.1-.16-2.21-.27-3.31-.02-.21-.19-.4-.38-.76-1,1.31-1.91,2.42-2.73,3.59-.24,.34-.34,.84-.36,1.27-.04,1.08,0,2.16,0,3.24,0,.8,.19,1.54,.51,2.24l.2-.04v-2.93h.21c.24,.94,.17,1.99,.81,2.85,.53-1.91-.34-3.79-.05-5.85,.15,.88,.26,1.59,.39,2.3,.12,.68,.27,1.35,.4,2.03l.32-.04c.24-1.4-.23-2.81,.06-4.22l.83,6.28Zm.07-10.6c.3,1.61,.62,3.37,.94,5.13,.06,.32,.1,.65,.15,.97l.28-.02v-4.55c.39,1.9,.39,3.83,.87,5.69l.3-.02v-5.19l.16-.02,.5,3.04,.25-.02c.06-.25,.16-.49,.16-.74,0-1.62,.2-3.23-.13-4.85-.17-.81-.03-1.69-.01-2.53,.02-.62,.08-1.24,.12-1.86l-.29-.09c-1.29,1.48-2.74,2.85-3.3,5.04Zm60.41,105.29c-.71-.45-1.32-.87-1.95-1.23-1.45-.83-2.95-1.59-4.37-2.46-1.39-.86-2.69-1.87-4.07-2.74-2.35-1.5-4.59-3.14-6.64-5.04-.45-.41-.94-.78-1.32-1.1l-2.41,.92c3.81,3.02,19.43,11.84,20.76,11.66Zm-5.97-7.38c-2.62-2.83-5.63-5.28-7.96-8.52l-3.09,2.55c1.21,.92,2.39,1.86,3.61,2.74,2.18,1.57,4.37,3.11,6.58,4.65,.25,.17,.59,.21,.89,.32l.12-.26c-.82-.57-1.64-1.16-2.47-1.72-1.04-.69-2.15-1.28-3.12-2.05-.92-.73-1.71-1.61-2.51-2.48-.43-.47-.75-1.05-1.11-1.59l.25-.22c2.64,2.61,5.61,4.75,8.83,6.59Zm-47.63-95.96l.24,.08c.07-.24,.22-.49,.21-.72-.03-.75-.15-1.5-.18-2.25-.04-.81,0-1.63-.04-2.44-.05-.96-.18-1.92-.22-2.89-.04-.86,0-1.72,0-2.58l-.33-.16c-.97,.75-1.46,1.94-2.29,2.7-.04,.69,.02,1.3-.11,1.86-.3,1.24-.29,2.47-.1,3.71,.15,1,.31,2,.5,2.99,.07,.36,.23,.7,.36,1.05l.22-.07c.35-1.89-.32-3.82,.11-5.71,.12,.69,.08,1.39,.23,2.05,.15,.64-.19,1.43,.62,2.06v-4.7c.74,1.62,.29,3.4,.82,5.04Zm53.39,98.56l.21-.21c-.29-.39-.53-.83-.89-1.15-1.07-.96-2.15-1.9-3.27-2.81-2.25-1.83-3.82-4.19-5.3-6.64-.52-.86-1.17-1.65-1.77-2.49-1.02,.17-1.39,.94-1.9,1.6,.41,.33,.77,.56,1.05,.86,.86,.93,1.64,1.95,2.55,2.84,1.52,1.48,3.12,2.88,4.68,4.32,.38,.35,.69,.79,1.1,1.1,.7,.54,1.45,1.01,2.16,1.52,.47,.34,.92,.7,1.38,1.05Zm-68.9-87.3l.68,4.32,.31-.02c.35-.85,.05-1.75,.06-2.63,0-.95,.1-1.89,.12-2.84,.02-.89,.09-1.79-.37-2.76-1.45,1.14-2.42,2.49-3.18,3.68-.27,1.88,.38,3.33,.84,4.83l.3-.03,.19-4.12c.36,1.72,.12,3.49,.85,5.15,.43-1.81-.01-3.65,.2-5.58Zm-23.58,33.39c-.08-.43-.13-.56-.13-.68,.02-.93-.11-1.9,.12-2.77,.26-1.01,1.18-1.61,2.03-2.18,.28-.19,.55-.41,.95-.72l-1.76-2.04c-1.48,.32-2,1.7-2.99,2.33-.1,.38-.14,.73-.28,1.03-.56,1.13-.08,3.74,1.15,4.69,.19,.15,.47,.18,.91,.34Zm119.78-75.22l-2.78-.91-.21,.64-.52-.12,.21-.59-9.83-2.42c.15,.8,.74,.98,1.4,1.06l-.06,.62,.74,.64,2.42-.35c1.43,.6,2.42,2.08,4.14,1.19l-.43,.53c1.38,.63,2.73,.43,4.09,.16l.02,.2-1.45,.48c1.41,.88,3.39,.83,4.26-.08l-2.05-.67,.03-.39Zm-91.97,33.57c-.24,.19-.46,.32-.61,.5-.42,.5-.79,1.04-1.22,1.53-.7,.78-.93,1.69-.88,2.72,.03,.74-.03,1.49-.01,2.24,.01,.5,.09,.99,.14,1.48l.23,.03,.44-.54,.77,.6,.13-2.47c.14,.86-.1,1.61,.8,2.22l.19-2.52,.47,.78c.12-.07,.22-.11,.22-.14-.26-1.98-.55-3.97-.44-5.98,0-.11-.11-.22-.22-.44Zm40.76,89.56c.44,.33,.85,.71,1.33,.96,2.59,1.4,5.18,2.82,7.81,4.15,3.3,1.68,6.63,3.29,9.96,4.9,.61,.29,1.29,.44,1.93,.66,.02-.24,0-.32-.04-.34-2.36-1.21-4.66-2.56-7.1-3.58-2.48-1.03-4.72-2.43-6.91-3.91-1.73-1.16-3.39-2.44-5.32-3.29-.72-.32-1.05-.28-1.65,.44Zm-26.27-98.05c.83-.56,.6-1.23,.57-1.79-.08-1.24-.28-2.48-.36-3.72-.05-.81,.03-1.62,.04-2.43,0-.69,0-1.37,0-2.16-.29,.1-.54,.1-.63,.22-.75,.94-1.52,1.89-2.19,2.89-.22,.32-.18,.81-.26,1.22l.23-.03,1.23,4.69,.17-2.6,.73-.36,.47,4.07Zm1.87-2.68c.53-2.49,.05-5.08,.75-7.54,.48,1.16,.23,2.46,.71,3.61,.14-.53,.16-1.04,.14-1.55-.06-1.59-.14-3.18,.24-4.75,.08-.35-.08-.76-.13-1.18-1.57,.15-1.71,1.53-2.41,2.3-.85,.94-.43,2.23-.4,3.39,.58,.49,.55,1.15,.49,1.81-.13,1.35,.34,2.61,.61,3.92Zm-36.24,49.12c-.33,1.16-.56,2.29-.97,3.35-.63,1.65-1.29,2.44-2.14,2.59,1.77-1.67,2.11-3.75,2.55-5.91l-.63,.03c-1.48,4.48-1.96,5.4-2.89,5.61,0-.06-.01-.14,.02-.19,1.22-1.52,1.8-3.32,2.24-5.17,.09-.4,.18-.79-.51-.94-.08,.4-.17,.77-.24,1.14-.3,1.74-.98,3.33-2.01,4.76-.1,.14-.3,.21-.65,.43,.29-.77,1.17-1,.78-1.88-.78,.43-1.16,1.12-1.7,1.92,1.4,.27,2.61,.81,3.9,.58,1.61-1.76,2.7-3.68,2.9-6.08l-.66-.26Zm167.11-5.3c.28,.6,.56,1.01,.66,1.46,.2,.92,.31,1.87,.87,2.33,.16,1.22,.29,2.2,.42,3.19l1.27,1.75-.09,.1-.82-.33c.07,1.94,.93,3.31,1.91,3.1-.29-1.67-.57-3.34-.88-5.11l.18-.29-.57-.79,.25-.86-.21,.03-1.77-5.14c-.64,0-1.14-.01-1.23,.55Zm-1.45-32.34c-.08,.1-.16,.17-.19,.25-.7,1.78-.9,3.57-.16,5.4,.5,1.25,.96,2.51,1.51,3.98,.26-.32,.51-.51,.58-.75,.11-.37,.14-.78,.11-1.17-.11-1.48-.27-2.97-.4-4.36l-.73-.84-.22-2.36-.51-.15Zm-130.48,104c-.24,.96-1.49,1.28-.99,2.35,1.04-.08,1.61-.84,2.38-1.37-.31-1.96,1.12-3.39,1.59-5.23-2.2,.63-3.11,2.61-4.68,3.77-.52,.38-.86,1.02-1.39,1.66l1.12,.49,.38-.82,1.59-.85Zm-15.2,14.77l.04,.2,2.63,.81-.06,.29c-1.44,.57-2.8-.25-4.32-.4l-.67,.62c1.45,1.12,3.06,.54,4.53,.75,1.29,.18,2.66-.19,3.99-.35,.35-.04,.68-.25,1.03-.38v-.27c-1.98,.28-3.16-1.03-4.55-2.2l-2.61,.93Zm42.84-31.54c2.42-.22,4.23-1.35,5.84-2.97-1.66,.46-3.08,.05-4.26-1.05-1.02,.35-1.65,.93-1.99,1.86,.69,.46,1.93-.26,2.18,1.27h-3.13v.24l1.36,.66Zm42.94-39.05c-1.08-.36-1.81-1.3-3.14-1.43,.49,1.07,.87,1.95,1.6,2.65,.49,.47,.93,1.01,1.32,1.56,.62,.88,1.17,1.8,1.77,2.69,.06,.1,.2,.15,.32,.24l.54-.48-.41-2.04-.7-.66,.25-.67c-.79-.41-1.63-.69-1.55-1.87Zm62.96,21.05l-.24,.04c-.52,1.24-.5,2.51-.05,3.76l-.62,.52c-.28,1.07-.5,1.96-.73,2.84-.2,.77,.07,1.63,.65,2.01,.85-1.35,1.16-2.7,.83-3.79l.75-.3c.11-.36,.24-.67,.3-.99,.12-.7,.3-1.4-.09-2.09-.15-.27-.23-.58-.34-.88-.15-.37-.29-.75-.44-1.12Zm-26.59-54.4c.58,0,1.45,.14,2.26-.04,.84-.18,1.61-.66,2.5-1.05l.63-1.04c-1.59,.12-2.96,.26-4.33,.3-1.4,.05-2.81,.01-4.22,.01l-.02,.18,3.18,1.63Zm-2.48,102.17c-1.06,.85-2.12,1.7-3.26,2.61-1.21-.52-1.42,.99-2.19,1.33l-.69-.28-.03,.58c-.36,.2-.69,.36-.98,.55-.27,.18-.51,.41-.76,.62l-.11-.1,.66-.95c-1.37,.37-2.62,1.73-2.68,2.88l1.71-1.23c.9-.15,1.6-.75,2.41-1.11,.42-.19,.91-.22,1.36-.32,.09-.02,.18-.05,.27-.07l-.16-.56,1.18-.84h.59c.49-.37,.85-.72,1.28-.95,.87-.45,1.2-1.23,1.4-2.16Zm17.32-95.47l.21,.26,1.42-.67c1.23-.54,2.34-1.02,3.45-1.5l-.05-.23-1.37-.21-.02-.32,1.2-.34-.02-.04,2.49-1.1c-.85-.5-1.66-.15-2.04-.19-1.03,.51-1.77,.83-2.46,1.24-.5,.29-.98,.65-1.38,1.06-.43,.44-.76,.98-1.12,1.48-.12,.17-.19,.38-.29,.57Zm-68.38,97.62c-.47-.78-.79-1.48-1.28-2.05-.62-.71-1.37-1.31-2.04-1.93l-3.12,1.12c1.22,.51,2.23,.94,3.24,1.34,1.03,.41,1.76,1.46,3.2,1.51Zm-90.35-91.46l-.3-.13c-.17,.14-.37,.26-.51,.43-.88,1.05-1.76,2.11-2.62,3.19-.18,.22-.34,.51-.38,.78-.03,.22,.14,.46,.25,.75l.56-.26,.7,.49,.12-.86c.33,.63,.32,1.44,1.3,1.69-.1-.86-.22-1.62-.27-2.4-.07-1.03,0-2.02,.85-2.8,.2-.19,.21-.58,.31-.88Zm47.35-46.42c1.71,0,2.64-1.75,1.82-3.28l-1.8,.14-1.1,2.77-.32-.05-.17-1.11-.61-.12-.7,1.21,2.29,.58,.94-1.79,.13,.05-.5,1.6Zm95.16,63.69c-1.5-1.19-3.03-1.59-4.67-1.59-1.58,0-3.14,.16-4.58,.86l9.25,.73Zm-16.34,81.77l1.23-1.43c.54-.05,.98,.04,1.25-.13,.77-.49,1.48-1.06,2.18-1.64,.24-.2,.41-.49,.61-.73l-.16-.15c-.21,.07-.43,.13-.63,.21-1.14,.48-2.27,.97-3.41,1.45-.95,.4-1.8,.9-2.07,2.1l1.01,.32Zm-38.02-80.82c.64-.07,.59-.48,.52-.88-.17-.99-.37-1.98-.53-2.97-.07-.46-.09-.92-.14-1.43-1.23,.65-1.63,1.96-2.07,4.14h.85c.14-.61,0-1.28,.6-1.73,.54,.92,.05,2.08,.77,2.87Zm-19.26,34.28l-1.89,2.38c1.56,.38,2.91,.65,4.34-.13l-2.44-2.25Zm55.84-21.25c2.17-.39,4.22-1.16,6.39-1.74-1.14-1.04-4.98,0-6.39,1.74Zm16.7-53.75l-.18-2.52-.49-.86,.29-.65c-.96,.39-1.93,.47-2.42,1.36,.14,.89,.84,.13,1.31,.53l.43,1.89,1.06,.24Zm-83.08,80.03c.59-.17,1.97-1.36,2.33-1.97,.12-.2,.09-.48,.13-.67l-1.85-1.51c-.06,.85-.06,1.49-.15,2.11-.1,.66-.29,1.3-.45,2.04Zm-64.53-41.96l-1.51-1.38-1.12,2.05c.29,.72,.53,1.37,1.21,1.81l.45-2.02,.97-.45Zm2.17-1.47c.9-.61,2.49-4.26,2.3-5.17-.95,.56-2.19,3.3-2.3,5.17Zm85.68,89.51l-.04-.37-3.68-.16-1.32,.86c.9,.37,1.57-.54,2.07,.18l.06,.86h.23l.35-.73,2.33-.63Zm83.59-108.69c.35,1.5,1.34,2.23,2.72,2.56,.26-1.15-1.2-2.49-2.72-2.56Zm-161.58,16.31c-.94,1.5-2.14,2.7-2.72,4.42,1.4-.32,2.78-2.61,2.72-4.42Zm119.45,88.9l-.14-.66c1.29-.4,1.7-.76,1.81-1.59-2.34,.77-3.51,1.72-3.42,2.65l1.74-.4Zm-82.18-145.25c-.18-1.37,.34-2.7-.7-3.74-.52,1.23-.5,2.46-.16,3.74h.86Zm50.18,62.69c-.48-.33-.87-.36-1.24-.03-.47,.42-.92,.86-1.37,1.29,.27,.87,.9,.77,1.63,.68,.31-.6,.63-1.23,.99-1.94Zm-18.73,84.98c1,.57,2.3,.23,2.99,1.18,.35-.08,.64-.1,.88-.21,.28-.12,.52-.33,.77-.5l-.05-.21c-1.54,0-2.99-.98-4.6-.26Zm-38.51-138.47c.5-1.37,.26-4.12-.44-5.06-.39,.99-.1,4.31,.44,5.06Zm68.95,140.56v-.42c-1.44-.34-2.87,.18-4.3,.13-.28,0-.56,.31-.94,.54,.82,.34,.83,.34,1.9,.12,1.11-.12,2.22-.25,3.34-.37Zm60.83-111.72c.63,.97,1.42,1.4,2.39,1.55,.03,0,.07-.1,.13-.18l-.29-.63,.39-1.03c-.58-.45-.81-.05-1,.28h-1.62Zm-48.25,108.98l-1.99,.3-.78,.64c-1.3-.39-2.25-.08-2.35,.89l1.02-.43c1.15,.12,3.44-.57,4.09-1.39Zm1.77-.14l2.91-.67,1.03-1.25-.14-.18c-1.32,.57-2.78,.85-3.8,2.1Zm42.08-105.63c.74-.55,1.67,.46,2.63-.25l-1.59-1.12-.91,.56h-.8l-.06,.2,.74,.61Zm-73.19,95.91l.06-.25c-1.58-.55-3.17-1.1-4.75-1.66l-.1,.21c.89,.53,1.78,1.06,2.42,1.43l2.37,.26Zm4.4,11.94c-1.21-.63-2.78-.03-3.35,1.02,1.19-.19,2.32-.33,3.35-1.02Zm-47.53-152.06l.92-2.7c-.94,.24-1.79,1.55-1.51,2.38l.59,.33Zm-6.2,130.57c-.47-.4-.9-.75-1.3-1.13-.4-.37-.77-.8-1.6-.9,.97,1.02,1.77,1.86,2.69,2.83l.21-.8Zm35.71,19.41l-2.27-.51-1.19,.6,.09,.26,1.21-.13c.59,.3,1.28,.36,2.17-.22Zm-8.29-2.09v-.22c-.83-.4-1.7-.66-2.62-.68l-.08,.23,1.81,.99,.89-.33Zm-51.3-104.98l.25-.03-.44-2.76c-.55,1-.32,1.91,.19,2.79Zm-26.22,47.79c-.55,.82-.57,1.52-.24,2.25h.24v-2.25Zm7.52-31.81c.92-.06,1.29-.66,1.1-1.78l-1.1,1.78Zm64.08,31.06c.57-.57,.45-1.01,.19-1.52l-.68,.3,.49,1.22Zm68.73,10.92l.09-.26-2.35-.97-.1,.26,2.37,.98Zm-53.33,50.64l-.07,.31,1.14,.6,.14-.78-1.21-.12Zm-30.9-154.77c-.82-.09-1,.44-1.29,1.06,.76-.06,1.03-.48,1.29-1.06Zm54.18,155.8c-.52,.02-1.11-.2-1.61,.48,.71,.14,1.22,.08,1.61-.48Zm-109.71-65.56l-.29-.03c-.38,.44-.13,.89-.04,1.34h.21l.12-1.31Zm58.82-89.12l-.09,.35,1.09,.25q-.1-.57-1-.6Zm8.7-6.83l.12,.3,1.58-.64-.11-.28-1.59,.63Zm-23.61,29.14l-.63-.89-.21,.09,.11,1.16,.74-.36Zm96.26,23.26l-1.12-.62-.1,.17c.41,.17,.52,.82,1.23,.45Zm-86.94,91.61l.17-.26-1.11-.77-.2,.31,1.14,.71Zm77.51,15.04l.06,.29,1.44-.29-.06-.28-1.44,.29Zm-59.74-62.49l.29,.02,.11-.95-.35-.03-.05,.96Zm-69.58,11.33l.28-.04-.23-1.37-.21,.02c.04,.46-.31,.95,.16,1.39Zm.03-6.65l-.2-.02-.09,1.07,.29,.02v-1.08Zm5.08-21.32h-.26c-.04,.23-.11,.47-.09,.7,0,.06,.29,.09,.58,.18l-.23-.88Zm94.57,41.01l.29-.21-.54-.78-.24,.16,.5,.83Zm-62.74,4.71l-.19,.16,.53,.71,.25-.2-.58-.67Zm-9.85-82.53l-.37,.03,.13,.71,.24-.03v-.71Zm-20.11,31.4l.3-.09-.22-.75-.27,.08,.2,.76Zm172.16,31.76l-.35-.1-.13,.66,.21,.07,.27-.62Zm-61.56-98.82l.31-.12-.36-.89-.24,.1,.3,.91Zm-107.3,144.74l.02,.29,.73-.07-.02-.22h-.73Zm15.14-103.27h.32l-.08-.5-.24,.03v.47Zm40.47,103.68l.08-.27-.74-.15-.06,.24,.72,.18Z"
  />
  <path fill="#58b6d0" d="M223.1,385.35l-2.47,.45v-1.18l2-.58-.06,.65,.65,.41-.11,.25Z" />
  <path fill="#58b6d0"
    d="M276.88,350.62l.4,1.17-.87,1.16-.21-.11c.28-.69-.18-1.49,.31-2.15l.37-.06Z"
  />
  <path fill="#58b6d0"
    d="M265.57,364.45l-.43-.17,.34-1.63h.24c-.01,.21-.01,.41-.03,.62-.04,.4-.1,.81-.15,1.21l.03-.02Z"
  />
  <path fill="#58b6d0" d="M204.52,385.97l-.99,.12-.06-.23,.98-.25,.07,.36Z" />
  <path fill="#58b6d0" d="M262.69,365c.19,.67-.17,1.16-.46,1.67l-.19-.07,.68-1.58-.02-.02Z" />
  <path fill="#58b6d0" d="M208.93,385.75l.96,.12-.04,.27-.95-.16,.03-.23Z" />
  <path fill="#58b6d0" d="M211.14,248.13l.4,.34-1.15,1.51-.93-.71,1.71-1.12-.03-.02Z" />
  <path fill="#58b6d0"
    d="M211.67,271.22v.82l-.21,.02c0-.25,0-.5,0-.75,0-.02,.09-.04,.21-.08Z"
  />
  <path fill="#58b6d0" d="M219.09,330.09l-1.79-1.63,.16-.17,1.75,1.68-.13,.12Z" />
  <path fill="#58b6d0" d="M234.57,336.19l-1.47-.7,.2-.31,1.25,1.03,.02-.02Z" />
  <path fill="#58b6d0" d="M220.24,331.41l-.67-.76,.17-.15,.66,.76-.16,.14Z" />
  <path fill="#58b6d0" d="M231.99,320.25l-2.86,.85-.08-.27,2.86-.85,.08,.27Z" />
  <path fill="#58b6d0" d="M218.04,318.32l-1.43,.37-.04-.15,1.38-.5,.1,.29Z" />
  <path fill="#58b6d0" d="M225.11,318.96c-.27,.62-.86,.54-1.41,.52l1.43-.51h-.02Z" />
  <path fill="#58b6d0" d="M225.13,318.97l1.18-.34c-.33,.45-.74,.51-1.2,.32h.02Z" />
  <path fill="#58b6d0" d="M219.72,317.5l-1.11,.57c.28-.55,.63-.71,1.13-.54l-.02-.02Z" />
  <path fill="#58b6d0" d="M170.6,276.08l.43,.81-.11,.08-.58-.71,.26-.17Z" />
  <path fill="#58b6d0"
    d="M196.47,309.9c-.21-.01-.46,.03-.64-.05-.77-.38-1.52-.81-2.27-1.22l.12-.22,2.76,1.52,.02-.03Z"
  />
  <path fill="#58b6d0"
    d="M192,311.08c.31,.17,.62,.33,.92,.51,.07,.04,.11,.14,.09,.33l-1.14-.68,.13-.16Z"
  />
  <path fill="#58b6d0" d="M177.47,268.52l-.78,2.31-.26-.09,.8-2.31,.23,.08Z" />
  <path fill="#58b6d0" d="M182.57,284.28l-.7,1.31-.2-.12c.3-.39,.25-1.01,.92-1.16l-.03-.03Z" />
  <path fill="#58b6d0" d="M178.94,295.95l.75-.92,.19,.15-.76,.91-.18-.14Z" />
  <path fill="#58b6d0"
    d="M194.23,370.8l-2.13-1.58,.15-.19c.72,.52,1.56,.89,1.96,1.79l.02-.03Z"
  />
  <path fill="#58b6d0"
    d="M186.99,372.91l-1.85-1.23,.15-.2c.75,.25,1.15,.93,1.67,1.46l.03-.02Z"
  />
  <path fill="#58b6d0"
    d="M189.29,298.52c-.15,.16-.26,.37-.44,.48-1.1,.63-2.21,1.25-3.32,1.85-.22,.12-.47,.17-.75,.16,1.52-.82,2.79-2.06,4.53-2.47l-.02-.02Z"
  />
  <path fill="#58b6d0"
    d="M196.4,298.7c-.58,.91-1.65,.88-2.42,1.43l-.14-.28c.86-.38,1.72-.75,2.58-1.13l-.02-.02Z"
  />
  <path fill="#58b6d0"
    d="M198.65,301.55l-1.59,.91-.12-.22c.57-.24,.93-.89,1.73-.67l-.02-.02Z"
  />
  <path fill="#58b6d0"
    d="M300.96,274.95c-1.14,.09-1.75-.91-2.72-1.17l.12-.25,2.57,1.43,.02-.02Z"
  />
  <path fill="#58b6d0"
    d="M303.13,272.57c-.7,.13-1.28-.11-1.82-.49l.07-.21,1.73,.72,.02-.02Z"
  />
  <path fill="#58b6d0" d="M308.22,270.7l-1.25-.5,.06-.19,1.27,.48-.08,.21Z" />
  <path fill="#58b6d0" d="M309.97,271.46l-1-.31q.5-.31,1,.31Z" />
  <path fill="#58b6d0" d="M152.27,303.37l-.94-.41,.09-.2,.93,.38-.08,.23Z" />
  <path fill="#58b6d0"
    d="M196.32,360.8c-1.57,.47-3.15,.95-4.72,1.42l-.07-.21c1.49-.75,3.1-1.12,4.67-1.59l.12,.38Z"
  />
  <path fill="#58b6d0" d="M191,362.51l-2.12,.66-.08-.26,2.16-.68,.03,.27Z" />
  <path fill="#58b6d0" d="M130.62,266.96l-.6-.27,.29-.96h.24l.05,1.26,.02-.03Z" />
  <path fill="#58b6d0" d="M177.22,218.59l.58-.49,.21,.23-.54,.53-.25-.26Z" />
  <path fill="#58b6d0" d="M192.07,215.37l-1.41,1.42c.12-.82,.8-1.09,1.41-1.42Z" />
</svg>
