<?xml version="1.0" encoding="UTF-8"?>
<svg
  id="Layer_1"
  xmlns="http://www.w3.org/2000/svg"
  viewBox="0 0 419.53 595.28"
>
  <path fill="#58b6d0"
    d="M267.7,244.01c.6-.78,1.04-1.39,1.53-1.96,.46-.52,.94-1.03,1.47-1.47,1.36-1.12,3.79-1.14,5.26-.12,.64,.44,1.29,.85,2.2,1.44,.51,.89,1.26,1.99,1.81,3.19,.88,1.92,1.03,4.02,1.21,6.1,.06,.72,.12,1.45,.09,2.17-.07,1.68-.18,3.37-.29,5.05-.12,1.78-.33,3.56-.35,5.34-.01,1.33,.25,2.65,.36,3.98,.07,.9,.16,1.8,.11,2.7-.13,2.39-.23,4.79-.54,7.16-.5,3.8-.95,7.62-1.71,11.39-.42,2.1-.89,4.18-1.3,6.28-.15,.77-.12,1.57-.28,2.34-.31,1.5-.64,3-1.06,4.47-.41,1.41-.99,2.76-1.41,4.17-.37,1.2-.63,2.44-.92,3.66-.45,1.85-1.02,3.68-1.28,5.56-.29,2.09-.28,4.23-.42,6.35-.11,1.69-.24,3.38-.37,5.06-.16,2.05-.33,4.1-.5,6.16-.2,2.47-.39,4.95-.62,7.42-.11,1.23-.32,2.46-.42,3.69-.13,1.5-.19,3-.28,4.5-.03,.54-.03,1.09-.07,1.63-.1,1.59-.23,3.17-.32,4.76-.12,2.23-.33,4.45-.58,6.67-.28,2.53-.96,4.96-1.35,7.45-.33,2.12-.91,4.19-1.38,6.29,0,.03-.02,.06-.02,.09-.35,3.09-1.67,5.86-2.84,8.68-.79,1.9-1.57,3.8-2.39,5.69-.24,.55-.61,1.04-.93,1.56-.68,1.11-1.53,2.15-2.01,3.34-.55,1.38-.78,2.89-1.18,4.5,.52,.09,.98,.15,1.43,.25,1.33,.31,2.65,.63,3.97,.95,1.72,.42,3.44,.84,5.16,1.25,.5,.12,1.01,.17,1.52,.29,.96,.23,1.93,.45,2.88,.72,.54,.16,1.04,.48,1.58,.64,2.32,.67,4.65,1.33,6.63,2.82,.2,.15,.51,.15,.8,.23l.88,.78v.72l-1.9,2.02c-.38,.08-.94,.22-1.5,.33-1.75,.33-3.38,1.06-5.09,1.48-.74,.18-1.44,.61-2.31,.44-.56-.1-1.2,.29-1.81,.43-.37,.08-.75,.11-1.12,.14-.36,.08-.72,.17-1.09,.25-2.65,.61-5.34,.93-8.05,1.16-1.26,.11-2.53,.19-3.79,.29-.28,.02-.56,.11-.81,.16-.07,.63,.33,.7,.66,.81,.88,.3,1.77,.58,2.65,.9,.18,.07,.32,.26,.54,.46l.4-.25,1.91,.65,.04-.1c.29,.21,.58,.43,.87,.64,.17-.03,.35-.06,.51-.09,.54,.76,1.35,.97,2.18,1.17l.44,.56,.06-.12,1.68,.87c.96,.59,2.12,.77,2.92,1.71,.3,.35,.89,.46,1.37,.69l.27,.91c-.37,1.17-.83,2.3-2.12,2.82-.46,.18-.92,.54-1.36,.51-.58-.03-.73,.44-1.12,.54-1.07,.32-2.14,.65-3.22,.94-.46,.13-.95,.14-1.42,.26-3.08,.79-6.23,1.09-9.39,1.35-.93,.08-1.86,.25-2.79,.34-1.8,.19-3.6,.32-5.4,.53-2.2,.25-4.38,.6-6.58,.8-2.5,.23-5.02,.38-7.53,.5-4,.19-8,.38-12,.44-2.26,.04-4.53-.17-6.8-.25-2.39-.08-4.78-.09-7.17-.21-2.37-.12-4.74-.34-7.11-.5-1.08-.07-2.16-.05-3.23-.2-.93-.13-1.83-.45-2.74-.69-.35-.09-.69-.23-1.05-.28-2.26-.32-4.42-.94-6.48-1.92-.45-.22-.85-.57-1.27-.85l.09-.19h-.83l-.44-.88-.09,.1c-.45-.37-1.06-.65-1.33-1.12-.72-1.23-.28-2.01,.88-2.85,1.1-.8,2.31-1.47,3.54-2.07,.96-.47,2.02-.72,3.01-1.14,1.29-.56,2.55-1.19,3.8-1.78,1.6-.25,2.99-.93,4.13-1.85l.51-2.44c-2.64-.22-5.19,0-7.7-.31-2.51-.32-5.02-.61-7.53-.88-.91-.08-1.83-.12-2.73-.26-2.3-.36-4.6-.73-6.88-1.15-1.17-.22-2.24-.63-2.39-2.17,.08-.58,.46-.85,1.16-1.03,.83-.21,1.56-.79,2.37-1.11,1.34-.54,2.71-1.01,4.08-1.49,.21-.07,.47-.01,.66-.16,1.4-.49,2.78-1.06,4.21-1.45,1.46-.4,2.81-1.11,4.37-1.25,1.45-.13,2.73-1.21,4-.99l4.3-1.23c-1.03-3-2.64-5.61-4.35-8.02-2.46-.87-4.33-2.22-5.93-4.52-.63-.26-1.27-.99-1.89-1.84-.79-1.08-1.87-1.95-2.82-2.92-.36-.37-.67-.78-1.01-1.16-.84-.94-1.71-1.85-2.54-2.81-.31-.36-.5-.82-.78-1.2-.99-1.3-2-2.59-2.99-3.89-.24-.31-.49-.63-.65-.98-.81-1.83-1.95-3.41-3.4-4.78-.22-.21-.41-.45-.58-.7-.88-1.3-2.02-2.32-3.26-3.27-.32-.24-.6-.59-.8-.94-.63-1.1-1.28-2.2-1.8-3.36-.51-1.12-1.01-2.28-1.27-3.48-.58-2.72-1.15-5.43-2.11-8.05-.21-.56-.22-1.19-.41-1.76-.42-1.23-.89-2.44-1.36-3.65-.44-1.16-.99-2.28-1.31-3.47-.51-1.85-1.26-3.6-2.12-5.3-.25-.49-.59-.93-.9-1.4-.53-.82-1.06-1.65-1.59-2.47-.08-.13-.18-.24-.27-.37-.79-1.1-1.58-2.21-2.37-3.31-.09-.12-.16-.26-.25-.38-1.17-1.34-1.84-2.93-2.29-4.64-.09-.35-.4-.66-.66-.93-.82-.85-1.67-1.67-2.5-2.5-.42-.43-.84-.86-1.22-1.32-.29-.37-.6-.73-.87-1.1-.51-.7-1.01-1.41-1.51-2.12-.82-1.16-1.68-2.29-2.44-3.48-.47-.75-.77-1.61-1.17-2.4-.43-.85-.9-1.68-1.36-2.52-.04-.08-.13-.14-.16-.22-.69-1.93-1.4-3.88-1.03-5.98,.2-1.14,1.03-1.91,1.98-2.47,.93-.55,1.97-.65,3.06-.59,1.53,.08,3.07,.03,4.61,.07,.75,.02,1.51,.1,2.26,.17,2.41,.23,4.53,1.2,6.51,2.52,1.87,1.25,3.73,2.5,5.59,3.75,.15,.1,.29,.22,.42,.35,.72,.69,1.44,1.37,2.14,2.09,.33,.34,.6,.73,.98,1.2,1.49,.93,1.93,2.85,3.3,4.2l.56,.06c.73,.86,1.42,1.86,2.29,2.65,1.21,1.1,1.94,2.51,2.83,3.82,.54,.79,1.1,1.57,1.52,2.42,.66,1.35,1.24,2.74,1.8,4.13,.65,1.63,1.27,3.26,1.82,4.92,.32,.94,.77,1.76,1.54,2.4l1.56,.38c1.84-.28,3.91-2.77,3.72-4.59l.36-.48c-.34-1.41,.39-2.57,1.13-3.67,.57-.86,.72-1.8,.81-2.74,.24-2.53,.64-5.03,1.3-7.49,.36-1.34,.83-2.66,1.19-4,.47-1.78,.78-3.61,1.38-5.34,.34-.99,.49-2.06,1.18-2.97,.44-.58,.65-1.45,.68-2.2,.06-1.6-.04-3.2-.11-4.8-.04-1.05-.13-2.1-.2-3.15-.07-.94-.18-1.89-.24-2.83-.09-1.42-.19-2.84-.24-4.26-.04-.93,0-1.86,0-2.8,0-.97,.03-1.93,.05-2.9,.02-.96,.04-1.93,.08-2.89,.06-1.59,.18-3.19,.19-4.78,0-1.32-.13-2.65-.16-3.97-.01-.53,.13-1.07,.15-1.6,.02-.69-.04-1.38-.05-2.08-.04-2.26-.07-4.51-.1-6.77,0-.24,.04-.48,.05-.72,.06-1.08,.34-2.14,.11-3.24-.08-.42,.08-.89,.15-1.34,.32-2.27,.59-4.56,.98-6.82,.21-1.25,.61-2.46,.91-3.69,.1-.41,.14-.84,.25-1.24,.4-1.48,.75-2.96,1.52-4.33,.53-.94,.87-1.99,1.29-2.99,.39-.92,.74-1.86,1.21-2.74,.26-.49,.72-.87,1.11-1.29,.22-.25,.51-.44,.7-.7,.68-.93,1.64-1.15,2.71-1.13,.57,0,1.13,0,1.68,0,.75,.28,1.5,.58,2.26,.84,.6,.21,1.05,.55,1.36,1.12,.46,.87,1,1.7,1.46,2.57,.93,1.78,1.25,3.73,1.35,5.7,.13,2.84,.12,5.69,.25,8.54,.18,3.92-.25,7.81-.49,11.7-.11,1.75-.24,3.51-.32,5.26-.07,1.51-.06,3.02-.11,4.54-.04,1.36-.25,2.73-.15,4.07,.2,2.75,.61,5.49,.81,8.24,.19,2.61,.48,5.19,1,7.75,.16,.77,.37,1.53,.58,2.29,.05,.19,.2,.35,.35,.62,.73-.73,.91-1.66,1.15-2.48,.6-2.07,.66-4.21,.53-6.36-.08-1.31,.03-2.64,.03-3.96,0-.79-.04-1.57-.02-2.36,.01-.47,.1-.94,.1-1.43,.11-.79,.23-1.58,.34-2.37,.04-.33,.08-.66,.08-.99,.01-1.08-.1-2.17,.03-3.24,.22-1.9,.65-3.77,.84-5.66,.15-1.5,.19-3.03,.08-4.53-.13-1.99-.54-3.96-.65-5.95-.08-1.47,.11-2.95,.19-4.42,.06-1.11,.15-2.22,.16-3.34,.02-1.94,.04-3.88-.04-5.81-.05-1.29-.22-2.57-.4-3.85-.28-2.01-.78-4-.89-6.01-.09-1.7,.21-3.43,.4-5.14,.19-1.62,.46-3.23,.7-4.84,.2-1.28,.41-2.56,.62-3.84,.02-.14,.1-.28,.16-.42,.56-1.2,1.07-2.42,1.7-3.58,.44-.82,1.03-1.56,1.57-2.32,.33-.46,.66-.92,1.03-1.35,.91-1.04,2.23-1.12,3.46-1.39,1.55-.33,3.02-.09,4.36,.74,.45,.28,.82,.68,1.2,1.05,2.01,1.93,2.65,4.47,3.1,7.08,.38,2.23,.76,4.47,1.02,6.71,.17,1.4,.1,2.84,.19,4.25,.12,2.02,.23,4.05,.45,6.06,.2,1.86,.56,3.7,.78,5.55,.19,1.61,.28,3.24,.39,4.86,.02,.26-.11,.52-.16,.79-.04,.26-.15,.55-.09,.8,.5,1.92,.36,3.89,.54,5.84,.09,.95,.1,1.91,.19,2.87,.15,1.65,.31,3.29,.49,4.94,.15,1.38,.33,2.76,.49,4.14,.04,.3,.08,.6,.08,.9-.04,2.44-.08,4.89-.14,7.33-.05,2.04-.18,4.09-.19,6.13-.01,2.39,.09,4.77,.1,7.16,0,.96-.09,1.93-.15,2.89,0,.09-.05,.19-.04,.27,.31,1.5,.63,3,1.06,4.5,1.08-1.93,1.21-4.06,1.53-6.16,.33-2.09,.63-4.17,.41-6.31l.3-.19c-.14-.23-.4-.45-.38-.66,.08-1.18,.2-2.37,.35-3.54,.08-.62,.26-1.24,.4-1.85,.06-.26,.1-.53,.2-.78,.41-1.06,.49-2.11,.23-3.26-.52-2.3-.82-4.64-.55-7.01,.15-1.35,.25-2.71,.45-4.05,.23-1.58,.54-3.15,.8-4.72,.34-2.04,.43-4.07,.16-6.13-.15-1.13-.16-2.29-.17-3.43-.03-3.15-.06-6.29-.02-9.44,.03-2.24,.14-4.47,.3-6.71,.05-.8,.33-1.6,.5-2.39l.21,.07c.19-.44,.37-.87,.57-1.31,.22-.48,.4-1,.68-1.44,1.38-2.1,3.4-3.11,5.86-3.15,1.32-.03,2.53,.49,3.62,1.24,2.67,1.84,3.7,4.6,4.19,7.62,.33,2.06,.6,4.14,.74,6.22,.12,1.77,.06,3.56,.02,5.34-.02,1.18-.17,2.36-.18,3.54,0,.72,.12,1.44,.22,2.16,.25,1.89,.62,3.77,.77,5.66,.24,3.04,.43,6.1,.49,9.15,.05,2.41-.19,4.83-.15,7.24,.01,.72,.06,1.5,.28,2.25,.25,.85,.13,1.8,.22,2.7,.08,.81,.25,1.62,.33,2.43,.27,2.65-.28,5.25-.5,7.86-.15,1.81-.31,3.61-.49,5.41-.18,1.83-.4,3.66-.57,5.49-.1,1.04-.15,2.09-.22,3.13-.12,1.93-.17,3.86-.37,5.78-.16,1.45,.34,2.74,.66,4.03,1.2,.92,2.53,.55,3.01-.81,.79-2.25,1.59-4.49,2.29-6.76,.35-1.12,.46-2.31,.71-3.46,.17-.77,.35-1.55,.61-2.29,.14-.4,.49-.73,.69-1.11,.46-.88,.94-1.75,1.3-2.67,.24-.61,.39-1.29,.37-1.94-.04-1.28,.44-2.37,1.06-3.41,.24-.41,.25-.75,.15-1.2-.15-.64-.2-1.31-.22-1.97-.05-1.98-.11-3.97-.06-5.95,.02-.83,.18-1.71,.5-2.48,.43-1.04,.39-2.15,.24-3.12-.28-1.73-.08-3.4,.03-5.09,.11-1.6,.26-3.2,.5-4.78,.23-1.52,.54-3.03,.92-4.51,.53-2.04,1.17-4.06,1.7-5.87Zm-59.78,186.57c.09,.07,.19,.21,.28,.21,.93,0,1.85-.04,2.78-.05,.27,0,.54,.02,.81,.03,1.32,.04,2.64,.11,3.96,.11,.79,0,1.57-.12,2.36-.19,.3,.07,.58-.07,.86-.09,.62-.05,1.24-.04,1.87-.06,2.05-.07,4.1-.12,6.15-.23,.56-.03,1.11-.31,1.67-.34,1.81-.09,3.62-.09,5.43-.16,.52-.02,1.04-.16,1.55-.24v-.27l-2.73-.28v-.13l-1.52,.22c-.64-.58-1.78,.29-2.46-.56,1.19,0,2.37,.09,3.42-.52l1.77-.31c-.25-.19-.48-.24-.71-.22-1.65,.13-3.3,.28-4.95,.43-.89,.08-1.79,.19-2.68,.22-1.48,.04-2.95,.01-4.43,.03-2.36,.03-4.72,.09-7.08,.1-1.71,.01-3.42,.01-5.13-.05-1.71-.06-3.42-.22-5.14-.3-.57-.03-1.14,.06-1.71,.1l-.03,.24c.33,.09,.66,.25,1,.27,.94,.07,1.88,.03,2.81,.13,.95,.1,1.99-.37,2.83,.36l.75-.25v.63c-1.58-.27-3.1-.18-4.61,.17l.74,.28-.03,.12h-2.17l.81,.55c1.12,.19,2.27-.83,3.21,.3l.35-.22-.02-.02Zm9.49-10.93c1.6-1.04,3.19-2.08,4.79-3.11,.64-.42,1.29-.82,1.94-1.23l-.08-.21h-1.52c-2.42,1.41-4.64,2.72-6.86,4.02l-.12-.2,5.62-3.66c-.5-.47-.89-.35-1.28-.13-1.32,.74-2.63,1.49-3.95,2.23-.12,.07-.26,.11-.4,.16l-.06-.12,3.65-2.29-.09-.23c-1.01-.05-2.02-.12-3.02-.15-1.05-.03-2.1,0-3.15-.03-1.03-.03-2.05-.2-3.07-.15-1.03,.05-2.03-.46-3.09-.21,.16,.47,.39,.84,.39,1.2,.06,2.41,.08,4.83,.11,7.25,0,.74,0,1.48-.02,2.22-.02,.53-.07,1.06-.11,1.57,.19,.08,.27,.15,.35,.15,2.02,.09,4.04,.24,6.06,.23,1,0,2.06,.17,3-.48,1.95-1.33,3.94-2.61,5.91-3.9,.19-.12,.42-.19,.62-.28l.11,.24c-2.04,1.68-4.36,2.96-6.62,4.33l.12,.28,1.59-.16c.25-.3,.4-.57,.63-.73,.93-.62,1.88-1.21,2.83-1.79,.2-.12,.44-.18,.66-.27l.11,.2c-.17,.15-.33,.33-.52,.44-.89,.52-1.79,1.01-2.67,1.54-.17,.1-.26,.32-.5,.63,1.27-.06,2.28-.12,3.3-.16,1.82-.08,3.65-.12,5.47-.22,1.2-.07,2.39-.24,3.59-.31,1.1-.06,2.2-.06,3.3-.05,.31,0,.62,.12,.75,.14,.48-.15,.88-.42,1.13-.32,.81,.32,1.43-.12,2.26-.33-.88-3.45-.86-6.88-.07-10.34-.36-.07-.62-.16-.88-.17-.68-.01-1.37,.02-2.06,.01-1.85-.02-3.71-.07-5.56-.09-1.59-.02-3.18,0-4.83,0-2.34,1.4-4.75,2.85-7.17,4.29-.17,.1-.4,.12-.6,.18l.02,.02Zm13.63-147.17l-.41-1.95c-1.22-2.53-2.89-4.95-4.81-7.2,.92,.85,1.8,1.72,2.58,2.68,.79,.98,1.47,2.04,2.32,3.23-.23-1.93-1.44-3.16-2.38-4.53l.19-.12c.76,.9,1.52,1.81,2.37,2.83l.1-1.18c-1.1-1.57-2.24-3.21-3.39-4.85l.19-.14,3.26,4.16c-.09-.87,.03-1.72-.28-2.35-.58-1.19-1.41-2.25-2.14-3.37l.08-.08c.64,.74,1.27,1.49,1.91,2.23,.11-.22,.12-.37,.08-.51-.36-1.31-1.08-2.42-1.91-3.47-.66-.84-1.29-1.71-1.93-2.56l.2-.15,3.36,4.02c.13-.89,0-1.56-.54-2.21-.96-1.17-1.81-2.43-2.7-3.66-.08-.11-.1-.26-.15-.39l.09-.03c1.04,1.35,2.07,2.69,3.11,4.04,.14-1.4,.2-2.7-.93-3.74-.91-.84-1.67-1.83-2.48-2.76-.09-.1-.12-.26-.17-.4l-.06,.11,3.72,3.43c-.09-1.03-.16-1.85-.83-2.5-.56-.55-1.06-1.17-1.58-1.76-.11-.12-.19-.27-.39-.55,1.28,.36,1.78,1.36,2.52,2.08-.76-2.24-2.71-3.6-4.01-5.43l.17-.15c.91,.89,1.82,1.78,2.74,2.67l.14-.14c-.73-1.8-1.69-3.47-3.02-4.93l.25-.17,3.25,4.06c.14-1.07,.12-1.13-.43-1.98-.68-1.05-1.34-2.1-2.01-3.15l.19-.13c.68,.92,1.36,1.83,2.05,2.75l.21-.13c-.63-2.6-2.1-4.75-3.87-6.74,1.46,.85,2.29,2.27,3.36,3.49-.39-2.3-2.14-3.76-3.45-5.49l.24-.17c1.04,1.18,2.09,2.36,3.18,3.59,.18-.84-.02-1.6-.45-2.24-.72-1.08-1.53-2.11-2.31-3.15-.55-.73-1.14-1.44-1.71-2.16l.17-.14c1.51,1.56,3.04,3.1,4.27,4.95,.05-.42,0-.79-.13-1.13-.78-1.9-2-3.53-3.23-5.15-.13-.17-.24-.36-.35-.54l.21-.14c1.07,1.4,2.13,2.8,3.31,4.35-.15-.96-.12-1.83-.45-2.53-.52-1.11-1.26-2.13-1.95-3.16-.5-.75-1.08-1.46-1.62-2.19l.2-.15c1.07,1.3,2.14,2.6,3.21,3.89-1.11-2.76-2.86-5.12-4.6-7.49,1.78,1.57,3.08,3.51,4.33,5.49l.19-.07-.12-1.45c-.3-.42-.49-.69-.67-.95-1.01-1.43-2.02-2.87-3.03-4.3-.14-.2-.28-.4-.41-.6,1.65,1.33,3.03,2.87,4,4.74,.14-3.2-2.1-5.2-3.75-7.5,1.33,1.37,2.84,2.57,3.72,4.32-.57-2.87-2.65-4.9-4.19-7.22l.22-.15c1.25,1.59,2.5,3.19,3.8,4.83,.19-.49,.08-.84-.16-1.23-.81-1.35-1.59-2.72-2.38-4.08-.36-.61-.74-1.21-1.1-1.81l.21-.14c1.1,1.6,2.2,3.2,3.3,4.81l.19-.08c-.15-.66-.28-1.32-.44-1.97-.16-.63-.02-1.33-.56-1.88-.49-.5-.88-1.08-1.33-1.61-.42-.49-.86-.96-1.3-1.45l.27-.24c.78,.78,1.56,1.56,2.38,2.39-.43-2.42-1.73-4.29-3.54-5.88,1.07,.62,1.89,1.48,2.74,2.37-.24-.85-.49-1.71-.96-2.41-.6-.89-1.24-1.84-2.32-2.23-1.83-.66-3.64-.27-5.44,.21-.25,.07-.53,.22-.69,.42-.66,.78-1.43,1.52-1.89,2.41-.7,1.34-1.1,2.82-1.81,4.17-.43,.82-.47,1.87-.61,2.83-.2,1.41-.21,2.85-.53,4.22-.48,2-.55,4.01-.51,6.02,.03,1.55,.29,3.09,.5,4.63,.21,1.59,.49,3.17,.73,4.75,.03,.18,0,.36-.01,.54-.05,1.42-.21,2.85-.12,4.26,.15,2.19-.07,4.35-.23,6.51-.18,2.5-.04,4.99,.37,7.46,.3,1.79,.48,3.59,.16,5.4-.1,.59-.21,1.17-.33,1.76-.29,1.42-.45,2.84-.49,4.3-.06,2.5-.41,4.99-.56,7.49-.11,1.84-.12,3.69-.12,5.54,0,1.41,.12,2.83,.12,4.24,0,.74-.18,1.48-.28,2.22-.07,.17,.11,.38,.07,.54-.22,.93-.48,1.86-.76,2.78-.08,.27-.34,.48-.47,.74-.31,.63-.57,1.3-.92,1.92-.11,.2-.43,.27-.53,.33-.85-.45-1.57-.82-2.28-1.2-.16-.08-.32-.17-.47-.28-1.67-1.3-2.95-2.94-4.16-4.66-.04-.06-.03-.16-.07-.35,1.56,1.56,2.72,3.41,4.73,4.5,.04-.8-.3-1.24-.84-1.6-.42-.29-.89-.56-1.21-.94-1.36-1.58-2.68-3.2-4.01-4.81-.19-.23-.34-.5-.51-.75,.42,.25,.72,.59,1.02,.92,1.23,1.34,2.45,2.68,3.71,4,.27,.29,.66,.47,1.01,.72,.25-.52,.09-.82-.21-1.08-.25-.22-.54-.41-.73-.68-1.1-1.49-2.18-2.99-3.25-4.49-.35-.49-.67-1.01-1.01-1.52l.15-.1c.75,.98,1.46,1.99,2.25,2.93,.77,.92,1.42,1.97,2.41,2.68l.18-.1-.19-1.73c-.67-.63-1.26-1.02-1.64-1.56-1.14-1.61-2.2-3.27-3.29-4.91-.12-.17-.18-.38-.27-.58,.22,.09,.34,.22,.44,.36,1.25,1.64,2.49,3.29,3.76,4.91,.21,.27,.56,.45,.96,.75v-1.97c-1.33-2.03-2.82-3.79-3.81-5.88,1.16,1.41,2.32,2.82,3.61,4.39v-1.04c-.96-.77-2.96-3.75-3.29-4.97,1.03,1.34,1.98,2.57,2.93,3.79l.19-.1c0-1.04,.25-2.08-.74-2.96-.63-.56-1.08-1.31-1.62-1.97l.33-.3,1.8,2.21,.32-.16c-.42-.91-.02-1.95-.64-2.81-.65-.91-1.33-1.8-1.99-2.71-.17-.23-.32-.48-.48-.72l.22-.14,2.34,2.67c-.06-2.8-2.32-4.39-3.35-6.62,.57,.53,1.11,1.07,1.6,1.66,.51,.6,.98,1.24,1.46,1.86l.21-.14c-.42-1.04-1.13-1.92-1.74-2.85-.62-.94-1.33-1.84-1.99-2.75,1.63,1.12,2.8,2.65,3.86,4.54l.52-1.73c-.76-.31-2.41-2.66-3.55-5.08,.61,.65,1.16,1.34,1.72,2.03,.58,.72,1.16,1.43,1.87,2.3v-1.34c-1.36-2.04-2.68-4.03-4-6.01l.14-.1c1.29,1.6,2.58,3.19,3.95,4.88,.18-1.38,.21-1.51-.2-2.18-.65-1.05-1.36-2.07-2.05-3.09-.43-.63-.88-1.24-1.32-1.86l.2-.16,3.69,4.33c-.45-2.6-2.44-4.37-3.74-6.71,1.64,1.39,2.52,3.18,3.87,4.77,.24-2.31-1.55-3.47-2.45-5.05l.16-.1,2.12,2.32c.28-.72,.11-1.25-.2-1.75-.65-1.03-1.32-2.03-1.98-3.05-.58-.9-1.15-1.81-1.73-2.72l.2-.14c1.24,1.74,2.48,3.47,3.72,5.21l.2-.07c-.13-.65,.09-1.33-.31-1.97-.72-1.19-1.42-2.4-2.11-3.61-.33-.57-.64-1.15-.95-1.73l.16-.09,3.28,4.7c.29-1.07-.09-1.77-.46-2.43-.99-1.77-2.06-3.5-3.08-5.25-.14-.23-.23-.5-.34-.74l.18-.09c1.13,1.67,2.26,3.35,3.38,5.02l.2-.1c.02-.11,.08-.24,.05-.33-.27-.59-.55-1.19-.84-1.77-.42-.84-.79-1.71-1.31-2.49-.68-1.02-1.48-1.96-2.23-2.93,1.89,1.2,2.95,3.09,4.15,4.92,.04-.64,.07-1.27-.15-1.79-.36-.86-.83-1.68-1.34-2.46-.73-1.1-1.54-2.14-2.31-3.21,1.47,1.1,2.61,2.51,3.56,4.09l.17-.11-.28-1.68c-1.09-1.49-2.26-3.11-3.44-4.72l.11-.09,2.51,2.65c.1-1.34-.19-2.57-.79-3.62-.93-1.61-2.62-2.04-4.34-2.24-.58-.07-1.18,.06-1.84,.1-.35,.27-.8,.57-1.2,.93-1.21,1.06-1.88,2.45-2.36,3.96-.26,.8-.62,1.57-.9,2.37-.57,1.61-1.37,3.12-1.68,4.84-.35,1.95-.91,3.87-1.37,5.8-.03,.12-.02,.24-.04,.36-.09,.93-.18,1.85-.29,2.78-.27,2.43-.57,4.86-.83,7.29-.05,.5,.04,1.02,.04,1.53,0,.72-.01,1.44-.01,2.16,0,1.39,0,2.78,0,4.17,.09,.32,.18,.64,.19,.96,.06,1.68,.12,3.37,.15,5.05,.02,.91-.03,1.81-.06,2.72-.08,2.08-.3,4.16-.23,6.23,.1,3.12-.31,6.23,.08,9.34,.16,1.28,.11,2.59,.19,3.89,.05,.87,.17,1.74,.24,2.61,.04,.46,.06,.91,.09,1.37,.05,1.07-.04,2.15,.08,3.3l1.55-.85,.59,.52c-.51,.42-.81,.66-1.09,.92-.22,.2-.47,.38-.65,.61-1.92,2.6-2.64,5.67-3.4,8.73-.31,1.26-.46,2.56-.75,3.82-.41,1.79-.92,3.55-1.32,5.34-.18,.79-.18,1.62-.26,2.44l.22,.1c.69-.87,1.38-1.73,2.05-2.62,.3-.39,.61-.71,1.16-.76,.15,.57-.08,.98-.36,1.38-.38,.55-.72,1.12-1.1,1.67-1.03,1.45-2.03,2.93-3.13,4.33-.83,1.05-1.25,2.19-1.18,3.51,0,.18,.11,.35,.19,.56l2.36-1.96,1.09,.43-2.64,2.68-.05-.05-3.11,3.23-.08-.15-2.59,1.35c-1.72-.19-3.5-.31-5.25-.59-1.1-.18-2.16-.58-3.24-.88l.05-.19c.98,.03,1.91,.54,2.91,.49l.08-.29c-1.58-.68-3.17-1.37-4.75-2.05,2.23,.29,4.25,1.42,6.62,1.71l-.64-1.24c-2.39-.75-4.86-1.53-7.34-2.31l.03-.13c2.42,.59,4.84,1.17,7.3,1.77-.05-.47-.48-.64-.84-.78-1.1-.43-2.21-.81-3.33-1.19-.76-.25-1.54-.45-2.31-.67l.05-.2c.95,.15,1.91,.27,2.85,.47,.93,.2,1.83,.5,2.74,.76l.15-.18c-.14-.19-.23-.48-.41-.55-1.29-.52-2.58-1.03-3.9-1.49-.82-.29-1.68-.48-2.52-.72l.07-.25c1.94,.41,3.88,.82,5.93,1.26l-.09-.99c-2.12-1.08-4.29-1.65-6.57-1.88,2-.29,3.9,.21,5.95,.77l-.29-1.01-4.87-1.53,.04-.2,4.31,.48,.07-.23-1.2-.81,.06-.19-4.28-.94c1.53-.25,3.03-.11,4.59,.23-1.36-1.95-2.44-4.06-4.15-5.76-.19,.17-.3,.24-.36,.33-.85,1.46-1.74,2.89-2.52,4.38-.45,.86-1.08,1.63-1.99,1.96,1.07-1.09,1.73-2.27,2.23-3.6,.48-1.28,1.57-2.29,1.91-3.7-.62-.82-1.17-1.68-2.3-2.06-.7,1.3-1.35,2.52-2,3.74-.44,.83-1.01,1.53-2.1,1.9,1.68-1.6,2.35-3.57,2.99-5.63-1.95-.64-3.88-.29-5.81-.42,1.02-.23,2.06-.42,3.09-.45,1.06-.03,2.13,.12,3.36,.2l-.61-.8c-2.41-.21-4.67-.41-6.93-.6,2.18-.64,4.41,.13,6.66-.14-.45-.69-1.5-.93-3.8-1.04-1.32-.06-2.64-.18-4.16-.29,2.37-.59,4.54-.36,6.82-.18l-.92-.97c-1.3-.07-2.6-.19-3.9-.2-1.29-.01-2.59,.08-3.99,.13,2.13-.73,4.23-.77,6.48-.75l-.47-.71-.07,.18c-.51-.05-1.02-.09-1.53-.17-.41-.06-.82-.19-1.23-.24-1.63-.18-3.22,.11-4.83,.34,2.15-.74,4.35-1.05,6.67-.75-.16-.28-.34-.5-.55-.7-.7-.68-1.59-.45-2.42-.49-1.02-.05-2.04-.01-3.12-.01l3.3-.67,.04-.24c-.37-.17-.72-.46-1.1-.48-1.45-.1-2.91-.16-4.36-.13-.71,.02-1.43,.24-2.13,.42-.27,.07-.52,.26-.78,.39l-.06-.2c1.91-1.43,4.23-.87,6.47-1.09-.76-.9-1.55-1.33-2.62-1.16-.75,.12-1.5,.2-2.25,.29-.22,.03-.44,.04-.65,.05l-.03-.16,2.52-.78v-.18l-1.58-.73c-2.4,.63-4.91,1.29-7.35,1.94,1.64-1.24,3.76-1.44,5.74-2.01l-.02-.24-3.26-.26c-1.83,.83-3.37,1.53-4.9,2.23,.99-1.4,2.56-1.67,4.24-2.09-.29-.13-.38-.21-.48-.21-1.01,0-2.03,.06-3.04,.02-1.45-.05-2.75,.21-3.88,1.5v3.37c.31,.54,.68,.92,.71,1.32,.07,.91,.54,1.58,.98,2.29,.07,.38,.14,.77,.31,1.11,.25,.52,.57,1.02,.96,1.7,.51,.18,.55,.91,.78,1.48l.62,.54v.83c.53,.57,1.09,1.08,1.55,1.67,.78,.99,1.5,2.03,2.27,3.03,.2,.26,.64,.4,.74,.68,.16,.48,.59,.63,.88,.91,.59,.57,1.32,1,1.87,1.6,.63,.67,.97,1.63,2.03,1.82,.1,.02,.18,.16,.27,.23,.45,.36,.9,.72,1.35,1.08,.74,.59,1.49,1.17,2.27,1.79-.54,.45-.94,.28-1.32,0-.27-.2-.5-.53-.79-.58-.8-.14-1.44-.51-1.99-1.24-.05,.31-.09,.48-.1,.65-.01,.21,0,.42,0,.52,2.51,2.74,4.13,5.99,6.18,8.64,1.58,3.24,3.06,6.29,4.61,9.48l.53-3.07,.21,.03c-.1,1.23-.14,2.47-.31,3.69-.17,1.25,.42,2.26,.85,3.55l.83-2.26,.19,.06c-.17,1-.49,2-.48,2.99,.02,1.02,.36,2.04,.56,3.06l.24,.02c.16-.46,.3-.94,.5-1.39,.2-.46,.45-.91,.69-1.36-.32,1.95-1.6,3.76-.41,5.97,.37-1.39,.78-2.63,1.39-3.8,.1,.75-.36,1.5,.28,2.23,1.06-1.06,1.94-2.25,2.63-3.59,.11,1.47-.86,2.46-1.48,3.61l.71-.58,.13,.11c-.92,1.43-1.85,2.87-2.65,4.13,.14,1.93,.68,3.53,1.35,5.11l.37-3.73h.17v4.94l2.01,2.39,.48-8.43h.17v9.47c.23,.17,.44,.31,.64,.47,.19,.16,.36,.34,.53,.52l.23-.07c-.32-2.55-.33-5.07,.6-7.49,.07,.09,.08,.18,.07,.27-.51,2.25-.6,4.5-.07,6.76,.07,.28-.07,.61-.12,1,.65,.19,.25,1.44,1.36,1.54l.51-6.04h.15v7.13l1.5,2.5,.72-6.67,.27,.02c-.38,2.66-.55,5.33-.15,8.02l.61,.46,.26,1.01,.54-.51,.5,1.14c.03-2.18-.12-4.56,.16-6.94,.12,.17,.14,.33,.15,.5,.13,1.99,.24,3.99,.41,5.98,.05,.57,.26,1.13-.19,1.56l.56,1.18,.26-.02c.06-2.21-.15-4.45,.37-6.63,.06,.45,.05,.9,.07,1.36,.05,1.6,.03,3.21,.17,4.81,.12,1.36,.61,2.63,1.58,3.64,.46,.48,1,.9,1.58,1.42,.09-.97,.2-1.89,.26-2.81,.06-.9,.07-1.8,.1-2.7h.19c.41,2.27-.4,4.64,.4,6.61l1.72,1.84c-.25-2.44-.2-4.71,.34-6.93-.11,2.61-.11,5.2,.54,7.81l.86,.52c.41-1.2,.19-2.47,.7-3.71l.55,4.92,1.15,.7v-3.65c.62,1.32,.09,2.81,.67,4.12l1.18,.42-.23-3.08,.21-.03c.06,.25,.12,.5,.17,.76,.14,.81,.23,1.62,.42,2.42,.07,.29,.29,.62,.53,.77,.41,.26,.9,.39,1.37,.58l-.35-4.06,.19-.02,.8,4.58c1.47,.56,2.81,1.15,3.97,2.04v.22l-1.46,.33c0,.2-.05,.41,0,.6,.34,1.16,.62,2.35,1.09,3.46,.77,1.83,.91,3.81,1.44,5.69,0,.03,0,.06,0,.09,.07,1.59,.15,3.18,.22,4.87,.19,.05,.48,.15,.77,.18,.68,.05,1.36,.07,2.05,.09,1.14,.04,2.29,.08,3.43,.13,.03,0,.06,0,.1-.01l.65-.35,.58,.64,1.53-.42c.79-.71-.16-1.44,.1-2.23,.91,.53,1.07,1.41,1.38,2.43,2.06,.2,4.17,.31,6.29,.41,2.15,.1,4.3,.2,6.45,.3,6.05,.03,12.11,.16,18.11-.17l.55,.4,1.22-.47,.67-1.93c.93,.59,.24,1.37,.43,2.03l1.87-.13,.45,.18c2.84-.53,5.51,.02,8.3-.21-.94-1.03-1.82-1.98-2.69-2.94,1.16,.8,2.22,1.67,3.28,2.56,.33,.28,.64,.53,1.17,.14-.62-.65-1.19-1.27-1.78-1.86-.57-.58-1.16-1.13-1.74-1.7l.13-.13c1.37,1.01,2.73,2.03,4.1,3.04l.16-.15c-1.19-1.92-2.94-3.42-4.16-5.34,1.46,1.39,2.92,2.77,4.46,4.24l.05-.93c-.67-.78-1.22-1.46-1.81-2.11-.86-.94-1.74-1.85-2.61-2.79-.09-.1-.14-.25-.21-.37l.11-.08c1.52,1.43,3.04,2.86,4.56,4.29l.21-.15c-.23-.36-.42-.77-.71-1.08-1.04-1.14-2.11-2.26-3.17-3.39-.1-.1-.15-.24-.3-.49,1.7,.94,2.82,2.44,4.6,2.97-1.74-1.41-2.89-3.28-4.09-5.03-1.06,.06-2.06,.04-3.03,.19-2.29,.36-4.52-.21-6.77-.34-.23-.01-.45-.16-.67-.26-1.02-.45-2.03-.91-2.87-1.29-.75-.53-1.37-.95-1.98-1.39-.69-.49-1.46-.9-2.03-1.49-1.2-1.24-2.3-2.57-3.41-3.89-.26-.31-.38-.73-.56-1.11l.22-.14c.94,.34,1.2,1.52,2.21,1.95-.06-.48-.11-.86-.16-1.25-.05-.35-.09-.7-.14-1.05,1,1.59,.9,3.66,2.51,4.88l.23-.07c-.45-1.7-.9-3.41-1.34-5.11l.22-.06c.05,.13,.1,.27,.15,.4,.6,1.75,1.21,3.49,1.82,5.24,.13,.36,.22,.76,.88,.82-.49-2.02-.97-3.96-1.44-5.91,.33,.34,.53,.74,.68,1.15,.61,1.68,1.28,3.34,1.8,5.04,.36,1.18,1.25,1.46,2.34,1.81-.56-1.97-1.08-3.83-1.6-5.68l.18-.05,2.65,6.37h1c-.63-2.11-1.43-4.07-1.74-6.16,.58,1.13,1.02,2.31,1.51,3.47,.36,.87,.76,1.72,1.19,2.55,.19,.38,.49,.71,1.07,.33l-1.7-4.88,.26-.1c.82,1.73,1.65,3.47,2.51,5.28l1.29-.15c-.67-2.11-1.74-3.94-2.19-5.98,.14,.07,.2,.16,.25,.26,.85,1.74,1.69,3.49,2.53,5.24,.18,.37,.33,.74,.86,.46l-2.04-5.63,.18-.07c1.07,1.88,1.76,3.97,3.11,5.77l.75-.28-1.77-4.99c1.46,1.38,2.06,3.2,2.74,5.05l.8-.37c-.79-2.07-1.56-4.09-2.33-6.11l.18-.08c1.03,2.01,1.76,4.18,3.2,6.24,.12-.39,.27-.62,.23-.79-.29-1.21-.62-2.4-.94-3.6-.08-.3-.19-.59-.28-.88l.29-.11c.87,1.41,1.18,3.1,2,4.56,.27-.82-.19-1.5-.36-2.22-.19-.8-.45-1.57-.67-2.36-.19-.72-.36-1.44-.54-2.17l.15-.03c.81,2.06,1.62,4.13,2.43,6.19h.26c.06-.28,.22-.58,.17-.84-.19-1.04-.44-2.07-.69-3.09-.14-.58-.34-1.15-.52-1.72,1.12,1.44,1.45,3.18,2.02,4.87h.89c-.02-1.96-.64-3.76-1.15-5.58l.25-.07c.52,1.57,1.03,3.13,1.55,4.7l.3-.09c-.28-2.93-1.48-5.67-1.97-8.56,.94,2.44,1.69,4.94,2.76,7.48,.45-2.65-.57-4.85-1.34-7.09l.29-.09c.6,1.69,1.21,3.38,1.89,5.3,.11-.22,.22-.35,.23-.49,.03-.45,.13-.93,0-1.34-.6-1.9-.93-3.9-1.99-5.64-.07-.11-.08-.26-.11-.4,1.51,1.72,1.91,3.96,2.9,6.18l.48-1.26h-.15c-.54-2.07-1.08-4.13-1.62-6.19,.84,1.49,1.79,2.93,1.96,4.7,.03,.29,.14,.57,.24,.85,.02,.05,.15,.06,.28,.11l.38-.7h-.47l.43-1.17c-.88-2.28-1.78-4.64-2.68-6.99,1.3,1.91,1.91,4.16,3.06,6.32,.43-.85,.82-1.46,.46-2.33-.62-1.51-1.12-3.06-1.68-4.59-.14-.38-.34-.74-.52-1.1l.17-.08c1.17,1.61,1.73,3.55,2.56,5.44,.71-1.25,.8-1.61,.35-2.69-1-2.4-2.06-4.78-3.09-7.17-.07-.17-.11-.36-.17-.54,1.55,2.31,2.54,4.88,3.65,7.38l.89-.4c-.42-1.14-.76-2.29-1.26-3.38-.73-1.6-1.56-3.15-2.35-4.72-.08-.16-.11-.33-.17-.5l.21-.09,3.54,6.64c.31-.34,.47-.74,.31-1.22-.32-.91-.62-1.83-.99-2.72-.38-.89-.84-1.75-1.26-2.62l.19-.1c1.28,1.32,1.9,3.02,2.45,4.77l.17-.06,.34-.95c-1.11-2.43-2.21-4.84-3.31-7.25,.38,.35,.67,.74,.89,1.17,.73,1.46,1.43,2.94,2.17,4.4,.11,.21,.34,.36,.51,.53l.2-.16-.3-.88,.33-.8c-.37-1.07-.64-2.19-1.13-3.21-.49-1.03-1.2-1.97-1.81-2.94l.25-.15c1,1.58,2,3.15,3,4.73,.02-1.38-.73-2.5-1.24-3.7-.52-1.23-1.16-2.41-1.75-3.62,1.42,1.42,2.22,3.24,3.34,4.87-.12-3.16-2.09-5.55-3.47-8.2,.72,.89,1.41,1.8,1.99,2.78,.58,.96,1.06,1.99,1.59,2.98l.23-.09c-.05-2.32-.66-4.45-2.31-6.23,1.28,.72,1.87,1.94,2.48,3.27,.6-2.14-.77-3.51-1.67-5.02l.18-.09,1.67,2.36c.41-.7,.37-1.32,.04-1.91-.59-1.05-1.22-2.09-1.85-3.12-.51-.83-1.05-1.65-1.57-2.48l.18-.12,3.53,5.15,.17-.06,.11-.66c-.38-.24-.73-.51-.79-.84-.23-1.23-.85-2.26-1.49-3.29-.43-.69-.86-1.39-1.29-2.08,1.53,1.51,2.62,3.29,3.48,5.24l.2-.05c.13-1.33,.26-2.65,.39-3.92l-.77-.47c-.09-2.1-1.44-3.65-2.13-5.45l.22-.09,2.42,4.66,.46-.95c-.33-.56-.59-.95-.8-1.37-.33-.68-.64-1.37-.94-2.06-.19-.44-.34-.9-.51-1.35l.23-.1c.57,1.1,1.15,2.2,1.72,3.3h.2c.05-.21,.18-.43,.14-.62-.1-.5-.23-1-.4-1.48-.35-1.01-.72-2.01-1.09-3.01l.22-.09c.47,.93,.73,1.97,1.37,2.79l.19-.07-.1-2.29c-.22-.49-.39-.81-.51-1.14-.21-.56-.38-1.14-.59-1.7-.22-.57-.46-1.12-.7-1.68l.23-.1c.53,1.05,1.05,2.11,1.63,3.26,.08-.22,.12-.29,.13-.37,.2-1.32-.36-2.43-1-3.51-.46-.77-.94-1.52-1.42-2.27,1.23,.82,1.63,2.27,2.63,3.3,.05-.38,.05-.74-.1-1.02-.99-1.91-2.01-3.8-3.01-5.7-.06-.12-.07-.27-.1-.4l.21-.09c.98,1.57,1.96,3.14,2.96,4.75l.56-.97c-.17-.03-.29-.02-.4-.07-.11-.05-.19-.14-.27-.21-.18-1.94-1.77-3.08-2.65-4.61l.18-.13,3.02,3.64v-1.35c-.37-.9-.55-1.86-.93-2.73-.38-.86-.98-1.62-1.49-2.42,1.38,.9,1.86,2.42,2.77,3.66l-.12-1.43-.42-.19c-.29-2.51-2.11-4.17-3.16-6.23,1.43,1.72,3.02,3.33,3.76,5.57v-1.75l-.58-.47c-.29-2.25-1.8-3.8-2.63-5.66l.16-.09,2.01,2.86,.21-.14c-.5-1.73-1.42-3.23-2.7-4.78,1.46,.64,3.16,3.48,3.45,5.53l-.31,.77,.38,.9c.17-.38,.18-.71,.21-1.04,.09-1,.14-2-.35-2.93-.7-1.34-1.4-2.67-2.1-4.01-.16-.31-.31-.64-.46-.96h-.01c.14,.11,.32,.18,.41,.31,.75,1.17,1.48,2.35,2.22,3.52,.16,.26,.32,.53,.56,.94,.11-1.47,.2-2.71,.28-3.95,.04-.66,.17-1.35,.04-1.98-.33-1.6-.78-3.17-1.19-4.75-.07-.26-.14-.51-.21-.77l.27-.07,1.47,4.1c.05-2.48-1.27-4.56-1.96-6.82l.23-.09c.75,1.78,1.5,3.57,2.29,5.42,.17-.8,.73-1.47,.5-2.35-.24-.94-.46-1.88-.7-2.82-.2-.77-.41-1.54-.61-2.31l.23-.07c.47,1.38,.93,2.75,1.44,4.26,.4-.83,.49-1.51,.27-2.24-.31-.98-.57-1.97-.86-2.96-.19-.64-.42-1.27-.63-1.91l.28-.1c.58,1.48,1.16,2.97,1.74,4.46,1.07-2.81-.14-5.23-1.35-7.65l.22-.06c.62,1.07,1.24,2.15,1.87,3.22l.22-.09c.46-2.37-1.2-4.23-1.7-6.37l.19-.08c.63,1.27,1.26,2.55,1.97,3.96,.31-.75,.18-1.32-.03-1.88-.56-1.47-1.12-2.95-1.67-4.42-.1-.27-.19-.55-.28-.82l.19-.08c.74,1.6,1.49,3.2,2.29,4.94,.57-1.02,.81-1.89,.42-2.84-.49-1.21-1-2.4-1.5-3.61-.12-.28-.23-.56-.34-.84l.29-.13,2.01,4.07c.21-.52,.39-1.08,.25-1.55-.56-1.91-1.06-3.87-2.22-5.54-.06-.09-.04-.25-.05-.37l.17-.07c1.08,1.2,1.54,2.81,2.55,4.28,.79-2.52-.66-4.35-1.41-6.35,.97,.98,1.52,2.2,2.1,3.42,.16-2.08-.84-3.8-1.74-5.55l.27-.12,1.81,3.07,.31-.68c-.25-.31-.5-.51-.6-.77-.48-1.25-.93-2.51-1.43-3.89,1.34,.94,1.37,2.46,2.04,3.84l.19-1.7c-.25-2.04-1.07-3.87-2.31-5.55,.59,.51,1.05,1.09,1.52,1.66,.47,.59,.52,1.45,1.33,1.86l-.16-1.05-.39-.22c-.58-1.43-1.11-2.72-1.68-4.11,1.32,.96,1.46,2.53,2.31,3.7v-1.31l-.12,.03-2.12-4.5c1.22,.81,1.56,2.12,2.28,3.2,.06-.59,.16-1.22-.03-1.73-.29-.8-.78-1.54-1.18-2.3-.34-.65-.68-1.3-1.03-1.95,1.12,.62,1.39,1.86,2.16,2.87l.44-1.5c-.09-.19-.26-.39-.27-.59-.04-.75,.07-1.52-.05-2.26-.17-1.08-.33-2.21-.77-3.2-.48-1.09-1.28-2.05-1.93-3.07-.26-.41-.51-.84-.76-1.26l.19-.12c.93,1.26,1.86,2.53,2.79,3.79l.21-.12c-.24-1.29-.68-2.52-1.35-3.65-.68-1.14-1.47-2.21-2.21-3.32,1.51,1.3,2.61,2.9,3.58,4.63,.09-.41,.16-.81,.03-1.13-.68-1.66-1.5-3.25-2.74-4.57-.12-.13-.19-.33-.28-.49l.16-.13c1.01,.7,1.61,1.78,2.38,2.72,.09-1.49-.98-2.45-1.61-3.6l.2-.14,2.07,2.48c-.33-2.45-1.66-4.37-3.19-6.2,1.44,.76,2.11,2.19,3.12,3.36-.07-1.24-.33-2.39-1.09-3.4-.74-.98-1.42-1.99-2.13-2.99,1.39,.69,2.13,2.01,3.09,3.11l.17-.08-.23-1.95c-1.1-1.05-2.17-2.07-3.24-3.08l.14-.14c.88,.72,1.76,1.44,2.78,2.26-.69-1.73-1.68-3.02-3.13-3.91-.96-.59-2.05-.91-3.2-.72-2.06,.34-3.67,1.88-4.13,3.93-.04,.18-.09,.35-.17,.52-1.33,3.04-2.03,6.25-2.37,9.54-.11,1.08-.26,2.16-.33,3.24-.07,1.11-.17,2.23-.09,3.33,.11,1.41,.16,2.82-.02,4.22-.27,2.06-.68,4.1-.79,6.17-.11,2.1,.08,4.22,.15,6.54,.79,.46,1.64,1,2.54,1.48,.83,.44,1.72,.77,2.53,1.24,.53,.31,1.02,.5,1.58,.29l1.04,.56v1c-3.04-.48-5.67-1.72-7.95-3.8-.55,1.49-.76,2.92-.58,4.48,1.11,1.75,3.36,1.72,4.92,2.91-1.83-.17-3.55-.65-5.15-1.49l-1.3,1.11c-.06,.15-.15,.36-.24,.57-.35,.82-.78,1.62-1.04,2.48-.48,1.57-.88,3.17-1.28,4.77-.35,1.4-.63,2.82-.96,4.22-.12,.53-.24,1.07-.45,1.56-.28,.67-.65,1.29-.97,1.94l-.37-.38-.85,.99,.34,.44c-.49,.11-.98,.3-1.46,.29-.47,0-.93-.24-1.4-.33-.51-.09-.77-.42-1-.84-.33-.61-.67-1.21-1.01-1.81-.47-.84-.97-1.68-1.42-2.53-.52-.99-1.01-2-1.51-3-.39-.79-.78-1.58-1.17-2.37l.21-.11,3.76,6.99,.21-.11c-.87-3.54-2.88-6.6-4.26-9.93l.2-.11,3.76,6.8,.21-.06c0-.47,.14-.99-.02-1.39-.82-2.02-1.71-4.01-2.61-5.99-.37-.81-.82-1.58-1.23-2.37l.25-.13c1.23,2.22,2.45,4.43,3.78,6.82l.13-1.27c-1.14-2.48-2.25-4.89-3.36-7.3,1.44,1.7,2.35,3.72,3.34,5.76,.09-.14,.17-.21,.17-.28,0-.3,.01-.61-.05-.9-.71-3.43-2.7-6.28-4.31-9.31,1.84,2.34,3.39,4.85,4.72,7.56,.13-.72,.35-1.5,.1-2.09-.58-1.38-1.4-2.67-2.09-4-.38-.74-.72-1.5-1.08-2.25l.12-.05,3.27,5.27c.06-.59,.12-.98,.13-1.36,.02-.45,.13-.95-.03-1.33-.39-.91-.88-1.79-1.4-2.64-.45-.73-.98-1.41-1.48-2.11,1.39,.99,2.21,2.43,3.12,3.9,.19-1.07,.38-1.95,.49-2.84,.08-.65,.22-1.35,.05-1.95-.52-1.78-1.46-3.38-2.51-4.91-.56-.82-1.03-1.71-1.54-2.57l.19-.11c1.29,1.99,2.58,3.99,3.89,6.01l.19-1.34c-.06-2.52-2.04-4.23-3.17-6.39,1.32,1.2,2.2,2.76,3.35,4.35-.14-1.87-.92-3.24-1.71-4.61-.79-1.37-1.61-2.73-2.41-4.1l.16-.11c1.12,1.59,2.24,3.18,3.35,4.77l.17-.08c-.17-.64-.3-1.28-.51-1.9-.6-1.78-1.77-3.23-2.77-4.78-.33-.51-.64-1.04-.95-1.56l.22-.14c1.1,1.54,2.19,3.08,3.38,4.75,.16-1.12,.13-2.01-.45-2.79-.72-.97-1.44-1.94-2.16-2.91-.16-.22-.32-.44-.48-.67l.25-.2,2.17,2.4c-.36-1.99-1.89-3.25-2.61-4.96,1.45,1.43,2.61,3.06,3.42,5.09,.31-1.13,.08-1.96-.4-2.83-.71-1.3-1.27-2.68-2.39-3.72-.32-.3-.51-.74-.76-1.12,1.44,1.28,2.78,2.61,3.55,4.55,.34-.7,.34-1.25,.06-1.73-.77-1.31-1.58-2.58-2.37-3.88-.17-.28-.32-.58-.48-.87l.22-.12,2.38,3.58q.05-1.58-.61-2.6c-.07-.1-.11-.22-.17-.32-.65-1.12-1.3-2.25-1.96-3.36-.24-.4-.51-.77-.77-1.16,1.6,1.33,2.6,3.09,3.6,4.85l.31-.17c-.55-2.13-1.4-4.13-2.88-5.86,1.24,.54,1.65,1.8,2.48,2.71-.14-1.07-.46-2.1-.55-3.14-.07-.82-.41-1.43-.89-2.01-1.05-1.29-2.12-2.56-3.18-3.84-.17-.21-.33-.43-.49-.65l.2-.15,3.97,4.57,.25-.19c-.61-2.54-2.66-4.24-3.95-6.38,1.38,1.04,2.19,2.59,3.41,3.79-.67-2.13-1.81-4-3.1-5.81,1.3,1.03,2.05,2.47,3.04,3.79,.11-.33,.14-.65,.16-.96,.06-1.08-.52-1.88-1.11-2.7-.71-.99-1.37-2.02-2.05-3.03l.2-.15c.91,1.21,1.82,2.42,2.82,3.76,.05-.32,.1-.49,.09-.65-.07-1.22-.84-2.12-1.47-3.06-.64-.95-1.36-1.86-2.04-2.79l.19-.15c1.03,1.24,2.06,2.49,3.12,3.77,.36-.64,.11-1.17-.21-1.7-.76-1.24-1.51-2.48-2.26-3.73-.03-.06,.01-.16,.02-.24l.17-.1c.74,1.04,1.47,2.09,2.21,3.13-.56-2.35-1.98-4.17-3.61-5.87l.26-.2c.98,1.04,1.96,2.09,2.99,3.19-.07-.45-.06-.86-.21-1.2-.85-1.9-2-3.59-3.51-5.04-.13-.12-.2-.3-.3-.45,1.62,.99,2.55,2.57,3.66,4.03,.06-.31,.07-.58,0-.83-.17-.64-.38-1.27-.57-1.91-.96-3.2-4.3-5.09-7.48-4.19-1.39,.39-2.71,.92-3.34,2.39-.38,.89-.76,1.78-1.12,2.67-.08,.19-.06,.41-.08,.62-.05,.89,0,1.81-.17,2.68-.38,1.97-.34,3.95-.33,5.94,0,.84-.02,1.68-.05,2.52-.02,.45-.13,.89-.12,1.33,.05,1.28,.15,2.56,.22,3.84-.09,.24,.03,.47,.04,.71,.11,1.8,.31,3.6,.27,5.4-.04,1.62-.3,3.24-.54,4.84-.24,1.63-.6,3.25-.85,4.88-.25,1.63-.03,3.29-.35,4.93-.13,.66,.21,1.41,.28,2.12,.05,.43,0,.87,0,1.49l.3,.65c1.14-.17,2.23-.32,3.32-.48,.18-.03,.36-.03,.54-.08,1.18-.32,2.26,.2,3.38,.4,.4,.07,.71,.36,.46,.89l-2.31-.66-.23,.37c-1.6,.24-3.18,.47-4.84,.71,0,.42-.07,.74,.01,1,.22,.7,.09,1.36-.04,2.05-.35,1.9-.68,3.81-.9,5.74-.26,2.22-.37,4.46-.58,6.68-.08,.84-.23,1.68-.41,2.5-.44,1.95-.92,3.88-1.38,5.8l-1.57,.68c-.49-.45-.99-.79-1.33-1.25-.87-1.2-1.67-2.46-2.49-3.69-.44-.66-.88-1.33-1.32-2l.18-.13c1.19,1.57,2.37,3.15,3.56,4.72-1.02-2.92-3.07-5.29-4.15-8.16,1.23,1.88,2.46,3.77,3.69,5.65l.2-.1c-.13-.36-.21-.74-.39-1.07-.53-.95-1.12-1.88-1.64-2.83-.56-1.02-1.07-2.06-1.6-3.1l.16-.09,3.31,5.18,.21-1.3-3.64-6.82,.22-.12c1.13,1.87,2.26,3.75,3.4,5.62-.06-.85-.14-1.73-.45-2.51-.41-1.04-1.01-2-1.54-2.99-.57-1.05-1.15-2.1-1.72-3.15l.22-.13,3.13,5.1,.66-.95-.52-.27,.12-.62,.19-.93Zm-30.64,138.55l-.03,.27c.21,.04,.5,.19,.62,.1,.76-.53,1.51-.18,2.25-.04l.4-.43c.65,.8,1.3,.43,1.94-.02l.97,.64c-.66,.11-1.19,.12-1.65,.3-.55,.21-1.06,.3-1.65,.26-1.2-.09-2.41-.11-3.61-.14-.16,0-.33,.09-.5,.13l.02,.19c.78,.11,1.65,.03,2.3,.37,.73,.39,1.45,.09,2.14,.34l.56-.24c.56,.46,1.11,.35,1.66,.05l.3,.44,.55-.51,3.06,.52s.08-.11,.19-.26l.39,1.05,.53-.78,1.81,.26,1.55-.3,.2,.65,.32-.23,1.4,.36,.56-.87c.24,.2,.47,.38,.69,.56l.52-.28,.07,.7,.38-.34c.65,0,1.14,0,1.63,0,.5,0,.99-.03,1.48-.05,.46-.02,.87,.04,1.1,.51l.48-.45c.42,.05,.83,.09,1.24,.14,.41,.05,.82,.11,1.34,.17l1.09-.36c.63,.13,1.26,.09,1.87,.14,.84,.08,1.67,.24,2.5,.34,.22,.02,.45-.06,.67-.11,.18-.04,.36-.13,.55-.14,.78-.02,1.56,0,2.32,0l.18,.42c.84-.63,1.61-.49,2.39,.02l.53-.35v.14l7.68-.25c.4-.25,.63-.39,.86-.53,.02-.01,.01-.05,.05-.21-2.56,.4-5.07,.25-7.58-.28l-.24,.38-2.35-.49-.08-.72-.73-.14c2.2-.2,4.37-.29,6.55-.38,2.14-.09,4.3-.08,6.41-.62-.16-.11-.32-.19-.48-.18-2.2,.03-4.41,.12-6.61,.1-1.28-.01-2.56-.21-3.84-.28-.48-.03-.97,.11-1.45,.08-1.3-.07-2.59-.24-3.89-.29-1.87-.08-3.75-.11-5.62-.13-2.36-.02-4.72,0-7.09,0-1.45,0-2.91-.04-4.36-.02-.64,0-1.27,.11-1.96,.18-3.73-.2-7.52-.52-11.47-.06-.53-.24-1.22-.31-1.9,.15l1.54,.19v.16l-.74,.17Zm42.9,7.73l.11,.09-3.47,5.92c1.25-.48,1.91-1.39,2.73-2.07l.17,.16-2.38,2.9,7.65-.43c-.36-.95-1.57-.96-1.82-1.92,.39,.1,.73,.25,1.05,.45,.56,.35,1.11,.73,1.66,1.11,.43,.29,.83,.28,1.34-.12-.68-.54-1.3-1.05-1.94-1.53-.64-.49-1.31-.94-1.96-1.41l.13-.18,3.97,2.61,.18-.25-4.18-3.54c1.49,.67,2.55,1.96,3.99,2.68l.15-.19-3.19-3.02,.14-.15c1.78,1.49,3.54,3.02,5.69,4-1.36-1.6-3.11-2.84-4.23-4.65,1.62,1.26,2.98,2.83,4.88,3.77-.04-.38-.16-.7-.36-.95-.19-.23-.5-.35-.7-.57-1.56-1.61-3.11-3.24-4.65-4.86-.15-.16-.25-.36-.38-.54,1.91,1.58,3.65,3.32,5.66,4.77-.43-.62-.96-1.15-1.47-1.69-.52-.55-1.05-1.1-1.53-1.69-.47-.58-1.16-.99-1.48-1.67l.19-.18c1.31,1.22,2.63,2.44,3.95,3.66,.04-.85-1.4-2.91-2.99-4.3l-9.3,.2c-.74,.98-1.62,2.96-1.51,3.46,.73-.97,1.43-1.92,2.14-2.86l.17,.1c-.43,.85-.84,1.7-1.29,2.54-.44,.82-.91,1.63-1.36,2.44l.25,.16c1.15-1.27,2.29-2.53,3.44-3.8-1.19,2.02-2.55,3.92-3.47,6.25,.32-.14,.54-.17,.63-.29,1.15-1.47,2.28-2.95,3.41-4.42Zm-41.04-2.32l.1-.14,3.2,3.65c.03-.14,.07-.25,.08-.36,.01-1.11-.47-2.02-1.15-2.87-.51-.63-.97-1.31-1.45-1.96l.14-.11,2.28,2.14,.18-.07-.75-2.27c.2,0,.31,.01,.43,0,.12-.01,.24-.05,.35-.08v-.22c-3-.38-6.02-.52-9.16-.67,.07,1.66,.14,3.23,.2,4.8,.02,.42,.03,.85-.01,1.26-.13,1.26-.29,2.52-.42,3.78-.02,.2,.04,.42,.1,.62,.23,.75,.47,1.49,.66,2.11l5.6,.41,.08-.19-.84-1.18,.1-.08,1.35,1.12c-.14-.55-.36-1.03-.67-1.45-.31-.42-.7-.79-1.05-1.18l.14-.12c1.42,.86,2.28,2.39,3.74,3.21-.7-1.85-2.18-3.11-3.41-4.55l.14-.13,3.43,3.29c-.03-.32,.02-.65-.1-.88-.52-.95-1.06-1.89-1.65-2.8-.63-.97-1.32-1.9-1.99-2.85,1.59,1.1,2.63,2.7,3.79,4.29,.07-1.03,.06-1.09-.35-1.73-1.03-1.6-2.07-3.19-3.1-4.79Zm68.49-9.74c-.42-.07-.83-.13-1.24-.2-.44-.07-.9-.08-1.32-.21-1.18-.39-2.29-.94-3.58-1.08-1.98-.23-3.93-.68-5.9-.99-.97-.15-1.96-.2-2.98-.3-.19,1.64-.94,3.09-.55,4.61,2.28-.07,4.44-.15,6.61-.19,2.48-.05,4.95-.13,7.36-.76,.43-.11,.88-.15,1.39-.23,.04-.07,.13-.19,.19-.32,.03-.08,0-.18,0-.32Zm-76.56-2.77c-3.81,.52-7.52,1.23-11,2.85,3.75,.11,7.44,.82,11.16,.85,.33-1.36,.36-2.54-.16-3.7Zm-.88,21.83l.97-4.87c-1.51,.64-2.94,1.25-4.38,1.85-1.04,.43-2.09,.86-3.29,1.35l.91,.98c.52-.03,.86-.11,1.18-.05,.96,.18,1.91,.45,2.88,.62,.52,.09,1.05,.08,1.73,.12Zm61.48-5.78l-.12,.17c.41,1.46,.82,2.91,1.22,4.34,1.59,.07,5.02-.69,5.8-1.28-2.31-1.08-4.61-2.16-6.9-3.23Zm-1.71-2.55l.28-1.07h-.13l-.33-1.63-1.9,.18c0,.16-.03,.24,0,.28,.65,.71,1.3,1.41,2.07,2.24Zm-2.08-20.08c.35,.47,.74,.92,1.05,1.41,.41,.66,1.16,.46,1.72,.79-.34-1.24-1.62-2.38-2.78-2.2Zm-55.09,12.67l.02,.35h2.15v-.25c-.71-.32-1.45-.1-2.17-.1Zm83.89-153.75c-.68,.51-.69,.63,0,1.19v-1.19Zm-77.29,174.24v-.27l-1.12,.12v.15h1.12Zm26.99-182.54l-.24,.18,.45,.62,.24-.19-.45-.62Zm20.55,163.04v-.21l-1.04,.06v.15h1.04Zm-87.46-59.54l-.24-.18-.42,.73,.13,.09,.53-.64Zm77.52,63.8l-.21-.09-.3,.58,.32,.26c.05-.14,.11-.28,.14-.43,.03-.1,.03-.21,.04-.31Z"
  />
  <path fill="#58b6d0"
    d="M230.22,193.43c-1.22-1.14-2.45-2.27-3.67-3.41l-.22,.2c.67,1.43,1.79,2.55,2.71,3.82-1.65-1.02-2.69-2.65-4-4.02,.32,1.47,1.24,2.65,1.9,3.97-1.19-.97-2.11-2.16-3.06-3.6l-2.48,9.96h-.28c-.85-3.01-.81-6.15-1.26-9.21l-.24-.02c-.19,1.23-.38,2.45-.56,3.68l-.21-.02v-3.69l-.18-.05-1.64,4.13-.18-.06c.44-1.82,.87-3.64,1.31-5.45l-.26-.1c-.97,1.22-1.46,2.73-2.52,3.93,.29-.72,.59-1.43,.88-2.15,.3-.73,.6-1.46,.8-2.28-1.32,.64-2.24,1.73-3.32,2.64,.7-1.52,2.12-2.46,3.13-3.72l-.16-.21-3.35,2.01-.93-.1c-.22-1.24,.74-2.03,1.22-2.99l-.22-.17-1.61,1.13-1-.3-.91,.26c.88-1,2.25-1.31,3.16-2.56-1.86,.33-3.35,1.29-5,1.61l-.12-.31c1.41-.62,2.82-1.24,4.23-1.85v-.2c-1.64,.1-3.27,.2-4.89,.3l-.03-.29c1.1-.18,2.2-.35,3.3-.53v-.11l-1.53-.16v-.16c.92-.09,1.84-.17,2.76-.26l.02-.34-6.29-1.36c2.09-1.05,4.3-1.07,6.3-2.1-.94-.61-2.03-.64-2.83-1.22l.07-.17c1.48,.34,2.96,.67,4.44,1,.05,.01,.13-.09,.34-.24-1.53-.85-3.17-1.31-4.6-2.15l.09-.19,3.38,.98,.09-.19c-.69-.99-1.83-1.47-2.62-2.4l3.44,1.93,.16-.19-3.07-3.31,.14-.15,4.08,3.52,.16-.15c-.63-1.77-1.58-3.38-2.69-4.92l.23-.15,1,1.28h1.82c-.89-1.55-1.72-2.99-2.54-4.43l.17-.11c.96,1.34,1.92,2.67,2.88,4.01l.19-.11-1.51-3.28,.2-.11c1.05,1.5,2.11,2.99,3.2,4.55,.08-.96-.53-1.6-.84-2.34-.34-.81-.66-1.63-1.05-2.42-.37-.74-.83-1.45-1.16-2.22,1.4,1.66,2.41,3.57,3.38,5.52-.1-1.52-.69-2.91-1.07-4.35l.23-.09,1.35,2.9h.17l.13-2.47h.26l.6,5.51h.1v-3.29l.16-.02,.4,1.67c.45-1.68,.9-3.25,1.28-4.83,.17-.73,.15-1.5,.32-2.23,.13-.58,.42-1.12,.79-1.66,.02,3.48,1,6.77,1.53,10.13h.19l1.29-5.54,.21,.04c.02,1.51-.44,2.95-.58,4.47l1.82-3.81,.2,.09c-.42,1.4-.83,2.8-1.25,4.21l.19,.09c.57-.71,.91-1.57,1.32-2.38,.42-.84,.83-1.68,1.24-2.51l.18,.07-1.71,4.53,.17,.1,1.21-1.81,.12,.04c-.16,.41-.33,.82-.49,1.23-.17,.4-.34,.81-.51,1.21l.17,.14,.91-.6,.12,.07-1.12,1.72c1.18-.32,2.24-.67,3.49-.32l-1.78,2.95c1.78-.99,3.09-2.52,4.61-3.8l.12,.13c-.83,.93-1.66,1.85-2.49,2.78l.16,.24,1.64-.66,.12,.18c-.44,.31-.88,.62-1.32,.92-.44,.3-.88,.61-1.28,.99,1.25-.18,2.15-1.27,3.52-1.27-.9,.83-2.06,1.19-2.85,2.04l.09,.16,2.3-.89,.09,.15c-1.07,.67-2.15,1.33-3.23,2,.52,.51,3.33,1.11,5.48,1.19l.89,.71v.2c-.99,.09-1.96,.17-2.72,.24-.85,.28-1.49,.52-2.15,.7-.66,.18-1.33,.29-1.99,.44v.29c1.73,.39,3.45,.79,5.17,1.18l-.03,.22c-1.33-.15-2.65-.31-3.98-.46l-.08,.32c.92,.38,1.84,.76,2.75,1.15l-.04,.15-3.07-.51c1.05,1.09,2.26,1.6,3.34,2.31-1.57-.15-2.75-1.25-4.19-1.71l-.15,.2,1.64,1.53-.1,.14-2.31-1.54-.17,.1,.82,2.88-.21,.19c-.79-.29-1.58-.59-2.37-.88l-.13,.19c.93,.88,1.87,1.76,2.8,2.64l-.07,.12-1.88-1.12-.17,.13c.16,.47,.58,.79,.89,1.17,.34,.41,.66,.82,.99,1.23l-.23,.17Zm-21.4-12.34l-.02,.33c.42,.11,.83,.25,1.26,.33,.38,.07,.79,.03,1.16,.11,1.15,.25,2.3,.52,3.44,.8,.58,.14,1.18,.27,1.54,.78,.02,1.24-.49,2.17-1.33,3-.42,.41-.65,1.01-.93,1.54-.06,.11,.02,.3,.03,.4,.95-.53,1.83-1.08,2.76-1.52,.95-.44,1.87-1.13,3.1-.88,.54,3.66,1.07,7.27,1.6,10.88,.39-1.04,.69-2.08,.92-3.13,.32-1.48,.68-2.96,.85-4.45,.14-1.23,.22-2.37,1.6-2.62,1.55,.27,2.63,1.61,4.3,1.48-.12-1.44-.94-2.45-1.69-3.62l.12-.85c1.16-.42,2.2-.84,3.26-1.16,1.03-.3,2.12-.4,3.11-.94-2-.56-3.93-1.31-6.04-.81,0-.42-.02-.71,0-1,.05-.47,.01-.99,.22-1.38,.48-.9,1.11-1.73,1.64-2.6,.22-.36,.36-.77,.58-1.27-1.53,.13-2.34,1.76-3.58,1.29l-2.04,.81c-.65-1.5-.8-3.05-1.1-4.56-.29-1.51-.53-3.02-.99-4.67-.16,.27-.23,.34-.24,.41-.51,2.71-.98,5.41-1.86,8.04-.31,.92-.93,1.22-1.73,1.54l-.48-1.05c-.84-.58-1.7-1.17-2.55-1.76l-.16,.13,.8,2.86-.6,1.61c-2.35,.65-4.65,1.3-6.95,1.94Z"
  />
  <path fill="#58b6d0"
    d="M142.2,275.86c-.4,1.35-.05,2.79,.19,4.25,.07,.39-.21,.85-.33,1.27h-.28c.43,1.19,.82,2.38,1.29,3.55,.46,1.14,1,2.25,1.5,3.38,.07,.17,.14,.34,.23,.49,.74,1.24,.75,1.25-.17,2.34-.56,.66-1.22,1.22-2.13,1.26-1.16,.05-2.31,.57-3.5,.14-1.22-.43-2.43-.88-3.19-2.05-.37-.57-1.01-.99-.92-1.65,2.31-2.2,3.49-4.85,4.27-7.76l-.9-.53c-.17-.69-.12-1.31,.19-2,.33-.75,.44-1.6,.63-2.37-1.25-.85-2.61-2.78-3.08-4.35h-3.09l.32-.83h5.26c.38-.84,.73-11.29,.45-12.93,.27-.95,1.08-1.23,2.03-1.53l.23-4.16h-.65c-1.04-1.03-1.06-2.22-.99-3.6,.09-1.89,.51-3.7,.83-5.54,.17-.98,.43-1.94,.65-2.95,.59-.27,.81-.17,1.06,.5,.28,.76,.57,1.5,.82,2.27,.51,1.55,1.02,3.1,1.47,4.67,.33,1.14,.02,2.21-.51,3.23-.15,.29-.3,.59-.45,.88-.97,.29-1.25,.62-1.27,1.63-.02,1.05,0,2.11,0,3.31l1.22,.34c.06,.17,.27,.5,.28,.82,.04,2.48,.05,4.97,.07,7.45,.01,1.27,.05,2.54,.04,3.81,0,.57-.1,1.13-.18,1.88h5.69c-.39,.9-1.01,.62-1.47,.68-.52,.07-1.06,.02-1.45,.02l-2.2,3.42-1.97,.66Zm.07-4.79c.19-4.49,.31-8.8,.03-13.14-.82,.09-1.64-.21-2.32,.39l-.26,12.66c.35,.04,.56,.09,.77,.09,.63,0,1.26,0,1.79,0Zm-1.25,.83c-1.18-.27-3.59-.15-4.2,.23,.99,1.41,1.43,3.37,3.69,3.33,.58-.27,1.13-.66,1.73-.77,1.12-.2,1.69-1,2.28-1.79,.29-.39,.15-.79-.19-1.01l-1.19,1.96-2.28,.76-1.19-.06-.11,.11-.52-.5c.05-1.29,.05-1.29,1.12-1.47,.43-.07,.71-.28,.86-.78Zm2.46,16.8c-2.03,.98-3.97,1.09-5.96,.28l-.56-.71c-.09,.25-.23,.46-.18,.54,.23,.34,.47,.74,.81,.93,.93,.53,1.94,.74,3.03,.78,1.4,.05,2.45-.46,3.3-1.6l-.45-.23Zm-3.87-4.67l-.21-.02-2.02,3.8,1.4,.47c.49-1.49,.88-2.83,.82-4.25Zm-.19-3.97l1.04-.17c.13-1-.27-3.1-.73-3.5,.28,1.29-.96,2.33-.32,3.68Zm3.72,7.74c-.31-1.49-1-2.7-1.69-3.92l.81,4.05,.88-.13Zm-2.13-37.43l.29,.57,.96-.59-.47-.64-.78,.65Z"
  />
  <path fill="#58b6d0"
    d="M265.85,214.39c1.54-.56,2.74,.2,4,.39,1.23,.19,2.41,.69,3.58,1.05,3.25-1.31,6.28-.94,8.96,1.21,3.32,2.67,4.01,6.17,2.77,10.2l.8,.43c.74,2.03,2.16,3.81,2.41,6.09-.47,.87-1.37,.88-2.07,.71-1.69-.41-3.4-.88-4.77-2.07-.09-.08-.15-.19-.28-.36-.45,.11-.92,.19-1.36,.34-2.93,.98-7.03,.69-9.38-2.01-1.09-1.25-1.89-2.55-2.4-4.09-.48-1.46-.29-2.89,.08-4.29,.22-.82,.05-1.38-.41-2.08-.81-1.23-1.49-2.55-2.07-3.9-.19-.44,.08-1.09,.14-1.63Zm15.11,3.78l-.21,.03c-.05,.56-.07,1.14-.18,1.69-.06,.34-.22,.67-.39,.99-.5,.95-1.01,1.88-1.46,2.71,.46,1.54,1.1,2.75,2.28,3.6,.76,.54,1.52,1.09,2.34,1.66l.3-.55c-.75-.92-1.51-1.71-2.08-2.61-.67-1.05-1.11-2.22-.79-3.53,.16-.67,.31-1.35,.47-2.03,.16-.7-.01-1.35-.29-1.97Zm-3.69,2.75c-.19,2.98,.59,5.57,3.04,7.49,.67,.53,1.42,.96,2.17,1.46l.23-.46c-.93-.72-1.83-1.42-2.72-2.12-1.11-.87-1.52-2.15-1.92-3.42-.08-.24-.07-.57,.03-.8,.41-.94,.87-1.85,1.3-2.78,.16-.35,.39-.7,.43-1.06,.07-.63,.02-1.27,.02-1.88l-.89-1.13c-.19,.75-.15,1.47-.28,2.16-.14,.73-.45,1.42-.7,2.16l-.7,.36Zm-5.24,9.55l1.71,1.03c.16-1.29,.84-1.92,1.89-2.13,1.24,.51,2.37,1.09,2.68,2.56l1.23-.3-.12-.66c-.58-.39-1.07-.63-1.43-1-.18-.19-.32-.29-.54-.42-.76-.46-1.65-.76-2.18-1.56-.22-.34-.56-.6-.81-.85-1.43,.69-2.26,1.67-2.43,3.33Zm1.72-6.27c1.14-1.51,1.75-3.04,1.52-4.81-.12-.92-.6-1.64-1.62-1.78l-.23-.78-.81,.64,.68,.55c.81,1.75,.22,3.19-1.06,4.52l1.54,1.66Zm11.11,1.25c-1.43-.47-1.75-1.64-2.18-2.7-.51-1.27-.12-2.36,.84-3.3l-1.36-1.72-.24,.12,.21,2.14c-.2,1.11-.34,2-.52,2.88-.19,.97,.09,1.83,.77,2.49,.62,.59,.83,1.59,1.86,1.96l.62-1.86Zm-2.22,5.48c.76,1.12,2.83,2.09,4.02,1.85l-2-4.31c-.7,.86-1.35,1.64-2.02,2.46Zm-8.44-14.42c1.52,1.04,2.14,2.34,1.99,3.98-.14,1.54-.61,2.94-1.92,3.97l.6,.74c.84,.15,1.49,.26,2.13,.37-.17-.54-.4-1.04-.48-1.56-.1-.67-.08-1.35-.11-2.03,.39-2.02,.31-3.3-.36-4.64l-1.19-1.08-.66,.25Zm-6.87-.49c.19,1.34,.91,2.35,1.75,3.43l2.51-2.75c-1.45-.47-2.84-.43-4.26-.69Zm4.13,5.69c1.21-1.18,1.4-2.47,.8-3.92-.9,.46-1.99,1.79-2.21,2.76l1.41,1.16Zm1.84,4.06l-.44-.32c-.98,.29-1.88,.56-2.96,.88l-.65-.1,.61,1.82c1.15-.76,2.24-1.48,3.44-2.27Zm11.42-1.15c.35-1.39,.02-2.99-.79-4.09-1.14,1.2-.53,2.25,.79,4.09Zm-14.93,.91l2.26-.78c-.34-.36-.69-.74-1.06-1.14-.43,.68-1.1,.49-1.89,.15v1.22l.69,.55Zm4.42,6.04c1.82,.65,2.43,.67,2.9,.13-.37-.65-.88-1.11-1.74-1.19l-1.16,1.06Zm2.07-15.71c.46,1.2,.84,2.18,1.27,3.29,.42-1.07,.29-2.06,.29-3.13l-1.55-.16Zm-3.64,11.08l-.07-.17c-.54,.48-1.13,.92-1.59,1.47-.21,.25-.22,.73-.22,1.1,0,.15,.27,.3,.39,.42,.53-.99,1.01-1.91,1.5-2.82Zm-3.22-5.08l-.24,1.14c.58,.26,.98,.35,1.12-.41l-.88-.73Z"
  />
  <path fill="#58b6d0"
    d="M263.42,194.63c.93-.27,1.63-.47,2.41-.69l.16,.89c-6.88,4.86-13.75,9.7-20.69,14.6l-1.13-.15c1.62-2.21,3.81-3.46,5.86-4.96-.7-1.35-1.87-2.24-2.74-3.39l.22-.94,1.29-.28c.83,1.21,1.65,2.4,2.53,3.67,1.48-.64,2.59-1.69,3.83-2.55,1.26-.87,2.56-1.69,3.82-2.52,.14-1.01-.55-1.6-1.09-2.14-1.75-1.75-3.54-3.5-5.79-4.63-.64-.32-1.35-.58-2.06-.69-1.93-.29-3.82-.57-5.83-.31-1.64,.21-2.82,1.16-4.25,1.65-.35,.12-.71,.23-1.06,.34l-.17-.18c.06-.2,.06-.47,.19-.59,1.15-1.02,2.25-2.12,3.5-2.98,2.29-1.57,4.84-2.61,7.63-2.86,.96-.09,2,.07,2.94,.35,1.88,.58,3.72,1.34,5.19,2.68,1.47,1.33,2.8,2.81,4.16,4.26,.42,.45,.74,.99,1.07,1.45Zm-.72,.67c-.11-.31-.14-.57-.28-.75-.59-.76-1.15-1.55-1.83-2.23-1.93-1.95-3.92-3.78-6.54-4.89-1.79-.76-3.54-.75-5.31-.52-1.07,.14-2.09,.74-3.12,1.15-.12,.05-.2,.2-.4,.41,7.36-1.26,12.64,1.82,16.79,7.47l.69-.64Z"
  />
  <path fill="#58b6d0"
    d="M209.4,203.81c.39,.66,.68,1.38,.68,2.15,0,2.67-.7,5.15-2.36,7.29-1.3,1.68-2.93,2.9-4.89,3.78-1.45,.65-2.9,.97-4.46,.94-1.91-.03-3.7-.43-5.35-1.44-1.85-1.13-3.32-2.61-4.36-4.52-1.52-2.79-1.89-5.71-.99-8.78,1.26-4.3,4.35-6.73,8.43-8.04,.93-.3,2.04-.17,3.05-.09,.71,.06,.82,.38,.56,1.06-1.26,.04-2.02,.93-2.79,1.77-.52,.58-.98,1.23-1.42,1.89-1.04,1.58-1.65,3.23-1.25,5.22,.56,2.79,2.03,4.78,4.72,5.71,1.42,.49,2.86,.39,4.32-.26,1.56-.69,2.62-1.78,3.48-3.18,.39-.64,.89-1.22,1.32-1.85,.18-.27,.29-.59,.45-.87,.17-.29,.36-.56,.54-.83l.32,.07Zm-18.89,2.94c.34-1.71,.74-3.38,2.23-4.53l.2-1.47c-1.18,.48-1.58,1.47-2.21,2.33-.07-.2-.11-.26-.1-.31,.02-.12,.05-.24,.11-.34,.5-.93,1.02-1.84,2.05-2.34,.83-.41,1.03-.73,1.19-1.62-.83,.68-1.54,1.26-2.25,1.84l-.14-.21c1.24-1.64,2.8-2.86,4.82-3.46l.51-.78c-2.59,.33-5.88,2.09-7.74,5.79-2.22,4.43-1.28,8.59,2.05,12.8,4.13,3.99,9.94,3.48,13.59,.76,2.88-2.15,4.48-4.95,4.52-8.57l-.2-.12-2.01,3.35,.53,.42-.1,.22-1.2-.11-1.31,.86,.09,.2,.93,.21c-.64,1.08-1.49-.07-2.12,.29q.84,1.18,.68,1.62c-1.17-1.05-2.09-1.46-2.73-1.18,.16,.8,1.43,.92,1.12,2.07-.74-.67-1.48-1.35-2.28-2.08l-.58,.19c.28,.86,.85,1.55,1.03,2.5-.25-.08-.37-.08-.41-.14-.58-.81-1.18-1.61-1.72-2.44-.24-.36-.48-.51-.86-.37-.23,.64,.73,.99,.29,1.86-.73-1.1-1.38-2.07-2.02-3.03-.23,1.03,.47,1.87,.26,3.05-.21-.38-.35-.57-.42-.79-.27-.83-.54-1.67-.76-2.52-.12-.43-.24-.8-.85-.92v2.92l-.22,.03c-.07-.23-.17-.46-.19-.7-.12-1.05-.21-2.11-.35-3.16-.05-.39-.22-.77-.33-1.15l-.29,.03-.34,3.32c-.18-.27-.32-.39-.31-.49,.05-1.05,.04-2.12,.23-3.15,.13-.69,.01-1.25-.16-1.85l-.19-.03-1.08,3.03-.21-.05c0-.34-.09-.72,.02-1.03,.3-.89,.61-1.77,1.03-2.6,.27-.54,.41-1.03,.21-1.71-1.02,1.06-1.19,2.48-1.98,3.55Z"
  />
  <path fill="#58b6d0"
    d="M230.85,273.41c-.16-.11-.42-.19-.46-.33-.42-1.42-1.25-2.6-2.08-3.78-.05-.07-.07-.16-.1-.24l.15-.12c.45,.6,.9,1.19,1.35,1.79,.44,.58,.6,1.39,1.33,1.75l-.19,.93Z"
  />
  <path fill="#58b6d0"
    d="M251.44,344.42l-.31,1.54,5.11,1.07c-1.9,.56-3.64-.24-5.6-.58-.29,.61-.61,1.23-.9,1.86-.26,.57-.48,1.16-.76,1.72-.19,.38-.48,.39-.74,.12,.66-1.29,1.3-2.53,1.97-3.86-1.11-.85-2.39-1.34-3.63-1.88-.9,.12-.95,.97-1.31,1.5-.63,.95-1.11,1.99-1.7,2.96-.16,.26-.46,.43-.7,.64l.02,.02c.26-.53,.48-1.07,.77-1.58,.68-1.2,1.39-2.39,2.09-3.61-.11-.15-.16-.32-.28-.38-1.36-.66-2.75-1.26-4.08-1.97-1.6-.86-3.14-1.83-4.71-2.75-.56-.33-1.13-.65-1.67-.99-.13-.08-.2-.27-.29-.41l-.02,.02c1.05,.53,2.1,1.04,3.14,1.58,1.05,.55,1.87,1.54,3.28,1.59,.04-.49,.12-1,.1-1.5-.07-1.38-.26-2.76-.27-4.15-.01-1.36,.16-2.72,.21-4.07,.04-1.09,.02-2.17,.02-3.26,0-.11-.09-.22-.16-.39l-1.5-.67,.05-.19,1.48,.31c.46-1.03-.15-14.61-.81-17.01-1.27,0-2.59,.05-3.9-.01-1.8-.08-3.6-.14-5.33-.77-2.31-.84-4.62-1.66-6.98-2.5-.02,.14-.07,.34-.06,.54,.11,2.48,.22,4.96,.33,7.43,.01,.27,.02,.55-.03,.82-.26,1.14,.44,1.74,1.26,2.27,.64,.42,1.28,.83,1.93,1.25l-.16,.27c-.93-.58-1.87-1.17-2.89-1.81-.06,.35-.16,.6-.15,.86,.04,1.15,.1,2.3,.16,3.45,.03,.66,.14,1.33,.09,1.99-.15,1.79,.22,3.55,.39,5.31,.04,.47,.42,.91,.53,1.15l1.88,1.46c-.73,.29-.87-.21-1.15-.44-.3-.24-.62-.45-1.14-.82,.09,.95,.17,1.68,.21,2.41,.15,2.54,.28,5.07,.44,7.61,.06,.97,.27,1.93,.28,2.89,.05,2.48,.01,4.95,.03,7.43,0,1.06,.11,2.11,.09,3.17-.02,1.36-.12,2.71-.15,4.07-.03,1.68,0,3.36-.04,5.04-.04,1.62-.18,3.24-.22,4.86-.06,2.29-.06,4.59-.09,6.88,0,.43,0,.87,0,1.3l.19,.09,1.52-1.86,.2,.12c-.08,.18-.13,.39-.25,.54-.36,.48-.82,.91-1.11,1.43-.26,.45-.49,1-.5,1.51-.01,1.48,.09,2.97,.15,4.45,0,.11,.07,.21,.17,.49,.61-.59,1.17-1.07,1.66-1.62,.6-.68,1.11-1.43,1.7-2.12,.16-.18,.44-.25,.67-.37l-.02-.02c-.42,.54-.84,1.09-1.27,1.62-.86,1.04-1.73,2.07-2.66,3.18,.05,1.14,.06,2.4,.17,3.66,.11,1.21,.21,2.41-.14,3.61-.59-2.13-.4-4.32-.64-6.7l-2.97,2.6-.2-.18c.19-.23,.37-.47,.59-.68,.31-.29,.62-.59,.97-.82,1.16-.76,1.69-1.7,1.36-3.17-.23-1.01-.13-2.09-.18-3.14l-.18-.12c-.44,.43-.92,.82-1.3,1.29-.89,1.07-1.69,2.2-2.6,3.25-.54,.63-1.22,1.14-1.81,1.73-.21,.21-.34,.51-.55,.72-.63,.64-1.27,1.25-1.93,1.86-.06,.06-.23,0-.35,0l.02,.02c.03-.05,.04-.12,.08-.16,1.19-1.24,2.42-2.45,3.58-3.71,.98-1.07,1.89-2.19,2.82-3.3,.62-.74,1.22-1.49,1.83-2.23,.35-.42,.46-.88,.43-1.43-.1-1.87-.23-3.74-.19-5.6,.03-1.56,.34-3.11,.41-4.68,.06-1.44,.23-2.86,.27-4.3,.06-1.88-.41-3.77,.14-5.67,.23-.8,.01-1.74,0-2.62-.04-2.17-.08-4.34-.12-6.52-.03-1.74,0-3.47-.09-5.21-.08-1.57-.29-3.13-.41-4.69-.09-1.15-.11-2.3-.21-3.44-.11-1.3-.24-2.59-.42-3.88-.05-.32-.3-.66-.55-.89-1.91-1.77-3.83-3.52-5.77-5.25-.51-.46-1.12-.81-1.66-1.24-.93-.76-1.82-1.57-2.76-2.31-1-.78-2.05-1.49-3.08-2.22-.46-.33-.94-.64-1.41-.97-1.16-.8-2.27-1.69-3.5-2.37-1.15-.64-2.46-1-3.64-1.61-1.59-.82-3.29-1.36-5.01-1.78-.79-.19-1.67-.03-2.62-.03l-.38-.66c1.92-.01,3.66,.28,5.33,.86,1.17,.4,2.29,.95,3.41,1.47,1.12,.52,2.21,1.11,3.33,1.61,1.9,.84,3.54,2.05,5.13,3.38,1.73,1.44,3.54,2.79,5.31,4.18,.69,.54,1.41,1.04,2.08,1.61,.75,.64,1.47,1.32,2.18,2.01,.83,.79,1.62,1.62,2.45,2.4,.23,.21,.54,.34,.96,.61,.19-1.52-.36-2.8-.35-4.13,0-1.39-.02-2.78-.06-4.17-.04-1.35-.12-2.7-.17-3.8-1.26-1.16-2.3-2.13-3.35-3.07-.76-.69-1.61-1.3-2.31-2.04-1.31-1.37-2.54-2.81-3.8-4.23-.34-.38-.64-.79-1.01-1.13-1.09-.99-1.85-2.21-2.6-3.45-.48-.8-1.06-1.56-1.7-2.23-1.21-1.29-1.85-2.88-2.65-4.65,.28,.23,.48,.32,.55,.46,1.07,2.18,2.51,4.11,4.03,5.99,.95,1.17,1.73,2.47,2.69,3.63,1.3,1.58,2.67,3.11,4.06,4.62,.59,.64,1.3,1.16,1.95,1.75,1.15,1.06,2.29,2.13,3.45,3.19,.17,.15,.38,.26,.64,.44,.09-.25,.21-.41,.2-.56-.04-1.36-.1-2.72-.16-4.08-.01-.3-.05-.6-.06-.91-.04-1.45-.08-2.89-.11-4.37-.9-.61-1.72-1.23-2.6-1.74-2.2-1.28-4.05-2.96-5.71-4.85-.75-.85-1.25-1.92-1.85-2.9-.31-.5-.61-1.01-.8-1.6,.69,.68,1.17,1.5,1.7,2.3,.56,.86,1.19,1.68,1.87,2.44,.66,.74,1.39,1.42,2.15,2.06,.78,.66,1.61,1.27,2.46,1.83,.82,.54,1.7,1,2.67,1.56,.03-2.5-.16-4.96,.52-7.36,.06,2.69-.18,5.39,.13,8.02,2.52,1.47,5.21,2.37,7.9,3,2.7,.62,5.53,.84,8.41,.35v-3.06l.2-.02c.49,1.01,.12,2.18,.44,3.21,1.25,.45,2.35-.23,3.63-.48-.69,1.1-1.59,1.35-3.62,1.12-.05,.23-.18,.49-.14,.72,.41,2.6,.56,5.22,.59,7.86,.02,1.81,.16,3.62,.22,5.43,.03,.88,0,1.76,.02,2.63,0,.32,.08,.64,.1,.78l1.25,.94,.02-.02-1.25-.29c-.06,.3-.16,.59-.16,.89-.05,2.3-.1,4.59-.12,6.89,0,1.11,.07,2.23,.08,3.34,0,.45-.05,.9-.07,1.36-.01,.29,0,.57,0,.75l4.35,2.34c.83-.25,.82-1.13,1.22-1.69,.75-1.08,1.4-2.24,2.1-3.35,.1-.16,.3-.27,.54-.35-1.05,1.85-2.29,3.58-3.23,5.65,1.61,.29,2.66,1.44,4.06,1.66l.89-1.17-.02-.02Z"
  />
  <path fill="#58b6d0"
    d="M237.06,405.37c.07,.73,.83,1.06,.65,1.8l-1.25-1.48-3.02-.54-.14,.21,2.94,2.64-.12,.15c-.52-.37-1.05-.72-1.54-1.12-.65-.54-1.27-1.11-1.9-1.67-.8-.72-1.8-.76-2.92-.93,.63,1.42,2.19,1.81,2.74,3.15-.15-.1-.31-.19-.45-.31-1-.88-2.01-1.74-2.98-2.65-.54-.5-1.14-.45-1.97-.43l2.26,2.69-.13,.14c-.21-.2-.42-.4-.63-.61-.76-.74-1.45-1.57-2.3-2.19-.58-.42-1.37-.52-2.07-.77l-.14,.2,1.94,2.11-.11,.11c-.84-.69-1.63-1.47-2.54-2.05-.87-.55-1.68-1.43-3.12-1.11,1.28,1.36,2.47,2.62,3.65,3.87l-.17,.19c-.2-.19-.38-.39-.59-.56-1.04-.82-2.1-1.62-3.11-2.46-.32-.27-.53-.67-.79-1.02l.11-.2-2.3,.13c1.21,1.31,2.27,2.45,3.32,3.59l-.18,.19c-.53-.52-1.04-1.06-1.59-1.55-.75-.65-1.51-1.31-2.33-1.88-.57-.39-1.2-.16-1.87,.21l2.88,2.75-.12,.13-3.47-2.69-1.56,.4,3.36,3.13-.14,.15c-1.27-.96-2.55-1.92-4-3.02l-1.84,.46c.93,1,2.11,1.43,2.79,2.63l-3.47-2.48-1.4,.29,2.25,2.26-.18,.2-2.88-2.35c-2.74,.48-5.26-.73-7.93-1.6l-.16-1.11c.97,.33,1.74,.66,2.55,.86,1.2,.29,2.41,.57,3.63,.69,2.25,.22,4.5-.12,6.58-.87,1.53-.56,3.05-.92,4.64-1.11,.96-.12,1.92-.22,2.88-.34,2.03-.25,4.03-.06,6.03,.33,1.24,.24,2.5,.45,3.74,.71,.46,.1,.92,.27,1.36,.44,2.84,1.09,5.75,1.56,8.8,1.21,2.64-.31,5.29-.52,7.94-.77,.07,0,.16,.05,.34,.12-3.31,.87-6.52,1.72-9.94,1.75Z"
  />
  <path fill="#58b6d0"
    d="M241.21,372.23l.83,.73c1.89,.99,3.62,.77,5.21-.67l.46-.96c-.39-2.26-1.08-4.29-3.5-4.99-.31-.59-.39-1.06,.25-1.53l1.67,.34c1.11-.35,2.14,.13,3.13,.76,.43,.28,.79,.67,1.22,.94,1.23,.76,1.81,1.92,2.06,3.28,.13,.7,.24,1.43,.19,2.14-.04,.54-.31,1.08-.53,1.59-.25,.58-.46,1.21-.85,1.69-1.15,1.42-2.74,1.68-4.44,1.46-1.22-.16-2.49-.27-3.52-1.04-.93-.7-1.88-1.4-2.55-2.41l.36-1.33Zm4.14,3.07c.22,.08,.38,.17,.56,.2,1.95,.34,3.97-.4,4.81-2.76,.27-.77,.61-1.55,.35-2.38-.52-1.66-1.68-2.76-3.33-3.7,.25,.6,.36,1.1,.64,1.46,.58,.74,.74,1.59,.81,2.46,.08,1,0,2-.75,2.8-.83,.87-1.69,1.68-2.98,1.75-.02,0-.03,.05-.1,.17Z"
  />
  <path fill="#58b6d0"
    d="M223.02,395.24l-.74-.23-2.11,.38c1.01,.96,1.92,1.82,2.82,2.68l-.18,.21-3.6-2.84-.92,.35,2.91,2.93-.11,.12-3.6-2.77-1.26,.51,2.03,1.79-.15,.19-2.55-1.86-2,.67,3.14,2.28-.13,.17-3.84-2.29-.99,.34c.51,.83,1.32,1.23,1.87,1.87l-.1,.16c-.47-.3-.95-.6-1.41-.91-.48-.32-.94-.67-1.48-1.06l-1.34,.1-.11,.2,1.38,1.63-.12,.14-2.64-1.72h-1.37l2.05,2.41-.1,.09c-.94-.78-1.93-1.52-2.81-2.36-.32-.31-.63-.42-1.01-.47-.7-.09-1.41-.17-2.15-.16,.86,1.35,2.35,2.01,3.21,3.3-1.41-1.18-3.27-1.79-4.25-3.41l-2.35-.93-.15,.19c1.39,1.54,3.1,2.76,4.52,4.27l-.16,.18-5.71-4.81c.38,1.16,1.36,1.92,1.94,2.94l-.13,.12-4.09-4.33c.13-.33,.41-.12,.73,0,1.65,.59,3.28,1.29,4.98,1.68,1.39,.32,2.88,.37,4.32,.36,1.38-.01,2.8-.11,4.14-.43,1.93-.45,3.93-.65,5.74-1.56,.78-.39,1.63-.64,2.31-.9,.6-.1,1.06-.19,1.53-.25,1.63-.22,3.26-.5,4.9-.63,.67-.05,1.38,.18,2.05,.36,.96,.25,1.89,.61,2.85,.85,.61,.15,1.26,.16,1.89,.24,.5,.07,1.03,.12,1.17,.93-.3-.01-.52,0-.73-.04-1.97-.45-3.94-.92-5.98-.93-.36,0-.73-.13-1.08-.09-.36,.04-.7,.23-1.04,.35l.02-.02Z"
  />
  <path fill="#58b6d0"
    d="M226.91,288.97c-.61,.94-.71,2.13-.78,3.31-.06,.97,.53,1.54,1.51,1.48,.56-.03,1.12-.2,1.64-.41,.23-.09,.35-.45,.6-.8-.48-.05-.75-.07-1.01-.11-.23-.04-.46-.11-.83-.2l.48-.78,1.4-.31,.99,.66v1.86c-.47,.51-.79,.91-1.18,1.25-.24,.21-.56,.38-.87,.47-1.49,.41-3.25-.58-4.03-1.9-.84-1.42-.61-2.66,.06-4.02,.35-.72,.53-1.55,.63-2.35,.14-1.13-.34-1.54-1.46-1.71-1.4-.21-2.63,.26-3.86,.77-.68,.28-.99,.85-1.03,1.58-.11,1.83-.24,3.65-.36,5.48,0,.05-.07,.09-.18,.24l-1.29-1.43c.23-1.57,.53-3.14,.68-4.72,.17-1.68,.18-3.37,.3-5.05,.08-1.14,.21-2.27,.36-3.4,.03-.25,.26-.47,.39-.69,.76,.21,.83,.67,.82,1.24-.02,1.71,0,3.42,0,5.14,1.44-.16,2.67-.73,4.04-.52,1.64,.25,2.89,1.49,2.98,3.15,.03,.54,0,1.09,0,1.82Z"
  />
  <path fill="#58b6d0"
    d="M266.02,333.64c.55,1.13,.62,2.11,.34,3.15-.09,.33,.05,.71,.05,1.07,.01,.5,0,1,0,1.65l-1.28-.71-.44-1.69c-1.6,1.34-1.84,2.14-1.04,3.38,.13,.93-.08,1.78-.51,2.61-.52,1-1.53,1.49-2.62,1.14-.69-.22-1.37-.46-2.05-.69-.61-.21-1.32-1.27-1.32-2.03,0-1.06,.32-2.03,1.06-2.82,.63-.67,2.12-.89,3.26-.43l1.48-1.76-2.62-.5-.29-.88c.28-.18,.48-.39,.73-.46,1.42-.42,2.84-.85,4.27-1.2,.32-.08,.72,.13,.97,.18Zm-3.56,7.84l-.58-1.53-2.04-.4-.9,1.08v1.52l1.88,.86,1.64-1.53Z"
  />
  <path fill="#58b6d0"
    d="M193.02,319.42c1.02,1.82,.34,3.23-1.05,4.35-1.67,1.35-3.18,.26-4.87-.64l-.13-2.62c.5-.66,.88-1.29,1.39-1.79,.66-.64,1.54-.62,2.39-.42,.29,.07,.56,.21,.88,.34l1.67-1.87-.84-.23-.41-.9c.4-.72,1.01-.91,1.68-1.06,1.14-.26,2.27-.59,3.4-1.06l.84,.31c-.1,.5-.08,1.02-.29,1.42-.66,1.23-.9,2.55-1.03,3.92-.03,.29-.21,.57-.34,.91l-1.26-.68v-1.84l-2.02,1.87Zm-.94,1.64l-1.63-1.5c-.9-.08-1.34,.1-1.67,.65-.31,.53-.31,1.58,.05,1.98,.54,.59,1.18,.93,2.15,.55l1.09-1.68Z"
  />
  <path fill="#58b6d0"
    d="M259.04,318.3c.91,.34,2.05,.03,2.51,1.23-.75,.79-1.59,.05-2.4,.28-.66,.72,.08,2.16-1.28,2.81l-.77-2.77h-2.26l-.54-1.87c.59,.05,1.01,.1,1.44,.13,.45,.03,.9,.05,1.38,.07l.54-1.94c-.56-.27-1.16-.45-1.61-.81-.46-.36-.78-.9-1.08-1.27-.22-1.45-.73-2.78,.26-4.04,.96-1.21,2.13-1.86,3.83-1.6,.57,.44,1.28,.91,1.91,1.47,.68,.62,.73,1.51,.74,2.36,0,.36-.07,.72-.1,1.09-.1,1.2-.97,2.26-2.13,2.62-.08,.03-.16,.08-.31,.16l-.13,2.06Zm-1.85-8.32c-.46,.63-.8,1.22-1.25,1.69-.68,.71-.37,1.41-.07,2.09,.31,.69,.91,1.1,1.69,.93,.66-.14,1.36-.34,1.91-.71,1.09-.73,1.17-2.51,.17-3.31-.69-.55-1.54-.78-2.45-.69Z"
  />
  <path fill="#58b6d0"
    d="M197.3,353.91c-.15-.12-.29-.23-.44-.34-1.54-1.09-1.76-2.66-1.53-4.35,.27-1.95,3.04-3.12,4.68-2,1.62,1.1,2.08,2.43,1.51,4.32-.09,.32-.15,.65-.26,1.14l-2.18,1.34c-.27,.5-.58,1.18-.28,2.05h2.13q.59,.49,.34,1.2l-2.71,.51c.45,1.39-.39,2.29-.73,3.48-1.34-.99-.61-2.33-.89-3.41l-2.58-.47,.47-1.52,2.32-.2,.14-1.75Zm.05-5.39c-.66,.65-.76,1.44-.85,2.22-.08,.63,.39,1.36,.96,1.63,.66,.31,1.41,.18,1.93-.33,.84-.82,.89-1.86,.87-2.88-1.16-1.2-1.35-1.24-2.91-.63Z"
  />
  <path fill="#58b6d0"
    d="M216.83,338.98c.46,.9,.92,1.8,1.37,2.71,.16,.32,.28,.66,.45,1.08l-.21,.47c1.29,2.57,1.82,5.28,2.36,8.13,.04,.87,.13,1.89,.14,2.91,0,1.02-.07,2.04-.12,3.37,.43,1.21,.28,2.77,.1,4.33-.08,.72-.16,1.46-.11,2.18,.08,1.07-.2,2.08-.41,3.11-.11,.56-.18,1.14-.21,1.71-.11,1.92-.58,3.75-1.33,5.51-.77,1.8-1.53,3.62-2.37,5.39-1.02,2.16-2.2,4.25-3.9,5.96-.69,.69-1.57,1.22-2.4,1.75-.7,.45-1.42,.87-2.18,1.21-1.65,.73-3.31,1.43-5.15,1.58-1.07,.09-2.13,.36-3.19,.54-.8,.14-1.61,.3-2.42,.41-.19,.03-.4-.12-.61-.18v-.26c.44-.12,.87-.28,1.32-.36,1.33-.24,2.66-.46,3.99-.66,.53-.08,1.09-.05,1.61-.17,1.69-.41,3.31-.92,4.89-1.74,2-1.04,3.62-2.42,5.09-4.05,.26-.28,.44-.64,.63-.99,.6-1.11,1.25-2.2,1.76-3.35,.99-2.25,1.97-4.51,2.82-6.82,.44-1.2,.59-2.5,.87-3.75,.14-.64,.33-1.29,.39-1.94,.14-1.5,.22-3.01,.33-4.52,.04-.5,.13-1,.21-1.58l-.22-4.28h.05c0-.73,.03-1.47,0-2.2-.06-1.14-.08-2.3-.26-3.42-.17-1.08-.53-2.13-.8-3.2-.15-.58-.27-1.17-.45-1.74-.53-1.71-1.12-3.41-1.6-5.14-.18-.66-.66-1.28-.4-2.04l-.02,.02Z"
  />
  <path fill="#58b6d0"
    d="M199.87,307.72l-.51,.89c-1.01-.08-.68-1.24-1.31-1.5-.3-1.08,.55-2.02,.23-3.15l-1.64,.27-.27-.68-.62,.11c-.01-.26-.08-.51-.03-.73,.2-.95-.14-1.78-.49-2.63-.5-1.22-1.49-1.49-2.67-1.35-.3,.03-.61,.06-.92,.09l-.08-1.34c1.07-.56,2.79-.2,3.87,.77,.95,.85,1.31,2,1.74,3.13,.06,.17,.11,.34,.19,.59l1.39-.07c.25-1.89,1.43-2.99,3.31-3.53,.7,.79,.59,1.98,1.03,2.94,.08,.18-.11,.48-.18,.77-.94-.23-.83-1.25-1.62-1.61l-.68,1.54c.84,.12,1.43,.42,1.76,1.2l-2.1,.49c-.49,1.28-.67,2.52-.39,3.8Z"
  />
  <path fill="#58b6d0"
    d="M238.08,303.4c-1.49-1.59-1.33-3.14-1.05-4.66,.3-1.67,1.9-2.24,2.95-3.27,2.1-.77,4.86,1.41,5.35,3.76,.3,1.42,.14,2.7-.92,3.93-1.06,1.23-2.44,1.11-4.06,1.44l-2.27-1.19Zm.03-2.33c1.15,1.7,2.71,2.22,4.45,1.51,.34-.14,.74-.4,.9-.71,.96-1.87,.72-4.32-1.91-5.25l-.48,.55-.73-.16c-1.51,.97-1.7,2.59-2.22,4.06Z"
  />
  <path fill="#58b6d0"
    d="M209.03,325.59c.59,.73,1.05,1.32,1.53,1.88,.38,.45,.77,.92,1.2,1.32,.64,.59,.72,.92,.22,1.69-3.02-4.71-7.34-7.88-12.18-10.42l.08-.16c1.16,.39,2.31,.79,3.43,1.17v.56c.96-.05,1.65,.25,1.94,1.04,1.32,.93,2.54,1.78,3.75,2.65,.08,.06,.04,.28,.04,.27Z"
  />
  <path fill="#58b6d0"
    d="M267.13,262.37c.33,.28,.68,.55,1,.86,.91,.87,2,1.31,3.25,1.45,.92,.1,1.83,.29,2.75,.41,.96,.13,1.84-.2,2.71-.56,.17-.07,.37-.05,.61-.08-.33,.78-1.51,1.48-2.32,1.58-1.46,.16-2.79-.34-4.18-.61-1.1-.21-2.01-.61-2.72-1.46-.41-.49-.81-.98-1.22-1.48l.14-.12Z"
  />
  <path fill="#58b6d0"
    d="M238.34,266.69c.43-.65,1.2-.77,1.82-.74,1.49,.08,3.03-.11,4.48,.36,1.16,.37,2.29,.82,3.43,1.24l-.06,.29c-.35-.05-.7-.07-1.04-.14-1.31-.25-2.61-.56-3.92-.75-.92-.14-1.87-.17-2.8-.17-.37,0-.75,.19-1.12,.3-.36,.11-.66,.12-.79-.38Z"
  />
  <path fill="#58b6d0"
    d="M203.23,288.86c-.98,.09-1.96,.03-2.86,.28-1.81,.51-3.56,1.21-5.07,2.36-1.22,.92-2.38,1.92-3.57,2.89-.08,.07-.17,.13-.37,.08,.44-.5,.82-1.09,1.33-1.5,1.68-1.35,3.32-2.73,5.34-3.67,1.53-.72,3.01-.96,4.62-.98,.29,0,.65-.1,.58,.55Z"
  />
  <path fill="#58b6d0"
    d="M260.47,303.9c.74,.67,1.42,1.41,2.23,1.98,1.07,.75,2.17,1.47,3.47,1.84,.95,.27,1.84,.75,2.75,1.16,.1,.04,.14,.22,.32,.53-1.91-.44-3.56-1.02-5.16-1.74-1.71-.77-2.61-2.31-3.75-3.63l.14-.13Z"
  />
  <path fill="#58b6d0"
    d="M253.05,331.9l.86-.56,2.32-4.62,.22,.1-2.08,4.83c1.18,.54,2.36,.52,3.54,.6,.96,.07,1.91,.38,2.86,.58l-.04,.23-6.91-.85-1.08,1.3c-.43-.29-.24-.51-.06-.78,.17-.26,.27-.57,.39-.86l-.02,.02Z"
  />
  <path fill="#58b6d0"
    d="M250.1,241.7c-.52-.09-.9-.15-1.28-.24-.95-.22-1.9-.47-2.86-.68-1.82-.4-3.64-.36-5.45,0-.05,0-.11-.03-.17-.04,1.12-1.12,7.34-.96,8.47,.22,.77-.11,1.08,.04,1.29,.74Z"
  />
  <path fill="#58b6d0"
    d="M213.83,227.85c1.64,.13,3.08,.19,4.5,.38,1.42,.18,2.8-.65,4.23,0-.31,.08-.61,.2-.93,.24-1.97,.27-3.95,.46-5.94,.26-.69-.07-1.26-.29-1.86-.89Z"
  />
  <path fill="#58b6d0"
    d="M193.83,245.79l-.87-.56c2.67,.22,5.38-.59,8.13,.56l.2,.64c-2.59-.65-5.03-.88-7.46-.64Z"
  />
  <path fill="#58b6d0"
    d="M177.84,336.2c-.31,.5-.62,.99-.94,1.49-.34,.52-.77,1-1.02,1.56-.84,1.9-1.65,3.82-2.39,5.76-.27,.71-.34,1.51-.55,2.26-.13-.94,.47-3.28,.91-4.27,.54-1.23,.92-2.54,1.48-3.76,.56-1.22,1.18-2.44,2.53-3.01l-.02-.02Z"
  />
  <path fill="#58b6d0"
    d="M214.81,389.02l-.06,.59c-2.32,1.87-4.71,3.39-7.49,4.19-.11,.03-.26-.07-.55-.16,1.56-.7,3.01-1.23,4.35-1.99,1.32-.75,2.51-1.73,3.76-2.61l-.02-.02Z"
  />
  <path fill="#58b6d0"
    d="M225.89,257.36c-2.86,1.32-5.8,.41-8.71,.3-.14,0-.27-.11-.41-.17l.2-.31,1.09,.36c1.13,0,2.42-.02,3.71,0,1.21,.03,2.4-.05,3.56-.44,.18-.06,.4,0,.6,0l-.04,.26Z"
  />
  <path fill="#58b6d0"
    d="M194.36,265.08l-1.34-.45c.22-.42,.57-.3,.93-.27,1.06,.1,2.15,.35,3.18,.19,.9-.13,1.74-.72,2.6-1.13,.3-.14,.58-.34,1.02-.6-.5,1.26-1.8,2.3-6.39,2.26Z"
  />
  <path fill="#58b6d0"
    d="M253.08,331.88c-2.46-.73-4.94-1.41-7.38-2.2-.92-.3-1.76-.84-2.64-1.27l-.02,.02c1.19,.4,2.38,.82,3.58,1.2,.53,.17,1.1,.25,1.64,.39,1.41,.38,2.81,.76,4.22,1.15,.36,.1,.72,.21,.58,.73l.02-.02Z"
  />
  <path fill="#58b6d0"
    d="M234.72,337.85c-.56-.27-1.18-.45-1.67-.82-1.46-1.07-2.87-2.21-4.29-3.33-.54-.42-1.07-.86-1.74-1.4,.29-.06,.49-.16,.56-.1,1.34,1.07,2.66,2.17,4,3.23,.78,.61,1.62,1.15,2.41,1.74,.26,.2,.47,.46,.71,.69l.02-.02Z"
  />
  <path fill="#58b6d0"
    d="M177.45,379.79c-.1-2.02-.1-3.99,.02-6,.06,.16,.14,.32,.17,.49,.2,1.44,.39,2.87,.56,4.31,.06,.49,.18,1.06-.75,1.21Z"
  />
  <path fill="#58b6d0"
    d="M195.6,268.44l-.79-.69c.46,.07,.72,.05,.95,.14,.88,.34,1.7,.14,2.53-.17,.78-.29,1.57-.57,2.37-.83,.12-.04,.3,.06,.45,.1l.04,.2c-.7,.3-1.37,.66-2.09,.9-.7,.23-1.44,.34-2.28,.54l-1.18-.19Z"
  />
  <path fill="#58b6d0"
    d="M240.48,353.31c.03,1.23-3.15,7.3-4.32,8.17,1.47-2.78,2.89-5.47,4.32-8.17Z"
  />
  <path fill="#58b6d0"
    d="M265.18,345.64c1.66,1.6,2.76,3.51,3.47,5.76l-.62,.09c-.34-2.28-1.7-4.01-2.84-5.85Z"
  />
  <path fill="#58b6d0"
    d="M216.86,338.96c-.16-.11-.4-.18-.47-.33-.55-1.12-1.07-2.27-1.6-3.4-.1-.21-.18-.43-.32-.75,.25,.04,.46,.01,.5,.09,.82,1.39,1.94,2.66,1.88,4.42l.02-.02Z"
  />
  <path fill="#58b6d0"
    d="M270.61,317.78c-.64-1.86-1.14-3.78-2.68-5.35,1.39,.42,3,3.65,2.68,5.35Z"
  />
  <path fill="#58b6d0"
    d="M214.35,334.13c-.33-.59-.64-1.19-1-1.76-.34-.54-.75-1.04-1.12-1.56,.45-.46,.71-.23,.88,.06,.5,.87,.98,1.75,1.43,2.65,.08,.16,0,.41-.02,.62l-.17-.02Z"
  />
  <path fill="#58b6d0"
    d="M253.38,277.68c-.43-.93-.79-1.88-1.3-2.74-.51-.86-1.17-1.62-1.8-2.48,1.99,1.36,3.73,4.27,3.1,5.22Z"
  />
  <path fill="#58b6d0"
    d="M221.15,253.41c-1.59-.07-3.17-.15-4.82-.22,.13-.59,.56-.46,.86-.45,1.09,.05,2.18,.13,3.27,.22,.23,.02,.46,.11,.69,.17v.28Z"
  />
  <path fill="#58b6d0"
    d="M222.23,387.27c-1.34,1.17-2.68,2.33-4.02,3.5l-.2-.22c.69-.61,1.37-1.25,2.08-1.83,.66-.55,1.15-1.33,1.92-1.73l.22,.29Z"
  />
  <path fill="#58b6d0"
    d="M243.43,292.34c-1.28-.65-2.56-1.29-3.92-1.98,.19-.11,.25-.17,.27-.16,1.18,.58,2.36,1.15,3.53,1.75,.08,.04,.07,.27,.1,.41v-.02Z"
  />
  <path fill="#58b6d0"
    d="M235.24,324.39c1.32,.69,2.64,1.38,3.96,2.07l-.11,.22c-1.43-.49-2.71-1.28-3.99-2.07l.14-.21Z"
  />
  <path fill="#58b6d0"
    d="M164.16,316.8c1.11,.05,2.23,.09,3.11,.92-1.17,.16-2.08-.56-3.11-.92Z"
  />
  <path fill="#58b6d0"
    d="M240.68,363.36c-.18,.4-.26,.9-.55,1.18-.64,.59-1.04,1.31-1.39,2.08-.08,.17-.25,.3-.48,.37,.69-1.29,1.18-2.7,2.44-3.6l-.02-.02Z"
  />
  <path fill="#58b6d0"
    d="M227.76,319.52c1.25,.65,2.22,1.67,3.26,2.6-1.26-.64-2.34-1.52-3.26-2.6Z"
  />
  <path fill="#58b6d0" d="M246.38,308.79l.07-.52c.74-.43,1.44-.91,2.38-.43l-2.46,.93v.02Z" />
  <path fill="#58b6d0"
    d="M234.51,372.84c-.21,.99-1.02,1.6-1.58,2.36-.21,.28-.5,.49-.76,.73l-.17-.15,2.53-2.92-.02-.02Z"
  />
  <path fill="#58b6d0"
    d="M243.77,358.25c.19-.29,.37-.59,.57-.87,.4-.59,.82-1.18,1.29-1.76-.14,.4-.23,.83-.42,1.21-.2,.39-.49,.74-.83,1.22l-.62,.19h.02Z"
  />
  <path fill="#58b6d0"
    d="M223.01,395.26c1.35,.38,2.27,1.34,3.08,2.42-1.02-.81-2.05-1.63-3.07-2.44l-.02,.02Z"
  />
  <path fill="#58b6d0"
    d="M269.5,311.63c.61,.83,1.22,1.67,1.49,2.67l-.21,.11-1.51-2.71,.23-.08Z"
  />
  <path fill="#58b6d0"
    d="M250.38,336.52l1.36-1.92,.22,.15c-.29,.76-.61,1.5-1.33,1.97l-.25-.2Z"
  />
  <path fill="#58b6d0" d="M246.37,308.77l-1.62,.67v-.72l1.24-.42,.39,.49v-.02Z" />
  <path fill="#58b6d0"
    d="M233.25,366.29c.16-.92,.81-1.54,1.35-2.23-.13,.94-.68,1.62-1.37,2.21l.02,.02Z"
  />
  <path fill="#58b6d0" d="M239.03,290.12l-2.06-.95c.87-.1,1.55,.26,2.2,.69l-.14,.26Z" />
  <path fill="#58b6d0" d="M245.84,355.12l1.13-2.11c.04,.96-.54,1.54-.81,2.24l-.32-.13Z" />
  <path fill="#58b6d0"
    d="M233.23,366.27c-.35,.89-.82,1.7-1.5,2.36l-.2-.15,1.73-2.19-.02-.02Z"
  />
  <path fill="#58b6d0"
    d="M229.97,378.88c.04-.9,.87-1.27,1.28-1.91-.29,.73-.61,1.44-1.3,1.89l.02,.02Z"
  />
  <path fill="#58b6d0"
    d="M243.42,292.36c.9,.09,1.37,.77,1.9,1.38-.8-.23-1.33-.83-1.88-1.4v.02Z"
  />
  <path fill="#58b6d0"
    d="M242.88,349.52l-1.02,2.03-.28-.16c.44-.62,.56-1.44,1.32-1.86l-.02-.02Z"
  />
  <path fill="#58b6d0"
    d="M238.18,367.42c-.05,.7-.64,1.07-.91,1.63l-.24-.14,.88-1.63,.27,.14Z"
  />
  <path fill="#58b6d0"
    d="M177.86,336.22c.2-.51,.54-.83,1.12-.85,.01,.65-.2,.8-1.14,.83l.02,.02Z"
  />
  <path fill="#58b6d0"
    d="M243.05,360.06c-.41,.35-.43,1.04-1.04,1.21l-.19-.17,1.05-1.21,.18,.17Z"
  />
  <path fill="#58b6d0" d="M248.4,350.83c-.02,.58-.27,1.02-1,1.15l.79-1.29,.21,.13Z" />
  <path fill="#58b6d0"
    d="M228.82,372.09c.06,.83-.63,1.26-.85,1.94l-.28-.15,1.14-1.78-.02-.02Z"
  />
  <path fill="#58b6d0"
    d="M216.27,387.56c-.1,.87-.7,1.25-1.47,1.46l.02,.02,1.47-1.46-.02-.02Z"
  />
  <path fill="#58b6d0" d="M277.93,266.03c.5,.32,1.24,.47,1.31,1.41l-1.31-1.41Z" />
  <path fill="#58b6d0" d="M236.92,369.52l-.72,1.34-.25-.13,.76-1.31,.2,.1Z" />
  <path fill="#58b6d0"
    d="M240.7,363.38l.67-1.53,.28,.15c-.26,.49-.34,1.08-.97,1.37l.02,.02Z"
  />
  <path fill="#58b6d0"
    d="M229.78,371.01c-.09-.57,.33-.75,.81-1.04-.07,.61-.29,.94-.83,1.02l.02,.02Z"
  />
  <path fill="#58b6d0" d="M257.83,347.24h-1.13v-.25l1.13,.05v.2Z" />
  <path fill="#58b6d0"
    d="M243.75,358.23c.33,.56-.05,.93-.4,1.3,0-.47,.12-.91,.42-1.29h-.02Z"
  />
  <path fill="#58b6d0" d="M267.84,314.74l-1.04-.99,.16-.14c.45,.25,.74,.62,.87,1.15h.01Z" />
  <path fill="#58b6d0" d="M235.78,362.57l-.75,1.12-.21-.13,.71-1.16,.25,.16Z" />
  <path fill="#58b6d0" d="M233.3,323.55l-1.17-.71,.12-.2,1.19,.72-.13,.19Z" />
  <path fill="#58b6d0"
    d="M215.98,252.92c-.07,.04-.14,.08-.22,.12-.08,.04-.16,.07-.3,.13l-.39-.47,.08-.17,.83,.21v.19Z"
  />
  <path fill="#58b6d0" d="M251.46,344.44l.24-1.14c.2,.68,.18,.74-.26,1.13l.02,.02Z" />
  <path fill="#58b6d0" d="M240.81,352.37l.41-.69,.25,.15-.41,.69-.26-.15Z" />
  <path fill="#58b6d0"
    d="M229.76,370.99c-.11,.54-.33,.98-.94,1.09l.02,.02,.94-1.09-.02-.02Z"
  />
  <path fill="#58b6d0" d="M217.68,390.95l-.8,.52-.14-.22,.8-.46,.14,.16Z" />
  <path fill="#58b6d0" d="M234.53,372.86l.3-.89,.29,.17-.61,.7,.02,.02Z" />
  <path fill="#58b6d0"
    d="M213.94,422.68c3.34-1.9,6.5-4.1,9.94-5.82-.82,1.01-2.07,1.38-3.08,2.11-1.07,.77-2.26,1.39-3.41,2.06-1.1,.64-2.23,1.24-3.34,1.86l-.11-.2Z"
  />
  <path fill="#58b6d0"
    d="M223.04,420.99c-.26,.75-7.21,5.03-8.46,5.22,2.82-1.74,5.64-3.48,8.46-5.22Z"
  />
  <path fill="#58b6d0"
    d="M214.41,424.19c2.78-1.63,5.38-3.57,8.27-5.02-.23,.54-7.31,4.81-8.27,5.02Z"
  />
  <path fill="#58b6d0" d="M217.39,419.64l-1.16,.86-.14-.25,1.31-.6-.02-.02Z" />
  <path fill="#58b6d0" d="M207.02,411.35h2.58c-.77,.41-1.74,.44-2.58,0Z" />
  <path fill="#58b6d0" d="M217.82,411.53h1.1l.02,.13-1.09,.07-.03-.2Z" />
  <path fill="#58b6d0" d="M212.27,411.61h-1.22v-.16h1.24l-.02,.16Z" />
  <path fill="#58b6d0" d="M220.13,411.51h.67l.02,.16-.66,.08-.03-.25Z" />
  <path fill="#58b6d0" d="M212.9,429.12q-2.32,.26-2.7-.1c.76-.38,1.24-.37,2.7,.1Z" />
  <path fill="#58b6d0" d="M215.19,429.03c-1.22,.38-1.63,.32-2.03-.24l2.03,.24Z" />
  <path fill="#58b6d0" d="M207.94,430.6l-.06-.76,.81,.16v.2l-.77,.38,.02,.02Z" />
  <path fill="#58b6d0"
    d="M218.27,429.19c-.34,0-.68,0-1.02,0-.04,0-.08-.07-.19-.17,.16-.02,.26-.06,.36-.05,.28,.01,.57,.04,.85,.06v.17Z"
  />
  <path fill="#58b6d0" d="M209.54,429.85l.65,.36-.1,.18-.66-.37,.11-.17Z" />
  <path fill="#58b6d0" d="M242.34,299.99l-.89,1.3-1.02-.46-.41-1.37,1.19-.79,1.13,1.32Z" />
</svg>
