<?xml version="1.0" encoding="UTF-8"?>
<svg
  id="Layer_1"
  xmlns="http://www.w3.org/2000/svg"
  viewBox="0 0 419.53 595.28"
>
  <path fill="#58b6d0"
    d="M271.63,153.88c2.31,1.23,3.57,3.35,4.7,5.65l.94-.29,.52,.9c3.36,.11,6.65,.71,9.09,3.23,1.09,1.12,2.78,1.85,3,3.73l.77,.15,.98,1.63v.81c1,.77,.97,1.97,.98,3.13,.89,.82,2.49,.38,2.87,1.87,2.03-.03,1.88,1.84,2.73,2.97v1.99c.82,.83,1.71,1.69,2.54,2.6,.66,.73,1.38,1.47,1.84,2.33,1.05,1.95,1.52,4.14,1.86,6.29,.24,1.5-.16,3.11-.29,4.94,1.27,1.2,1.18,2.92,.44,4.83l-.84,.89c.23,1.95,.48,3.99,.73,6.12l-.98,.66c.92,1.35-.08,2.28-.54,3.29-.64,1.43-1.12,2.89-1.24,4.47l.74,.47v.98h-1.63c-.52,1.06-1.17,1.88-.79,3.33,.58,2.18-.3,4.22-1.92,5.85-.16,.16-.43,.22-.62,.36-.48,.34-.95,.7-1.35,1.14l-1.2,.62c1.45,1.37,2.84,2.58,4.11,3.92,1.8,1.89,3.59,3.79,5.23,5.82,1.63,2.01,3.17,4.13,4.59,6.3,1.5,2.29,2.88,4.66,4.2,7.06,1.32,2.38,2.54,4.81,3.73,7.25,.56,1.15,.93,2.39,1.42,3.58,.83,2.02,1.67,4.03,2.54,6.02,.14,.32,.43,.58,.52,.91,.38,1.31,.77,2.61,1.12,3.92,.25,.93,.43,1.88,.68,2.81,.65,2.41,1.47,4.78,1.96,7.22,.57,2.8,.95,5.64,1.25,8.48,.41,3.93,.68,7.87,.96,11.82,.12,1.73,.15,3.46,.17,5.2,0,.68-.11,1.36-.18,2.04-.33,3.49-.49,7.01-1.05,10.47-.76,4.69-1.43,9.41-3.16,13.89-.75,1.94-1.09,4.04-1.69,6.04-.3,1-.78,1.94-1.16,2.92-1.18,3.03-2.29,6.1-3.57,9.09-.67,1.58-1.58,3.08-2.46,4.56-1.11,1.87-2.37,3.65-3.42,5.55-1.83,3.3-4.01,6.34-6.38,9.25-2.58,3.15-5.17,6.3-7.82,9.39-1.49,1.74-3.06,3.43-4.72,5.01-1.37,1.3-2.91,2.42-4.4,3.59-1.89,1.49-3.78,2.99-5.71,4.42-1.65,1.22-3.33,2.41-5.05,3.53-3.59,2.33-7.24,4.55-11.09,6.44-2.09,1.03-4.1,2.21-6.18,3.25-1.61,.81-3.27,1.52-4.91,2.25-1.1,.49-2.25,.87-3.31,1.41-1.35,.69-2.84,.51-4.25,.79-2.09,.42-4.18,.82-6.26,1.23-2.14,.42-4.27,.84-6.41,1.22-.5,.09-1.04,.01-1.56,.01-1.29,1.22-2.58,2.45-3.74,3.55-.6,.4-1.04,.73-1.51,1.01-.75,.44-1.53,.85-2.29,1.27-.24,.14-.52,.24-.72,.42-2,1.73-4.69,2.3-6.56,3.99-.92-.01-1.52-.23-1.67-1.34l1.82-1.91c1.51-2.18,3.61-3.96,4.98-6.35-9.02,.93-17.8-.32-26.74-1.68,.49,2.27,.94,4.34,1.38,6.36,.41,1.5,.85,2.96,1.21,4.44,.38,1.56,.68,3.14,1.04,4.71,.35,1.49,1.15,2.89,.88,4.57l-.62-.81-.21,.09c.23,.68,.47,1.37,.7,2.05l.3,.22,.2-.99,.38,.24c.16,.47,.32,.94,.59,1.7l-1.06-.6-.19,.26,1.01,.82c.43,1.08,.84,2.19,1.31,3.28,.28,.65,.48,1.23-.43,1.7-.19-.21-.45-.41-.58-.67-.77-1.49-1.46-3.02-2.27-4.49-.81-1.47-1.78-2.86-2.6-4.32-1.2-2.14-2.18-4.42-3.56-6.43-1.17-1.71-1.67-3.79-3.25-5.3-.86-.82-1.28-2.11-1.9-3.19-.54-.94-1.13-1.85-1.59-2.82-.59-1.26-1.15-2.55-2.09-3.59-.39-.43-.87-.89-1.39-1.06-2.26-.72-4.6-1.21-6.83-2.02-1.99-.72-3.87-1.74-5.8-2.64-1.05-.49-2.11-.99-3.14-1.53-2.04-1.05-4.06-2.13-6.1-3.19-.85-.44-1.76-.79-2.58-1.28-1.26-.76-2.49-1.59-3.7-2.43-1.68-1.16-3.36-2.31-4.98-3.55-2.14-1.63-4.17-3.4-6.33-4.98-2.68-1.96-4.94-4.34-7.26-6.67-1.08-1.08-1.98-2.36-2.95-3.56-1.72-2.14-3.49-4.24-5.12-6.45-1.12-1.51-2.04-3.16-3.04-4.74-1.22-1.93-2.49-3.83-3.66-5.79-.74-1.24-1.32-2.57-1.98-3.85-.11-.21-.25-.4-.5-.8l-.51,2.09c.21,1.47,.34,2.66,.56,3.83,.44,2.32,.93,4.63,1.42,6.94,.06,.3,.31,.56,.42,.86,.26,.76,.49,1.53,.72,2.29,.19,.64,.29,1.31,.57,1.91,.24,.52,.41,.96-.06,1.54l-1.23,.18c-.41-.56-.9-1.09-1.25-1.7-1.81-3.18-3.58-6.38-5.36-9.57-.08-.14-.17-.28-.2-.44-.36-2.02-1.24-3.85-2.01-5.73-.57-1.4-.87-2.92-1.26-4.39-.18-.7-.3-1.41-.69-2.18-.12,.29-.3,.58-.34,.88-.33,2.51-.62,5.03-.48,7.57,.05,.96,.24,1.91,.37,2.86,.19,1.47,.32,2.94,.57,4.4,.28,1.66,.56,3.34,1.05,4.94,.6,1.99,1.29,3.98,2.17,5.86,1.07,2.31,2.36,4.53,3.59,6.76,.35,.63,.83,1.18,1.3,1.84l-.19,.92c-.87,.75-3.45-.86-3.99-2.46-.4-.2-.86-.42-1.47-.72-.92-1.48-1.89-3.13-2.96-4.7-1-1.49-2.17-2.87-3.16-4.36-.61-.92-1.04-1.97-1.56-2.97-.18-.36-.3-.78-.57-1.05-1.06-1.06-1.63-2.38-2.16-3.74-.21-.55-.59-1.04-.84-1.58-.32-.68-.65-1.36-.88-2.07-.51-1.59-.96-3.2-1.41-4.81-.26-.91-.5-1.84-.67-2.77-.09-.46-.02-.94-.11-1.39-.19-1.05-.53-2.11-.53-3.16,0-2.26-.68-4.54,.11-6.79,.03-.08,.05-.16,.04-.24-.11-2.05-.22-4.09-.24-6.13,.07-.7,.16-1.4,.2-2.1,.1-1.95,.38-3.85,1.18-5.65,.39-.87,.66-1.8,1.08-2.93-.75-1.25-.75-3.05-1.97-4.45-.95-1.08-1.1-2.63-1.41-4.03-.22-1-.37-2.02-.58-3.2l2.01-.54c-.63-1.64-1.08-3.42-3.62-3.25l1.36,4.05c-.78,.1-1.04-.37-1.23-.84-.75-1.83-1.17-3.74-1.39-5.71-.12-1.07-.37-2.12-.51-3.18-.07-.55-.01-1.12-.01-1.68,0-.48,0-.97,0-1.7l-1.27-.95c.08-1.41,.16-2.84,.24-4.28,.06-1.04,.26-2.09,.16-3.12-.25-2.65,0-5.21,1-7.63-.32-1.57-.33-3.05,.34-4.51,.4-.88,.54-1.88,.98-2.73,.84-1.62,1.79-3.18,2.74-4.74,.71-1.17,1.5-2.29,2.19-3.47,.47-.79,.76-1.69,1.26-2.45,.36-.55,.95-.95,1.42-1.44,.69-.72,1.37-1.45,2.05-2.18,.38-.41,.71-.87,1.13-1.23,1.95-1.67,3.91-3.35,5.91-4.96,.93-.75,1.85-1.53,3.12-1.73,.44-.07,.82-.47,1.23-.71,1.62-.95,3.25-1.89,5.13-2.98,.29-1.28,1.38-2.46,2.35-3.74,.78-1.03,1.28-2.26,1.91-3.4,.16-.28,.35-.54,.53-.8,1.2-1.74,2.38-3.49,3.6-5.22,.43-.62,.94-1.19,1.44-1.75,.93-1.04,1.89-2.06,2.84-3.09,.46-.5,.9-1.01,1.37-1.5,2.94-3.1,5.9-6.18,8.82-9.29,2.96-3.16,6.38-5.76,9.75-8.43,1.43-1.13,2.87-2.25,4.35-3.3,3.6-2.55,7.45-4.65,11.48-6.42,1.65-.73,3.24-1.63,4.93-2.26,2.86-1.06,5.82-1.83,8.65-2.95,3.51-1.4,7.24-1.87,10.86-2.83,2.17-.57,4.43-.76,6.65-1.14,2.12-.36,4.23-.76,6.35-1.11,.95-.16,1.91-.26,2.86-.33,3.09-.24,6.18-.49,9.28-.66,2.73-.15,5.44-.05,8.14,.51,.89,.19,1.84,.03,2.76,.06,.52,.02,1.1,0,1.55,.2,1.55,.7,3.22,.64,4.85,.88,1.79,.26,3.58,.55,5.35,.92,2.52,.53,5.03,1.1,7.52,1.73,1.51,.38,2.98,.9,4.48,1.33,.25,.07,.53,.04,.93,.06-.05-.49-.1-.88-.13-1.27-.14-2.33-.34-4.66-.37-6.99,0-.59,.49-1.2,.88-1.76,.05-1.28,.39-2.62-.09-3.91h-1.4c-.98-.63-1.22-1.65-1.26-2.72-.09-2.01-.4-4.01-.05-6.02,.09-.51,.21-1.01,.34-1.66l1.96-.1,.09,.39c-.4,.19-.8,.37-1.2,.56-1,2.19-.64,7.87,.6,8.73,.64-.3,.72-.86,.71-1.5-.01-1.49-.06-2.98,.02-4.46,.1-1.87,.32-3.74,.51-5.75l-1.28,.18,.04-.76-.2-.08-.64,.94c-2.1,.46-4.29,.93-6.61,.45-2.22-.46-4.43-1.02-6.24-2.34-1.62-1.19-3.09-2.67-2.98-5.05,.04-.98-.22-1.99-.41-2.98-.2-1.04-.08-2.02,.37-2.95,.42-.86,.71-.95,1.74-.64,.15,1.41,.3,2.82,.46,4.23l4.69,2.33,1.98-.34c2.01-.75,2.35-2.97,3.66-4.23,.46-1.48,.68-3.07,1.43-4.36,.69-1.21,1.31-2.48,2.36-3.56,1.19-1.22,2.49-2.06,3.95-2.83,1.85-.97,3.61-.94,5.36,.19,.14,.09,.28,.16,.42,.24,.07,.04,.15,.05,.05,.02l7.8-2.32,.51,1.17-1.03-.32c.03,.55-.05,.98,.09,1.32,.69,1.65,1.48,3.26,2.15,4.92,.31,.78,.95,1.55,.35,2.41,.44,.81,.63,1.81,1.94,1.56l-.19-2.45,.86-1.16c-.2-.52-.29-1.21-.66-1.68-.9-1.16-1.91-2.24-2.92-3.32-.36-.39-.84-.66-.62-1.3Zm-.25,112.61l1.94-1.68,1.15,1.7c-1.26,1.58-1.29,2.01-.45,2.82l1.75-2.39-.34-2.85c-1.46-.71-2.52-.25-3.67,.48-.11,.61-.23,1.27-.35,1.94q-.76,.64-.22,1.47l.2-1.49Zm-108.24,80.84c.59,1.2,1.96,1.22,2.91,1.89,1.05,.74,2.41,1.06,3.64,1.55,.28,.11,.59,.17,.99,.29l.45-1.11-.66-.74,.14-.99c-.43-.64-.97-.98-1.7-1l1.35,1.44-.22,.24c-1.41-.65-2.82-1.3-4.47-2.06l-2.46,.5,.96-1.15c-2.24-1.52-4.53-2.69-7.19-3.29l.31,2.15c1.02,1.6,2.91,1.97,4.78,2.61,.19-.64,.66-.52,1.15-.35Zm-36.88-4.85l2.78,.77,.09-1.61-2.06-1.63-.05,.17c-1.26-.34-2.51-.68-3.91-1.06l-.7,1.41,.66,.83-1,.3-.49,1.42c.86,1.64,2.4,1.63,4.1,1.85l.6-2.47-.02,.02Zm173.39-51.74c-.65-.54-1.33-1.04-1.92-1.64-.45-.45-.77-1.01-1.15-1.53-.66-.91-1.33-1.8-1.97-2.72-.8-1.16-1.56-2.35-2.4-3.63-.57,.74-.34,1.25-.08,1.75,1.22,2.39,2.45,4.77,3.7,7.19,.9,.26,1.74,.5,2.78,.8l-1.03,.79c.58,.69,1.14,1.35,1.52,1.81l1.69-.12,.8-.71c-.7-.71-1.34-1.37-1.98-2.03,.72-.13,1.21,.19,1.66,.74,.94,1.15,1.95,2.25,2.9,3.38,.17,.2,.22,.51,.36,.74,.48,.82,.9,1.69,1.93,2.01l.35-1.73-2.11-1.03c.06-1.58-.53-3.09-1.9-4.12-1.56-1.18-2.71-2.7-3.94-4.18v-.88l-1.07-1.5-1.64-.9-.73,1.01c.11,1.24,.78,2.04,1.7,2.7l.83-.62,.42,.48c-.15,.44-.29,.84-.43,1.25l.29-.22c.56,.61,1.11,1.22,1.67,1.83l-.17,.21-.08,.83Zm-64.15,115.6c-1.8,1.47-2.67,3.6-3.91,5.47-.54,.81-.95,1.71-1.49,2.7-.71-.98-.26-1.85-.42-2.46,2.58-4.83,5.14-9.46,6.47-14.69,1.3-5.1,2.9-10.12,2.92-15.47-.34,.92-.5,1.88-.75,2.82-.25,.95-.58,1.87-.88,2.8l.16,.07-.65,.52,.16,.07-1.98,5.7c.67,1.01,.44,1.96,.1,2.94-.36,1.04-.63,2.12-1.02,3.45-1.08,1.13-1.11,3.1-2.02,4.66l-.8,.14,.1,1.2c-1.11,.11-.56,1.04-.79,1.63l-.97,.26c-.02,.65,.17,1.4-.74,1.49-.01,1.03-1.76,4.29-2.44,5.15-1.51,2.02-3.02,4.03-4.54,6.05l.28,.29c2.55-1.71,5.11-3.43,7.66-5.14l-.18-.16c.56-.66,1.08-1.36,1.67-1.98,1.29-1.35,2.83-2.41,3.82-4.11,.65-1.12,1.89-1.91,2.87-2.84,.43-.86,1-1.61,1.59-2.34,.15-.19,.44-.32,.49-.52,.51-2.23,2.63-3.6,3.08-5.91,.3-1.54,1.14-2.97,1.6-4.48,.55-1.8,.8-3.7,1.47-5.45,.6-1.57,.58-3.13,.69-4.71,.15-.81,.26-1.63,.36-2.44,.21-1.72,.55-3.44,.59-5.16,.06-2.52-.05-5.06-.2-7.58-.08-1.39-.36-2.78-.61-4.15-.27-1.45-.71-2.87-.9-4.32-.26-1.92-1.29-3.54-1.87-5.34-.05-.16-.27-.28-.42-.41l-3.79-3.59c-1.8-.97-4.16-1.61-6.81-2.02,.51,1.07,.58,2.15,1.63,2.71l.38-.66c.68,.24,1.36,.39,1.96,.7,1.72,.9,3.48,1.85,4.5,3.57,2.5,4.24,4.21,8.72,3.54,13.8-.07,.56-.12,1.12-.14,1.69-.1,2.98,.07,5.99-.35,8.92-.45,3.14-.54,6.37-1.78,9.38-.23,.55-.27,1.18-.44,1.76-.57,1.89-1.05,3.81-1.76,5.65-.84,2.18-2.03,4.23-2.82,6.42-.79,2.2-2.07,4.1-3.15,6.12-.05,.09-.18,.13-.43,.3,.35-.94,.64-1.71,.93-2.49,.64-.69,.95-1.54,1.39-2.33l-.36-.17c-.34,.84-.67,1.68-1.01,2.52Zm23.75-206.58l-.42-1.84-1.31-.16v6.19h-.31c-.23-2.08-.47-4.16-.72-6.35-1.54-.38-1.04-1.98-1.55-3.08-.18,.46-.24,.89-.22,1.31,.03,.8,.1,1.61,.15,2.41,.12,1.76,.22,3.52,.38,5.27,.02,.27,.27,.62,.52,.76,.89,.51,1.81,.95,2.86,1.49,.14-.53,.34-.94,.34-1.36,0-1.19-.07-2.39-.13-3.58-.03-.45-.14-.91,.44-1.1,.18,1.43,.31,2.88,.56,4.3,.2,1.13,.33,2.33,1.26,3.18l1.14-.41c5.93,3.07,11.9,6.15,17.94,9.27,0-.62,.01-1.08,0-1.55-.04-1.28-.08-2.57-.13-3.85-.02-.4-.02-.82-.13-1.19-.37-1.22-.46-2.43-.19-3.7,.21-.97,.28-1.95-.02-2.98-.42-1.45-.62-2.97-.91-4.45l-.78-.38-.17-1.16h.74l-1.3-3.54c-.09-1.04-.24-2.48-.34-3.93-.1-1.47-.16-2.94-.24-4.45l1.33-1.16-.27-2.9-2.41-.79c-.16-2.22-.31-4.26-.47-6.31l-3.39-3.69c-1.81,.05-3.25-1.14-4.7-1.96l-2.01,.97-.25,1.07c-.47,.43-.76,.91-1.15,1.01-.85,.22-1.06,1.1-1.76,1.46-.78,.4-1.51,.89-2.25,1.36-.74,.47-.99,1.13-1.07,2.03-.14,1.63-.49,3.25-.75,4.87,.09-1.79,.17-3.57,.27-5.63l-1.94,1.04v4.81l1.69-.24c-.41,2.86,.35,5.69,.26,8.76-.78-.85-.88-1.7-.91-2.58-.06-1.6-.09-3.2-.21-4.79-.02-.27-.37-.52-.57-.78l-.37,.07c-.15,1.09-.45,2.18-.42,3.26,.07,2.57,.29,5.14,.47,7.71,.09,1.26,.22,2.51,.34,3.79l1.39,.58c.71-2.31-.57-4.54,.14-6.66h.28c.32,2.36,.64,4.71,.96,7.05l.61,.82q.1,1.2-.28,1.71Zm-132.3,56.33c.24-.19,.45-.42,.72-.55,.52-.26,1.07-.47,1.61-.7l.02-.27,3.74,1.16c.37-.11,1.08-.45,1.81-.51,.75-.05,1.51,.19,2.27,.28,.24,.03,.5,.05,.72-.02,.35-.11,.67-.3,1.25-.57-1.24-.87-2.18-1.65-3.51-1.61-.64,.02-1.28,.03-1.91,.11-1.42,.19-2.92-.1-4.2,.77-.98-.43-1.76-.33-4.6,.59l-.91,.95c.59,.2,1.04,.13,1.5,.15,.51,.02,1.01,.12,1.52,.19-.15,.63-.63,.47-1.05,.43-.54-.06-1.07-.11-1.61-.17l-.77,1.03,.32,1.15c-2.09-.25-3.67,.79-5.41,2.04l1.44,.44c1.42-.66,3.05-.99,3.96-2.51l1.47,.36c2.42-.58,4.86-1.17,7.34-1.77l.26,.52c-2.43,.69-4.8,1.37-7.27,2.07l-.84-.23c-.56,.32-1.08,.71-1.67,.96-.91,.4-1.53,1.46-2.73,1.18-.05-.01-.13,.08-.19,.13l-.27,1.07-1.2-.39,.04-.73-1.01-.53c-.82,.64-1.57,1.32-2.41,1.86-1.17,.75-2.41,1.39-3.6,2.11-.29,.18-.5,.49-.78,.79,.27,.17,.36,.26,.47,.29,.15,.03,.32,.04,.48,0,1.6-.33,3-1.05,4.28-2.07,.8-.64,1.7-1.16,2.56-1.73l-.87,1.31,.19,.16,.61-.39,2.43,1.97-.13,.2-2.15-1.03c-.82,1.83-1.7,3.47-2.3,5.21-1.13,3.27-2.18,6.57-3.13,9.89-.67,2.32-1.16,4.69-1.66,7.05-.32,1.53-.48,3.09-.77,4.62-.31,1.64-.79,3.26-1.04,4.91-.62,4.11-.77,8.25-.35,12.4,.1,.96,.06,1.93,.12,2.89,.03,.42,.13,.83,.23,1.43,.51-.21,.88-.32,1.19-.51,.5-.32,.92-.81,1.46-1.04,2.17-.93,4.33-1.93,6.56-2.17l2.27-1.69c2.22-5.5,11.07-13.16,14.46-12.52,1.21-1.01,2.49-.64,3.79-.28l.63-.31c1.01,.29,1.94,.84,2.81,.75,1.58-.16,2.72,.41,3.77,1.5l1.21-.78c2.7-.51,5.21-.15,7.45,1.52l.2,.97c.68,.38,1.25,.86,1.71,1.43,.23,.28,.15,.8,.36,1.1,.82,1.18,1.71,2.31,2.55,3.47,.19,.26,.29,.59,.46,.88,.61,1.09,1.23,2.19,1.87,3.27,.06,.1,.28,.1,.39,.14,.27,1.08,.47,2.11,1.45,2.58h1.66l-.03-.11c1.26-.23,2.51-.45,3.91-.71l1.14-1.42c-.55-.88-.97-1.82-1.64-2.54-1.33-1.44-1.2-3.07-.96-4.78,.07-.54,.07-1.12-.05-1.64-.31-1.29-.79-2.55-1.04-3.85-.34-1.77-.53-3.56-.81-5.35-.03-.21-.23-.4-.31-.53-.89,.22-1.74,.31-2.47,.65-1.11,.51-2.09,1.3-3.21,1.79-1.94,.85-3.85,2.06-6.22,1.19-.48-.39-1.04-.84-1.59-1.29l-.1,.31-2.51-.28c-2.6-.12-5.3,.21-6.87-.68-.92-.78-.85-1.84-.8-2.87-.18-.07-.29-.16-.4-.15-1.63,.17-3.26,.29-4.88,.54-.98,.15-1.93,.59-2.91,.68-.8,.07-1.38,.28-1.87,.91-.53,.68-1.11,1.31-1.67,1.97l-.27-.19,2.29-3.36-1.77-1.21c-1.2,1.04-2.32,2.01-3.55,3.08-.1-1.69,1.32-2.24,2.03-3.38l-1.13-.22c-.81,.46-1.55,.79-2.2,1.26-.62,.44-1.14,1.01-1.7,1.52l-.24-.25c.58-1.1,1.52-1.91,2.78-2.72-1.98-.43-3.82-.48-5.62-1.34,1.99-.84,9.97-.8,13.37,2.13,2.75-.9,5.7-1.75,8.77-.53l.96-1.96c3.01,.25,6.01,.49,9.14,.75,2.74-2.18,6.03-3.91,9.37-5.74l1.56,.42c.49-.3,1.05-.7,1.65-1,.6-.29,1.23-.58,1.88-.66,.76-.09,1.54,.04,2.34,.08,.49,1.01,1.92,.85,2.39,2.02,.39,.98,1.09,1.83,1.87,3.09,1.12,5.48,.61,6.8-.46,9.55,0,1.02,.07,1.7-.01,2.37-.26,1.96,.66,3.34,2.1,4.58,1.5-2.1,2.99-4.18,4.47-6.25-1.2-2.33-.91-4.81-.77-7.24,.05-.95,.03-1.83-.26-2.72-.2-.65-.4-1.32-.44-1.99-.07-1.2-.02-2.4-.02-3.62-.31-.36-.55-.76-.88-1.02-1.13-.86-2.53-1.25-3.63-2.23-.84-.75-1.76-1.37-2.44-2.3-.54-.74-1.12-1.48-1.82-2.05-1.3-1.04-2.71-1.96-4.26-3.06l-1.48,1.37c.62,.45,1.06,.77,1.47,1.07l1.5-.81,.51,2.56c2.3,2.14,4.79,3.82,7.83,4.71v.76c-3.01-.24-4.81-2.64-7.37-3.7-.64-2.1-2.97-2.47-4.35-4.14l-1.76,.67-1.38-.27c-.87,.75-1.68,1.45-2.78,2.4-.55,.75-1.35,1.83-2.22,3.01-.21,.24-.48,.6-.8,.91-.28,.27-.59,.59-.94,.69-.77,.23-1.08,.78-1.28,1.47-.14,.47-.31,.93-.46,1.4-.49-.97-.04-1.78,.22-2.59-1.61-.76-2.77-.31-3.29,1.21-.15,.42-.27,.85-.46,1.25-.12,.24-.37,.43-.56,.64l-.27-.16c.14-1.12,.68-2.12,1.35-3.31l-2.12-.19c-.88,1.15-1.75,2.3-2.63,3.44l-.29-.16c.44-.96,1.05-1.85,1.64-2.92-1.65-.55-3.27,.75-5.02-.17,2.4-1.4,4.83-1.37,7.22-1.55l.79-.5,.04,.26h3.79v.22l1.52-.51c1.53-2.14,2.77-4.26,5.06-5.55-.44-.96-.51-2.13-1.57-2.73-.69-.39-1.44-.69-2.12-1.12-1.32-.83-2.61-1.71-3.92-2.57-1.17-.37-2.32-.81-3.42-1.35-.72-.35-1.31-.98-2.05-1.25-1.91-.68-3.84-1.4-5.82-1.78-2.14-.42-3.8-1.68-5.68-2.52v-.97l-1.18-.25c-.6,.98-1.52,.54-2.54,.48l-.51-.79c-1.18,.24-2.24,.44-3.49,.69l-.55-.25Zm177.99,62.14c-.81,0-1.21-.58-1.58-1.17-.43-.68-.81-1.38-1.16-1.99-2.21,.15-4.32,.29-6.42,.43-.59,.85-1.4,1.38-2.3,1.04-2.02-.77-4.02-1.63-5.95-2.61-.88-.44-1.58-1.24-2.47-1.97,.92-.46,1.34,.02,1.73,.36,1.73,1.53,3.78,2.43,5.96,3.05,.25,.07,.56-.06,.85-.1-.06-1.14-.54-1.63-1.52-1.89-1.36-.37-2.67-.94-3.62-2.15-.86-.08-1.73-.17-2.69-.26l.36-.5-.41-2.26c1.07-.36,1.96-.69,2.87-.97,.92-.28,1.84-.62,2.79-.73,1.19-.13,2.38-.13,3.29-1.16,.22,.25,.45,.41,.5,.61,.27,1.11,1.03,1.78,1.99,2.26,.46,.23,.98,.36,1.46,.56,1.73,.73,3.05,2.21,4.94,2.68,.35,.09,.62,.6,.88,.95,.66,.9,1.28,1.82,1.99,2.83l2.03-.82c-.21-.61-.25-1.18-.55-1.55-.94-1.13-1.97-2.17-2.98-3.26-.07,.44-.14,.87-.22,1.3l-.28,.09c-.27-1.16-.99-1.87-2-2.3-1.36-.58-2.72-1.16-4.08-1.76-.89-.39-1.78-.81-2.66-1.21,1.41-.09,7.52,1.98,8.38,3.12,1.58-.5,1.79,1.31,2.85,1.69,1.54-1.2,3.1-2.39,4.63-3.63,.33-.27,.51-.71,.84-1.17l-.64-.89c-2.12,1.24-3.64,3.06-5.65,4.17l-.23-.28c1.31-1.13,2.62-2.27,3.98-3.45-.51-1.07-.95-2.01-1.4-2.94-.14-.29-.39-.56-.41-.86-.13-1.37-.96-2.22-1.94-3.06-.84-.72-1.78-1.47-2.28-2.41-.63-1.18-1.42-1.84-2.88-2.02,.94,2.48,2.53,4.44,4.07,6.4,.52,.66,1.51,.96,2.45,1.51l.04,.65-1.27-.12c-2.9-1.54-4.06-4.44-5.49-7.02l-.74,.06c-1.98-1.53-2.74-4.02-4.84-5.31-.12-.07-.17-.27-.25-.41-.81-1.57-1.62-3.13-2.44-4.7-.46-.88-.98-1.74-1.41-2.64-.56-1.16-1.09-2.33-1.6-3.51-.29-.66-.54-1.35-.75-2.04-.07-.23,.08-.52,.17-1.04,.82,1.9,1.51,3.51,2.27,5.27l.75-.82c-.12-.49-.15-1-.36-1.42-.76-1.48-1.55-2.91-1.94-4.6-.42-1.8-1.56-3.41-1.51-5.38,0-.3-.32-.62-.46-.85l-1.67-.37,.44,1.94-.24,.09-.83-1.62-2.06-.55c-1.14,0-2.36,.24-3.41-.06-1.25-.36-2.09,.14-2.89,.74l-1.09,1.77-.16-.14c-.47,.14-.94,.28-1.49,.44l.82,2.32c-.05,1.28-.87,2.54-1.4,3.92-.57,1.49-1.04,2.93-2.26,3.42-.51,1.09-.87,1.85-1.24,2.66,.18,.1,.37,.28,.59,.32,1.41,.26,2.89,.31,4.22,.79,1.69,.61,3.72,.67,4.93,2.6v2.47c-.54,1.15-1.02,2.2-1.55,3.32,1,2.58,3.03,4.96,1.88,8.04l.6,.11c.44,1.27,.49,.98-.99,4.5l-1.01,.53,.04,.82h-3.42c.31,1.12,.62,2.26,.93,3.4l-.23,.02c.14,1.74,.29,3.49,.44,5.28,.31,.07,.57,.16,.84,.19,1.24,.17,2.53,.16,3.7,.54,2.72,.88,5.2,2.31,7.5,4.01,.37,.27,.59,.75,.88,1.13l-.2,.17c-.64-.34-1.25-.78-1.93-1.01-.98-.33-2.01-.5-2.66-1.44-.04-.06-.32,.06-.51,.09l1.51,2.81,.02-.02c-.5-.38-1.07-.71-1.5-1.17-.77-.81-1.37-1.78-2.2-2.5-.5-.43-1.3-.54-1.98-.74-.11-.03-.29,.19-.46,.31,.56,.73,1.17,1.35,1.53,2.08,.33,.68,.4,1.49,.58,2.24l-.35,.12c-.64-1.16-1.28-2.31-1.96-3.54-.97-.02-1.37-1.48-2.68-1.04l.85,1.91-.28,.2c-.72-.73-1.46-1.43-2.14-2.19-.22-.25-.27-.65-.38-.98-.03-.07,0-.16,0-.24-.12-1.2-.29-2.39-.35-3.59-.06-1.08-.01-2.17-.01-2.87-.46-1.57-.64-2.88-1.22-3.99-.56-1.08-.47-2.06-.33-3.14,.15-1.15,.21-2.31,.28-3.47,.04-.76,.08-1.53,.04-2.29-.05-1.03-.17-2.06-.24-2.9-1.27-.52-2.36-.92-3.39-1.41-.49-.23-.86-.72-1.34-.97-1.45-.76-2.92-1.48-4.4-2.19-.34-.16-.75-.19-1.09-.27-.23,.5-.33,.81-.49,1.08-.76,1.21-1.53,2.42-2.32,3.62-.13,.19-.34,.34-.55,.45-.71,.38-1.43,.72-2.12,1.07l-.58,1.48-2.42,.76,.05,1,.22-.11c.81,1.17,1.62,2.34,2.44,3.5,.2,.29,.61,.45,.82,.75,.68,1,1.39,1.99,1.89,3.08,.78,1.68,1.44,3.44,.86,4.9l1.41,6.04c.5,2.6,.84,4.36,1.15,5.96l-.6,1.16,.2,1.24-1.38,.72h-2.42l.03,.73,2.1,1.38c.63,.22,1.28,.45,1.83,.83,.79,.55,1.44,1.31,2.26,1.79,1.32,.78,2.73,1.4,3.98,2.03l.97,2.23-.46,.85c-3.67-.75-6.61-2.78-9.52-5.12-.13-.3-.32-.74-.51-1.18,.07-1.68,.07-1.68-.86-1.87-.12,2.71-.25,5.42-.38,8.3,.63,.26,1.28,.57,1.94,.81,3.39,1.22,6.24,3.1,8.06,6.32,.29,.52,.68,.98,1.03,1.47l-.24,.22c-1.14-1.27-2.34-2.46-3.85-3.44,0,.9,.12,1.63-.03,2.29-.18,.76,.98,1.27,.26,2.18-1.42-1.44-.74-3.4-1.56-5.08-.69-.09-.82-1.58-2.04-1.11,.11,1.3,.21,2.47,.33,3.87l-.94-.52c-.17-1.52,.14-3.01-.87-4.29l-1.46-.28c-.03,1.31,.35,2.52-.23,3.68-.49-1.15-.69-2.32-.63-3.26l-2.08-3.54,.41-.69c.1-3.17,.2-6.09,.29-9.01l-.82-.95,.17,1.19c-1.5-.7-2.86-1.33-4.26-1.98l-.58,1.53c-3.15-.65-4.89-3.33-7.32-4.95,.83,.28,1.61,.66,2.3,1.17,.74,.54,1.35,1.25,2.09,1.79,.57,.42,1.25,.69,1.99,1.09l.35-.83c-.55-.69-.95-1.22-1.4-1.72-.24-.27-.52-.52-.83-.7-1.94-1.09-3.57-2.54-4.97-4.24-.9-.39-1.79-.77-2.83-1.22l-.29-.88,.22-.22c1.02,.64,1.94,1.68,3.48,.88-.62-1.53-1.78-2.55-3.13-3.42-1.36-.88-2.7-1.79-4.24-2.81,.44-.08,.73-.24,.92-.16,2.71,1.1,5.01,2.77,6.79,4.9,.57,.32,1.05,.52,1.46,.83,1.21,.91,2.33,1.94,3.59,2.78,1.42,.96,2.91,1.8,4.01,3.19,.25,.32,.78,.42,1.29,.67,.05-.39,.1-.58,.1-.77,0-2.31,0-4.62,0-6.94,0-.74-.47-1.17-1.05-1.5-.27-.15-.56-.27-.64-.31-.26-.59-.38-1-.61-1.34-1.13-1.69-2.58-3.15-3.5-4.99-.7-1.4-1.41-2.79-2.15-4.26l-1.42-.12c-.68,.59-1.44,1.25-2.21,1.92l.16,.21-.69,.19-1.3,1.72-1.8,.52c-.29,.88-.73,1.52-1.51,1.43-.39,.47-.59,.89-.92,1.1-.98,.61-2.02,1.14-3.03,1.71-.2,.11-.36,.3-.57,.48,4.45,1.77,6.99,5.25,9.12,8.88v2.14l1.1,.33c.17,.76,.52,1.37,.83,2,.39,.79,.87,1.56,1.08,2.4,.34,1.35,.49,2.74,.72,4.18l-.39,1.27c.72,1.77,.29,3.35-1,4.65,.29,1.03,.6,1.95,.8,2.89,.38,1.79,.36,3.67,1.2,5.38,.35,.72,.69,1.17,1.55,1.28,1.97,.24,3.69,1.07,5.14,2.44,.96,.91,1.9,1.83,2.84,2.76,.22,.21,.4,.46,.6,.68l-1.49,.28c.33,1.58,.66,3.12,.56,4.71-.88-1.26-1.29-2.68-1.46-4.14-.21-1.78-1.42-2.66-2.96-3.67,.36,2.13,.68,4.02,1,5.9-1.77-1.67-1.42-4.06-2.22-6.22l-1.86-1.33-.53,.7c.63,1.72,1.49,3.33,.55,5.16-.93-1.72-.43-3.89-1.78-5.43-.38-.27-.89-.49-1.07-.88-.5-1.08-1.01-2.2-1.26-3.36-.45-2.05-.72-4.14-1.04-6.12-2.52-1.72-2.71-2.04-2.68-4.23-.9-1.17-1.16-2.53-1.24-3.86-.11-1.69-.2-3.34-1.02-4.86-1.6-.3-2.69-1.39-3.79-2.44-1.12-1.08-2.12-2.29-3.28-3.33-1.26-1.12-2.28-2.41-3.22-3.89l-1-.58-1.66,.56-1-1.08c-.36,.61-.58,1.23-1.01,1.62-.45,.42-1.1,.64-1.67,.94-.38,.56-.81,1.1-1.36,1.46-.56,.37-1.22,.59-1.86,.83-.89,.33-1.77,.7-2.69,.91-1.23,.29-2.49,.48-3.75,.63-.53,.06-1.09-.11-1.79-.19l-.55,1.1c-.79,.29-1.49,.67-2.22,.79-.92,.14-1.93,.29-2.79,.03-.98-.29-1.83-1.03-2.77-1.59-.41,.82-.6,1.64-.23,2.54,.12,.28,.12,.64,.1,.95-.07,1.51-.16,3.01-.25,4.64,2.67-1.46,5.54-2.38,8.48-3.07,.54-.32,1.07-.7,1.67-.84,1.12-.27,2.28-.4,3.42-.61,2.11-.38,4.22-.78,5.98-1.1,1.91,.62,3.42,1.11,4.95,1.6,.52,1.33,.99,2.54,1.37,3.51,.73,.19,1.26,.22,1.67,.45,.9,.51,1.74,1.13,2.62,1.69,.58,.36,1.34,.55,1.75,1.05,.88,1.07,1.58,2.29,2.35,3.45,3.3,4.4,5.53,9.28,6.93,14.48l-.66,1.18c.26,.36,.47,.8,.81,1.1,.87,.77,1.79,1.47,2.69,2.2,.15,.49,.46,.86,.64,1.28,.3,.69,.53,1.41,.75,2.14,.07,.22-.06,.51,.03,.7,1.16,2.54,1.37,5.31,1.98,7.98,.19,.83,.14,1.72,.31,2.55,.33,1.59,.63,3.14,.27,4.79-.15,.68,.09,1.43,.12,2.16,.02,.52,.02,1.05-.03,1.56-.08,.83-.22,1.64-.32,2.47-.1,.84-.13,1.68-.27,2.51-.29,1.74-.62,3.47-.96,5.2-.24,1.22-.5,2.43-.8,3.63-.24,.95-.65,1.86-.8,2.82-.21,1.36-.53,2.65-1.29,3.63,.03,2.74-1.86,4.59-2.56,6.85l-1.01,.71-.37,1.3c-1.22,1.35-2.44,2.7-3.45,4.2-1.02,1.51-2.64,2.61-3.39,4.64,.65-.2,1.02-.35,1.41-.42,3.23-.61,6.58-.63,9.66-1.99,.29-.13,.63-.15,.94-.23,1.21-.28,2.46-.46,3.63-.86,2.93-1,5.85-2.02,8.71-3.19,2.54-1.04,5.03-2.2,7.46-3.46,2.39-1.24,4.69-2.65,6.99-4.04,1.63-.98,3.29-1.96,4.8-3.11,3.44-2.62,6.81-5.33,10.19-8.02,.97-.77,1.92-1.59,2.81-2.45,1.21-1.17,2.37-2.4,3.52-3.63,1.38-1.47,2.77-2.92,4.07-4.47,2.56-3.05,5.05-6.15,7.57-9.23,.1-.12,.18-.26,.26-.4,.74-1.29,1.46-2.58,2.2-3.86,1.13-1.94,2.2-3.93,3.45-5.79,1.22-1.81,2.52-3.54,3.26-5.63,.79-2.23,1.73-4.41,2.54-6.64,.66-1.81,1.24-3.65,1.81-5.5,.2-.65,.22-1.34,.35-2.17,.78-.35,.84-1.2,.84-2.1,.3-.64,.49-1.32,.66-2,.23-.89,.44-1.78,.68-2.66,.26-.96,.6-1.91,.81-2.89,.44-2.11,.82-4.22,1.21-6.34,.17-.9,.36-1.79,.45-2.7,.1-.95,.09-1.91,.16-2.86,.04-.51,.15-1.02,.22-1.53,.23-.64,.4-1.28,.47-1.94,.17-1.6,.25-3.21,.44-4.8,.11-.88,.07-1.68-.49-2.33,.11-.48,.3-.9,.28-1.32-.08-2.12-.16-4.24-.32-6.35-.26-3.37-.56-6.73-.91-10.09-.13-1.29-.38-2.59-.71-3.85-.5-1.97-1.3-3.88-1.63-5.88-.47-2.86-1.18-5.63-2.21-8.33-.84-2.22-2.01-4.32-2.35-6.72-.06-.42-.32-.82-.52-1.22-.53-1.08-1.1-2.14-1.62-3.22-1.02-2.12-1.95-4.29-3.05-6.36-1.07-2.02-2.31-3.94-3.48-5.9-.35-.59-.66-1.2-1.05-1.76-.79-1.13-1.62-2.24-2.44-3.36-1.06-1.44-2.08-2.92-3.2-4.31-.9-1.12-1.88-2.19-2.9-3.22-1.64-1.65-3.33-3.25-5-4.86l-.16,.15-.59-1.26-.26-.03c-.24,.99-.49,1.98-.73,2.94l-2.25,.37-.49-1.1,1.46-.8c0-.48,.02-.97,0-1.45-.06-1.32-.78-2.24-1.83-2.94-.5-.33-1-.66-1.57-1.03h-.99l-3.97,1.11,1.38,1c.97-.48,1.98-.53,3.09-.44,1.7,.14,2.17,.53,1.98,2.37l-.68,.98c.54,1.62,1.39,3.11,1.08,4.96-.31,1.79-1.8,2.86-2.13,3.97,.26,3.03,.48,5.55,.7,8.14-.83,.48-1.66,.97-2.27,1.32-.09,1.52-.17,2.75-.24,3.94l1.08,1.45-.51,.33-1.11-1.36c-.82,.2-.69,.74-.69,1.21,0,1.6,0,3.21,0,4.95,.96,.1,1.68,0,2.34-.55-.21-1.31-.43-2.59,.02-3.83h.28v2.24l.13-.02c.13,.64,.26,1.28,.43,2.09,.94,1.12,2.76,.55,3.93,1.55,.87,1.53,.87,1.5,2.74,1.9,2.04,.44,4.08,.85,5.49,2.66,1.1,1.41,1.16,2.36-.08,3.76,.62,1.34,1.19,2.75,1.9,4.09,.64,1.2,1.37,2.33,1.35,3.78,0,.4,.3,.81,.52,1.38,1.56-.3,3.1-.36,4.65-.18,1.57,.18,2.88,.94,4.26,1.58,1.36,.62,3.1,2.35,3.04,3.07-1.07-.6-2.11-1.3-3.25-1.77-.76-.32-1.5-1.13-2.67-.49l2.95,3.4-.29,.24c-1.66-1.21-3.12-2.6-3.97-4.63-.61,.33-1.39-.25-1.62,.33,.85,1.08,1.61,2.03,2.36,2.98l.19-.18,.35,1.41-1.29,.52-.15-.23c.2-.37,.4-.74,.61-1.1l-.52,.46c-.96-1.12-1.92-2.24-2.88-3.36l.24-.36-1.57,.21c.96,1.46,1.83,2.72,2.39,4.34l-1.32-.11c-.22-1.92-1.17-3.26-2.94-4.05-.83-3.2-1.81-6.34-3.69-9.1l-1.08,.54c-.83-.46-1.48-.82-2.24-1.24-.83-1.48-2.82-1.3-3.96-2.39l-1.31,.51-1.61-.21c-.49,1.35,.49,2.44,.48,3.77l1.73,1.21-.36,.85v1.82c.8,1.37,1.49,2.81,2.06,4.3,.51,1.33,1.56,2.23,2.26,3.48,.65-.73,.48-1.35,.24-1.97-.46-1.16-.91-2.32-1.4-3.46-.47-1.1-.97-2.19-1.49-3.27-.21-.45-.48-.86-.72-1.29,.28-.01,.41,.07,.51,.18,1.94,2.23,2.9,4.99,4.1,7.61,.38,.83,.76,1.67,1.51,2.1,1.19,.68,1.73,1.81,2.21,2.92,.6,1.39,1.55,2.46,2.75,3.2,1.24,.76,2.05,1.74,2.49,3.05,.61,1.84,1.45,3.43,3.64,3.78,.68,.8,1.37,1.61,2.12,2.49l-.77,.15c1.09,2.22,2.15,4.36,3.21,6.5-.32,.61-.63,1.21-.8,1.55-1.78,1.41-3.34,2.64-4.87,3.84,.77,1.26,1.46,2.38,2.18,3.56-.09,.65-.27,1.32-.25,1.98,.04,1.16,.26,2.31,.3,3.48,.02,.62-.03,1.32-.31,1.85-.66,1.25-1.47,2.41-1.97,3.21-1.57,.53-2.67,.89-3.48,1.16-.89,.96-1.55,1.69-2.24,2.44l.54,.85c-1.32,1.13-2.55,2.3-3.89,3.3-1.09,.81-2.24,1.7-3.51,2.08-1.86,.56-3.84,.78-5.79,.96-1.03,.1-2.09-.19-3.13-.31v-.3h3.97l-.19-1.66-1.28-.12c.6-.89,1.4-.7,2.05-.87,.68-.18,1.36-.33,1.97-.48,.16-.86,.13-1.43-.65-1.62-3.47,.67-6.1,.87-6.61,.51,.83-.41,6.29-1.08,7.94-.98,.39-.25,.91-.43,1.17-.8,.86-1.23,2.2-1.69,3.46-2.3,1.01-.49,2.14-.9,2.93-1.65,1.57-1.48,2.95-3.18,4.4-4.78l.36,.18c-.23-.79-.46-1.57-.68-2.36,.64-.92,1.18-1.87,.48-2.98-.64-1.01-1.35-1.98-2.01-2.94l-2.74-.71c.49,.53,.89,.85,1.14,1.26,1.08,1.78,2.11,3.59,3.16,5.39Zm-92.61-52.21l-.54-3.23c.67-.75,1.2-1.34,1.77-1.98,.15-.77,.44-1.6,.45-2.43,.02-1.47,.05-2.91,.78-4.22,.96-1.75,1.85-3.56,2.96-5.22,.81-1.21,1.92-2.22,2.9-3.31l.08,.11,2.27-1.8c-.17-1.44-.31-2.8-.49-4.15-.2-1.58-.44-3.16-.64-4.74-.03-.22,.17-.45,.21-.69,.09-.62,.15-1.24,.24-1.99-1.41-.31-2.66-.62-3.91-.85-.74-.13-1.4-.3-1.9-.92-.7-.87-1.45-1.71-2.18-2.56-.25-.28-.61-.57-.99-.59-1.92-.1-3.85-.17-5.78-.17-1.38,0-2.72,.84-4.16,.11l-3.29,4.23-.28-.19c1.02-1.66,2.04-3.33,3.15-5.14l-1.66-.87c-1.47,.86-2.28,2.25-3.26,3.46l-.35-.28c.86-1.3,1.72-2.6,2.59-3.93-.79-.77-1.59-.52-2.23-.02-.97,.76-1.82,1.67-2.73,2.51-.2,.18-.46,.27-.7,.41l-.2-.23,2.86-3.62-4.58-.52c-.16-.91,.67-.89,1.09-.9,1.47-.05,2.95,.02,4.42,.12,.75,.05,1.58,.07,2.2,.41,1.64,.9,3.18,1.96,4.67,2.9l4.09-.64c1.74,.21,3.62,.44,5.51,.66l2.52-1.88,3.28-.82c1.87,.85,3.79,1.71,5.62,2.54l.39,.99c1.63,.45,1.95,2.07,2.91,3.08,.42,.45,.71,1.02,1.1,1.58,.18,.52,.45,1.12,.59,1.74,.3,1.44,.54,2.9,.79,4.35,.03,.15-.06,.31-.07,.47-.13,1.25-.56,2.57-.32,3.74,.28,1.34-.25,2.33-.58,3.4l-.92,.56c.08,.42,.11,.81,.22,1.18,.41,1.41,.06,2.25-1.25,3.01-1.1,.64-2.24,1.19-3.04,2.29-.62,.86-1.44,1.59-2.16,2.38l-.11-.1-1.11,2.34c.65-.12,1.08-.16,1.48-.28,2.16-.62,3.81-2.1,5.6-3.35,1.22-.86,2.54-1.6,3.88-2.28,.69-.35,1.51-.42,2.25-.69,.78-.29,1.53-.67,2.47-1.09l.46-.63c.98-.51,2.02-.82,2.74-1.48,1.36-1.25,3.11-1.6,4.77-2.48,.59-1.33,1.96-1.28,2.92-1.35,.92-.6,1.58-1.05,2.25-1.46,.95-.58,2.04-1,2.86-1.72,1.1-.97,2.42-1.49,3.69-2.08,2.75-1.27,5.63-1.35,8.56-.63,.79,.19,1.63,.15,2.36,.2l1.07-1.34c.92-.53,1.63-.89,2.29-1.33,1.74-1.17,2.76-2.99,3.92-4.64,.8-1.13,2-1.76,2.79-2.84,.08-.11,.29-.12,.44-.18,.5-.21,1.01-.43,1.56-.67-.71-2.83-.92-5.59-.29-8.41-1.91-1.14-3.72-2.26-5.56-3.32-.9-.52-1.87-.93-2.78-1.43-1.9-1.04-3.75-2.19-5.7-3.13-1.59-.76-3.3-1.29-4.97-1.9-.2-.07-.44,0-.68,0,0,1.19,.05,2.29-.01,3.38-.06,1.11-.22,2.22-.36,3.6l-1.78-.97c-.1,1.42-.18,2.69-.26,3.9l2.39,.45,.39,7.86q.31,1.09-.44,2.43c.14,.37,.44,.89,.48,1.42,.04,.5-.25,1.01-.31,1.53-.06,.57-.01,1.15-.01,1.72l-3.97-.34c-.26-.68-.62-1.26-.69-1.86-.27-2.52-.47-5.05-.65-7.58-.14-1.92-.19-3.85-.32-5.78-.05-.72-.29-1.43-.28-2.15,.06-3.09,.18-6.18,.29-9.27,0-.16,.15-.32,.23-.48l.32,.04v4.18l1.77,.31v-4.3c-1.47-.65-2.75-1.33-4.1-1.79-2.43-.83-4.89-1.56-7.35-2.26-2.05-.58-4.11-1.24-6.21-1.55-4.28-.64-8.58-1.13-12.89-1.58-2.44-.26-4.89-.44-7.34-.43-2.7,0-5.39,.24-8.09,.43-1.32,.09-2.63,.31-3.95,.44-1.32,.14-2.65,.17-3.95,.38-2.18,.35-4.36,.77-6.53,1.22-3.39,.71-6.79,1.39-10.14,2.24-2.34,.6-4.61,1.46-6.91,2.22-1.38,.45-2.79,.84-4.12,1.41-2.3,.98-4.54,2.07-6.82,3.1-1.72,.78-3.51,1.43-5.15,2.35-1.93,1.08-3.81,2.29-5.58,3.62-3.35,2.51-6.67,5.06-9.89,7.74-2.12,1.76-4.07,3.73-6.03,5.66-.85,.84-1.54,1.85-2.34,2.74-1.52,1.7-3.54,2.91-4.78,4.88-.04,.06-.13,.1-.18,.16-1.11,1.26-2.29,2.47-3.32,3.81-1.42,1.85-2.74,3.78-4.06,5.7-1.99,2.88-4.08,5.71-5.5,9.08-2.71,1.09-5.29,2.61-7.63,4.59l-.38,1.53-.56-1.19c-2.07,1.07-2.94,2.32-2.46,3.49,.14,0,.35,.07,.45,0,2.93-2.05,5.84-4.12,8.59-6.07,1.66-.07,1.98-.32,2.32-1.39,.25-.79,.6-1.54,.94-2.41,1.64-.31,3.21-.6,4.77-.9,.2-.04,.42-.06,.58-.16,1.17-.75,2.47-.65,3.76-.55,.72,.05,1.44,.19,2.15,.15,1.31-.06,2.5,.18,3.69,.75,.91,.44,1.98,.56,2.99,.81,.46,.11,.96,.12,1.41,.28,2.18,.77,4.38,1.51,6.52,2.39,1.43,.59,2.83,1.32,4.15,2.13,1.13,.7,1.9,1.72,1.69,3.24l2.07,1.39c1.26,.47,2.2,.83,3.29,1.24,.56-.34,1.63-.28,2.07-1.43l-2.53-.43c.75-1.03,1.21-1.03,3.37,.05,2.61-1.77,5.27-3.58,7.94-5.38,1.73-1.24,3.67,.02,5.35-.36,1.21,.26,2.27,.41,3.28,.72,1,.31,1.94,.79,3.39,1.4,.88,.53,2.23,1.34,3.67,2.21,.58,.95,.61,.88,1.82,1.38,.67,.28,1.47,.71,1.8,1.3,.93,1.67,1.29,3.47,.29,5.32-.2,.36-.37,.95-.22,1.26,.77,1.52-.03,2.73-.66,3.97-.27,.54-.79,1.02-.87,1.58-.25,1.78-1.25,3.21-1.93,4.79-.25,.57-.34,1.22-.52,1.92,1.31,1.33,2.57,2.6,3.77,3.82l3.51-1.59c.19-.36,.43-.87,.72-1.35,.29-.48,.62-.94,1.02-1.55-.29-.58-.6-1.27-.95-1.94-.72-1.32-.77-2.59,.22-3.81,.27-.34,.47-.74,.66-1.05-.4-1.77-.37-2.81,.21-4.61,.74-2.33,.8-4.87,2.06-7.05,.34-.58,.7-1.17,.88-1.81,.36-1.25,1.15-2.05,2.21-2.74,.51-.34,1.02-1.02,1.11-1.6,.18-1.23,.6-2.23,1.56-3.02,.14-.12,.2-.34,.28-.47-.03-.18-.02-.31-.07-.42-.87-1.93-1.71-3.87-2.64-5.77-.31-.62-.45-1.54-1.47-1.58-.91,.71-1.82,1.4-2.72,2.11-.43,.34-.85,.71-1.26,1.08-.59,.53-1.25,.51-1.92,.2-.32-.15-.61-.38-.91-.57-2.36,.8-4.06,2.36-5.28,4.24l-2.9,.98c-.95,.54-.88,1.94-1.84,2.45l-.27-.18,1.47-2.89-1.9-1.52-1.73,2.56-.25-.1-.11-1.14,.19,.06,1.24-1.93-.21-.31c-.34,.06-.75,.02-1,.2-.69,.48-1.32,1.03-1.95,1.59-.36,.32-.66,.72-1.41,.26l1.62-1.95c-.52,.05-.9,.07-1.27,.13-.79,.13-1.58,.33-2.37,.42-.3,.04-.63-.13-.94-.2l-.2-.49c.28-.15,.56-.33,.85-.45,1.15-.46,2.26-1.07,3.46-1.31,1.91-.39,3.75-.2,5.3,1.28,.67,.63,1.6,.98,2.49,1.5,.97-.95,1.8-1.81,2.68-2.61,.92-.83,1.89-1.59,2.93-2.46-.1-.72-.19-1.6-.35-2.46-.12-.62,.02-1.08,.51-1.5,.49-.42,.91-.93,1.36-1.39,1.79-.87,3.69-1.56,5.6-2.23,1.86-.65,3.73-1.28,5.6-1.92l.67,1.14,2.74,1.06-.22,1.06c.35,1.15,.67,2.21,.99,3.27,.16,.53,.38,1.06,.42,1.6,.09,1.15-.08,2.34,.14,3.46,.44,2.22-.3,4.5,.41,6.68,.04,.11-.03,.24-.01,.36,.15,1.21-.79,1.87-1.32,2.5,.21,.84,.6,1.55,.51,2.2-.17,1.22-.6,2.38-1.45,3.37-.67,.78-1.21,1.68-1.78,2.54-.51,.76-.98,1.54-1.47,2.31-.23,.37-.45,.76-.67,1.14-.42,.72-.83,1.44-1.24,2.16-.24,.62-.12,1.44-1.06,1.59l-.1,1.79,.69,.89c1.13-.82,2.16-1.57,3.14-2.28,.14-.77,.29-1.53,.43-2.3l.22,.13c.26-.31,.55-.6,.78-.93,.32-.45,.51-1.09,.94-1.37,1.23-.83,2.28-1.76,2.65-2.9,.94-.71,1.64-1.23,2.25-1.69Zm-53.61,54.87l.46-2.02c-.76-.5-1.36-.88-1.95-1.27-2.04-1.36-4.16-2.61-6.09-4.11-1.15-.89-1.92-2.21-3.06-3.19-1.72-1.47-3.21-3.22-4.96-5.01l-3.61,2.57-3.71,3.34-.02-.03-1.98,2.02,.73,1.24c0,1.11,.04,2.1-.01,3.08-.03,.68-.24,1.34-.28,2.02-.09,1.53-.55,2.92-1.39,4.2-1.08,1.65-2.15,3.31-3.29,4.92-.85,1.21-1.81,2.34-2.71,3.51-.28,.26-.4,.65-.61,.97-.7,1.08-1.45,2.12-2.13,3.21-.38,.61-.71,1.27-.39,2.09,1.51,.44,3.02,.88,4.95,1.45,1.67,0,3.75,.23,5.78,.77l-.04,.42c-1.57-.13-3.14-.26-4.79-.4l.77,3.27,1.6,.36-.24-1.34c1-.11,1.1,.84,1.76,1.2l1.19,.33c2.51-.83,4.93-.51,7.35,.55,.03-1.12-.36-1.97-1.34-2.45-2.37-.03-4.67,.11-7.09,.9l-.34-.98,1.6-.18c.33-.48,.28-1.29,1.41-1l.25,.49h4.23l1.34,.42c1.59-.65,5.2-.54,5.95,.58-1.85,.44-3.56-.63-5.4-.37l-.3,.83,1.09,1.42h1.44l1.4-1.46,.23,.2-.88,1.41,5.32-.37,.04-.38c1.76,.58,3.53,1.16,5.53,1.81l-.26-1.77-1.12-1.15c-.76-.16-1.5-.38-2.25-.46-.74-.08-1.51,.04-2.25-.03-.69-.07-1.41,.57-2.09-.2,.83-.28,1.68-.52,2.53-.55,1.44-.04,2.87,.08,4.22,.71,.33,.15,.81,.15,1.17,.06,1.25-.31,2.4-.04,3.53,.44,1.03,.44,2.09,.83,3.09,1.35,.7,.36,1.33,.86,1.96,1.33,.35,.26,.65,.58,1.04,.94,1.38-.63,2.75-1.44,4.21-.35,1.28,.92,1.54,2.4,1.94,3.84l-.5,1.6c-.3,.25-.71,.44-.89,.77-.97,1.76-2.83,2.09-4.74,.51-.68-.57-1.14-1.41-1.74-2.19l-1.44,.52c.29,2.2,1.97,3.92,4.17,4.36,2.68,.53,4.72-.4,6.13-3.16,1.07-2.11,.72-4.47-.91-6.3-1.61-1.8-3.93-2.45-5.79-1.64l-.27,.78-1.23-.36-.07-1.19c.57-.12,1.07-.2,1.55-.34,2.4-.74,6.04,.88,7.31,3.05,.85,1.45,1.03,3,1.35,4.55-.43,.92-.76,1.89-1.31,2.73-.57,.86-1.35,1.59-2.07,2.41l.57,2.56,.85,.9c3.48,.44,5.19,1.83,5.51,6.35,.47,.53,.89,.92,1.21,1.37,1.09,1.54,1.07,3.33,1.15,5.11,.07,1.33,.18,2.66,.28,3.99l.28,.03c1.02-3.23,2.75-6.01,5-8.21,.74-.33,1.27-.61,1.83-.82,1.74-.66,4.85,.03,5.94,2.05,1.18,2.19,1.38,4.59,.06,6.47-1.33,1.89-3.16,2.43-5.38,2.24-.77-.07-1.58,.15-2.34,.33-.52,.12-1,.41-1.5,.62l-.24-.12c-.14,.6-.3,1.2-.42,1.81-.1,.47-.15,.95-.23,1.43-.27,1.57-.55,3.14-.84,4.78,.51,.38,.9,.82,1.4,1.03,1.88,.8,3.82,1.45,5.68,2.3,1.19,.54,2.26,1.34,3.37,2.04,.08,.05,.06,.28,.1,.52h-.99v4.38c.58,2.66,.92,5.36,1.39,8.04,.47,2.7,1.06,5.39,1.53,7.76,4.67,1.37,9.23,1.68,13.78,2.09,4.62,.42,9.24,.17,13.94-.31,.49-.29,.96-.71,1.27-1.22,1.18-1.97,2.34-3.94,3.43-5.96,.9-1.66,1.99-3.19,2.73-4.96,.57-1.35,1.31-2.62,1.58-4.1,.04-.25,.33-.44,.41-.69,.07-.2,0-.45-.02-.73-1.47,.72-1.75,2.71-3.7,2.63,.11,1.07-.34,1.76-1.29,2.11-.14,.05-.22,.24-.34,.34-.77,.67-1.47,1.46-2.34,1.97-2.03,1.19-4.09,2.35-6.23,3.32-1.44,.65-3.04,.95-4.69,1.45-.32-.6-.55-1.02-.81-1.5,2.8-2.5,4.31-5.72,6.44-9.94,.64-2.55,1.57-6.27,2.51-9.98-.25-.62-.33-1.22-.38-1.82-.12-1.6-.02-3.25-.4-4.79-.73-3-1.48-6-2.65-8.88-1.07-2.64-1.87-5.4-2.85-8.08-1.21-3.32-1.14-6.72-.65-10.13,.15-1.06,.71-2.05,.95-3.11,.41-1.8,1.25-3.41,2.3-4.87,.69-.96,1.52-1.9,2.78-2.21,.5-.13,1.01-.26,1.67-.44l.33-1.75c-1.82-1.16-1.67-3.36-2.65-4.45-3.09,.11-5.85,.2-8.85,.3l-1.6,.58-.86-.96-.43,.62c-2.61-.09-5.07-.18-7.42-.26-.54,.35-1,.83-1.53,.96-1.89,.46-3.76,.83-5.77,.39-2.18-.48-3.46-1.82-3.41-4.08,.04-1.77-.04-3.55,.05-5.33,.05-1.07,.24-2.15,.53-3.18,.44-1.55,1.03-3.05,2.39-4.01l-.31-1.29c.13-.28,.35-.53,.36-.79,.04-1.44,.46-2.76,1.02-4.06,.1-.24-.19-.66-.37-1.19-.42,.51-.72,.79-.92,1.13-.98,1.65-2.33,3.04-3.17,4.82-.83,1.76-2.7,2.54-4.36,3.41-.59,.31-1.3,.47-1.96,.53-1.28,.1-2.58,.12-3.87,.1-.44,0-.87-.25-1.45-.44,.51-1.79,2.1-2.08,3.1-2.86,1.18-2.09,3.38-3.38,3.92-5.73-.18-.76-.39-1.54-.26-2.27,.21-1.26,.62-2.48,1.01-3.94l-1.75-1.28c-1.34,.66-1.56,1.24-1.45,3.91l-1.1,1.61-1.64,.33-2.05,3.45c-.28,2.11-.5,3.74-.72,5.4-1.11,.74-1.86-.23-2.81-.57-.57-1.3-1.14-2.62-1.71-3.94l-1.52,.4c-.86,2.26-3.24,2.63-4.94,4.02-1.73,.01-3.41,.95-5.35,.64-1-.16-1.83-.46-2.56-.88l-.64-1.74Zm-9.29,27.26c-.71,.12-1.42,.21-2.12,.37-1.55,.33-3.09,.54-4.66,.11-.92-.25-1.85-.43-2.79-.17-1.37,.38-2.7,.16-4.06-.08-.98-.17-1.99-.18-2.98-.27-.6-.05-1.25,0-1.79-.21-1.56-.61-3.08-1.33-3.94-1.72-2.39-.61-4.1-1.04-5.78-1.47-.11,.18-.2,.27-.23,.38-.64,2.64-1.59,5.22-1.59,7.98,0,.71,0,1.49,.26,2.12,.6,1.4,1.31,2.76,2.1,4.06,1.55,2.55,3.18,5.04,4.78,7.56,.21,.33,.5,.63,.71,.96,.87,1.39,1.69,2.82,2.6,4.18,.96,1.43,2.01,2.8,3.02,4.2,.4,.56,.72,1.18,1.17,1.68,.87,.94,1.81,1.81,2.71,2.72,.42,.43,.84,.86,1.24,1.3,1.16,1.27,2.27,2.58,3.47,3.81,.61,.62,1.35,1.11,2.03,1.66,2.53,2.05,5.02,4.15,7.59,6.15,2.04,1.58,4.16,3.04,6.27,4.51,1.02,.71,2.07,1.4,3.18,1.94,1.74,.85,3.56,1.51,5.31,2.35,2.13,1.03,4.22,2.14,6.32,3.24,3.09,1.64,6.42,2.57,9.81,3.34,.25,.06,.53,0,1.08,0-.52-.85-.9-1.54-1.34-2.18-1.08-1.59-2.2-3.15-3.29-4.73-.71-1.02-1.45-1.99-2.61-2.57-1.34-.67-1.65-1.98-.83-3.26,.24-.37,.58-.68,.82-1.05,.57-.9,1.25-1.77,1.64-2.75,.48-1.22,.72-2.54,1.06-3.79-.3-.36-.6-.68-.84-1.05-.37-.57-.6-1.27-1.06-1.73-1.16-1.15-2.41-2.2-4-2.72-.18-.06-.44,.1-.7,.17v.67c-.41,.56-.67,.9-.92,1.25l-1.05-.26,.2,.9-1.08,.83c-.78,.14-1.44,.26-2.24,.4-.23-.08-.62-.2-1-.34-2.52-.88-4.41-2.4-5.16-5.09-.27-.96,.23-3.2,1.02-3.67,2.29-1.37,4.68-2.35,7.44-1.36,1.48,.53,3.01,.94,4.52,1.4-2.17-2.71-4.65-5.19-3.83-9.15-.93-1.16-1.88-2.38-1.87-4.48,.41-.87,1-2.13,1.65-3.53l-1.61-3.66c-3.53-.77-5.92-2.62-6.55-6.4-.34,0-.72-.08-1.05,.02-.8,.24-1.49-.07-2.04-.51-1.07-.85-2.39-.85-3.53-.8-1.97,.09-3.62-.81-5.45-1.3Zm-50.01-37.18l2.54,5.29c.02,1.74,.45,3.33,1.87,4.68l2.2-3.22c.21-1.37,1.45-2.33,2.57-3.48-.12-4.52-.24-9.08-.37-13.58,.08-.38,.17-.7,.2-1.02,.04-.4,0-.8,.05-1.2,.17-1.28,.35-2.55,.55-3.82,.41-2.56,.83-5.13,1.28-7.68,.17-.95,.51-1.86,.64-2.81,.15-1.1,.28-2.18,.7-3.24,.51-1.31,.84-2.69,1.24-4.04,.55-1.85,1-3.73,1.66-5.53,.52-1.42,1.41-2.7,1.61-4.25,.05-.36,.34-.71,.56-1.04,.34-.5,.68-.98,.43-1.76-2.09,1.91-4.15,3.7-7.28,2.12-1.17,.69-2.08,1.7-2.88,2.98l1.25,.43v1.92c-.85,1.16-1.86,2.25-2.52,3.51-.78,1.5-2.1,2.12-3.51,2.22-1.36,.1-1.95,.76-2.41,1.79-.26,.58-.94,1.08-.5,1.83l1.35,.34c0,.23,.03,.39,0,.54-.32,1.25-.58,2.52-.99,3.73-.54,1.61-.39,3.47-1.75,4.78-.1,.1-.15,.29-.17,.45-.2,2.16-.73,4.31,.01,6.47,.08,.23,.15,.46,.18,.69,.27,2.11,.52,4.23,.79,6.44-.58,2.22,.47,4.39,.7,6.43Zm129.72,36.8c-1.21-1.03-2.18-1.86-3.15-2.68-.09-.07-.22-.09-.33-.14-1.52-.68-3.7,.27-4.5,1.4-.71,1.01-1.26,2.13-1.89,3.19-.29,.48-.7,.92-.86,1.44-.5,1.67-.9,3.33-.95,5.12-.07,2.87-.11,5.71,.95,8.44,1.06,2.73,2.12,5.45,3.1,8.2,.67,1.87,1.22,3.79,1.81,5.7,.25,.8,.54,1.6,.65,2.43,.19,1.47,.29,2.95,.36,4.42,.03,.58-.14,1.18-.23,1.83,0,.67,.03,1.4,0,2.14-.06,1.07,0,2.14-.62,3.13-.34,.56-.48,1.28-.56,1.94-.19,1.59-.72,3.05-1.39,4.48-.27,.57-.49,1.17-.65,1.54l-3.3,5.6c.43,0,.69,.07,.88-.01,.72-.34,1.44-.7,2.13-1.1,1.07-.62,2.17-1.2,3.16-1.93,1.52-1.13,2.97-2.35,4.41-3.57,.68-.58,1.46-1.14,1.91-1.89,1-1.68,2.7-2.84,3.3-4.81,.38-1.24,1.13-2.37,1.57-3.59,.53-1.47,1-2.98,1.35-4.51,.45-1.98,1.7-3.75,1.55-5.89-.03-.52-.02-1.05,.06-1.56,.4-2.56,.3-5.13,.2-7.69-.04-.91-.19-1.82-.33-2.72-.27-1.66-.46-3.34-.88-4.97-.48-1.85-1.25-3.63-1.74-5.48-.41-1.58-1.38-2.77-2.35-4.27-.03-.62-.44-1.26-1.18-1.72-.29-.18-.53-.51-.67-.83-.39-.93-.99-1.56-1.81-1.66Zm53.05-160.4c.3,.48,.58,.74,.62,1.04,.15,1.03,.25,2.08,.3,3.12,.07,1.48,.14,2.92,.56,4.39,.55,1.94,1.21,3.91,1.05,6-.05,.62,.1,1.26,.19,1.88,.11,.8,.28,1.59,.38,2.39,.2,1.72,.4,3.44,.54,5.16,.11,1.39,.12,2.8,.19,4.19,.03,.67,.07,1.33,.12,2.16,1.38-1.02,2.6-1.92,3.95-2.92l-.28-1.02c.2-.13,.46-.31,.74-.47,1.36-.8,1.35-1,1.02-2.51-.27-1.2-.31-2.46-.33-3.69,0-.66,.09-1.42,.42-1.97,.61-1.03,1.41-1.94,2.22-3.01v-2.52l-.66-.74c.65-.72,1.02-1.53,.77-2.25-3.51-3.71-4.74-7.83-3.97-12.75-1.04-1.32-2.53-2.6-2.48-4.72-1.74-.84-3.44-1.65-5.14-2.47-.58-.28-1.18-.53-1.71-.89-.26-.17-.53-.56-.51-.84,.01-.24,.41-.47,.55-.61,1.35,.48,2.54,.83,3.67,1.32,1.15,.5,2.24,1.13,3.36,1.71-.62-.96-1.27-1.96-2.17-2.61-1.55-1.14-3.26-2.06-4.9-3.07-.16-.1-.35-.17-.59-.28-.49,.91-.91,1.8-1.42,2.64-.6,.98-.46,1.93-.15,2.87l1.62-.85v1.11c-.81,.03-1.14,.55-1.28,1.23-.1,.51-.28,1.03-.27,1.54,.03,1.99,.03,4,1.11,5.8,.18,.3,.25,.68,.29,1.03,.17,1.55,.28,3.11,.47,4.66,.07,.56,.29,1.1,.44,1.65l1.57-1.75c-.09-.54,.34-1.32-.32-2.01-.15,.19-.23,.28-.3,.38-.52,.74-1.08,.88-1.15,.2l.58-.69c.29-3.97-.88-7.73-1.09-11.69,.96,1.05,2.18,7.47,1.99,9.83Zm-159.7,121.78c-.55,.46-1.11,.78-1.46,1.25-1.22,1.64-2.48,3.26-3.51,5.01-.93,1.57-1.07,3.53-2.25,5.02-.07,.09-.11,.22-.14,.33-.43,1.82-.72,3.68-1.45,5.42-.31,.73-.57,1.49-.77,2.26-.42,1.56-.79,3.13-1.17,4.69h.17c-.09,1.37-.18,2.73-.29,4.37,.42,.49,.2,1.3-.11,1.96,.13,.65,.3,1.16,.32,1.68,.06,1.44,.03,2.89,.11,4.33,.06,1.08,.3,2.15,.33,3.23,.11,3.49,.55,6.89,2.07,10.11,.79,1.66,1.25,3.47,1.93,5.18,.51,1.29,1.16,2.5,2.17,3.5-.26-2.6-.75-5.15-.93-7.72-.18-2.62-.04-5.25-.04-8.25,.27-1.15,.57-2.69,.99-4.2,.76-2.78,1.53-5.56,2.4-8.3,.37-1.17,.91-2.31,1.56-3.36,1-1.63,2.15-3.18,3.24-4.75,.29-.42,.64-.81,.93-1.23,.61-.88,1.19-1.77,1.79-2.66,.36-.28,.57-.66,.8-1.02,.51-.82,1-1.65,1.54-2.46,1.28-1.92,1.64-4.09,1.83-6.32,.05-.55,.14-1.13,.02-1.66-.31-1.37-.8-2.69-1.71-3.76-1.36-.53-2.65-1.15-4-1.52-1.32-.37-2.64-1-4.04-.55l-.32-.61Zm161.12-54.18c-.35-.45-.91-.87-1.01-1.37-.24-1.21-.32-2.47-.36-3.71-.04-1.11,.06-2.22,.13-3.33,.01-.19,.17-.38,.27-.56,.31,.34,.45,.68,.45,1.01,0,1.17-.05,2.34-.07,3.51-.02,1.12-.29,2.32,.88,3.26l.35-1.51,1.28-1.09-.44-6.04c1.04,.63,1.02,1.67,1.3,2.58,1.33-.7,1.65-1.28,1.45-2.52-.05-.31-.05-.63-.05-.95,0-1.46,0-2.93,0-4.39l-.35-.11c-.58,.58-1.14,1.17-1.74,1.73-.59,.54-1.15,1.15-1.82,1.55-1.24,.75-2.19,1.77-2.74,3.07-.46,1.09-1.05,1.98-2.06,2.48l-.99,1.55c.4,1.45-.26,2.48-1.28,3.49,.27,.89-.42,1.29-1.12,1.68v.79c-2.16,2.64-4.5,4.94-7.88,6.36-1.37,1.47-2.91,3.12-4.39,4.7h-1.35v1.37c-1.51,2.03-3.07,4.2-4.72,6.3-1.01,1.29-2.66,1.87-3.69,3.2-.77,1-1.8,1.8-2.71,2.69-.02,.02-.01,.08-.03,.19,.95,1.21,2.57,1.22,3.78,1.93,.83-.71,1.56-1.57,2.49-2.06,.95-.51,2.09-.67,3.15-.99l.25,.24,.27-1.09c2.51-3.42,3.51-7.55,6.28-10.3l1.89-1.04c.08-.37,.09-.63,.19-.84,.68-1.5,.9-3.3,2.63-4.12,.5-.24,1.02-.44,1.51-.65l.4-.78c3.51-.89,6.85-1.73,10.25-2.59,.77-1.27,.2-2.49-.37-3.61Zm-95.74,120.61c.87,.63,1.62,1.5,2.83,.96,.98-.44,2.28-.67,2.85-1.43,1.45-1.96,.97-4.47-.84-5.98-1.99-1.67-4.27-1.04-6.3,1.62l-.47-.27c-.51,.94-.98,1.83-1.46,2.71-.61,1.13-1.37,2.2-1.78,3.4-.41,1.21-1.09,2.24-1.83,3.21-.42,.55-1.22,.97-1.92,1.13-.88,.19-1.83,.05-2.75,.05l.09-.23c-.84-.51-1.68-1.03-2.53-1.53-2.06-1.22-4.36-1.65-6.67-1.93-1.57-.19-3.64,1-3.96,2.17-.36,1.31-.59,2.67-.3,3.99,2.6,2.53,3.51,2.64,6.16,.8,.84-1.87,3.14-3.06,4.87-2.6,.25,.35,.41,.67,.66,.89,.67,.59,1.44,1.08,2.06,1.72,1.25,1.3,2.43,2.68,3.64,4.02,.73,.81,1.46,1.61,2.19,2.42l.27-.1c0-.67,.06-1.35-.01-2.01-.23-2.1-.04-4.16,.33-6.22,.12-.67,.32-1.33,.34-2,.06-1.78,2.27-4.75,4.53-4.76Zm-86.04-44.57c-.36,1.1-.72,2.19-1.08,3.28-.53,1.62-.7,3.26-.56,4.97,.11,1.43,.17,2.87,.11,4.3-.15,3.37-.54,6.72,.03,10.1,.33,1.99,.42,4,.86,6.01,.65,2.96,1.82,5.66,3.1,8.32,1.29,2.66,2.92,5.16,4.41,7.73,.36,.62,.66,1.28,1.07,1.86,.8,1.15,1.66,2.26,2.5,3.38,.12,.16,.26,.31,.39,.46,.12-.39,.1-.71-.02-.99-.41-.96-.87-1.89-1.26-2.86-.16-.39-.03-.97-.27-1.24-1.12-1.24-1.45-2.77-1.71-4.32-.49-2.92-1.06-5.83-1.38-8.77-.2-1.86-.09-3.77,.06-5.64,.17-2.23,.46-4.45,.84-6.66,.13-.77,.69-1.46,1.05-2.19l.21,.08-.36-1.2-1.14-1.02c-2.24,1.05-3.09,2.93-3.38,5.23-.47,3.67,.35,7.22,.88,10.8,.24,1.63,.62,3.25,.91,4.88,.07,.39,.01,.79,.01,1.19l-.35,.03c-.75-1.8-1.49-3.59-2.24-5.39-.04-.6-.16-1.18-.34-1.74-.68-2.06-1.41-4.11-1.61-6.29-.16-1.72-.17-3.46-.33-5.18-.3-3.22-.6-6.43,.31-9.61,.1-.35,.12-.72,.15-1.08,.18-1.97,.84-3.81,1.61-5.62q-1.46-2.41-2.46-2.82Zm166.04-70.8l.33,.27c.31-.18,.65-.33,.92-.56,.72-.63,1.33-1.39,2.1-1.93,2.63-1.85,4.14-4.37,4.73-7.5,.04-.19,.14-.38,.21-.56,.73-1.92,.18-4.05-1.25-5.5-.91-.92-1.64-2.01-2.59-3.2-1.6-.94-3.37-2-5.55-2.09-1-.04-2.04-.12-2.98-.41-1.99-.62-3.84-.11-5.57,.69-1.66,.77-3.18,1.86-4.75,2.83-.23,.14-.36,.44-.54,.66l3.82,.82c.93-1.26,2.24-1.94,3.7-2.34,1.39-.38,2.76-1.33,4.2-.32l1.51-.41c.68,.32,1.67,.56,2.36,1.16,.92,.79,2.05,1.46,2.41,2.79,.07,.25,.48,.39,.73,.6,.55,.47,1.1,.94,1.87,1.61l-1.28,.51c-1.55-.92-2.84-1.74-4.17-2.47-.54-.3-1.17-.33-1.64,.23,.19,2.87,2.31,4.6,4.98,5.37,.86,.25,1.72,.48,2.72,.75-.89,1.06-1.83,.74-2.7,.61-.71-.11-1.4-.44-2.11-.49-1.74-.11-3.33-.58-4.75-1.6-.23-.17-.53-.26-.79-.39l-.16,.16,.89,1.91,.18-.11c.48,.75,.96,1.5,1.44,2.24,1.33,1.03,1.53,2.74,2.21,3.89-.19,1.07-.34,1.93-.5,2.78Zm-5.9-103.97c-2-.92-3.61,.02-5.2,1-1.1,.68-1.89,1.67-2.55,2.77-.61,1.02-1.29,2.02-1.77,3.1-.57,1.27-.93,2.63-1.44,3.93-.22,.55-.58,1.05-.93,1.54-.32,.45-.71,.84-1.17,1.38-1.14,.42-1.94,2-3.51,1.79-1.41-.19-2.79-.64-4.18-.97l.11-.26-1.85-1.33c-.72,.74-.59,1.34-.29,1.95,.64,1.34,1.81,2.21,3.05,2.79,2.4,1.13,4.91,2.05,7.67,1.57,1.38-.24,2.76-.5,4.13-.81,2.09-.48,3.82-1.75,5.49-2.96,1.97-1.44,3.7-3.22,5.41-4.97,.61-.63,.85-1.61,1.26-2.43l-.15-.03,.43-3.07-.9-.68,.98-.8c-1.2-1.73-3.34-2.06-4.59-3.49Zm-85.95,241.73c.7,.59,1.35,.98,1.79,1.53,1.49,1.87,2.97,3.76,4.34,5.73,1.09,1.57,2.01,3.26,3.01,4.89,1.07,1.74,2.17,3.46,3.21,5.22,1.29,2.17,2.54,4.38,3.81,6.56,1.11,1.9,2.27,3.77,3.34,5.69,1.16,2.07,2.24,4.19,3.36,6.28,.13,.24,.33,.43,.5,.64l.21-.11c-.14-.35-.28-.7-.42-1.04-1.08-2.51-2.2-5.01-3.24-7.54-.58-1.41-.97-2.9-1.53-4.32-.91-2.32-1.9-4.61-2.85-6.91-.18-.45-.33-.92-.58-1.33-.9-1.52-1.86-3-2.76-4.52-1.74-2.94-3.46-5.92-5.88-8.35-1.25-1.26-2.62-2.54-4.6-2.65-.25-.01-.49-.27-.74-.42l.06-.36c.68-.04,1.36-.08,2.1-.12,0-1.32,.45-2.47,1.49-3.57,1.26,1.03,2.52,2.05,3.92,3.19l1.42-4.95c1.35-.52,1.57,.96,2.36,1.45l1.5-1.07-.07-.49c-1.72-1.28-3.63-1.86-5.66-2.53v4.35l-.64,.39c-1.14-1.2-2.23-2.33-3.3-3.48-.31-.32-.56-.74-1.08-.32,.31,1.96-.18,3.65-1.47,4.87-.59,1.22-1.09,2.25-1.6,3.3Zm12.44-104.02l.31,.12c.71-.82,1.39-1.67,2.13-2.45,.3-.31,.71-.54,1.11-.72,1.9-.87,3.88-1.28,5.97-.82,2.98,.66,5.87,1.48,7.82,4.13,1.34,1.83,1.75,3.9,1.87,6.26l-1.28-.65-.61-2.5-1.5-.61c-.64-1.99-3.43-3.89-4.96-3.21,4.2,3.46,5.93,8.28,7.58,13.05-.74,1.2-.42,3.56,.52,4.53,.17-.23,.34-.45,.5-.68,.75-1.1,.91-2.36,1.1-3.65,.36-2.46,.97-4.88,1.37-7.34,.19-1.13,.32-2.3-.12-3.46-.49-1.29-.87-2.63-1.23-3.73-1.23-1.12-2.16-2.22-3.32-2.94-1.69-1.06-3.68-1.46-5.64-1.83-.54-.1-1.12-.06-1.68-.03-.96,.05-1.92,.2-2.88,.19-1.64-.02-3.11,.33-4.37,1.45-1.4,1.25-2.86,2.44-4.25,3.69-.3,.27-.43,.73-.69,1.2h2.24Zm16.23,13.52c-.72-1.16-1.43-2.4-2.25-3.57-.52-.75-1.21-1.38-1.8-2.09-.48-.57-.85-1.25-1.38-1.75-.63-.58-1.37-1.06-2.11-1.52-1.56-.97-3.37-1.16-5.13-1.49-.1-.02-.22,.1-.48,.22l-2.37,4.84c-.07,1.11-.1,1.09-.85,2.21-.68,1.01-1.28,2.07-1.95,3.19,1.44,.47,2.35,1.33,2.8,2.29,1.64,1,3.17,1.74,4.46,2.78,1.26,1,2.64,1.37,4.14,1.49,1.48,.12,2.97,.06,4.45,.18,1.25,.1,2.21-.23,2.89-1.29,.29-1.6-.17-3.04-.83-4.42l.41-1.07Zm-6.34-21.75c.61-.76,1.11-1.56,1.79-2.17,1.07-.97,2.41-1.79,3.84-1.24,1.15,.45,2.23,1.33,3.09,2.25,1.02,1.11,1.69,2.53,2.64,3.71,.71,.9,1.13,2.05,2.28,2.61,1.2,.57,2.32,1.3,3.51,1.89,1.79,.89,2.7,2.49,3.41,4.22,.29,.7,.33,1.53-.09,2.35l-.81-.48-1.39-3.51-2.83-1.16c0,2.25,.53,4.1,2.64,5.15,.24,1.52-.4,2.64-1.55,3.46-1.1,.78-2.29,1.46-3.57,2.27l-.18,2.23c1.81-.97,3.37-1.8,4.92-2.63,1.43-1.09,2.79-2.27,4.29-3.25,1.47-.97,1.8-2.42,1.96-3.94,.12-1.1-.54-1.98-1.3-2.73-1.63-1.59-3.25-3.19-4.9-4.77-.78-.75-1.53-1.59-2.44-2.14-1.14-.69-2.13-1.43-2.52-2.75-1.96-.97-2.81-3.27-4.97-3.88-.82-.15-1.65-.3-2.61-.48-3.28,.25-5.87,1.85-7.58,4.92,.86,.84,1.65-.04,2.39,.07Zm32.07,59.93c.45,.15,.77,.31,1.12,.37,1.37,.24,2.76,.36,4.11,.69,1.65,.41,3.27,.98,4.9,1.48,.05,.01,.13-.07,.22-.12-.34-2.77-1.9-5.09-3-7.55-1-2.24-2.52-4.24-3.82-6.34-.13-.2-.31-.37-.45-.57-.32-.45-.64-.9-.96-1.35l.08-.05c-1.12-.95-2.25-1.9-3.49-2.96-.7,.42-1.22-1.14-2.34-.23v2.23c2.32,1.49,3.84,3.53,5.31,5.6,.97,1.38,1.93,2.77,2.88,4.16,.38,.56,.72,1.14,1.01,1.61l1.06,2.33-.83-.1-.48,.83c-.47-.51-.87-.9-1.21-1.33-.72-.9-1.38-1.86-2.14-2.73-1.19-1.36-2.71-2.15-4.58-2.33,.31,.61,.74,1.11,1.1,1.66,.34,.52,1.12,.87,.75,1.81-1.83-.54-3.14-1.83-3.73-3.38-.56-1.48-1.78-2.46-2.18-4.08l-1.04,.43c.98,4.42,3.55,7.63,6.78,10.45l.94-.52Zm-30.81,87.06l.25-.08c-.55-2.11-1.12-4.21-1.66-6.33-.45-1.79-.86-3.59-1.29-5.39-.43-1.79-.87-3.58-1.31-5.38-.11-.43-.25-.85-.34-1.29-.33-1.53-.65-3.07-.95-4.61-.23-1.18-.42-2.36-.63-3.54-.26-1.48-.52-2.97-.79-4.45-.19-1.06-.45-2.1-.6-3.17-.16-1.14-.27-2.3-.33-3.46-.04-.93,.03-1.87,.05-2.96-.3-.05-.75-.12-1.22-.2l-.52,1.28-.94,.64,.14,.09-.74,1.51c-.12,.49-.24,.91-.32,1.33-.08,.43-.24,.88-.18,1.3,.27,2.03,.53,4.06,.91,6.07,.39,2.05,.75,4.13,1.43,6.1,.76,2.18,1.9,4.22,2.8,6.36,.76,1.82,1.41,3.68,2.09,5.53,1.01,2.75,1.98,5.52,3.01,8.27,.31,.81,.76,1.57,1.14,2.36Zm-51.07-133.17c2.34,.6,4.45,1.36,5.9,3.27,.92,1.22,1.8,2.48,2.66,3.74,.95,1.4,1.85,2.83,2.79,4.23,.48,.72,1.01,1.42,1.55,2.17l1.28-1.02c-2.07-4.28-5-7.96-7.5-12.12-.82-.57-1.74-1.41-2.82-1.89-1.52-.68-3.18-1.06-4.66,.17-.55,.45-.96,1.07-1.4,1.64-1.09,1.41-1.79,2.95-1.47,4.98,1.22,1.25,2.55,2.61,4.02,4.11l.8,.18c.11,1.6,1.67,2.01,2.53,3.03,.43,.52,.95,.99,1.51,1.37,1.17,.82,2.39,1.58,3.6,2.35,.73,.46,1.47,.9,2.21,1.35l.21-.14c-.08-.27-.08-.61-.25-.8-.39-.46-.85-.86-1.31-1.26-1.35-1.2-2.72-2.38-4.07-3.58-.63-.56-1.24-1.14-1.87-1.7-1.08-.96-2.18-1.91-3.25-2.89-.37-.34-.61-.76-.08-1.32l3.22,2.23,1.08-.77c-.39-1.19-.88-2.27-1.95-2.97-1.11-.72-2.26-1.39-3.5-2.15l-.53-1.41,1.31-.84Zm-5.37,2.43c-.95,.46-1.71,.91-2.54,1.2-2.18,.77-4.04,1.99-5.55,3.73-.54,.62-1.18,1.09-1.97,.94-.62,.28-.68,1.28-1.75,.94,.25-.52,.4-1.02,.7-1.4,.6-.76,1.32-1.42,1.93-2.17,.39-.48,.68-1.04,1.01-1.56-.81-.59-.93-.67-1.53-.38-.93,.45-1.86,.94-2.71,1.53-.96,.65-1.83,1.43-2.7,2.11-1.33-.4-1.53-.96-.75-1.89,.47-.56,1-1.07,1.42-1.65,1.35-1.85,3.21-3.04,5.2-4.04,.42-.21,.91-.35,1.38-.39,1.84-.17,3.69-.3,5.54-.43,1.27-.09,2.47,.12,3.62,.93l.69-.98c-.79-.56-1.39-1.16-2.12-1.48-2.41-1.04-4.92-.97-7.37-.18-1.24,.4-2.38,1.12-3.51,1.8-1.21,.74-2.42,1.51-3.51,2.42-1.12,.95-2.09,2.08-3,3-.91,1.44-1.74,2.75-2.66,4.2,3.84,.24,7.35,.8,10.21,3.33,1.62-1.56,3.1-3.15,4.75-4.55,1.63-1.39,3.42-2.59,5.2-3.91v-1.13Zm80.27-33.18l-.06,1.37c.65,.25,1.12,.51,1.63,.61,.57,.11,1.23,.27,1.72,.08,.59-.23,1.07-.78,1.54-1.25,.41-.42,.69-1.02,1.66-.77l-.37,2.21,.57,.21,.56-.97c.45,.85,.79,1.53,1.15,2.19,.51,.92,.95,1.89,1.57,2.72,1.28,1.7,2.65,3.34,4.01,4.98,1.39,1.67,2.09,3.54,1.67,5.72-.15,.79-.41,1.55-.6,2.29l.33,1.99c.62-.64,1.08-1.16,1.59-1.62,.75-.68,1.27-1.53,1.28-2.5,0-1.32-.11-2.65-.37-3.94-.5-2.5-1.91-4.56-3.53-6.46-1.14-1.33-2.33-2.62-3.52-3.9-.44-.48-.91-.94-1.42-1.36-.95-.79-1.99-1.5-2.9-2.33-1.31-1.18-2.85-1.96-4.42-2.67-2.46-1.12-4.99-.51-7.48-.06-.28,.05-.51,.41-.8,.66,.98,.57,1.76,1.03,2.54,1.49,.58,.35,1.16,.7,1.63,.99,2.58-1.59,2.61-1.6,3.74-1.11l-.39,.91-1.33,.52Zm6.94,25.15c.34-.25,.57-.36,.72-.53,1.58-1.94,1.95-4.16,.64-6.51-1.08-1.92-2.67-3.19-4.73-3.85-1.82-.58-3.15-1.87-4.67-2.89-.06-.04-.1-.13-.15-.19-.84-1.23-1.66-2.47-2.53-3.67-.39-.54-.87-1.03-1.34-1.5-1.06-1.07-2.15-2.12-3.19-3.14l-4.15-1.49-3.11,2.8h-.6v2.54l1.05-.38-.02,.18,2.01,.54,.49-1.44c1.17-.73,2.33-1.6,4.01-.93l-.42,1.12c-.84,.17-1.69,0-2.16,.88,.38,.94,1.33,1.14,2.07,1.54,1.26,.68,1.9-.65,2.89-1.14l.95,1.45c-.04,.4-.07,.76-.12,1.12-.19,1.36,1.3,3.69,2.5,3.97,2,.47,3.33,2.31,5.44,2.47,.07,0,.15,.07,.21,.12,1.47,1.14,2.83,2.39,3.74,4.04-.09,1.26-.18,2.51-.28,3.94l.73,.99Zm-5.36,31.51c-2.54-1.16-5.2-1.58-8.13-.44-1.66-.05-3.38,.34-5.05,1.05-.83,.35-1.7,.63-2.56,.91-1.57,.52-3.15,1-4.7,1.56-.32,.12-.56,.49-.83,.74l.19,.31c.38-.07,.76-.11,1.13-.21,3.89-1.11,7.82-2.05,11.83-2.55,1.85-.23,3.76-.03,5.64-.02l-.03,.28c.46,.43,.92,.86,1.39,1.3-.29,.03-.61-.01-.89,.09-1.54,.56-3.15,.82-4.74,1-1.24,.14-2.13,.6-3.02,1.62,.7,2.22,2.97,1.64,4.48,2.34-.65,1.27-1.91,1.18-4.63,.67-.64,.18-1.29,.35-1.94,.37-1.98,.05-3.96-.05-5.94,.07-1.11,.07-2.16-.57-3.31-.05-.52,.24-1.24,.05-1.87,.06-.15,0-.29,.06-.54,.11l.28,.75c.99,0,1.95-.05,2.91,.01,1.6,.1,3.19,.29,4.79,.39,1.12,.07,2.26,.15,3.38,.07,2.24-.16,4.48-.63,6.7-.58,2.03,.05,4.06-2.51,4.01-4.2,1.5-.8,2.08-2.95,1.45-5.63Zm-5.9-39.35l-.1,.14c-1.04-1.17-2.1-2.32-3.1-3.51-.64-.76-1.11-1.67-1.8-2.37-1.01-1.01-2.15-1.89-3.1-2.71-1.66-.38-3.13-.72-4.56-1.06-1.08,.92-2.75,.6-3.61,2.18l2.78,.66,.8-.73c1.95-.11,3.59,.51,4.8,2.06,1.78,2.29,3.53,4.61,4.88,6.38,2.07,1.33,3.63,2.3,5.15,3.32,.63,.42,1.3,.86,1.79,1.43,2,2.31,2.59,5.04,2.16,8.02-.04,.28-.07,.56-.12,1.01,.66-.41,1.17-.66,1.59-1.02,.4-.34,.71-.79,1.01-1.23,.18-.26,.24-.6,.38-.88,.6-1.2,.63-2.46,.03-3.6-.47-.89-1.2-1.68-1.93-2.38-1.28-1.21-2.64-2.34-4-3.45-.98-.8-2.02-1.52-3.04-2.28Zm-50.12-18.67c3.87,3.08,7.87,5.71,12,8.24,.14-.17,.3-.3,.39-.47,.64-1.13,1.24-2.28,1.9-3.41,.65-1.11,1.33-2.2,1.11-3.69-1.69-.73-3.54-.94-5.37-1.11-1.27-.12-2.56,.02-3.83,0-.71-.02-1.41-.14-2.12-.22l-.08,.19-1.8-1.46c-.66,.59-1.31,1.16-2.2,1.95Zm74.47-5.4c.88,1.13,1.86,2.43,2.88,3.7,.47,.58,1.06,1.07,1.5,1.68,.65,.9,1.21,1.86,1.95,3.04,.03,.75,.25,1.75,1.13,2.34l.95,4.57,.72-.88c.3-.89,.64-1.66,.81-2.48,.37-1.79-.38-3.31-1.33-4.75-1.1-1.67-2.24-3.31-3.37-4.97-.55-.23-.98-.57-1.38-.95-1.18-1.13-2.25-2.4-3.54-3.39-1.51-1.16-3.2-2.08-4.82-3.09-.81-.5-1.7-.88-2.44-1.46-1.56-1.22-3.33-1.14-5.13-.97-.18,.02-.34,.33-.46,.46,.87,.3,1.79,.39,2.39,.88,1.39,1.14,3.04,1.72,4.62,2.45,.32,.15,.6,.37,.88,.58,.53,.39,1.04,.79,1.56,1.19l-.02,.07c.98,.63,1.96,1.26,3.08,1.99Zm5.53-17.21l.02,.28c.2,.1,.39,.23,.59,.31,1.38,.51,2.86,.83,4.12,1.54,2.09,1.19,3.69,3,5.32,4.74,.9,.97,1.5,2.18,2.32,3.16,1.1,1.31,1.19,2.79,1.55,4.27,1.46,.75,.99,2.46,1.83,3.86,1.21-2.53,2.16-4.81,1.08-7.19-.56-.66-1.09-1.09-1.38-1.64-1.43-2.69-3.54-4.8-5.76-6.81-2.28-2.06-5.02-2.92-8.05-2.92-.55,0-1.1,.25-1.65,.39Zm-12.05,42.39c-.81-1.2-1.63-2.57-2.62-3.81-.76-.97-1.68-1.83-2.61-2.64-.72-.62-1.67-.99-2.35-1.64-1.51-1.44-2.92-2.99-4.37-4.49-.28-.29-.62-.52-.85-.84-1.21-1.71-2.88-2.91-4.53-4.14-.53-.4-1.06-.81-1.84-1.4-1.22,0-2.73-1.32-4.33,0,.48,.33,.98,.55,1.51,.64,1.12,.19,2.27,.35,3.14,1.14,1.84,1.65,3.6,3.39,4.74,5.62,1.47,2.88,3.7,4.8,6.82,5.76,3.33,1.03,5.11,3.98,4.64,7.29,1.19,2.2-.67,3.68-1.06,5.48,1.95-1.8,3.02-4.06,3.7-6.97Zm-14.76,21.39c-.69-.59-1.32-1.18-2-1.71-.64-.49-1.36-.69-2.14-.29-.14,.07-.32,.15-.45,.13-1.38-.28-2.52,.42-3.62,1-1.08,.57-2.14,1.02-3.45,1.03,.19,1.92-1.46,2.86-2.33,4.52l1.47,2.3c4.01-2.69,8.29-4.53,12.53-6.97Zm21.75-23.93c.92-.71,1.41-3.11,1-4.21-.78-2.13-1.95-4.04-3.03-6.01-1.43-2.63-3.25-4.94-5.52-6.84-1.48-1.25-3.1-2.36-4.76-3.35-1.63-.97-3.35-1.83-5.12-2.53-1.73-.68-3.57-1.36-5.41-.26-.66,.39-1.5,.66-1.68,1.67l3.38-.48,.53-.81c2.18,.34,4.36,1.09,6.02,2.45,1.52,1.25,3.21,2.3,4.84,3.42,1.41,.97,2.62,2.12,3.5,3.63,.42,.72,.94,1.45,1.58,1.95,2.39,1.85,3.43,4.24,3.15,7.13,.48,.72,1.04,1.31,1.29,2.01,.24,.67,.16,1.45,.22,2.23Zm51.87-101.2c.64,.32,1.45,.51,1.96,1.02,1.46,1.48,2.56,3.24,2.99,5.3,.3,1.45,.4,2.94,.6,4.43h1.18c.26-.91,.5-1.75,.65-2.3-.29-1.01-.6-1.75-.7-2.53-.24-1.97-.96-3.73-2.11-5.3-.54-.74-1.23-1.37-2.03-2.24l-1.95-.99-3.21,1.23c-.58,1.26-1.12,2.46-1.67,3.66-.68,2.17,.82,3.92,1.14,6.01,1.13,.84,.91,3.01,3.14,3.39-.35-.73-.52-1.27-.83-1.71-1.23-1.76-1.88-3.7-2.14-5.84-.24-1.99,.15-2.87,2-3.64,.26-.11,.51-.25,.99-.48Zm-122.22,177c-1.15,.65-2.71,.26-3.55,1.59-.76,1.2-1.3,2.41-.83,3.86,.79,2.45,2.41,3.34,4.72,3.17,1.87-.14,3.5-2.03,3.58-3.97,.11-2.61-1.12-4.09-3.92-4.65Zm6.87-57.73c.08-.55,.03-1.09,.25-1.47,.72-1.29,1.5-2.55,2.34-3.76,.3-.43,.81-.93,1.29-1,1.55-.23,3.15-.45,4.44,.83,.13,.13,.3,.23,.51,.38l.75-.71c-.1-.98-.89-.8-1.39-1.04-2.5-1.21-4.71-.5-6.65,1.18-.76,.66-1.14,1.76-1.86,2.49-1.93,1.93-2.98,4.37-4.25,6.88l.78,1.2c2.81-.25,5.53-.22,8.11-1.28l.53-1.24c-1.63,.26-3.19,.54-4.77,.74-.64,.08-1.33,.03-1.42-1.09l5.5-1.35c.48-.72,1.42-1.25,1.61-2.4l-1.42-.11-2.56,2.21-1.8-.45Zm58.78-41.35c-.13,.4-.35,.72-.27,.89,.36,.78,.71,1.61,1.24,2.26,.65,.8,1.64,1.35,2.21,2.19,1.09,1.58,1.99,3.29,2.96,4.96,1.27,2.2,1.88,4.6,2.08,7.1,.08,1.06-.12,2.14-.2,3.27,.14-.01,.36,.03,.42-.05,.63-.91,1.46-1.76,1.78-2.78,.46-1.45,.36-3-.13-4.51-.85-2.64-2.07-5.08-3.83-7.23-.6-.74-1.36-1.37-1.85-2.17-1.04-1.72-2.63-2.75-4.42-3.94Zm55.84-34.16c.52-.48,.88-.97,1.35-1.23,1.98-1.1,2.64-4.55,1.22-6.51-.7-.97-1.68-1.74-2.53-2.58h-5c-.91,.78-1.89,1.63-2.62,2.26l-.68,3.66c.98,.26,1.64,.12,2.12-.67,.5-.82,1.07-1.61,1.64-2.38,.3-.41,.68-.76,.98-1.09,.46,.06,.8,.19,1.09,.13,1.4-.28,2.19,.68,2.97,1.51,.62,.66,.74,1.51,.22,2.35-.86,1.39-1.73,2.78-2.63,4.24,.4,.68,.55,.71,1.86,.31Zm-38.1-6.2c-.06,.67-.19,1.24-.14,1.79,.2,2.52,.42,5.05,.7,7.56,.06,.56,.36,1.09,.57,1.68l1.39-.23c.32-4.31,.38-8.47-.08-12.54-1.51-.48-.67,1.62-1.92,1.4,.12-1.08,.3-2.1,.32-3.13,.02-1.06-.16-2.13-.19-3.2-.01-.67,.11-1.35,.18-2.19l-1.63-1.46c-.64,2.31-.62,7.9,.79,10.32Zm-7.34,72.38c1.66-1.53,3.31-2.95,4.84-4.48,1.02-1.02,2.09-1.85,3.52-2.2,.62,.54,.81,1.25,.59,1.89-.33,.94-.71,1.96-1.37,2.65-1.25,1.3-2.71,2.4-4.08,3.58-.23,.2-.47,.4-.76,.65l.6,.68c3.96-1.75,6.61-4.65,8.42-8.48l-1.17-1.75c-1.5,.45-2.61-1.57-3.99-.58l-1.87-.15-1.68,1.33c-.45,2.23-1.96,3.83-2.99,5.63l-1.48,.47v.31l1.44,.45Zm-133.99,21.7l2.24-3.53c-1.41,.26-2.61,.65-3.8,1.11-.74,.28-1.6,.51-2.14,1.03-1.32,1.3-2.88,2.37-3.75,4.14-.89,1.8-2.04,3.46-3.08,5.19l.19,.16-.98,.21c-.14,1.6,1.4,1.95,2.05,3.22,.19-.69,.26-1.16,.45-1.58,.39-.87,.76-1.79,1.3-2.56,1.43-2.04,2.92-4.04,4.44-6.01,.74-.95,1.53-1.94,3.08-1.37Zm186.07-112.36c-.83-1.38-1.82-1.7-3.06-1.37-.19,.05-.42-.04-.6,.03-.53,.21-1.15,.34-1.56,.71-1.49,1.35-2.75,2.91-3.76,4.67,.02,1.57-.08,3.13,.56,4.72l1.1-.57c-.05-.61-.19-1.22-.11-1.79,.1-.74,.41-1.45,.57-2.18,.49-2.2,1.47-2.98,3.46-2.9,.44,.34,.7,.61,1.02,.77,1.68,.88,1.68,2.3,1.3,3.86-.34,1.41-.69,2.81-1.05,4.24,.28,.34,.55,.66,.81,.97l.29-.13c.53-2,1.16-3.98,1.57-6.01,.3-1.5,.46-3.07-.45-4.5-.12-.19-.09-.46-.09-.51Zm-33.3,79.53c.24-.55,.41-1.04,.65-1.49,1.01-1.91,2.51-3.51,3.35-5.56,.62-1.52,1.1-2.91,.5-4.53-.96-1.16-1.87-1.42-4.56-.78-2.23,2.28-3.57,5.64-3.74,6.52-.53,.8-.93,1.44-1.38,2.05-1.14,1.52-.95,2.57,.77,3.69l.26-.77-1.24-.19c2.01-3.25,4.53-6.02,5.49-9.58l1.55,.37c.66,.75,1.24,1.51,1.01,2.59-.63,2.91-2.26,5.22-4.33,7.34l1.67,.33Zm9.12-47.59c1-1.21,1.89-2.19,2.68-3.24,.89-1.19,2.12-1.56,3.49-1.61,1.03-.04,1.8,.57,2.03,1.55,.16,.66,.23,1.35,.26,2.03,.12,2.85-1.08,5.15-3.02,7.13-.25,.26-.45,.56-.69,.86,.69,.49,.96,.09,1.24-.26,.58-.72,1.03-1.62,1.76-2.11,.76-.52,1.14-1.18,1.49-1.94,.15-.33,.42-.59,.58-.92,.29-.6,.58-1.21,.81-1.83,.4-1.09-.29-2.01-.5-3.02-.34-1.62-1.43-2.31-2.89-2.63-1.02-.22-2.04-.44-3.02-.65l-2.66,1.45c-.23,.29-.52,.73-.88,1.1-.67,.69-1.37,1.35-2.09,2-.54,.49-.66,1.05-.46,1.84l1.88,.26Zm-114.95,83.53c2.28-1.22,4.39-2.37,6.54-3.46,.31-.16,.77-.02,1.1-.02v-2.54c-.6,.03-1.07,0-1.52,.08-1.1,.22-2.19,.64-3.3,.73-2.07,.17-2.87,1.57-3.46,3.22-.48,1.36-.9,2.73-1.38,4.2l.42,1.43c.66,0,1.26,.07,1.85-.01,1.06-.14,2.16-.24,3.16-.6,1.19-.42,2.29-1.09,3.42-1.66,.22-.11,.43-.26,.65-.38-1.33,.12-2.58,.61-3.85,.68-1.32,.07-2.67-.25-4.11-.42l.47-1.25Zm86.79-29.15l-3.75-2.39c-.07,.06-.2,.28-.36,.31-1.25,.17-2.01,1.19-2.59,2-.95,1.35-2.15,2.21-3.51,2.96-.1,.05-.16,.17-.27,.3l.37,.92,1.29,.62,1.81-.68,1.82,.81,.44-.75,2.84-.84c.81-1.39,1.38-2.36,1.92-3.27Zm-75.92-23.95c2.2,0,4.14-.12,6.06,.03,1.93,.16,3.84,.59,5.86,.93l.22-.38c-3.02-.63-5.96-1.25-8.91-1.86-.27-.06-.56-.03-.85-.02-1.47,.06-2.29-.6-2.59-2.33l2.42-1.16c3.45,1.24,6.95,2.5,10.56,3.8l.13-.91c-.97-.54-1.86-1-2.72-1.51-1.3-.77-2.65-1.41-4.13-1.7-2.35-.46-4.72-.85-7.18-1.29-.57,1.31-1.17,2.73-.72,4.23,.38,.42,.71,.75,1.01,1.11,.33,.4,.64,.83,.82,1.06Zm86.2,2.86c.66-1.01,.92-2.04,.72-2.66-.78-2.41-2.09-4.47-4.03-6.13-.81-.69-1.63-1.37-2.22-2.31-.72-1.14-1.6-2.18-2.7-3.66-1-.64-2.31-1.85-3.85-2.33-1.48-.46-3.03-1.36-4.76-.73,.4,.36,.84,.56,1.3,.7,.52,.15,1.07,.24,1.45,.32,2.89,2.53,5.38,5.28,8.6,7.24l4.1,5.97c.53,1.38,.92,2.38,1.39,3.58Zm30.35-1.63l.31-.02c.3-1.43,.6-2.86,.9-4.31-.7-.38-1.18-.8-1.73-.91-1.23-.26-2.48-.4-3.73-.55-.9-.11-1.91-.43-2.7-.16-1.76,.61-3.56,.86-5.37,1.13-.69,.1-1.38,.3-2.29,.51l1.03,.94c1.19-.13,2.23-.24,3.27-.37,1.88-.24,3.74-.56,5.62-.73,.82-.08,1.69,.05,2.51,.22,1.18,.25,1.52,1.1,1.03,2.29-1.59,.64-2.29,.8-3.48,.5-2.16-.56-4.33-.35-6.51-.22-.5,.03-1,.12-1.52,.19-.07,.75,.35,.85,.82,.86,1.28,.02,2.57,.01,3.85,.06,1.8,.06,3.6,.14,5.4,.27,.41,.03,.8,.29,1.32,.49l1.26-.19Zm-90.57,70.44c-.45-1.64-.9-3.27-1.38-5.03-.65,1.16-.14,2.53-1.17,3.58-.28-.37-.64-.65-.71-.98-.3-1.44-.62-2.9-.72-4.36-.1-1.52,.02-3.05,.12-4.58,.04-.61-.09-1.01-.84-1.26-.43,1.06-1.09,2.06-1.21,3.12-.24,2.07-.18,4.17-.23,6.26-.02,.8,0,1.6,0,2.26,1.36,1.44,4.36,1.95,6.14,.98Zm95.18-29.84c-1.92,.28-3.8,.56-6.01,.89l-1.82,.95,.11,1.15,1.13,.39c1.13-.79,2.25-1.34,3.6-1.38,.87-.03,1.73-.25,2.59-.37,.18-.03,.36,0,.65,0-.37,1.01-1.11,1.11-1.87,1.16-1.21,.07-2.4,.22-3.31,1.22,.54,1.36,1.81,1.43,2.95,1.79l.94-1.22c2.03,.11,4.08,.22,6.36,.34-.33-.83-.55-1.37-.73-1.84-1.41-.58-2.7-1.12-3.88-1.61-.26-.52-.44-.88-.73-1.47Zm-138.79-17.13c.06-.17,.06-.45,.19-.53,2.94-1.74,5.9-3.46,9-5.26l-.38-1.67c-3.58,1.69-7,3.31-10.23,4.84l-.89,2.57,1.74,2.72c2.3-.07,4.1-.92,5.87-1.92-1.03-.05-2.01,.09-2.99,.19-.9,.09-1.79,.08-2.32-.94Zm76.57,19.33c2.22-1.62,4.13-2.9,5.92-4.33,1.84-1.47,3.56-3.07,5.11-4.43,0-1.2-.02-2.17,0-3.15,.03-.81-.17-1.52-.82-2.05-1.5,.12-3.75,1.72-4.23,3.11,1.13-.64,1.97-1.88,3.52-1.43l-.37,1.13,.43,.92c-1,1.93-2.52,3.26-4.15,4.42-2.02,1.44-4.14,2.75-6.24,4.08-.45,.29-.99,.43-1.7,.72,1.05,.42,1.92,.77,2.51,1Zm-48.2-22.83h.32c.23-.64,.6-1.25,.68-1.89,.23-1.81,.72-3.52,1.56-5.15,.77-1.49,1.43-3.05,2.06-4.6,.35-.86,.54-1.78,.84-2.77l-3.35-.86c-.37,.42-.55,.63-.74,.84-.65,.76-1.48,1.43-1.92,2.29-.84,1.64-1.41,3.42-2.19,5.1-.72,1.55-.61,3.09-.21,4.68,.3-1.24,.58-2.49,.75-3.76,.36-2.69,1.6-4.87,3.7-6.55,.32-.26,.84-.28,1.16-.38,.83,.84,.41,1.57,.18,2.21-.74,2.04-1.61,4.04-2.32,6.09-.41,1.17-.65,2.4-.87,3.62-.06,.35,.22,.75,.34,1.13Zm22.95-25.21c-1.08,0-1.92,.03-2.75,0-1.78-.07-3.49,1.06-4.08,2.72-.24,.68-.56,1.33-.81,2-.29,.78-.54,1.57-.81,2.36l.34,.15c.18-.29,.36-.57,.52-.87,.49-.88,.92-1.8,1.45-2.65,.66-1.04,1.93-1.36,3.06-.67-.31,.86-.57,1.82-1,2.68-.5,1-1.15,1.93-1.76,2.88-.34,.53-.71,1.04-1.15,1.69-.08,.42-.21,1.01-.3,1.61-.09,.57-.57,1.17,.11,1.75,.82-1.71,1.61-3.35,2.4-4.98,.43-.56,.76-1.19,1.15-1.77,.97-1.46,2.03-2.85,2.91-4.36,.41-.71,.47-1.62,.71-2.52Zm71.24,27.93l-.09-.27c-.03-.36-.06-.72-.09-1.08-.05-.74-.47-1.2-1.15-1.39-1.38-.38-2.76-.73-4.15-1.09-.42-.11-.88-.16-1.26-.36-1.43-.73-3.02-.51-4.53-.85,.32,.3,.72,.4,1.05,.62,2.03,1.37,4.31,2.13,6.62,2.86,.6,.19,1.19,.53,1.69,.92,.62,.49,.54,1.37-.13,1.66l-.8-.25c-.28,.16-.53,.29-.77,.44-1.13,.68-2.2,.6-3.28-.16-.53-.37-1.11-.66-1.68-.96-.95-.51-1.88-1.04-2.85-1.5-.87-.42-1.78-.77-2.68-1.15-.08,.37-.06,.56,.04,.63,.65,.39,1.32,.76,1.99,1.13,1.4,.77,2.81,1.5,4.19,2.3,1.32,.76,2.65,1.49,4.15,1.81,1.27-1.13,2.5-2.21,3.72-3.29Zm-59.89-29.04l.4,.09c.36-.61,.76-1.2,1.08-1.83,.9-1.75,1.7-3.55,2.69-5.26,.47-.81,1.25-1.43,1.97-2.22-.56-1.41-1.02-2.91-2.88-3.4l-.8,.27c-1.04,2.1-2.86,3.46-3.73,5.58-.87,2.11-1.28,4.26-1.73,6.6l1.08,.28c1.13-6.24,1.99-9.1,5.01-11.02,.18,.84,.86,.28,1.52,.5-.24,.56-.41,1.09-.68,1.55-.74,1.29-1.6,2.51-2.27,3.83-.58,1.15-1,2.38-1.43,3.6-.16,.44-.15,.95-.22,1.42Zm10.43-14.62l.33-.05c.25-1.72,.61-3.44,.71-5.17,.1-1.84,.24-3.75-.16-5.52-.39-1.69-1.45-3.22-2.3-4.99-.35,.42-.53,.67-.74,.89-.44,.48-.88,.96-1.33,1.44-.19,.2-.45,.37-.55,.61-.45,1.06-.86,2.13-1.28,3.2l.31,.04c.3,2.28,.61,4.57,.91,6.85l.32-.02c.33-2.97,.22-5.94-.11-8.86l1.73-.95c2.07,1.69,2.69,3.95,2.46,6.4-.15,1.65-.73,3.26-1.15,4.99l.86,1.14Zm21.71,52.87c.87,1.08,1.65,2.06,2.43,3.02,.46,.56,1,1.06,1.39,1.67,1,1.56,1.97,3.15,2.89,4.76,.22,.39,.21,.91,.37,1.64-.76-.1-1.28-.03-1.65-.24-.66-.37-1.28-.84-1.82-1.37-1.11-1.09-2.17-2.24-3.24-3.37l-.17,.11,3.96,6.34c.52,.07,.96,.11,1.39,.2,1.13,.24,1.72-.64,2.32-1.26,.54-.56,.31-1.33-.02-2.04-.55-1.16-1.02-2.36-1.53-3.55l-.16,.12-1.51-2.18c-1.31-1.57-2.37-2.75-3.31-4.01-.59-.79-1.07-1.65-2.24-2.04l-.18,1.9,1.07,.31Zm-78.84-11.89c.8,.2,.88,.61,.71,1.15-.35,1.07-.9,2.13-1.01,3.22-.23,2.24-.23,4.51-.31,6.76-.03,.78,.26,1.41,1.03,1.77,.85-.31,.68-.96,.58-1.59-.24-1.44-.24-2.86,.22-4.29,.35-1.06,.59-2.18,.71-3.29,.09-.82-.09-1.67-.18-2.5-.06-.58-.19-1.15-.27-1.64-1.97-.82-3.53-.4-4.89,.81-.07,1.25-.13,2.42-.19,3.52l3.6-3.92Zm79.75-25.99c.95,1.79,1.97,3.53,2.81,5.35,.74,1.6,1.35,3.27,1.88,4.95,.29,.92,.36,1.93-.63,2.63-.13,.09-.2,.26-.3,.4l.19,.2c.25-.19,.58-.32,.75-.57,.32-.46,.5-1.01,.81-1.48,1.43-2.2,.83-4.3-.35-6.32-1.13-1.93-2.38-3.79-3.31-5.26-1.3-1.09-2.23-1.86-3.16-2.64l-.26,.19c.35,.89-.28,1.89,.4,2.75l1.18-.2Zm-11.62,59.46c-1,.53-1.88,.53-2.61-.07-.96-.78-1.85-1.66-2.72-2.56-1.47-1.52-2.9-3.07-4.75-4.38,.45,2.28,2.6,3.05,3.57,4.77,1.27,.25,1.65,1.53,2.53,2.25,.89,.73,1.68,1.57,2.54,2.38,.68-.17,1.34-.33,2.04-.5l.58-1.23c-1.16-4.86-6.36-8.34-9.05-9.16,2.86,2.75,5.81,5.16,7.86,8.5Zm38.59-73.05c2.03-3.16,2.65-6.15,.09-9.4-.77-.3-1.8-.73-2.86-1.09-1.63-.55-3.93,.12-4.94,1.34-.38,.46-.48,.82,.03,1.15l1.32-.28,1.03-1.3c2.1-.09,3.05,1.04,4.17,2.49,1.42,1.84,.47,3.21-.11,4.79l.83,.61,.42,1.68Zm-74.9-1.9l.81-.9c1.52,1.36,2.34,2.88,2.43,4.82,.06,1.41,.28,2.81,.43,4.22l.32-.02c.47-1.09,.23-2.22,.07-3.36-.08-.59-.27-1.21-.17-1.78,.24-1.42-.04-2.72-.54-4.02-.26-.69-.53-1.39-.78-2.07l-2.44,.28-1.75,1.63c-.3,.96-.19,1.79,.49,2.52,.16,.17,.3,.39,.38,.62,.65,1.81,1.29,3.62,1.93,5.44,.06,.18,.14,.36,.21,.55l.43-.27c-1.13-2.15-.57-4.67-1.67-6.83-.1-.2-.08-.47-.14-.83Zm84.43-77.86c-1.87-1.85-3.43-3.97-5.97-4.75l-3.78-.8,.56,1.89c.86,.2,1.7,.26,2.41,.6,2.92,1.39,5.53,3.14,7.21,6.05,.73,1.27,1.64,2.43,2.47,3.65l.3-.06c-.05-.48-.02-.99-.17-1.43-.29-.83-.66-1.64-1.04-2.43-.2-.42-.46-.83-.74-1.2-.39-.52-.83-1.01-1.25-1.51Zm-148.24,178.46c.37,.35,.64,.66,.97,.91,.6,.45,1.18,1.04,1.86,1.26,1.74,.57,3.52,.28,5.25-.16,.85-.22,1.05-.69,.85-1.73-.3-.08-.65-.27-.98-.26-1.66,.07-3.33,.22-4.99,.27-.54,.02-1.16-.06-1.62-.31-1.43-.79-2.97-.38-4.45-.5-.08,0-.18,.14-.32,.25l.29,.93-.53,1.42c1.47-.04,2.69,.54,3.95,0-.05-.69-.93-1.1-.25-2.07Zm140.02-149.26l-.76,.94,1.02,3.25,1.61,.09c-.22-.76-.43-1.35-.55-1.96-.3-1.62-.39-3.3-.88-4.86-.65-2.07-.92-4.15-1.05-6.29-.05-.88-.24-1.76-1.12-2.38l-.7,.42c.18,2.22,.34,4.34,.52,6.45,.14,1.61,.62,3.07,1.9,4.34Zm-53.54,106.36l2.32,1.67c2.28-1.54,4.25-3.44,6.21-5.45l-1.83-1.52c-.85,.31-1.72,.63-2.76,1.02-.4,1.99-2.32,2.9-3.95,4.28Zm-89.64-45.99c2.9,2.23,6.26,2.84,9.43,3.92,.52-.76,.23-1.42-.24-1.81-.67-.55-1.47-.95-2.26-1.31-.9-.41-1.9-.6-2.82-1.34,.78-.38,1.28-.17,1.74,.15,.59,.41,1.17,.41,1.88,.05-.59-1.83-2.34-.8-3.36-1.62l-.73,.98c-1.29,.34-2.46,.66-3.64,.97Zm155.44,77.88c3.72-.49,6.46-2.51,9.06-4.82-.41-.54-.9-.69-1.3-.29-1.42,1.41-3.5,1.61-5.03,2.8-.05,.04-.19-.06-.48-.15,1.33-.89,2.54-1.7,3.84-2.57l-.44-1.98c-1.81,1.45-3.75,2.36-4.57,4.52l.92,.56-.04,.27-2.98,.34c-.11,.88,.59,1.1,1.01,1.34Zm-9.76-129.91l.39,4.55c-1.46-2.43-.51-5.18-1.27-7.83l-1.11,.29c.05,.55,.1,.99,.13,1.42,.05,.8,.22,1.62,.08,2.38-.37,2.08,.08,4.01,.75,5.94,.09,.27,.38,.47,.8,.98,.32-1.02,.45-1.84,.82-2.52,.4-.73,1.02-1.33,1.61-2.05-.06-1.04-.12-2.1-.18-3.15h-2.02Zm-64.2,111.7c1.94-.55,3.27-1.75,4.72-3.02-.13-.83-.27-1.67-.43-2.69-4,2.02-7.82,3.95-11.75,5.93l.2,.68c3.08-.6,5.54-2.18,8.08-3.9l.75,.62c.09,1.3-1.11,1.47-1.58,2.38Zm73.55-138.72c1.19-.36,2.3-.08,3.39,.8l.35,1.05,1.38-.49c-.3-1.98-1.86-2.86-3.1-3.98l-1.79,.26c-1.66,.79-2,2.5-2.68,3.79-.41,1.59,.45,2.46,1.41,3.33,.73-.38,.69-.95,.54-1.57-.27-1.15-.05-2.22,.49-3.18Zm-68.19,81.26c1.85,.62,3.53,1.19,5.34,1.79,.62-.38,1.34-.75,1.96-1.24,.62-.5,1.15-1.12,1.71-1.69-1.91-1.56-4.43-1.33-6.34,.09-.88,.22-2.04-.31-2.66,1.05Zm-52.63,110.88c.04,.79-.11,1.58,.16,2.17,.53,1.16,1.19,2.29,2,3.28,1.1,1.35,2.39,2.54,3.68,3.88h1.1c-1.78-3.06-3.47-5.97-5.21-8.96l-1.73-.37Zm127.62-173.98c-.71,.43-1.61,.98-2.35,1.42-.32,.72-.54,1.23-.81,1.82l.35,1.54,.21-.04c.26-.94,.51-1.89,.76-2.79,.41-.1,.68-.16,.95-.24,1.71-.5,2.7,0,3.35,1.62,.19,.49,.51,.92,.74,1.32h1.36l.56-2.25c-.18-.35-.3-.6-.44-.85-.52-.89-1.17-1.46-2.34-1.31-.69,.08-1.42-.13-2.36-.24Zm-30.55-28.7c.81,.54,1.64,1.31,2.9,1.34l.25-.95c-.62-.78-1.2-1.4-1.65-2.1-1.07-1.69-.57-2.93,1.38-3.44,.59-.15,1.23-.09,2.01-.13l-.65-1.18-.16,.21-2.8-.9c-1.75,2.11-2,4.44-1.29,7.16Zm-103.11,97.56c-1.39,1.01-2.77,2.01-4.22,3.06l.52,1.51,1.21-.22,.52,.95c1.29-1.1,2.42-2.26,3.73-3.14,1.33-.9,2.7-1.69,3.82-2.84l-.22-.34-4.44,2.7-.92-1.69Zm110.94-102.84l.22,.05c.15,2.03,.31,4.06,.46,6.09,.03,.36-.11,.81,.06,1.06,.7,1.03,1.59,1.94,1.8,3.24,0,.01,.07,.02,.21,.04l.38-.79c-.14-1.11-.25-1.99-.36-2.86-.26-.88-.47-1.77-.44-2.65,.04-1.46-.2-2.87-.52-4.27-.09-.4-.39-.75-.72-1.34l-1.1,1.42Zm-37.27,92.95c1.06-.39,1.98-.81,2.96-1.06,.98-.26,2.01-.37,3.01-.54-.19-.38-.44-.65-.63-.62-1.1,.2-1.94-.29-2.78-.87-.15-.11-.38-.15-.57-.15-1.4,0-2.81-.06-4.19,.09-.62,.07-1.43,.2-1.74,1.02l1.75,.48,.7,.99,.97-.12,.52,.79Zm-5.59,4.89c-1.44,1.25-1.3,2.91,.15,3.47,1.9,.73,4.24-.52,4.82-2.7l-3.01-1.62-.49,1.41-1.49-.56Zm73.03,65.28c.48-.23,.71-.29,.88-.42,1.63-1.33,2.3-3.03,2.01-5.12-.17-1.29-.29-2.59-.44-3.87-1.5,.31-1.2,.31-2.17,2.44,.71,2.23,.42,4.5-.28,6.97Zm-88.22-96.34l.15-1.67c3.48-2.07,5.55,.21,7.72,2.15l.41-.46c-.89-1.33-2.17-1.97-3.48-2.67-1.12-.6-2.19-.71-3.36-.61-1.93,.17-2.75,1.23-2.46,3.16,.59,.87,1.31,1.4,2.43,1.54,1.25,.16,2.45,.63,3.69,.91,.24,.05,.53-.14,.8-.22l.04-.41c-1.88-.66-3.63-1.66-5.93-1.73Zm44.29,35.56c.76-.87,.77-1.78,.07-2.96-.18-.3-.39-.61-.49-.94-.49-1.7-1.1-3.35-1.96-4.89-.19-.35-.42-.67-.61-.97l-.82,1.96,.58,3.1c1.27,.73,1.91,1.97,2.07,3.4l1.16,1.3Zm-1.93,51.26c-1.19,1.9,.19,3.41,.36,4.94-.39,.66-.72,1.21-1.07,1.81-2.16-.94-1.65-3.17-2.34-4.79l-.32,.05v4.08h-.22l.47,1.51c1.19,.82,2.42,1.43,3.88,.8,.44-2.22,.25-4.34-.76-6.51v-1.88Zm17.55-135.53c.04-.53,.1-.96,.09-1.38-.04-1.24-.23-2.5-.12-3.73,.13-1.51-.18-2.87-.74-4.06l-1.51-1.27c-.05,1.08-.2,2.07,.4,2.99,.12,.19,.18,.46,.18,.7,0,1.04-.06,2.07-.04,3.11,.02,.8,.09,1.61,.21,2.4,.11,.7,.57,1.12,1.53,1.24Zm-113.25,169.3c-2.47-.37-4.71-.93-6.38-2.11-1.28-.08-2.24-.14-3.36-.21l1.02,1.49c1.43,.54,2.74,1.19,4.12,1.5,1.42,.31,2.92,.28,4.43,.41l.17-1.08Zm-9.93-87.48l.19-.41c-.44-.91-1.14-1.57-2.07-2-1.2-.55-2.41-1.11-3.63-1.62-.99-.42-1.99-.79-3-1.15-.5-.18-.88-.09-.84,.34l2.05,1.67c2.02,1.01,3.81,1.94,5.65,2.8,.5,.23,1.1,.25,1.66,.37Zm-53.35,58.12c.33-1.29,.22-2.45-.37-3.62-.83-1.67-1.55-3.39-2.36-5.19l-.73,.51,.58,2.61c.81,2.69,2.73,4.97,2.95,7.93l1.92,.46-1.06-2.52-.93-.17Zm68.66-17.2c.67,3.34,1.49,4.91,2.95,5.63,.31-.62,.28-.6-.04-1.1-.57-.91-1.11-1.84-1.56-2.59,.44-2.05,.72-2.34,1.88-2.27l1.79,2.02c.63-1.03,.28-2.26-.79-3.08-1.04-.8-2.82-.23-4.23,1.39Zm14.23,19.99c2.11,.3,5.41-2.27,6.13-4.73-.67-.32-1.37-.66-2.13-1.02-1.34,1.93-2.63,3.78-4,5.75Zm-79.88,8.95c.78,1.33,1.49,2.64,2.78,3.46,1.27,.81,2.37,1.72,2.58,3.34,.02,.13,.11,.26,.17,.39-.18-1.67,.58-3.36,.09-4.48-1.91-1.35-3.4-2.39-4.92-3.47l-.7,.75Zm94.25-10.76c-1.34-1.06-1.68-2.4-1.14-3.9,.06-.06,.18-.16,.29-.28,.12-.12,.22-.25,.44-.5-1.38,.41-2.08,2.43-2.03,5.43,1.43,.18,2.87,.37,4.21,.54l.56-4.41,.16,.03-.54-1.71-.32-.02c-.27,1.06-.5,2.13-.83,3.18-.17,.54-.51,1.02-.83,1.63Zm-62.5,24.72c-.65-.06-1.16-.16-1.66-.15-2.07,.07-4.01-.39-5.89-1.26-.31-.14-.72-.08-1.16-.11l-.13,1.24c2.56,1.38,5.15,2.32,8.13,1.67l.71-1.38Zm149.12-126.43c-.11-3.14,.68-6.32-.35-9.57l-1.36,1.19c.63,3.09,.87,6.09-.55,9.26l2.26-.87Zm13.52,109.43l.28,.4c.97-.46,2.14-.37,2.97-1.25,1.12-1.19,2.25-2.37,3.52-3.7q.39-1.47-.02-2.15c-.23,.16-.5,.29-.67,.49-1.34,1.61-2.79,3.09-4.49,4.34-.64,.47-1.07,1.24-1.59,1.87Zm-21.71-25.38c-1.08-1.41-1.47-2.81-1.19-4.35,.1-.56,.15-1.06-.42-1.43-.13,.53-.1,1.04-.13,1.55-.06,1.04-.03,2.11-.27,3.1-.18,.73-.16,1.32,.14,2.01,1.18,.23,2.35,.65,3.5,0,.73-1.54,.63-5.32-.17-7.25-.03,.07-.09,.14-.09,.21,0,1.24-.04,2.49,.04,3.73,.09,1.37-.28,2.15-1.4,2.42Zm6-99.51c.83-.82,1.06-1.88,.88-3.02-.25-1.58-.59-3.15-.88-4.73-.18-1-.35-2-.52-3-.36,.18-.48,.34-.55,.51-.68,1.79-.24,3.57,.1,5.35,.3,1.61,.64,3.2,.98,4.89Zm-188.21,101.2l-.29,.2c-.02,2.66,.09,5.31,.97,7.89h1.48c.23-1.3-.68-5.78-1.51-7.37-.15-.28-.44-.48-.66-.72Zm2.96-.66l-.69-6.77h-1.07c-.72,.58-.64,1.23-.54,1.95,.14,.98,.17,1.98,.18,2.97,0,1.04-.02,2.07,.8,3.03l1.32-1.18Zm199.07-89.34l.69,1.63,1.79,1.29c.89-.91,.88-2.07-.04-2.64-1.01-.63-2.13-1.06-3.16-1.66-.81-.47-1.55-.33-2.29,.04-.6,.3-1.18,.67-1.81,1.03l.21,.64,1.46,.09c.39-.31,.8-.63,1.29-1.02l1.85,.6Zm-191.32,56.14c.4-.58,.73-1.07,1.07-1.55,.49-.68,.95-1.39,1.48-2.04,.72-.86,1.5-1.66,2.36-2.61l-.55-1.16c-1.07,.96-1.96,1.87-2.97,2.65-1.37,1.06-2.02,2.43-2.17,4.11l.78,.6Zm137.02-14.49c.78,.3,1.45,.57,2.13,.82,1.74,.63,2.51,.43,3.97-1.16-.47-.48-.94-.96-1.42-1.45l-.12,.32h-5.15l.58,1.47Zm-142.14,18.26c-2,1.1-4.05,6.1-3.1,7.84,.53-.78,1.19-1.44,1.46-2.23,.46-1.32,.96-2.55,2.13-3.32,.12-.88,.17-1.66-.49-2.29Zm-1.85,43.56c-.19,.33-.39,.52-.36,.66,.47,2.25,.76,4.56,2.26,6.6,.38,.09,.78,.78,1.41,.34l-2.07-6.93-1.22-.68Zm162.04,10.14c-.07,.81,.28,1.32,.83,1.7,1.31,.9,2.6,1.83,3.96,2.65,.91,.55,1.94,.89,3.07,.84-.17-.78-.51-1.02-1.45-1.6-1.45-.9-2.8-1.94-4.25-2.84-.61-.38-1.08-1.31-2.15-.75Zm36.13-15.67h-2.92l1.18,2.12c2.29-.7,4.8,.36,7.12-1.14-1.75-1.16-3.64-.53-5.38-.98Zm-202.56-23.63c-.31,2.84-1.26,5.51,.16,8.39,.66-.87,1.01-1.6,1.01-2.48,0-.79-.03-1.59,0-2.38,.05-1.03,.14-2.06,.22-3.18l-1.4-.35Zm66.26-22.92c-.23-.18-.35-.3-.48-.38-1.81-1.03-3.61-2.08-5.44-3.05-.39-.21-.96-.57-1.54,.21,1.82,2.03,4.2,3.25,6.5,4.58,.25-.23,.39-.32,.47-.45,.17-.27,.31-.56,.5-.92Zm-63.97,24.61c.98-.51,1.13-.67,1.53-1.8,.6-1.69,1.16-3.39,1.75-5.09,.16-.48,.33-.95,.53-1.51h-1.69c-.22,.43-.57,.84-.61,1.27-.15,1.7-.59,3.28-1.31,4.83-.29,.62-.14,1.45-.19,2.3Zm80.46,22.32c-1.24,2.43-1.29,4.73-.24,7.25,.8-2.18,1.54-4.2,2.31-6.29l-2.07-.96Zm-32.24-22.87c.82,1.09,3,1.52,4.78,.88-.95-.3-1.77-.55-2.59-.83-.61-.21-.98-.57-.54-1.38h5.9c.04-.89-.56-.96-1.04-1-1.36-.12-2.72-.16-4.02-.23-.95,.81-2.46,.89-2.49,2.56Zm131.02-121.84v-3.2c-.73-.36-1.25-.62-1.78-.89-1.03,3.26-1.05,5.39,1.27,6.79l-.47-2.52,.98-.18Zm24.17,98.82c-.15-1.44-1.72-1.49-2.14-2.44l-1.83-.72,.22,.94,2.15,.83-1.23,1.62c-1.44-.2-2.53-1.29-4.08-.95,1.46,1.23,3.61,.93,4.55,2.71l1.18-.16c.42-.66,.79-1.23,1.17-1.83Zm-114.52,25.11c-.48-1.4-.95-2.74-1.5-4.32-.33-.33-.89-.6-1.78-.12,0,1.78-.01,3.6,.02,5.42,0,.17,.32,.33,.68,.67-.04-.84-.04-1.4-.1-1.95-.06-.59-.32-1.23,.79-1.46l.75,2.46,1.14-.69Zm69.55,29.69c-1.75-1.6-3.71-2.46-6.06-2.72,.04,.3,0,.46,.07,.52,1.17,1.04,2.34,2.06,3.42,3,.95,.31,1.78,.58,2.73,.9l-.17-1.7Zm14.99-168.17c-1.88,.78-3.76,.87-5.52,2.14l2.73,1.51,3.08-1.69-.29-1.96Zm-75.85,93.99l1.21,.84c1.3-1.1,2.57-2.17,3.84-3.25l-.09-.18-4.13,1.33c-.81-.89,.17-1.32,.49-1.82,.37-.58,.94-1.04,1.43-1.55-.62,.12-1.13,.34-1.63,.56-1.41,.59-1.81,1.4-1.43,2.86,.1,.39,.21,.78,.32,1.21Zm55.99-.17c-2.62-1.49-5.94-1.17-6.92,.76,2.11-.39,3.99,.48,5.78,.95l1.14-1.71Zm-99.8,97.68v2.46c1.34,.09,2.61,.97,4.1,.7-.04-2.5-1.76-3.8-4.1-3.16Zm-46.54-75.5c-1.73,.61-1.82,2.33-2.78,3.48l.79,1.15-.21,.49c1.29-.08,2.61-1.47,3.09-3.25l-.9-1.87Zm-8.34,18.6c1.38-1.13,1.12-2.84,1.69-4.03l-1.65-2.14c-.11,2-1.62,3.43-1.12,5.42l1.08,.75Zm6.67-11.86c.96,.08,1.61-.05,2.13-.65,1.34-1.54,2.62-3.12,3.94-4.72l-.8-.85c-.67,.68-1.49,1.22-1.88,1.97-.46,.89-1.1,1.53-1.79,2.21-.59,.58-1.65,.83-1.61,2.04Zm143.01,56.33l-.58-1.95,.42-1.2c-.79-.94,.18-2.35-.92-3.3l-.3,4.97-1.45-.99c.33,1.36,.64,2.64,.95,3.92l.91,.29,.96-1.75Zm38.11-108.33l.32,.26,2.47-1.34-.58-1.22,.33-1.85h-2.54v4.16Zm-102.33,52.07c-1.12-.76-2.17-1.48-3.18-2.17l-1.49,.55c-.17,1.08,.59,1.47,1.25,1.92,.65,.45,1.31,.89,1.98,1.33,.19,.12,.4,.21,.75,.39l.7-2.02Zm43.8,31.66l3.78-.89c.05-1.29-1.77-3.36-3.28-3.81l-1.02,.95c1.42,.36,2.51,.77,2.83,2.08-.65,1.09-.75,1.09-1.82,.86-1.39-.3-2.33-1.28-3.37-2.14-.32,.86-.04,1.15,2.88,2.94Zm25.49,9.93c-1.49-1.18-2.94-2.33-4.46-3.54-.34,.8-.59,1.37-.89,2.06,1.06,.78,2.08,1.53,2.94,2.17,.89-.25,1.57-.45,2.41-.69Zm-62.76-48.85c.02-2.37,.13-2.56,1.56-2.62,.95,.91,.31,2.09,.46,3.44l.96-1.3c-.1-1.43,.73-3.03-1.08-4.16-.47,.25-1.25,.4-1.44,.81-.55,1.18-.87,2.46-1.26,3.71-.02,.07,.11,.19,.17,.28,.14,0,.26,.02,.37,0,.07-.01,.13-.08,.27-.17Zm124.31,34.06c-.52-2.36-2.26-4.15-3.27-6.45l-.95,.63c1.12,2.28,2.21,4.48,3.32,6.72,.23-.15,.4-.25,.55-.38,.11-.11,.18-.26,.36-.52Zm-108.07,14.35c.91,1.81,3.11,2.43,5.02,1.54,1.01-2.14-.78-3.34-1.64-5.13l-.79,1.31c.61,.9,1.86,1.05,1.89,2.32l-1.72,1.1-2.76-1.15Zm26.26-12.17l.71,1.53,.33-1.35c1.45-1.02,2.76-2.13,4.03-3.3,.97-.89,1.9-1.84,2.79-2.81,.23-.25,.26-.69,.39-1.04l-.31-.16c-2.49,2.49-4.73,5.25-7.95,7.13Zm-29.85-28.82l-.85-.17c-1.3,.48-2.31,1.15-2.47,2.42-.11,.87,.34,1.68,1.2,2.25l.66-.93-.77-1.17,.4-1.02,1.24,.31,.46,1.26,1.16-.33-1.02-2.61Zm7.63-17.63c.65-1.04,.95-2.09,.85-3.45l-1.18-.99c-.61,.44-1.05,.72-1.45,1.06-.79,.66-1.37,1.47-1.59,2.49-.12,.56-.02,.96,.69,.85q.29-2.04,1.76-2.34c1.2,.44-.1,1.62,.92,2.38Zm-100.92,71.47c.66-.84,.73-1.29,.13-2.14-.6-.85-1.34-1.6-1.97-2.43-.61-.81-1.49-1.46-1.6-2.65l-1.09-.25c.1,1.3,.75,2.18,1.41,3.01,.69,.87,1.56,1.57,1.95,2.69,.23,.65,.76,1.18,1.16,1.78Zm69.81-57.1c-.17-.19-.25-.34-.37-.42-1.14-.73-2.3-1.45-3.48-2.19l-.79,.74c.29,.93,2.19,2.95,3.03,3.27l1.62-1.4Zm-73.25,57.38c.28-.31,.49-.6,.76-.83,.27-.24,.58-.42,.83-.59-1.29-2.1-2.6-2.81-4.1-2.22,.78,1.23,1.03,2.78,2.51,3.64Zm156.29-117.73c.91-2.33,.67-4.7,.44-7.19l-1.23,.49c.46,2.22-.25,4.53,.79,6.7Zm-111.66,48.12l-.03,.3c1.21,.57,2.42,1.15,3.73,1.77l.55-1.29c-1.44-1.04-2.72-2.09-4.54-2.48l.29,1.7Zm115.18,22.45l-1.88-2.18-2.9,.68-.99,.75v.28l1.4,.33,1.7-1.26,1.36,1.21-.39,1.03,1.34,.92,.36-1.76Zm-12.04,3.27c.75-1.21,1.48-2.38,2.23-3.58-.65-.2-1.27-.27-1.76-.57-.5-.3-.9-.73-1.48-.4,.64,.54,1.28,1.08,2.03,1.71-.68,1.35-2.09,1.24-3.12,1.68l-1.6-.76-.15,.35c1.06,1.01,2.61,.92,3.86,1.57Zm-156.14,16.64c.13-1.66,.08-3.22-.42-4.74-.1-.3-.49-.5-.93-.92l-.46,5.09,1.8,.57Zm92.01-19.39c-.2,.86-.34,1.48-.48,2.08,.9,.83,1.69,1.55,2.55,2.34l1.48-1.12-3.54-3.3Zm-17.2,67.78c-.9-1.4-2.45-1.64-3.78-2.44l-.41,1.24-.17,.3c.67,.5,1.34,1,2.13,1.58,.66,0,1.6,.5,2.23-.68Zm80.53-102.53l.54,1.14,3.73,.25,.66-.77c-.54-.5-1.03-.96-1.66-1.54l-3.27,.92Zm31.05-32.98h1.92l-.27-4.16-1.93,.62c.1,1.22,.18,2.33,.28,3.54Zm-108.96,96.22c1.28-1.39,2.23-2.8,4.08-3.2l-1.52-1.33-2.86,2.4,.3,2.13Zm-.3-29.14c-.37-1.09-1.36-1.78-3.41-2.4l-1.99,1.08c1.63,.54,3.04,1.01,4.44,1.47l-.04,.22,.99-.37Zm73.58,15.27c1.47,.13,2.2-.62,2.71-2.02-.18-.66-.41-1.53-.65-2.42h-2.02c1.65,2.03,1.81,2.72,.94,3.66h-1.45l.46,.78Zm36.47-73.05l.31,.05c-.05-1.37-.12-2.75-.13-4.12-.01-1.34,.04-2.68,.07-4.16-1.27,1.58-1.32,4.58-.25,8.23Zm-55.76,22.69c.33,.17,.63,.45,.81,.39,.69-.23,1.37-.54,1.42-1.32-.36-1.46-1.46-2.04-2.71-2.68l-1.76,.31v.3l.85,.5h1.9q.6,1.06-.51,2.49Zm.94,60.31l-2.8,1.13,.29,1.65,3.26-1.15-.75-1.63Zm-57.98,48.13l1.44,3.09,1.22-.45c.28-1.2-.53-1.99-.88-3.06l-1.79,.43Zm17.05-66.2c1.25-.29,1.65-.92,1.81-1.92-.71-.61-1.15-1.62-2.45-2.01l.63,3.93Zm84.67-134.3c-2.93,1.23-3.07,1.35-2.82,2.04l3.65,.52c-.3-.93-.55-1.71-.83-2.56Zm-99.54,114.22c-.65-1.47-2.07-1.92-2.85-3.1l-1.29,1c1.34,.89,2.2,2.2,4.14,2.1Zm43.38-4.95c.74-1.1,1.05-2.27,1.03-3.58-1.4,.41-2.09,1-2.04,1.92,.04,.64-.01,1.48,1.01,1.65Zm-33.4,46.78c1.09-1,1.13-2.18,1.27-3.47l-.95-.04-.09,2.05-1.26,.2-1.03,.86c.64,.79,1.44-.05,2.06,.4Zm-82.91-2.89l-.67-4.27c-.65,.08-.9,.53-.87,1.01,.09,1.27,.25,2.54,.85,3.83l.69-.57Zm140.44-15.27l-2.12-1.23-.52,.58,1.51,2.54c.5-.58,1.26-.99,1.12-1.9Zm-47.37,21.6c1.56-1.17,1.72-1.49,1.08-2.2l-.43,.94c-.99,.53-1.76-.2-2.7-.45l-.24,1.09c.71,.79,1.51,.69,2.28,.61Zm-95.42-19.87l.5,.08,.48-4.67-.37-.04c-1.26,1.4-.5,3.07-.61,4.63Zm139.43,.41l-.96-.58c.21,1.15,.88,1.39,1.62,1.68l.99-.74-.08-.23-1.57-.14Zm-55.79,74.81l.32-.06c-.12-.98,0-2.02-.51-2.92l-.25,.05,.45,2.93Zm50.77-75.44c.74,.3,1.72-.23,2.17-1.25-.67,.38-1.33,.77-2.17,1.25Zm-42.78,17.67l.25,.16,.77-.41-.3-1.56-.17-.02-.55,1.83Zm15.71,15.61l-.16-.15-1.36,1.25,.14,.21,.85-.08,.54-1.23Zm61.32-45.9c.71,.81,1.05,.85,1.76,.33l-1.76-.33Zm-35.46,8.58l-.94-1.43c-.23,.82-.16,.94,.94,1.43Zm63.47-69.09l-.33-.06-.15,1.11,.29,.04,.2-1.1Zm-40.77,188.2l.04,.32,.88-.09-.05-.36-.88,.13Zm-25.68-121.96l-.37-.27-.37,.65,.32,.2,.42-.58Z"
  />
  <path fill="#58b6d0"
    d="M266.07,328.8c.36-.07,.74-.26,1.08-.19,1.01,.2,2,.51,3.01,.75,.86,.2,1.72,.37,2.58,.53,1.72,.33,3.43,.66,5.34,1.02l-.37,2.18c.73,.1,1.5,.21,2.38,.34-.84,1.28-1.78,.29-2.59,.37-.84,.08-1.71-.04-2.81-.08-.02,.05-.27,.46-.16,.63,.26,.41,.65,.93,1.07,1.03,.97,.24,1.99,.36,2.99,.33,1.49-.04,2.97-.23,4.45-.43,.39-.05,.74-.34,1.11-.53l-.06-.3c-.62-.08-1.24-.15-1.85-.23-.61-.08-1.21-.16-2.1-.29l1.21-1.62,.19,1.24h4.29c-.24,1.46-1.13,2.23-2.67,2.41-1.59,.19-3.19,.54-4.78,.51-1.55-.03-3.09-.46-4.43-.68-.87-.84-.59-1.65-.47-2.36-1.18-.86-2.72-.26-3.84-1.18,2.13-.34,4.18,.35,6.55,.32l.63-.8c-1.26-1.11-2.72-.94-4-1.29-1.53-.41-3.1-.63-4.66-.9-.43-.08-.87-.05-1.3-.11-.27-.03-.53-.13-.8-.2l.02-.48Z"
  />
  <path fill="#58b6d0" d="M256.48,351.91l3.33,.47q-1.11,1.47-2.02,1.49l-1.32-1.96Z" />
  <path fill="#58b6d0"
    d="M281.39,332.05l-1.26-.82c1.69-.31,3.19-.27,4.74-.35-.28,.61-.28,.58-1.53,.72-.63,.07-1.25,.28-1.96,.45Z"
  />
  <path fill="#58b6d0"
    d="M286.73,270.17c.33,1.17,.65,2.33,1.04,3.72-.76-.65-1.44-2.89-1.04-3.72Z"
  />
  <path fill="#58b6d0" d="M277.39,392.34l1.37-.82c-.2,1.17-.33,1.25-1.37,.82Z" />
  <path fill="#58b6d0" d="M286.43,333.3l1.63-.23,.06,.31-1.63,.38-.06-.46Z" />
  <path fill="#58b6d0" d="M276.39,320.21c.44-.75,.74-.87,1.27,0h-1.27Z" />
  <path fill="#58b6d0" d="M313.47,284.01l.79,.71c-.83,.38-1.03,.1-1.1-.35l.31-.36Z" />
  <path fill="#58b6d0"
    d="M285.72,321.35c.37,.25,.85,.43,.68,1.09-.82-.09-.77-.59-.66-1.11l-.02,.02Z"
  />
  <path fill="#58b6d0" d="M171.76,239.3l.43-1.35,.42,.14-.49,1.33-.36-.12Z" />
  <path fill="#58b6d0"
    d="M177.28,350.55c-.63,.25-1.11,.45-1.67,.68-.12-.73,.25-.98,.83-1.24,1.02-.46,2.01-1.01,2.98-1.58,.46-.27,.83-.7,1.27-1.08l-.61-1.09c-1.37,.51-2.71,1.01-4.05,1.51l-.17-.36c.91-.78,1.81-1.52,3.07-1.81,1.82-.42,3.61-.16,5.4,.05,.98,.11,1.95,.31,2.92,.48l-.04,.44c-.82-.08-1.63-.2-2.45-.24-.92-.04-1.84,0-2.87,0l-.12,1.21c1.27,1.05,2.73-.17,3.89,.66l.97-1.06,.28,.76,2.93,1.58-.72,1.56c-.69,.19-1.38,.38-2.23,.61,1.25,1.16,2.92,1.21,4.14,2.01l1.45-.12,.54-2.18c-.95-.53-1.74-.97-2.54-1.42l.1-.24c.86,.32,1.73,.59,2.56,.96,.87,.39,1.71,.86,2.55,1.29,.9-.33,.7-.88,.42-1.41-2.73-1.52-5.1-3.66-8.38-3.95l-.02-.29c.19-.12,.4-.38,.56-.35,1.78,.36,3.58,.47,5.13,1.77,1.25,1.04,2.9,1.59,4.32,2.45,1.66,1,3.09,2.28,4.26,3.85,.61,.82,1.4,1.51,2.1,2.27,1.72,1.86,2.54,4.07,2.48,6.61-.01,.55,0,1.09,0,1.84l-.51,.61c.36,.83,.72,1.67,1.08,2.49,3.43,1.92,4.61,4.41,3.55,7.24-.88,2.37-3.73,4.59-7.29,3.41l.08-1.28c1.71,.7,3.3,.55,4.72-.49,.87-.64,1.44-1.5,1.65-2.59,.42-2.17-.88-4.41-2.96-5.08-1.33-.43-2.52-.23-3.66,.6-1.08,.8-1.48,1.95-1.77,3.17q-1.14-.49-.17-2.98l-1.87-1.81,.16-.26,.3-.94c1.1,.49,1.67,1.33,2.21,2.33l1.36-.84c-.86-2.22-1.72-4.45-2.54-6.59l1.1-1.39-.26-1.15h-1.31l-2.37-1.3,.04-.04-1.7-1.24-.04,.05c-.84-.7-1.68-1.4-2.64-2.21-1.47,.03-3.17,.3-4.74-.68-.88-.55-1.79-1.13-2.77-1.44-1.13-.36-2.35-.45-3.53-.62-.35-.05-.72,0-1.08,.01-1.57,.02-3.15,.03-4.33-1.13Zm1.54-.41v.28c.4,.08,.8,.22,1.21,.24,.95,.05,1.9,.07,2.85,.08,1.41,0,2.81-.01,4.22-.01,.65,0,1.08-.21,1.09-1.04-.42-.14-.83-.31-1.25-.4-.89-.19-1.79-.4-2.7-.5-1.01-.12-2.03-.16-3.05-.18-.25,0-.54,.16-.76,.32-.55,.39-1.07,.81-1.61,1.22Zm26.76,13.87c.03-.29,.06-.44,.07-.6,.07-1.83-.37-3.6-1.12-5.22-.4-.88-1.13-1.8-2.45-2.02,.08,.26,.08,.45,.17,.52,.16,.12,.37,.16,.31,.14-.3,2.89,1.39,4.84,2,7.19h1.02Zm-4.24-6.81c-.42-.33-.7-.55-.98-.77-1.09-.9-2.29-1.71-3.25-2.74-.89-.95-1.9-1.15-3.08-1.27-.27,1.07,.84,1.2,.9,1.7,2.02,1.49,3.9,2.89,5.95,4.4l.46-1.32Zm3.69,8.17l-1.52-.8c-.26-.97-.32-1.9-1.17-2.49,.47,2.04,1.07,4.03,2.31,5.85l1.56-.45c-.45-.81-.81-1.46-1.17-2.11Zm-6.59-14.16c-1.26,.71-1.34,1.22-.42,2.02,.6,.53,1.18,1.09,1.86,1.52,.43,.27,.94,.91,1.65,.12l-3.08-3.65Z"
  />
  <path fill="#58b6d0"
    d="M220.19,360.04l.99-.94c.76,1.21,1.45,2.43,3.13,2.88,1.27,.09,2.74-.03,3.8-1.36,.31-.4,.64-.82,.83-1.28,.9-2.24,.62-4.36-.83-6.28-1.3-1.71-3.06-2.68-5.19-3-.41-.06-.81-.18-1.18-.27v-1.69c1.38-1.47,3.79-1.25,5.16-.23,1.59,1.19,2.71,2.77,3.91,4.26,.51,.64,.7,1.58,.91,2.41,.52,2.07,.82,4.21,1.48,6.23,.91,2.82,.78,5.75,1.15,8.62,.18,1.42-.04,2.89-.08,4.34-.02,.84,.07,1.7-.09,2.51-.37,1.93-.91,3.83-1.3,5.76-.84,4.11-2.85,7.79-4.35,11.66-.32,.82-.74,1.61-1.2,2.58-1.49,.31-1.41,1.91-2,3.05l-1.64,1.1-.36-.54c.84-2.58,1.68-4.98,2.39-7.42,.31-1.06,.33-2.19,.48-3.3,.02-.12-.02-.25,.02-.36,1.02-2.95,.59-5.95,.26-8.94-.18-1.68-.37-3.36-.6-5.03-.49-3.61-1.96-6.87-3.63-10.06-.78-1.49-1.36-3.08-2.06-4.71Z"
  />
  <path fill="#58b6d0"
    d="M115.49,356.66c-.29-.85-.7-1.68-.83-2.55-.3-2.03-.48-4.08-.66-6.12-.21-2.43-.47-4.84-.16-7.29,.33-2.55,.34-5.13,.65-7.68,.16-1.33,.79-2.61,.96-3.95,.17-1.35,.6-2.57,1.17-3.78,.24-.51,.49-1.02,.65-1.56,.43-1.43,.8-2.87,1.21-4.3,.07-.26,.17-.51,.3-.93l.92,1.03-.08,1.29,.88-.54,.18,1.36,.79,.16,.18,.72,1.01-.75c2.51-.71,3.82-2.55,4.6-4.79-.77-1.69-2.14-2.48-4.4-2.6l-1.42,1.04c-.82-.59-.72-1.23-.15-1.66,.82-.62,1.82-1.01,2.64-1.63,.91-.69,1.8-.54,2.75-.25,1.96,.6,2.92,2.04,3.2,4.04,.28,2.01-.7,3.54-1.35,5.26-.9,2.39-2.67,4.2-3.82,6.41-1.07,2.07-2.27,4.08-3.46,6.08-.51,.85-1.28,1.57-1.68,2.46-.9,2.03-1.8,4.05-2.39,6.25-.83,3.11-1.03,6.16-.81,9.33,.09,1.35-.16,2.73-.29,4.09-.03,.29-.21,.57-.32,.85l-.27,.03Z"
  />
  <path fill="#58b6d0" d="M283.13,245.04l-.24-.9c.7-.42,1.24-.38,1.92,.38l-1.68,.52Z" />
  <path fill="#58b6d0"
    d="M188.26,371.44l2.07-.47,1.18,1.63-.24,1.12c-1.08,.59-2.11,.68-3.32-.18l.31-2.1Z"
  />
  <path fill="#58b6d0"
    d="M165.54,382.46l-1.17-1.46c.61-1.56,1.74-1.19,2.89-1.08l.7,1.08c-.33,1.36-.61,1.53-2.42,1.47Z"
  />
  <path fill="#58b6d0"
    d="M260.06,170.26c-.5,.2-1,.42-1.5,.61-1.43,.54-2.85,1.12-4.3,1.6-1.78,.6-3.45,1.52-5.37,1.74-1.45,.16-3.5-.36-4.68-1.42,6.7-.81,10.44-4.78,11.92-11.16,.25-.04,.44-.09,.63-.1,.15,0,.31,.04,.57,.09,.12,.49,.23,.99,.38,1.48,.14,.45,.34,.89,.49,1.28,2.03,.38,2.73,.25,4.1-.71,.23-1.73-.51-2.95-2.07-3.45-1.01-.32-2.02-.64-3.15-1,1.06-1.17,2.37-.74,3.48-.87,.8,.38,1.56,.76,2.32,1.11,1.27,.59,2.26,2.89,1.64,4.14-.93,1.87-1.97,3.69-3.02,5.49-.29,.51-.78,.9-1.18,1.35l-.26-.17Z"
  />
  <path fill="#58b6d0"
    d="M199.32,308.22c.57,.75,1.1,1.44,1.62,2.12l1.53-.13c.65,.71,.6,1.24-.23,1.52-.48,.16-1.03,.16-1.55,.15-1.25-.03-2.5-.04-3.74-.18-1.18-.13-2.36-.3-3.32-1.16-.6-.53-1.35-.9-1.91-1.46-.9-.89-1.55-1.96-1.65-3.39,.27-1.26,1.13-2.16,2.46-3.02,.49,2.12,1.7,2.92,3.73,2.42,1.51-.67,1.67-2.39-.55-3.78-.47-.3-1.02-.48-1.56-.72v-1.35c.54,.12,1.09,.12,1.52,.35,1.65,.87,3.21,1.85,4.04,3.66,.47,1.04,.67,2.03,.12,3.12-.28,.56-.35,1.22-.51,1.83Z"
  />
  <path fill="#58b6d0"
    d="M175.29,365.16l-1.25,.84-.67-.34-.78,.37-.98-.42-.13-1.35c1.09-.93,1.54-.85,2.4,.46l.07-.94,.22-.11,1.13,1.49Z"
  />
  <path fill="#58b6d0"
    d="M126.27,342.45c-.56,.09-1.02,.03-1.23-.72,.66-.06,.99,.25,1.21,.74l.02-.02Z"
  />
</svg>
