<?xml version="1.0" encoding="UTF-8"?>
<svg
  id="Layer_1"
  xmlns="http://www.w3.org/2000/svg"
  viewBox="0 0 419.53 595.28"
>
  <path fill="#58b6d0"
    d="M119.52,363.03l.6-.55c-.54-.66-1.09-1.27-1.56-1.94-.65-.94-1.22-1.93-1.85-2.88-1.55-2.33-2.87-4.78-4.15-7.27-.78-1.52-1.89-2.86-2.68-4.37-.96-1.84-1.81-3.74-2.59-5.67-.82-2.03-1.5-4.11-2.22-6.18-.24-.68-.43-1.39-.63-2.08-.56-1.91-1.26-3.8-1.63-5.76-.29-1.54-1.05-2.88-1.4-4.36-.18-.77-.2-1.57-.32-2.35-.19-1.16-.46-2.31-.6-3.47-.21-1.66-.32-3.34-.52-5.01-.14-1.23-.38-2.44-.51-3.67-.1-.95-.08-1.91-.13-2.86-.03-.67-.1-1.34-.12-2.01-.04-1.51-.04-3.02-.09-4.53-.01-.35-.13-.7-.21-1.12,.48-.5,.42-1.19,.34-1.9-.05-.46-.1-.92-.07-1.38,.06-1,.16-2,.24-3,0-.1,.01-.22-.03-.3-.55-1-.31-2.09-.36-3.05,.55-2.05,.97-4.01,.52-5.84,.34-.82,.68-1.46,.87-2.14,.25-.87,.36-1.78,.55-2.67,.31-1.44,.64-2.88,.97-4.32,.32-1.37,.64-2.75,.97-4.12,.09-.39,.22-.78,.35-1.16,.76-2.2,1.52-4.4,2.28-6.6,.64-1.84,1.22-3.7,1.96-5.5,.8-1.95,1.67-3.89,2.65-5.75,1.46-2.77,2.81-5.61,4.56-8.23,.79-1.19,1.61-2.38,2.34-3.59,1.21-2.01,2.49-3.97,3.87-5.86,.88-1.21,1.89-2.32,2.84-3.48,.47-.57,.9-1.17,1.39-1.73,1.97-2.24,3.86-4.56,5.97-6.65,1.17-1.15,2.31-2.36,3.58-3.42,.75-.63,1.37-1.42,1.87-1.95,1.17-.94,2.16-1.73,3.16-2.52,.94-.74,1.88-1.47,2.82-2.2,1.03-.8,2.05-1.61,3.08-2.41,.47-.36,.92-.76,1.42-1.06,2.36-1.41,4.75-2.79,7.12-4.19,1.3-.77,2.55-1.63,3.89-2.32,1.73-.89,3.53-1.65,5.31-2.45,1.29-.58,2.59-1.14,3.91-1.67,2.28-.91,4.58-1.79,6.87-2.69,.84-.33,1.65-.71,2.68-1.16,.87-.22,1.97-.52,3.08-.79,2.75-.69,5.48-1.46,8.25-2.03,2.6-.53,5.25-.85,7.88-1.25,.6-.09,1.21-.07,1.82-.11,1.27-.08,2.54-.18,3.82-.25,1.34-.07,2.68-.12,4.02-.17,1.84-.07,3.67-.17,5.51-.18,2.57-.01,5.16-.09,7.71,.12,2.5,.2,5.04,.17,7.49,.89,.74,.22,1.53,.22,2.29,.37,1.95,.38,3.9,.77,5.85,1.17,1.45,.3,2.92,.56,4.34,.96,2.07,.58,4.15,1.18,6.16,1.94,1.65,.62,3.26,1.36,4.97,1.83,.69,.19,1.3,.66,1.97,.95,1.11,.47,2.27,.85,3.37,1.33,1.27,.56,2.51,1.21,3.77,1.8,.66,.31,1.35,.57,1.99,.91,1.29,.68,2.58,1.39,3.84,2.12,.23,.14,.36,.47,.61,.82l1.33,.21c.96,1.12,2.26,1.65,3.46,2.34,1.44,.88,2.95,1.67,4.29,2.67,1.32,.99,2.48,2.21,3.78,3.39,.53-.06,1.03,.1,1.03,.92l.77,.12,1.51,1.79c1.18,.75,3.01,.88,2.99,2.84,.18,.12,.23,.18,.29,.18,.16,0,.32-.02,.55-.04l1.47,1.94,.62,.06,2.6,3.72c.66,.1,1.21,.33,1.3,1.02l.54,.09c.46,.74,.8,1.46,1.3,2.03,.42,.47,1,.81,1.44,1.28l.79,1.98,.84,.33c1.33,1.48,2.71,2.93,3.53,4.82l.72-.05,1.22,2.84h.71c.41,.95,.81,1.88,1.24,2.88,.02,.35,.06,.82,.09,1.3l.83,.16-.11,.72c1.21,.38,1.29,1.44,1.38,2.44,.82,.59,1.62,1.1,1.63,2.27,0,.37,.41,.75,.65,1.12,.47,.71,.95,1.41,1.36,2.14l.56,1.49-.19,1.06,.87,.14c.66,.54-.08,1.01,0,1.6l.53-.04,.45,2.03c.21,.47,.59,.76,.69,1.5,.11,.79,.14,1.69,.49,2.44,.21,.46,.66,.81,1.05,1.28l-.25,.68,.86,.27c.21,.84,.44,1.74,.66,2.64,.08,.32,.13,.64,.23,.95,.1,.3,.26,.59,.37,.89,.46,1.25,.9,2.51,1.39,3.75,.07,.19,.34,.3,.47,.41,0,2.03,1.36,3.77,.81,5.78,.15,.09,.29,.17,.43,.25,.02,0,0,.06,0,.17l-.7,.29c-.39-2.41-.66-4.8-1.87-6.92,.56,2.47,1.12,4.93,1.67,7.4l.95-.23-.19,2.23,.36,.68-.14,.02,.53,4.3h.22l-.25,.58c.26,1.66,.5,3.18,.75,4.77l-.39,.68c.67,.98,.45,2.1,.49,3.2,.03,1.07,.23,2.16-.16,3.11,.01,.79,.04,1.52,.04,2.26-.01,1.36,0,2.72-.07,4.07-.07,1.37-.24,2.73-.35,4.1-.04,.47-.03,.94-.08,1.41-.26,2.15-.55,4.3-.82,6.45-.14,1.08-.25,2.15-.83,3.11-.05,.08,.11,.27,.17,.41l-.39,.35c-.13,.93-.19,1.75-.37,2.55-.51,2.33-1.02,4.67-1.62,6.98-.34,1.3-.73,2.61-1.33,3.8-1.05,2.06-1.5,4.3-2.17,6.47-.16,.53-.58,.98-.8,1.5-.52,1.17-.98,2.36-1.49,3.53-.21,.49-.49,.94-.74,1.41-.53,1-1.06,2-1.6,3-.73,1.35-1.47,2.71-2.22,4.05-.88,1.57-1.74,3.16-2.67,4.7-.66,1.09-1.39,2.13-2.14,3.15-1.06,1.44-2.14,2.86-3.28,4.23-.77,.93-1.67,1.75-2.45,2.66-.41,.47-.68,1.05-1.05,1.56-.8,1.11-1.55,2.28-2.46,3.3-1.57,1.77-3.24,3.45-4.89,5.15-1.29,1.32-2.6,2.61-3.93,3.88-.74,.71-1.53,1.37-2.32,2.04-1.38,1.17-2.74,2.35-4.15,3.49-.82,.66-1.7,1.26-2.58,1.85-1.13,.75-2.28,1.49-3.45,2.18-1.58,.92-3.18,1.81-4.79,2.68-1,.54-2.03,1.01-3.49,1.72-.52,.53-5.59,2.96-6.69,3.24-.63,.41-1.23,.87-1.9,1.21-.72,.36-1.51,.58-2.24,.9-.55,.24-1.06,.54-1.64,.69-.73,.26-1.46,.54-2.19,.79-1.24,.41-2.48,.82-3.72,1.2-.14,.04-.32-.05-.49-.08-1.45,1.29-3.29,1.28-5.14,1.44l-.34,.54-.06-.18c-.77,.19-1.54,.37-2.31,.56l.03,.18-.54-.29-1.02,.61c-2.26,.44-4.43,.88-6.6,1.28-.42,.08-.86-.02-1.29,.03-1.68,.2-3.35,.47-5.03,.64-2.11,.21-4.24,.52-6.35,.45-1.52-.06-3.03,.33-4.55,.03-.32-.06-.7,.15-.89,.2-1.01-.05-1.86-.09-2.71-.14-.45-.03-.9-.07-1.36-.09-1.11-.05-2.22-.07-3.32-.13-.59-.03-1.18-.12-1.76-.19-2.39-.29-4.77-.59-7.15-.88-2.41-.3-4.77-.78-7.09-1.48-1.19-.36-2.43-.56-3.63-.89-1.46-.4-2.9-.86-4.34-1.31-.96-.3-1.92-.61-2.87-.95-.83-.3-1.64-.66-2.12-.85-1.67-.51-3.01-.85-4.3-1.34-2.3-.86-4.57-1.79-6.84-2.74-1.1-.46-2.18-.99-3.22-1.57-.5-.28-.88-.76-1.24-1.25-1.72-.9-3.43-1.8-5.24-2.75l.29,.84c-1.51-1.05-2.71-2.21-4.39-2.82-1.06-1.58-2.98-2.29-4.48-3.51-1.98-1.62-4.07-3.13-5.98-4.82-2.12-1.88-4.09-3.91-6.12-5.88-.24-.23-.43-.52-.67-.81l-.72-.02c-.52-.63-.93-1.2-1.41-1.71-1.61-1.73-3.25-3.43-4.84-5.18-.55-.61-.94-1.37-1.47-2.01-.81-.97-1.68-1.9-2.61-2.93Zm89.57-5.33c-2.02-1.28-4-2.64-6.09-3.79-.74-.41-1.75-.31-2.64-.45l-.22,.41c.21,.1,.43,.18,.62,.3,1.02,.66,2.03,1.33,3.05,2,.31,.2,.74,.32,.66,1.05-1.95-1.26-3.78-2.43-5.66-3.64l-2.52,.04c1.3,1.19,2.83,1.81,3.85,3.04l-.13,.18-5.13-3.23-1.21,.02-.09,.22c.5,.3,1.01,.58,1.5,.89,.49,.31,1.26,.41,1.08,1.28-.93-.47-1.79-.97-2.71-1.35-.89-.37-1.58-1.41-2.92-.93,1.28,1.62,2.59,3.03,4.41,3.97,4.69,.13,9.43,.25,14.21,.38l-.06-.44c1.36,.92,2.85,.61,4.35,.47-.98-.87-1.98-1.65-3.03-2.36-1.06-.72-2.16-1.37-3.25-2.06l-2.95-.08-.03,.23c1.03,.69,2.06,1.37,3.08,2.08,.71,.49,1.6,.79,1.86,1.76Zm6.56-47.76l.99,.4,.76-.32c-.18-1.25-.61-2.43,.23-3.55,.82-1.1,1.26-2.37,1.58-3.69,.15-.62,.32-1.24,.48-1.85l.2,.06c-.19,2.03-.56,4.01-1.62,5.83-.26,.44-.41,.97-.49,1.48-.08,.48,0,.99,.01,1.64l2.15,.06c.34-1.42,.65-2.72,.93-3.91,1.71-1.52,2.55-3.34,2.82-5.44,.08-.67,.11-1.34,.2-2.01,.04-.3,.18-.59,.28-.89l.29,.07c-.05,.97-.16,1.94-.15,2.9,.02,1.29-.23,2.48-.99,3.53-.45,.63-.98,1.21-1.44,1.83-.17,.23-.24,.52-.43,.94,1.14-.44,2.07-.72,2.92-1.16,.99-.51,1.85-1.18,2.19-2.37,.4-1.42,.87-2.83,1.41-4.2,.26-.66,.56-1.39,1.36-1.71-.88,1.26-1.18,2.7-1.44,4.15-.21,1.14-.52,2.26-.79,3.44,1.08,0,1.99-.38,2.93-.9,1.28-.7,1.88-1.64,1.73-3.1-.04-.42,0-.91,.19-1.28,.69-1.38,1.45-2.72,2.2-4.06,.1-.18,.27-.31,.41-.47l.17,.11c-.34,.68-.71,1.35-1.02,2.04-.74,1.63-1.4,3.27-.79,5.15,.14,.02,.31,.05,.47,.05,2.06-.03,3.51-1.13,4.79-2.61,.74-.86,.87-1.78,.54-2.81-.18-.58-.42-1.14-.59-1.72-.05-.18,.08-.4,.15-.73,.84,.71,.6,1.88,1.58,2.26,1.5-.92,2.23-2.35,2.53-3.62-.37-1.4-.64-2.45-.89-3.39-3.19-1.3-6.02,.35-8.96,.72-.04,.83,1.13,.89,.76,1.82-.64,.01-1.31,0-1.97,.04-.6,.04-1.23,.05-1.79,.24-1.49,.49-2.94,1.08-4.42,1.62-.22,.08-.47,.15-.69,.12-1.44-.15-2.87-.35-4.31-.47-.54-.04-1.25-.1-1.62,.18-1.05,.8-1.97,1.77-2.91,2.65-1.71,1.02-3.01-.29-4.42-.75-.18,.1-.33,.14-.41,.23-1.18,1.42-1.88,1.63-3.65,1.01-.77-.27-1.51-.61-2.29-.93-.9,1.08-1.9,1.2-3.21,.9-1.22-.29-2.16-.87-3.1-1.59-.38-.29-.83-.48-1.11-.64l-2.25,1.79c-1.95-.38-3.18-1.46-4.1-2.91l-2.7,.62c0,.43-.06,.79,.03,1.09,.36,1.12,.54,2.37,1.91,2.86,.39,.14,.66,.58,.82,.72l1.94,.78-.02,.06,1.49,.25-.03-1.68,.28-.03c.1,.4,.29,.81,.27,1.2-.04,1.02,.17,1.93,.65,2.86,.71,1.39,2.11,2.26,3.77,2.01-.47-1.52-.95-3.03-1.42-4.54l.14-.04c1.02,2.23,2.04,4.47,2.98,6.54,2.16,.53,4.26,.31,5.95,1.74l-.47,.38c.6,.88,1.41,1.37,2.33,1.74,.43,.17,.85,.38,1.24,.62,.77,.46,1.51,.95,2.27,1.42l.27-.12c0-.3,.04-.61-.03-.9-.31-1.28-1.19-2.26-2.06-3.14-.57-.58-1.05-1.16-1.25-1.88-.28-1.01-.84-2.01-.34-3.11h-.02c.35,1.04,.68,2.08,1.05,3.1,.14,.37,.29,.8,.57,1.05,.86,.75,1.57,1.6,2.09,2.62,.25,.5,.55,.97,.85,1.5l2.08-1.21v-.7h-.03Zm-64.24-9.03c-.18,.23-.52,.47-.52,.7,0,.83,.11,1.67,.18,2.53l-1.23,2.46-.2-.1c-.06,1.02-.8,1.51-1.61,2.01l.47,.85c.45-.22,.84-.41,1.23-.58,1.87-.81,3.78-.86,5.24,.64,1.56,1.59,2.83,3.46,4.22,5.21,.04,.05-.04,.18-.07,.32l-.8-.08-.32,.47-.8-.17c-1.58,1.3-3.12,2.57-4.66,3.83,1-2.16,3.03-3.22,4.96-4.43l.1-.9c-.49-.67-.93-1.35-1.45-1.97-.48-.56-1.02-1.07-1.57-1.57-1.02-.95-2.27-.86-3.52-.75-.84,.08-1.66,.17-2.25,.85,.74,2.76,.62,5.46-.2,8.12-.29,.93-.8,1.75-1.44,2.53-1.18,1.43-2.81,2.11-4.35,2.95-.1,.05-.24,.01-.37,.01l-.12-.2c.6-.49,1.16-1.07,1.82-1.46,1.25-.74,2.03-1.85,2.65-3.09,1.05-2.12,1.1-4.46,1.14-6.73,.04-2.03-.88-3.83-2.25-5.36-.6-.68-1.06-1.56-1.78-2.04-1.02-.67-2.19-1.19-3.36-1.5-1.2-.31-2.49-.28-3.57-.38-.86,1.12-1.53,2.1-2.31,2.97-.6,.67-1.42,1.16-1.99,1.85-.72,.87-1.6,1.14-2.68,1.14l-.19-.63,1.15-.21c.96-1.13,1.95-2.23,2.85-3.4,.9-1.17,1.58-2.45,1.39-4.03-.03-.21,.27-.46,.4-.66-.14-.32-.37-.62-.39-.93-.11-1.39-.77-2.56-1.42-3.74-1.42-2.56-3.44-4.28-6.44-4.67-.5-.06-.97-.3-1.62-.51,1.09-1,2.18,.06,3.02-.54,.22,.23,.33,.45,.5,.51,1.33,.43,2.34,1.31,3.38,2.22,1.3,1.13,2.03,2.58,2.67,4.06,.8,1.84,1.49,3.75,1.6,5.8,0,.05,.09,.1,.13,.14,4.43-.08,8.11,1.36,10.56,5.27,2.16-2.47,3.09-5.19,2.2-8.18l-.99-1.11c-.04-1.5-1.08-2.01-1.9-2.64l-1.91,2.85-1.24-.71c2.45-1.74,2.55-6.25-.07-7.55l-1.79,1.27-.06-.21-2.12,.32-.9-.49-.06-.23c1.47-.12,2.44-1.03,3.5-1.88,1.02-.83,1.74-1.75,2.01-3.02,.17-.81,.47-1.64,.43-2.45-.06-1.13-.31-2.26-.6-3.35-.5-1.9-1.5-3.44-3.46-4.3l-.38-1.1,.22-.18c1.02,.41,1.83,1.16,2.7,1.82,.88,.67,1.5,1.55,1.85,2.6,.34,1.04,.62,2.1,.98,3.33l3.02-1.38c.46-.57,.89-1.05,1.25-1.58,.35-.52,.67-1.07,.9-1.65,.65-1.67,.82-3.41,.38-5.15-.38-1.52-.41-3.16-1.36-4.51-.41-.58-.88-1.11-1.3-1.67-.65-.87-1.29-1.71-2.35-2.15-.42-.18-.77-.55-1.15-.83l.17-.24c1.02,.62,2.05,1.2,3.04,1.86,.53,.35,.95,.38,1.46-.02,1.16-.88,1.23-2.13,1.1-3.39-.11-1.02-.4-2.02-.61-3.03l.17-.18,.2,.76,.37-.31-1-1.63c1.16,.71,1.81,1.76,2.15,3.03,2.72-2.09,3.12-1.82,3.68-5.65,.06,.03,.15,.04,.17,.08,.51,1.55,.45,3.01-.86,4.15-.88,.77-1.85,1.43-3.02,2.32-.11,.51-.25,1.34-.49,2.15-.16,.53-.39,1.07-.71,1.51-.35,.47-.84,.82-1.38,1.32,1.61,1.29,2.07,3.15,2.53,4.99l.9-.23-.02,.19c1.67,.4,3.35,.8,5.02,1.2v-.31c.73-.32,1.46-.67,2.21-.95,.89-.34,1.5-.95,2.01-1.74,.79-1.23,.78-2.53,.42-3.87-.18-.68-.35-1.36-.51-2.05-.01-.06,.09-.14,.17-.24l.52,.65c3.14-.69,4.88-2.73,5.74-6.19,.26-1.84,.23-4.17-.88-6.73-2.12-2.94-5.28-4.86-9.4-5.4-.18,2.15-1.53,3.02-3.31,3.36l1.88-3c.5-1.54-.1-2.73-.51-3.93-.31-.91-.61-1.91-1.21-2.63-.94-1.11-2.06-2.09-3.22-2.98-1.83-1.41-3.83-1.95-5.98-.6-.03,.02-.11-.04-.22-.08-.16-.74,.5-1,.83-1.44,3.82-.35,6.92,1.1,9.61,3.71,1.57-1.78,1.29-3.82,1.12-5.68-.32-.7-.46-1.39-.88-1.82-.81-.83-1.33-1.88-2.32-2.61-.87-.64-1.68-1.31-2.68-1.74-.65-.28-1.24-.68-1.86-1.02,2.71,.37,5.02,1.53,6.94,3.58,.81-.48,1.51-.93,2.24-1.33,.82-.44,1.27-1.17,1.65-1.97,.51-1.09,.12-2.19,.05-3.29-.05-.7-.03-1.41-.04-2.11,1.15,2.99,1.18,5.87-.6,8.29l-2.25,1.79c.66,1.84,1.48,3.61,1.09,5.63,1.03,.38,1.82,.97,2.87,.85,.67-.07,1.36,.06,2.02-.06,1.41-.26,2.82-.47,4.1-1.28,1.48-.94,2.71-2.08,3.67-3.54,.25-.39,.68-.71,.81-1.13,.58-2.01,.76-4.03,.07-6.07-.15-.44-.2-.92-.29-1.38l.25-.05c.6,1.16,.84,2.45,1.18,3.71,.36,1.36-.25,2.65-.23,3.99,.58,.09,1.07,.19,1.57,.24,1.68,.15,2.81-.16,3.47-1.72,.38-.91,.8-1.78,.81-2.79,0-.18,.09-.35,.15-.53l.21,.02,.04,2.21,4.02-.07,3.71-2.77,.82,.25,.72-7.85c.25-.45,.48-.69,.52-.96,.39-2.37,1.56-4.34,3.15-6.07,1.33-1.44,2.84-2.71,4.11-4.19,1.74-2.02,3.82-3.5,6.33-4.24,2.07-.61,4.07-1.44,6.27-1.7,2.09-.25,4.17-.53,6.28-.46,.89,.03,1.79,.28,2.66,.51,.89,.24,1.75,.61,2.64,.85,1.46,.39,2.93,.71,4.39,1.07,.19,.05,.38,.13,.57,.22,1.65,.74,2.68,2.16,3.75,3.51,.87,1.1,1.67,2.25,2.5,3.38,1.68,2.7,2.22,5.75,2.47,8.84,.25,3.13-.28,6.2-1.25,8.92l.79,1.96-.11,.02,.02,1.35-.1,1.64,1.02,.19,.65,.69c.48,.12,.79,.18,1.11,.27,1.87,.51,3.74,.67,5.52-.29,.93-.5,1.82-1.11,2.67-1.74,.37-.27,.62-.71,.84-.98-.11-.31-.13-.42-.18-.5-.1-.17-.23-.33-.33-.51-1.04-1.81-1.79-3.71-1.6-5.86,.1-1.1,.48-2.06,1.41-2.93-.94,2.44-1.1,2.91-.7,4.73,.65,2.94,1.92,5.4,4.96,6.48,.74,.27,1.57,.45,2.35,.42,1.26-.05,2.09-.81,2.52-2.1-.87-1.32-1.54-2.76-1.81-4.41-.26-1.59-.47-3.14,.24-4.66,.16,.24,.28,.49,.24,.73-.22,1.36-.02,2.68,.21,4.02,.34,1.94,1.32,3.42,2.98,4.47,.7,.44,1.34,.99,2.07,1.38,1.46,.79,2.96,1.52,4.71,1.03,.83-.24,1.65-.52,2.42-.77l1.56-.03c-3.03,1.59-6.18,2.15-9.55,1.22-.69,.68-1.35,1.36-2.05,1.99-1.35,1.21-2.07,2.7-2.21,4.51-.15,2,.14,3.84,1.66,5.32,.45,.44,.86,.93,1.28,1.39l-.12,.24c1.3,.43,2.57,.99,3.9,1.27,1.37,.29,2.72-.18,3.99-.77-1.18,1.53-4.94,2.5-8.26-.36-1.75,1.9-2.21,4.13-1.73,6.6,.48,2.44,1.98,4.23,3.82,5.77,1.4,.5,2.82,1.01,4.12,1.48,1.73,.25,3.34,.49,4.79,.7l1.68-.73c.11-1.14,.13-2.32,.37-3.45,.23-1.1,.4-2.27,1.25-3.14-.06,.4-.21,.76-.34,1.13-.13,.37-.23,.76-.34,1.14l.18,.04c.4-.81,.81-1.61,1.21-2.42-.48,2.81-2.02,5.43-1.04,8.27,.57,.83,.97,1.69,1.61,2.3,.96,.92,2.11,1.62,3.13,2.48,1.1,.94,2.33,.68,3.56,.52,.13-.02,.25-.19,.21-.16-.2-1.45-.54-2.75-.52-4.04,.01-1.01,.42-2.03,.73-3.02,.2-.63,.58-1.2,.81-1.82,.23-.61,.37-1.26,.54-1.88,.23,1.86-.43,3.53-1.04,5.19-.25,.66-.39,1.27-.29,1.95,.07,.5,.1,1.01,.21,1.51,.43,1.92,.91,3.81,2.83,4.9,.83,.47,1.53,1.15,2.29,1.72,.04-.93,0-1.94,.15-2.92,.15-.98,.47-1.94,.78-2.89,.31-.94,.88-1.7,1.76-2.23-.66,1.24-1.28,2.42-1.9,3.59,.06,.59-.07,1.15-.07,1.7-.03,2.29,.24,4.55,1.25,6.63,.31,.64,.83,1.24,1.38,1.71,.81,.69,1.74,1.24,2.62,1.86,.11,.08,.16,.23,.23,.34l-.18,.14c-3.06-1.28-5.26-3.3-5.69-6.89-.88-.44-1.8-.77-2.57-1.32-.81-.58-1.47-1.37-2.23-2.11-.22,.07-.52,.19-.84,.26-.9,.2-1.82,.34-2.72,.56-1.12,.28-2.22,.7-3.35,.9-1.66,.29-3.35,.41-5.03,.63-.75,.1-1.5,.24-2.25,.37-.14,.43-.34,.69-.54,.95-.41,.54-.94,1.04-1.21,1.65-.35,.81-.88,1.4-1.63,1.78-.71,.37-1.47,.65-2.18,1.01-.19,.09-.29,.35-.45,.55,2.39,1.04,4.8,1.17,7.13,1.3,.5,1.78-1.39,1.79-1.76,2.83l-3.5,1.79c1.02,.58,1.89,1.08,2.65,1.51,1.25-.89,2.48-1.77,3.71-2.64,.36-.25,.75-.48,1.23,.07-1.29,1.47-3.15,2.17-4.7,3.51l.7,1.21c.72-.61,1.31-1.1,1.89-1.6,1.16-.98,2.31-1.97,3.47-2.96,.33-.28,.66-.47,1.12-.05-.79,1.18-1.94,1.96-2.99,2.81-1.09,.88-2.27,1.66-3.4,2.48l.19,.92-.77,.51-2.17-.53c-.68,.43-1.83-.08-2.48,.92l.87,1.27c.69,.12,1.24,.21,1.8,.3,1.55,.26,3.1,.51,4.65,.76,.73,.12,1.45,.29,2.19,.37,2.18,.23,4.36,.42,6.54,.65,2.84,.3,5.69,.59,8.55,.53,.17,0,.34-.08,.57-.13-.78-1.05-1.49-2-2.21-2.97-1.17,.68-2.22,1.29-3.27,1.9l-.21-.3,3.03-2.48-.87-1.53c-1.6,1.38-3.24,2.42-5.12,3.01l-.13-.2,4.94-3.67-.3-2.24c-2.72,2.02-5.32,3.96-7.93,5.9l-.19-.24c2.48-2.54,5.33-4.66,8.14-7.12-.03-1.83,.53-3.62,2.6-4.62-1.46,1.35-1.94,3.09-1.96,5.14,.41,.83-.41,2.24,.7,2.79,.2,.77,.29,1.32,.5,1.82,.25,.6,.61,1.15,.92,1.73l-.1,.05,2.56,3.12c.47,.26,1.25,.84,2.12,1.13,.88,.29,1.86,.29,2.93,.44-1.23,.68-2.35,.2-3.37,.12l-1.07-.72-.82,.47-.02-.13-6.34,.11c-.06-.26-.08-.38-.07-.32-1.32-.07-2.55-.11-3.77-.2-.75-.05-1.53-.35-2.24-.22-1.02,.19-1.83-.2-2.74-.49l-.83,.25c-2.72-.53-5.42-1.06-8.18-1.61-.22,1.25,.76,2.37-.03,3.49l-.7-.46-.93,.31c-1.94-.76-3.4-.99-4.64-.75l-.16,.7c-2.34-.06-4.06,1.09-5.26,2.78-1.07,1.5-2.1,3.16-2.02,5.17,.03,.76,0,1.55,.21,2.26,.56,1.97,1.48,3.67,3.61,4.41,.61,.21,1.12,.7,1.67,1.06l-.12,.23c-1.18-.4-2.36-.8-3.43-1.17-.58,.18-1.06,.25-1.47,.46-.62,.31-1.24,.66-1.76,1.11-.42,.36-.68,.9-1.03,1.34-.72,.89-.88,1.97-.9,3.04-.01,.45,.39,.98,.74,1.34,.39,.4,.98,.6,1.41,.97,.58,.49,1.1,1.06,1.64,1.6l-.19,.22c-1.57-1.53-3.55-2.25-5.58-2.82-2.63,.67-3.25,1.1-4.47,3.07-.16,1.23-.31,2.45-.48,3.76l-.71-.8c.04-.98,.08-1.88,.12-2.91-2.2-1.25-4.38-2.48-7.12-1.39-.18,1.3-.51,2.59-.51,3.89,0,1.54-.89,2.66-1.57,3.86-.54,.94-1.36,1.72-2.08,2.56-1.45,1.68-2.92,3.35-4.37,5.04-.16,.18-.25,.42-.39,.66,1.31,.26,9.98,.7,10.6,.34l-.46-1.27c.15-1.83,1.08-3.21,2.55-4.13,.91-.57,2.02-.83,3.07-1.15,.42-.13,.92,0,1.36-.1,1.54-.32,3.01-.19,4.42,.49,.44,.21,.9,.43,.92,1.27l-2.65-1.3c-1.73,.53-3.67,0-5.34,.97-.06,.03-.13,.03-.2,.05-2.04,.59-4.16,3.23-2.68,5.58,.62-.01,1.29,0,1.95-.04,1.47-.06,2.94,.35,4.41-.14,.29-.1,.84,.12,1.07,.37,1.38,1.56,2.7,3.18,4.04,4.78,1.8,2.14,3.61,4.28,5.45,6.47-.22,1.72,.71,3.43,.18,5.14-.67,.67-1.46,.76-2.29,.74-3.2-.08-6.4-.14-9.6-.21-.43,0-.86,.01-1.25,.02l-.35,1.43c-1.33,1.38-2.49,2.57-3.91,4.03-.13,5.7-.27,11.75-.41,17.81l-.37-.15q.09,1.05,2.34,3.09c1.86,.24,2.62,1.69,3.55,2.91l3.33,.09c.6,.37,1.02,.62,1.53,.94l.35,4.03c2.04,.03,3.94-.16,5.89,.64-.04,.71-.06,1.43-.14,2.15-.14,1.26,.2,1.65,1.46,1.66,.54,0,1.07,.07,1.57,.1,1.24,1.19,.08,2.8,.76,4.1,1.44,.05,2.85,.1,4.14,.15,.71-.37,1.32-.73,1.97-1.01,.48-.2,1.04-.22,1.5-.45,1.38-.7,2.71-1.5,4.09-2.21,1.61-.84,3.25-1.61,4.85-2.46,1.01-.54,1.97-1.16,2.95-1.76,.63-.39,1.29-.75,1.85-1.23,1.88-1.64,3.71-3.32,5.57-4.98,.3-.27,.6-.54,.92-.79,.97-.78,1.95-1.54,2.92-2.31,.32-.25,.59-.61,.95-.74,1.04-.37,1.59-1.3,2.31-2,1.75-1.72,3.39-3.55,5.03-5.37,.64-.71,1.18-1.52,1.76-2.29,.58-.77,1.12-1.57,1.72-2.32,1.09-1.37,2.18-2.73,3.31-4.06,1.94-2.26,3.37-4.86,5.01-7.32,.35-.53,.63-1.12,.9-1.69,.3-.64,.47-1.36,.86-1.93,1.45-2.09,2.66-4.29,3.55-6.68,.25-.66,.56-1.3,.87-1.94,.98-2.03,1.98-4.05,2.98-6.08,.16-.33,.37-.65,.48-1,1.12-3.5,2.25-7,3.34-10.51,.33-1.06,.56-2.15,.8-3.24,.46-2.04,.91-4.08,1.34-6.12,.26-1.25,.55-2.51,.67-3.78,.24-2.69,.39-5.38,.56-8.08,.16-2.52,.4-5.05,.41-7.58,0-2.6-.23-5.19-.38-7.79-.05-.91-.03-1.86-.27-2.72-.55-1.91-.41-3.87-.64-5.81-.26-2.24-.31-4.51-.99-6.69-.27-.87-.5-1.75-.73-2.62-.37-1.4-.63-2.83-1.1-4.19-.57-1.63-1-3.32-1.83-4.87-.46-.87-.6-1.9-.97-2.83-.95-2.41-1.51-4.96-2.8-7.24-.23-.41-.39-.88-.69-1.22-.53-.61-.94-1.24-1.29-2-1-2.17-2.16-4.27-3.3-6.37-.58-1.06-1.23-2.09-1.87-3.11-.33-.53-.76-1.01-1.07-1.56-.7-1.25-1.26-2.59-2.06-3.77-1.05-1.56-2.26-3.02-3.45-4.47-.79-.96-1.78-1.77-2.51-2.76-2.96-4.05-6.53-7.56-10.07-11.07-1.88-1.87-4.05-3.45-6.11-5.13-1.3-1.06-2.59-2.14-3.97-3.09-1.21-.83-2.52-1.52-3.82-2.23-2.24-1.22-4.24-2.83-6.54-3.99-2.2-1.11-4.36-2.31-6.6-3.35-1.06-.49-2.19-.83-3.54-1.34-.3-.16-.85-.47-1.42-.72-.89-.39-1.79-.74-2.69-1.1-1.11-.45-2.21-.9-3.32-1.34-1.97-.78-4.09-.99-6.09-1.75-2.07-.79-4.36-.97-6.55-1.44-.81-.17-1.59-.43-2.29-.62-.45-.02-.83,0-1.19-.05-2.26-.35-4.44-1.11-6.75-1.16-.93-.02-1.87-.05-2.8-.1-1.57-.1-3.15-.23-4.72-.33-.66-.04-1.33-.07-1.99-.06-1.46,.03-2.92,.1-4.38,.13-2.12,.05-4.24,.04-6.35,.12-.66,.02-1.32,.35-1.98,.35-1.05,0-2.09,.04-3.12,.23-.55,.11-1.12,.15-1.68,.18-.66,.04-1.35-.06-1.99,.05-3.48,.61-6.97,1.18-10.35,2.23-3.56,1.1-7.12,2.21-10.63,3.43-2.08,.72-4.08,1.67-6.12,2.5-.39,.16-.81,.22-1.22,.32-.48,.21-.98,.35-1.47,.54-.43,.17-.85,.39-1.26,.61-.51,.26-.97,.66-1.51,.8-1.24,.32-2.28,.95-3.26,1.74-.25,.21-.58,.33-.88,.48-.58,.29-1.18,.54-1.74,.86-.69,.4-1.35,.87-2.04,1.28-.49,.29-1.03,.48-1.49,.8-.93,.65-1.81,1.37-2.73,2.04-1.16,.85-2.41,1.58-3.48,2.52-2.82,2.46-6.02,4.44-8.63,7.15-1.8,1.87-3.73,3.61-5.52,5.49-1.25,1.31-2.37,2.76-3.52,4.16-1.35,1.64-2.69,3.28-3.99,4.96-1.18,1.51-2.37,3.03-3.45,4.62-1.95,2.86-3.94,5.69-5.68,8.67-1.4,2.41-2.44,5.03-3.63,7.57-.26,.55-.38,1.17-.69,1.68-2,3.33-2.99,7.07-4.14,10.71-1.09,3.43-1.89,6.96-2.66,10.48-.68,3.14-1.28,6.32-1.66,9.51-.38,3.1-.78,6.21-.75,9.35,0,1.18-.26,2.38-.14,3.59,.09,.93,.02,1.88,.02,2.83,0,.27-.04,.54,0,.81,.26,1.97,.48,3.94,.28,5.93-.07,.69,.03,1.4,.11,2.1,.18,1.67,.39,3.34,.57,5.01,.07,.6,.04,1.22,.17,1.81,.64,2.86,1.31,5.71,2,8.55,.25,1.01,.7,1.98,.89,2.99,.24,1.25,.51,2.46,.94,3.68,.79,2.21,1.5,4.46,2.16,6.7,.84,2.83,1.98,5.49,3.29,8.1,.39,.77,.76,1.63,1.37,2.19,1.12,1.02,1.59,2.37,2.24,3.64,.47,.93,.96,1.84,1.48,2.74,.76,1.3,1.54,2.58,2.34,3.86,.43,.69,.93,1.34,1.39,2.01l.19-.12,.24,.66c.46,.41,.87,.64,1.1,.99,.48,.72,.89,1.5,1.3,2.26,1.16,2.18,2.51,4.21,4.36,5.88,.59,.54,1.19,1.06,1.77,1.61,.93,.89,2.09,1.6,2.31,2.78,1.04,.95,2.16,1.63,2.76,2.62,.55,.91,1.3,1.5,2.02,2.18,.58,.55,1.19,1.08,1.8,1.6,.95,.82,1.87,1.67,2.87,2.43,1.37,1.04,2.79,2.02,4.2,2.99,1.03,.71,2.1,1.39,3.3,2.17,.08,.61,.68,.84,1.17,.87,2.15,1.67,4.48,2.61,6.64,3.83,2.19,1.24,4.43,2.39,6.35,3.42,1.24-.02,2.14-.06,3.04-.05,3.07,.05,6.14,.14,9.21,.18,.79,.01,1.57-.08,2.23-.11,.55-1.42,.08-2.84,.92-3.99l1.85-.38c.67-1.55,.2-3.17,.22-4.85,1.51-.08,2.93-.15,4.5-.23l-.08-4.32c1.18-.66,2.49-.07,3.82-.32,.72-.38,1.68-.65,1.76-1.35l2.22-2.59c.13-1.42,.27-2.48,.3-3.55,.04-1.08-.03-2.16-.04-3.11l-.76-.85-2.05-.69,.02,.02c.88-.42,1.76-.19,2.84,.14l-.16-9.06c-.22-.17-.46-.43-.75-.57-.87-.42-1.73-.95-2.65-1.14-1.1-.22-2.25-.04-3.38,.12-1.46,.21-2.49,1.2-3.69,1.87-.53,.3-1,.71-1.49,1.07l.02,.02c.55-1.66,2.14-2.24,3.36-3.18,.53-.41,1.28-.6,1.96-.74,.68-.14,1.4-.16,2.1-.12,.85,.05,1.72-.06,2.48,.58,.59,.5,1.33,.82,2.17,1.32l.18-2.25-3.34-3.41,.18-1.26c-1.18,.02-2.28,.05-3.39,.06-1.99,.02-3.99,.04-5.98,.05-.77,0-1.47-.2-1.99-1.01-.02-1.05-.08-2.2-.05-3.34,.03-1.23,.74-2.21,1.41-3.15,.5-.7,1.24-1.21,1.78-1.88,1.78-2.23,3.53-4.48,5.27-6.74,.51-.66,.95-1.37,1.54-2.21,5.68,.24,11.47,.47,17.43,.45-.21-.33-.28-.48-.39-.6-1.1-1.22-2.24-2.41-3.3-3.66-.65-.76-1.15-1.65-1.76-2.44-1.08-1.41-1.94-2.9-2.25-4.68-.15-.86-.47-1.68-.7-2.47-.56-.44-1.05-.86-1.57-1.23-1.3-.95-2.7-1.67-4.33-1.82-1.04-.1-2.09-.17-3.13-.16-1.31,.02-2.62,.12-3.66,1.07-.49,.45-.97,.92-1.48,1.35-.41,.35-.87,.65-1.31,.98-.22-.24-.34-.33-.4-.44-.08-.14-.11-.31-.16-.47,.11-.16,.2-.3,.28-.44,.75-1.26,1.04-3.13,.04-4.36-.58-.7-.98-1.54-1.52-2.27-1.26-1.71-3.06-2.34-5.09-2.26-1.43,.06-2.59,.88-3.68,1.75-.18,.15-.37,.28-.58,.43l-.68-.2c-.05,.08-.1,.16-.16,.24-.05,.07-.11,.14-.17,.21-.05-.04-.09-.06-.09-.08-.02-.13-.03-.27-.06-.4-.53-2.1-1.74-3.75-3.56-4.84-1.62-.97-3.53-.67-5.42-.9,.34-1.1,.69-2.22,1.02-3.34,.27-.92,.68-1.85,.37-2.84-.23-.73-.47-1.46-.8-2.15-.47-.98-2.3-1.93-3.36-1.81-1.62,.18-3.24,.39-4.86,.56-.55,.06-1.1,.03-1.76,.04l.73,2.49h.02Zm81.11-74.68l.23-.09c.03-.3,.04-.61,.11-.9,.47-2.13,.83-4.26,.67-6.48-.18-2.48-.51-4.89-1.66-7.14-1.06-2.08-2.56-3.85-3.94-5.7-1.17-1.58-2.77-2.44-4.68-2.89-1.83-.43-3.6-1.12-5.43-1.53-1.34-.3-2.73-.42-4.1-.46-1.2-.03-2.43-.05-3.56,.54-.27,.14-.67,.09-1,.05-1.14-.16-2.2,.11-3.24,.52-.34,.13-.69,.3-1.05,.33-2.5,.19-4.47,1.56-6.3,3.05-1.56,1.26-2.9,2.8-4.33,4.22-.33,.33-.59,.74-.93,1.06-1.39,1.29-2.39,2.79-2.8,4.67-.2,.9-.49,1.78-.69,2.68-.25,1.11-.59,2.21-.66,3.33-.13,2.34-.09,4.68,.37,7.02,.18,.89,.59,1.5,1.09,2.2,.74-1.9,1.45-3.74,2.16-5.58l.14,.07,1.01-.76c.04-1.43,.14-2.77,.09-4.12-.08-2.37,.45-4.55,1.78-6.52,.17-.25,.46-.41,.69-.61l.26,.12c-1.94,2.86-2.27,5.95-1.36,9.1-.21,.27-.44,.43-.44,.59-.02,1.48-1.07,2.38-1.81,3.48-1.13,1.69-1.67,3.59-1.48,5.65,.06,.62,.23,1.24,.3,1.86,.12,1.06,.19,2.12,.28,3.22,.17,.41,.38,.86,.54,1.33,.23,.69,.56,1.25,1.23,1.63,.6,.34,1.12,.82,1.69,1.24,.17-.05,.36-.13,.55-.15,1.21-.11,2.38-.35,3.53-.81,.9-.36,1.9-.49,2.78-.7,.83,1.15,2.36,1.68,1.96,3.4-.73-.83-1.22-1.81-2.34-2.25,.28,1.37,.16,2.81,.94,3.93-.11,1.02-.21,1.95-.3,2.83,.57,.5,.96,1.06,1.84,1.06l-1.18-3.85,.27-.12,.86,1.12,1.01-.95,.79,.89-.18,.11,.62,1.71c.74-.91,.39-2.15,1.37-2.66l1.5,1.28c.58-.47,.47-1.49,1.43-1.46,1.15,2.15,1.22,2.41,.99,3.35l-1.1-2.47-.54,1.19,.68,1.73,1,.49,.58-.9-.12-.03,.32-2.4c1.11-1.15,1.56-1.18,2.93-.2l.92-.5,1.44,.19,.29,.49,1.13-.89,1.14,.99,1.32-1.63c.63-1.56-.46-3.25,.66-4.84-.41,0-.68-.06-.9,.03-1.05,.41-1.84,1.14-2.41,2.37-.12-.38-.2-.51-.18-.62,.32-1.36,1.86-2.86,3.46-2.73,1.25,.1,2.36,.64,3.49,1.11,.55,.22,1.05,.24,1.53-.11,1.32-.97,2.63-1.96,3.77-2.82,.33-1,.61-1.78,.84-2.58,.2-.71,.26-1.46,.49-2.16,.58-1.73,.26-3.28-.74-4.75-1.14-1.69-2.16-3.4-2.32-5.52-.09-1.27-.4-2.52-.64-3.78-.14-.73-.41-1.43-.53-2.16-.23-1.45-.72-2.78-1.59-4l.45-.57c.95,1.51,2,2.86,2.33,4.53,.3,1.58,.31,3.22,.55,4.81,.18,1.15,.44,2.31,.83,3.41,.3,.85,.86,1.61,1.3,2.42Zm-6.2,27.21c.02-.2,0-.42,.08-.59,.8-1.87,.53-3.83,.54-5.78,0-1.61-.07-3.23,.66-4.76,.26-.54,.35-1.16,.48-1.62l-2.83-.4c-.04,.57-.06,1.2-.12,1.82-.05,.6-.14,1.2-.25,2.07,.66,1.68,.38,3.12-1.24,5.48l-.92-.19,.32,1-.41,2.46c-1.07,.04-2.13-.05-2.83,1l-1.79-.76-.42,.85-1.59-.67-.42-1.9h-.22c.49,1.25-.45,1.93-.95,2.77q-1.12-.25-2.01-1.47l.14-2.63-1.21-.39-1.21,.41c-.41,1.59-.25,2.46,.84,2.85l1.12-.13c0,1-.75,.8-1.3,.99l-.43-.58-1.95,.5-1.17-.98-1.91,.56c-.88-.54-.99-1.28-1.14-2.07-.15-.73-.53-1.41-.8-2.09l-1.66-.08c-.14-.13-.25-.21-.34-.31-.97-1-.94-2.31-1.08-3.55-.15-1.25-.25-2.5-.37-3.77-1.83,.53-3.5,.91-5.48,.21-.82-.33-1.03-2.12-2.68-1.74-.98,1.1-1.94,2.23-1.38,3.92,.04,.12,.03,.27,.03,.4,.03,1.07,.61,1.92,1.08,2.82l.94,.1c.54-.18,.46-1.12,1.43-1.05-1.76,2.21-1.22,4.67-1.33,7.04-.65-1.77-.44-3.6-.35-5.49l-2.8,.21-2.25,2.54c-.44,2.19-.46,3.6-.04,4.74h.81l-1.12,.69-.9,.02c-.83,.84-1.01,1.36-.78,2.39,.19,.86,.4,1.71,.61,2.56,.12,.5,.24,1,.36,1.5-.31-.11-.5-.28-.56-.48-.36-1.33-.68-2.68-1.03-4.01-.07-.28-.16-.61-.35-.81-.61-.63-2.42-.77-3.24-.36-1.31,.65-2.06,1.8-2.75,3.02,.15,.49,.3,.97,.45,1.45,.14,.44,.29,.87,.43,1.31l-.25,.09-.9-1.91-.67,.65c-.89-.14-1.47,.33-1.94,1.01-.27,.39-.59,.75-.8,1.17-.88,1.75-1.21,3.34,.23,5.39,1.51-.17,2.85,.98,4.55,.82l.11-3.04,1.06-.1,.42,.86c.8,.45,1.5,1,2.2,1.57,.23,.19,.5,.36,.66,.6,.88,1.26,1.75,2.53,2.59,3.81,.2,.3,.31,.67,.4,1.02,.17,.64,.29,1.3,.47,2.11,1.35-.4,2.71-.62,3.82-1.74-.14-.25-.28-.53-.44-.81-.25-.44-.6-.84-.75-1.31-.13-.42-.22-1.02-.02-1.34,.59-.93,1.35-1.76,2.04-2.63l.23,.13-1.41,2.82-.11-.05,.02,.97,.64,.7,.28,1.36c.54-.32,.96-.52,1.33-.8,.66-.51,1.26-1.11,1.94-1.6,.62-.44,1.36-.71,1.94-1.19,1.12-.92,2.49-1.12,3.79-1.54,1.33-.44,2.69-.82,3.97-1.38,.97-.43,1.84-1.09,2.74-1.68,2.09-1.36,4.4-2.2,6.83-2.58,1.96-.3,3.8-.94,5.64-1.6,1.35-.48,2.61-.51,3.86,0,.87,.97,.41,2.1,.52,3.04,.58-.01,1.11-.08,1.63-.02,1.72,.22,3.45,.44,5.16,.77,1.54,.3,2.86,1.06,3.87,2.35l.86,.35c.59,.96,1.41,1.63,2.61,1.66,.68-.68,.73-1.5,.59-2.3-.26-1.53-.98-2.76-2.57-3.33,1.17-.2,1.88,.46,2.52,1.18,1.47,1.65,1.34,3.43,.22,5.25l.73,.64,3.33,.19c1.41-2.41,3.61-3.1,6.2-3.1,.78,0,1.56-.29,2.32-.44-.07-1.88-.86-3.35-2.13-4.53-.49-.46-1.06-1.1-1.75-.76-.39,1.31-.72,2.45-1.05,3.57-.55,.23-.83,.85-1.72,.67l1.13-.63c.6-1.25,1.03-2.55,.8-3.96l.46-.64-.64-.14c-.31-1.02-.85-1.85-1.91-2.23l-.79,.7c.81-2.35,.21-4.54-.36-6.73-.29-1.12-1.06-1.77-1.99-2.28-.32-.18-.73-.18-1.25-.3-.11,1.75-1.27,3.14-.71,4.84,.06,.18,.02,.4,0,.6-.14,1.21-.24,1.47-.91,2.02,.78-2.4,.37-4.41-1.53-6.19,1.03,.22,1.42,.96,1.94,1.55,.65-.76,.56-1.6,.52-2.47l-.71-.36c-.34-.53-.6-1.01-.92-1.44-.85-1.18-1.72-2.37-3.13-2.93-.8-.32-1.63-.54-2.62-.86l-.73,.2c0-.25-.06-.51,0-.54,.56-.27,1.14-.5,1.71-.74,.31-1.73-1.24-4.6-2.49-4.59l-.34,.3-.58-.38-.63,.35c-.39,1.37-.89,2.58-1.05,3.82-.16,1.26,0,2.57,.03,3.86,.06,1.98-.53,3.82-1.27,5.67,2.06,.89,2.77,2.56,2.76,4.57,0,.56-.06,1.38-.91,1.57,.03-1.08,.16-2.13,.07-3.15-.11-1.25-1.17-1.81-2.18-2.48-.25,.28-.5,.58-.78,.86-.41,.42-.84,.81-1.24,1.24-.72,.79-1.42,1.6-2.13,2.41-.15,.18-.29,.37-.43,.56l-.79-.08,.07,.17-3.62,2.25-.1-.14-1.08-.23-1.25-1.08c-.49,.07-1.02,.07-1.48,.23-1.33,.46-2.63,.99-3.94,1.49v-.28c-.67-.27-1.33-.6-2.02-.8-1.1-.32-2.04-.78-2.7-1.8-.52-.8-1.24-1.48-1.86-2.2-2.5,.8-2.46,1.47-2.33,3.77-.37,.13-.76,.32-1.17,.4-1.63,.33-2.35,1.29-2.17,2.93,.03,.29,.01,.59,.02,.88-.89-1.66-.6-2.86,.94-4.33l1.62-.31c.13-1.04,.17-1.91,.36-2.74,.22-1.02,1.48-.75,2.12-1.52l-4.22-3.59c-.59-3.38-1.17-6.72-1.74-10.07l.25-.14c.17,.15,.41,.27,.5,.46,.18,.36,.32,.75,.39,1.14,.49,2.68,.96,5.37,1.43,8.05l.49,.66c.84,.62,1.6,1.07,2.23,1.65,.78,.72,1.49,1.52,2.17,2.34,.74,.89,1.37,1.86,2.12,2.74,.94,1.12,2.41,1.04,3.65,1.48,.09,.03,.21,0,.3-.03,1.11-.39,2.25-.72,3.32-1.2,1.24-.56,1.47-.58,2.49,.31,.69,.6,1.43,.9,2.28,.31,1.04-.73,2.08-1.46,3.17-2.23l.46,.13c1.48-1.57,2.93-3.1,4.46-4.72Zm-7.28,39.87l1.09-.6v.81c.75,.05,1.44,.13,2.14,.15,.8,.03,1.65,.2,2.39-.01,.86-.24,2.03-.29,2.08-1.7,.59-.07,.96-.71,1.79-.46l-1.17,.93,.12,.23,3.84-1.1c-.18-.13-.28-.22-.39-.27-1.7-.69-3.45-.89-5.25-.54-1.12,.22-2.17,.28-3.1-.63-.67-.65-1.48-1.16-2.25-1.7-.59-.41-1.22-.75-1.84-1.12l.08-.27-4.72,.08v-.26c2.79-.26,5.58-.53,8.38-.79,1.34-.12,2.69-.19,4.03-.3,.76-.06,1.54-.09,2.29-.26,.55-.12,1.05-.45,1.27-1.14-2.27-.59-4.49-1.27-6.75-1.73-2.38-.48-4.8-.72-7.2-1.09-.44-.07-.88-.21-1.32-.32l.06-.35c.64,.06,1.29,.09,1.93,.17,1.2,.15,2.4,.4,3.6,.48,1.99,.15,3.95,.39,5.87,.96,2.15,.64,4.32,1.15,6.54,.31,.09-.03,.17-.1,.29-.17v-.78c.71-.47,1.41-.77,2.24-.3-.28,.16-.6,.19-.89,.31-.26,.1-.49,.29-.73,.44l.07,.34c1.91,.18,3.82,.35,5.93,.55-.18-.47-.2-.86-.41-1.04-.56-.46-1.18-.85-1.82-1.21-.69-.38-1.43-.67-2.14-1.02-1.28-.63-2.64-.97-4.05-.9-1.18,.06-2.38,.27-3.53,.56-1.62,.41-3.15-.07-4.63-.47-1.4-.38-2.79-.71-4.23-.85-.6-.06-1.19-.23-1.78-.35v-.21c.15-.04,.3-.12,.43-.11,.5,.04,1,.13,1.5,.18,1.36,.13,2.76,.11,4.08,.43,1.11,.28,2.2,.57,3.35,.62,1.51,.06,3.02,.03,4.42-.58l-.02-.99c2.13-.91,2.65-.98,3.4-.51-.6,.7-1.74,.11-2.44,1.12,2.03-.01,3.87,.51,5.85,.11-.13-.26-.17-.39-.25-.48-1.78-1.83-3.91-2.78-6.49-2.58-.77,.06-1.53,.21-2.29,.26-.7,.05-1.41,.03-2.21,.05-1.72-.99-3.68-1.5-5.9-1.53-.2,.1-.56,.29-.94,.44-1.46,.58-2.92,1.22-4.54,1.12-.58-.04-1.05,.12-1.46,.53-.38,.38-.81,.71-1.22,1.06-4.07,1.85-6.92,.9-8.61-1.28,.29-1.54,1.74-1.87,2.84-2.56,.34-.21,.76-.29,1.15-.43,.48-.24,.97-.43,1.44-.66,.54-.27,1.03-.69,1.59-.83,1-.25,1.61-.91,2.21-1.66,.5-.62,1.08-1.11,1.94-1.35,1.58-.44,3.2-.82,4.64-1.69,.34-.2,.76-.28,1.14-.39,.86-.25,1.72-.49,2.73-.78l-.38-2.02c-1.69-.93-4.92-.28-6.03,1.09-.26-.05-.55-.21-.77-.14-1.76,.53-3.7,.33-5.37,1.25-1.44,.79-2.88,1.56-4.32,2.36-.88,.49-1.69,1.12-2.62,1.47-1.41,.53-2.88,.95-4.35,1.29-2.29,.52-3.99,1.98-5.74,3.4-1.11,.9-2.26,1.84-3.54,2.44-1.05,.5-2.33,.51-3.5,.78-.44,.1-.93,.24-1.25,.52-1.01,.88-1.95,1.84-2.92,2.78-.12,.12-.27,.24-.31,.39-.39,1.34-1.17,2.62-.59,4.12h-.24l.06,3.28c.28,.64,.51,1.15,.73,1.68,.36,.86,.6,1.8,1.1,2.58,.41,.65,.78,1.46,1.79,1.65,.68-.01,1.47,.05,2.23-.06,1.19-.16,2.4-.33,3.54-.69,.98-.31,1.88-.85,2.97-.84,.49,0,1.07-.05,1.46-.31,.92-.6,1.95-.69,2.97-.88,.95-.18,1.8-.09,2.52,.55l1.1,1.17c.32-.26,.55-.4,.73-.59,.85-.89,1.8-1.66,2.97-2.03,1.48-.46,2.99-1.18,4.55-.21,.31,.19,.65,.35,1,.53l.05,.76c2.01-1.34,3.95-1.17,5.98-.08l-1.33,1.69c-1.4,.38-2.49,1.4-3.72,2.65l2.69,.83,1.15-.99-.32-1.06,.61-.37,.71,.59,1.4-1.12-1.95-.85c1.02-.31,1.95-.35,2.76,.48Zm-4.15,75.62l1.89-.14c.18-1.64-.62-2.8-1.94-3.24-1.04-.35-2.03-.85-3.03-1.33-.24-.11-.38-.42-.59-.68l4.09,1.37,1.74,1.73,.05-.11,.61,1.39c1.98-.53,2.62-.3,3.79,1.29,.87-.04,1.66-1.11,1.9-2.67l-1.35-1.72,2.74-4.9c-.37-.15-.68-.35-1.01-.39-.57-.06-1.15-.03-1.72-.02-2.5,.05-5,.18-7.49,.14-4.24-.06-8.49-.22-12.73-.32-2.64-.06-5.29-.07-8.09-.11l.31,17.28c.17,.03,.4,.11,.63,.11,2.79,.04,5.58,.06,8.37,.11,3.59,.06,7.18,.17,10.78,.22,2.86,.04,5.72,.03,8.58,.03,.78,0,1.57-.03,2.51-.04-.77-1.5-1.45-2.83-2.12-4.13l-.49-.05c-.73-1.07-1.35-2.07-2.05-3-.53-.7-1.3-.96-2.16-.74-.55,.14-1.08,.37-1.64,.5-.6,.14-1.21,.17-1.56-.57Zm-1.43-27.35c.21-.27,.34-.38,.41-.53,.98-2.17,2.73-3.76,4.32-5.41,1.54-1.59,3.13-3.13,4.52-4.87,1.49-1.87,3.12-3.63,4.06-5.68,.16-.78,.35-1.4,.4-2.02,.21-2.56,.2-5.07-1.28-7.38-.71-1.11-1.49-2.04-2.61-2.74l-.9,.11c-.15-.11-.29-.2-.41-.31-1.33-1.15-2.83-1.72-4.59-1.26-.65,.17-1.26,.49-1.89,.71-1.17,.41-1.86,1.26-2.24,2.4-.08,.22-.15,.46-.29,.64-.79,1.02-1.03,2.17-.93,3.43,.02,.28-.05,.56-.08,.84l-.25,.11c-.19-.21-.46-.4-.54-.64-.39-1.23-.31-2.43,.32-3.59,.24-.43,.4-.91,.59-1.35l-3.58-2.26c-.62-.11-1.31-.36-1.98-.32-1.64,.09-3.04,.95-4.48,1.66-.16,.08-.28,.29-.37,.47-.64,1.24-1.29,2.49-1.9,3.75-.52,1.06-.93,2.17-.92,3.36,0,.9,.11,1.82,.26,2.71,.2,1.15,.34,2.33,1.12,3.29,.4,.49,.86,.98,1.12,1.55,.64,1.38,1.57,2.53,2.63,3.61,.72,.74,1.53,1.43,2.11,2.27,.86,1.23,2.17,1.98,3.09,3.12,.36,.44,.79,.82,1.12,1.28,.84,1.19,2.01,2.02,3.15,3.03Zm-43.5-54.17c-1.12,1.69-2.6,2.98-4.37,4,.6,.84,1.35,.91,2.14,.9,.53,0,1.06,.01,1.59,0,.45,0,.91,0,1.35-.08,.45-.08,.89-.38,1.43,.22-.35,.27-.65,.56-1,.74-.93,.47-1.9,.86-2.5,1.79-.42,.65-.85,1.29-1.32,1.9-.35,.45-.41,.88-.21,1.37,1.39,.31,4.01-.36,5.1-1.19,.52-.39,1.08-.85,1.89-.55-.39,.47-.79,.92-1.29,1.21-.64,.37-1.06,.87-1.35,1.54-.51,1.2-1.08,2.37-1.68,3.68l.24,.45c.86-.08,1.64-.08,2.45-.37,2.12-.74,3.93-1.9,5.56-3.43,.49-.46,.84-1.24,1.95-1.27-.28,.43-.41,.77-.65,.97-1.2,1.04-1.71,2.48-2.26,3.89-.11,.29-.07,.64-.09,.94,1.56,.12,2.66-.58,3.66-1.35,1.5-1.15,2.94-2.37,4.21-3.8,.56-.63,1.06-1.2,1.09-1.93,.44-.72,1.15-1.15,1.09-2.03l-1.17-.34-.48,.97c-.16,0-.23,.02-.29,0-.36-.08-.72-.17-1.04-.25-2.95-2.27-3.57-5.66-4.46-8.89,.1-.44,.18-.87,.16-1.29-.06-1.61,.09-3.18,.85-4.61,.33-.62,.84-1.21,1.39-1.64,1.16-.9,2.4-1.69,3.71-2.6-.11-.39-.2-.89-.37-1.35-.52-1.39-1.49-2.52-2.26-3.77-.51-.83-1.16-1.54-2.23-2.02l-.49,2.41-.77,.42c-2.11-.8-4.01-1.83-6.29-1.81l.05,2.71,2.02,1.16-.05,.26c-1.19,.21-2.5,.19-3.55,.7-1.08,.52-2.52,.71-3.06,2.05l1.67,2.59c.72,.43,2.05-.31,2.46,1.18l-1.61,.2c-.58,.32-.97,.7-1.4,.74-1.74,.18-2.92,1.18-4.29,2.67,.34,.17,.61,.3,.88,.44,.6,.3,1.17,.68,1.8,.89,.58,.2,1.22,.24,1.84,.32,.53,.07,1.07,.07,1.59,.17,.15,.03,.24,.33,.41,.58l-2.05,.51Zm36.74,49.68c-.58-.05-1.11-.14-1.65-.14-2.56-.01-5.11,.02-7.67,0-2.63-.02-5.26-.09-7.89-.12-.8,0-1.44,.3-1.78,1.08-.08,.18-.23,.33-.36,.49-1.51,1.91-3.02,3.81-4.52,5.72-.42,.54-.81,1.11-1.35,1.86,8.35,.44,16.48,.44,24.61,.62,8.18,.19,16.37,.28,24.64,.42l-.39-3.36c-.2-.04-.32-.08-.45-.1-.2-.02-.41-.07-.61-.04-2.4,.32-4.28-.79-6.06-2.2-.37-.29-.8-.49-1.19-.71-1.3,1.37-2.9,1.65-4.43,2.08l-.74,.63-.22-.32c1.38-1.43,3.44-1.79,4.91-3.03,1.71,.81,3.31,1.6,4.93,2.32,.44,.2,.96,.24,1.46,.29,1.25,.13,2.51,.23,3.93,.36l.61-.39,1.26,.06c.4-1.29,1.06-2.22,2.25-2.81,.58-.29,1.05-.91,.96-1.86-.54,0-1.04,.04-1.54,.02-2.38-.06-4.77-.14-7.15-.21-2.56-.08-5.11-.14-7.67-.25-.52-.02-1.04-.22-1.68-.36-.61,.72-1.26,1.69-2.12,2.41-.79,.67-1.14,1.54-1.64,2.36-.19,.33-.49,.65-.83,.82-.5,.26-1.07,.43-1.62,.55-2.8,.59-5.63,.7-8.47,.5-.09,0-.18-.1-.27-.15,2.68-.36,5.36-.35,8.03-1.01-.38-.66-.92-.57-1.41-.59-1.28-.05-2.57-.05-3.85-.14-.92-.06-1.83-.24-2.74-.36l.02-.23c2.13-.22,4.28,.31,6.59-.09l-1.03-1.05c-2.71-.1-5.42,.02-8.05-.67,2.26-.14,4.52,.16,6.79-.22-.4-.27-.82-.43-1.25-.47-1.21-.11-2.43-.15-3.64-.26-1.02-.1-2.03-.26-3.04-.39l.02-.21c2.39,.08,4.77,.15,7.16,.23l.03-.21-.89-.87Zm40.72-53.68c1.14-2.14-.56-8.85-2.62-10.46l-4.87-.56-.07,.22,1.13,1.16c-.85,.07-1.64-.17-2.01-.66-.81-1.06-1.76-1.9-3.02-2.41-.45-.18-.85-.55-1.2-.9-1.14-1.15-2.39-2.22-3.95-2.69-2.89-.87-5.85-1.34-8.87-.8-.51,.09-1,.33-1.5,.51-1.48,.54-2.95,1.11-4.44,1.6-1,.33-1.94,.65-2.64,1.53-.47,.58-1.12,1.03-1.75,1.46-.71,.49-1.49,.9-2.23,1.34l-.03-.08c-1.37,.62-2.74,1.23-4.19,1.89-.26,.31-.64,.68-.24,1.28,.24,.12,.52,.24,.78,.4,2.02,1.19,4.56,.97,6.39-.43,.73-.56,1.63-1.29,2.44-1.27,1.35,.03,2.53-.31,3.72-.76,.56-.21,1.06-.6,1.59-.9l-.1-.2c1.92-.45,3.31-2.09,5.26-2.47l.16,.22-1.92,1.74c.72,.21,1.28,.39,1.85,.55,.77,.22,1.54,.47,2.32,.62,1.06,.2,2.13,.31,3.19,.48,.83,.13,1.7,.16,2.46,.46,1.61,.63,3.17,1.4,4.75,2.11l-.12,.21,1.23,1.69-2.1,.74c.35,.31,.62,.54,.88,.78,.3,.28,.55,.67,.91,.83,1.38,.66,1.99,1.8,2.22,3.42-2.05,.18-3.98-.42-5.78-.45-.6,.21-1.06,.4-1.54,.54-.45,.13-.91,.19-1.37,.28l.02,.24,.9,.37c-1.33,.07-2.59,.16-3.65,1.03-.05,.04-.14,.02-.2,.05-1.32,.67-2.74,.55-4.12,.71l-2.85,.76-.31,.78c.96,.94,1.82,1.91,3.37,1.48,.48-.13,1-.12,1.51-.13,1.28-.03,2.55-.01,3.8,.4,1.38,.45,2.63-.32,3.9-.64,1.89-.46,3.71-1.06,5.74-.76,1.88,.27,3.8,.19,5.7,.26,.49-1.43,.94-2.73,1.41-4.1l-.24-.79c-.76,.16-1.47,.35-2.19,.43-.68,.08-1.37,.04-2.06,.05v-.17c1.44-.32,2.89-.64,4.57-1.01Zm-94.79-11.03c-.08,1.37-.26,2.51-.18,3.64,.12,1.83-.9,3.21-1.66,4.7-.19,.37-.68,.63-1.08,.86-1.2,.69-2.41,1.33-3.73,2.06,.43,2.17-1.05,3.94-1.54,5.88l2.07,2.8c1.64-1.6,3.23-3.16,4.87-4.77,.29,1.18-.56,2.19-4.55,5.61l.02,1.33,2.84,2.64c.54-.06,1.27-.15,2-.24,.13-.02,.27-.02,.4-.03,1-.05,1.99-.06,2.99-.15,.49-.04,.97-.26,1.47-.32,1.23-.14,2.47-.19,3.69-.35,2.12-.27,4.24-.6,6.48-.92l.65-1.32c-1.6,0-2.71-.71-3.62-1.68-1.01,.57-1.51,1.79-2.95,1.67,.17-.28,.22-.44,.33-.54,.85-.69,1.86-1.21,2.26-2.36,.07-.2,.4-.34,.64-.43,1.14-.43,2.23-.93,3.04-1.88,.29-.34,.53-.73,.85-1.19-1.47-.59-2.49-1.88-4.17-1.31l-.76-.88c1.61-2.15,3.49-3.78,5.92-4.94l-1.15-2.22c-5.01-1.78-9.73-4.46-15.12-5.69Zm52.46,130.75c1.29-.53,2.64-1.08,4.18-1.71,1.13,.69,2.38,1.46,3.71,2.27,1.75-.96,3.45-1.89,5.15-2.82l-.06-.12c.45-.04,.91-.08,1.36-.12l2.29,1.45c.14-.08,.27-.14,.37-.22,1.43-1.06,2.87-2.12,4.29-3.2,.2-.15,.31-.43,.53-.75-.4-.04-.6-.07-.8-.07-2.73,0-5.46-.02-8.19,0-3.03,.02-6.05,.1-9.08,.1-1.48,0-2.95-.11-4.43-.18-.2,0-.4-.04-.6-.03-1.7,.06-3.4,.16-5.1,.19-1.65,.02-3.29-.06-4.94-.05-2.74,.02-5.47,.06-8.21,.11-1.27,.02-2.53,.08-3.8,.12-.73,.02-1.46,.08-2.19,.04-.51-.03-1.02-.18-1.52-.28l-.05,.13-1.26-.92-12.12,.22-.06,.3c5.2,2.3,10.61,4.06,16.03,5.7,5.47,1.66,11.05,3.04,16.62,3.24,1.17-.6,2.17-1.19,3.24-1.64,1.08-.46,2.23-.77,3.39-1.17-.8-.75-1.46-1.38-2.15-2.02-1.44,.52-2.82,1.24-4.38,1.53l-.02-.94-1.48-1.02-1.05-.16c-1.07,.7-1.86,1.93-3.38,1.73-.11,.15-.22,.3-.2,.28-1.21-.35-2.29-.65-3.49-.99-.88-1.27-2.7-.64-3.84-1.67,1.15,.13,2.28,.34,3.39,.63,.7,.19,1.36,.56,2.06,.76,.73,.21,1.49,.31,2.23,.46l-.03,.14,1.12-.28c.83-1.15,1.98-1.74,3.62-1.64,.57,.44,1.28,.99,2.1,1.62l3.8-1.53c.53,.59,1.03,1.13,1.46,1.61l1.48,.94Zm52.53-131.33c.7-1.61,2.7-2.21,3.07-4.11-1.68,.1-2.99,1.62-4.56,1.13l-4.61,1.39c-1.38,.11-2.76,.11-4.09,.36-.83,.16-1.59,.68-2.36,1.07-.15,.08-.25,.3-.33,.48-.03,.06,.05,.17,.09,.29l.86-.19c.59,.51,1.23,.92,1.71,1.48,1.39,1.61,1.49,3.72,1.8,5.66,.29,1.76,.07,3.57-.21,5.39-.33,2.16-1.26,4.03-2.15,5.94-.13,.29-.49,.47-.69,.65-1.18-.39-.35-1.24-.7-1.93l-2.32,.31c-.18,1.81,.28,2.43,1.83,2.64,.2,.03,.39,.1,.59,.12,1.1,.1,2.19,.27,3.29,.27,1.92,0,3.83-.09,5.67,.61,.34,.13,.72,.15,1.08,.24,.65,.15,1.3,.29,1.93,.48,.65,.19,1.29,.43,2.19,.74-.18-.67-.19-1.13-.41-1.46-.64-.97-1.28-1.96-2.39-2.5-.66-.32-.92-.95-.66-1.55l.67-.51c1.76-.35,3.49-.7,5.21-1.04,.05-.88-.36-1.51-1.3-1.76-1.63-.42-2.75-1.53-4.06-2.74,.36-.16,.6-.32,.86-.36,.99-.16,2-.22,2.98-.42,.98-.2,1.9-.6,2.88-1.38-2.58-.6-4.97-1.23-6.75-3.37,1.08-.62,2.08-1.22,3.1-1.77,1.1-.6,2.1-1.27,2.67-2.61l-4.83-.16-.05,.21-1.28-1.17,1.26-.44Zm-78.21,80.16c15.67,.23,31.28,.45,47.01,.68,.2-.88,.41-1.82,.63-2.78l1.83-1.35c-1.13-.15-2.12-.37-3.11-.4-3.44-.09-6.89-.11-10.33-.16-5.12-.08-10.25-.17-15.37-.25-3.67-.05-7.33-.1-11-.13-2.03-.02-4.05,0-6.08,.03-1.11,0-2.21,.04-3.37,.06-.7,1.31-.57,2.7-.22,4.3Zm1.83,40.14c15.79,.06,31.52,.11,47.25,.16,.18,0,.35-.15,.68-.3-.2-.29-.32-.54-.52-.72-.37-.33-.77-.65-1.19-.93-1.09-.72-2.13-1.45-3.58-1.38-2.19,.11-4.39,.09-6.58,.07-3.5-.03-7-.1-10.5-.14-5.12-.07-10.25-.12-15.37-.19-2.69-.04-5.39-.09-8.08-.13-.69,0-1.38,.02-2.17,.04l.06,3.51Zm12-9.73c9.95,.25,19.89,.48,29.86,.47l.83-1.96,1.57-1.56c-.33-.08-.45-.13-.57-.13-2.35-.15-4.7-.32-7.06-.43-2.9-.13-5.8-.23-8.7-.31-3.3-.1-6.61-.17-9.91-.26-1.38-.03-2.77-.05-4.15-.1-1-.04-1.73,.26-1.9,1.07-.89,1.18-2.08,1.84-2.43,3.25l2.46-.04Zm2.74,13.21l-.2-.19c.07-.62,1-.99,.56-1.83-.35-.02-.71-.05-1.08-.06-.37,0-.73,.01-.9,.01l-2.9,2.66-.18-.16c.31-.92,1.48-1.33,1.55-2.49l-3.53,.06c-.61,.96-1.48,1.49-2.33,2.04l-.2-.22,1.44-1.75c-.96-.32-1.79-.16-2.56-.16-.89,.72-1.42,1.81-2.74,2.23l1.26-2.17-1.64,.03c-.95,.87-1.89,1.74-3.16,2.49,.08-1.15,1.39-1.34,1.28-2.43l-1.83-.06-.21,2.84c2.79,.04,5.38,.08,7.98,.1,2.39,.02,4.78,.04,7.17,.04,2.32,0,4.63-.07,6.95-.04,2.39,.02,4.78,.17,7.17,.18,2.28,0,4.56-.1,6.84-.13,2.73-.04,5.46-.06,8.19-.07,1.38,0,2.76-.04,4.13,.04,.7,.04,1.39,.23,2.06-.21,.07-.73,.44-1.5-.32-2.16l-.67,.06,.07-.16-1.14-.57c-.95,.96-1.78,1.76-2.92,2.16,.22-.85,1.31-1.05,1.49-2.04l-1.97,.04c-.67,.51-1.03,1.43-2.15,1.53l.51-1.64-1.82,.03c-.69,.7-1.49,1.31-2.32,1.87l-.22-.19c.3-.53,.59-1.06,.94-1.68l-1.65,.03c-.92,.49-1.38,1.65-2.51,1.8l-.2-.23,1.57-1.55-2.95,.05c-.86,.76-1.72,1.66-2.95,1.96l-.14-.17c.66-.55,1.32-1.1,2.11-1.76-1.08-.25-1.81-.2-2.48,.53-.44,.48-.93,1.03-1.82,.93l1.26-1.3-.11-.22-2.65,.05c-1.13,1.44-1.44,1.68-2.26,1.7,.28-.55,.55-1.07,.89-1.74-.81-.07-1.49-.12-2.14-.18-.79,1.09-1.74,1.84-2.72,2.55l-.22-.24c.64-.68,1.28-1.35,2.07-2.18-1.31-.04-2.37-.08-3.46-.12l-2.22,2.14Zm56.35,2.56s-.09-.13-.13-.13c-2.09-.08-4.19-.32-6.27-.18-5.03,.34-10.05,0-15.07-.04-.96,0-1.95-.04-2.74,.5-1.13,.77-2.17,1.69-3.33,2.61l.39,.77c.84-.25,1.57-.48,2.45-.75,1.07,.95,2.16,1.92,3.24,2.87l.51,1.08c2.04,.59,19.05-4.92,20.96-6.73Zm-31.76-13.99c-.51,.42-.98,.81-1.45,1.19q-1.03,.85-1.52,.81c.3-.74,1.31-.96,1.42-1.96-1.76-.2-2.53,1.69-4.14,1.73,.53-.52,1.06-1.04,1.58-1.56l-.08-.22-1.87-.06c-.86,.89-1.69,1.6-2.76,1.94,.36-.71,1.19-1.04,1.37-1.95l-2.33-.09c-1.04,1.09-2.24,1.85-3.53,2.49l-.21-.25c.66-.68,1.31-1.35,2.12-2.19l-2.2-.07c-.9,.9-1.84,1.53-2.98,1.84l-.14-.18,1.52-1.43-.1-.26-1.69-.09c-1.01,1.19-2.35,1.69-3.48,2.51l-.21-.25,2.13-2.04-.2-.24c-1.47,.54-2.58,1.73-4.04,2.48-.09-.81,.59-.84,.89-1.16,.35-.37,.72-.73,1.08-1.09l-.13-.18c-.66-.03-1.33-.05-1.98-.08-.77,1.07-2.81,2.46-3.83,2.52,.95-.84,1.8-1.59,2.65-2.34l-.12-.18-1.55,.03c-1.52,1.39-3.11,2.31-3.84,2.18,.56-1.1,1.96-1.12,2.74-2.2l-1.6-.08c-1.2,.66-2.06,1.66-3.25,2.08l-.19-.25,1.08-1.02-.92-.38c-.82,.44-1.41,1.15-2.28,1.28l-.16-.24,1.23-1.27c-.66-.05-1.15-.08-1.8-.13l-.23,3.21c13.4,.27,26.59,.53,39.75,.79,.75-1.76,.63-2.09-1.15-3.54l-1.17,.02c-.67,.71-1.4,1.23-2.38,1.33,.48-.39,.96-.79,1.61-1.32l-1.67-.16Zm1.77-12.83c1.29,1.89,2.54,3.72,3.85,5.64l3.1-.06c.6-1.16,.76-16.04,.51-17.35l-4.26,.08c-.52,.95-1.04,1.81-1.48,2.71-.45,.9-.96,1.8-.46,2.8l.77,1.4c-.67,1.83-1.87,3.12-2.03,4.79Zm-23.21,35.32c2.76,1.55,26.54,.52,30.93-1.27-.92-1.06-1.81-2.08-2.71-3.13-.8,.23-1.5,.43-2.38,.69l-.62-.14-.23-1.53-2.59,1.94c-1.2-.57-2.74,.1-3.6-1.04-2.17,1.1-4.22,2.14-6.41,3.26-.96-1-1.86-1.94-2.75-2.87-3.27,1.38-6.43,2.72-9.65,4.08Zm48.04-58.31c-1.68,.03-3.28,.08-4.89,.08-2.59,.01-5.17-.01-7.76,0-.86,0-1.75,0-2.59,.17-1.45,.28-2.78,.92-3.97,1.75-.64,1.18-.76,1.7-.59,2.47,1.3-.02,2.61-.03,3.91-.07,.77-.03,1.54-.15,2.31-.15,3.76,0,7.53,.03,11.29,.02,.89,0,1.78-.15,2.86-.25-.19-1.35-.37-2.56-.57-4.02Zm-11.86-7.09c0,.28,0,.38,.01,.48,.27,1.35,.1,1.66-1.13,2.16-.65,.26-1.29,.58-1.93,.88-.61,.29-.82,.77-.67,1.41,.08,.32,.19,.63,.33,1.07l13.74-.24c-.22-.38-.33-.68-.53-.91-1.03-1.19-2.1-2.33-3.12-3.53-.91-1.07-1.74-2.21-2.66-3.28-.43-.5-.82-1.12-1.72-1.23,.4,1.99-1.11,2.56-2.32,3.2Zm10.75,48.24c-3.11-.08-6.1-.19-9.1-.22-3-.03-6-.19-9.05,.04,.46,.52,1.05,.8,1.46,1.26,.4,.45,.61,1.06,.91,1.63,5.22,.06,10.5,.13,15.83,.19l-.05-2.89Zm-15.52,7c6.44,.14,12.83,.26,19.37-.23l.14-2.33-1.65-.13-2.36,1.83c.07-.78,1.05-.84,1.02-1.74l-2.32,.04c-1.16,1.36-1.78,1.79-2.7,1.75l1.57-1.81-.73-.14c-.92,.84-1.72,1.56-2.52,2.29l-.29-.22,1.34-2.15-2.2,.04c-.7,.6-1.23,1.49-2.37,1.63l-.09-.79,.74-.88c-1.06-.03-1.94-.26-2.75,.44-.58,.5-1.25,.9-1.91,1.3-.18,.11-.46,.07-.69,.1l-.17-.26,1.32-1.7c-1.2,.11-2.22-.19-3.28,.21,.18,.94,.34,1.79,.53,2.76Zm-13.69-39.31l-.17,.2c-2.07-.87-3.85-2.2-5.59-3.63l-2.45,.04c1.96,1.51,3.81,2.93,5.87,4.52,2.76,.32,5.78-.12,8.95-.25l-.89-2.3,1.04-1.75-3.5-.28c.22,1,1.31,1.18,1.37,2.32l-2.11-1.67c-1.04-.31-2.13-.91-3.52-.43,1.64,1.33,3.47,2.17,4.9,3.52l-.19,.28c-2.14-1.36-4.28-2.73-6.36-4.06l-1.68,.14-.07,.23c1.46,1.04,2.93,2.08,4.39,3.11Zm15.1,27.39c-.95-.5-1.34,.46-1.97,.66-.72,.23-1.38,.63-2.2,1.03l-.07-.89,1.02-.8-.07-.22-2.66,.05-.1,.19,.96,.98-.43,2.27c1.36,.03,2.56,.06,3.76,.09,1.28,.04,2.56,.1,3.84,.11,1.31,.01,2.62-.01,3.93-.03,.78,0,1.57-.03,2.49-.04l-.34-3.16c-1.17,1.04-2.33,1.95-3.98,2.56,.88-1.15,2.22-1.54,2.73-2.87l-2.09,.04c-.65,.67-1.36,1.37-2.35,1.64l-.22-.16,.82-1.5c-.87-.48-1.39,.33-2.03,.72-.68,.42-1.35,.87-2.14,1.38-.03-1.02,.66-1.44,1.1-2.06Zm-.87-28.65l-.17,.16-2.47-1.97-1.98,.04,2.45,2.52-.16,.2c-.12-.02-.25-.02-.36-.06-1.17-.51-2.11-1.29-2.94-2.25-.2-.23-.53-.34-.97-.6l.02,.93-1.32,1.19,1.33,2.1c1.93,.05,3.84,.11,5.77,.16,.71-.67,1.56-1.23,2.08-2.03,.51-.79,1.51-1.27,1.7-2.48l-4.38,.29c.55,.71,.97,1.26,1.39,1.8Zm-28.62-62.27l-3.08,.05-.86,1.13c.46,.42,.92,.82,1.37,1.24,1.07,1.03,3.25,1.06,4.28,.01,.68-.69,1.3-1.43,1.99-2.2-1.33-.87-.05-1.69-.03-2.71-1.71,.26-2.72,1.36-3.67,2.47Zm12.7-1.97l-.17-.24c-.9,.1-1.84,.06-2.69,.33-.88,.28-1.66,.86-2.49,1.31l-.92-.22-3.2,2.55-.06,.92c1.25-.04,2.18,1.11,3.4,.71l1.92-1.78-.34-.9c.46-.87,.95-1.67,2.09-2.08-.32,.88-1.41,1.13-1.21,2.28,.41-.16,.83-.25,1.16-.47,.75-.5,1.48-1.03,2.17-1.61,.2-.17,.24-.52,.35-.79Zm18.84,91.3l.1-.36c-1.19-.91-2.37-1.82-3.74-2.87l.02,1.19-.16,.03-.68-1.68-2.13,.23,.29,.66c-1.04,.86-2.03,1.69-3.02,2.51l.08,.26,9.23,.04Zm-40.68-89.92c-.43,.29-1.21,.05-1.36,.8l1.24,1.27-.13,.15,1.94,1.02,1.73-1.58-.55-.87,1-1.49-.18-.2c-.42,.17-.88,.28-1.26,.52-.42,.26-.77,.62-1.2,.97l-1.23-.6Zm23.77-43.91c.97-.9,1.12-2.36,.31-3.47l-.65,.56-.2-.54c-.83,.31-.62,1.09-.92,1.56,.3,.79,.37,1.67,1.46,1.89Zm-7.62,42.12c-1.08-.69-1.7-.77-2.3-.35-.67,.48-.97,1.45-.7,2.55,1.06-.66,2.28-.99,3-2.21Zm5.12-45.7c-1.51,.49-.99,1.92-1.54,2.72,.37,.61,.72,1.02,1.44,.87,.28-1.16,.73-2.29,.1-3.59Zm-1.4,4.17c.09,1.3-.61,2.55,.57,3.63,1.6-.86,.37-2.12,.67-3.15l-1.24-.48Zm-4.76-3.78l-.35,.05-.45,2.08,1.09,1.17,1.23-1.62-1.53-1.68Zm10.94,7c.9-1.15,.19-2.23,.29-3.19l-1.33-.49c.06,.47,.14,.93,.18,1.39,.04,.5,.02,1,.03,1.42l.84,.87Zm-10.04-2.77l-1.12-.1-.59-.78c-.05,2.45,.23,3.2,1.4,3.5l.3-2.62Zm-9.29,42.37c-1.22-1.06-2.56-.49-3.17,1.28l.4,.36c.33-.11,.65-.16,.9-.32,.62-.4,1.2-.85,1.87-1.32Zm6.2-40.05c.05-.89,.09-1.69,.13-2.61l-.66-.38-.95,.65,.44,2.27,1.03,.07Zm9.99-2.7l-.23,.2c.29,.99,.28,2.07,.94,3.05,1.06-.92,.45-1.95,.56-2.96l-1.27-.3Zm5.72-.08l-1.25,.02,.14,2.29,1.16,.32-.05-2.63Zm-1.87-1.28c.4-1.42,.25-1.92-.82-2.41l-.67,1.4,.43,1.37c.25-.05,.41-.06,.56-.11,.18-.07,.35-.17,.5-.25Zm1.95-2.85c-1.08,1.6-1.3,2.68-.68,3.33,1.1-.46,1.46-2.23,.68-3.33Zm-15.61,2.29c-.62-.57,.01-1.42-1.03-1.89l-.23,1.91,1.26-.02Zm95.64-9.44l.25-.18-.83-1.11-.2,.14,.77,1.15Zm-147.73-1.54l-.16,.17,.87,.77,.15-.17-.87-.77Zm-2.94,23.7h.14v-.8h-.15v.8Z"
  />
  <path fill="#58b6d0"
    d="M241.24,365.92c.15-.27,.24-.65,.46-.78,2.01-1.12,4.12-1.39,6.27-.44,1.26,.55,2.15,1.57,2.98,2.64,.14,.18,.27,.38,.44,.63,1.33-.33,2.61-1.04,4.01-.7,1.32,.32,2.62,.76,3.74,1.09,1.01-.46,1.86-.85,2.73-1.24-.5-.51-1.06-1.06-1.6-1.63-2.13-2.25-3.1-5-3.06-8.03,.02-1.45,.92-2.71,2.08-3.67,.37-.31,.71-.66,1.12-1.04-2.49-2.39-3.7-5.11-2.74-8.39,.58-2,1.43-3.93,3.39-5.08l-1.39,1.8,.21,.2c1.12-.91,2.03-2.17,3.54-2.49,.94-.2,1.89-.35,2.84-.52l.09,.21c-.15,.13-.28,.31-.46,.39-.4,.19-.8,.38-1.23,.47-1.83,.38-3.09,1.62-4.31,2.88-.94,.98-.87,2.29-1.04,3.52-.2,1.47,.46,2.78,.76,4.15,.05,.22,.18,.45,.33,.62,1.31,1.56,2.7,3.01,4.84,3.4,.81,.15,1.61,.33,2.41,.5l.09-.23,.91,.82c-1.54,.49-2.76,.01-3.95-.3-1.19-.31-2.32-.84-3.4-1.24-.94,1.4-1.86,2.79-2.86,4.28,.13,.77,.18,1.62,.41,2.42,.53,1.82,1.32,3.53,2.59,4.99,1.05,1.21,2.37,1.55,3.8,1.15,3.13-.86,5.5,.52,7.73,2.41,.29,.25,.58,.5,.75,.9-.93-.57-1.84-1.17-2.79-1.72-1.02-.59-2.05-1.21-3.29-1.17-.69,.02-1.38,.17-2.07,.26-.89,.11-1.78,.22-2.72,.34l-.75,.66h-.81l-.53,.72-1.28-.08c-.47,1.19-1.04,2.33-1.36,3.54-.53,1.97-.76,3.98,.23,5.92,.17,.33,.27,.69,.38,1.05,.38,1.22,1.12,2.12,2.26,2.7,.06,.03,.07,.17,.12,.27-1.49-.13-3.31-2.44-4.03-5.49-.56-2.38-.27-4.74,1.14-6.8-.73-1.24-4.19-1.77-6.34-.75-3.3,1.56-4.61,4.53-3.89,9.06-.1-.2-.22-.38-.28-.59-.67-2.33-.95-4.64,.41-6.84,.28-.45,.72-.8,1.1-1.18,.45-.45,.91-.88,1.42-1.36-.69-1-1.34-1.83-2.34-2.41-.84-.49-1.74-.8-2.64-.85-.87-.05-1.76,.28-2.64,.48-.61,.14-1.21,.32-1.82,.49l.02,.02Zm18.01-15.8c-.25-.92-.6-1.83-.73-2.77-.13-.94-.06-1.9-.08-2.86l-.21,.02c-.2,1.95-.38,3.9,1.02,5.61Z"
  />
  <path fill="#58b6d0"
    d="M164.91,333.23c1.41,.23,2.65,.27,3.77,.67,.98,.35,1.83,1.09,2.74,1.61,2.41,2.07,3.04,4.69,2.02,7.64-1.05,3.02-3.17,4.91-6.66,5.44,.46,.3,.75,.5,1.05,.68,2.32,1.42,4.14,3.34,5.46,5.71,.27,.48,.35,1.09,.43,1.65,.25,1.81,.31,3.6-.48,5.35-.62,1.37-1.48,2.48-2.76,3.25-.33,.2-.64,.44-1.07,.74,1.62,1.27,2.34,2.94,2.86,4.81l2.03-1,.14,.22c-.46,.72-1.44,.8-1.98,1.51l-.31,4.67h-.3c0-.38-.02-.76-.02-1.13,.01-1.28,.22-2.59,.01-3.83-.36-2.13-1.17-4.07-3.42-4.99-.89-.36-1.71-.89-2.54-1.44l2.48,.75c.72-.57,1.35-1.09,2-1.58,.97-.72,1.51-1.7,1.77-2.86,.15-.66,.37-1.3,.53-1.95,.56-2.34-.27-4.27-1.71-6.08-1.08-1.35-2.35-2.37-3.96-3.03-.77-.32-1.52-.51-2.41-.26-.21-1.03-.89-1.26-1.89-1.35-1.18-.1-2.34-.58-3.5-.89-.29-.08-.6-.09-.89-.18-.21-.07-.39-.23-.58-.36l.1-.25c.7,.11,1.4,.25,2.11,.34,.97,.12,1.94,.21,2.91,.3,1.88,.17,3.78,.37,5.61-.23,.67-.22,1.28-.69,1.84-1.15,.41-.33,.68-.83,1.03-1.24,1.49-1.74,1.47-3.75,.78-5.73-.31-.9-1.16-1.62-1.77-2.42-.65-.86-1.55-1.11-2.59-1.1-.7,0-1.41-.1-2.13-.16-.08,1.03-.11,1.98-.23,2.93-.13,1.01-.9,1.64-1.6,2.27-.71,.64-1.52,1.16-2.47,1.36l-.11-.18c.43-.33,.86-.67,1.28-1,1.51-1.19,2.18-2.75,1.84-4.65-.24-1.31-.34-2.63-1.02-3.88-.68-1.25-1.51-2.35-2.65-3.13-.71-.49-1.66-.72-2.53-.89-.91-.18-1.87-.15-2.8-.22-.14-.01-.27-.13-.4-.21l-.02-.24c.56-.13,1.15-.43,1.68-.34,1.04,.17,2.05,.55,3.07,.85,.1,.03,.18,.11,.27,.13,1.88,.3,2.98,1.64,3.96,3.07,.45,.65,.71,1.43,.99,2.03Z"
  />
  <path fill="#58b6d0"
    d="M148.58,382.57c.63-1.43,1.14-2.89,1.07-4.47-.07-1.72-.55-3.33-1.38-4.88-.79-1.46-1.96-2.52-3.11-3.64,.05-.03,.13-.09,.15-.07,1.17,.93,2.2,.26,3.23-.3,.38-.21,.73-.47,1.24-.64,.54-1.15,1.12-2.28,1.6-3.45,.42-1.02,.21-1.99-.23-3.02-.7-1.66-1.91-2.86-3.44-3.55-1.36-.6-2.62-1.59-4.22-1.58-.08,0-.16-.11-.28-.2,.47-1.15,1.47-.08,2.11-.55,.73,1.36,2.35,.94,3.42,1.8,.16-.28,.28-.5,.41-.73,2.23-.74,4.04-1.98,5.2-4.12,.86-1.59,1.22-3.27,1.33-5.03,.17-2.76-1.32-4.66-3.37-6.2-.94-.7-2.02-1.21-3.05-1.8-.58-.33-1.18-.41-1.85-.21-1.05,.31-2.11,.27-3.33-.02l2.64-.65,.24-.61c.74,.18,1.45,.36,2.17,.52,1.64,.38,3.06,1.28,4.29,2.33,1,.85,1.83,2,2.43,3.17,.7,1.36,1.03,2.9,1.03,4.47,0,.43-.07,.89-.26,1.27-.77,1.62-1.32,3.31-2.64,4.71-1.04,1.1-2.08,1.96-3.47,2.46-.06,.02-.11,.07-.16,.12-.04,.05-.07,.11-.12,.22,.37,.72,.81,1.44,1.13,2.21,.45,1.09,.89,2.19,1.17,3.33,.49,2.04-.16,3.85-1.59,5.29-.66,.66-1.67,.96-2.52,1.43-.28,.16-.56,.33-.88,.51,.29,.47,.5,.89,.77,1.24,1.45,1.86,1.89,4.06,2.17,6.31,.06,.44-.01,.93-.15,1.36-.25,.8-.58,1.58-.91,2.36-.15,.36-.31,.8-.87,.6l.02,.02Zm.99-24.53l-.23,.26,.65,.58,.22-.24-.64-.59Z"
  />
  <path fill="#58b6d0"
    d="M287.6,326.1c-.34-.24-.8-.4-1.01-.73-1.42-2.17-1.38-4.58-1.03-7.02,.1-.69,.27-1.36,.44-2.19-1.97-.49-3.23-1.93-4.38-3.35-.8,.01-1.52,.01-2.23,.04-1.53,.07-2.33,.74-2.79,2.18-.42,1.35-.43,2.65,.13,3.95,.18,.41,.27,.86,.29,1.33-.75-.79-.98-1.84-1.53-2.76l.02,1.08-.66-1.17c-.89-.16-1.64,.14-2.44,.48-2.39,1.01-3.51,3.1-4.48,5.24-.95,2.09-.52,4.14,.79,6.01,.26,.37,.52,.74,.83,1.18-1.91-.37-3.63-5.47-3.28-7.16,1.03-5.01,4.02-6.97,8.33-6.95,.46-.84,.86-1.74,1.42-2.51,.42-.58,1.01-1.06,1.61-1.48,.64-.46,1.37-.47,2.13-.17,.33,.13,.71,.12,1.18,.2l.12-1.07h-.02c.25,.21,.61,.34,.72,.59,.64,1.49,1.8,2.48,3.13,3.28,.87,.52,1.36,.31,2.13-.33,.82-.68,1.73-1.26,2.67-1.76,.4-.21,.97-.12,1.49-.06-1.38,.2-2.33,1.11-3.3,1.93-.53,.45-1.04,1.1-1.21,1.75-.47,1.77-.86,3.53-.57,5.45,.2,1.36,.51,2.54,1.38,3.58,.1,.12,.09,.31,.13,.47l.02-.02Zm-12.29-10.14l.22,.07,.29-.86-.22-.07-.3,.86Z"
  />
  <path fill="#58b6d0"
    d="M121.35,279.56c2.27-1.25,4.98-.47,7.26-1.97,1.93-2.14,2.7-4.85,2.91-7.78,.01-.2-.02-.4-.05-.6-.19-1.06-.38-2.12-.58-3.18-.07-.36-.09-.79-.3-1.05-.98-1.23-1.66-2.7-3.06-3.59-.81-.51-1.64-.84-2.31-.97l-.96-.79c1.78-.08,3.15,1.06,4.59,1.61l1.72,1.85c.5-.32,.96-.62,1.42-.91,1.3-.81,2.19-1.98,2.97-3.26,.14-.23,.24-.49,.29-.75,.46-2.4,.09-4.68-1.09-6.83,.7,.3,.89,.48,1.16,1.18,.21,.56,.38,1.13,.64,1.9,.79-.4,1.48-.71,2.13-1.09,.66-.39,1.29-.84,1.89-1.25,1.06-1.69,.55-3.49,.54-5.24,.59,1.67,.93,3.35,.41,5.13-1.27,1.56-3.3,1.92-4.98,3,.82,4.33-1.59,6.76-5.06,8.51,.37,1.1,.72,2.14,1.08,3.18,.37,1.07,.49,2.14,.28,3.28-.12,.68,.03,1.4,.03,2.1,0,2.03-.74,3.81-1.87,5.45-.18,.27-.47,.5-.75,.67-.55,.32-1.12,.59-1.7,.86-.94,.45-1.84,.86-2.97,.45-.62-.22-1.39,0-2.1,.02-.52,.01-1.03,.02-1.55,.03Z"
  />
  <path fill="#58b6d0"
    d="M295.88,296.43c-1.37,4.13,.85,6.69,3.91,8.91-1.83-.49-2.96-1.81-4-3.21-1.15-1.55-.97-3.37-.88-5.05l-2.51-1.92c-.25-.75-.4-1.44-.71-2.05-1.13-2.23-.5-4.28,.6-6.26,.43-.77,.9-1.59,1.97-2.09-.16,.37-.24,.6-.36,.8-1.01,1.7-1.65,3.45-1.07,5.49,.23,.8,.19,1.67,.28,2.51,.11,.99,.93,1.77,1.98,1.93,1.5-3.64,2.19-4.03,7.42-4.21l.99,.62-.07,.24c-1.01,.07-2.04,.07-3.04,.24-1.01,.18-1.99,.53-2.95,.8-.56,1.16-1.06,2.18-1.58,3.25Zm-4.04-6.02l-.26,.07c.08,.82,.07,1.66,.72,2.33l-.46-2.4Z"
  />
  <path fill="#58b6d0"
    d="M113.06,315.19c.9-.75,1.69,.11,2.27-.31,1.19,.86,2.27,1.65,3.36,2.44,2.12,1.52,3.95,3.27,5.32,5.55,1.18,1.96,1.73,4.09,2.1,6.27,.32,1.86-.16,3.66-1.04,5.33-.13,.25-.22,.52-.31,.73,1.14,.39,2.18,.72,3.2,1.11,1.41,.53,2.44,1.54,3.16,2.83,.76,1.36,1.38,2.81,1.51,4.37,.13,1.5,.06,3.01,.07,4.52,0,.11-.08,.23-.25,.33-.01-.15-.05-.3-.03-.44,.2-1.74-.16-3.43-.44-5.12-.09-.52-.36-1.01-.58-1.51-.77-1.75-1.74-3.39-3.47-4.32-.93-.5-2.03-.67-2.98-.97l-1.23,.45-1.46,1.64-.2-.14c.25-.39,.5-.78,.75-1.17,.53-.82,1.12-1.61,1.57-2.47,1.06-2.02,1.13-4.16,.72-6.38-.36-1.92-1.06-3.69-2.07-5.33-1.24-2.01-3.05-3.48-4.94-4.84-1.06-.76-2.21-1.39-3.36-2.02-.45-.25-1-.32-1.7-.54Z"
  />
  <path fill="#58b6d0"
    d="M281.02,341.64c.1,.23,.2,.37,.17,.4-1.23,1.35-1.3,3.08-1.49,4.75-.07,.62,.06,1.27,.18,1.9,.32,1.71,.52,3.48,1.84,4.81,.07,.07,.05,.23,.07,.35l-.19,.11-1.21-1.67c-1.14,.2-2.36,.38-3.56,.62-1.29,.26-2.09,1.15-2.68,2.26-.33,.62-.64,1.26-1.07,2.08l.42,2.52c-.61-1.28-1.2-2.54-.4-3.97,.37-.67,.59-1.41,.92-2.11,.35-.75,.98-1.19,1.73-1.47,1.13-.41,2.26-.81,3.4-1.22l.4,.42,.2-.05c-.21-1.31-.41-2.61-.64-4.04-3.68-1.53-4.82-4.65-4.76-8.37,.02-1.52,.54-2.96,1.59-4.13-.85,2-1.36,4-.89,6.22,.27,1.25,.92,2.17,1.83,2.93,.71,.6,1.07,1.66,2.3,1.86,.2-1.6,.58-3.03,1.86-4.18Z"
  />
  <path fill="#58b6d0"
    d="M283.48,244.08l-.91-1.68c.29,5.07,2.34,8.72,7.36,10.47-.32,.17-.44,.29-.51,.26-1.5-.52-2.86-1.19-4.05-2.32-1.46-1.39-2.38-3.05-2.77-4.94-.37-1.79-.45-3.65-.65-5.42-.64,.01-1.43,.07-2.21,.03-1.54-.08-2.76-.75-3.61-2.08-.34-.54-.84-.98-1.17-1.52-1.12-1.82-.77-3.77-.38-5.7,.12-.58,.43-1.11,.65-1.67l.19,.05c-.12,.55-.21,1.12-.37,1.66-.54,1.81-.03,3.45,.76,5.05,.24,.48,.51,.94,.83,1.37,.85,1.16,1.94,1.92,3.42,2.05,.22,.02,.44,.15,.63,.22l1.58-.62c.43-1.73,.85-3.48,2.28-4.73,.23-.2,.47-.38,.79-.51-1.93,3.1-3.21,6.26-1.61,9.91l-.23,.11Z"
  />
  <path fill="#58b6d0"
    d="M171.67,321.83l-2.91,1c.14,2.04-.2,3.94-1.06,5.73-.09,.2-.28,.35-.5,.49,.65-1.82,1.13-3.66,.96-5.67l-.79-.36,.7-.99-1.93-4.39c.48,.19,1.06,.77,1.5,1.84,.34,.83,.57,1.7,.87,2.63,.89-.37,1.67-.83,2.5-1,.83-.17,1.72-.07,2.85-.09,1.3,1.1,2.78,2.29,4.18,3.57,1.4,1.29,1.88,3.14,2.64,5.06-.11,1.67,.1,3.72-1.06,5.44-.36,.54-1.05,.86-1.45,1.18,0,0,.05-.2,.18-.35,1.46-1.62,1.65-3.56,1.38-5.58-.16-1.16-.48-2.3-1.09-3.33-1.04-1.73-2.33-3.19-4.05-4.31-.93-.61-1.96-.57-2.92-.87Z"
  />
  <path fill="#58b6d0"
    d="M266.21,310.61c-2.15-.47-3.76,.34-5.28,1.48-.34,.26-.79,.4-1.09,.7-.37,.37-.66,.83-.93,1.29-1.52,2.54-1.9,5.22-.92,8.05,.28,.81,.6,1.6,.96,2.56-1.25-.47-.98-2-2.22-2.34,.61-.53,.55-1.05,.36-1.68-.49-1.61-.24-3.21,.31-4.76,.2-.57,.52-1.11,.78-1.66l.2,.06-.16-.61c1.76-1.9,3.76-3.45,6.58-3.84-.4-1.77-.36-3.44,.76-5.07-2.05-.59-3.54-1.73-4.16-3.76-.41-1.34-.72-2.7-.7-4.1l.2-.06c.09,.15,.21,.29,.25,.45,.23,.91,.4,1.84,.67,2.74,.61,2.02,1.76,3.52,3.94,4.01,.16,.04,.3,.14,.55,.26-.47,1.06-.94,2.11-1.47,3.31l1.37,2.97Z"
  />
  <path fill="#58b6d0"
    d="M117.53,301.08c-.77-.25-1.45-.98-2.26-.67-1.27,2-2.92,3.4-4.61,4.75l-.19-.18c.4-.43,.82-.85,1.2-1.31,.82-1,1.65-2,2.41-3.05,.21-.29,.26-.75,.27-1.14,.03-1.54-.43-2.97-1.11-4.34-.02-.05,0-.12,.01-.3,1.3,1.45,1.71,3.15,1.75,4.77,1,.45,1.8,.85,2.62,1.18,1.16,.46,1.86,1.45,2.59,2.35,.81,1,1.21,2.26,1.53,3.53,.34,1.35,.03,2.55-.31,3.83-.35,1.3-1.08,2.22-2.11,2.97-.57,.42-1.16,.8-1.74,1.2l-1.27,.02c.1-.14,.14-.26,.2-.28,2.15-.51,3.46-2.13,4.15-3.96,.63-1.66,.77-3.53-.13-5.38-.76-1.56-1.8-2.79-3.01-4.01Z"
  />
  <path fill="#58b6d0"
    d="M243.61,331.92l.69,.31-.64,.54c.55,1.08,1.1,2.14,1.64,3.2-.88-.85-1.7-1.75-2.21-2.86-.12-.26-.18-.6-.14-.89,.13-.83,.29-1.66,.5-2.48,.43-1.71,1.77-2.52,3.24-3.21,1.45-.68,3-.56,4.59-.62l.58-1.69c.98-.73,2-1.68,3.44-1.94-.55,1.1-1.68,1.41-2.63,1.96-1.1,2.42-.39,4.73,.38,7.05-1.08-1.34-1.28-3.04-1.82-4.66-1.17,.12-2.29,.1-3.34,.36-1.62,.4-2.97,1.27-3.6,2.94-.23,.63-.43,1.27-.67,1.97Z"
  />
  <path fill="#58b6d0"
    d="M163.57,389.8c.77-1.34,.97-2.76,.97-4.2,0-3.35-1.6-6.93-5.23-8.31-1.59-.6-3.15-1.12-4.91-.77-1.19,.23-2.14,.73-2.85,1.71-.12,.17-.3,.3-.55,.54-.19-1.01,.32-1.53,.91-1.98,1.21-.93,2.65-1.24,4.11-1.06,1.16,.14,2.35,.41,3.4,.89,2.85,1.31,4.89,3.29,5.53,6.59,.43,2.2,.21,4.18-.81,6.13-.08,.15-.18,.28-.29,.41-.03,.04-.12,.02-.29,.05Z"
  />
  <path fill="#58b6d0"
    d="M250.63,210.92c-.14,2.22,.28,4.38,1.72,6.24,1.38,1.77,3.16,2.95,5.43,3.69-1.54,.48-4.39-1.03-5.55-2.78-1.57-2.36-1.76-2.9-2.04-6.1-2.6-.15-4.63-1.33-5.63-3.84-.54-1.34-1.02-2.74-.86-4.26,.82,2.57,1.14,5.42,4,6.85l2.94,.2Z"
  />
  <path fill="#58b6d0"
    d="M194.01,334.57c-.11-.51-.14-1.05-.34-1.53-.74-1.76-1.74-3.28-3.48-4.31-2.01-1.19-4.19-1.45-6.23-1.71-1.12,.54-1.62,1.63-2.67,1.97,.5-1.14,1.38-1.92,2.38-2.54,.39-.24,.98-.27,1.46-.21,1.08,.14,2.18,.31,3.22,.63,.74,.22,1.39,.7,2.06,1.11,.4,.2,.91,.3,1.19,.62,1.51,1.69,2.97,3.43,2.41,5.98Z"
  />
  <path fill="#58b6d0"
    d="M171.84,210.87c.89,.03,1.8-.02,2.68,.1,1.51,.2,2.86-.07,4.26-.73,1.86-.88,2.45-2.5,2.84-4.21,.17-.74-.19-1.65-.46-2.42-.21-.61-.68-1.13-1-1.7-.15-.27-.23-.58-.34-.87l.19-.12c.19,.15,.41,.29,.58,.47,1.69,1.8,2.21,5.27,.95,7.36-1.01,1.68-2.49,2.84-4.58,2.82-1.47-.02-2.94-.17-4.4-.29-.25-.02-.49-.16-.74-.25l.02-.15Z"
  />
  <path fill="#58b6d0"
    d="M174.91,369.72c1.24-.73,2.46-.48,3.66-.14,1.58,.45,2.92,1.34,4.17,2.4,.38,.32,.79,.6,1.14,.87l2.35-2.13,.19,.18c-.07,.64-.66,.91-1.09,1.27-.55,.46-.95,.95-.87,1.72,1.79,3.45,2.13,4.62,1.76,6.26-.38-3-1.67-5.44-3.72-7.45-2.08-2.03-4.55-3.22-7.58-2.98Z"
  />
  <path fill="#58b6d0"
    d="M301.01,305.95l-.86-.4,.02-.24c.84-.38,1.72,.2,2.57-.04q0,.85-1.17,.96l-.86,3.32c.34,2.61,1.49,4.74,4.01,6.01l-.12,.25-1,.11c-.63,.39-.83,1.43-2.08,1.2l1.58-1.63c-.85-1.33-1.72-2.63-2.54-3.95-.87-1.41-.45-2.86-.05-4.3,.12-.42,.3-.81,.48-1.3Z"
  />
  <path fill="#58b6d0"
    d="M264.34,290.65c.76-.55,1.53-1.07,2.27-1.65,1.61-1.27,3.23-2.53,4.8-3.85,.88-.74,1.65-1.59,2.5-2.36,.2-.18,.54-.2,.92-.33,.01,1.06-.65,1.51-1.16,1.98-.93,.86-1.95,1.62-2.92,2.45-1.9,1.63-4.13,2.74-6.24,4.04l-.17-.28Z"
  />
  <path fill="#58b6d0"
    d="M268.37,381.86c-.94-.15-1.9-.48-2.83-.42-.93,.06-1.83,.5-3.01,.85-.55,.94-1.34,1.99-1.81,3.18-.47,1.19-.61,2.5-.94,3.95-.14-.28-.24-.39-.23-.5,.14-2.14,.48-4.24,1.62-6.1,.26-.43,.75-.78,1.2-1.03,1.17-.64,2.37-1.43,3.77-1.1,.77,.18,1.72,.12,2.31,.84l-.08,.33Z"
  />
  <path fill="#58b6d0"
    d="M281.04,311.21c-1.25-.81-1.28-2.15-1.42-3.41-.21-1.93,.18-3.79,.84-5.66,.77-1.03,1.1-2.55,2.79-2.94l-1.69,1.99-1.37,4.49h.15c-.03,.67-.14,1.33-.06,1.97,.1,.82,.35,1.62,.53,2.44,.08,.38,.14,.76,.21,1.14h.02Z"
  />
  <path fill="#58b6d0"
    d="M277.66,283.52c-.3,1.3-5.69,5.62-8.63,6.76,.39-.36,.75-.77,1.18-1.07,2.28-1.62,4.28-3.56,6.35-5.43,.27-.25,.56-.65,1.09-.27Z"
  />
  <path fill="#58b6d0"
    d="M122.48,305.78l1.44,.28c1.7,.84,3.39,1.76,4.65,3.25,.36,.43,.68,.93,.86,1.45,.74,2.13,1.06,4.31,.44,6.54-.06,.21-.2,.39-.3,.58l-.22-.05c.09-.59,.17-1.19,.26-1.78,.34-2.19-.21-4.22-1.26-6.11-.3-.53-.86-.93-1.33-1.35-.43-.38-.91-.7-1.36-1.06-.72-.58-1.48-1.04-2.45-1.06-.37-.01-.81-.09-.74-.69Z"
  />
  <path fill="#58b6d0"
    d="M181.46,201.26c.59,.11,1.19,.23,1.78,.34,1.74,.33,4.17-.75,5.04-2.28,.51-.9,.97-1.82,1.56-2.71l-.73,3.04c-2.24,2.94-5.87,3.39-7.69,1.85l.03-.23Z"
  />
  <path fill="#58b6d0"
    d="M305.99,296.73c-.23-.18-.56-.32-.68-.56-.73-1.52-1.47-3.07-1.51-4.78-.03-1.36,.61-2.53,1.65-3.44,.26-.23,.5-.49,.81-.8l.45,.16c-.65,.96-1.38,1.84-1.87,2.85-.65,1.33-.27,2.71,.18,4.04,.29,.86,.63,1.7,.95,2.55l.02-.02Z"
  />
  <path fill="#58b6d0"
    d="M274.46,255.06l-2.94-1.37c-2.23-2.83-2.79-6.2-1.16-7.69-.46,1.57-.35,3,0,4.47,.4,1.7,1.32,2.84,2.93,3.47,.4,.16,.81,.3,1.19,.5,.1,.05,.13,.27,.19,.41l-.19,.21Z"
  />
  <path fill="#58b6d0"
    d="M303.08,328.27c-2.55-3.18-3.42-8.58-1.79-10.66l.25,.17c-.16,1.85-1.1,3.5-.3,5.35,.69,1.59,1.18,3.26,1.84,5.13Z"
  />
  <path fill="#58b6d0"
    d="M250.95,211.67c.06-.89,.37-1.15,2.74-2.43,.15-.57,.44-1.25,.51-1.96,.06-.67-.13-1.35-.21-2.03l.21-.08c.11,.16,.26,.31,.32,.49,.56,1.49,.42,2.97-.65,4.1-.55,.58-1.1,1.44-2.16,1.43-.22,0-.43,.26-.77,.47Z"
  />
  <path fill="#58b6d0"
    d="M188.6,216.28c-.2-.33-.46-.65-.6-1-.72-1.81-1.99-3.07-3.87-3.83l-.28-.85,.21-.19c1.02,.76,2.11,1.44,3.04,2.29,.73,.66,1.43,1.44,1.59,2.5,.05,.32,.11,.64,.16,.97l-.25,.1Z"
  />
  <path fill="#58b6d0"
    d="M286.33,357.17c.4,.14,.8,.31,1.21,.43,.39,.11,.79,.18,1.34,.3l1.18-.1c-.3,.95-1.08,.58-1.51,.51-.84-.13-1.69-.4-2.41-.88l.19-.26Z"
  />
  <path fill="#58b6d0" d="M287.59,326.12l3.24,2.21c-1.02,.14-2.64-1-3.23-2.22l-.02,.02Z" />
  <path fill="#58b6d0"
    d="M281.56,342.01l.24-1.07c.8-.31,1.59-.62,2.38-.92l.13,.18-2.74,1.8Z"
  />
  <path fill="#58b6d0"
    d="M189.34,370.06c-.05,.15-.06,.41-.15,.44-.74,.25-1.49,.44-2.43,.3,.83-.78,1.7-.78,2.6-.72l-.02-.02Z"
  />
  <path fill="#58b6d0" d="M266.52,310.07l2.87,1.08c-1.15,.21-2.48-.27-2.87-1.08Z" />
  <path fill="#58b6d0"
    d="M151.39,300.92c.53,.57,.52,1.21,.24,1.88-.33-.6-.66-1.2-.22-1.89h-.02Z"
  />
  <path fill="#58b6d0" d="M259.11,370.69c.18-.86,.2-.89,1.01-1.17l-.76,1.32-.25-.15Z" />
  <path fill="#58b6d0" d="M268.37,303.17l-1.55,.99c.16-.87,.82-.99,1.41-1.2l.14,.21Z" />
  <path fill="#58b6d0"
    d="M241.23,365.9l-1.11,1.4-.22-.2c.42-.42,.4-1.29,1.34-1.18l-.02-.02Z"
  />
  <path fill="#58b6d0" d="M292.59,253.41c-.38,.42-.79,.41-1.23-.17l1.2-.1,.03,.26Z" />
  <path fill="#58b6d0" d="M283.08,355.17c.47,.24,1.02,.41,.99,1.21l-1.12-1.04,.13-.17Z" />
  <path fill="#58b6d0" d="M180.06,362.51l-.63,1.49c-.25-.68-.14-.88,.65-1.47l-.02-.02Z" />
  <path fill="#58b6d0" d="M290.19,279.65l.91,.42q-.7,.35-.91-.42Z" />
  <path fill="#58b6d0" d="M290.77,253.41l-.77-.21,.1-.34,.76,.23-.09,.31Z" />
  <path fill="#58b6d0"
    d="M148.56,382.56c.09,.54-.2,.78-.77,.95,.05-.59,.38-.79,.79-.94l-.02-.02Z"
  />
  <path fill="#58b6d0" d="M163.3,315.4l.98,.62-.15,.21-.95-.67,.13-.16Z" />
  <path fill="#58b6d0" d="M177.62,337.03l-.82,.4-.1-.17,.79-.45,.12,.22Z" />
  <path fill="#58b6d0" d="M305.97,296.74l.72,.94q-.76-.2-.7-.95l-.02,.02Z" />
  <path fill="#58b6d0"
    d="M221.15,224.76c.63,1.07,1.07-.28,1.46-.16l.87,.79,.7-.43,1.38,1.88,.41-.36c.4,1.02,.84,2.04,1.18,3.08,.16,.5,.21,1.07,.16,1.59-.04,.41-.22,.87-.5,1.16-.56,.59-1.23,1.07-1.69,1.46-.98,0-1.86-.12-2.69,.03-1.81,.33-3.36-.03-4.51-1.49-.4-.51-.6-1.19-.9-1.83-.07-3.94,1.52-4.94,4.13-5.72Z"
  />
  <path fill="#58b6d0"
    d="M206.66,226.24c.36,1.56,.67,2.92,.99,4.31l-.74,.15-.23,1.19c-2.06,2.56-3.93,3.18-7.17,2.34-.87-.89-1.86-2.81-2.41-4.78l1.37-2.68c.99-.42,1.76-.9,2.6-1.08,1.17-.24,2.39-.37,3.58-.32,.67,.03,1.32,.54,2.02,.86Z"
  />
  <path fill="#58b6d0"
    d="M213.1,230.39c.44,.79-.4,1.22-.33,1.88l.58-.32c.35,.87,.73,1.72,1.02,2.59,.21,.63,.23,1.29,.94,1.69,.33,.19,.49,.7,.68,1.09,.12,.24,.11,.54,.25,.76,.62,1.02,.49,1.99-.18,2.98-.91,.58-1.17,.56-1.94-.23-.3-.31-.59-.64-1.01-1.11l-1.46,1.53-1.73-.42-.6-1.68c.32-.77,.6-1.71,1.08-2.54,.52-.9,.41-1.89,.63-2.82,.31-1.32,.75-2.62,2.08-3.42Z"
  />
  <path fill="#58b6d0"
    d="M212.23,206.27c-.48-.3-.94-.52-1.57-.53-.6-.01-1.19-.4-1.85-.65-.35-.58-.68-1.23-.3-2.16l1.51-.5,.15,.17,.41-.81,.29,.1,.13,1.06-2.04,.77c.35,1.83,2.06,.94,2.92,1.64l.34,.92h.02Z"
  />
  <path fill="#58b6d0"
    d="M211.11,209.63l-.75-.31c-.14-.41-.62-.79-.05-1.36l.57,1.14c1.25,0,2.63-.7,3.44,.99l-.42,1.04-.25-.03-.16-1.52-2.39,.04Z"
  />
  <path fill="#58b6d0"
    d="M207.56,234.11l-1.05,5.55-.33-.49-.29,.9c-.22-1.02,.87-4.78,1.67-5.96Z"
  />
  <path fill="#58b6d0"
    d="M230.07,235.14c-.43,1.5-1.22,2.13-2.48,2.11,.78-.67,1.56-1.33,2.48-2.11Z"
  />
  <path fill="#58b6d0"
    d="M212.21,206.28c.68,.31,.42,.67-.02,.89-.42,.22-.9,.3-1.51,.49l1.55-1.4h-.02Z"
  />
  <path fill="#58b6d0" d="M194.89,236.41c-.66-.43-.93-1.27-.59-2.24l.58,2.25h.01Z" />
  <path fill="#58b6d0" d="M217.64,237.06l-.56-2.08c.73,.71,.82,1.06,.56,2.08Z" />
  <path fill="#58b6d0" d="M194.87,236.43l1.36,.95c-.59-.12-1.26-.14-1.35-.96h-.01Z" />
  <path fill="#58b6d0"
    d="M217.95,257.41c-1.08,.83-2.03,.66-2.9,.12-1.06-.66-1.95-.56-2.72,.32-1.77,.11-2.41-.22-2.23-1.17,1.08,.51,2.06,.37,2.88-.53l1.1-.16,2.06,1.21,1.47-.37,.66-1.44c.43,.58,.35,.99-.32,2.01Z"
  />
  <path fill="#58b6d0"
    d="M189.26,260.51c-.19,.27-.33,.63-.58,.79-.77,.49-1.1,1.16-1.05,2.05,.06,1.03,.14,2.05,.23,3.28l-.95-1.47,.13-.05c-.06-.49-.11-.99-.19-1.48-.26-1.59,.7-3.04,2.2-3.28l.21,.17Z"
  />
  <path fill="#58b6d0" d="M193.97,245.68l1.19,.14c-.51,.62-.88,.64-1.24,.19l.06-.33Z" />
  <path fill="#58b6d0"
    d="M220.61,264.54c-1.07,1.03-2.44,.31-3.59,.88l-.18-.28c.14-.18,.26-.5,.41-.51,1.12-.06,2.25-.06,3.37-.08Z"
  />
  <path fill="#58b6d0"
    d="M215.67,309.93c-1.85-1.37-2.03-3.38-2.02-5.42,0-.88-.02-1.8,.61-2.6,0,.24,.05,.48,0,.7-.34,1.59-.07,3.15,.32,4.68,.12,.48,.53,.9,.84,1.31,.32,.42,.65,.8,.23,1.33h.02Z"
  />
  <path fill="#58b6d0"
    d="M205.3,307.01c-.78,.34-1.21,.05-1.5-.45-.81-1.43-1.41-2.95-1.71-4.58-.06-.34-.02-.7,.08-1.08,.47,2.31,1.53,4.29,3.12,6.11Z"
  />
  <path fill="#58b6d0" d="M209.05,303.56c-.31-.75-.33-1.44,.07-2.79l-.09,2.8h.02Z" />
  <path fill="#58b6d0"
    d="M207.15,371.13l1.9-.03c.41-.62,.84-1.28,1.27-1.93l.17,.24,3.04-.78c-.62,1.14-1.45,1.56-3.25,1.69l-.9,1.98-.51-.39-1.71,.22c-.36,.52-.82,1.17-1.28,1.82-.28-.38-.3-.39,.28-1.4,.28-.49,.65-.94,.99-1.42Z"
  />
  <path fill="#58b6d0"
    d="M214.2,317.76c.06-.22,.05-.51,.2-.64,.9-.85,1.78-1.75,2.78-2.47,.42-.3,1.17-.44,1.76,.13-1.29,.31-2.28,1.72-2.16,2.98,.02,.2,.07,.4,.07,.6,0,1.91,.76,2.74,2.67,2.86,.2,.01,.4,.07,.59,.1,1.06,.19,1.88-.15,2.36-1.12,.34-.69,.56-1.44,.84-2.15,.09-.23,.24-.44,.42-.78l.75,.67c.3,1.61,.23,3.13-.14,4.6-.29,1.16-.86,2.21-1.67,3.14-.83,.96-1.55,2.02-2.33,3.04-.41,.53-.78,1.1-1.27,1.55-2.01,1.87-3.12,4.26-4.03,6.78-.15,.42-.41,.8-.62,1.21l-.21-.07,.07-1-1.53,.83c.85-1.1,1.75-1.86,2.21-3.11l-2.37,1.25-.13-.2,3.31-2.63,.74-1.32-.12-.16c-1.49,.89-2.98,1.79-4.46,2.68l-.16-.23c.38-.3,.74-.62,1.13-.9,1.27-.94,2.47-2.03,3.85-2.76,.9-.47,1.58-1.1,2.3-1.74,.18-.16,.3-.4,.33-.73-2.08,1.25-4.15,2.5-6.23,3.75l-.17-.18c.12-.16,.21-.37,.37-.47,2.22-1.41,4.42-2.85,6.69-4.19,1.51-.9,2.24-2.3,2.83-3.86-1.31,1.14-2.59,2.32-3.95,3.39-1.36,1.07-2.8,2.05-4.54,2.48,1.64-1.13,3.36-2.15,4.89-3.41,1.52-1.26,2.83-2.75,4.31-4.22l.15-.94c-.85,.75-1.51,1.59-2.63,1.86-.25,.06-.45,.4-.62,.64-1.02,1.42-2.6,2.11-4.01,3.01-.48,.31-1.01,.56-1.6,.69,1.46-1.74,3.77-2.48,5.19-4.47l-1.73-.13-2.98,1.81-.2-.23c.33-.35,.63-.72,.99-1.03,.37-.33,.8-.6,1.26-.93l-.45-.66-2.84,1.65-.15-.23c.49-.93,1.64-1.17,2.24-2.05l-.2-1.38c-.83,.52-1.62,1.02-2.41,1.51l-.17-.21c.55-1.42,2.47-1.85,2.7-3.81-.65,.53-1.15,.92-1.64,1.32l-.29-.12Z"
  />
  <path fill="#58b6d0"
    d="M205.87,320.41c-1.09,1.84-2.09,3.69-2.6,5.78-.08,.34-.49,.61-.75,.91l-.28-.1c-.06-.23-.21-.49-.15-.69,.68-2.34,1.96-4.31,3.79-5.91Z"
  />
  <path fill="#58b6d0"
    d="M204.36,329.55c-.82-.16-.85-.61-.66-1.04,.83-1.92,1.58-3.88,2.9-5.55,.09-.11,.24-.16,.4-.26-.89,2.33-1.76,4.58-2.63,6.85Z"
  />
  <path fill="#58b6d0"
    d="M208.4,325.73c0,.12,.04,.25,0,.36-.61,1.7-1.22,3.41-1.87,5.1-.17,.45-.28,1.11-1.18,.83,.42-2.4,1.57-4.41,3.05-6.3Z"
  />
  <path fill="#58b6d0"
    d="M206.83,334.39c.72-1.92,1.33-3.8,2.46-5.49,.17,.16,.26,.22,.25,.25-.54,1.62-1.07,3.24-1.63,4.85-.16,.46-.44,.76-1.09,.4Z"
  />
  <path fill="#58b6d0"
    d="M201.79,323.73h-.34c-.93-.65,1.73-4.46,3.37-5.36-.97,1.71-1.94,3.45-3.02,5.36Z"
  />
  <path fill="#58b6d0"
    d="M201.15,320.72c-.83-1.39,.96-4.03,3.37-5.37-.22,.78-.82,1.17-1.23,1.7-.45,.58-.88,1.19-1.25,1.83-.34,.59-.6,1.23-.89,1.84Z"
  />
  <path fill="#58b6d0"
    d="M208.57,335.38l1.75-2.93,.27,.12c-.41,.94-.55,1.99-1.21,2.83-.12,.16-.41,.18-.63,.27l-.19-.29Z"
  />
  <path fill="#58b6d0"
    d="M206.4,274.81c1.07-.44,2.46,.06,3.25-1.25l.39,.65c-1,.86-2.76,1.2-3.64,.6Z"
  />
  <path fill="#58b6d0"
    d="M149.61,295c.39-.4,.62-.73,.94-.95,1.83-1.22,3.43-2.68,4.89-4.33,.72-.81,1.4-1.61,1.92-2.55,.11-.2,.2-.4,.4-.51-.39,3.03-5.94,8.78-8.15,8.35Z"
  />
  <path fill="#58b6d0"
    d="M147.23,294.31c-.28-.67,.13-.88,.48-1.15,1.29-.97,2.6-1.92,3.84-2.95,1.05-.87,2.01-1.86,2.98-2.77,.22,.77-.55,1.26-.99,1.77-1.8,2.03-3.48,4.25-6.3,5.1Z"
  />
  <path fill="#58b6d0"
    d="M160.51,287.27c-1.39,3.77-3.49,6.89-7.62,8.2-.16-.72,.26-.89,.6-1.05,1.43-.66,2.54-1.7,3.66-2.8,1.16-1.13,1.99-2.44,2.87-3.74,.15-.21,.32-.41,.48-.61Z"
  />
  <path fill="#58b6d0"
    d="M163.09,288.16c.33,2.09-3.89,6.86-5.94,6.74,.15-.22,.23-.46,.39-.56,2.33-1.48,4.21-3.36,5.33-5.93,.03-.06,.08-.1,.21-.26Z"
  />
</svg>
