<?xml version="1.0" encoding="UTF-8"?>
<svg
  id="Layer_1"
  xmlns="http://www.w3.org/2000/svg"
  viewBox="0 0 419.53 595.28"
>
  <path fill="#58b6d0"
    d="M83.38,235.21c.05-1.14,.13-2.04,.13-2.93,0-2.46-.03-4.91-.04-7.37,0-1.7,.01-3.4-.03-5.09,0-.37-.21-.74-.25-.88,.03-1.28,.07-2.33,.09-3.38,.06-2.85,.15-5.71,.15-8.56,0-2.5-.11-5-.14-7.5-.06-5.19-.08-10.38-.15-15.57-.02-1.81-.17-3.62-.21-5.44-.02-.66,.11-1.33,.19-2.2,.78-.19,1.52-.49,2.27-.52,1.5-.05,3,.07,4.5,.08,2.55,.02,5.1-.01,7.65,0,2.01,.02,4.02,.11,6.03,.13,1.73,.02,3.46-.04,5.19-.04,1.74,0,3.49,.02,5.23,.05,2.4,.04,4.8,.14,7.21,.15,3.97,.01,7.93-.04,11.9-.04,3.21,0,6.43,.08,9.64,.1,3.29,.02,6.58,.02,9.87,.02,4.32,0,8.64-.03,12.96-.04,3.2,0,6.41,.03,9.61,0,1.82-.01,3.63-.12,5.45-.15,2.1-.03,4.19-.03,6.29,0,2.13,.03,4.27,.16,6.4,.16,5.51,0,11.01-.09,16.52-.08,3.64,0,7.29,.16,10.93,.16,3.15,0,6.29-.14,9.44-.19,2.27-.03,4.54,0,6.81-.01,3.59-.02,7.19-.04,10.78-.09,1.49-.02,2.98-.14,4.47-.16,1.3-.02,2.6,0,3.9,.07,2.35,.12,4.69,.16,7.05,.08,2.87-.09,5.76,0,8.63,.02,.91,0,1.81,0,2.72,0,2.87,0,5.74,.05,8.6,.01,2.25-.03,4.49-.14,6.74-.22,1.14-.04,1.63,.42,2.1,1.49,.67,1.53,.5,3.13,.53,4.7,.08,4.91,.01,9.83,.03,14.75,.02,6.99,.05,13.98,.08,20.97,0,2.78-.02,5.56,.02,8.34,.06,4.33,.18,8.65,.22,12.98,.03,2.3-.03,4.61-.07,6.91,0,.43-.1,.85-.17,1.37l2.5,1.07c2.32-.34,4.34-.61,6.35-.93,2.11-.34,4.22-.73,6.33-1.11,.46-.08,.94-.25,1.15,.55-4.43,.71-8.81,1.4-13.36,2.13,.42,1.18,.83,2.33,1.28,3.62,3.47,.71,6.91-.73,10.55-.86-.14,.18-.18,.31-.26,.33-2.36,.49-4.72,1.01-7.1,1.43-.88,.15-1.8,.05-2.7,.05-.27,0-.54-.04-.88-.06l-.47,1.04,1.5,.94c.81,1.6,1.33,1.93,2.48,1.68,1.81-.38,3.61-.77,5.43-1.1,2.71-.5,5.43-.91,8.12-1.45,.96-.19,1.87-.64,2.79-.99,1.11-.41,2.22-.81,3.3-1.27,.93-.4,1.82-.89,2.67-1.41,.88-.64,1.75-1.29,2.63-1.92,.98-.7,2.05-1.31,2.95-2.11,1.44-1.26,2.8-2.61,4.13-3.98,.34-.35,.44-.94,.75-1.64l-3.04,.54,.06,.16c-1.02,.38-2.04,1.05-3.06,1.06-1.07,.01-2.02,1.02-3.42,.25,2.02-.59,3.84-1,5.56-1.67,1.72-.67,3.43-1.23,5.51-1.48-.47,1.14-.85,2.08-1.3,3.16-1.61,1.57-3.24,3.35-5.06,4.91-1.31,1.12-2.89,1.93-4.31,2.93-.99,.69-1.91,1.45-3.1,1.81-.71,.21-1.38,.53-2.06,.85-1.49,.55-2.99,1.09-4.48,1.64l-.02,.23c.43,.07,.87,.21,1.3,.2,1.82-.06,3.64-.13,5.46-.25,3.03-.2,6.06-.41,9.09-.66,1.57-.13,3.14-.4,4.71-.52,.66-.05,1.41-.21,1.99,.46-.18,.55-.34,1.07-.58,1.79-1.36,1.01-2.89,2.07-4.33,3.24-2.14,1.74-4.61,2.7-7.23,3.42-1.44,.4-2.81,1.07-4.26,1.44-2.98,.78-5.98,1.54-9,2.12-1.64,.31-3.36,.23-5.04,.35-.5,.03-.99,.14-1.49,.21l-.02,.29c1.01,.21,2.01,.48,3.03,.6,2.32,.27,4.64,.53,6.96,.67,1.84,.11,3.69,.02,5.54,.02,1.5,0,3,.04,4.51,.03,1.34,0,2.68-.06,4.01-.08,.57-.01,1.15-.01,1.89-.02-.15,.59-.13,.99-.32,1.24-.93,1.21-1.75,2.54-3.23,3.2-.32,.14-.63,.34-.92,.55-1.72,1.3-3.57,2.24-5.74,2.58-1.22,.19-2.42,.57-3.58,1-1.83,.67-3.73,.61-5.62,.66-2.81,.07-5.62,.19-8.42,.12-2.85-.07-5.69-.35-8.54-.56-.38-.03-.75-.23-1.14-.31-.24-.05-.5-.03-.74-.04l-.1,.27c.49,.27,.95,.6,1.47,.79,1.67,.61,3.36,1.19,5.06,1.75,1.01,.34,2.03,.63,3.05,.94,1.02,.31,2.03,.68,3.07,.9,2,.42,4.02,.75,6.03,1.13,1.43,.27,2.86,.59,4.29,.84,.74,.13,1.1,.53,1.21,1.27-.48,.63-.99,1.16-1.85,.81l-1,1.14c-1.14-.24-1.92,.32-2.32,.84-6.24,2.97-12.3,2.26-18.51,.52l-.1,2.21c1.71,.83,3.38,1.73,5.13,2.43,1.02,.41,1.95,.85,2.67,1.69,.13,.15,.36,.22,.66,.39-2.44,2.02-5.33,1.99-8.27,2.25-.04,.43-.11,.85-.1,1.26,.03,3.34,.1,6.67,.11,10.01,.01,3.05-.05,6.1-.05,9.15,0,7.02,.03,14.04,.03,21.05,0,2.89-.08,5.78-.06,8.66,.03,4.6,.11,9.2,.16,13.8,.04,3.81,.07,7.62,.07,11.43,0,2.22-.1,4.44-.13,6.66-.01,.87,.05,1.74,.06,2.61,.02,1.74,.03,3.48,.05,5.44l-.3,.25-33.3,.28-.84-.59c-.07,.08-.14,.16-.2,.25-.71,1.13-1.42,2.27-2.12,3.4-.08,.13-.19,.27-.22,.42-.21,1.14-1.04,1.62-2.12,1.96l-1.46-.23-.7-.78c-.88,1.11-1.89,2.14-2.58,3.35-.75,1.31,.53,2.66,.32,3.89-1.13,1.64-2.1,3.2-3.25,4.63-.7,.88-1.65,1.56-2.52,2.29-1.33,1.12-2.69,2.2-4.02,3.29-.86-.23-1.61-.44-2.34-.64l-.58-.94c-.99-.08-1.53,.34-1.39,1.34,.18,1.26-.33,2.23-.97,3.44-3.25,1.33-6.64,2.72-9.86,4.04-1.58-.49-2.9-.91-4.23-1.32l-.24-.9c-1.61,.35-3.22,.7-4.88,1.06-.36,.57-.74,1.23-1.18,1.87-.87,1.26-2.29,1.11-3.55,1.27-1.18,.14-2.37,.15-3.56,.17-.38,0-.76-.14-1.2-.22-1.5,.42-5.91-.62-7.65-1.88,0-.21,.01-.49-.01-.76-.02-.23-.08-.45-.15-.8-1.16-.2-2.32-.41-3.58-.63-.22,.28-.52,.55-.67,.9-.39,.9-1.08,1.26-2,1.11-.97-.15-1.97-.3-2.87-.64-1.62-.62-3.21-1.35-4.77-2.1-.59-.29-1.1-.77-1.62-1.19-.55-.45-1.07-.93-1.8-1.57l-.77-4.15-1.53-1.02c-.92,.45-1.78,1.03-2.73,1.28-1.09,.3-1.95-.46-2.43-1.31-.82-1.46-2.2-2.37-3.21-3.62-1.13-1.39-2.38-2.74-3.02-4.49-.24-.66-.65-1.26-.92-1.92-.11-.28-.05-.63-.08-.99l1.24-1.43c-.46-.88-.94-1.78-1.48-2.82l-2.36-.17q-1.27-.18-3.85-3.67c-4.83,.04-9.74,.09-14.65,.12-3.24,.02-6.48,0-9.72,.01-3.05,0-6.1,.05-9.14,.02-1.7-.01-3.41-.16-5.11-.17-4.72-.02-9.44,0-14.17,.02-2.22,0-4.43,.07-6.65,.06-2.29-.01-4.57-.12-6.86-.14-2.16-.02-4.32,.03-6.51,.05l-1.47-1.54c-.29-5.83-.05-11.72-.56-17.81,.05-.39,.22-1.04,.21-1.69-.02-3.5-.07-6.99-.14-10.49,0-.44-.21-.88-.31-1.28,.1-.65,.28-1.29,.28-1.92-.03-6.16-.1-12.32-.13-18.47-.02-4.05,.05-8.1,.03-12.15-.01-2.85-.11-5.71-.15-8.56-.03-2.14-.04-4.28-.06-6.43l-.64-.53c1.07-1.2,.69-2.66,.72-3.98,.06-2.25-.14-4.51-.18-6.77-.09-4.64-.16-9.29-.21-13.93-.06-5.44-.07-10.88-.13-16.32-.04-4.43-.09-8.87-.18-13.3-.02-1.16-.22-2.32-.39-3.97,.54-1.08,.27-2.77,.31-4.41,.06-2.1,.02-4.2-.02-6.3-.01-.82-.13-1.65-.19-2.34Zm194.66,133.2v-.03l-.34,1.68,.73,.38-1.33,.7c-.76,0-1.59,.03-2.42,.02-2.88-.05-5.76-.09-8.65-.18-.93-.03-1.85-.16-3.07-.27l-.94,1.8,.12,.08-1.01,.77-1.17-.06c-.64,1.53-1.1,3.09-1.19,4.68l1.4,1.21,23.46-.19c-.06-25.47-.13-50.96-.19-76.71-1.53,1.22-3.13,.4-4.86,.73-.02,10.75-.13,21.51-.06,32.27,.07,10.73,.01,21.46,0,32.15l-.87-.08-.19,.25,.57,.8Zm3.56-92.09c1.36,1.11,2.89,1.33,4.59,.99,2.83-.58,4.21-2.69,3.54-5.52l-1.82-.82,.08-.3c.2-.03,.44-.16,.6-.09,1.7,.79,3.42,.81,5.18,.26,.72-.23,1.32-.53,1.59-1.3,.41-1.19,.84-2.38,1.23-3.47l-.96-1.29-1.3-.27,2.09-1.93c1.28-2.05,1.47-2.63,1.23-4.22h-1.64l-.02-.26,1.83-.64-1.58-2.2-3.25,1.58-.26-.33c1.26-.88,2.21-1.88,2.61-3.43,.48-1.88-1.01-2.81-1.48-4.11-.8-.39-1.51-.73-2.22-1.07l-1.99,.31c-1.08-.24-2.16-.26-3.25-.34-1.53-.1-2.97,.18-4.39,.76-1.19,.49-2.44,.82-3.67,1.22-.31,.05-.55,.28-.84,.4-1.56,.66-3.13,1.29-4.69,1.95-1.42,.6-2.78,1.28-3.54,2.75-.25,.48-.64,.89-.97,1.33-.14,.87-.47,1.65-.81,2.42-.14,.32-.44,.63-.46,.95-.07,1.32-.66,2.34-1.68,3.21,.13,1.29-.81,1.96-1.6,2.73-1.12,1.08-2.44,1.83-3.97,2.12-1.19,.23-2.4,.38-3.62,.57-.05,.26-.11,.46-.11,.65,.05,1.86,.1,3.7-.49,5.51-.59,1.8-1.01,3.65-1.62,5.44-.56,1.68-1.25,3.31-1.91,4.96-.16,.4-.36,.82-.64,1.13-.95,1.03-1.96,1.98-2.84,3.09-1.33,1.65-2.91,3.1-4.36,4.66-.15,.16-.2,.42-.34,.74l2.31,3.94-.29,.19c-.88-1.22-1.75-2.43-2.66-3.7-1.11,.59-2.11,1.1-2.68,2.53l1.22,.66-.23,1.22c.84,1.08,1.6,2.14,2.45,3.13,1.04,1.2,2.3,2.17,3.77,2.79,1.37,.58,2.75,1.21,4.19,.84,1.21-1.27,.91-2.8,1.22-4.02-.51-.99-1.11-1.82-1.38-2.75-.51-1.78-.84-3.61-1.24-5.43,0-.04,.09-.1,.2-.22,.75,1,1.32,2.03,1.55,3.27,.26,1.43,.4,2.92,1.61,3.99,.65,.57,1.16,1.3,1.83,1.85,1.85,1.5,3.86,2.74,6.19,3.36,.66,.18,1.19-.05,1.48-.69,.4-.89-.03-2.82-.72-3.55-.43-.46-.89-.92-1.2-1.46-1.3-2.27-2.56-4.57-3.81-6.87-.13-.23-.16-.51-.23-.77l.25-.1c.91,1.42,1.82,2.85,2.75,4.27,.92,1.42,1.73,2.94,2.83,4.2,1.69,1.92,3.87,3.21,6.3,4.04,.52,.18,1.07,.28,1.7,.44l1.63-.64c-.42-1.83-.82-3.59-1.19-5.19-2.68-2.09-6.39-5.98-6.59-6.97,.39,.28,.73,.47,1.03,.72,2.07,1.78,4.14,3.58,6.2,5.37,.41,.36,.75,.88,1.22,1.08,1.42,.59,2.85,1.19,4.34,1.55,2.02,.49,4.07,.55,5.93-.87-.09-.15-.15-.35-.28-.47-1.81-1.66-3.63-3.3-5.45-4.95-.41-.37-.89-.68-1.24-1.1-1.6-1.86-3.2-3.74-4.75-5.64-.51-.63-1.09-1.02-1.76-1.04-1.24,.68-2.36,1.3-3.61,1.98l1.78,2.41-.21,.15c-.69-.75-1.37-1.52-2.1-2.24-.36-.35-.79-.64-1.24-.87-1.05-.53-2.14-.99-3.2-1.52-.2-.1-.28-.41-.47-.68,1.02-.39,1.18,.52,1.63,.84,.91,.21,1.8,.39,2.68,.63,1.88,.52,4.28-1.12,4.34-2.85,.03-.96,.23-1.91,.34-2.78,1.11,.33,2.37,.75,3.64,1.07,.95,.24,1.9,.09,2.78-.35,2.9-1.44,4.83-3.57,4.91-7l-.02,.02Zm-58.66-28.66c.37,.35,.77,.67,1.12,1.04,1.3,1.36,2.59,2.74,3.89,4.11l2.45-.68c-1.56-1.81-3.03-3.5-4.5-5.19l.23-.21c1.86,1.61,3.47,3.48,5.08,5.34l2.64-.91c-1.56-1.68-3.02-3.27-4.49-4.85l.18-.16c1.98,1.31,3.48,3.12,4.88,4.87l4.73-1.28c-.03-1.2-.56-2.15-1.36-2.92-.47-.45-1.1-.75-1.67-1.08-.99-.58-1.92-1.34-2.99-1.65-2.72-.8-5.5-1.41-8.26-2.06-.42-.1-.87-.12-1.3-.08-1.1,.1-2.2,.26-3.5,.42-1.7,2.94-4.22,5.11-7.87,5.93l-.92-.77,1.38-1.59c-.46-.88-.86-1.78-1.38-2.62-.52-.84-1.16-1.61-1.75-2.41,1.76,1.28,2.77,3.1,3.72,5.07l1.52-.51c0-1.56-1.44-2.39-1.81-3.67l.35-.18,2.07,3.31c1.06-.69,1.93-1.52,2.2-2.43-.19-1.8-.34-3.29-.52-5.03-.98-.47-2.17-1.09-3.4-1.61-2.33-.99-4.76-1.51-7.3-1.27-.74,.07-1.62,.12-2.17,.54-2.77,2.08-6.3,3.31-7.77,6.86-.03,.07-.08,.15-.14,.19-1.29,1.04-1.79,2.53-2.48,3.96-1.27,2.63-2.27,5.34-2.9,8.18-.21,.96-.57,1.9-.7,2.88-.17,1.28-.24,2.59-.26,3.89-.03,2.1-.09,4.2,.07,6.29,.18,2.39,.71,4.76,.85,7.15,.1,1.82,.38,3.59,.68,5.38,.33,1.95,.47,3.94,.67,5.91,.06,.59,.02,1.18,.02,1.78,.11,.71,.48,1.42,.52,2.15,.14,3.02-.06,6.03-.82,8.96-.59,2.32-1.32,4.61-1.99,6.9-.52,1.74-1.1,3.47-1.57,5.22-.4,1.5-.41,3.02,.16,4.41,1.04,.11,1.96,.39,2.83,.27,2.35-.31,4.7-.7,7.02-1.2,2.36-.52,4.67-1.21,7-1.83,.61-.1,1.19-.34,1.78-.54,1.04-.34,2.1-.6,3.12-.97,1.33-.47,2.63-1,3.94-1.53,.66-.26,1.28-.61,1.94-.86,1.28-.49,2.65-.79,3.84-1.44,1.2-.65,2.22-1.62,3.33-2.43,.5-.37,1.04-.68,1.55-1.04,.4-.29,.78-.61,1.24-.98-.7-1.17-1.83-1.34-2.89-1.87l-.68,1.36-2.47,2.03,.09,.14-1.52,.39c-.04-.52-.15-.9-.08-1.24,.19-.92,.41-1.84,.71-2.73,.28-.81,.56-1.67,1.06-2.35,1.33-1.77,2.47-3.58,2.33-5.99l1.5-.84c.35,1.62,.65,2.99,.99,4.56,3.19,.06,5.55,1.71,7.18,4.56,1.91-1.39,3.69-2.7,5.48-4,1.45-1.08,2.83-2.25,4.19-3.45,.65-.57,1.29-1.17,1.88-1.81,1.17-1.28,2.34-2.57,3.45-3.91,.96-1.16,2-2.29,2.73-3.59,.82-1.46,1.39-3.08,1.98-4.65,.97-2.56,1.88-5.15,2.05-7.91,.08-1.38-.14-2.77-.04-4.14,.15-2.15-.02-4.28-.63-6.32-.4-1.33-.83-2.75-2.08-3.66-.66-.48-1.32-.98-1.87-1.58-1.81-1.97-4.09-3.14-6.63-3.7-1.4-.31-2.96-.43-4.36-.15-2.3,.46-4.53,1.33-6.79,2-.3,.09-.63,.05-.94,.1-.47,.07-.95,.11-1.39,.26-3.09,1.05-6.21,1.2-9.32,.24-1.08-.33-2.09-.91-3.08-1.46-.24-.13-.46-.6-.42-.88,.03-.24,.43-.43,.58-.56,1.92,.88,3.57,1.97,5.86,1.71-.95-1.38-1.77-2.57-2.58-3.76l.22-.18c1.2,1.45,2.4,2.91,3.58,4.33,.96-.28,1.9-.08,2.63-.9-.55-.61-1.1-1.17-1.58-1.79-.82-1.05-1.59-2.14-2.38-3.21l.08-.07Zm-89.63,47.08c.28-.21,.54-.45,.84-.64,1.93-1.22,3.86-2.42,5.8-3.63-.29-1.75,.8-3.46,.06-5.22-1.72,.27-2.44,1.63-3.39,2.71-1.07,1.21-2.2,2.36-3.24,3.6-.63,.75-1.19,1.58-1.67,2.43-.17,.3-.02,.78-.02,1.19l1.64-.45-2.4,1.57c-.18-.19-.47-.37-.45-.51,.13-.88,.21-1.81,.55-2.62,.33-.78,.95-1.44,1.43-2.13,2.19-1.82,3.66-4.21,5.28-6.32l-.19-1.22,.21-.05,.52,1.09c1.46-.22,4.73-2.15,5.73-3.39-.22-.28-.42-.62-.71-.86-.4-.34-.45-.59-.01-.9l1.73,1.16c1.35-.67,4.31-3.44,5.11-4.42,.4-.49,.8-.99,1.17-1.5,.52-.74,.89-1.54,.77-2.79l-4.56,2.8,.26,1.15c-.81,.69-.89-.37-1.46-.51-1.99,.7-4.08,1.43-6.16,2.17-1.71,.6-3.43,1.19-5.12,1.83-.39,.15-.77,.42-1.07,.72-1.03,1.03-2.07,2.06-3.02,3.17-1.52,1.76-3.19,3.37-4.4,5.42-.87,1.48-2.08,2.82-3.37,3.97-1.41,1.26-2.76,2.49-3.42,4.32-.12,.33-.47,.57-.86,1.02-.06-.42-.12-.55-.08-.64,.96-1.99,2.2-3.74,4-5.09,.95-.71,1.73-1.6,2.04-2.8-.73,.55-.93,1.6-2.14,2.05,1.4-2.27,2.44-4.39,2.01-7.17l-2.3,1.84-.27-.26c.52-.84,1.36-1.42,1.94-1.94,.94-1.82,1.8-3.47,2.58-4.98,0-.65-.03-1.12,0-1.58,.1-1.81-.18-3.56-.74-5.28-.22-.67-.57-1.24-1.56-1.02-.82,1.94-2.03,3.77-2.49,5.92-.09,.42-.05,.88-.2,1.28-.94,2.56-2.06,5.04-3.49,7.36-.27,.43-.6,.84-.8,1.3-.44,1.01-.73,2.1-1.23,3.07-1.18,2.26-1.66,4.84-3.3,6.89-.91,1.14-1.58,2.47-2.5,3.6-.92,1.12-1.29,2.41-1.74,3.72-.44,1.3-1.02,2.55-1.54,3.82-.19,.47-.39,.95-.58,1.42-.56,1.42-1.12,2.84-1.68,4.27l-.27-.07c-.33,4.29,.1,8.58,.09,12.86l.73,1.81c1.34-.01,2.67-.03,4-.03,3.49-.02,6.98-.02,10.47-.06,2.89-.03,5.78-.06,8.66-.17,1.02-.04,2.21,.01,3-.49,2.01-1.27,3.85-2.81,5.73-4.27,.36-.28,.6-.7,.93-1.03,1.09-1.08,1.64-2.65,3.05-3.43,1.42-.78,2.89-1.49,4.33-2.25,.38-.2,.79-.39,1.08-.69,1.46-1.48,2.89-3,4.2-4.37,1.8-.97,3.52-1.86,5.19-2.82,.29-.16,.4-.62,.61-.94,.06-.09,.15-.17,.26-.28l.79,.35c3.15-2.12,4.27-3.42,5.64-6.56,.08-.18,0-.42,0-.82-1.19,.71-2.24,1.34-3.45,2.06l-.36,2.07-.24-.04-.27-1.48c-.41,.2-.68,.34-.95,.46-.92,.43-1.82,.93-2.78,1.25-1.83,.61-3.76,.95-5.53,1.69-2.54,1.06-4.98,2.38-7.46,3.58-.31,.15-.65,.24-1.21,.44,.57-.89,.88-1.59,.87-1.82l-.54-.03c.75-.66,1.48-1.3,2.21-1.93,.27-.23,.56-.44,.84-.66,1.76-1.34,3.52-2.68,5.28-4.02,1.2-.91,2.39-1.77,3.85-2.3,2.18-.79,4.31-1.76,6.39-2.81,1.34-.67,2.48-1.71,3.81-2.42,1.36-.73,2.39-1.65,2.89-3.14,.14-.4,.43-.75,.7-1.21,.2,.27,.33,.37,.32,.45-.21,1.44-.67,2.79-1.9,3.68-2.56,1.83-5.15,3.64-8,5.01-.22,.11-.4,.32-.79,.64l3.46-.03c.75,.38,1.76,.2,2.7-.46l1.43,.61,2.23-.02,1.37,1.47c-.07,1.54-.22,3.19-.22,4.85,.01,3.81,.1,7.61,.16,11.41,.04,2.73,0,5.47,.15,8.2,.06,1.06-.02,2.02-.46,3.16-9.11-.05-18.25-.1-27.51-.15-.64-2.26,.14-4.56-.56-6.9-2.01,2.74-5.04,3.94-7.47,5.86l-.46,1.26-26.9,.22-1.32-1.66c-.01-1.47-.02-3.01-.04-4.54-.03-2.33-.1-4.67-.1-7,0-2.18,.03-4.36,.06-6.54,.04-3.2-.64-6.47,.83-9.53,1.35-.39,2.67-.65,3.82-.3l1.95-.35c1.17-2.25,3.1-4.2,3.72-7.01-.48-.08-.82-.17-1.17-.18-2.1-.06-4.21-.07-6.31-.16-.72-.03-1.43-.22-2.15-.34l.06-.23-.95-1.33c0-1.14-.03-2.16-.02-3.18,.03-3.01,.14-6.02,.09-9.03-.07-4.4-.08-8.79,.58-13.15,.05-.33,.19-.65,.34-1.14,2.24-.02,4.42-.04,6.6-.05,5.07-.03,10.13-.05,15.2-.06,1.84,0,3.71-.3,5.7,.54l.51,3.14c-.12,.71-.26,1.29-.3,1.87-.13,2.25-.26,4.51-.32,6.77-.02,.9,.1,1.81,.23,2.71,.06,.43,.28,.83,.47,1.37,1.99-2.22,4.66-2.6,7.3-3.55-.01-1.57,0-3.18-.05-4.79-.04-1.42-.22-2.84-.17-4.25,.03-.92,.37-1.84,.57-2.75l1.32-.15c.57-.38,1.15-.84,1.78-.91,1.25-.13,2.53-.02,3.8-.05,1.9-.04,3.79-.11,5.69-.17-1.7-.64-3.41-1.03-5.1-1.53-1.66-.49-3.32-1.03-4.94-1.64-2-.76-3.49-2.3-5.14-3.58-.41-.32-.67-.82-1.18-1.47l4.51-1.01-.52-2.76c-3.01-1.64-6.05-3.29-9.16-4.99,.03,.19,0,.41,.09,.46,1.21,.79,.87,1.97,.85,3.11-.03,1.73,.03,3.47,.03,5.2,0,.29-.1,.57-.18,.94-9.38,.99-18.67,.12-28.16,.46-.12-.91-.34-1.75-.34-2.59,0-3.41,.07-6.81,.1-10.22,.02-2.89,0-5.78,.05-8.67,.02-1.15,.52-2.18,1.06-3.1,.74,0,1.33,.03,1.91-.02,.82-.07,1.64-.28,2.46-.29,1.59-.02,3.18,.11,4.77,.08,3.49-.06,6.99-.17,10.48-.27,.36-.01,.73-.09,1.38-.18-1.16-1.26-2.3-2.18-3.01-3.35-.72-1.19-1.01-2.64-1.5-4.01-.22,0-.46,0-.69,0-1.9,.09-3.79,.22-5.69,.27-2.77,.06-5.55,.01-8.32,.11-.95,.03-1.81,0-2.67-.68l-.5-.91c.08-.6,.19-1.15,.21-1.7,.06-2.14,.1-4.28,.13-6.42,.05-3.49,.06-6.99,.14-10.48,.05-1.97,.22-3.93,.37-6.34l-3.01-3.14c-.11,.74-.22,1.2-.23,1.65-.03,2.1-.02,4.2-.05,6.3-.05,3.08-.14,6.16-.18,9.24-.08,5.88-.12,11.76-.2,17.63-.02,1.47-.14,2.93-.13,4.4,.02,2.24,.14,4.48,.16,6.72,.02,2.29-.08,4.57-.07,6.86,.01,2.69,.14,5.39,.13,8.08-.02,4.13-.14,8.25-.16,12.38-.03,6.35-.03,12.7-.02,19.05,0,2,.08,4,.08,5.99,0,1.39-.09,2.77-.09,4.16,0,3.18,.05,6.35,.06,9.53,0,3.64,0,7.28,0,10.92,0,.55,.04,1.1,.01,1.65-.07,1.59-.16,3.18-.24,4.77,.03,.81-.1,1.59-.12,2.37-.01,.8,.09,1.6,.15,2.4h-.05v1.65l-.51,1.12,.84,.5c.02,2.1,.06,4.2,.05,6.3-.04,4.25-.13,8.49-.15,12.74-.01,2.3,.09,4.6,.09,6.9,0,2.79-.09,5.58-.09,8.37,0,.49,.23,.97,.38,1.53l2.75-.02c.09-.25,.18-.4,.18-.55,.03-2.34,.06-4.68,.05-7.03-.01-2.46-.08-4.92-.11-7.37-.03-3.57-.1-7.13-.04-10.7,.03-1.59-.15-3.26,.85-4.75,.16-.03,.36-.08,.55-.08,3.06-.02,6.11-.01,9.17-.05,3.57-.04,7.15-.11,10.72-.18,1.54-.03,3.08-.2,4.62-.15,1.1,.04,2.3-.34,3.08,.3,.02,2.57,.03,4.9,.06,7.22,.05,4.13,.1,8.26,.18,12.4,.06,2.82,.18,5.63,.24,8.45,.02,1.13-.06,2.26-.11,3.84,.75,1.57,3.87,1.87,6.74,.18,.02-.2,.07-.44,.08-.67,.1-2.69,.21-5.38,.28-8.07,.04-1.61,.05-3.23,.02-4.84-.04-3.05-.1-6.1-.18-9.15-.06-2.05-.23-4.11-.24-6.16,0-2.11,.55-3.63,3.23-3.48,1.06,.06,2.13-.05,3.19-.09,.99-.04,1.97-.13,2.96-.12,2.4,.02,4.8,.11,7.21,.13,2.01,.02,4.01-.03,5.65-.04,.98-.76,1.63-1.45,2.42-1.83,1.98-.96,4.05-1.72,6.04-2.66,1.74-.82,3.42-1.78,5-2.61,.05-.36,.08-.48,.08-.6,.01-3.8,.01-7.6,.04-11.39,.01-1.62,.12-3.24,.13-4.85,.01-2.3-.02-4.59-.04-6.89-.01-1.93-.03-3.85-.05-6.04,.33-.09,.79-.33,1.25-.34,2.06-.04,4.13-.02,6.19-.02,1.44,0,2.89,.01,4.33,.01,.77,0,1.55-.01,2.51-.02,.49-2.17,.94-4.19,1.44-6.41-.63-.15-1.13-.36-1.64-.37-.99-.02-1.98,.13-2.97,.11-3.01-.06-6.03-.16-9.04-.28-.57-.02-1.14-.21-1.77-.34-.16-2.94-.31-5.76-.45-8.48-2.57,.69-5.07,1.35-7.45,1.98-.84,1.21-1.65,2.39-2.46,3.56l.19,.11,1.86-.69,.17,.35c-.31,1.09-1.46,1.04-2.28,1.39-.9,.39-1.86,.61-2.84,.92-.1,.49-.25,.95-.27,1.41-.03,.53-.1,.93-.93,.93l.24-2.3-1.83,.91h-.83l-3.07,1.41-.06,1.27-.22,.05-.67-1.04c-.82,.31-1.66,.64-2.5,.96-1.32,.5-2.76,.87-3.02,2.61-.01,.09-.23,.15-.43,.27l-.44-1c-.67,.34-1.3,.66-1.93,.99-1.6,.86-3.24,1.63-4.56,2.94-.5,.5-1.11,.92-1.73,1.26-.77,.43-1.61,.74-2.42,1.1l-.18-.32c.26-.19,.5-.43,.79-.55,.81-.34,1.5-.79,2.15-1.4,.92-.86,1.88-1.71,2.94-2.37,1.8-1.12,3.53-2.34,5.58-3.07,2.33-.83,4.52-2.03,6.84-2.92,2.42-.93,4.9-1.71,7.37-2.51,1.8-.59,2.29-2.19,3.19-3.68-1.64-.37-2.79,.53-4.04,.8l-.44,1.53-.66-1.17c-2.95,.23-5.85,.46-8.48,.66-.76,.77,.49,1.6-.56,2.1l-.81-1.87c-2.33,.51-4.57,1-6.98,1.53,.84,1.29,.41,2.2-.33,3.28-.14-1.15,.72-2.3-.53-3.09-.49,.27-.96,.58-1.46,.8-1.92,.83-3.85,1.64-5.78,2.45-1.02,.42-2.04,.82-3.07,1.23Zm151.15-47.71l6.57-.05c.02-.16,.07-.35,.08-.55,.12-3.33,.33-6.66,.33-9.98,0-3.73-.2-7.46-.25-11.2-.06-4.01-.07-8.01-.07-12.02,0-2.53,.07-5.06,.06-7.59-.02-4.32-.1-8.64-.13-12.96-.03-4.45-.02-8.9-.02-13.35,0-.5,0-1-.01-1.53-1.39-.07-2.57-.18-3.75-.19-2.69-.03-5.38,0-8.07-.02-3.88-.03-7.76-.09-11.63-.12-2.53-.02-5.06,.02-7.59,0-3.73-.02-7.45-.12-11.18-.1-6.71,.03-13.41,.14-20.12,.19-5.43,.04-10.86,.04-16.29,.05-4.47,0-8.95,.04-13.42,.01-3.32-.02-6.65-.19-9.97-.18-4.76,0-9.51,.1-14.27,.15-1.86,.02-3.72,0-5.58,0-1.63,0-3.25,0-4.88,.02-1.9,.02-3.8,.08-5.7,.09-2.34,.01-4.68-.03-7.02-.01-3.21,.02-6.43,.11-9.64,.1-4.98-.02-9.97-.11-14.95-.16-3.12-.03-6.24-.06-9.36-.09-.77,0-1.55-.05-2.32-.06-2.29-.03-4.57-.06-6.86-.06-1.78,0-3.56,.03-5.19,.04l-18.43-.29c-.05,.4-.1,.7-.11,1-.04,2.06-.1,4.11-.11,6.17-.02,2.54-.01,5.08,0,7.62,.05,6.27,.12,12.53,.18,18.8,.02,2.1,.02,4.2,.05,6.3,.05,3.49,.15,6.98,.17,10.46,.02,4.15-.03,8.31-.01,12.46,.01,3.01,.11,6.01,.14,9.02,.04,3.48,.05,6.96,.09,10.43,.07,5.56,.18,11.11,.23,16.67,.05,5.28,.06,10.56,.09,15.84,.04,4.98,.11,9.95,.13,14.93,0,2.2-.1,4.4-.09,6.59,.01,3.44,.08,6.88,.13,10.32,.04,2.93,.09,5.86,.13,8.79,.06,4.52,.13,9.05,.19,13.57,.06,4.09,.1,8.18,.17,12.27,.07,3.96,.19,7.93,.25,11.89,.04,2.57-.01,5.15-.02,7.72,0,1.42,.19,2.88-.04,4.26-.22,1.34,.43,2.32,.64,3.38,1.02,.09,1.87,.23,2.72,.23,1.54,0,3.07-.16,4.61-.12,2.73,.06,5.46,.24,8.19,.3,2.52,.06,5.04,.05,7.57,.05,3.12,0,6.25,0,9.37,0,1.23,0,2.46-.05,3.69-.03,3.33,.05,6.65,.19,9.98,.19,4.39,0,8.78-.14,13.17-.17,3.57-.03,7.14,.03,10.71,.03,.45,0,.89-.05,1.31-.07-.93-2.28-1.79-4.42-2.68-6.6-2.27-.08-4.61-.21-6.94-.24-5.71-.07-11.42-.09-17.13-.13-5.92-.05-11.83-.13-17.75-.15-5.44-.02-10.87,.02-16.31,.03-.49,0-.95-.05-1.1-.83,.43-.11,.82-.29,1.21-.3,.95-.03,1.91,.02,2.86,.03,6.48,.06,12.96,.12,19.44,.16,2.18,.01,4.35-.08,6.53-.08,2.97,0,5.94,.06,8.92,.1,2.38,.04,4.76,.16,7.14,.12,3.01-.04,6.02-.25,9.03-.3,1.6-.03,3.2,.13,4.92,.21l1.33-1.15-1.68-2.05c-1.84,.41-3.47,.31-4.97-.76-1.52-1.09-2.19-2.58-2.19-4.35-.58,.08-1.08,.22-1.57,.19-1.77-.08-3.54-.23-5.31-.33-.8-.05-1.51,.03-2.2,.63-.83,.72-1.81,1.21-3.01,1.29-1.98,.12-3.68-.35-5.08-1.88-8.09-.11-16.19-.23-24.28-.34-.5,.06-.98,.07-1.47,.07-.86,0-1.73,.09-2.58-.03-.61-.08-1.1-.09-1.7,.16-.71,.29-1.55,.32-2.26-.16l-.87-1.39c-.02-2.25-.05-4.34-.05-6.44,0-3.29,.05-6.58,.05-9.87,0-.48-.18-.96-.31-1.58,.39-.86,.47-14.99,.07-16.52,.12-.73,.27-1.31,.3-1.89,.09-2.14,.19-4.29,.2-6.43,.01-2.66-.08-5.32-.1-7.98-.03-3.88-.08-7.76-.07-11.65,.01-4.33,.08-8.65,.1-12.98,0-.62-.12-1.24-.18-1.86,.01-2.36,.16-4.73,.16-7.11,.01-4.17-.08-8.33-.08-12.5,0-2.86,.12-5.71,.12-8.57,0-4.32-.06-8.64-.05-12.97,0-2.82,.17-5.63,.16-8.45-.02-5.08-.14-10.16-.15-15.25,0-3.49,.13-6.98,.14-10.47,.03-6.79,.03-13.57,.04-20.36,0-1.28,.56-1.92,1.83-2.02,1.06-.08,2.14-.06,3.2-.09,1.82-.04,3.63-.1,5.45-.12,3.45-.04,6.89-.07,10.34-.1,2.22-.02,4.43-.01,6.65-.02,.26,0,.51,0,.98,0-.68-2.42-1.39-4.68-1.04-7-2.02-.91-3.98-.4-5.92-.52l-.08-.9,6.36-.05,1.08-3.2c.19,.04,.41,.02,.47,.11,.81,1.14,1.59,2.29,2.39,3.45l10.41-.33c-.15-2.32,1.21-4,2.02-6.24l1.6,1.83-.19,.12,2.52,4.37c.21,.01,.62,.06,1.02,.06,.51,0,1.02-.11,1.53-.1,1.3,.03,2.61,.14,3.91,.15,5.03,.05,10.07,.08,15.1,.1,2.56,.01,5.12,0,7.68,0,3.72-.01,7.44-.03,11.16-.04,2.85,0,5.7,.01,8.55,0,2.93-.01,5.87-.04,8.8-.07,2.78-.03,5.55-.1,8.33-.13,2.84-.02,5.68,.01,8.52-.02,4.88-.06,9.75-.17,14.63-.22,3.08-.03,6.17,.01,9.25,0,2.77,0,5.54-.05,8.3-.05,3.61,0,7.23,.07,10.84,.04,3.25-.03,6.5-.19,9.75-.25,3.19-.06,6.38-.06,9.57-.09,.7,.7,.9,1.53,.89,2.42-.02,2.62-.07,5.24-.07,7.86,0,4.28,.05,8.56,.01,12.84-.03,3.13-.17,6.27-.27,9.4-.04,1.34-.17,2.69-.17,4.03,0,1.35,.13,2.7,.12,4.05-.03,3.61-.14,7.23-.15,10.84-.01,3.84,.05,7.69,.09,11.81Zm-90.78,78.33c-.45,.06-.68,.07-.9,.12-1.46,.36-2.91,.76-4.38,1.09-1.99,.46-4,.7-6.06,.69-1.54,0-3,.41-4.16,1.66-1.07,1.15-2.42,1.99-3.88,2.62-.39,.17-.79,.33-1.18,.51-1.68,.79-3.34,1.61-5.04,2.36-1.83,.82-3.79,1.39-5.08,3.11-.78,1.04-1.92,1.89-2.44,3.03-.99,2.18-2.42,4.06-3.66,6.07-1.21,1.97-2.12,3.95-.62,6.31,.04,.03,.21,.12,.37,.24,.18,.13,.34,.28,.53,.44-.94,.47-1.46,.31-1.98-.56-.34-.56-.65-1.13-1.08-1.87-1.36,1.41-2.56,2.65-3.91,4.05,4.19,4.44,8.58,8.3,13.98,10.78,1.03,.35,2.06,.71,3.35,1.15,1.47-1.28,3.1-2.69,4.44-3.86l3.32-.03c1.7-.23,3.42-.4,5.15-.53,1.61-.12,3.22-.16,4.83-.3,1.45-.13,2.89-.37,4.33-.53,1.6-.18,3.21-.31,4.81-.48,.15-.02,.28-.14,.43-.18,1.44-.34,2.88-.68,4.32-.99,1.19-.26,2.39-.48,3.58-.73,.6-.12,1.19-.26,1.79-.39l.18,.26-.95,1.4c-.34,2.1-.18,8.6,.16,9.3,.79,.4,1.5,.73,2.19,1.1,1.39,.74,2.72,.43,3.96-.3,1.09-.64,1.32-1.71,1.12-2.91-.04-.27-.03-.55-.03-.83,.02-2.29,.06-4.58,.07-6.87,0-.54-.07-1.08-.12-1.79l-6.08,1.76-.19-.25,.38-.91c2.6-.72,5-1.32,7.36-2.05,1.83-.57,3.61-1.3,5.4-1.99,1.21-.47,2.4-.96,3.58-1.5,1.66-.76,3.14-1.78,4.42-3.11,1.34-1.4,2.86-2.64,3.67-4.48,.78-1.78,2.09-3.16,3.39-4.56,.59-.63,1.14-1.29,1.78-2.03l-.36-.83c-3.54-.16-5,2.25-6.27,4.5l-.25,1.78-1.06-.84c-1.63,1.32-2.57,3.11-3.68,4.65l.37,1.52-1.56-1.37-11.91,4.03c.82-1.03,1.78-1.64,2.83-2.02,2.49-.91,5.01-1.77,7.55-2.52,1.45-.43,2.67-1.09,3.31-2.47,.52-1.1,1.46-1.75,2.26-2.55,.61-.61,1.23-1.22,1.72-1.92,1.56-2.22,3.31-4.09,6.39-4.07,.71-.8,1.49-1.58,2.16-2.45,.66-.84,1.79-1.31,2.09-2.45-.75-.8-1.62-.69-2.41-.52-3.62,.79-6.48,2.78-8.69,5.5-.05,.84,.74,1.48-.16,2.25l-.71-1.8c-3.14,.76-4.21,3.84-6.48,5.49,.16,1.11,.65,2.19-.21,3.4-.47-1.07,0-2.18-.91-2.91-1.56,.26-3.13,.67-4.73,.76-1.6,.1-3.12,.28-4.52,1.11-.3,.18-.77,.07-1.16,.09l-.1-.32c.57-.63,1.37-.94,2.12-1.31,1.99-.98,4.21-.91,6.3-1.05,2.28-.15,3.55-1.36,4.71-2.93,1.32-1.78,3.04-2.94,4.65-3.61,1.65-1.36,2.86-2.73,4.38-3.5,2.36-1.2,4.29-2.77,5.88-4.82,.15-.2,.25-.44,.37-.67-3.02-1.27-7.39,.4-10.74,4.05l.09,1.36-1.47-.87c-1.15,.17-2.29,.46-3.24,1.26-1.31,1.12-2.62,2.25-4.05,3.47,0,.29,0,.72,.01,1.14,.02,.45,.05,.91,.09,1.6-1.32-.62-.36-2.01-1.33-2.5-2-.33-3.74,.77-5.46,1.51-2.11,.9-3.98,2.36-6.05,3.64,1.89,2.69,3.57,5.42,4.84,8.38-1.31-1.74-2.53-3.53-3.79-5.3-1.92-2.69-4.02-5.21-6.65-7.23-.47-.36-1.09-.59-1.44-1.03-.72-.91-1.62-1.06-2.65-.97-1.97,.17-3.93,.32-5.9,.49-.98,.08-1.97,.1-2.92,.32-1.47,.34-2.9,.83-4.35,1.23-.18,.05-.4-.05-.59-.09l-.18-.3c.23-.14,.46-.31,.71-.41,1.05-.44,2.08-1.06,3.18-1.24,2.84-.48,5.7-.8,8.57-1.11,1.01-.11,2.05,0,3.07-.01,.27,0,.55-.1,.82-.1,.56,0,1.12,.05,1.68,.08,.17,.09,.32-.04,.46-.18,1.65-1.56,3.33-3.06,5.55-3.81,.49-.16,.95-.58,1.28-1,1.22-1.51,2.76-2.59,4.54-3.57,.05-4.51,.09-9.07,.14-13.73-.86,.2-1.65,.29-2.38,.56-1.75,.67-3.37,1.75-5.47,1.42-.04,.75-.11,1.38-.11,2.01,0,1.94,.02,3.89,.08,5.83,.04,1.65,.16,3.3,.19,4.96,0,.44-.19,.87-.3,1.32-3.33,.64-6.49,.45-9.76,.02-3.01,2.48-6.64,3.83-10.72,4.91l-2.28,1.98,.63,3.43c3.11,.51,9.99,4.49,10.71,6.22-3.38-2.26-6.57-4.66-10.69-5.36-.26,1.33-.38,2.56-.75,3.71-.36,1.15-.96,2.22-1.54,3.49,1.71,.5,3.37,.77,4.84,1.46,2.26,1.07,3.44,2.18,3.82,3.16-2.43-2-4.88-3.55-7.84-3.35l-1.28-.86-2.37,2.34c1.01-2.2,2.27-4.2,3.22-6.33,.99-2.25,.8-4.7,.69-7.17-1.46-.05-2.22,1.18-3.42,1.48,.21-.45,.48-.83,.83-1.09,1.09-.78,2.22-1.49,3.31-2.28,.38-.27,.67-.68,.97-1l-1.46-1.18,.06-.32c.3-.08,.62-.28,.89-.22,1.03,.21,2.04,.5,2.84,.7,1.78-.74,3.34-1.33,4.84-2.04,1.25-.59,2.49-1.23,3.63-2,.98-.66,1.16-1.82,1.52-3.02Zm4.53,86.89l.32-1.19c.79-.54,1.53-1.05,2.36-1.62,.82-.09,1.76-.26,2.7-.28,.99-.02,1.98,.1,2.96,.15,.95,.05,1.9,.21,2.83,.12,2.11-.19,4.7,.88,5.53,3.17-.28,.2-.6,.43-1.06,.76-.37-.72-.66-1.3-1.1-2.15-.87-.24-1.96-.75-3.06-.8-2.56-.11-5.14-.07-7.71,.07-.76,.04-1.51,.59-2.21,1-.19,.11-.17,.57-.26,.92,.57,.1,.95,.17,1.34,.24l-.02-.23c1.57-.15,3.14-.46,4.7-.4,2,.07,4,.42,5.99,.7,.67,.1,1.32,.37,2,.58-.74,1.71-.72,1.79,.29,2.32,2.83-.16,5.38-1.1,8.06-1.91l-.33-1.51c-1.97,.31-3.81,.6-5.65,.89l-.09-.39c.83-.26,1.67-.51,2.54-.78,.06-.49,.05-.99,.21-1.42,.24-.65,.46-1.44,.95-1.86,1.64-1.39,3.7-2.07,5.63-2.96,.88-.41,1.88-.59,2.84-.8,1.55-.34,3.11-.67,4.59,.3,.34,.22,.8,.28,1.18,.41,.27-.2,.43-.38,.64-.48,1.23-.57,2.27-1.3,2.66-2.7,.07-.24,.32-.45,.51-.64,1.41-1.38,2.8-2.79,4.26-4.12,.61-.55,1.29-1.2,2.63-.68-2.68,1.56-4.36,3.84-6.52,5.93l2.31,2.06c1.56-2.27,4.03-3.48,5.14-5.87l-.76-1.17,1.77-.33c1.1-.91,5.54-6.59,5.77-7.51l-1.07-.55c-3.26,4.69-5.53,7.38-6.39,7.51l.44-1.37-1.62-.81c-2.26,1.47-4.07,3.26-5.85,5.05-1.02,1.02-2.35,1.88-2.12,3.66l-1.25,1.03c-.33-1.48-.06-2.62,.82-3.61,2.14-2.39,4.51-4.52,7.03-6.49,.48-.37,1.12-.55,1.69-.82l1.92,1.08c1.65-1.55,2.85-3.07,3.12-3.97l-1.06-.84c-.14-.71,.32-1.5-.28-1.92-1.2-.05-2.22-.11-3.24-.12-3.81-.03-7.62-.06-11.42-.06-4.09,0-8.17,.08-12.26,.06-3.68-.01-7.35-.14-11.03-.16-3.32-.02-6.64,.08-9.96,.07-4.72,0-9.44-.06-14.16-.08-3.17-.02-6.34-.04-9.51-.02-1.66,.01-3.32,.09-4.97,.18-.41,.02-.82,.19-1.2,.28l-.17,1.42h-1.24l1.3,2.12c1.26,.25,2.17-1.1,3.34-.36l-.28,.24c1.15,.94,2.31,1.89,3.39,2.77l.47,1.08c.38,.23,.69,.54,.95,.89,.57,.78,1.12,1.58,1.67,2.39,1,1.48,1.66,3.04,1.13,4.88-.09,.33-.11,.68-.16,1,.46,.29,.85,.54,1.27,.81l.56-.83q2.83-.42,10.94,2.08c1.64,1.4,1.7,3.37,2.11,5.31l3.12,.27Zm-10.5-147.71c.29-3.11,.32-6.19,.91-9.17,.58-2.96,1.71-5.81,2.63-8.79-2.03-.38-2.85-2.04-3.78-3.55-.2-.32-.26-.76-.26-1.14-.02-1.29,.05-2.59,.02-3.88-.04-1.73-.24-3.47-.19-5.2,.07-2.19-1.17-3.81-2.19-5.51-.62-1.04-1.5-1.93-2.33-2.83-.61-.67-1.27-1.3-1.98-1.85-.93-.73-1.93-1.38-2.91-2.06-1.46-1.01-2.85-2.15-4.48-2.49-1.37-1.4-2.54-2.75-3.88-3.93-1.5-1.33-3.3-2.1-5.36-1.7-1,.2-1.96,.64-2.84,.94l-.56,1.93,.36,.78c.51,.42,1.22,.44,1.32,1.45-2.22-1.28-4.09-.84-5.82,.69-.46,2.29-.08,4.42,1.46,6.26q3.02-.07,3.25,.55l-3.82,.21c-.93,1.06-1.03,2.5-1.32,3.92l3.05,2.6c1.28-.38,1.32-.38,2.18,.15l-1.63,.44-2.41,2.04-.29,3.63c.22,.47,.51,1.32,.98,2.06,.35,.55,.93,.96,1.4,1.44,1.21,1.26,2.44,1.5,4.1,.82,.39-.16,.84-.5,1.31,.14l-1.73,.63-2.18,2.2-.69,1.53c-.14,1.23,.66,1.82,1.78,2.28l-.87,.61c1.03,.8,1.9,1.63,2.91,2.21,.56,.32,1.34,.3,2.03,.33,.99,.04,1.99,0,2.98-.01v.31l-3.03,.21-.86,.98c.01,1.36,.02,2.67,.03,3.97,.03,2.61,1.01,3.35,3.71,4.45l1-1.24,1.49-.71,.1,.19-2.03,1.81c.06,1.21,.06,2.44,.19,3.67,.14,1.38,1.23,2.24,2,3.26,2.62,1.38,5.27,2.39,8.04,.79l-.21-2.82c1.39,4.08,3.28,7.47,8.13,7.78l1.39-.97c-.28-2.81-.56-5.66-.84-8.47-3.22-.19-4.56-.72-4.71-1.81,1.41,.75,2.76,1.79,4.46,.87Zm90.24-72.16c.03,.32,.09,.67,.09,1.01,.03,2.74,.05,5.47,.05,8.21,0,3.02-.02,6.03-.01,9.05,0,2.25,.08,4.49,.05,6.74-.01,1.26-.2,2.53-.23,3.79-.04,1.53,.05,3.06-.02,4.58-.04,.79-.16,1.56,.17,2.33,.11,.27,.05,.62,.04,.93-.05,1.82-.11,3.63-.17,5.45-.02,.52-.05,1.05-.08,1.57h.08c.1,2.01,.21,4.04,.31,6.06h-.19l.39,1.09-.43,1.11c.7,.75,.08,1.47-.06,1.99,.23,.96,.41,1.7,.62,2.57,1.59-.47,3.17-1.04,4.61-1.62,.07-1.67,.16-3.09,.19-4.51,.07-3.65,.13-7.3,.14-10.95,.02-6.43-.17-12.86,.05-19.27,.13-3.88,.18-7.76,.21-11.65,.03-4.21,.06-8.42,.05-12.63,0-1-.13-2.01-.2-3.16-45.27-.17-90.38,.42-135.5,.45,.02,1.22,2.35,5.97,3.15,6.74,2.21-.02,4.18-.06,6.16-.05,3.24,.02,6.49,.11,9.73,.12,3.81,0,7.62-.05,11.43-.06,6.46,0,12.93,.03,19.39,.01,5.36-.01,10.72-.06,16.08-.1,3.33-.03,6.65-.06,9.98-.1,5.3-.05,10.61-.11,15.91-.17,2.57-.03,5.15-.09,7.72-.13,4.84-.08,9.68-.16,14.52-.21,2.89-.03,5.79-.08,8.68,0,2.31,.06,4.69-.37,7.07,.82Zm6.81,109.59c-.12,6.58-.23,13.01-.34,19.43-.05,3.02-.13,6.03-.14,9.05-.01,3.06,.06,6.12,.06,9.18,0,4.64-.09,9.29-.07,13.93,0,2.54,.19,5.07,.23,7.61,.07,4.61,.09,9.22,.14,13.82,.01,1.18,.09,2.37,.02,3.54-.05,.93-.57,1.6-1.53,1.88l-.79-.54-21.46,.18-1.79,6.28c.3,.09,.44,.17,.59,.18,2.96,.13,5.92,.35,8.88,.36,3.21,.01,6.41-.2,9.62-.27,2.02-.04,4.05-.02,6.07,0,2.35,.03,4.71,.11,7.05,.17,.34-2.63-.1-88.32-.43-89.35l-6.28-2.09,.04,4.87,.77,.82-.63,.95Zm-85.07,68.36c-7.94-.07-15.41-.14-23.01-.21-1.35,.88-2.52,2.43-4.55,2.2-.4-.01-.84-.02-1.26-.11-1.34-.3-2.72-.44-3.8-1.48-.36-.34-.97-.55-1.48-.59-1.96-.14-3.93-.19-5.91-.27l-1.08,2.84,2.53,2.71,2.16-.51,1.99,.35,1.97,3.34c1.04-.08,1.97-.18,2.9-.21,.62-.03,1.25,.05,1.88,.05,3.67-.03,7.34-.09,11.01-.11,3.44-.03,6.89-.08,10.33-.03,2.22,.03,4.43,.3,6.65,.32,4.48,.04,8.96-.04,13.43-.02,3.96,.01,7.92,.08,11.89,.12,3.05,.03,6.1,.08,9.15,.06,3.32-.02,6.65-.15,9.97-.18,1.42-.01,2.84,.11,4.26,.14,1.11,.02,2.21-.01,3.33-.02,.62-1.72,1.8-2.22,3.45-1.86,.2-.94,.39-1.81,.6-2.78-1.9-.3-2.26-1.96-3.11-3.16-1.54-.13-3.04-.25-4.59-.37-3.06,2.24-6.16,2.01-8.78,.18-1.48,.01-2.48,.03-3.49,.02-.31,0-.62-.15-.94-.15-2.66-.02-5.32,0-7.98-.02-2.57-.03-5.14-.13-7.71-.16-1.89-.02-3.79,.08-5.68,.02-1.21-.03-2.25,.1-3.07,1.14-.27,.34-.8,.53-1.25,.64-.94,.23-1.91,.37-2.54,.49-1.48-.71-2.63-1.28-3.79-1.81-1.22-.56-2.48-.92-3.47-.56Zm29.81-144.05l-.46-.14c.05-.57,.07-1.14,.15-1.7,.35-2.6,.03-5.06-1.48-7.28-.61-.9-1.09-1.84-1.07-2.97,0-.46-.1-.91-.16-1.49-.75,.41-1.17,.91-1.26,1.6-.12,.96-.39,1.85-.23,2.91,.3,1.9,.23,3.85,.27,5.79,.02,.94,.15,1.98-.19,2.81-.48,1.18-1.35,2.19-2.19,3.5l-.71-.61c.36-2.56-.12-4.69-1.28-5.8-.09,.36-.2,.64-.22,.92-.05,.54,.09,1.14-.09,1.63-.42,1.15-.87,2.3-1.49,3.34-1.4,2.35-.85,4.94,1.21,6.33,.15-.03,.36-.03,.53-.11,2.47-1.21,5.1-.66,7.64-.51,1.67,.1,3.33,.7,4.93,1.27,1.4,.5,2.72,1.23,4.04,1.93,.89,.48,1.77,1.01,2.54,1.65,1.53,1.28,2.56,2.89,2.85,4.91,0,.07,.08,.13,.13,.21,1.6,.85,3.23,.29,4.98,.01,2.03-1.51,4.04-3.34,6.93-3.52-.94-1.66-2.22-1.75-3.54-1.74-1.8,.01-3.54,.34-5.26,1.53-.12-.52-.34-.89-.25-1.17,.71-2.18,2.36-3.39,4.44-4.12,.7-.25,1.44-.46,2.06-.86,2.11-1.37,3.29-3.39,3.8-5.82,.44-2.05,.8-4.13,2.59-5.56,.06-.05,.04-.2,.07-.4l-3.36,.55c-1.32,1.25-2.19,2.65-2.66,4.37-.23,.83-.8,1.8-1.51,2.2-1.59,.92-3.22,1.9-5.36,2.09,.28-.52,.4-1.11,.76-1.34,1.3-.85,2.19-2.01,2.97-3.31,.93-1.55,1.26-3.24,1.17-5-.06-1.3-.37-2.59-.49-3.89-.05-.49,.02-1.04,.17-1.51,.55-1.67,1.81-2.88,2.99-4.08,2.4-2.44,3.54-5.25,3.06-8.95-.66,.98-1.09,1.82-1.7,2.5-.99,1.11-1.96,2.32-3.18,3.12-1.5,.99-3.24,1.61-4.73,2.31-1.43,1.51-2.33,3.14-2.42,5.07-.1,2.28-.35,4.51-1.88,6.85l-2.99,2.29-1.16-.1c-.55-.6-.23-1.1-.07-1.63,.84-2.73,.99-5.35-.29-8.09-.91-1.97-.9-4.16,.58-6.07,.48-.62,1.08-1.25,.98-2.18-2.65,.51-3.95,2.76-5.89,4.29-.62,2.02-1.64,4.04-1.33,6.36,.02,.15-.04,.31-.08,.47-.35,1.29-.6,2.62-1.09,3.85-.46,1.16-1.17,2.21-1.77,3.31Zm-74.17-10.02c-10.1-10.19-19.17-21.03-26.59-33.18-1.39,1.4-.88,3.28-1.42,4.78l1.04,4.55,.15-.02-.22,.9c.92,1.45,1.7,2.94,2.37,4.46,.43,.98,.71,2.04,1.06,3.06,.08,.22,.18,.44,.32,.64,.66,.96,1.32,1.92,2,2.88,.61,.86,1.38,1.63,1.81,2.56,1.12,2.4,2.79,4.4,4.36,6.49,1.13,1.5,2.47,2.79,3.95,3.96,.59,.47,.98,1.18,1.51,1.73,1.21,1.25,2.47,2.45,3.66,3.72,.79,.84,1.48,1.77,2.46,2.96l3.19,2.81,1.57-4.54c-3.3-2.4-10.61-12.13-11.4-13.71,.28,.15,.39,.47,.61,.69,2.8,2.86,4.93,6.29,7.76,9.12,.54,.54,1.09,1.06,1.71,1.67,.21-1.64,.39-3.07,.57-4.49l.24,.02c-.05-.19-.12-.38-.13-.57-.02-.21,0-.42,.02-.79l1.21,.73,2.52-1.21c.05-.95-.41-1.58-.9-2.21-.46-.59-.92-1.18-1.34-1.8-.38-.56-.68-1.16-1.05-1.72-1.38-2.07-2.8-4.12-4.15-6.21-.41-.64-.65-1.39-.97-2.09l.15-.05c2.82,3.88,5.64,7.77,8.54,11.76l1.77-1.21c-.44-.76-.82-1.35-1.14-1.98-.44-.84-.75-1.76-1.27-2.54-1.66-2.54-3.48-4.99-5.07-7.58-1.65-2.7-3.15-5.5-4.64-8.29-1.43-2.69-2.76-5.43-4.16-8.13-.52-.99-1.12-1.94-1.7-2.94-1.01,1.14-1.87,3.51-1.58,4.68,.78,3.13,1.23,6.35,2.56,9.34,.39,.89,.61,1.85,.91,2.78l-.08,.02,5.08,10.06c1.81,2.55,2.9,5.78,5.52,7.91l-.8,1.01Zm12.18,163.13c1.1,2.35,2.05,4.4,3.05,6.54,1.2,.1,2.45,.21,3.71,.32v-.1c24.64,.13,49.29,.26,74.06,.39l2.62-6.36c-.72-.1-1.28-.22-1.85-.23-.83-.01-1.66,.11-2.49,.08-3.92-.12-7.85-.28-11.77-.4-2.3-.07-4.6-.14-6.91-.14-3.51,0-7.02,.04-10.54,.05-1.3,0-2.61-.06-3.91-.05-1.41,0-2.82,.07-4.23,.06-2.18-.01-4.36-.08-6.54-.1-2.54-.03-5.07,0-7.61-.05-2.73-.06-5.45-.25-8.18-.25-4.23,0-8.46,.12-12.68,.18-2.14,.03-4.27,.04-6.73,.06Zm11.28-96.48l-1.49,4.28c.35,.8,1.14,1.27,2.43,1.15,2.44-.24,4.91-.38,7.17-1.46,1.17-.56,2.35-1.14,3.28-2.5l-1.29-9.02c-.74,1.44-1.35,2.86-1.89,4.3-1.02,2.68-1.39,3.29-2.5,3.76,1-2.52,1.98-4.99,3.05-7.7-2.96,.33-4.85-1.31-6.66-3.29-1.69,2.36-3.9,3.88-6.06,5.47,.11-.3,.29-.54,.5-.75,1.16-1.24,2.32-2.48,3.49-3.72,.54-.57,1.1-1.13,1.76-1.8l-.62-.73c-1.89,.68-3.73,.98-5.56,.3-.85-.32-1.62-.31-2.43-.09-.73,.2-1.44,.44-2.16,.67-1.23,.39-2.46,.78-3.68,1.17l-.13-.36c.94-.35,1.87-.69,2.8-1.05,.93-.35,1.86-.72,2.78-1.08l-3.44-3.97c-1.85,.13-3.92,.27-5.99,.41l-.02-.29c2.07-.24,4.14-.49,6.32-.74l-.02-2.75c-.73-.48-1.39-.79-1.91-1.26-.73-.66-1.59-.84-2.5-.97-1.33-.2-2.65-.43-3.98-.65-.78-.13-1.56-.3-2.34-.38-1.45-.16-2.91-.25-4.37-.4-.39-.04-.78-.17-1.17-.26,2.09-.11,4.14-.26,6.16-.11,2.02,.15,3.9,1.24,6.14,1.06l-.32-2.37-3.5-.39,.1-.56c-.44-.14-.87-.33-1.31-.43-1.88-.4-3.76-.77-5.63-1.16-2.4-.5-4.78-1.19-7.27-.71-.47,.09-.92,.26-1.39,.32-1.96,.23-3.93,.42-5.89,.65-.32,.04-.62,.18-1.19,.35,1.54,1.22,2.61,2.58,4.24,3.21,1.46,.56,2.94,1.09,4.41,1.62,.82,.29,1.64,.6,2.48,.79,1.61,.36,3.24,.64,4.85,.95,4.56,.26,9.12,.52,13.69,.78l.2,.26c-.15,.05-.3,.13-.46,.15-1.06,.12-2.12,.33-3.18,.32-1.96-.03-3.92-.22-5.88-.31-.96-.04-1.93,0-2.89,.02v.14l-1.06-.27-.47,1.34-3.18,1.95c1.88,1.18,3.85,1.32,5.62,1.86,1.78,.54,3.72,.73,5.59,.76,1.88,.03,3.77-.33,5.66-.52-1.63,.95-3.3,1.76-4.98,1.45l-4.15,2.37-.78,1.87c.66,.31,1.2,.55,1.73,.8,1.91,.86,4.01,1.4,6,1.1,2.37-.36,4.81-.88,6.92-2.26,.58-.38,1.29-.76,2.16-.19-.3,.18-.5,.29-.69,.41-1.63,1.09-3.53,1.79-4.74,3.48-.57,.8-1.22,1.58-1.98,2.19-1.2,.98-.91,2.46-1.47,3.66l.48,.86c.68,.04,1.39,.24,2.01,.08,2.15-.54,4.26-1.2,6.39-1.81,1.42-.4,2.71-1.06,3.87-1.97,.9-.71,1.76-1.46,2.66-2.17,.43-.34,.9-.6,1.52-.31-1.41,1.62-2.76,3.18-3.88,4.46Zm23.87-49.11c2.39-1.56,5.02-.9,7.47-1.06l.99-1.73,5.42-.04,.62,.5c0-1.6,.8-2.76,1.44-3.99,.69-1.32,1.46-2.66,.77-4.37l-7.43,.06-.36-.54-1.04,.14c-.1-.59-.27-1.12-.28-1.65-.06-5.8-.1-11.6-.15-17.4,0-1.07-.02-2.13-.02-2.93l-1.13-1.54,1.44-.84c-2.46-1.54-7-1.36-8.61,.23,.03,3.28,.05,6.68,.09,10.08,.02,1.94,.21,3.9,.05,5.83-.2,2.41,.06,4.77,.3,7.19l-.97,1.27c-2.99,.18-5.93,.38-8.88,.52-2.95,.14-5.92-.28-9.07,.14,1.75,2.6,3.35,4.98,4.95,7.37,1.39-.01,2.85,0,4.31-.04,3.28-.1,6.61,.34,9.82-.92,.32,1.2-.57,2.45,.28,3.71Zm72.48-40.64c-.47-.11-.62-.18-.77-.18-2.81,0-5.62,0-8.43,0-2.1,0-4.2-.07-6.31-.05-3.2,.02-6.4,.11-9.6,.13-3.07,.01-6.14-.05-9.21-.06-3.35,0-6.7-.01-10.05,.02-2.06,.02-4.11,.12-6.17,.17-3.29,.08-6.58,.19-9.87,.21-2.73,.02-5.46-.12-8.2-.1-4.31,.03-8.63,.16-12.94,.19-3.48,.02-6.95-.08-10.43-.06-3.73,.01-7.46,.07-11.19,.15-3.65,.07-7.3,.2-10.95,.29-1.94,.05-3.88,.03-5.83,.07-.93,.02-1.86,.1-2.88,.16,.28,1.75,1.36,2.89,2.01,4.08l2.63-.02c1.43-.16,2.88-.28,4.32-.33,1.47-.05,2.93-.03,4.48-.05,4.68-2.91,9.69-1.74,12.17,.08l22.51-.19c4.07-1.44,7.83-1.86,11.26,.04,6.39-.13,12.47-.25,19.01-.38,.73-.36,1.93-.1,3,.1,.67-.1,1.21-.25,1.76-.26,1.2-.02,2.32-.25,3.45-.72,.88-.37,1.91-.5,2.87-.52,1.81-.04,3.55,.32,4.82,1.55,.94-.06,1.72-.13,2.51-.15,2.4-.05,4.8-.16,7.2-.11,1.58,.03,3.19-.39,4.74,.24,.13,.05,.34,.04,.47-.03,1.43-.8,3.02-.26,4.53-.5,1.8-.28,3.68-.09,5.53-.11,.54-.51,1.16-1.07,1.74-1.67,.57-.58,1.1-1.21,1.81-2Zm1.21,173.71l.37-.04c-.03-10.73-.07-21.46-.09-32.19-.01-10.73,0-21.46,.01-31.98-1.34-.66-2.47-1.23-3.84-1.91,.56,1.8,1.09,3.37,.93,5.06l-1.54,.74c.04,5.72-.36,11.52,.11,17.3-.05,1.06-.11,2.11-.17,3.4l-.79,.94-16.24,.13,.55,2.83-1.51,1.9c.61,1.31,1.19,2.54,1.71,3.66,.53-.28,.93-.64,1.38-.7,.78-.11,1.58-.04,2.37-.03,3.41,.02,6.82,.1,10.23,.05,.87-.01,1.63,.06,2.59,.66,.22,5.32-.14,10.77-.13,16.23,0,5.45,.15,10.9,.24,16.44l1.96-.02,.71-3.33,1.16,.87Zm-38.69-30.48c.95,.45,1.33,1.17,1.37,2.13,.05,1.26,.27,2.52,.19,3.77-.13,1.95-.58,3.86-.31,5.84,.12,.89,0,1.81-.01,2.72,0,1.02-.01,2.04,0,3.06,.03,1.49,.07,2.98,.13,4.47,.08,1.77,.4,3.56,.22,5.29-.17,1.61,.15,3.11,.3,4.72l-.64,1.17c1.39,.53,2.61,1.29,4.06,1.46,1.43,.17,2.85,.12,4.06-.88-.1-.45-.27-.87-.26-1.28,0-2.29,.05-4.57,.1-6.86,.02-.91,.11-1.82,.08-2.73-.05-1.41-.21-2.82-.25-4.23-.03-.98,.1-1.96,.09-2.94-.06-3.88-.16-7.76-.22-11.65-.02-1.02,.07-2.05,.1-2.85,1.88-1.69,3.94-1.41,6.09-1.17l-.54-1.61c-.69,.1-1.27,.16-1.85,.28-.99,.19-1.7-.24-2.23-1.01-1.75-2.59-3.48-5.18-5.21-7.78-.17-.26-.26-.57-.41-.91l1.33-2.58-2.04-1.78-3.16,.79c-.12,1.19-.04,2.45,.21,3.71l-.42,.99,.4,1.25c-1.54,.54-2.46,1.73-3.41,3.05,1.37-.58,2.59-.28,3.86,.4l.73,1.54-3.71,3.59,1.37,.05Zm-79.43-104.41c-1.58-.77-2.07-2.69-3.97-2.67-.1,0-.22-.1-.3-.19-1.9-2.1-4.57-3.09-6.83-4.66-1.89-1.31-3.85-2.53-5.64-3.97-2.68-2.14-5.26-4.42-7.86-6.67-1.76-1.52-3.49-3.1-5.24-4.64-.43-.38-.89-.71-1.34-1.07-.5-.96-1.23-1.6-2.11-1.65-.92-1.04-1.63-1.94-2.44-2.72-.77-.75-1.18-2.01-2.74-2.01l.34,4.67-.17,.07,1.14,1.54c.21,1.54,.68,3.11,2.01,4.33,.08,.27,.09,.66,.28,.92,1.13,1.56,2.29,3.1,3.46,4.62,.53,.69,1.09,1.36,1.69,1.99,1.11,1.16,2.25,2.3,3.4,3.43,.58,.57,1.21,1.08,1.83,1.61,1.02,.87,2.01,1.78,3.08,2.59,1.38,1.04,3.05,1.66,4.18,3.04,.02,.03,.06,.05,.1,.07,2.21,1.42,4.41,2.86,6.63,4.27,1.18,.75,2.39,1.45,3.6,2.15,1.08,.62,2.16,1.21,3.27,1.77,.55,.28,1.15,.45,1.8,.7l-.57-4.53c-2.2-2.11-5.12-3.2-7.2-5.45l7.38,4.46,2.21-2.03Zm98.63-1.58c.32,.03,.62,.07,.92,.08,2.38,.01,4.76,.09,7.13-.01,1.18-.05,2.47,.28,3.51-.54l1.34,.38,1.5-.91,1.69,1.76c.01,1.49,.07,3.11,.03,4.73-.06,2.7-.17,5.39-.27,8.09-.04,1.11-.19,2.22-.11,3.32,.08,1.21,.11,2.37-.47,3.48-.1,.2-.04,.48-.07,.84l4.63-2.16c-.16-.48-.38-.85-.39-1.22-.04-2.69-.03-5.38-.04-8.07-.02-2.8-.03-5.6-.08-8.4-.02-1.19-.21-2.38-.18-3.56,.07-2.45,.3-4.89,.35-7.34,.08-4,.07-8.01,.1-12.01,.04-4.56,.08-9.12,.11-13.68,0-.41-.05-.82-.08-1.23l-.28-.12c-1.43,1.38-2.85,2.75-4.26,4.11,0,1,.03,1.95,.02,2.9-.04,2.73-.15,5.47-.13,8.2,.02,3.77,.16,7.54,.2,11.31,0,.68-.18,1.37-.27,2-1.63,.01-3.04,.07-4.46,.03-1.96-.06-3.92-.15-5.84,.25-.69,.15-1.38,.57-1.92,1.04-.58,.51-.99,1.21-1.6,1.99-.33,1.43-.69,3.04-1.08,4.74Zm41.29,31.42c2.45,.03,4.93,.07,7.41,.1v.33c-2.74,.15-5.49,.29-8.33,.45l-.87,1.13,1.09,2.77c1.61-.01,3.11,.03,4.59-.05,3-.15,5.99-.34,8.98-.58,1.05-.08,2.1-.32,3.13-.59,1.26-.32,2.49-.76,3.75-1.12,2.88-.84,5.77-1.67,8.65-2.5,.04-.01,.07-.03,.11-.05,2.89-1.4,5.65-3.02,8-5.24,.3-.28,.45-.72,.79-1.28-2.63,.25-4.94,.51-7.26,.69-3.35,.25-6.71,.47-10.06,.63-1.65,.08-3.3,.12-4.96-.16-1.19-.2-2.44-.16-3.64-.04-1.62,.16-3.22,.48-4.82,.77-.73,.13-1.45,.36-2.17,.53-.34,.08-.69,.15-1.04,.19-.88,.1-1.77,.18-2.59,.26-.26,1.28-.48,2.38-.75,3.76Zm-171.32-30.57c1.59,1.29,3.12,2.53,4.65,3.77,1.32,.88,2.61,1.81,3.9,2.74,.21,.15,.4,.37,.64,.47,1.27,.53,2.59,.96,3.32,2.11,1.64,.26,2.76,1.21,3.85,2.14l.5-.11c5.14,2.46,10.16,4.64,15.66,5.84l-.02-2.9c-2.14-1.01-4.34-2-6.5-3.06-.89-.43-1.72-.98-2.56-1.51-.14-.09-.17-.34-.33-.69,3.5,1.66,6.79,3.22,10.11,4.79l.98-1.2c-.28-.24-.45-.47-.68-.56-1.04-.42-2.01-.92-2.63-1.93-.15-.24-.48-.41-.76-.53-.91-.38-1.81-.8-2.76-1.06-3.12-.88-5.45-3.07-8.06-4.8-1.73-1.15-3.51-2.12-5.57-2.55-1.5-.32-3.03-.65-4.44-1.23-2.96-1.21-5.87-2.55-8.76-3.91-1.02-.48-1.94-1.17-2.91-1.77-.55-.34-1.1-.68-1.82-1.12,0,.47-.05,.78,.02,1.05,.46,1.83,1.28,3.42,2.85,4.58,.51,.37,.87,.95,1.32,1.45Zm170.4,36.42c-.87,2.02-1.15,2.87-3.28,4.24,2.2,.76,4.5,.49,6.59,1.22-3.17,.04-6.29-.25-9.34-1.39-.4,1.64-.76,3.11-1.1,4.49,1.41,.2,2.87,.46,4.34,.59,1.81,.16,3.64,.25,5.46,.3,3.28,.1,6.56,.17,9.83,.22,1.18,.02,2.38,.08,3.55-.09,1.68-.24,3.35-.59,4.99-1.03,2.02-.54,4.08-1.01,5.85-2.24,.81-.56,1.71-.99,2.53-1.55,.86-.59,1.45-1.44,2.06-2.31-1.43,.01-2.69,.05-3.96,.03-2.09-.04-4.18-.12-6.27-.16-2.34-.05-4.7,.15-7-.18-1.39-.2-2.76-.55-4.18-.54-.31,0-.61-.15-.92-.21-.61-.13-1.23-.26-1.84-.35-1.21-.18-2.43-.33-3.64-.51-1.21-.17-2.41-.35-3.66-.54Zm2.37,21.48c1.25-.01,2.91,0,4.56-.05,1.01-.03,2.02-.13,3.03-.21,.19-.02,.39-.08,.56-.16,1.52-.74,3.03-1.5,4.54-2.25,.85-.42,1.7-.85,2.54-1.27l-.02-.3c-9.07-1.1-17.7-3.67-26.04-7.57-1.96,.99-4.06,1.27-6.29,.49l-.72,2.2c2.69,1.4,5.24,2.71,7.78,4.03l-.15,.29c-2.68-1.24-5.37-2.48-8.14-3.76l-1.43,1.89c2.06,1.23,4.19,1.99,6.26,2.86,2.15,.9,4.29,1.86,6.52,2.49,2.15,.61,4.4,.85,6.98,1.32Zm-171.22-46.86c.12,.25,.16,.37,.23,.46,1.78,2.12,3.98,3.68,6.44,4.91,.28,.14,.6,.2,.87,.36,1.07,.6,2.08,1.29,3.19,1.8,1.14,.53,2.36,.86,3.53,1.31,1.32,.51,2.59,1.16,3.93,1.54,1.4,.4,2.89,.51,4.32,.85,2.87,.68,5.73,1.44,8.6,2.15,1.18,.29,2.38,.54,3.62,.82l.71,.78,.28-.07-.03-4.07c-1.35-1.18-3.02-2.01-3.92-3.71l-.96-.29-1.3,.26c-1.07-.6-2.15-1.12-3.29-1.4-2.16-.53-4.14-1.47-6.13-2.41-1.43-.68-2.87-1.34-4.31-2-.21-.1-.45-.17-.68-.17-1.37-.04-2.75,.06-4.1-.12-2.28-.3-4.53-.77-6.8-1.17-1.38-.24-2.74-.28-4.2,.21Zm115.12-36.8l.17,.31c-.13,.19-.21,.44-.39,.55-1.66,1.04-2.83,2.49-3.67,4.24-.85,1.77-1.2,3.58-.34,5.46,.26,.57,.65,1.15,.68,1.74,.08,1.54,.03,3.09-.05,4.63-.03,.71-.24,1.42-.41,2.32,1.32-.83,2.31-1.67,2.94-2.9,.81-1.57,.82-3.29,.99-4.98,.11-1.06,.09-2.14,.76-3.07,.64-.89,1.21-1.83,2.01-3.05-.11-3.94-.24-8.22-.36-12.47-2.36-2.5-4.94-1.57-7.6-.54-.52,.53-.93,1.22-.87,2.13,.07,.94,.14,1.88,.17,2.82,.04,1.61,.03,3.23,.05,5.09,2.11-.82,4.01-1.55,5.91-2.28Zm-76.04,6.28c2.06,.87,3.52,2.22,4.52,4.04,.86,1.55,2.43,1.78,4,2.37l-.17-20.27c-3.16-1.67-6.48-1.13-8.47,.3l.11,13.56Zm116.46,78.39c-3-1.55-5.92-3.19-8.14-5.23-1.67-.38-3-.68-4.43-1.01l-.73,2.81c.47,.17,.85,.46,1.15,.4,.74-.14,1.15,.35,1.66,.66,.19,.12,.3,.35,.49,.47,.89,.57,1.8,1.1,2.68,1.68,2.07,1.37,4.1,2.8,6.48,3.62,.7,.24,1.36,.57,2.06,.87,.72,.21,1.46,.47,2.22,.64,1.98,.46,3.81,1.45,5.95,1.36,1.58-.07,3.16-.04,4.69-.5,.42-.13,.8-.37,1.2-.56v-.31c-.44-.23-.87-.47-1.3-.69-2.19-1.1-4.44-2.09-6.56-3.31-1.95-1.12-3.76-2.47-5.63-3.73-.59-.4-1.32-.73-1.69-1.28-.62-.91-1.48-1.25-2.42-1.56-.3-.1-.68-.08-.91-.25-1.45-1.09-2.76-.83-4.06,.39,2.14,2.24,5.05,3.44,7.28,5.53Zm-78.2,41.81c-2.98,.71-4.86,2.82-7.05,4.78,2.34,1.12,3.88,2.84,5.4,4.79,.65-.43,1.39-.7,1.77-1.23,2.09-2.93,4.72-5.35,7.21-7.91,.82-.85,1.86-1.5,2.6-2.41,2.03-2.52,4.56-4.34,7.51-5.61,.51-.22,.83-.53,.92-1.28-1.67,.01-3.27,0-4.87,.05-.53,.01-1.08,.09-1.59,.25-2.02,.6-3.34,2.09-4.67,3.7l.98,1.93c-1.34,.06-1.11-1.5-2.09-1.66-2.2,.63-3.77,2.17-5.18,3.86,.19,2.32,.19,2.34-.16,2.6l-.77-1.85Zm32.77-33.13c0,.67-.04,1.3,.02,1.92,.3,2.99,.59,5.98,.22,8.99,1.39,1.33,2.78,2.69,4.2,4.02,1.22,1.14,1.53,2.25,1.06,3.7l-.1,1.78,2.41,1.62-.13-15.36c-3.08-1.94-4.83-4.75-6.56-7.67l-1.12,.98ZM102.61,194.76c.29,.45,.37,.67,.53,.81,.6,.56,1.32,1.01,1.82,1.65,.48,.61,1.08,.82,1.72,1.13,1.25,.6,2.45,0,3.67,.08,1.04,.08,2.1-.13,3.14-.14,1.82-.01,3.64,.09,5.46,.05,2.48-.06,4.97-.18,7.45-.32,.97-.05,1.93-.19,3.15-.32l-1.59-3.43c-4.38,.05-8.52,.09-12.66,.15-4.16,.06-8.32,0-12.7,.34Zm116.88,45.64c1.22-.09,2.35-.05,3.41-.29,1.98-.44,3.76,.49,5.66,.63,1.47,.1,2.93,.7,4.34,1.23,1.39,.52,2.88,1.01,4,1.92,1,.81,1.96,1.51,3.18,1.87,1.18-1.11,.53-3.47-1.09-4.79-1.78-1.46-3.75-2.65-5.95-3.38-1.6-.53-3.24-.97-4.19-1.25-3.54-.36-6.42-.54-9.07,1.04-.51,.97-.97,1.96-.29,3.02Zm36.33,22.44l6.19-.05v.19l.96-.64,1.38,.77c.54-1.16,1.09-2.29,1.59-3.44,.62-1.43,1.19-2.88,1.73-4.19l-15.22,.13-.11,.25c.23,.23,.45,.48,.71,.68,1.2,.92,1.69,2.24,2.05,3.63,.23,.87,.47,1.73,.72,2.69Zm-144.14,92.68c-.02,1.58-1.06,2.67-1.37,4.1l1.03,.04c1.77-1.76,7.87-12.58,8-14.2l-.61-.29c-.15,.26-.29,.44-.38,.65-1.19,2.74-2.33,5.51-5.23,7.32,.19-1.72,1.22-2.94,1.78-4.33,.57-1.42,1.29-2.78,2-4.3l-1.63-.95c-.13,2.3-3.32,8.05-5.28,9.36,.09-.59,.06-1.07,.23-1.46,.65-1.48,1.36-2.94,2.04-4.41,.17-.36,.31-.73,.46-1.09l-.24-.12c-.3,.46-.65,.89-.88,1.38-.81,1.76-1.59,3.54-2.34,5.33-.74,1.75-1.44,3.52-2.14,5.29-.22,.57-.59,1.18,.19,1.62l1.12-.43,1.81-3.17,1.43-.35Zm25.55-163.03l.03,.26,5.51-.28c-.51-2.4-.98-4.58-1.47-6.88l-9.51,.08-.19,.27c.52,.85,1.01,1.72,1.57,2.54,.99,1.45,2.02,2.87,3.04,4.3,.04,.06,.13,.09,.22,.15l.79-.44Zm2.47,24.92c-.06-1.58,.31-3.13-.83-4.37-.45-.49-.87-1.03-1.2-1.6-1.89-3.26-3.83-6.48-6.37-9.46l.06,7.65-.4,.83c2.7,2.59,5.72,4.76,8.73,6.95Zm77.34,112.55c-.12,.44-.57,1.11-1.45,1.41-.23,.08-.4,.36-.6,.55-1.54,1.53-2.78,3.36-4.61,4.6-.47,.32-.86,.77-1.46,1.32,.39-.03,.5-.02,.6-.05,2.22-.8,4.37-1.8,6.74-2.18,.76-.12,1.49-.68,2.13-1.17,.81-.62,1.44-1.51,2.31-2.02,1.05-.62,2.03-1.42,3.42-1.49,1.03-.05,1.99-.69,2.35-2-1.83-.09-3.55-.26-5.27-.21-.85,.02-1.54-.05-2.1-.77l-2.06,2Zm6.96-32.75v-.07l-1.87,.19c-.42,.86-1.35,1.49-1.41,2.75,.59,0,1.05,0,1.52-.01,.51,0,1.03-.1,1.52,0,2.8,.56,4.26,2.86,3.71,5.83,1.03,.52,2.07,1.04,3.23,1.62,.16-.29,.37-.57,.49-.88,1.06-2.59,.32-5.96-2.11-7.96-1.05-.87-2.27-1.26-3.62-1.34-.49-.03-.98-.08-1.48-.12Zm-73.54,60.78c-2.33,2.24-4.49,4.32-6.76,6.52l-1.12-1.13c1.79-2.7,3.94-4.85,6.3-6.92-.04-.16-.08-.39-.17-.6-.04-.09-.17-.14-.3-.24-1.83,.87-2.88,2.65-4.43,3.78l-.31,.94-2.65,1.69c-.24,2.18-.47,4.29,.1,6.47l2.16-.15c2.73-3.1,5.42-6.14,8.22-9.32l-1.04-1.04Zm25.1,11.9l-.05-5.69c-.66,.05-1.1,.16-1.5,.09-.72-.13-1.34,.02-1.89,.47-.72,.6-1.51,1.15-2.1,1.86-.57,.68-1.17,1.11-2.07,1.21-.47,.05-.91,.34-1.36,.52,.26,1.83,1.71,2.09,2.86,2.53,2.22,.85,4.32,.48,6.11-.98Zm47.32,42.4l.22,1.42c.41-.02,.7,.01,.95-.06,1.17-.32,2.36-.58,3.47-1.04,.97-.4,2.21-.5,2.63-1.75l-1.24-1.37c1.12-.6,1.58,.14,2.16,.7,2.98-.91,5.26-2.89,7.57-4.97l-.91-1.23c-2.67,1.6-5.23,3.13-7.59,4.55-2.99,.32-5.5,1.38-8,2.4v.97l.73,.37Zm34.08-60.96c-.94-1.51-1.95-2.97-1.99-4.86-.04-1.66-.22-3.32-.28-4.98-.03-.87-.34-1.59-.95-2.33l-.95,.55c-.31,4.17,.55,8.05,1.52,11.92l2.04,.82,.6-.8h.29c.79,3.17,1.2,6.42,1.55,9.64h1.31l-1.13-9.57-2-.39Zm-103.33,15.21c2.12,1,2.24,1.16,2.67,3.63-1.01,2.08-2.72,2.32-4.17,.59-.2-.24-.42-.56-.68-.62-1.03-.22-1.54-1.06-2.25-1.68-.2-.18-.39-.37-.73-.7,.06,.38,.03,.53,.1,.59,.96,.92,1.44,2.08,1.95,3.28,1.04,2.41,3.78,3.12,5.75,1.8,1.44-.97,2.42-2.98,2.13-4.6-.38-2.06-1.53-3.52-3.59-3.98-.72-.16-1.58,.26-2.37,.44-.26,.06-.5,.23-.76,.36l.82,1.1,1.14-.21Zm-29.25-142.35c.88,.66,1.65,1.32,2.51,1.85,.69,.42,1.49,.69,2.24,1,1.52,.63,3.15,1.07,4.54,1.91,1.55,.94,3.27,1.31,4.91,1.93,.44,.17,.94,.17,1.41,.25l.13-.33c-.96-.67-1.93-1.33-2.89-2-.58-.41-1.2-.78-1.73-1.24-1.47-1.27-2.9-2.59-4.15-3.72-2.45,.59-4.73-.39-6.97,.35Zm-4.61,116.73l-.34,.17c.04,.26,0,.56,.14,.76,.24,.36,.55,.67,.86,.98,1.27,1.23,1.52,2.87,.65,4.4-.69,1.2-1.47,2.35-2.09,3.58-1.19,2.37-2.4,4.71-3.79,6.98-.93,1.53-2.1,2.7-3.33,3.93-1.24-.15-2.44-.29-3.66-.43l-1,1.58,.17,.32c1.45-.01,2.91-.08,4.36-.02,1.21,.05,1.93-.55,2.49-1.5,1.2-2.06,2.41-4.11,3.59-6.18,1-1.76,2-3.51,2.91-5.31,.7-1.38,1.31-2.8,1.86-4.24,.33-.85,.23-1.72-.45-2.44-.8-.85-1.58-1.71-2.38-2.56Zm126.9,57.27l.21,.17c-.79,1.15-1.51,2.37-2.4,3.44-1,1.2-2.09,2.37-3.28,3.37-.63,.53-1.29,1.38-2.37,.99-.52,.47-1.01,.91-1.67,1.51l2.13,1.33c3.22-2.37,6.23-4.75,8.26-8.19,.65-1.1,.86-2.06,.25-3.28l-1.14,.65Zm8.98-12.27c-.78,1.62-1.4,2.93-2.03,4.24l.1,.05-1.4,1.61,1.22,.74c.89-.12,1.43-.56,1.78-1.22,.54-1.01,1.01-2.06,1.55-3.06,1.33-2.46,2.17-5.1,2.87-7.82l-1.2-1.65-1.35,2.9c.17,1.51-.76,3.83-1.54,4.2Zm-93.87-9.68c.56,.74,1.07,1.37,1.53,2.04,.81,1.18,1.96,2.12,2.34,3.6,.27,1.07,.73,2.08,1.05,3.14,.16,.53,.18,1.1,.3,1.9,.55,.3,.13,1.63,1.24,1.93,1.07-1.24,1.21-2.56,.54-3.99-.74-1.58-1.51-3.14-2.21-4.73-.6-1.36-1.12-2.77-2.22-3.88-.79-.34-1.6-.45-2.59-.02Zm95.9-16.77c-.78-.07-1.46,0-1.83,.67-.83,1.52-1.16,3.2-1.35,4.89-.16,1.48-.07,2.99-.15,4.49-.08,1.57,.45,2.76,2.1,3.57,.08-.75,.24-1.4,.2-2.04-.08-1.09-.39-2.17-.42-3.26-.05-1.86,0-3.75,1.1-5.37,.61-.91,.64-1.82,.35-2.95Zm-137.48-20.81l-10.82,.09-.06,.21c1.57,.97,3.14,1.93,4.72,2.9l.06-.19c1.14,.26,2.27,.52,3.34,.76l1.7-2.54c.59-.27,1.31-.26,1.07-1.22Zm62.71,69.5c.83,1.79,2.03,2.96,3.61,3.48,1.23,.4,2.48,.7,3.78,1.06,.24-.28,.5-.57,.75-.87,.1-.12,.17-.26,.24-.37-.52-1.47-.92-2.07-1.71-2.34-1.86-.65-3.73-1.26-5.61-1.88-.37,.33-.69,.61-1.06,.93Zm66.54-18c1.64-1.64,2.25-3.8,3.21-5.75,.96-1.94,2.45-3.7,2.33-6.13h-1.32c-.57,.93-1.24,1.89-1.8,2.92-.55,1-.93,2.1-1.5,3.08-1.07,1.83-1.69,3.7-.93,5.88Zm-78.08,4.28l.1-.1c.3,.22,.6,.42,.9,.65,.47,.36,.93,.73,1.39,1.09,1.74,1.35,3.06,2.95,3.16,5.29,.04,1.09,.99,1.94,2.16,2.02,.53-.71,.51-1.42,.18-2.23-.48-1.17-.94-2.29-1.86-3.24-1.51-1.56-2.82-3.31-4.29-4.9-.95-1.03-1.12-.98-2.58-.18l.85,1.6Zm27.97,22.68c4.29,1.91,8.73,1.29,13.16,1.02,.38-.61,.68-1.08,1.03-1.65l-1.07-.43c-.57,.21-.96,.45-1.37,.49-1.21,.11-2.44,.22-3.65,.17-2.04-.09-4.1,.05-6.08-.72-.65-.25-1.45-.09-2.24-.12,.02,.33,.01,.48,.04,.63,.04,.19,.11,.38,.18,.61Zm12.54-3.26c-3.22-.32-6.3-1.13-9.48-.76-.15,.82-.29,1.51-.44,2.34,.72,.12,1.37,.3,2.02,.32,1.39,.05,2.78-.06,4.16,.03,1.31,.08,2.52-.12,3.7-.67,.06-.03,.1-.11,.19-.22l-.16-1.05Zm-41.64-11.99c.77,.83,1.55,1.66,2.32,2.49,.79,.84,1.25,2,2.43,2.57,.67-.33,1.31-.65,2.16-1.07-.6-.48-1.02-.77-1.38-1.12-1-1-2.51-1.28-3.34-2.55-.92-1.4-1.98-2.71-2.93-4.09-.67-.96-1.26-1.98-1.89-2.99l-.86,.31c.34,2.63,2.09,4.48,3.5,6.44Zm-19.96-52.48c-3.96,2.05-6.1,5.87-9.3,8.58l-.07,1.51c.41-.27,.7-.4,.91-.62,1.25-1.25,2.48-2.53,3.73-3.79,.7-.7,1.38-1.42,2.15-2.03,1.14-.89,2.39-1.47,3.82-.39l1.61-1.91-2.86-1.35Zm-9.78-107.31l-8.32-5.4-.3,.16,.04,4.32s.22,.06,.4,.1c1.35,.28,2.68,.66,4.05,.82,1.26,.15,2.54,.48,4.14,0Zm25.34,143.64c-.33-1.17-.62-2.38-1.02-3.56-.24-.71-.66-1.37-1.05-2.17l-.91,1.11c-1.18,.64-1.82-.25-2.62-.87,.3,2.63,1.61,4.73,3.02,6.78l2.58-1.28Zm94.55-33.7c.21-.58,.49-1.02,.5-1.47,.08-3.57-.03-7.11-1.64-10.44-.47-.97-1.04-1.39-2.28-1.43,.17,.53,.26,.96,.44,1.35,.29,.61,.85,1.15,.93,1.77,.36,2.54,.63,5.1,.83,7.66,.07,.96,.25,1.76,1.22,2.56Zm-39.59,62.93l.08,.33c.32,.14,.66,.26,.97,.41,1.19,.58,2.39,.64,3.67,.24,2.46-.78,4.79-1.85,7.04-3.1,1.26-.7,1.52-1.25,1.29-2.9-.49,.15-.97,.3-1.36,.42-1.4,1.63-2.82,3.03-5.01,3.26-.39,.04-.78,.15-1.15,.29-1.12,.4-2.22,.67-3.45,.53-.66-.08-1.39,.34-2.08,.53Zm-39.75-6.28c.01,2.07,1.18,3.29,2.54,4.28,.87,.63,2.03,.87,2.92,1.47,1.53,1.04,3.28,1.3,5.09,1.74l1.2-1.01c-1.09-.24-1.93-.43-2.69-.6l-.49-1.01c-3-.39-5.7-1.34-6.93-4.28l-1.64-.6Zm38.76,3.03l.26,.2c.33-.34,.78-.63,.97-1.04,.34-.72,.9-1.12,1.59-1.33,2.64-.78,5.11-2.22,7.9-2.04,.54-.43,.99-.8,1.51-1.21-.99-.86-2.07-.81-3.17-.58-2.81,.6-5.38,1.75-7.8,3.28-1.2,.76-1.44,1.18-1.26,2.71Zm-44.13-10.43c.74-1.59-2.3-4.84-4.21-6.28l-1.83,1.53c1.1,1.85,2.06,3.67,3.59,5.21l.72-1.1c.58,.21,1.11,.41,1.73,.63Zm-11.36-11.44c.11-.8-.39-.99-.78-1.33-.87-.78-1.87-1.54-2.42-2.53-.76-1.37-1.12-2.95-1.71-4.41-.34-.83-.42-1.59,.19-2.44l-1.63-1.49c-.06,.34,0,.75-.17,.91-.98,.86-.54,1.78-.25,2.73,.56,1.83,1.46,3.49,2.46,5.09,.83,1.32,1.52,2.79,3.02,3.77l1.28-.3Zm95.74-17.62c.91,0,1.44-.38,1.58-1.2,.15-.88,.24-1.78,.41-2.66,.44-2.23,.39-4.48,.32-6.73-.01-.43-.08-.88-.24-1.27-.25-.61-.7-.92-1.4-.62,.33,3.77,.1,7.43-.91,11.17l.24,1.31Zm-14.4-121.38l-.04-4.97-3.2-.54-.82,2.39-1.15,.41,.84,1.76,4.37,.95Zm-2.35,65.02c-.68-.78-1.27-1.58-1.99-2.22-1.55-1.39-3.11-2.79-4.77-4.03-1.07-.79-1.74-.6-2.99,.44,.4,.32,.74,.69,1.16,.91,1.04,.55,2.17,.95,3.16,1.57,1.35,.86,2.7,1.74,3.29,3.42,.28,.78,.55,1.75,1.76,2.13,.12-.7,.23-1.37,.37-2.22Zm8.56,17.91c-.26-.28-.4-.49-.6-.63-.25-.18-.62-.24-.82-.46-1.96-2.2-3.75-4.51-4.59-7.41-.21-.71-.54-1.3-1.32-1.61-.19,.29-.36,.55-.53,.8-.16,.26-.32,.52-.52,.85,1.9,3.08,3.81,6.09,6.02,8.72l2.36-.27Zm-10.95-13.83c-1.57-1.4-3.31-2.4-4.76-3.74-1.48-1.37-2.85-2.85-4.66-3.94-.45,1.57,.03,2.55,1.15,3.28,.56,.37,1.14,.73,1.69,1.11,.39,.27,.85,.5,1.12,.86,.61,.82,1.36,1.42,2.25,1.89,.23,.12,.41,.36,.59,.56,.74,.85,1.35,.9,2.61-.03Zm-20.83-10.52c2.59,2.14,6.63,2.4,8.06,.76-.51-.66-1.02-1.31-1.51-1.93-.74,.2-1.35,.36-1.99,.53-.77-.28-1.58-.57-2.39-.87q-1.83,.89-2.17,1.5Zm-37.88,96.49c.55,.3,.82,.54,1.14,.61,.91,.21,1.83,.39,2.75,.52,1.93,.27,3.73,.86,5.26,2,.62,.99,.61,2.36,2,2.88,.05-.41,.08-.68,.13-.95,.29-1.7-.5-3.4-2.2-3.8-1.68-.4-3.31-1.06-4.99-1.45-1.24-.28-2.54-.63-4.1,.19Zm-38.74-211.67c-2.24-.32-4.22-.25-6.46,.03l2.07,2.37c1.15,.17,2.06,.4,2.98,.4,.94,0,1.62,1.08,2.75,.61l-1.33-3.4Zm48.06,220.05c1.75,.2,3.09,.31,4.4,.52,1.52,.24,3.02,.59,4.78,.1l.59-1.48c-3.46-.32-6.63-.61-9.84-.9l-.41,1.35,.47,.41Zm62.02-82.48l1.08-1.29c-.83-2.42-2.19-4.45-3.55-6.46-.57-.84-1.38-1.53-2.15-2.19-.54-.47-1.19-.97-2.12-.13,3.03,2.75,5.28,6,6.74,10.07Zm-83.47,62.76c-.06-.26-.06-.34-.09-.41-1.2-2.32-2.39-4.64-3.63-6.94-.14-.26-.53-.39-.82-.59l-1.1,1.03c.82,1.33,1.61,2.59,2.38,3.87,.76,1.26,.98,2.82,2.18,4.02l1.09-.98Zm87.27-15.39c.55-2.07,1.14-4.13,1.61-6.21,.15-.67,.02-1.41-.03-2.12-.02-.26-.2-.51-.3-.76l-.52,.24c-1.1,2.32-1.05,5-2.08,7.36-.3,.68-.17,1.54-.25,2.55l1.57-1.06Zm26.08-80.52c.5-3.22,.43-3.36-2.01-4.71-.14-.08-.27-.22-.41-.24-.75-.07-1.33-.95-2.28-.43l-.07,1.22c1.63,1.42,3.13,2.73,4.77,4.16Zm-126.5,75.92c1.19,1.46,2.23,2.9,3.44,4.16,.47,.49,.73,1.51,1.84,1.25l.43-1.28c-1.45-1.77-2.88-3.53-4.38-5.37l-1.32,1.24Zm17.92,28.84c2.2,1.44,4.42,2.9,6.82,4.46l.26-1.08c-2.46-1.78-4.78-3.45-7.11-5.14-.86,.62-.04,1.13,.02,1.75Zm59.74-91.32c-2.27-1.83-4.16-4.05-7.18-5.01,.14,.39,.16,.65,.3,.78,.49,.45,1.12,.77,1.51,1.28,1.02,1.38,2.53,2.12,3.81,3.16,.33,.27,.7,.5,1.06,.73,.07,.04,.22-.03,.39-.06l.12-.87Zm21.64,68.9l-.39,.06c-1.4,1.5-2.42,3.19-2.73,5.33l1.39,.23c.47-.77,.82-1.54,1.35-2.16,.62-.72,.77-1.55,.78-2.41,0-.35-.26-.7-.4-1.05Zm-8.65-57.34c-1.21-1.03-2.32-1.96-3.42-2.91-1.09-.94-2.17-1.88-3.26-2.82l-.2,.2c.12,.23,.18,.51,.36,.69,1.27,1.29,2.59,2.53,3.83,3.85,.76,.8,1.4,1.71,2.06,2.54,.15-.38,.38-.92,.63-1.54Zm-96.26,45.69l1.07-1.7-3.23-2.81-.76,1.49c.87,1.17,1.51,2.32,2.91,3.02Zm-46.66-8.7l.04,5.17,.23,.04c.7-1.52,1.4-3.05,2.11-4.57-.62-.82-1.49-.59-2.38-.64Zm143.94-32.09c.38,1.55,1.67,2.29,2.49,3.6l1.12-1.44-1.31-2.47-2.31,.31Zm1.02-99.37c1.19-.26,1.89-.92,2.19-2.05,.34-1.29,.68-2.6,1.8-3.52,.17-.14,.2-.45,.32-.76l-2.12-.17c-.1,2.46-.51,4.68-2.2,6.51Zm3.06,103.11l-.28,.06c-.03,.18-.15,.39-.09,.54,1.1,2.61,2.21,5.21,3.33,7.81l.32,.02c.09-.37,.3-.75,.25-1.1-.06-.45-.31-.88-.52-1.3-.39-.78-.84-1.53-1.23-2.31-.61-1.23-1.19-2.48-1.78-3.71Zm-106.92-110.93l-.85,.42c1.59,1.29,3.01,2.57,4.9,3.16-.84-1.75-2.5-2.77-3.69-4.2-.04-.04-.14-.03-.24-.05l-.11,.67Zm6.9,147.8c.07,.26,.12,.63,.28,.93,.28,.52,.71,.88,1.35,.69,.66-.19,.94-.65,.86-1.35-.12-1.2-.54-1.67-1.8-1.96l-.69,1.7Zm86.01-55.52l-.65,2.93,1.24,1.08-.14-.32,1.49-1.2-1.94-2.49Zm-95.73-115.4c-.89-.29-1.7-.71-2.58-.3,.29,.57,.51,1.09,.82,1.55,.34,.5,.78,.94,1.3,1.56l.46-2.81Zm147.98,91.5l.2-1.42c-1.26-.41-2.43-.79-3.6-1.16l-.13,.26,3.53,2.33Zm-67.48-63.12c.77-.74,.86-1.58,.91-2.37l-1.57-.21c.21,.8,.42,1.63,.66,2.57Zm-61.31,141.76c.83,0,1.58,.31,2.33-.26-.55-.75-1.33-.58-2.06-.8l-.27,1.06Zm90.34,19.55c-.3,1.01-.27,1.05,.91,1.42l.23-1.34c-.33-.06-.52-.1-.72-.12-.11-.01-.23,.02-.42,.04Zm23.87-95.83c.33-1.09,.06-1.4-1.39-1.72,.46,.57,.93,1.15,1.39,1.72Zm-50.67-80.3l-.23-.18-.85,1.36,.15,.1,.93-1.27Zm-27.45,124.6q-.03-.89-.65-.51l.65,.51Z"
  />
  <path fill="#58b6d0"
    d="M309.04,246.58c.33-.29,.43-.46,.54-.47,4.52-.42,8.81-1.97,13.35-2.63-.14,.13-.27,.35-.43,.39-1.06,.26-2.14,.46-3.2,.74-1.18,.31-2.35,.68-3.52,1.01-.48,.14-.96,.29-1.46,.38-1.27,.24-2.53,.47-3.81,.66-.39,.06-.81-.04-1.47-.08Z"
  />
  <path fill="#58b6d0"
    d="M92.26,184.25l1.55,.58v-.14l23.29-.19,.08,.86-24.03,.2c-.11,.93-.27,1.66-.27,2.4-.04,7.59-.07,15.18-.07,22.77,0,4.93,.03,9.85,.06,14.78,.02,3.34,.08,6.67,.1,10.01,.01,2.81-.04,5.62-.02,8.44,.01,2.22,.11,4.44,.12,6.66,.02,3.25,0,6.5,.02,9.76,.02,6.44,.04,12.87,.07,19.31,.01,3.65,.08,7.31,.04,10.96-.04,4.44-.2,8.87-.21,13.31,0,2.98,.19,5.96,.25,8.93,.06,3.18,.04,6.36,.07,9.54,.07,8.82,.15,17.63,.22,26.45,.03,3.62,.04,7.24,.11,10.85,.07,3.45,.19,6.9,.3,10.34,.06,1.98,.14,3.96,.23,5.94,.02,.46,.12,.92,.19,1.39l1.43,.34,.33,.94-2.6-.38c-.73-.68-.57-1.66-.58-2.53-.09-7.03-.13-14.06-.19-21.09-.06-7.54-.12-15.08-.17-22.62-.05-7.91-.06-15.81-.13-23.72-.03-3.41-.23-6.82-.25-10.23-.02-2.97,.15-5.94,.15-8.91,0-4.25-.09-8.49-.1-12.74-.01-3.06,.02-6.12,.06-9.18,.03-2.34,.11-4.68,.11-7.03,0-2.57-.06-5.14-.08-7.71-.03-4.49-.05-8.98-.08-13.46-.03-4.48-.07-8.95-.12-13.43-.03-2.85-.15-5.7-.15-8.55,0-3.13,.11-6.26,.11-9.4,0-2.58-.11-5.16-.11-7.74,0-4.56,.03-9.12,.07-13.68,0-.64,.15-1.28,.24-2.05Z"
  />
  <path fill="#58b6d0" d="M119.67,184.85l-.72,.41-.43-.66,1.1-.09,.06,.33Z" />
  <path fill="#58b6d0" d="M132.88,317.31l1.97,.99c-1.21,.18-1.48,.07-2.1-.73l.14-.26Z" />
  <path fill="#58b6d0"
    d="M132.02,311.69c-.57-.08-1.15-.15-1.3-1.02,.74,.12,1.22,.31,1.28,1.04v-.02Z"
  />
  <path fill="#58b6d0"
    d="M132,311.72c.43-.54,.92-.51,1.62-.15-.63,.35-1.11,.39-1.61,.13v.02Z"
  />
  <path fill="#58b6d0"
    d="M239.76,274.97c3.12,3.56,4.33,12.23,2.4,15.23,.34-2.59,.52-5.2-.08-7.73-.61-2.53-1.53-4.99-2.32-7.49Z"
  />
  <path fill="#58b6d0"
    d="M241.48,271.55c.8,1.29,1.69,2.53,2.36,3.88,.97,1.93,1.82,3.94,2.17,6.11,.2,1.26,.25,2.51-.35,3.73-.17-1.55-.2-3.14-.56-4.65-.38-1.6-1.01-3.16-1.66-4.68-.63-1.46-1.43-2.85-2.16-4.28l.19-.11Z"
  />
  <path fill="#58b6d0"
    d="M199.63,311.13c.42-3.91,.84-7.82,1.26-11.68,.31,1.91,.44,3.9,.14,5.9-.29,1.96-.29,4-.95,5.88l-.45-.11Z"
  />
  <path fill="#58b6d0"
    d="M197.43,301.84c-.02,3.18-.38,6.33-.9,9.47-.04,.21-.21,.4-.32,.61l-.37-.16c-.02-.48-.13-.97-.06-1.44,.34-2.39,.71-4.77,1.09-7.15,.07-.46,.2-.91,.3-1.36l.26,.04Z"
  />
  <path fill="#58b6d0"
    d="M211.47,296.15c1.17,2.44,.37,10.2-1.31,11.28,1.18-3.81,1.54-7.51,1.31-11.28Z"
  />
  <path fill="#58b6d0"
    d="M213.81,305.73c.44-1.77,1.02-3.51,1.3-5.31,.28-1.76,.25-3.57,.42-5.35,.84,3.78,.54,7.38-1.4,10.75l-.33-.09Z"
  />
  <path fill="#58b6d0"
    d="M238.42,282.18c.28,.88,.73,1.74,.82,2.64,.2,1.96,.26,3.94,.28,5.92,0,.66-.26,1.33-.41,2l-.44-.04c0-.4-.07-.81,0-1.19,.51-2.54,.13-5.05-.16-7.56-.07-.59-.05-1.18-.07-1.78l-.02,.02Z"
  />
  <path fill="#58b6d0"
    d="M204.17,300.31c.37,3.36,.43,6.69-.69,9.94h-.38c-.03-.25-.15-.53-.09-.77,.65-2.79,.95-5.61,.75-8.48-.02-.24,.09-.49,.14-.73l.28,.03Z"
  />
  <path fill="#58b6d0"
    d="M207.44,299.52c.45,3.21,.74,6.42-.77,9.48-.43-1.06,.18-2.02,.25-3.03,.08-1.1,.22-2.19,.26-3.29,.04-1.06,0-2.12-.02-3.18l.28,.03Z"
  />
  <path fill="#58b6d0"
    d="M231.01,295.06c.16-3.07,.32-5.93,.47-8.79l.27-.03c.06,.36,.16,.71,.16,1.07,.04,2.02,.07,4.04,.06,6.06,0,.46-.18,.93-.35,1.37-.05,.14-.34,.19-.6,.32Z"
  />
  <path fill="#58b6d0"
    d="M235.36,285.3c.63,3.26,1.31,6.56-.46,9.74,.17-1.61,.4-3.21,.48-4.82,.08-1.64,0-3.28-.02-4.93Z"
  />
  <path fill="#58b6d0"
    d="M246.94,259.91c2.13,2.05,4.29,4.08,4.52,7.34-.7-1.3-1.31-2.65-2.13-3.87-.78-1.16-1.78-2.18-2.69-3.27l.3-.21Z"
  />
  <path fill="#58b6d0"
    d="M194.17,306.36c.09,1.9-.23,3.77-.72,5.6-.08,.3-.52,.51-.96,.64,.47-2.1,.95-4.19,1.42-6.29l.26,.04Z"
  />
  <path fill="#58b6d0"
    d="M245.97,272.58c.23,.14,.55,.22,.66,.42,1.12,2,1.7,4.17,1.92,6.45,0,.09-.11,.18-.24,.4-.14-.26-.27-.43-.33-.62-.52-1.73-1.03-3.47-1.54-5.21-.14-.49-.3-.98-.45-1.47l-.02,.02Z"
  />
  <path fill="#58b6d0"
    d="M247.86,267.77c.37,.3,.9,.52,1.09,.91,.67,1.41,1.25,2.87,1.81,4.32,.14,.37,.11,.81,.15,1.22l-.3,.08c-.15-.33-.33-.65-.43-1-.49-1.7-1.14-3.32-2.17-4.77-.14-.19-.1-.52-.14-.78l-.02,.02Z"
  />
  <path fill="#58b6d0"
    d="M228.1,288.8c.39,1.82,.37,3.62-.24,5.37l-.28-.02c.17-1.78,.34-3.57,.51-5.35Z"
  />
  <path fill="#58b6d0"
    d="M246.69,265.82c-.31-.09-.7-.08-.91-.28-.83-.77-1.6-1.61-2.32-2.49,1.21,.78,2.43,1.53,3.22,2.79l.02-.02Z"
  />
  <path fill="#58b6d0"
    d="M247.88,267.75l-1.24-.74,.06-1.19-.02,.02c.42,.63,1.39,.92,1.18,1.93l.02-.02Z"
  />
  <path fill="#58b6d0" d="M238.44,282.17l-.8-2.19c.9,.55,.9,1.36,.78,2.21l.02-.02Z" />
  <path fill="#58b6d0"
    d="M222.86,247.72l-1.38-1.31,.23-.22c.63,.27,1,.8,1.22,1.46l-.08,.07Z"
  />
  <path fill="#58b6d0"
    d="M246,272.56c-.55-.32-.89-.74-.72-1.43l-.02,.02c.64,.27,.78,.8,.72,1.43l.02-.02Z"
  />
  <path fill="#58b6d0" d="M245.28,271.13l-.87-.96c.73,0,.8,.48,.85,.98l.02-.02Z" />
  <path fill="#58b6d0"
    d="M252.68,286.81c-.36,1.7,1.32,2.94,.57,4.41,1.36,2.43,2.69,4.8,4.01,7.18-3.17-3.07-4.79-6.91-5.4-11.27l.68-2.49c.6,2.07,2.13,2.75,4.5,2.94,1.8,.15,3.06-.58,3.47-1.94-1.63-.09-3.05-.59-3.71-2.24-.16-.39-.55-.85,.19-1.36,.52,1.34,1.35,2.34,2.93,2.6,2.68-.27,3.59-1.22,3.87-4.14l-1.19-1.04,.09-.3c.63,0,1.27,.03,1.9-.03,.84-.08,1.72-.11,2.51-.38,2-.68,2.95-2.46,2.66-4.8l.72-.98,.35,2.19c-.51,3.39-2.53,4.8-6.05,5-.29,1.05-.4,2.25-.95,3.18-.51,.87-1.5,1.46-2.28,2.17l-.21-.16-.31,1.62-2,1.48c.81,2.63,2.86,4.61,4.16,6.99l-.3,.19c-1.62-2.3-3.25-4.6-4.94-7-1.66-.2-3.52-.43-5.27-1.82Z"
  />
  <path fill="#58b6d0"
    d="M280.1,262.65c.59,2.15,.33,4.15-1.43,5.55-1.15,.92-2.59,1.49-3.93,2.16-.52,.26-1.13,.33-1.73,.49-.65-.38-1.64-.18-1.86-1.3,.17,.1,.34,.2,.5,.32,.72,.55,1.51,.74,2.32,.31,1.15-.63,2.27-1.3,3.35-2.03,1.18-.79,1.8-1.97,2.13-3.54l-.38-1.48-4.71-1.56c.8-.78,1.5-.27,2.17-.15,.73,.13,1.47,.25,2.04,.35,1.96-.21,2.85-1.52,3.69-2.9,.91-1.49,.29-2.98-.27-4.69,.5,.16,.85,.16,.93,.31,.88,1.6,1.22,3.2,.24,4.95-.74,1.32-1.83,2.22-3.06,3.2Z"
  />
  <path fill="#58b6d0"
    d="M281.61,276.28c-.25,.1-.6,.13-.73,.32-1.12,1.53-2.81,1.68-4.46,1.81-.94,.08-1.9-.13-2.96-.22,.38-.84,.93-.84,1.48-.89,1.03-.09,2.05-.18,3.07-.34,1.26-.21,2.23-.83,2.57-2.15,.27-1.06,.51-2.14,.77-3.21,.07-.28,.17-.56,.3-.99,.96,.91,.56,1.89,.53,2.77-.02,.49-.36,.96-.46,1.46-.1,.48-.09,.98-.13,1.47l.02-.02Z"
  />
  <path fill="#58b6d0"
    d="M289.93,255.29c1.66,.93,1.31,2.62,1.24,4.06-.08,1.98-1.26,3.35-3.11,4.08-1.81,.71-3.69,.63-4.47-.2,.16-.06,.32-.19,.41-.15,1.53,.61,2.85-.09,4.2-.65,1.23-.52,1.79-1.52,1.88-2.79,.08-1.18,.18-2.37-.41-3.49-.11-.21-.05-.5-.06-.76l.32-.09Z"
  />
  <path fill="#58b6d0" d="M261.61,279.08c-.68-.23-.99-.58-.38-1.23l.38,1.23Z" />
  <path fill="#58b6d0"
    d="M165.05,222.24l-.59,3.4,.84,2.11,1.55,1.22c-.58,.84-1.09-.14-1.67,.07-.7,.94-.92,2.08-.9,3.29,1.37,2.79,3.27,4.84,6.81,4.71l.77-.71c-.37-1.2-.72-2.32-1.06-3.45-.65-2.17-.03-3.6,2.11-4.63-1.14,1.02-1.74,2.34-1.54,3.76,.19,1.37,.81,2.68,1.22,3.95,1.23,1.36,2.81,1.99,4.5,2.48-1.02,.49-1.18,.45-4.45-1.2-2.95,1.19-5.57,.45-7.5-2.13-.4-.53-.79-1.07-1.12-1.65-.84-1.48-.54-2.89,.39-4.22,.09-.13,.17-.27,.24-.41,.02-.03,.02-.08,.04-.19-.04-.12-.05-.34-.17-.49-1.16-1.5-.92-3.22-.69-4.9,.21-1.55,1.14-2.48,2.69-2.78,.52-.1,1.04-.2,1.56-.29l.14,.33-3.18,1.74Z"
  />
  <path fill="#58b6d0"
    d="M177.18,249.5l-1.59,1.62-.07-.09c-.28,.6-.63,1.18-.81,1.82-.17,.6-.15,1.24-.21,1.84l1.19,1.57-.04,.2c1.77,.46,3.53,.93,5.49,1.44-.4,.07-.64,.14-.88,.15-1.61,.07-3.15-.28-4.55-1.07-2.01-1.13-2.54-2.94-1.58-5.08,.14-.31,.3-.62,.49-1.02-3.22-.59-5.68-1.99-6.25-5.46-.31-1.89,.17-3.51,1.61-4.79l.24,.13-.87,1.27-.28-.03c.05,1.12,.02,2.25,.17,3.35,.15,1.13,.38,2.23,1.45,3,.95,.68,1.93,1.09,3.07,1.38,1.23,.31,2.12-.71,3.23-.62l.2,.38Z"
  />
  <path fill="#58b6d0"
    d="M181.17,232.62c-1.84,1.55-2.76,3.38-2.04,5.77l1.89,2.56c.85,.51,2.03,.13,2.92,.96-1.94,.57-4.18-.53-5.09-2.24-.26-.49-.68-.88-1.01-1.3,.02-.59,.12-1.27,.06-1.94-.09-.97,.06-1.8,.84-2.46,.51-.43,.98-.93,1.5-1.35,.17-.14,.45-.14,.68-.2l.26,.2Z"
  />
  <path fill="#58b6d0"
    d="M177.85,242.7c0,.22,.04,.44,0,.65-.33,1.7-.16,3.4,.27,5.03,.33,1.27,1.23,2.21,2.54,2.53,1.29,.32,2.62,.68,3.97,.19,.14-.05,.32-.02,.47,.02,.1,.02,.18,.12,.35,.25-.71,.51-1.46,.63-2.23,.6-.63-.02-1.25-.13-1.88-.2-2.33-.27-4.03-1.99-4.28-4.34-.18-1.63,.02-3.21,.49-4.76l.31,.02Z"
  />
  <path fill="#58b6d0" d="M278.04,368.4l.69-.37,.08,1.1-.25,.07-.53-.82v.03Z" />
  <path fill="#58b6d0"
    d="M163.77,253.4l-.22,.46c-.8,.2-14.21-4.38-15.3-5.27,.97,.29,1.7,.48,2.42,.72,2.63,.86,5.24,1.75,7.88,2.58,.92,.29,1.89,.56,2.84,.58,.91,.01,1.6,.29,2.39,.94Z"
  />
</svg>
