<?xml version="1.0" encoding="UTF-8"?>
<svg
  id="Layer_1"
  xmlns="http://www.w3.org/2000/svg"
  viewBox="0 0 595.28 841.89"
>
  <path fill="#58b6d0"
    d="M427.62,515.3c-.69,.82-1.39,1.65-2.07,2.46,.71,.41,1.42,.83,2.13,1.24l-.12,.51c-.51-.05-1.13,.07-1.5-.18-1.19-.84-2.15-.41-3.05,.39-3.49,3.1-6.97,6.23-10.45,9.35-4.52,4.04-9.04,8.07-13.55,12.12-2.44,2.18-4.85,4.4-7.3,6.57-2.49,2.2-5.03,4.35-7.52,6.54-.3,.26-.46,.69-.73,.98-.61,.66-1.28,1.23-2.67,.78,14.28-12.69,28.38-25.22,42.56-37.81-.75-.53-1.39-.93-1.98-1.39-1.39-1.11-1.38-2-.47-3.53,.83-1.39,1.37-2.95,2.09-4.55-1.8-1.4-3.51-2.72-5.52-4.28-.46,1.27-.78,2.26-1.18,3.22-.38,.92-.83,1.8-1.26,2.7-.96,2.01-1.87,4.05-2.92,6.01-.88,1.64-1.83,3.25-2.92,4.75-1.15,1.56-2.6,2.8-4.72,2.94-.65,.04-1.27,.43-1.92,.54-1.38,.22-2.57-.16-3.58-1.72v-5.19c.56-1.59,1.28-3.6,2.09-5.89-3.65,.74-6.87,2.2-10.67,.57-1.3,1.07-2.83,2.38-4.41,3.63-.96,.76-1.99,1.43-2.99,2.13l-.12-.12c.19-.35,.29-.8,.57-1.04,1.42-1.25,2.91-2.42,4.34-3.66,.72-.63,1.37-1.35,1.98-1.96-1.19-2.62-1.56-5.03-.36-7.56l-.48-.23c-7.44,6.54-14.87,13.08-22.34,19.64l-.8,1.52-.13-.13c-.72,.59-1.43,1.18-2.15,1.76-.64,.37-1.29,.73-2.03,1.15l-.37-1.42c-11.38,3.34-22.66,6.79-34.21,9.79,.85,3.05,1.85,5.82,1.57,8.75l-.52,.11c-.39-1.3-.78-2.6-1.13-3.76-3.65-.19-7.06-.43-10.48-.54-5.15-.17-10.3-.26-15.45-.37-1.85-.04-3.7,.01-5.55-.07-2.86-.12-5.72-.33-8.76-.51-.53,3.86-1.03,7.42-1.55,11.22,6.58,.17,12.81,.34,19.26,.51-.28,.47-.41,.7-.41,.69h-15.36l-.8,.66-.05-.36-2.86-.2c-.51,2.83-1,5.55-1.53,8.49,13.64,.16,27.15,.31,40.65,.47v.03h6.98c-.08-2.91-1.08-5.65-1.53-8.7-2.86,0-5.63,.04-8.4-.01-2.68-.05-5.36-.25-8.05-.31-2.7-.07-5.41,.12-8.1-.44,1.01-.38,2.03-.72,3.04-.69,3.66,.14,7.32,.46,10.99,.59,2.88,.1,5.76,.04,8.64,0,.58,0,1.16-.23,1.81-.36-.42-1.56-.76-2.83-1.22-4.52,.63,.34,1.09,.43,1.22,.69,.23,.45,.22,1.02,.4,1.51,.37,1.01-.13,2.39,1.09,2.88-.12,.66-.43,1.31-.32,1.89,.45,2.54,1.02,5.07,1.54,7.56,1.61,.65,11.43-1.97,13.4-3.13,5.89-1.96,10.46-3.55,15.08-5.01,4.68-1.47,9.39-2.81,14.27-4.25-.82-1.66-1.51-3.02-2.16-4.38-.91-1.89-1.8-3.8-2.69-5.7l.13-.11c.35,.34,.8,.62,1.04,1.03,1.65,2.89,3.3,5.79,4.87,8.73,2.65,4.97,5.22,9.99,7.88,14.95,1.83,3.41,3.75,6.77,5.63,10.15,1.66,2.98,3.34,5.96,5,8.94,.17,.3,.27,.64,.21,1.28-.35-.18-.87-.27-1.03-.56-1.77-3.18-3.49-6.39-5.23-9.59-1.15-2.1-2.33-4.19-3.59-6.47-.95,.2-1.94,.3-2.87,.61-5.19,1.76-10.46,3.24-15.75,4.67-4.2,1.13-8.3,2.66-12.44,4.01-4.14,1.35-8.28,2.71-12.43,4.03-1.68,.54-3.38,.99-5.06,1.5-.27,.08-.49,.3-.69,.43,.74,3.88,1.46,7.65,2.22,11.66-.02,.37-.18,1.02-.08,1.64,.41,2.38,.9,4.74,1.35,7.11,.29,1.51,.5,3.03,.87,4.52,.93,3.77,1.75,7.55,2.03,11.44,.03,.46,.24,.91,.32,1.38,.62,3.78,1.19,7.57,1.85,11.35,.23,1.31,.69,2.58,.94,3.89,.1,.5-.11,1.06-.18,1.59l-.44,.07c-.27-.48-.71-.93-.79-1.44-.31-2.17-.42-4.36-.78-6.52-.46-2.78-1.12-5.53-1.62-8.3-.36-2.02-.53-4.06-.89-6.08-.59-3.31-1.28-6.6-1.88-9.9-.37-2.03-.64-4.08-.98-6.12-.26-1.57-.56-3.13-.87-4.81-3.83,0-7.72,0-11.62,0s-8.16,0-12.24,0c-3.97,0-7.93,0-11.9,0l-.04-.65c.58-.06,1.17-.18,1.75-.18,6.99-.01,13.98,.03,20.97-.03,3.25-.02,6.5-.23,9.75-.34,1-.03,2,0,3.23,0-1.92-10.32-3.78-20.35-5.68-30.55-3.98,0-7.9,.04-11.83-.01-4.02-.05-8.03-.22-12.05-.27-4.02-.05-8.04-.06-12.06,0-3.95,.07-7.91-.29-12.05,.18,.66,1.18,1.16,2.05,1.64,2.93,.81,1.49,1.61,2.97,2.39,4.48,.94,1.81,1.87,3.55,3.61,4.83,1.05,.78,1.66,2.15,2.45,3.27,.09,.13,0,.41,.09,.51,1.55,1.56,.9,3.13,.21,4.45,.58,1.67,.99,3.19,1.62,4.61,.61,1.39,1.44,2.68,2.2,4.06l-.27,.4c.56,.49,1.11,.99,1.66,1.48,.63,.07,1.27,.13,1.99,.21-.32,.77-.53,1.29-.69,1.66,1.18,1.38,2.23,2.61,3.34,3.91l-.61,1.28c-1.22-1.38-2.35-2.59-3.41-3.86-1.27-1.54-2.78-2.45-4.85-2.4-2.82,.07-5.65,0-8.48,.06-1.31,.03-2.62,.22-3.93,.3-.83,.05-1.72,.16-2.16-1.15h16.55c-2.27-3.71-3.9-7.5-4.78-11.06-1.85-1.37-3.35-2.41-4.77-3.57-.47-.38-.66-1.09-1.08-1.56-.57-.63-1.23-1.18-1.88-1.73-.66-.56-1.36-1.07-2.24-1.76-.42,2.7-.85,5.43-1.29,8.29l1.07,.56-1.11,.65c-.65,3.69-.82,7.44-1.74,11.59-.08,.62-.16,1.78-.38,2.91-.62,3.22-1.57,6.39-1.88,9.64-.34,3.55-1.15,6.97-1.83,10.44-.31,1.59-.22,3.26-.46,4.87-.3,1.97-.77,3.9-1.13,5.86-.26,1.42-.36,2.86-.69,4.26-.28,1.17-.8,2.28-1.4,3.39-.59-2.43,.28-4.77,.69-7.08,.42-2.38,.62-4.88,1.75-6.7,.11-1.34,.16-2.37,.29-3.39,.35-2.75,.67-5.52,1.14-8.25,.46-2.62,1.14-5.21,1.65-7.82,.24-1.21,.3-2.45,.47-3.68,.19-1.34,.41-2.67,.65-4.19-4.8-.95-9.29-3.32-14.2-3.79l.33,2.32-1.5,.26c-1.12-.8-2.23-1.42-3.1-2.28-.87-.86-1.51-1.96-1.99-2.6-2.16-.64-3.95-1.18-6-1.79,.59-.34,1.59-.15,2.76,.01,.79,.11,1.67,1,2.49-.17-.74-1.61-1.72-3.16-1.49-5.19,.11-.93-.69-1.95-.97-2.95-.36-1.34-.61-2.71-1.22-4.15-.43,1.03-.86,2.05-1.4,3.34-1.18-1.34,.07-2.42-.03-3.85-4.62-1.44-9.36-2.92-14.34-4.47-.92,2.34-1.86,4.6-2.7,6.9-.28,.77-.56,1.1-1.45,.67,1.07-2.6,2.09-5.1,3.21-7.82-.94-.78-2.02-1.7-3.12-2.59-1.55-1.24-3.13-2.46-4.7-3.69-1.82-1.42-3.64-2.84-5.44-4.29-.22-.18-.31-.53-.46-.81,1.86,1.24,3.75,2.42,5.56,3.74,2.38,1.73,4.7,3.57,7.04,5.36,.54,.41,1.07,.83,1.78,1.37,1.88-4.21,3.67-8.22,5.55-12.45-2.73-2.14-5.42-4.24-8.11-6.34l.32-.45c2.69,1.86,5.38,3.72,8.2,5.67,1.42-3.37,2.74-6.48,4.14-9.8-1.63-1.33-3.27-2.7-4.94-4.02-4.72-3.71-9.44-7.41-14.18-11.1-1.47-1.15-3.02-2.2-4.5-3.33-.99-.76-1.9-1.62-2.9-2.36-2.05-1.53-4.16-2.99-6.21-4.53-1.97-1.48-3.87-3.04-5.82-4.53-2.58-1.97-5.22-3.87-7.79-5.85-3.7-2.84-7.38-5.72-11.05-8.6-1.8-1.41-3.58-2.85-5.35-4.3-1.44-1.18-2.84-2.41-4.61-3.91v5.24c-1.34-1.08-1.02-2.33-1.29-3.38-1.44,.08-1.7,.44-1.87,1.94-.17,1.59-.48,3.16-.74,4.73-.03,.15-.17,.28-.34,.55l-1.02-.53,.79-4.45c-2.85,.97-3.84,2.78-3.68,5.51,2.51,1.9,5.18,3.95,7.89,5.94,6.1,4.5,12.21,8.99,18.35,13.45,3.48,2.53,7.02,4.97,10.49,7.5,.68,.49,1.18,1.23,1.76,1.86l-.12,.12c-.44-.16-.95-.22-1.31-.49-2.31-1.72-4.55-3.52-6.88-5.21-3.48-2.53-7.03-4.96-10.52-7.47-4.84-3.48-9.65-7-14.47-10.5-1.38-1.01-2.99-1.84-4.04-3.13-.87-1.06-1.5-1.19-2.72-.39-.15-.7-.39-1.21-.31-1.66,.09-.51,.46-.97,.71-1.46l-.3-.37-2.15,.72-1.62,4.01c-1.62,.07-.92-1.18-1.26-1.66-2.42,.81-4.74,1.59-7.21,2.42l-.34,.82c.89,.71,1.64,1.35,2.43,1.92,1.8,1.31,3.89,2.34,5.36,3.95,2.91,3.16,6.73,5.11,9.88,7.92,1.66,1.49,3.62,2.64,5.39,4.02,2.62,2.04,5.16,4.18,7.78,6.21,1.63,1.26,3.4,2.35,5.03,3.61,2.7,2.08,5.32,4.25,8.01,6.34,2.65,2.06,5.37,4.01,8,6.09,2.75,2.17,5.41,4.45,8.12,6.66,1.79,1.45,3.96,2.47,5.11,4.63-.23-.04-.52,0-.68-.12-3.14-2.39-6.28-4.77-9.39-7.2-3.96-3.09-7.88-6.24-11.85-9.32-5.23-4.06-10.49-8.08-15.74-12.12-2.79-2.15-5.57-4.3-9.02-6.97-2.63-2.28-6.25-4.69-9.64-7.38-3.41-2.7-6.8-5.44-10.19-8.16l-.17,.36-2.03-.24-.3,.81c-1.05,.17-1.85,.3-3.03,.49l-1.18-.54c-.47,.47-.9,1.09-1.48,1.43-1.55,.91-3.18,1.69-4.75,2.56-1.45,.81-2.87,1.67-4.51,2.63l-.68-.13c.07,.82,.11,.93-2.38,1.87-1.15,.44-1.47,1.82-2.99,1.91-1.03,.06-1.98,1.26-3,1.91-.98,.63-1.99,1.23-3,1.82-1.06,.62-2.08,1.42-3.23,1.77-1.16,.35-1.75,1.96-3.56,1.3,.25-.4,.38-.85,.68-1.02,3.63-2.06,7.28-4.08,10.93-6.11,.05-.03,.14-.03,.16-.07,1.12-2.09,3.65-2.26,5.19-3.83,.63-.64,1.61-.93,2.44-1.37,2.22-1.18,4.44-2.33,6.65-3.54,.33-.18,.56-.57,.99-1.03-2.39-.16-4.54-.31-6.69-.43-2.8-.16-4.97-1.85-5.84-4.59-.07-.23-.13-.45-.28-.94l.99-.86c4.2-1.11,7.82-.13,11.41,1.56l-1.07-.96c1-.06,1.69-.11,2.54-.16l1.35-1.46-.12-.27c2.26-.41,4.52-.82,6.97-1.26,.04-.43,.21-.91,.1-1.32-1.93-7.16-3.9-14.31-5.85-21.46-.09-.34-.04-.72-.06-1.08l.47-.13c.41,1.05,.92,2.06,1.22,3.14,.92,3.34,1.74,6.71,2.65,10.06,.15,.54,.6,1.01,1.08,1.77,.01-.02-.17,.3-.4,.71l2.02,8.06c.73-.04,1.5-.08,2.64-.14l2.05-2.67c4.29-1.85,8.61-3.72,13.23-5.72-5.14-18.03-9.25-36.3-14.7-54.45-6.48,.66-12.77,1.3-19.34,1.97,.15,.99,.22,1.85,.41,2.68,.4,1.72,.81,3.44,1.3,5.14,1.21,4.17,2.47,8.32,3.7,12.48,.03,.1-.04,.22-.15,.74-.42-.47-.84-.74-.95-1.1-1.9-6.48-3.76-12.97-5.69-19.68-1.83,.22-3.66,.44-5.5,.66-1.58,.18-3.16,.34-4.74,.52-3.41,.4-6.82,.82-10.24,1.21-1.84,.21-3.68,.35-5.51,.59-2.28,.3-4.55,.67-6.82,1.01v-1.08c.26-.12,.52-.33,.79-.35,.85-.06,1.71,.03,2.56-.07,3.12-.34,6.23-.71,9.35-1.1,2.08-.25,4.15-.52,6.22-.82,2.93-.42,5.84-.98,8.79-1.29,1.81-.19,3.65-.04,5.6-.04,.31-1.8,.61-3.29,.83-4.79,.49-3.33,.97-6.66,1.41-10,.29-2.17,.46-4.36,.78-6.52,.34-2.33,.81-4.65,1.17-6.98,.47-3.03,.85-6.07,1.34-9.1,.46-2.86,1.05-5.69,1.53-8.55,.26-1.57,.4-3.16,.62-4.74,.33-2.4,.7-4.79,1.02-7.18,.18-1.33,.31-2.66,.46-4l.52-.05c.09,.38,.3,.77,.25,1.13-.4,2.68-.86,5.36-1.27,8.04-.2,1.29-.43,2.58-.47,3.87-.13,3.63-1.2,7.09-1.74,10.65-.44,2.92-.77,5.86-1.17,8.79-.23,1.7-.47,3.39-.73,5.08-.7,4.46-1.46,8.92-2.1,13.39-.25,1.74-.24,3.52-.41,5.28-.14,1.46-.38,2.92-.59,4.53l1.01,.64c1.15-.22,2.08-.47,3.03-.57,2.89-.28,5.79-.51,8.69-.74,1.78-.14,3.55-.26,5.33-.36,1.04-.06,1.67-.58,1.83-1.59,.5-3.05,.98-6.1,1.46-9.15,.33-2.1,.65-4.2,.97-6.3,.04-.23,.12-.47,.1-.7-.2-2.94,.69-5.75,1.05-8.62,.2-1.53,.27-3.08,.4-4.61,.24-2.96,.45-5.92,.73-8.87,.36-3.77,.76-7.53,1.16-11.29,0-.09,.14-.18,.45-.54,.5,1.76,.35,3.3,.18,4.82-.28,2.52-.66,5.04-.95,7.56-.37,3.29-.71,6.59-1.04,9.89-.17,1.71-.22,3.44-.42,5.15-.3,2.58-.71,5.15-1.02,7.73-.29,2.38-.47,4.78-.77,7.16-.3,2.33-.72,4.64-1.04,6.96-.09,.64-.01,1.3-.01,2.05,3.29-.45,6.35-.86,9.41-1.28l.07-.37-4.41-2.88-.11-1.95c3.76-1.95,6.7,.42,9.89,1.07,1.47-12.54,2.68-24.98,4.13-37.4l.63,.03c0,.95,.07,1.9-.01,2.84-.27,3.01-.57,6.01-.91,9.01-.29,2.5-.67,4.98-.99,7.48-.17,1.29-.31,2.59-.43,3.89-.31,3.41-.6,6.82-.91,10.23-.14,1.52-.31,3.03-.48,4.58,.63,.58,1.22,1.31,1.97,1.77,1.28,.78,2.74,.51,4.14,.36,1.71-.19,3.42-.44,5.13-.63,2.47-.28,4.95-.51,7.42-.8,.19-.02,.36-.27,.39-.3-1.17-1.39-2.31-2.75-3.51-4.18l.56-2.93c2.57,.77,4.92,1.47,7.52,2.24,1.78-15.31,3.3-30.79,4.46-46.42-7.52-3.09-14.83-6.1-22.22-9.14l-.39,2.02c-.54-.87-.97-1.56-1.39-2.25l-.51,.47,.63-.78c-4.1-1.61-8.12-3.18-12.3-4.83-.18,.28-.53,.58-.57,.91-.29,2.35-.55,4.7-.75,7.06-.18,2.11-.21,4.23-.39,6.34-.12,1.42-.38,2.84-.58,4.26h-.42c-.06-.36-.14-.72-.17-1.07-.03-.36-.04-.72,0-1.08,.46-4.63,1-9.26,1.33-13.91,.06-.79,.53-1.88-.46-2.62-.13-.1-.02-.53-.02-.85-5.28-2.01-10.59-4.03-15.96-6.07-.81,6.02-1.58,11.72-2.34,17.43l-.38-.02c-.33-2.93,.29-5.84,.63-8.74,.34-2.96,.81-5.92,1.25-9.13-1.39-.59-2.6-1.12-3.82-1.63-2.66-1.1-5.31-2.2-7.98-3.28-1.36-.55-2.76-1.02-4.1-1.62-.51-.23-.9-.71-1.35-1.08l.24-.31c9.31,3.81,18.62,7.62,28,11.46,8.3-12.33,17.4-23.98,25.33-36.77-10.6-9.14-21.78-17.44-32.63-26.14l.14-.44c.44,.13,.98,.14,1.32,.41,2.11,1.68,4.16,3.44,6.27,5.14,.83,.66,1.75,1.21,2.62,1.83,.4,.28,.8,.58,1.18,.9,.94,.81,1.87,1.64,2.83,2.49,6.51-3.98,12.92-7.9,19.69-12.04-.29,.59-.35,1-.58,1.15-2.16,1.42-4.34,2.8-6.52,4.19-2.78,1.77-5.54,3.56-8.33,5.31-.97,.61-1.99,1.15-3.3,1.91,5.91,4.76,11.69,9.41,17.53,14.12,3.91-2.38,7.91-4.82,11.91-7.26l.37,.57c-3.85,2.48-7.69,4.97-11.63,7.51l5.14,4.33,1.01-1.15,.37,.12-.18,1.71c.86,.8,1.8,1.68,2.65,2.47,2.16-1.39,4.08-2.66,6.04-3.87,.43-.26,1.01-.27,1.52-.4l.12,.11c-2.2,1.49-4.39,2.98-6.76,4.59,1.27,1.05,2.61,2.12,3.9,3.25,.31,.27,.45,.74,.67,1.12-.58-.25-1.25-.39-1.72-.77-1.15-.91-2.17-1.97-3.31-2.88-1.27-1.02-2.62-1.94-3.9-2.88-7.95,11.61-15.78,23.05-23.67,34.58,4.1,1.57,8.25,3.15,12.69,4.84,7.6-9.9,14.25-20.66,21.23-31.03l-1.35-1.9c1.02,.25,2.04,.51,3.21,.8l-.27,1.05c1.77,1.39,3.63,2.79,5.42,4.27,.45,.37,.7,.98,1.04,1.48-.32-.11-.7-.15-.95-.34-1.98-1.53-3.93-3.1-6.12-4.84-7.01,10.34-13.96,20.58-21,30.96,4.81,1.96,9.51,3.88,14.18,5.79,6.36-9.06,12.49-18.11,17.73-27.91-.81-.66-1.62-1.25-2.34-1.93-.56-.53-1.02-1.16-1.53-1.75,1.22,.67,2.45,1.33,3.68,2.01l1.4-.32-.55,.96c5.36,5.5,11.81,9.77,17.31,14.89,6.82-4.6,13.42-9.06,20.11-13.57-3.13-3.22-6.65-5.35-10.3-7.22-1.33-.68-2.89-.92-4.09-1.95-1.5-1.29-3.06-2.52-4.94-4.07-.28,.19-.87,.59-1.47,.98-2.32,1.5-4.64,2.99-6.96,4.49-2.48,1.61-4.93,3.25-7.43,4.84-.44,.28-1.02,.36-1.53,.53l-.18-.39c5.7-3.81,11.41-7.61,17.2-11.48-.47-3.22,1.97-5,3.66-6.95,1.36-.81,2.56-1.67,3.87-2.27,1.51-.69,3.11-1.22,4.7-1.72,1.88-.58,3.78-1.08,5.68-1.57,.45-.11,.96-.02,1.39-.02,.4-.27,.86-.79,1.4-.92,1.95-.44,3.93-.86,5.91-1.06,2.11-.21,4.25-.15,5.83-.19l4.16-.83,.49-.84c-.24-.22-.47-.4-.66-.6-2-2.16-4.72-2.66-7.42-3.27-1.9-.43-3.88-.46-5.73-.87-2.53-.56-5.1-1.59-6.42-4.24-.07-.14-.28-.21-.4-.33-.11-.12-.19-.28-.41-.62l1.23-.97c.79,.56,1.62,1.02,2.24,1.67,.26,.28,.08,.98,.12,1.88,1.01,.54,2.34,1.56,4.05,1.56,3.24,0,6.3,.83,9.32,1.89,.35,.12,.74,.13,.88,.15l2.38,1.89c1.01-.65,1.95-1.26,2.89-1.87l.22,.24,.76-1.77,1.17-.7c.02-.16,.08-.3,.03-.39-1.34-2.81-1.88-5.79-2.16-8.87-.21-2.29-.59-4.57-1.1-6.81-.26-1.15-.61-2.36-2.14-2.78-1.16-.32-1.52-1.75-1.18-3.67,1.6,1.21,2.81,2.58,3.55,4.41,1.16,2.84,1.28,5.86,1.76,8.82,.31,1.88,.72,3.74,1.1,5.61,.13,.63,.3,1.26,.56,1.81l2.43,4.65c.92-2.63,1.06-5.37,1.96-7.95-2.18-7.67-2.52-15.76-5.16-23.48-1.22,.57-2.26,.93-3.17,1.51-2.39,1.52-4.72,3.14-7.06,4.73-.86,.58-1.66,1.24-2.53,1.81-1.53,.99-3.1,1.9-4.63,2.88-2.67,1.73-5.3,3.53-8,5.22-4.76,2.97-9.55,5.88-14.33,8.82-.89,.55-1.77,1.12-2.65,1.69-2,1.3-4,2.61-6.26,3.75,.28-.41,.47-.93,.84-1.2,1.59-1.11,3.22-2.16,4.86-3.2,5.14-3.24,10.32-6.43,15.44-9.7,3.58-2.29,7.07-4.7,10.61-7.05,4.62-3.05,9.23-6.11,13.87-9.12,.91-.59,1.93-1.01,2.96-1.54,.04-3.42-1.69-6.56-1.72-10.29,2.03,1.31,.46,3.69,2.66,4.88,17.37-.92,35.29-1.87,53.43-2.83,.33-1.96,.65-3.85,1.04-6.15-2.15,.18-3.95,.36-5.75,.46-2.9,.16-5.81,.24-8.72,.4-3.68,.2-7.35,.42-11.02,.7-3.87,.29-7.73,.73-11.6,.99-3.56,.24-7.14,.22-10.69,.49-3.13,.24-6.23,.73-9.03,1.08-1.76,1.08-3.28,2-4.79,2.94-2.64,1.65-5.26,3.34-7.92,4.97-2.86,1.74-5.77,3.4-8.62,5.13-1.21,.73-2.33,1.61-3.53,2.37-1.38,.88-2.79,1.73-4.22,2.54-.39,.22-.89,.24-1.35,.35l-.1-.11c.23-.29,.4-.68,.7-.87,4.81-2.97,9.67-5.87,14.45-8.88,3.98-2.51,7.88-5.15,11.84-7.7,.85-.55,1.81-.94,2.49-1.29,.34-3.85-1.38-7.15-1.33-10.66l.56-.09c.61,3.11,1.23,6.23,1.88,9.54l1.26,.51c.38-.11,.76-.31,1.16-.33,2.38-.15,4.76-.23,7.13-.39,2.75-.18,5.5-.45,8.26-.63,1.39-.09,2.79-.03,4.18-.1,1.66-.08,3.32-.23,4.97-.36,1.43-.11,2.87-.26,4.3-.34,6.11-.35,12.23-.67,18.35-1.02,2.37-.14,4.74-.33,7.25-.51,.67-4.05,1.35-8.12,2.05-12.33-1.99,0-3.99-.08-5.98,.03-1.71,.09-3.39,.5-5.1,.62-4.01,.28-8.03,.49-12.04,.7-3.16,.16-6.32,.22-9.47,.42-2,.13-3.99,.47-5.99,.64-1.09,.09-2.19,.09-3.28,.04-3.62-.15-7.17,.76-10.83,.52-2.65-.18-5.35,.39-8.02,.64-.15,.01-.28,.2-.41,.29l-.1,1.64-.57,.04c-.36-1.88-.68-3.77-1.07-5.64-.38-1.81-.82-3.61-1.26-5.5l-6.91,3.83c.27-.7,6.93-5.35,7.53-5.51,.7,3.38,1.39,6.76,2.09,10.13,3.15-.18,6.15-.34,9.15-.54,2.27-.16,4.52-.42,6.79-.57,1.81-.12,3.62-.07,5.42-.2,1.73-.13,3.44-.42,5.17-.58,.87-.08,1.75-.01,2.62-.05,2.92-.12,5.84-.23,8.75-.41,2.31-.15,4.6-.42,6.91-.6,1.21-.09,2.43-.03,3.63-.12,3.43-.27,6.85-.59,10.28-.89,1.01-.09,2.02-.16,3.16-.24,1.8-10.18,3.58-20.27,5.44-30.8,.25,.6,.56,.97,.51,1.28-.48,3.22-1.01,6.44-1.53,9.65-.2,1.22-.53,2.43-.63,3.65-.28,3.33-1.15,6.54-1.78,9.8-.35,1.85-.69,3.7-.98,5.56-.07,.43,.1,.9,0,1.32-2.92,13.92-4.78,28.02-7.53,41.8,4.59,2.86,8.87,5.53,13.15,8.2,4.29,2.69,8.59,5.37,12.87,8.07,4.29,2.71,8.72,5.23,12.81,8.22,4.04,2.95,8.39,5.39,12.51,8.2,4.16,2.84,8.58,5.29,12.78,8.06,4.18,2.75,8.24,5.69,12.36,8.55l-.22,.38c-.41-.15-.86-.24-1.22-.48-1.94-1.24-3.85-2.52-5.77-3.79-3.05-2.02-6.09-4.05-9.16-6.05-2.66-1.74-5.35-3.46-8.03-5.18-3.28-2.1-6.57-4.19-9.85-6.29-2.1-1.35-4.2-2.7-6.29-4.07-3.49-2.29-6.95-4.62-10.44-6.9-3.05-1.98-6.1-3.97-9.2-5.86-5.31-3.24-10.67-6.41-16.22-9.74-.22,.4-.55,.75-.6,1.13-.52,3.75-.93,7.51-1.5,11.24-.27,1.79-.8,3.53-1.18,5.19,.99,.8,2.22,.95,2.67,1.99l-.23,.35c-.75-.36-1.49-.73-2.42-1.18-1.04,2.26-.93,4.66-1.5,6.9-.55,2.15-.04,4.49-1.28,6.41,1.6,.92,3.1,1.74,4.55,2.64,1.48,.92,2.88,1.96,4.37,2.87,1.59,.98,3.26,1.82,4.83,2.82,2.68,1.71,5.3,3.52,7.96,5.25,6.37,4.15,12.76,8.26,19.12,12.42,3.45,2.26,6.79,4.71,10.29,6.9,2.69,1.68,5.56,3.04,8.33,4.6,.96,.54,1.82,1.27,2.76,1.86,1.53,.96,2.76,.8,4.27-.22,1.83-1.23,3.75-2.31,5.64-3.45l.33,.5c-2.49,1.64-4.98,3.27-7.55,4.97,2.64,5.86,5.25,11.63,7.97,17.66-1.81-.3-1.9-1.72-2.34-2.63-1.92-3.94-3.68-7.96-5.5-11.95-.36-.79-.76-1.56-1.27-2.61-4.78,3.14-9.44,6.2-14.37,9.45,2.9,5.54,4.73,11.34,7.34,16.84l-.7,.29c-2.39-5.38-4.79-10.76-7.25-16.29-2.79,1.22-5,2.68-7.15,4.22-4.41,2.84-8.82,5.68-13.36,8.6,1.51,4.8,3.92,9.14,6.03,13.69l-1.03,.24c-2-4.36-3.99-8.71-6.07-13.25-2.55,1.82-5.72,2.83-7.64,5.79,1.54,3.5,3.17,7.19,4.8,10.9,8.42-2.1,16.74-4.19,25.09-6.27-1.37-3.09-2.8-6.15-4.07-9.27-1.23-3.04-2.88-5.93-3.49-9.22,3.31,5.8,5.23,12.24,8.64,18.31,1.91-.45,4.07-.96,6.23-1.47l.16,.48c-.76,.35-1.49,.82-2.28,1.02-2.68,.67-5.39,1.24-8.09,1.87-4.13,.96-8.25,1.93-12.37,2.91-.33,.08-.63,.31-1.18,.58,.3,3.85,.6,7.75,.91,11.71l4.31,.55,.38-1.48,1.25,1.53c6.1,.23,12.43,.47,19.03,.72-.11-3.4-.12-6.66-.35-9.9-.24-3.33-.69-6.65-1.09-10.32,6.14-1.47,12.59-3.01,19.17-4.58-1.54-3.3-3.07-6.58-4.66-9.98,.68-.38,1.16-.22,1.48,.52,1.28,2.92,2.56,5.84,3.83,8.72,1.69,.79,3.1-.27,4.54-.58,3.38-.74,6.7-1.75,10.05-2.64,.45-.12,.94-.13,1.66-.23l.19-1.84,.92,.05c-1.97-3.47-3.84-6.83-5.77-10.15-1.95-3.36-3.72-6.87-6.02-9.97-2.29-3.09-3.49-6.9-6.32-9.65-1.33,.96-2.46,1.78-3.59,2.59l-.33-.37c.81-.71,1.62-1.42,2.58-2.26-.41-.39-.82-.9-1.34-1.25-3.91-2.64-7.81-5.3-11.78-7.85-2.81-1.81-5.78-3.38-8.58-5.19-3.2-2.08-6.28-4.36-9.47-6.46-2.65-1.75-5.39-3.35-8.08-5.04-1-.63-1.94-1.34-2.93-1.99-2.75-1.82-5.52-3.62-8.27-5.46-.28-.19-.46-.54-.68-.81l.09-.1c.61,.2,1.29,.28,1.81,.61,4.87,3.11,9.72,6.24,14.54,9.41,2.66,1.75,5.22,3.65,7.89,5.38,4.7,3.06,9.46,6.02,14.17,9.05,3.99,2.57,7.97,5.16,11.94,7.76,.34,.23,.62,.56,1.02,.92,.52-.1,1.09-.2,1.45-.26,.94,.93,1.79,1.79,2.73,2.73,.14,.55,.2,1.36,.56,2,1.28,2.26,2.69,4.44,4,6.68,3.07,5.26,6.08,10.56,9.19,15.8,1.02,1.71,2.26,3.29,3.38,4.91,7.59-2.04,15.06-4.05,22.78-6.12-6.23-13.54-13.79-26.19-20.93-39.06l.73-.4c4.19,6.13,7.37,12.85,11,19.31,3.65,6.51,6.93,13.22,10.38,19.88,2.59-.57,5.13-1.13,7.86-1.72-2.03-4.72-3.91-9.11-5.8-13.51,1.16-.48,1.38,.48,1.66,1.12,1.66,3.74,3.27,7.51,4.91,11.27,.11,.26,.31,.49,.43,.69,3.01-.92,5.92-2.16,8.95-2.63,2.92-.45,5.56-2.33,8.62-1.96l.11,.47c-4.22,1.17-8.44,2.34-12.67,3.49-4.12,1.12-8.11,2.76-12.38,3.08-.49,1.32-.59,36.89-.12,38.83,1.65,.18,3.35,.41,5.04,.54,2.01,.16,4.03,.26,6.05,.35,1.08,.05,2.17-.02,3.25,.02,2.86,.1,5.72,.23,8.58,.37,2.02,.1,4.04,.26,6.06,.34,.7,.03,1.4-.12,2.23-.21l.19,1.2c-2.64-.16-5.12-.32-7.6-.45-2.24-.12-4.48-.21-6.72-.3-1.46-.06-2.92-.05-4.38-.13-.95-.05-1.9-.27-2.85-.31-3.34-.15-6.68-.24-10.02-.38-2.19-.1-4.37-.26-6.55-.37-3.34-.17-6.69-.32-10.02-.48-2.43,6.43-4.79,12.65-7.14,18.87l-.4-.06c-.06-.3-.25-.65-.16-.89,.84-2.25,1.79-4.45,2.57-6.72,1.25-3.6,2.41-7.23,3.6-10.86,.03-.09-.08-.22-.12-.32-5.9-.41-11.8-.82-18.07-1.25-1.25,3.26-2.55,6.66-3.85,10.06l-.59-.18c-.46-.84,.27-1.43,.65-2.15,.41-.77,.66-1.63,.92-2.47,.24-.74,.37-1.52,.62-2.26,.28-.83,.62-1.64,1.02-2.66-2.46-.86-4.85-.18-7.06-.47-2.07,1.44-2.29,3.69-3.07,5.72-.65-1.97,.69-3.63,.87-5.72-3.11-.55-6.35-.51-9.88-.66-.4,.81-.98,1.69-1.3,2.65-1.42,4.3-2.71,8.64-4.17,12.93-1.46,4.28-3.06,8.51-4.61,12.75-.36,.98-.78,1.93-1.22,3.01,1.14,.66,2.15,1.24,3.18,1.84l1.21-.47c.49,1.31,2.48,2.43,4.9,2.77,3.41-9.51,6.84-19.07,10.29-28.7h.47c.02,.14,.07,.24,.05,.33-.28,1.14-.54,2.29-.86,3.42-.27,.95-.6,1.88-.94,2.8-1.03,2.82-2.08,5.63-3.12,8.45-1.34,3.64-2.71,7.27-4.01,10.93-.43,1.2-.68,2.46-1.01,3.71,1.87,1,3.57,1.9,5.49,2.93,1.41-2.96,2.66-6.09,3.87-9.25,1.25-3.24,2.64-6.43,3.95-9.65,1.26-3.09,2-6.4,3.88-9.24-2.7,9.76-7.07,18.88-10.59,28.63,5.14,2.78,10.37,5.61,15.81,8.55,2.09-4.46,3.79-9.15,5.58-13.79,1.75-4.53,3.37-9.11,5.21-13.61l.75,.3c-3.42,9.03-6.84,18.06-10.36,27.37,1.62,1.21,3.78,1.9,5.5,2.76,2.5-.92,4.8-1.76,7.14-2.62,.4-1.83,.8-3.62,1.19-5.41l.61-.02c.14,.4,.43,.82,.38,1.2-.17,1.47-.44,2.92-.74,4.74-1.56,1.81-4.67,1.18-6.9,3.08,2.94,1.57,5.69,3.04,8.67,4.63-.06-1.25-.1-2.15-.15-3.06l.47-.08c.37,1.13,.75,2.25,1.12,3.38,1.44,1.5,3.52,.82,5.35,1.53l-.7,.94c1.98,.94,3.94,1.87,6.02,2.87,3.1-9.88,6.42-19.56,9.05-29.47,2.61-9.81,5.48-19.54,8.45-29.26,.92,1.17,.15,2.26-.08,3.29-.47,2.12-1.22,4.18-1.82,6.27-.79,2.75-1.57,5.5-2.32,8.26-.74,2.73-1.39,5.48-2.15,8.2-1.08,3.83-2.2,7.66-3.37,11.46-1.17,3.77-2.46,7.49-3.63,11.26-1.02,3.3-1.95,6.64-2.95,10.07,.73,1,1.92,.52,3.09,.61l-.66,1.2c16.13,8.08,32.19,16.14,48.26,24.19l-.03,.36c-.34,.03-.73,.2-1,.08-1.14-.51-2.23-1.11-3.35-1.66-4.29-2.08-8.58-4.14-12.86-6.25-1.53-.75-3-1.61-4.51-2.41-2.4-1.27-4.78-2.58-7.22-3.79-1.63-.8-3.34-1.43-4.99-2.18-.8-.36-1.54-.84-2.47-1.34-2.11,1.98-4.18,3.99-6.33,5.91-.77,.69-1.72,1.18-2.59,1.77l-.12-.13c.15-.31,.22-.69,.46-.91,2.35-2.16,4.73-4.29,7.1-6.44,.13-.12,.21-.28,.5-.67-4.82-2.5-9.58-4.97-14.42-7.48-1.95,2.26-2.36,5.05-3.33,7.6-2.56,0-5.05-.16-7.51,.06-1.34,.12-2.53,.27-3.58-.68l-.97,.53c.8,2.48,1.26,5.08,2.75,7.18h7.35c.53,1.86,1,3.52,1.61,5.63l-.5,.56-.5-.2c-.56-1.51-1.11-3.02-1.67-4.53-2.51-.68-5.17,.35-7.64-.56-.63-1.85-1.21-3.57-1.91-5.61-1.14,2.63-2.18,5.03-3.25,7.52,2.17,1.83,4.27,3.6,6.55,5.52-.23,2.42-1.24,4.75-2.55,7.16,.86,.67,1.72,1.34,2.43,1.9,1.24-.83,2.25-1.51,3.25-2.18l.12,.12Zm-112.39-85.72c.2-.31,.35-.65,.6-.91,.95-1.01,2.3-1.77,2.19-3.61-3.21-1.56-6.47-3.13-9.73-4.71l-.18,.33c1.69,3.17,3.37,6.35,5.04,9.5l2.11-.63c-.4,.59-.81,1.17-1.36,1.98,.66,1.25,1.43,2.71,2.26,4.28,1.61-1.29,2.96-2.42,4.36-3.5,1.43-1.11,2.89-2.18,3.62-3.94-1.58-.83-3.08-1.61-4.74-2.48l-1,1.97c-.67,.47-1.11,.85-1.61,1.12-.49,.26-1.04,.41-1.56,.61Zm-52.91-35.3c0-.3-.1-.64,0-.88,1.05-2.26,2.13-4.51,3.21-6.79l-3.56-2.96c-2.37,4.48-4.72,8.93-7.11,13.47,1.55,.66,2.96,1.26,4.43,1.89,.09-.18,.22-.58,.44-.92,.86-1.29,1.74-2.57,2.62-3.85,.03,.42,.21,.92,.05,1.24-.65,1.34-1.41,2.64-2.06,3.83,3.03,1.26,5.99,2.49,9.14,3.79,1.31-3.38,4.25-5.92,4.25-9.6-2.46-2.13-4.73-4.1-7.05-6.11-.36,.34-.7,.53-.85,.83-.83,1.7-1.59,3.45-2.44,5.14-.2,.39-.71,.62-1.07,.92Zm53.97,79.88c1.93-.26,1.06,1.19,1.11,2.06,1.09,0,2.11,.17,3.04-.04,2.06-.47,4.07-1.11,6.1-1.71,2.57-.75,5.12-1.53,7.68-2.3l-.04-.29c-.5-.02-1.01-.04-1.7-.08,.28-.74,.51-1.31,.69-1.78-1-1.89-1.93-3.66-3.01-5.71-4.09,1.21-8.17,2.42-12.26,3.63l.05,.22h-2.07c-.99,.62-1.13,1.4-.78,2.37,.43,1.21,.82,2.44,1.22,3.66l-1.24-.52-.24,.2c.48,.56,.96,1.12,1.45,1.69l.31-.15-.31-1.26Zm-133.16,19.84l-1.24-2.58-1.29,.77,1.76,1.72,.8,.05c.4,.48,.73,1.04,1.21,1.43,2.89,2.39,5.78,4.78,8.73,7.1,2.69,2.11,5.47,4.13,8.2,6.19,2.74,2.06,5.48,4.11,8.22,6.17,.09,.07,.17,.16,.26,.24,1.38,1.13,2.73,2.31,4.16,3.39,2.32,1.76,4.72,3.43,7.03,5.2,3.14,2.41,6.19,4.94,9.34,7.33,2.93,2.22,5.99,4.26,8.91,6.49,2.65,2.02,5.18,4.18,7.79,6.31,.91-2.13,1.64-4.31,2.73-6.28,1.11-2.02,1.67-4.18,2.52-6.2-4.65-4.39-9.13-8.62-13.61-12.84-3.63-3.41-7.29-6.78-10.9-10.22-2.42-2.3-4.61-4.87-7.18-6.97-1.36-1.11-2.21-3.45-4.82-2.55l-.49-2.57c-1.33-.96-2.8,.94-4.05-.55,.59-.31,1.13-.59,1.81-.95l-.5-1.86c-1.44,.73-2.64,1.35-3.86,1.97-.71-.15-1.41-.3-2.12-.44l-.02-.43,3.48-1.09c-1.77-2.12-3.91-.89-6.04-.63l.25-1.7c-.38-.26-.81-.48-1.14-.8-1.53-1.49-3.53-1.54-5.32-1.21-1.47,.27-2.92-.09-4.42,.3-.97,.25-2.11,.35-3.14,.65-.67,.2-1.32,.48-2.01,.73l-.9-1.09-4.04,1.13c.14,.99,.31,1.95,.37,2.91,.02,.28-.3,.58-.46,.87Zm150.54-101.95c2.18,1.2,4.35,2.4,6.75,3.72,6.68-4.27,13.71-8.77,20.99-13.42-15.14-9.35-29.97-18.5-44.98-27.77-.65,5.12-2.03,9.83-2.02,15-1.27,.85,.18,3.11-1.99,4.36l.88-4.4c-5.98,.28-11.92,.55-18.22,.85,.52,2.86,1.02,5.57,1.54,8.41,3.8-.34,7.45,.53,10.65-.48,1.72-.16,3.08-.29,4.41-.42l.58-2.59,.43,.05c.05,1.1,.11,2.19,.15,3.12,.71,.37,1.31,.63,1.85,.98,2.09,1.41,4.13,2.9,6.24,4.28,3.19,2.07,6.44,4.06,9.64,6.13,.28,.18,.36,.68,.53,1.04-6.37-3.69-12.23-7.86-18.49-11.37-1.71,2.37-.19,5.44-2.32,7.48,.33-2.54,.66-5.07,1.01-7.75-4.83-.38-9.54,.39-14.4,.52,.7,3.34,1.32,6.32,2.01,9.62,3.58-.22,7.12-.43,10.55-.64l1-1.49c2.15,2.47,20.33,13.64,22.09,13.71,1.04-.72,2-1.42,2.99-2.05,2.23-1.41,2.23-1.39,3.24-.98-1.69,1.1-3.3,2.14-4.75,3.09,.51,1.06,.9,1.82,1.25,2.6,.73,1.6,.73,1.6,.36,2.29l-2.33-3.83c-2.53,.74-4.49,1.81-6.25,3.33,1.11,2.37,2.14,4.57,3.17,6.77l14.12-3.37c-1.03-2.43-1.92-4.58-2.84-6.72-.92-2.12-1.81-4.26-3.6-6.75-.7-.42-2.07-1.22-3.39-2.08-.4-.26-.66-.72-.99-1.1,.04-.04,.09-.08,.13-.13Zm-13.15-60.93c-.2,1.09-.32,2.03-.57,2.94-.29,1.07,.17,1.71,1.04,2.15,.58,.29,1.24,.42,1.79,.75,.48,.28,.85,.74,1.27,1.12l-.3,.55c-1.43-.38-2.86-.77-4.54-1.22-.35,2.41-.68,4.71-.98,6.77,2.01,1.33,3.72,2.46,5.72,3.78-3.05,1.52-4.07-1.17-6.1-2.27-.41,2.76-.79,5.32-1.16,7.87,.67,.25,1.1,.32,1.42,.54,2.02,1.38,4,2.83,6.04,4.18,2.01,1.33,4.05,2.62,6.13,3.84,2.78,1.63,5.65,3.09,8.39,4.77,4.7,2.87,9.35,5.82,13.98,8.79,3.06,1.96,6.05,4.03,9.2,6.14,7.65-4.33,14.72-9.4,22.3-14.29-21.7-12.63-41.56-27.33-63.07-39.6-.06,.12-.41,.61-.34,.68,.62,.6,1.3,1.13,2.02,1.71-.36,1.14-1.55,.38-2.25,.81Zm-113.18,47.31c-.05,1.11-.05,1.93-.14,2.75-.45,4.03-.96,8.06-1.38,12.09-.12,1.16,.25,2.41-.05,3.49-1.09,3.94-.68,8.01-1.32,11.99-.53,3.27-.61,6.61-.93,9.91-.11,1.13-.42,2.24-.5,3.37-.09,1.22-.02,2.46-.02,3.76,2.72,.94,5.37,1.86,7.85,2.72l4.33-1.21,1.98-15.44,1.16,.3c-1.16,4.63-2.11,14.37-1.58,15.31,2.64-.41,5.24-.93,7.86-1.2,3.37-.35,6.75-.5,10.13-.77,.55-.05,1.08-.31,1.43-.41,.44-3.28,.85-6.29,1.23-9.31,.27-2.11,.53-4.23,.74-6.35,.27-2.68,.49-5.37,.73-8.06,.11-1.24,.24-2.47,.35-3.71,.04-.47-.04-.98,.1-1.42,.49-1.61,.39-3.15-.23-4.64-3.71-1.48-7.36-2.94-9.86-3.94-3.4-1.5-5.68-2.5-8.11-3.56-.96,9.29-1.9,18.34-2.84,27.47l-1.1-.06c.97-8.7,1.92-17.25,2.9-26.05l-.75-.37,.86-1.45c-2.37-.9-4.61-1.75-6.72-2.54-1.98-.86-3.83-1.66-6.12-2.65Zm167.22,109.16c6.97-6.71,15.96-13.46,24.34-21.19-2.46-1.36-4.75-2.62-7.03-3.88-.34,.3-.73,.64-1.32,1.16-.12-.89-.18-1.42-.27-2.09-3.69-1.86-7.42-3.74-11.31-5.7-11.51,10.78-23.9,20.54-35.41,31.42l1.14,1.03-.45,.9c.43,.46,.8,.85,1.17,1.24l-.18,.1c2.69,5.06,5.39,10.11,8.17,15.34,6.79-5.88,13.39-11.6,21.14-18.33Zm-39.24,93.38c16.3-4.96,32.45-9.87,48.95-14.9-3.04-5.62-5.96-11.02-8.95-16.54-.79,.24-1.33,.39-1.86,.57-2.68,.87-5.3,2-8.04,2.56-5.4,1.1-10.41,3.31-15.62,4.95-.73,.23-1.41,.61-2.14,.83-2.32,.72-4.66,1.38-6.98,2.1-2.78,.86-5.55,1.75-8.56,2.7,1.02,5.68,2.09,11.57,3.19,17.72Zm106.78-157.81c0-2.47-.02-4.58,0-6.69,.01-1.26,.09-2.53,.13-3.79,0-.24-.02-.48-.02-.72-.02-1.17-.05-2.35-.05-3.52,0-2.67,.06-5.33,.04-8-.01-1.29-.22-2.59-.21-3.88,.03-3.04,.18-6.07,.2-9.11,0-.7-.3-1.41-.5-2.28-4.76,1.35-9.37,2.65-14.09,3.99,0,2.4,.05,4.67-.01,6.94-.06,2.24,.19,4.51-.49,6.72-1.07-2.09-.22-4.26-.36-6.38-.14-2.23-.2-4.47-.3-6.97-3.77,.91-7.22,1.74-10.79,2.59v30.18c3.21,.21,6.45,.42,9.91,.65,.09-1.72,.17-3.33,.25-4.95,.08-1.71,.16-3.42,.23-5.14,.06-1.64,.06-3.29,.18-4.93,.12-1.54,0-3.13,.7-4.6,.52,6.52-.27,13.01-.17,19.71,2.65,0,5.19,.07,7.72-.02,2.55-.09,5.09,.93,7.62,.17Zm-84.59,88.09c-1.06,1.25-.34,2.34,.18,3.28,1.81,3.31,3.72,6.56,5.72,10.06,.34-.21,.92-.46,1.35-.86,1.46-1.39,2.79-2.9,4.3-4.23,2.06-1.83,4.23-3.53,6.36-5.28,1.22-1,2.47-1.97,3.65-3.01,2.65-2.34,5.28-4.72,7.91-7.1,2.01-1.81,4-3.63,6-5.45l-.13-.67c-3.52-.81-7.27-.64-10.89-2.12-.65-1.2-1.42-2.6-2.3-4.21,1.63-1.01,2.97-2,4.44-2.73,3.94-1.95,8.13-3.08,12.48-3.64,1.15-.15,2.3-.34,3.83-.56-.6-1.92-1.1-3.51-1.52-4.83-2.88,.2-5.36,.37-7.83,.53l-2.1-4.28c-.56,.62-.83,.99-1.18,1.29-2.32,2-4.69,3.95-6.98,5.98-2.15,1.91-4.19,3.96-6.36,5.85-2.54,2.21-5.2,4.28-7.75,6.47-3.88,3.33-7.72,6.7-11.55,10.1-.51,.45-.81,1.14-1.03,1.46,.86,1.63,1.5,2.87,2.14,4.07l1.26-.1Zm-14.6-24.96c3.07-2.65,6.01-5.18,8.94-7.72,2.24-1.94,4.45-3.9,6.68-5.85,2.76-2.4,5.52-4.81,8.29-7.2,1.34-1.15,2.73-2.23,4.05-3.4,1.07-.96,2.11-1.96,3.06-3.04,.38-.43,.45-1.12,.67-1.7l1.16,.17c.71-.65,1.36-1.25,2.16-1.97-.99-.56-1.79-1-2.52-1.42l-.81,.55c-.71-.66-1.2-1.33-1.86-1.69-2.43-1.3-4.91-2.49-7.37-3.72-1.2-.6-2.42-1.17-3.52-1.7-9.04,7.75-17.97,15.41-27,23.16,2.69,5.17,5.39,10.36,8.08,15.52Zm-13.2-213.98c-3.38,.19-6.41,.34-9.44,.53-2.18,.14-4.36,.36-6.55,.48-3.3,.2-6.61,.33-9.91,.52-3.38,.19-6.75,.44-10.13,.6-4.59,.22-9.18,.35-13.77,.58-1.28,.06-2.55,.32-3.73,.48-.34,1.64-.2,2.87,1.15,3.59l-.83,2c.78,.69,1.41,1.41,.84,2.12,.89,4.32,1.71,8.33,2.5,12.17h5.02c.51-1.06,.98-2.21,1.6-3.29,1.03-1.81,2.18-3.57,3.23-5.37,1.4-2.4,2.82-4.8,4.89-6.68,2.66-2.42,5.31-4.9,9.17-5.74l2.96,1.29c2.92,5.9,4.26,11.82,4.16,18.01,5.21-.36,10.22-.71,15.31-1.06,1.18-6.77,2.33-13.37,3.53-20.24Zm-3.04,267.51c-.67-3.53-1.33-7-1.99-10.48h.1c-.29-.77-.58-1.52-.88-2.27l-.14,.09c-1.12-1.71-2.24-3.42-3.27-5.01-10.5-.47-20.75-1.09-31.13-1.13-.89,5.92-1.75,11.63-2.65,17.65,1.78,0,3.22-.06,4.65,.01,3.68,.17,7.35,.45,11.03,.58,4.77,.18,9.55,.25,14.33,.38,.35,0,.69,.16,1.04,.16,2.86,.01,5.71,0,8.92,0Zm-128.67-76.79l.45-.13c.15,.38,.29,.76,.44,1.13,.61,1.48,1.13,3.01,1.86,4.43,.35,.67,1.02,1.4,2.13,.67-.74-1.71-1.48-3.41-2.24-5.16l.85-1.05c1.15,2.45,2.23,4.75,3.39,7.22,.17,.05,.68,.21,1.56,.48-.85,.23-1.27,.35-1.74,.48,1.16,.7,2.07,1.25,3.39,2.05-.39-1.04-.74-1.75-.92-2.49-.56-2.36-1.07-4.73-1.56-7.1-.25-1.22-.25-2.53-.67-3.68-1.12-3.01-2.41-5.96-3.71-9.12,.67-.38,1.55-.89,2.82-1.62h2.36c-1.16-5.82-3.26-11.22-4.37-17.11l1.04,.43c.31,1.06,.62,1.98,.86,2.91,.48,1.9,.91,3.81,1.4,5.71,.5,1.93,1.03,3.86,1.6,5.78,.26,.86,.67,1.67,.99,2.44,5.23-.34,9.67,1.76,14.6,2.78-.54-1.94-1.04-3.7-1.53-5.45-1.78-.39-3.38-.61-4.9-1.1-2.47-.8-4.86-1.84-6.69-3.8-.62-.66-1.08-1.42-.67-2.38,2.67,0,5.38-.39,7.45,1.54,1.08-.09,2.05-.18,3.15-.27l-.54-1.75c-.45-.19-.82-.34-1.2-.5,.95-1.42,.94-1.9-.03-3.31-2.4,.26-4.66-1.7-6.88-.37-1.93-1.08-3.44-2.38-5.51-2.65-1.38-.18-2.77-.52-4.09-.97-1.54-.53-2.96-.72-4.65-.44-4.4,.72-8.85,1.08-13.32,1.59q.53,1.87,1.59,2.16l1.95,2.7-1.66-.12c1.24,.78,2.12,1.34,2.65,1.68,1.27,1.32,.78,3.34,2.67,3.9q.26-2.86,1.7-3.69c-.16,1.82-.31,3.52-.45,5.22-.18,2.19-1.38,4.32-.32,6.81,.75-1.19,1.4-2.24,2.17-3.47,.11-.79,0-1.94,1.31-2.4,.46,1.84-.26,4.03-1.43,5.63-.8,1.1-1.29,2.45-1.8,3.73-.13,.32,.21,.83,.33,1.24l1.12-.31c.92-2.82,1.6-3.33,3.09-2.36-1.2,1.73-2.41,3.46-3.68,5.29l1.78,.76c.56,1.52,1.1,3.07,1.7,4.59,.28,.71,.65,1.4,1.03,2.07,.35,.62,.81,.83,1.35,.3l-.8-1.81,.57-1.08Zm68.76-76.81c8.92-6.12,17.44-11.96,25.85-17.72,2.17,1.42,4.42,.74,6.73,.59-1.9-3.14-2.78-6.89-6.39-9.25,.02,3.29,1.15,5.93,1.73,8.77l-1.04,.11c-.72-3.14-1.4-6.16-2.14-9.36-2.05,1.58-1.05,3.64-1.17,5.34-1.32,.24-1.43-.69-1.79-1.33-1.03-1.82-2.06-3.65-2.97-5.27-2.67-.17-3.06,.21-3.08,2.28,0,.63-.25,1.26-.4,1.89-.02,.08-.15,.14-.24,.22l-.61-.27c-.26-2.04-.51-3.92-.78-6.02-.73,.07-1.45-.09-1.81,.2-1.55,1.24-3.18,2.28-4.94,3.24-2.94,1.59-5.61,3.69-8.39,5.59-3.89,2.67-7.78,5.36-11.66,8.05-.45,.31-.88,.64-1.49,1.08,5.01,4.1,9.75,8.18,14.58,11.88Zm-2.45-39.63c-2.13,2.25-6.59,1.2-8.51-.12-6.98,4.67-13.9,9.3-20.77,13.89,5.61,4.53,11.03,8.91,16.45,13.29,7.81-5.38,15.59-10.73,23.47-16.16-.85-5.99-1.64-7.64-3.89-7.7-.4,1.31-.23,2.94-1.61,3.87-1.42-1.35-.03-2.63-.39-3.81l-1.35-3.9-3.41,.63Zm-1.7,193.27c-.58,4.1-1.15,8.13-1.73,12.16-.18,1.25-.38,2.51-.6,3.75-.24,1.34-.57,2.67-.78,4.01-.13,.83,.08,1.75-.18,2.53-1.06,3.1-.32,6.22-.12,9.31,.06,.95,.13,1.96,.31,2.92,.09,.48,.49,1.14,.9,1.29,2.15,.74,4.34,1.34,6.52,1.99,3.04,.91,6.08,1.83,9.12,2.72,1.09,.32,2.2,.55,3.28,.82,.33-1.99,.63-3.84,.93-5.6-.58-.34-1.02-.6-1.31-.77-.17-1.38-.4-2.55-.42-3.72-.01-1.11,.21-2.22,.36-3.68l-.8-2.15c-1.4,2.25-.97,4.65-1.2,7.06-.27-.02-.54-.03-.98-.06,.19-3.08-.73-6.23,1.55-9.04l-1.17-1.74c-1.09,1.77-.42,3.97-2.02,5.39-.12-1.12-.19-2.25,.09-3.29,.81-3,1.75-5.95-.21-8.88-.27-.4-.35-.94-.51-1.41l-.37,.08c-.23,1.04-.46,2.09-.69,3.13h-.43c-.7-1.33,.13-2.77-.18-4.34-.43-.07-1.02-.15-1.93-.29-.13-.09-.52-.55-1-.68-1.98-.56-4-.97-5.96-1.55-.49-.14-.85-.72-1.27-1.1l.29-.44c2.6,.81,5.21,1.62,7.76,2.42,.3-.58,.56-1.22,.94-1.78,.45-.66,.99-1.25,1.51-1.86,1.13-1.31,.95-2.77,.53-4.37-1.68,1.28-2.12,3.29-3.09,4.96-.6-3.42,1.52-5.52,3.56-7.6v-3.43l-.51-.16c-1.03,1.79-2.06,3.58-3.12,5.41l-.68-1.18c.39-1.14,.78-2.27,1.26-3.7-.85-.39-1.89-.88-2.88-1.34l-1.01,.83c.46,1.76-1.78,1.94-2.01,3.25l-1.76,.16Zm-21.94-147.17c-1.1,10.9-2.19,21.61-3.29,32.51,6.2-.72,12.21-1.41,18.23-2.1,.67-7.98,1.33-15.85,2-23.79-1.47-.6-2.77-1.12-4.05-1.67-3.83-1.64-7.65-3.32-11.5-4.93-.42-.18-.98-.02-1.39-.02Zm-54.56,70.31c.54-2.83,.76-5.97-.57-9.08-.57-1.34-.89-2.78-1.46-4.12-.89-2.1-1.75-4.24-2.91-6.2-1.23-2.08-3.39-3.62-3.63-6.29-.01-.15-.21-.28-.31-.42-.72-.98-1.45-1.95-2.05-2.77-1.98-.92-3.72-.48-5.22-.22,4.92,17.27,8.81,34.64,13.76,51.94,.77-1.02,1.27-1.79,1.87-2.46,1.44-1.61,3.12-2.75,5.4-2.8,1.53-.04,3.07-.19,4.6-.29l-.11-.4,4.94-2.66-.07-.43c-3.05-1.24-6.18-2.33-7.56-3.9-2.69-3.88-6.01-5.77-6.69-9.92Zm106.35,35.98c-.76,5.17-1.5,10.23-2.24,15.27,.22,.21,.42,.4,.36,.34-.47,1.84-.87,3.4-1.34,5.26,10.5,.44,20.8,.88,31.09,1.32l.18-.37-1.34-1.66,.35-.42c-1.52-1.76-2.97-3.44-4.43-5.14-.16,1.28-.31,2.51-.47,3.74l-.55-.06c-1.18-1.99-.01-3.8,.68-5.61l-.71-2.28-.44-.05c-.35,1.49-.69,2.99-1.04,4.48l-.47,.34c-.06-.24-.1-.48-.18-.71-.08-.22-.32-.46-.28-.64,.47-2.28,.98-4.55,1.48-6.83,.11-.35,.02-.75-.12-1.14-.12-.35-.3-.69-.6-1.39l-1.38,3.15c.41,.82,.5,1.66-.65,2.22-.64-3.04,.06-5.57,1.73-6.39l-.89-1.16c-1.82,.42-1.49,2.22-2.34,3.26l-1.51-.21c.83-1.54,1.56-2.9,2.3-4.26-2.02-.78-14.72-1.58-17.2-1.05Zm92.82-76.86l-.4-.55c-5.47-.2-10.95-.4-16.52-.6-2.69,7.94-5.38,15.86-8.06,23.76q2.51,1.42,2.88,2.62c3.66,1.78,7.36,3.58,11.34,5.52,3.63-10.35,7.2-20.55,10.77-30.75Zm-163.46-38.58c6.2,2.54,12.17,4.98,18.13,7.42,1.38-1.52,9.4-14.39,10.08-17.35-5.02-4.03-10.13-8.14-15.17-12.19-4.4,7.47-8.64,14.66-13.04,22.12Zm-8.08-3.54c5.1-8.11,9.94-15.78,14.87-23.62-3.97-3.25-7.85-6.41-11.51-9.4-5.82,9.11-11.61,18.16-17.54,27.44,4.81,1.99,9.5,3.83,14.18,5.57Zm191.72,34.05c-.4-.48-.59-.6-.59-.73-.13-3.15-.27-6.3-.35-9.45-.07-2.67-.04-5.34-.11-8.01,0-.28-.34-.55-.5-.8-2.2,.57-4.3,1.1-6.57,1.69,.15,.81,.36,1.48,.37,2.15,.04,2.61,.02,5.22,.02,7.82,0,3.99-.02,7.98,.02,11.97,0,.92,.22,1.84,.34,2.76h7.08c0-1.36-.03-2.61,0-3.86,.03-1.13-.65-2.34,.57-3.63,.15,2.78,.29,5.3,.43,7.85,2.84,.13,5.46,.26,8.36,.39,0-1.67,0-3.17,0-4.66,.02-2.52,.02-5.04,.08-7.56,.06-2.56,.21-5.11,.27-7.67,.05-1.98,.06-3.96,0-5.94-.04-1.27-.26-2.54-.43-4.13-3.08,.86-5.89,1.64-8.79,2.45,0,3.3,.03,6.44,0,9.57-.04,3.13,.19,6.27-.18,9.78Zm-223.14,72.46c0-.46,.08-.84-.01-1.17-.75-2.55-.97-5.21-1.97-7.72-.86-2.15-1.12-4.53-1.69-6.79-1.84-7.3-3.7-14.61-5.56-21.91-1-3.93-1.97-7.88-3.07-11.79-.33-1.17-.52-2.55-1.64-3.1-2.62,.26-5.03,.5-7.34,.72,4.79,17.97,9.57,35.91,14.4,54.02,2.59,.16,4.46-1.64,6.87-2.27Zm175.26-39.33l.8-1.53c-3.4-1.7-6.66-3.33-9.85-4.93-6.85,6.05-13.6,12.02-20.32,17.96,.78,1.49,1.49,2.88,2.28,4.38l1.02,.3c0,2.69,1.73,4.39,2.74,6.57,2.65-2.3,5.12-4.48,7.62-6.62,3.63-3.11,7.29-6.19,10.93-9.28,2.17-1.84,4.36-3.65,6.5-5.52,.53-.46,.9-1.09,1.35-1.65l-.33-.46-2.75,.77Zm-24.5,80.85l-.24,.28,1.07-.16c1.01,.83,1.89,1.56,2.8,2.3v1.02l.71-.77c1.06,.23,2.09,.45,2.88,.61,7.46-2.18,14.7-4.29,22.2-6.48-2.25-4.09-4.49-8.18-6.69-12.19-9.63,2.79-19.08,5.53-28.59,8.28,.84,3.2,3.6,4.96,5.87,7.1Zm46.83-123.09l.06,.16c.38,5.09,.77,10.17,1.16,15.39,1.16,.11,2.41,.23,3.63,.35l.6-1.21c.82,.56,1.5,1.02,2.18,1.48v-.32c3.08,.21,6.16,.42,9.45,.64-.16-8.14-.33-16.15-.49-24.34-1.48,.26-2.7,.42-3.9,.69-3.85,.87-7.69,1.75-11.52,2.68-.51,.12-.95,.56-1.17,.69v3.79Zm-115.02,68.02c.65-.19,1.76-.4,2.77-.85,2.06-.93,4.05-2.01,6.09-2.97,.88-.42,1.8-.92,2.74-1.03,1.67-.19,3.14-.77,4.46-1.72,2.42-1.73,2.38-2.44,.18-4.46-3.85-3.53-7.64-7.12-11.43-10.7-1.38-1.3-2.7-2.66-3.91-3.86-.25,1.05-.55,2.05-.71,3.07-.26,1.7-1.07,3.21-1.56,4.82-.73,2.36-.92,4.89-1.6,7.27-.32,1.11,.05,2.73-1.57,3.13,0,2.16-.02,4.27,0,6.37,.02,1.27,.06,2.54,.24,3.79,.06,.44,.56,.82,1.02,1.46,1.1-1.46,2.05-2.72,3.26-4.33Zm67.29,30.92c3.28,2.45,7.07,4.64,10.17,8.19,3.68-1.06,7.53-2.16,11.47-3.29-3.52-6.66-6.86-13.01-10.27-19.46-.63,.11-1.21,.16-1.76,.3-3.69,.99-7.37,1.98-11.04,3.04-.58,.17-1.05,.7-1.33,.9,1.55,2.56,2.92,4.81,4.35,7.18l-1.58,3.14Zm-2.07-66.99l-.02,.21c-2.91,2.59-5.82,5.17-8.96,7.96,2.09,4.15,4.15,8.26,6.32,12.57,6.63-5.72,13.74-10.91,19.94-17.54-2.29-1.15-4.24-2.13-6.18-3.11l-.68,1.29-3.08-2.12,1.44-.35c-.96-.58-1.75-1.05-2.58-1.55l-1.65,.4-.71-.59c-1.36,1-2.6,1.92-3.85,2.84Zm-70.07-36.81c-.74,.99-1.95,1.6-1.98,3.13-.06,2.9-.22,5.81-.41,8.71-.19,3-.47,6-.69,9.01-.05,.67,0,1.34,0,2,3.18-.34,6.04-.64,8.91-.94l.11,.38c-.37,.27-.75,.53-1.22,.88,1.61,4.97,3.2,9.85,4.82,14.84,.97-.5,1.84-.95,2.86-1.48-.39-1.28-.78-2.47-1.14-3.68-.89-2.99-1.75-5.98-2.68-8.96-.21-.67-.64-1.27-1.04-2.04l.5-.63c.4-5.8,.78-11.43,1.18-17.23-3.13-1.35-6.13-2.65-9.2-3.98Zm62.48,84.99c1.71,2.34,3.38,4.62,5.04,6.9l1.1,.33c4.55-1.29,9.03-2.57,13.76-3.91-.5-1.4-.8-2.6-1.33-3.68-1.2-2.45-2.48-4.87-3.8-7.26-.81-1.47-1.22-3.21-2.69-4.43-5.4,1.6-10.74,3.19-16.18,4.8,.78,1.2,1.21,2.3,2.01,2.97,1.4,1.17,2.15,2.53,2.09,4.29Zm-153.53-122.66c8.85-11.3,16.51-22.99,24.08-34.99l-4.62-3.71c-.23,.26-.41,.42-.54,.61-1.47,2.26-2.89,4.56-4.42,6.79-1.05,1.54-2.3,2.96-3.36,4.5-2.51,3.64-4.91,7.36-7.44,10.99-2.19,3.15-4.54,6.19-6.74,9.34-.89,1.28-1.54,2.72-2.34,4.14,1.92,.83,3.67,1.6,5.38,2.34Zm49.85,136.02c9.35,8.86,18.55,17.57,27.74,26.28l.44-.07c-.47-2.45-.46-4.87,.01-7.42,0,0-.2-.13-.07-.05-.37-1.61-.27-3.3-1.07-4.24-1.34-1.59-2.04-3.2-2.03-4.58l-1.96-6.57c-1.48,.19-2.94,.38-4.4,.57-.66,.11-1.35,.03-2.05-.02-1.62-.13-3.28-.06-4.84-.41-2.27-.5-4.62-1-6.5-2.5-1.15-.92-2.16-2.02-3.43-3.24-.66,.81-1.11,1.36-1.85,2.26Zm48.67-111.55c2.65,2.28,4.9,4.21,6.97,5.99,7.14-4.81,14.16-9.55,21.2-14.3-.58-2.88-1.16-5.71-1.75-8.65l-1.71-.09c-.24,.27-.4,.53-.63,.68-5.3,3.55-10.61,7.07-15.9,10.64-2.66,1.8-5.26,3.68-8.18,5.72Zm-2.69,57.24c.66,1.02,1.09,2.02,1.81,2.73,2.37,2.37,4.83,4.66,7.26,6.96,1.73,1.64,3.48,3.25,5.24,4.87,1.4,1.29,2.82,2.57,4.45,4.06,1.54-3.44,2.98-6.66,4.33-9.7-5.43-5.12-10.57-9.97-15.83-14.94-2.99,1.84-6.3,3.11-9.23,5.54,.41,.43,.68,.72,.84,.89l1.12-.4Zm44.02-44.77c4.57,2.7,9.03,5.33,13.34,7.88,3.07-1.91,5.91-3.68,8.9-5.54-6.72-4.1-13.39-8.16-20.3-12.37l-.39,2.06-.29,.14-1.01-1.99c-3.22,.3-6.57,.62-9.99,.94,.43,2.2,.81,4.21,1.27,6.56,2.82-.31,5.55-.62,8.1-.9,.31-1.3,.53-2.21,.8-3.32,1.05,2.41-.62,4.37-.42,6.55Zm14.19-88.43c1.2-5.76,2.18-11.46,2.78-17.44-5.22,.34-10.16,.66-15.1,.98,.75,5.98-.07,11.62-3.24,17.04,5.29-.2,10.34-.38,15.57-.58Zm-28.18,171.38c4.61,.37,9.2,1.01,12.67,4.18,3.32,3.04,6.44,6.38,7.82,10.77,.32,.14,.85,.21,.94,.44,.94,2.5,2.43,4.8,2.94,7.76l1.17,.94c-.61-3.92-1.18-7.64-1.79-11.61l-1.23-1.51c1.23-2.66,.05-6.77-2.28-8.09-.57,.93,.56,2.45-1.27,3.18-.28-1.79-.68-3.45-.75-5.12-.06-1.39-.46-2.39-1.72-3.1-.86,1.2-.06,2.41-.06,3.7h-1.3l-1.02-7.4-2.04-1.38v3.83l-1.42-.07v-4.88c-2.58-2.76-5.97-.72-8.76-1.78-.63,3.33-1.23,6.54-1.91,10.15Zm-44.49,74.02c1.4-2.78,3.58-5.02,3.49-8.21-1.81,1.31-3.3,2.85-4.19,4.97-.21-.36-.45-.79-.33-.97,1.21-1.79,2.48-3.55,3.78-5.39-1.65-.56-3.4-1.16-5.28-1.8-2.09,3.19-3.05,6.85-4.69,10.18l.39,.68-.43-.09c-2.24,4.17-3.85,8.65-5.92,12.82,3.63,1.16,7.07,2.25,10.62,3.39l.31-2.86c.36-.9,.61-1.84,.82-2.79,.32-1.5,.56-3.02,1.83-4.11,.89-.77,1.71-1.61,2.4-2.25q.45-4.75-.25-6.11c-.75,.82-.74,2.37-2.54,2.54Zm.8-181.76c-3.42,5.82-6.72,11.42-10.04,17.06,.51,.07,.96,.05,1.33,.21,3.07,1.33,6.11,2.71,9.18,4.02,.72,.31,1.53,.4,2.3,.59,.46-.84,.8-1.45,1.14-2.07,1.47-2.66,3-5.3,4.4-8,.62-1.19,1.74-2.26,1.28-3.73-3.13-2.63-6.18-5.21-9.58-8.07Zm100.37,66.87c2.87-6.68,5.13-13.54,7.34-20.42-1.13-1.03-3.13-1.07-4.42-.1-1.18-.7-5.62-.96-7.59-.38-1.71,5.16-3.46,10.42-5.2,15.65,3.41,1.81,6.54,3.48,9.87,5.26Zm-50-72.2c3.83-.16,7.78-.32,11.74-.48,.6-4.97,1.82-9.55,1.95-14.25h-12.11c.17,1.3,2.64,.87,1.84,2.82-1.29-.44-2.47-1.01-3.72-1.23-1.25-.22-2.62-.67-3.68,.14l-.87,1.81c1.14,3.96,2.63,7.66,4.86,11.19Zm-9.7,128.24c-.55-.21-.97-.42-1.42-.54-4.09-1.08-8.18-2.15-12.27-3.23-2.07-.55-4.13-1.13-6.21-1.63-.39-.09-.86,.15-1.29,.24v.38c1.43,.85,2.86,1.69,3.94,2.33,1.01,1.36,1.78,2.4,2.54,3.43,3.56,1.15,8.12,6.58,7.67,9.42-.68-.23-1.4-.32-1.94-.68-.88-.59-1.71-1.3-2.45-2.06-1.09-1.12-2.35-1.52-3.87-1.25-1.07,.19-2.15,.3-3.29,.45,.06,.18,.09,.34,.16,.48,.1,.21,.22,.4,.32,.58,4.4,.37,5.92,3.97,7.9,6.97,2.7,.18,5.02,1.97,7.88,1.59,.78-5.52,1.55-10.89,2.34-16.47Zm-28.38,92.3c4.45,1.29,9.05,2.62,14.05,4.07,1.05-3.64,.99-7.35,1.75-11.22-.15-.95-1.3-.81-2.14-1.06-2.47-.75-4.96-1.42-7.44-2.12-3.13-.88-6.26-1.76-9.49-2.68l-.44,5.01-.52,.15c1.41,2.62,2.83,5.25,4.24,7.86Zm62.78-132.04c-2.57-6.56-6.41-12.28-9.31-18.6-2.63,.91-4.99,1.73-7.38,2.56,.14,.36,.27,.57,.31,.79,.97,5.09,1.98,10.17,2.88,15.27,.24,1.37,.77,2.38,1.91,3.02,3.81-1,7.55-1.98,11.59-3.03Zm-1.77,45.77q-1.45,.03-.87-4.48l-.9-.66c-1.18,.96,.17,2.89-1.5,3.57-.97-2.28,.54-4.15,.95-6.24l-1.71-1.23c-.17,1.52-.49,2.69-.38,3.83,.21,2.2,.75,4.36,.98,6.56,.29,2.76,.65,5.49,2.07,7.95,.33,.58,.68,1.15,1.01,1.73l-.14,.05,2,4.72c.69,.22,1.24,.4,1.45,.47,9.52-2.65,18.72-5.21,28.04-7.81-.5-.95-.87-1.68-1.25-2.39-3.16,.89-6.24,1.72-9.3,2.63-1.33,.4-2.6,.97-4.19,1.57l-.83-.21c-4.79,1.44-9.25,2.78-13.69,4.12-.77-.81-.38-1.27,.36-1.64l.1,.34c3.61-1.01,7.22-2.02,10.82-3.03-4.66-1.33-8.23-3.81-10.02-8.48l-1.16-.48c-.61-.98-1.08-1.74-1.55-2.5l-.41,.18c.03,.43,.05,.86,.09,1.42Zm-53.53,8.39c.3-.11,.62-.35,.83-.28,2.29,.76,4.63,1.4,6.79,2.43,1.02,.49,2.03,1.5,1.71,3.11-.1,.53,.52,1.19,.78,1.8,.26,.59,.78,1.26,.66,1.78-.25,1.12-.06,2.12,.29,3.14,.42,1.22,0,2.77-.56,3.17-.19,.81-.24,1.31-.42,1.75-.14,.34-.4,.67-.68,.92-.9,.82-.22,1.98-.68,2.89-.86,1.7-.47,3.59-.95,5.42,2.24,.75,4.35,1.45,6.75,2.25-.54-.57-.89-.94-1.4-1.48,.78-.15,1.32-.26,1.73-.34,1.13-7.77,2.24-15.41,3.38-23.19-2.29-.58-4.76-1.37-7.3-1.78-1.23-.2-2.27-.45-3.13-1.34-.16-.17-.37-.3-.59-.4-2.01-.86-4.02-1.7-5.86-2.47l-3.87,.97c1.08,.71,1.79,1.18,2.5,1.65Zm24.1-131.72c-3.54,2.33-6.81,4.45-10.04,6.63-3.25,2.2-6.45,4.46-9.65,6.68,2.58,2.06,4.95,3.94,7.28,5.8,5.16-3.3,10.25-6.56,15.33-9.81-.58-2.89-1.13-5.59-1.73-8.54l-1.19-.75Zm-49.89,45.08c1.57,5.27,3.05,10.25,4.57,15.36l2.22,.58c1.5-.16,2.9-.61,4.15-.36,1.58,.31,3.03,1.21,4.55,1.82,.28,.11,.64,.02,1.1,.02-.62-2.02-1.2-3.92-1.83-5.98-.23-.47-.63-1.09-.84-1.77-1.02-3.25-1.98-6.53-3-9.78-.15-.48-.51-.89-.71-1.21-3.47,.45-6.72,.87-10.22,1.33Zm51.41-84.55l-.36,.22c.05,2.72,1.84,4.64,3.14,7.12-.13,.64,1.86,4.88,2.9,5.74,1.14-.19,2.24-.53,3.33-.52,2.91,.02,5.83,.21,8.74,.28,.52,.01,1.05-.21,1.42-.28,.45-2.89,.86-5.5,1.32-8.41l-6.51-3.31-1.04,1.04,.46,.04c-.77,1.75,1.44,2.75,.85,4.71-.68-.29-1.27-.43-1.71-.76-2.24-1.69-4.39-3.49-6.67-5.13-1.23-.89-2.52-1.82-4.44-1.96l1.62,2.02-1.39,.62c-.61-.52-1.14-.97-1.68-1.42Zm-63.12,19.62c-1.5-1.16-2.79-2.15-4.2-3.25-4.89,7.82-9.7,15.5-14.62,23.36,2.21,.94,4.13,1.75,6.16,2.62,.63-1.1,1.21-2.17,1.85-3.21,1.2-1.95,2.45-3.87,3.66-5.81,1.83-2.94,3.67-5.88,5.44-8.86,.89-1.51,1.88-3.02,1.71-4.86Zm126.77,60.27c-2.47,7.2-5.22,14.15-7.28,21.41,2.1,1.02,3.93,1.9,5.97,2.89,2.17-5.88,4.3-11.69,6.39-17.36l-2.13-1.23,.26-.46,1.58,.83c1.44-1.61,1.43-3.65,2.14-5.62-2.44-.16-4.63-.31-6.94-.46Zm45.36,51.12c-1.45-.73-2.85-1.44-4.26-2.15v-1.34l1.45,.5,.12-.31c-.98-.49-1.97-.97-3.06-1.51-3.28,2.86-6.48,5.67-9.71,8.49l1.87,3.85c2.86-.29,5.44-.55,8.02-.8,.49,2.01,.94,3.9,1.41,5.84,2.33-.47,4.41-.9,6.48-1.32l-.03-.16,1.55,.28,.28-.44-5.38-6.19c.37-1.4,.77-2.93,1.25-4.74Zm-52.52-64.05c-5.32,1.26-10.49,2.49-15.83,3.76,.09,1.98,.18,3.89,.27,5.81,.06,1.36,.49,1.78,1.72,1.81,3.09,.06,6.17,.16,9.26,.21,1.81,.03,3.63,0,5.61,0-.34-3.89-.68-7.7-1.03-11.6Zm-116.9,80.6v2.42c.47,.91,.6,1.98,1.14,2.78,1.68,2.53,3.3,5.07,5.59,7.19,2.01,1.86,4.34,2.65,6.85,2.94,2.28,.26,4.63,.24,6.9,0,1.93-.21,3.89-.7,5.66-1.48,1-.44,1.72-1.64,2.43-2.61,.9-1.22,1.65-2.54,2.37-3.66,.16-.97,.27-1.82,.44-2.66,.18-.92,.48-1.83,.62-2.76,.31-2.05,.12-4.13-1.11-5.77-1.65-2.21-3.28-4.51-5.81-5.87-2.32-1.24-4.61-2.57-7.23-3.12-1.44-.3-2.9-.54-4.27-.79-1.03,.21-2.05,.41-3.1,.63v1.5l.44-.57c.76,.21,1.41,.51,2.08,.55,1.32,.08,2.66,.02,3.99,.02l-.12,.37c.76,.36,1.48,.84,2.28,1.04,.97,.25,1.91,.43,2.43,1.58l.35-.8c1.36,2.62,4.25,3.24,5.68,5.53l-.54,.64c.04,.07,.06,.15,.1,.15,.34,.08,.69,.16,1.11,.25,1.91,4.67,2.56,9.28-.91,13.69-.19,.21-.6,.32-.79,.58-1.26,1.82-3.42,1.89-5.16,2.12-1.99,.26-4.15-.37-6.19-.84-4.1-.94-7.45-3.42-10.95-5.59l-.23-1.6-.26,.15c-1.2-1.9-2.4-3.81-3.79-6Zm8.89-150.51c1.74-1.44,3.31-2.78,4.93-4.08,1.52-1.22,3.04-2.44,4.64-3.55,2.67-1.85,5.43-3.55,8.09-5.42,3.22-2.26,7.01-2.89,10.67-3.93,1.26-.36,2.55-.6,3.82-.89l-.07-.56c-1.35,.04-2.85-.27-4.01,.22-1.79,.74-3.6,.82-5.5,1.07l-.23,.61c-.51,0-.96-.08-1.37,.02-.8,.19-1.56,.5-2.35,.73-2.08,.61-4.2,1.13-6.25,1.83-1.77,.61-3.46,1.43-5.19,2.14-.54,.22-1.19,.26-1.63,.6-2.58,2.03-5.6,3.21-8.51,4.62-1.4,.68-2.85,1.65-3.52,3.43,2.12,1.32,4.07,2.81,6.49,3.16Zm-9.93,156.91l.22-.42c-1.14-.89-2.3-1.78-3.43-2.68-1.85-1.48-3.64-3.03-5.54-4.43-1.41-1.04-3.07-1.74-4.42-2.84-1.62-1.32-3.17-2.78-4.47-4.41-1.36-1.71-2.38-3.7-3.56-5.56-1.86-2.94-3.75-5.86-4.97-9.16-.37-1-1-1.89-1.52-2.83l-.49,.2c.33,1.63,.62,3.27,.98,4.9,.73,3.27,1.96,6.37,3.06,9.53,.75,2.17,1.75,4.3,3.08,5.94,1.89,2.34,3.98,4.67,6.68,6.28,1.8,1.08,3.55,2.18,5.6,2.78,2.56,.75,5.07,1.68,7.6,2.51,.37,.12,.78,.14,1.18,.2Zm71.53-215.84c-.83,.69-1.59,1.14-2.11,1.78-2.1,2.62-4.45,5.05-6.16,8-.9,1.56-2.34,2.8-3.35,4.32-1.39,2.11-2.59,4.36-3.89,6.53-1.48,2.47-3.05,4.89-4.43,7.41-.62,1.14-1.72,2.16-1.64,3.89,.27-.42,.36-.65,.52-.81,1.46-1.48,3.01-2.87,4.37-4.44,2.38-2.74,4.65-5.57,6.95-8.38,.28-.34,.37-.86,.68-1.15,1.9-1.76,3.82-3.5,5.78-5.19,1.62-1.4,3.29-2.72,5.31-4.38,.01-2.25-1.17-4.7-2.04-7.6Zm-33.26,157.52c3.43-2.11,6.44-3.96,9.39-5.77-1.05-3.14-2.06-6.17-3.05-9.15h-1.7l-1.05,1.1c-.55-.34-.99-.61-1.26-.77-2.22,.18-4.23,.34-6.62,.53,1.43,4.69,2.81,9.21,4.29,14.06Zm11.02,10.98l-.25,.28,4.02,4.61c1.15-2.4,2.1-4.41,3.09-6.47-3.95-3.91-7.76-7.69-11.57-11.45-.36,.03-.7-.03-.94,.1-1.56,.82-3.15,1.61-4.63,2.55-.65,.41-.43,1.02,.14,1.57,1.63,1.58,3.17,3.25,4.79,4.84,1.29,1.27,2.64,2.47,3.93,3.67,.5,.11,.96,.21,1.41,.31Zm-25.07,70.34c.19,.34,.27,.66,.47,.85,1.04,.97,2.16,1.87,3.16,2.87,.88,.88,1.8,1.78,2.44,2.82,.78,1.28,1.38,2.69,1.9,4.11,.42,1.16,1.08,2.42,.15,3.24v3.12c1.34,.49,2.59,.95,3.76,1.38,1.05-.87,2.03-1.66,3.02-2.48l-.45-.72c.76-1.31,1.18-2.54,.09-3.85-.28-.33-.36-.88-.4-1.34-.24-2.36-1.13-4.68-.22-7.04-.99-.6-1.86-1.12-2.8-1.69l-.51,.74c.5,1.42,1.83,2.47,1.48,4.03l-.46,.2c-.97-1.78-1.94-3.55-3.11-5.69-.32-.09-1.02-.28-1.71-.47,.12,.79,.38,1.31,.74,1.75,.35,.42,.81,.74,1.34,1.22l-.66,1.06-1.58-.55c-.47-2.28-1.53-4.11-3.13-4.86l.96,1.79c-.2,.46-.42,.95-.71,1.6-1.3-1.21-1.57-2.65-1.79-4.06-.22,0-.4-.05-.44,0-.51,.62-.99,1.26-1.54,1.96Zm40.08-239c-1.55,1.88-3.04,3.71-4.7,5.72,0-.02,0,.32,0,.68l-.62-.05c-3.37,5.8-6.35,11.63-7.72,17.99l-1.01,.86c0,1.78-1.29,3.19-.92,4.87,.9-1.3,1.58-2.68,2.38-3.98,.96-1.55,2.18-2.96,3.02-4.58,1.65-3.17,3.21-6.38,5.37-9.24,2.36-3.13,4.74-6.24,7.18-9.31,1.2-1.51,2.54-2.91,3.81-4.36-1.17-1.32-2.07-1.68-3.08-1.23-.69,.31-1.39,.61-2.07,.94-.62,.3-1.23,.63-1.86,.96l.23,.72Zm-19.45,206.52c-1.98,1.45-3.49,3.76-6.38,1.95l-1.27,1.88,.54,1.47-1.37,.08v.39c6.82,1.77,13.61,3.63,20.54,5.26,.2-1.78,.36-3.22,.51-4.53-2.42-1.32-3.07-3.77-4.7-5.52l-2.22-.63c1.09,1.94,1.94,3.46,2.8,4.97l-.45,.4c-.39-.29-.96-.49-1.15-.88-.84-1.73-1.9-3.26-3.22-4.32-.7-.06-1.18-.09-2.09-.16,.91,1.58,1.67,2.91,2.47,4.31l-.93,.82c-1.05-1.85-2.01-3.56-3.09-5.47Zm-16.36-62.11c-2.42,.19-4.65,.37-7.04,.56,1.03,3.18,1.82,6.32,3.08,9.25,1.24,2.89,1.61,6.12,3.23,9,.8-.69,1.37-1.19,1.8-1.57l1.34,.38,.32-.83,2.44-1.06c-1.78-5.42-3.49-10.62-5.18-15.74Zm48.99,38.89c-.66-3.44-1.28-6.66-1.9-9.9-3.53-.4-6.98,.34-10.52-.81-.47,2.94-.93,5.87-1.38,8.71,.57,.6,1.02,1.07,1.57,1.65,2.2-.31,4.41-.14,6.63,.2,.55,.08,1.14-.16,1.7-.14,1.29,.06,2.57,.19,3.9,.29Zm-63.64,2.71c2.03-.08,1.92,2.46,3.46,2.97,.58-1.06,1.14-1.99,1.6-2.96,.48-1.02,.86-2.1,1.24-3.05-1.39-1.43-2.53-2.6-3.67-3.78l.36-.46c1.21,.75,2.42,1.5,3.81,2.36,.04-2.88-2.75-3.64-3.98-5.53,1.68-.15,2.45,.31,4.46,2.68l.24-1.32c-2.84-1.26-4.29-2.79-3.92-4.05q2.83,2.21,3.85,2.22c-.71-2.89-1.22-3.67-3.44-5.36-2.3,1.48-4.6,2.97-6.75,4.35,.6,3.68,1.16,7.05,1.77,10.76l.97,1.17Zm71.49-20.54c2.19-1.9,4.27-3.71,6.36-5.51,2.13-1.84,4.28-3.66,6.67-5.71-1.98-.88-3.57-1.6-5.1-2.28l-1.14,.87c-.37-.87-.67-1.58-1.13-2.68-3.29,2.76-6.4,5.25-9.3,8.04,1.19,2.38,2.32,4.63,3.64,7.26Zm-12.27-39.41c2.65,1.74,5.43,3.56,8.31,5.45-.35,.33-.49,.54-.69,.62-.2,.09-.46,.06-.66,.07-1.59-2.61-4.72-2.83-6.98-4.94-.75,3.96-1.43,7.59-2.13,11.31,2.32-.74,8.43-4.68,8.89-5.32l6.52-4.05c-4.43-2.61-8.46-4.99-12.73-7.52-.18,1.51-.32,2.71-.52,4.37Zm-39.09,16.87c2.43-.28,4.79-.54,7.09-.8,.29-4.45,.57-8.72,.86-13.1-2.05-1.55-4.5-2.11-6.88-3.05-.36,5.73-.71,11.23-1.07,16.95Zm-29.79,33.26l.23-.4c-.81-2.03-2.15-3.43-4.37-3.91-.48-.1-.91-.49-1.36-.74l.2-.45c.98,.33,1.96,.65,3.07,1.02l-.6-2.24-2.32-.11c-1.28,1.09-2.34,2-3.59,3.06l-.82-1.47c.77-.39,1.34-.69,1.92-.98-2.87-.29-5.87,.39-7.82-2.3l-1.51,.41c.43,1.88,.78,3.72,1.29,5.5,.14,.5,.69,1.02,1.19,1.27,1.74,.84,3.53,1.56,5.3,2.35,.26,.12,.45,.38,.69,.55,.99,.7,1.99,1.38,3.23,2.24l2.66-2.43c.36,.02,1.3,.84,1.82-.48-1.49-.78-3.07-1.35-3.94-2.8l.26-.38c1.49,.77,2.99,1.53,4.48,2.3Zm-.13,22.27c-1.32-1.73-2.5-3.44-3.86-5.01-.99-1.15-2.24-2.07-3.31-3.16-2.22-2.25-4.79-4.02-7.43-5.75-2.67-1.74-5.53-3.02-8.41-4.29-.45-.2-1.02-.12-1.54-.16l-.42,.48c1.31,.03,1.26,.8,1.16,1.71l.93-.88c1.3,1.09,2.54,2.12,3.78,3.15,.32,.29,.87,.34,1.16,.64,2.1,2.27,4.81,3.89,6.62,6.48,1.2,1.72,2.71,3.22,4.05,4.85,1.4,1.69,2.76,3.4,4.22,5.21,1-1.07,1.88-2.01,3.05-3.26Zm9.4-36.83c-1.59-5.2-3.06-9.99-4.58-14.94-2.11,.21-4.2,.42-6.5,.65,2.05,4.38,1.99,9.5,4.39,13.83,1.18,.16,2.22,.37,3.28,.44,1.05,.07,2.1,.02,3.41,.02Zm-5.22,31.41c-8.56-11.65-20.21-18.2-34.26-20.72-.63,1-2.52-.63-3.24,1.09,1.44,.55,2.81,1.07,3.9,1.48,10.12,2.2,18.87,6.52,26.67,12.74l-.59,1.57,.25,.13,.7-1.17c1.76,2.12,3.7,3.91,5.84,5.51l.73-.62Zm63.41-158.86l6.35,1.68q-1.8,1.23-1.16,2.93c1.6,.57,3.21,.64,4.88,.23,.41-.1,.94,.26,1.41,.41l-.04,.48-3.69,1.24c.63,.86,1.05,1.44,1.48,2.02l.54-.52c.84,1.94,2.88,1.12,4.32,2.08,.68-3.88,1.32-7.59,2.02-11.64-3.48,.17-6.63,.36-9.77,.47-1.99,.07-3.99,.04-5.98,.05-.82,0-1.63,.01-1.62,1.36l1.26-.78Zm-14.07,184.73c4.83,.3,9.55,.59,14.65,.9-1.6-2.79-2.96-5.17-4.26-7.45-2.4-.81-4.49-2.08-7.01-2.24,1.31,1.26,2.02,2.73,2.3,4.39l-.38,.24c-1.19-1.6-2.37-3.2-3.58-4.83-.29,.26-.52,.36-.54,.5-.4,2.76-.78,5.53-1.19,8.5Zm-31.28-151.08c.55-1.52,1.13-2.93,1.58-4.38,.75-2.46,1.29-5,2.16-7.42,1.12-3.09,2.51-6.08,3.73-9.13,.33-.82,.47-1.71,.71-2.62-2,.28-2.94,1.39-3.61,2.93-.42,.96-1.13,1.79-1.7,2.68-.15,.24-.29,.5-.41,.76-.77,1.71-1.29,3.6-2.36,5.09-1.57,2.19-2.45,4.66-3.58,7.03-.65,1.37-1.02,2.88-1.51,4.33,1.8,.26,3.28,.48,5,.73Zm70.29,73.16c-1.07,3.01-2.22,6.25-3.41,9.62,1.89,1.03,3.8,2.08,5.62,3.07,1.68-.71,2.52-1.87,2.59-3.6,0-.27,.26-.53,.35-.81,.77-2.35,1.56-4.69,2.27-7.05,.12-.4-.08-.89-.12-1.24h-7.3Zm-68.82-73.85c1.17-.48,2.42-.89,3.03-2.26,1.16-2.63,2.36-5.25,3.53-7.88,.69-1.56,1.17-3.24,2.06-4.68,.85-1.38,1.11-3.02,2.24-4.28,1.2-1.35,2.17-2.9,3.24-4.36l.28,.19,.55-1.75c-2.36,.59-4.51,1.13-6.6,1.65-3.64,7.5-5.96,15.39-8.33,23.38Zm52.66,91.69c-.21-.81-.26-1.3-.46-1.71-2.58-5.28-5.79-10.24-8.2-15.61-.38-.84-.84-.99-1.8-.82,.4,1.23,.94,2.46,1.2,3.75,.48,2.42,.78,4.88,1.2,7.32,.55,3.19,1.13,6.37,1.72,9.55,.07,.36,.28,.69,.54,1.3l.51-1.02c2.18-.68,4.1-1.28,6.26-1.96l-.98-.8Zm-26.73-34.3c3.71-2.33,7.15-4.49,10.57-6.65-.4-2-.78-3.88-1.19-5.9-4.95,3.07-9.82,5.89-14.46,9.36l3.83,3.37,1.24-.18Zm-7.71-87.45l.22,.32c.84-.35,1.66-.78,2.53-1.04,2.27-.68,4.47-1.52,6.92-1.57,1.64-.03,3.26-.83,4.92-1.04,1.87-.24,3.78-.17,5.67-.29,1.76-.12,3.57-.28,4.86-1.64,.66-.7,1.04-1.66,1.71-2.77-1.02-.04-1.94-.15-2.84-.08-1.75,.14-3.5,.47-5.25,.57-4.37,.25-8.58,1.32-12.71,2.61-1.36,.42-2.43,1.81-3.77,2.86l-1.1-.62,.28,1.12-1.44,1.58Zm20.56,91.7c-.27-1.34-.49-2.92-.92-4.43-.47-1.67-.41-3.84-3.35-3.95-2.64,1.59-5.54,3.35-8.55,5.16,2.73,2.34,5.21,4.46,7.61,6.53l5.2-3.31Zm12.93,60.19c5.26-1.39,10.12-2.67,15.33-4.05-1.16-1.8-2.14-3.33-3.19-4.96-4.52,1.13-8.82,2.2-13.21,3.29,.36,1.9,.67,3.6,1.07,5.72Zm-5.21-166.65c-6.63,1.52-13.1,2.04-18.84,5.2l.09,1.02c-1.79-.29-2.11,1.29-2.92,2.39,6.65-2.04,13.52-2.53,20.47-2.93,.4-1.87,.76-3.57,1.21-5.67Zm36.36,119.84l-.44-.79h-4.8c-1.55,4.48-3.05,8.81-4.55,13.15,1.59,.82,3.23,1.66,4.87,2.51,1.68-5.07,3.3-9.96,4.92-14.87Zm-54.24-97.41l.02-.09c5.42,1.3,10.83,2.61,16.48,3.97-.2-1.48-.38-2.77-.55-4-7.69-1.62-15.16-3.5-22.86-3.9l-.21,.4,2.91,1.93-.46,.52c1.56,.39,3.12,.78,4.68,1.17Zm-55.48,102.73c-5.31,.62-10.59,1.23-15.87,1.85,.55,.53,1.17,.64,1.71,.92,1.52,.79,3.14,1.08,4.8,1.38,1.4,.26,2.71,1.37,4.08,1.42,2.19,.07,3.27,2.02,5.16,2.49h1.79l1.58,1.36c-.52-3.38-1.7-6.44-3.24-9.41Zm72.68,15.67h-6.93c-.45,2.59-.87,5.08-1.26,7.33,.74,.65,1.24,1.09,1.77,1.56,2.69,.2,5.4,.63,8.17,.18-.6-3.14-1.16-6.04-1.74-9.06Zm-17.41-113.26c2.27,.52,4.45,1.72,6.34,1.35,3.77,.8,6.99,1.49,10.4,2.21-.37-1.64-.66-2.93-.96-4.24-6.4-1.41-12.67-2.8-19.01-4.2l3.23,4.87Zm23.14,144.54c-.2-1.56-.38-2.97-.59-4.54-.13-.11-.45-.37-.45-.36-.39-1.16-.65-1.95-.94-2.81l.6-2.57c-4.94-.13-9.72-.25-14.56-.37l-.39,1.44c2.08,1.09,4.11,2.15,6.24,3.26l1.94-.66c2.59,2.1,5.3,4.3,8.14,6.6Zm-58.8-128.11c2.36-7.31,6.35-13.62,9.33-20.4-6.11,4.75-10.14,10.98-13.55,17.61,1.57,1.03,2.83,1.87,4.23,2.79Zm-7.46,198.69c1.04,.46,2.07,.92,2.98,1.32,1.96-2.05,3.8-3.98,5.7-5.97l1.31-.3c.76-2.21-.3-4.11-.57-6.06-1.47-.46-2.74-.85-4.08-1.27-1.81,4.17-3.55,8.17-5.34,12.27Zm37.16-1.95c-1.36-1.28-3.26-1.3-4.85-1.96-.56,.23-1.03,.43-1.54,.64,.14,.73,.4,1.36,.36,1.98-.15,2.19,.55,4.24,.96,6.34,.43,2.14,1.06,4.26,.37,6.48-.68,2.17,.88,3.64,1.52,5.63,1.08-6.54,2.11-12.75,3.17-19.11Zm7.05-237.51c2.3-.74,4.47-1.61,6.72-2.12,2.78-.64,5.64-.98,8.45-1.5,.66-.12,1.28-.45,1.77-.64v-5.68c-6.6,1.83-12.87,3.74-16.94,9.93Zm-31.85,17.34c-.56-.14-.83-.29-1.07-.25-2.32,.43-4.64,.88-6.94,1.36-2.03,.42-4.07,.8-6.06,1.38-1.86,.55-3.6,1.47-5.44,2.13-2.2,.79-4.43,2.21-4.87,5.03,.41,.83,.33,2.06,1.19,2.12,1.95-1.28,3.51-2.35,5.12-3.33,.77-.47,1.68-.72,2.48-1.17,1.93-1.08,3.8-2.28,5.76-3.31,.87-.46,2.04-.42,2.79-.99,2.03-1.53,4.43-2,7.04-2.98Zm59,103.41c1.84,.93,3.68,1.86,5.51,2.79l.19-.33,.3,.84,1.88,.49c.56-1.56,1.29-3.1,1.64-4.72,.34-1.59,1.88-2.95,1.18-4.54-2.48-.16-4.75-.33-7.02-.45-.69-.04-1.39,.06-1.79,.08-.69,2.14-1.26,3.89-1.9,5.84Zm-35.52-74.56l.26-.24c-.52-2.15-1.04-4.29-1.55-6.44-.35-1.49-.7-2.98-.99-4.48-.51-2.65-1.06-5.3-1.44-7.97-.21-1.48-.74-2.95-.41-4.5,.07-.35-.32-.81-.49-1.21-1.6,9.66-1.24,12.17-.71,22.14,2.12,.14,3.85,1.15,5.33,2.71Zm-1.12,69.51c.12-.21,.57-.63,.6-1.08,.17-2.68,.24-5.37,.34-8.06-1.2-1.39-1.58-1.61-5.77-3.15-.29,4.44-.58,8.79-.86,13.18,1.86-.29,3.55-.55,5.69-.89Zm142.06,71.25c-.87-.74-1.63-1.01-2.73-.18,3.6,1.6,7.14,.4,10.63,.84,.8-2.56,2.36-4.75,2.22-7.46-2.33-1.14-4.53-2.22-6.85-3.36l-1.01,.62c1.43,1.64-1.23,3.89,.85,5.19v3.29l-2.93,.56-.17,.51Zm-100.59-74.26l.54,1.41c3.96,.16,7.87,.31,11.55,.46,0-1.87,.06-3.52-.03-5.15-.04-.68-.39-1.35-.61-2.05-4.07,1.09-7.82,2.1-11.68,3.14l.8,1.41-.57,.79Zm-33.24,8.91c-.3-1.9-.59-3.89-2.07-5.69-2.69,.92-5.66,.11-8.29,1.37,.98,2.81,1.88,5.39,2.8,8.05,.9-.21,1.77-.42,2.65-.62l-.12-.12c1.59-.95,3.18-1.89,5.02-2.98Zm-4.5,36.78c3.34,.39,6.92-.33,10.34,1.67,.34-1.91,.62-3.49,.91-5.09-3.11-.96-6.12-1.89-9.17-2.84-1.61,.75-2.94,2.96-4.46,7.61,.9-.51,1.59-.9,2.38-1.35Zm-6.26-63.6c-1.26-1.74-3.23-2.77-5.16-4.46-1.23,2.43-2.36,4.65-3.49,6.88l.12,.04c-.48,.68-.96,1.37-1.53,2.17,2.48,1.03,4.73,1.95,7,2.89l3.05-7.52Zm132.36,84.39c1.01-2.04,1.68-6.75,1.35-9.4-1.77-.87-3.55-1.74-5.26-2.58l-1.75,.41c-.51,1.42-1.02,2.83-1.64,4.56,1.74,1.67,3.43,3.3,5.12,4.93l-.36,.46,2.53,1.64Zm-132.18-155.27c1.77,8.34,3.52,16.61,5.28,24.91,1.7-.38,3.13,1.02,4.34,.07-1.25-2.98-2.65-5.7-3.54-8.58-1.56-5.05-2.81-10.19-4.18-15.29-.23-.84-.67-1.29-1.9-1.11Zm.45,144.37c.49,.55,.73,1.06,1.09,1.18,4.1,1.27,8.23,2.47,12.67,3.78,.31-1.88,.62-3.72,.94-5.68-1.52-.97-3.04-1.94-4.59-2.92-1.53,.88-3.01,1.74-4.58,2.65,.92,.55,1.72,1.03,2.54,1.53-.92,.99-1.28,.89-3.34-1.03-1.34,.14-2.92,.3-4.74,.49Zm36.77-57.01c3.95-1.36,7.87-1.81,11.57-3.25-1.06-2.22-2-4.21-3.1-6.51-1.56,1.16-3.02,2.25-4.43,3.3l-4.57,2.56c.19,1.41,.36,2.63,.53,3.9Zm-31.95-83.34c3.09,5.94,6.06,11.66,9.17,17.63,.88-.83,1.62-1.53,2.23-2.11-.02-.41,0-.55-.04-.65-1.1-2.05-2.05-4.13-2.55-6.44-.24-1.11-.78-2.34-1.58-3.1-2.02-1.91-4.26-3.58-6.43-5.33-.14-.11-.44-.01-.8-.01Zm-6.66,146.43l.22-.41c3.66,.7,7.31,1.39,10.97,2.09l-.15,.47c1.14,.41,2.27,.83,3.46,1.26,.74-1.25,1.06-2.4,.56-3.62-2.27-.66-4.38-1.46-6.57-1.87-2.45-.46-4.82-.95-6.84-2.52-.3-.24-.74-.3-1.21-.48l-.66,1.37,1.2,1.6-.22,.33-1.94-.22c.05,1.19-1.56,1.82-1.06,3.53l2.25-1.53Zm14.54-38.63c.95-1.89,1.74-3.47,2.17-4.33-2.49-2.68-4.65-5.01-6.73-7.26-1.53,.88-3.09,1.77-4.46,2.55,2.87,2.88,5.8,5.81,9.01,9.04Zm-10.25-120.76c.39-1.04,1.2-1,1.98-.87,1.91,.31,3.81,.9,5.73,.99,3.99,.19,7.74,1.47,11.61,2.19,1.35,.25,2.7,.51,4.3,.82-.47-1-.79-1.69-1.15-2.44l.31-1.35c-1.64-.15-3.19-.29-4.74-.45-2.33-.23-4.66-.58-7-.69-2.96-.14-5.93-.12-8.9-.1-1.21,0-2.53-.3-3.43,.72l-.86-.31-.09,.2,2.24,1.31Zm20.47,100.96c-2.01,4.34-3.92,8.46-5.79,12.6-.13,.28,.03,.68,.05,.97,.62,.3,1.15,.56,1.61,.78l1.9-.81c.44-2.11,.89-4.15,1.28-6.2,.4-2.06,.06-4.27,1.01-6.22l.55,.08c-.48,3.71-.96,7.41-1.45,11.22,1.48-.11,2.62-.19,3.87-.28-.63-3.63-1.24-7.14-1.86-10.73-.29-.35-.67-.81-1.18-1.42Zm-9.23-69.39c-4.16-6.57-7.4-13.54-10.85-20.41,1.79,7.43,3.55,14.86,7.08,21.75,1.3-.46,2.49-.89,3.77-1.34Zm-13.73,82.59c3.73,3.74,7.31,7.33,10.85,10.9,.33-.75,.82-1.86,1.34-3.06l-3.38-4-.06,.1c-1.96-1.86-3.92-3.73-6.06-5.77l-2.69,1.83Zm120.62,81.15l.42,.36c.32-.12,.73-.15,.95-.37,1.75-1.78,3.46-3.59,5.18-5.41,1.07-1.14,2.12-2.3,3.26-3.53,.46-2.7,2.79-4.59,4.05-7.1-2.58,1.68-5.15,3.36-7.85,5.12l-2.38,3.16,.14,1.08-.34-.14c-1.14,2.28-2.28,4.55-3.42,6.83Zm-4.63-23.15l-.17-.31c-1.66-.39-3.31-.79-4.97-1.16-.86-.19-1.73-.39-2.6-.47-3.14-.3-5.23,1.85-7.66,3.11,.55,1.88,1.76,2.77,3.39,2.82,1.02,.03,2.07-.37,3.07-.68,1.72-.54,3.42-1.15,5.11-1.77,1.29-.48,2.56-1.02,3.84-1.54Zm-168.4-10.36l.43-.34c-.68-1.26-1.22-2.62-2.07-3.75-1.65-2.18-3.46-4.24-5.22-6.33-.19-.22-.46-.38-.67-.58-1.44-1.35-2.89-2.69-4.31-4.07-.58-.56-1.09-1.02-1.58-.3,1.62,5.02,4.87,8.8,8.44,12.4,1.22-.42,1.24,.88,1.67,1.52l.69-.6c.96,.75,1.79,1.4,2.62,2.05Zm91.82,2.22c-4.12-5.89-8.62-11.31-14.8-15.26l-.67,1.06c.51,.9,.81,1.77,1.39,2.39,2.23,2.34,4.54,4.6,6.83,6.89,.6,.61,1.37,1.12,1.79,1.83,1.15,1.94,2.96,2.85,4.96,3.63l.5-.53Zm-93.91-47.38c-1.25,1.31-2.4,2.52-3.99,4.18l-1.24-1.56c1.83-.48,3.01-1.03,3.21-2.95-.9-.05-1.7-.09-2.66-.14l-2.24,2.71c.31,.68,.57,1.15,.73,1.65,.44,1.43,1.53,2.06,2.99,1.99,1.54-.08,3.1-.01,4.63,.12,1.78,.15,3.54,.44,5.8,.73-1.55-1.89-2.83-3.46-3.97-4.85-1.76,1.12-3.21,2.05-4.72,3.02l-.77-.92c1.18-1.18,3.19-1.05,3.91-2.8l-1.69-1.17Zm60.99-31.42c-1.9-1.6-3.48-2.91-4.97-4.16-.79,.48-1.49,.89-2.17,1.3l-2.09,5.12c2.25,1,4.34,1.92,6.57,2.91,.89-1.73,1.73-3.39,2.64-5.17Zm120.73,106.58c-.43,.35-.62,.49-.79,.64-1.71,1.46-3.44,2.9-5.1,4.41-.86,.78-1.91,1.51-1.97,2.85-.05,1.18,0,2.36,0,3.72,.73,.3,1.53,.61,2.17,.87,1.04-.38,1.91-.71,2.77-1.02l-.41-.38c.52-1.19,1.1-2.2,1.41-3.29,.69-2.45,1.23-4.94,1.93-7.8Zm-101.91-172.94c-1.3-.82-2.76-1.82-4.3-2.69-1.53-.86-3.14-1.59-4.72-2.37-3.69-1.83-3.93-1.91-4.58-1.76,1.23,2.11,2.51,4.29,3.8,6.5l.82-.68c1.96,1.62,4.77,1.86,6.16,4.02,.93-.99,1.82-1.95,2.82-3.02Zm-5,78.08l.07-.13c-4.32-3.65-8.63-7.3-13.06-11.04-.88,1.8-1.65,3.36-2.42,4.94,5.16,2.09,10.28,4.16,15.4,6.23Zm-12.93,38.99c3.4,1.1,6.37,2.06,9.54,3.09,.36-1.78,.65-3.19,.96-4.69-3-.94-5.72-1.78-8.71-2.72-.55,1.33-1.09,2.65-1.79,4.32Zm14.78,31.12l.12-.48c-.47-.22-.92-.52-1.41-.64-1.2-.3-2.41-.56-3.63-.75-2.97-.46-5.9-1.04-8.7-2.17-.91-.37-1.81-.82-2.75-1.06-1.68-.43-3.39-.81-5.1-1.06-1.11-.16-2.31-.48-3.48,.31l1.23,1.28c2.58,.48,5.14,.88,7.4,2.16,2.8-.16,5.39,1.07,8.12,1.53,2.72,.46,5.44,1.08,8.22,.87Zm-56.67-22.05l.3-.33c-.4-1.78-.76-3.57-1.22-5.34-.58-2.2-.85-4.46-1.4-6.68-.67-2.71-1.89-5.11-2.86-7.65-.29-.76-1.01-1.36-1.57-2.09-1.25,1.62-1.3,2.22-.57,3.55,.37,.66,.68,1.36,.95,2.07,.5,1.32,.91,2.67,1.42,3.98,.82,2.13,1.78,4.2,2.53,6.35,.61,1.74,.97,3.57,1.52,5.34,.1,.32,.58,.53,.89,.78Zm29.96,71.32c-.24,.91-.61,1.68-.63,2.47-.08,2.48,.04,4.97-.05,7.45-.11,3.08,.77,5.91,2,8.66,.29,.64,.86,1.16,1.3,1.73l.38-.14c.06-.44,.22-.9,.15-1.32-.45-2.7-.83-5.43-1.48-8.09-.75-3.09-.86-6.22-.99-9.36-.02-.39,.35-.79,.42-.93,.07-1.51,.13-2.77,.19-4.03l-.61-.09-.61,2.73c-.54-.03-.96-.05-1.78-.1,.81,.49,1.28,.77,1.7,1.02Zm1.75-211.99c-4.13,5.24-6.48,10.84-8.95,16.5,1.36,.48,1.78,2.15,3.22,2.43,.73-2.75,1.35-5.37,2.14-7.94,.88-2.85,1.24-5.88,3.08-8.41,.4-.55,.31-1.47,.52-2.58Zm-28.59,191.77c5.43,3.31,9.58,8.27,14.89,11.72l.43-.42c-1.27-1.81-2.54-3.63-3.76-5.37-2.1-.31-2.97-2.06-4.2-3.27-1.24-1.22-2.23-2.69-3.49-4.26-1.13,1.72-2.64,.6-4.1,.57-.26,.57-.52,1.12-.77,1.66l.16,.13,.84-.77Zm-85.6-16.09c1.8-.86,3.41-1.48,4.87-2.35,1.26-.75,2.28-1.9,3.53-2.67,2.39-1.48,4.54-3.41,7.36-4.12,.18-.04,.33-.22,.49-.33l-.16-.44c-.61,.21-1.21,.42-1.85,.63l-.34-.38c-4.49,1.88-8.94,3.74-13.41,5.61l-1.52,1.33v1.32l1.04,1.41Zm125.72-80.76c.16-1.86,.32-3.84,.49-5.81-1.79-.88-3.38-1.74-5.54-1.66v8.76c1.71,.19,3.42,.03,5.05-1.3Zm-84.59,68.35l.07,.36c.32-.11,.68-.38,.96-.32,2.39,.58,4.78,1.17,7.13,1.88,1.03,.31,1.97,.89,2.95,1.35l.16-.24,.54,1.11c.61-.06,1.19-.29,1.63-.13,.71,.26,1.07,.21,1.28-.62-1.92-.85-3.03-3.15-5.55-2.72,.02-.26,.03-.52,.03-.5-3.25-.81-5.87-2.79-8.96-4.08l-2.8,2.9c1.11,.44,1.84,.72,2.56,1.01Zm80.67-170.2c6.72-.5,13.15-.13,19.65,1.04v-2.36c-.62-.32-1.25-.85-1.95-.97-1.68-.29-3.39-.41-5.09-.55-.46-.04-.94,.08-1.4,.16-3.36,.6-6.71,1.21-10.32,1.87l-.89,.82Zm-39.85,22.29l2.32,.85-.13,.16,2.17,1.53c2.65-4.09,5.12-7.9,7.59-11.7-4.09,1.72-6.89,5.24-10.61,7.47-.5,.3-.78,.96-1.34,1.69Zm173.65,154.41l-.4-.35c-2.12,1.3-3.64-.27-5.14-1.07-1.79,2.81-3.45,5.41-5.23,8.2l-.35,1.61c.27,.05,.63,.24,.79,.12,.94-.68,1.81-1.45,2.74-2.14,.98-.72,1.91-1.68,3.01-2.02,1.81-.57,2.98-1.82,4.19-3.08,.27-.28,.27-.84,.39-1.27Zm-128.52-80.23c-.1,2.08-.2,4.06-.31,6.12,3.86-.28,7.66-.57,11.45-.82,.79-.05,1.27-.27,1.11-.87-4.26-.94-7.91-2.94-12.26-4.43Zm29.3,5.91c-2.2-.19-4.1-.36-5.99-.5-1.78-.13-3.55-.27-5.33-.32-.43-.01-.86,.29-1.29,.44l.03,.4c3.56,1.8,7.12,3.6,10.81,5.46,.63-1.95,1.18-3.64,1.77-5.48Zm-20.93,28.2c-2.45-.73-4.68-1.39-6.82-2.03-.68,1.59-1.3,3.05-2.01,4.71,2.73,.81,5.4,1.6,8.12,2.41,1.2-1.58,.44-3.28,.71-5.09Zm2.6-42.63c.47,2.29,.79,4.38,1.35,6.4,.56,2.03,.27,4.3,1.59,6.15,.97-4.41,2.22-8.74,2.19-13.27-1.77,.25-3.4,.47-5.13,.71Zm-.17,36.22h6.72c-.47-2.25-.95-4.57-1.43-6.9l-1.66-.57c-.89,.17-1.68,.33-2.63,.51-.32,2.18-.63,4.35-1.01,6.96Zm-37.63,72.88c1.27,.24,2.28,.35,3.24,.64,1.39,.42,3.02-.41,4.23,.84,2.79-.29,4.02,2.41,6.59,3.24l.46-2.47-3.82-2.05c-3.46-.49-6.37-1.82-9.11-3.29-1.27,1.02-2.38,1.91-3.67,2.95l1.28,1.45,.8-1.31Zm36.04-115.59l1.76,5.48c1.9-.52,3.96,.41,5.46-1.01,.23-1.64,.45-3.15,.7-4.95-2.56-1.07-5.1,.59-7.92,.48Zm-1.41,30.75c-1.22-1.3-2.39-2.55-3.58-3.82-1.9,1-3.38,1.77-5.03,2.64,2.17,2.37,3.91,4.71,6.59,6,.72-1.73,1.33-3.18,2.02-4.82Zm-50.06,56.56c.56,.96-.29,2.44,1.12,3.09,1.07,.49,2.14,.97,3.36,1.52,.82-.83,2.61,.37,3.13-1.07,.63-2.96-1.15-4.14-3.05-5.21-1.72-.13-3.42-.26-4.56,1.67Zm8.93,85.22c-.8-2.27,.35-4.44-.41-6.43,.96-1.52,.96-4.11,0-5.21-1.16,.45-.83,1.53-.96,2.37-.42,2.64-.91,5.28-1.09,7.94-.24,3.49,1.22,6.55,2.97,9.47,.07,.13,.47,.06,.4,.05-.34-2.73-.67-5.38-1.01-8.12,0,0,.14-.1,.11-.08Zm51.52-282.62l-.45-.23c-3.75,2.73-7.24,5.76-10.27,9.32,3.63-1.27,7.24-2.54,10.72-3.75v-5.34Zm89.89,198.6c.87,.44,1.63,.83,2.09,1.06,.51,.82,.88,1.43,1.31,2.13,.69-.15,1.31-.16,1.8-.42,1.46-.77,2.92-1.55,4.28-2.49,1.27-.87,2.45-1.87,4.17-1.95-.91-.4-1.83-.72-2.73-.68-1.65,.07-3.31,.26-4.93,.55-1.89,.35-3.74,.86-5.61,1.32-.09,.02-.14,.18-.37,.49Zm-121.82-156.84l-.35-.1c-1.27,4.58-2.54,9.16-3.84,13.83,1.54,.85,2.92,1.61,4.18,2.3v-16.03Zm128.89,192.59c2.9-3.31,4.85-6.83,6.48-10.07-.35-1.94-.62-3.48-.9-5.02-.23,.07-.34,.08-.44,.13-1.94,.91-1.78,3-2.32,4.57-1.13,3.25-1.83,6.64-2.82,10.39Zm-119.85,48.43c-1.14-2.08-2.25-4.15-3.39-6.2-1.11-2-2.26-3.97-3.43-6.04-1.13,.29-1.08,1.16-.78,1.94,1.11,2.96,2.17,5.94,3.51,8.8,.75,1.6,2.2,2.68,4.1,3.24v-1.74Zm-23.14-121.03c-2.33,.67-2.13,3.04-3.6,3.95-.2,3.81-2.43,7.34-1.52,11.35,.58-.41,1.15-.83,1.34-1.38,1.48-4.46,3.22-8.86,3.79-13.92Zm39.82-30.33l-.23-.3c-3.96,.43-7.93,.87-12.06,1.32,.51,1.72,.96,3.24,1.45,4.93,3.69-2.04,7.37-3.79,10.83-5.95Zm-31.34,54.46c5.69-2.33,11.62-3.44,16.95-6.48-.56-.5-1.06-.94-1.7-1.5-1.54,.64-3.13,1.23-4.65,1.94-2.31,1.08-4.55,2.32-6.88,3.33-1.44,.62-3,.96-4.56,1.44l.85,1.27Zm131.25,18.88c.9-.95,1.69-1.78,2.8-2.96-3.3,.99-6.24,1.77-9.1,2.75-2.88,.98-5.69,2.15-8.54,3.24l.07,.36h6.15c2.28-1.93,5.15-1.55,7.48-2.85l.36-.97,.79,.43Zm-146.29,58.83c.47,1.7-.28,3.87,1.85,5.35,.91-3.1,.51-6.05,.97-8.88,.45-2.74,1.2-5.43,1.83-8.2-1.11,.29-2.83,3.71-3.24,5.45-.48,2.05-1.22,4.05-1.41,6.28Zm43.31-105.42c.23-1.67,.43-3.17,.64-4.71-1.93-.66-3.77-1.29-5.67-1.94l-1.09,2.83,.16,.07-1,1.21,.39,.72c2.26,.63,4.31,1.19,6.56,1.82Zm-104.06,35.54c3.04,.36,5.74,.69,8.44,1.01l.03-.28,1.71-.94c-.71-2.08-2.6-2.88-4.34-3.99-1.49,1.85-4.26,1.76-5.83,4.19Zm111.98-148.7c-4.27-.82-8.53-1.64-13.06-2.51,.3,.43,.36,.64,.49,.7,3.45,1.72,6.91,3.44,10.38,5.13,.48,.23,1.05,.25,1.7,.4,.18-1.4,.33-2.55,.49-3.72Zm14.83,155.93c.32,.26,.71,.43,.82,.71,.1,.27-.23,.71-.12,.97,.6,1.38,1.26,2.73,1.92,4.07,.66,1.33,1.32,2.67,2.05,3.97,.77,1.38,2.78,2.24,4.23,1.94-.43-.87-.86-1.75-1.29-2.63-.65-1.32-1.25-2.63-2.4-3.67-1.26-1.14-2.53-2.32-3.16-4.04-.36-1-1.1-1.87-1.72-2.89l-.32,1.57Zm96.63,7.59l-.36-.17c-1.52,1.8-3.1,3.55-4.54,5.41-1.04,1.34-1.81,2.85-1.67,4.66,.08,1.07,.1,2.14,.16,3.21,0,.16,.08,.31,.16,.58l1.11-.55-.28-.19c.61-1.48,1.23-2.96,2.09-5.04,.26-2.49,2.16-5.07,3.35-7.92Zm-7.08-10.61c-3.64,1.39-5.31,4.64-7.97,6.79,2.81-.32,5.61-.5,7.97-1.89v-4.89Zm-95.91,19.64c-.09-.03,.19-.01,.23,.1,.8,2.05,1.56,4.13,2.37,6.17,.53,1.32,1.14,2.6,1.74,3.89,.05,.12,.3,.14,.48,.22,.3-.32,.58-.61,.9-.94-.51-1.37-.94-2.74-1.51-4.04-.35-.8-.93-1.5-1.35-2.28-.52-.97-1.05-1.95-1.46-2.98-.86-2.2-1.64-4.44-2.48-6.65-.07-.17-.34-.26-.55-.41-.13,.71-.24,1.34-.36,1.97,.3,.21,.81,.36,.9,.65,.4,1.32,.69,2.67,1.09,4.29Zm-108.77-25.16c0-.55,.17-1.11-.03-1.35-1.16-1.37-2.24-2.93-3.68-3.92-1.74-1.19-3.36-2.71-5.59-3.11-1.39-.25-2.76-.63-4.14-.95l-.22,.41,1.78,1.76,.08-.16c2.48,1.09,4.96,2.19,7.33,3.23l4.47,4.1Zm26.38,17.5c.18-1.17-.14-1.76-1.54-2.3-1.36-.53-2.77-.91-4.14-1.41-2.18-.8-3.31-.35-4.49,1.97,1.24,.03,2.57-.26,3.17,.98l1.61-.08,.9,1.08c1.51-.08,2.99-.15,4.5-.23Zm-82.44,2.45l-.1,.8h-2.52l-.58,1.31c1.64,.31,3.21,.61,4.77,.88,.35,.06,.74,.1,1.07,0,1.63-.52,3.26-1.07,4.86-1.67,.28-.11,.46-.49,.77-.83l-.91-.97c-2.73-.18-4.93,1.51-7.37,.49Zm102.93,5.05c1.36,.94,2.47,1.77,3.65,2.49,1.62,1,3.32,1.68,5.22,.65q-1.18-3.45-3.08-4.17c-1.7,1.27-3.95-.12-5.79,1.02Zm143.51-19.21c-2.81,.75-5.41,1.43-8.26,2.19,3.94,.77,7.49,2.48,11.38,1.42-.19-2.03-2.5-1.79-3.12-3.61Zm-206.39-17.05l1.45-1.82-1.16-3.93c-1.36-.6-1.21-2.83-3.05-3.06-.97,1.05-1.31,2.87-.62,3.93,1.02,1.57,2.13,3.08,3.38,4.87Zm48.95-8.68l-3.58-2.61-1.85,1.25c2.51,2.3,4.92,4.52,7.43,6.83l.74-.7-.79-2.33-1.95-2.43Zm60.19-19.93c.35-1.75,.67-3.34,.97-4.85-1.43-.27-2.72-.52-4.19-.8-.54,1.11-1.16,2.39-1.86,3.82,1.75,.63,3.22,1.16,5.08,1.83Zm94.69,58.54c-1.28,.7-1.52,1.56-1.01,2.54,.75,1.44,1.6,2.83,2.41,4.24,.17,.3,.36,.6,.62,1.02,1.61,.01,2.67,2.58,5.27,1.57-1.17-.95-2.08-1.83-3.12-2.5-1.3-.83-2.2-1.89-2.7-3.36-.39-1.16-.93-2.27-1.46-3.52Zm-124.83-18.67l.31,.29,4.91-1.61,1.67-3.86-1.95-.86c-1.09,.37-1.8,.61-2.5,.85,.59,2.23-1.41,3.51-2.43,5.18Zm-23.27,24.39c.19,1.66,.49,2.88,2.18,3.09l-.33,1.02,.82,.37c.25,1.03,.48,2,.72,3,.29,.14,.6,.28,1.07,.5,.26-.28,.55-.58,.96-1.02-.44-2.04-.89-4.09-1.39-6.37-1.29-.19-2.59-.38-4.03-.6Zm-11.88-60.04c-.73-.33-1.49-.84-2.31-.99-2.39-.44-4.81-.75-7.23-1.08-.51-.07-1.03-.01-1.57-.01v1.19c1.08,.25,2.27,.28,3.19,.78,2.05,1.11,4.27,1.19,6.47,1.48,.76,.1,1.28-.18,1.44-1.37Zm67.66-28.54l.36-.14c-.52-2.42-1.04-4.85-1.6-7.46-1.69,1.04-3.06,1.89-4.49,2.77,1.99,1.67,3.86,3.25,5.73,4.83Zm93.46,80.73c.61,1.73,1.18,3.33,1.74,4.93l.28-.22,2.29,2.42c.78,.47,1.82,1.1,3.11,1.88l.91-1.01c-1.45-.94-2.76-1.78-3.92-2.53l-2.08-3.22,1-.28-1.04-.72c-.3-.87,.36-2.03-1.12-2.29l-1.18,1.05Zm-83.37-79.81l.04,.35c3.39,.3,6.78,.59,10.43,.91-.21-1.23-.39-2.23-.58-3.3-3.48,.72-6.69,1.38-9.9,2.05Zm-62.68,110.76c-.02-2.76,.34-5.75-.58-8.82-.4-.27-.96-.65-1.93-1.31,.1,1.47,.18,2.53,.25,3.59l.22-.03c-.06,.91-.12,1.83-.17,2.61,.6,.5,1.85-.04,1.42,1.26h-2.58c1.23,.97,2.25,1.79,3.38,2.69Zm164.76-48.01c1.57,.21,1.9-1.28,2.53-1.53h2.62l2.16,1.6,1.65-.09,.12-.42c-2.79-1.45-5.58-2.89-8.5-4.41-.95,1.52-.09,3.2-.59,4.84Zm-156.31,34.01c-.89-.74-1.68-1.45-2.52-2.09-.75-.57-.8-2.11-2.29-1.77v2.04c1.29,1.67,2.58,3.33,3.9,5.05,1.15-.97,1.95-1.96,2.33-3.53-.59,.12-.95,.19-1.42,.29Zm-49.98-83.7l.18-.51c-.43-.24-.83-.55-1.29-.7-1.71-.57-3.49-.97-5.16-1.64-1.49-.6-2.84-1.54-4.29-2.23-.39-.19-.95-.03-1.85-.03,1.77,1.28,3.14,2.27,4.51,3.26l.05-.12,2.59,1.3c1.48-.22,3.28,1.24,5.26,.68Zm24.37,3.97c-4.46-1.43-8.63-2.77-12.91-4.14-.05,.47-.12,.81-.11,1.16,0,.4,.08,.79,.11,1.05,4.3-.51,7.77,1.8,11.51,2.95l1.39-1.02Zm-42.54,52.32c1.13-.07,2.14-.13,3.06-.18,1.47-1.33,3.47-.59,5.09-1.18l.06-.48c-1.48-.46-2.96-.91-4.44-1.37l-.03,.43-4.15,.21c-1.2,.93,.43,1.77,.41,2.56Zm116.6,2.04l-.67,.24-.27,2.39c.23,.01,.45,.02,.68,.03,1.65,3.71,2.81,4.51,5.21,3.42-1.49-2.21-2.86-4.44-4.94-6.08Zm-54.91-44.53c1.93,.56,3.75,1.09,5.67,1.65l2.83-1.5c-1.89-.72-3.33-1.42-4.85-1.79-1.12-.27-2.34-.1-3.66-.13v1.77Zm62.04-104.85l-.22,.2c.44,.63,1.01,1.2,1.28,1.89,.32,.82,.53,1.57,1.8,1.5,.29-1.83,.58-3.66,.85-5.34l-1.39-.84h-2.51c.07,.93,.13,1.76,.19,2.59Zm-39.53,141.24c-2.55,1.22-4.85,2.31-7.1,3.38,.33,1.32,1.06,1.8,1.91,1.53,1.48-.48,2.94-1.09,4.28-1.87,.94-.54,1.26-1.58,.91-3.05Zm24.16-52.43l.45-.16c.34-2.01,2.38-3.49,1.68-6.08-1.93,1.05-3.64,1.98-5.49,2.99,1.22,1.18,2.29,2.22,3.36,3.25Zm-40.47,100.53c-.74-1.22-1.27-2.09-1.95-3.19-.58,.95-1.1,1.82-1.46,2.41l.49,3.58c1.04,.2,2.04,.39,3.12,.6-.08-1.36-.15-2.51-.2-3.39Zm34.95-61.96l.07-.21c1.14,.37,2.3,.71,3.43,1.12,1.55,.57,3.07,1.27,4.74,.19-3.25-1.56-6.67-2.55-10.11-3.47l-.3,.54,2.17,1.82Zm-31.65,64.46c0,.85-.09,1.56,.03,2.22,.1,.55,.41,1.08,.68,1.58,.08,.14,.38,.16,.64,.25,.26-.55,.47-.99,.71-1.5l1.13,.67,1.04-1.15-.13-2.8c-.53-.14-1.18-.3-1.99-.51,.2,.22,.3,.29,.33,.37,.05,.15,.06,.32,.14,.78-.73-.19-1.3-.34-1.77-.46l-.81,.53Zm-10.88,42.08c1.82-1.72,1.23-4.05,1.67-6.19-1.83,.04-2.3,1.84-3.59,2.56l-.44,2.73c.9,.35,1.61,.62,2.36,.9Zm-73.12-140.7c-2.36-.51-3.79-3.62-6.94-2.54l1.21,.89v.94l.22,.04,.35-.85c1.03,.77,2.09,1.48,3.05,2.31,.96,.84,1.81,1.8,2.88,2.87l.7-1.43-1.47-2.24Zm80.91,35.84c-.33-.43-.88-1.16-1.52-2l-1.23,2.23,.47,.23-.32,2.43c1.68,.55,.71,3.03,2.6,3.46v-6.36Zm-69.47-10.11c-.27-4.75-2.41-8.24-4.64-11.71,1.25,4.09,2.51,8.19,3.86,12.61l.77-.9Zm90.96,67.6c-.23-2.01-.46-3.97-.68-5.92-.73,1.49-1.94,1.93-3.21,2.29,.23,.67,.53,1.26,.64,1.88,.36,1.99,.91,2.37,3.25,1.76Zm-28.78-3.75c.14,1.25,.34,2.14,.31,3.02-.03,.91-.29,1.82-.46,2.8,.4,.06,.92,.14,1.44,.21l.07,.31c-.55,.21-1.09,.43-1.63,.64,.55,.53,1.1,1.05,1.79,1.69,.31-1.24,.77-2.37,.85-3.53,.08-1.24-.2-2.5-.34-3.96-.42-.24-1.06-.61-2.04-1.18Zm151.38-26.83l-1.33-.29c-1,3.02,1.39,6.2,5.18,7.03,.49-.65,.56-1.16-.31-1.61-2.04-1.05-3.52-2.54-3.54-5.14Zm-76.39,27.67l-3.24-5.16h-1.62c-.26,2.79,2.43,3.97,3.18,6.2,.63,.12,1.18,.22,1.68,.31v-1.34Zm-82.3-79.47c2.27,.12,4.38,.23,6.46,.34,.18-.39,.33-.59,.35-.81,.02-.21-.11-.44-.25-.93h-8.5l.88,2.3,1.05-.9Zm-4.09-2.95l.28-.43-3.69-4.51c-.65,1.04-1.1,1.75-1.6,2.55,.67,.99,1.08,2.24,1.88,2.6,.85,.37,2.07-.11,3.13-.22Zm39.62-89.79l-.44,.27c.83,1.87,1.65,3.75,2.56,5.8l2.53-.62c-1.05-1.82-2-3.46-2.92-5.06l-1.72-.39Zm140.27,136.95c-1.48-1.05-2.85-2.02-4.41-3.12l-1.18,2.2c1.78,1.1,3.5,2.17,5.59,3.46v-2.54Zm-161.47,8.18l-1.18-3.56h-2.66c-.41,2.86-.1,3.44,2.47,4.69l1.36-1.13Zm22.44-193.38l.46-.03c.87-1.86,1.74-3.73,2.71-5.83h-4.24l1.07,5.86Zm44.71,227.27c.37,1.95,.67,3.52,.99,5.26,1.71-.69,3.39-.34,4.73-1.49-1.9-1.25-3.65-2.4-5.73-3.77Zm-9.69-203.51l1.41,2.09,2.35,.81c.25-1.22,.52-2.51,.79-3.86l-.83-.79-2.27,.36-1.45,1.39Zm-93.82,116.8c-3.63-.67-7.07-1.3-10.56-1.94,.03,.1,.03,.46,.15,.49,2.92,.98,5.85,1.95,8.8,2.85,.56,.17,1.22,.02,1.98,.02l-.36-1.43Zm47,35.31l-1.51-.52-.82,.88-1.34-.69-1.36,1.54-.26-1.39-.55,.63c1.2,1.24,2.37,2.45,3.75,3.88l2.09-4.34Zm46.88-65.63c-2.57,1.62-4.88,3.09-7.2,4.55l.12,.32c2.52-.65,5.05-1.31,7.73-2-.22-.98-.41-1.77-.66-2.86Zm82.91,97.91c0-.34,.02-.41,0-.45-.1-.13-.19-.29-.33-.36-1.88-.92-3.46-2.11-4.39-4.09-.53-1.12-1.31-2.12-2.05-3.28-.37,1.07-.65,1.89-.93,2.71l.21,.14,.82-.75c.88,2.84,2.99,4.49,5.14,6.21l1.52-.13Zm-88.18-186.39l-.99,.79,.55,1.52,2.52,.39,2.04,1.31,.33-.2c-.21-1.17-.41-2.35-.61-3.49l-3.84-.33Zm-172.53,178.99l-.77,.69,.24,.33,.98-.21c1.68,1.46,4.85,2,6.42,1.09l1,.57,.34-.2-.66-2.37c-1,.27-1.83,.5-2.66,.73-.73-.02-1.46,.18-2.16,.11-.8-.08-1.57-.41-2.74-.74Zm134.29-154.92c.86,.85,1.82,1.61,2.13,3.02,.36,1.61,1.44,2.14,2.84,1.74-2.46-1.55-1.95-4.41-3.07-6.74h-2.32l.42,1.98Zm36.9-17.2c2.29,1.11,4.45,2.16,6.96,3.38-.53-1.08-.86-1.75-1.2-2.43l-.26,.25c-.7-.6-1.41-1.19-2.11-1.79l.19-.27-2.54-.98c-.44,.78-.74,1.32-1.03,1.83Zm17.72,195.43q.23,1.56,3.2,3.65c1.13,.3,2.27,.61,3.4,.91l.11-.25c-1.82-1.54-3.64-3.08-5.58-4.72l-1.12,.41Zm-74.27-52.47c-.5-3.08-3.06-5.88-5.55-6.03,1.27,1.79,2.4,3.39,3.71,5.23,.02-.08-.06,.24-.21,.81h2.06Zm-68.85-32.89c-.12-2.49-2.37-3.97-4.85-3.55-.09,1.73,1.69,2.26,2.18,3.55h2.67Zm61.51,10.6c2.34-.59,2.73-2.55,3.78-4.2-1.03-.28-1.91-.52-2.71-.75l-1.53,2.5,.47,2.44Zm66.72-112.63c.58-1.46,1-2.54,1.45-3.68-1.11-1.01-1.69-1.15-3.61-.85l-.93,1.98c.69,.38,1.53,.85,2.42,1.34l.68,1.21Zm-44.59,166.39l2.18,2.06c1.1-.5,2.05-.76,1.45-1.93l-1.27-2.28h-1.78l-.59,2.15Zm3.23-8.38c1.34,1.19,2.46,2.18,3.72,3.3l.74-2.02c-1.22-1.18-2.42-2.34-3.8-3.67-.27,.99-.46,1.69-.65,2.39Zm-13.69,43.75l-.29-.18c-1.5,1.51-2.99,3.02-4.49,4.53,.92,1.46,2,.41,3.2,.15,.53-1.5,1.06-3,1.58-4.51Zm21.62-225l-3.57-1.77c.2,1.19,.36,2.14,.53,3.17l2.79,1.81,.26-3.2Zm57.08,192.45c-1.29,.03-2.25-.2-2.6-1.51-1.13,.6-.19,1.28-.23,1.81,1.86,1.34,3.35,3.06,5.78,3.42-.09-2.06-2.88-1.72-2.96-3.72Zm-44-152.02l-.27,.41c1.25,1.3,2.5,2.59,3.84,3.98,.11-.36,.24-.55,.2-.67-.55-1.4-1.1-2.8-1.72-4.17-.26-.57-.67-1.07-1.07-1.7l-.98,2.15Zm-30.88,233.38c.26-2.29-2.46-3.13-1.84-5.3h-1.57c.53,1.58,.93,3.08,1.54,4.48,.46,1.04,1.32,1.8,2.56,1.9,.11,0,.24-.19,.41-.33l-1.11-.75Zm-47-160.54l-3.39,1.42c.56,.11,.82,.2,1.08,.22,1.72,.12,3.43,.3,5.15,.29,.69,0,1.39-.47,.87-1.55-1.07-.11-2.2-.22-3.71-.37Zm105.66-98.59c-1.55-.05-2.7-1.08-3.7,.33,.84,1.25,1.7,2.53,2.74,4.07,.36-1.66,.65-2.96,.96-4.4Zm84.87,163.86c.56,1.85,1.72,3.06,3.16,4.07l1.31-.83c-.84-1.02-1.63-1.94-2.39-2.88-.56-.69-1.12-1.24-2.07-.35Zm-117.27-138.95l-.69,.43c.06,1.62,.77,3.01,1.96,4.5l1.73-1.87c-1.1-1.13-2.05-2.1-3.01-3.07Zm136.31,127.11c-1.01,.31-2.11,.65-3.44,1.06l2.42,2.28,1.31-.18c.68-1.06,.68-2-.29-3.16Zm-110.58-162.34c-2.65-.91-3.67-.98-4.59-.3,.95,1.95,3.52,.59,4.54,2.27q.76-.7,.05-1.97Zm-23.43,166.2l-.16,.47c.96,1.17,1.92,2.34,3.08,3.76,.24-1.12,.42-1.93,.66-3.03-1.2-.4-2.39-.8-3.58-1.2Zm100.94,21.21c.44,.98,.72,1.89,1.22,2.64,.56,.83,1.41,1.32,2.49,1.03-1.11-1.72-2.15-3.33-3.36-5.21l-.35,1.55Zm-103.1,66.5c-1.12,.9-.21,1.46,.2,1.97,.48,.59,1.12,1.04,1.7,1.55,1.02,.88,1.02,.87,1.62,.68-.57-.9-1.15-1.8-1.89-2.97-.34-.25-.95-.71-1.64-1.23Zm-17.43-226.9l.41-.11v-2.52c-.76-1.04-1.83-1.42-3.17-1.1,.23,.82,.39,1.61,1.51,1.66,.27,.01,.54,.66,.76,1.05,.19,.32,.33,.68,.49,1.02Zm-17.63,218.05c.16-.83,.9-1.77-.15-2.64l-1.68,1.43c-.16,.79-.34,1.73-.59,3.03,1-.75,1.62-1.21,2.43-1.82Zm55.09-222.36l.79-.12,.71-2.7c-1.35-.53-2.24,.48-3.49,.68,.75,.81,1.28,1.38,1.99,2.14Zm-21.06-17.22l-1.58,1.39c.55,.98,1.02,1.95,2.42,1.72l.49-1.86-1.33-1.26Zm-9.49,174.4l-.89,1.33c1.56,.6,2.97,1.15,4.37,1.69l.15-.33-1.05-1.34c-.9-.48-1.66-.87-2.58-1.36Zm3.76-176.82l1.48,1.02c.58-.55,1.09-1.04,1.58-1.5l-.88-2.32-2.18,2.8Zm4.23-.01l-2.62,1.84,1.85,1.42,1.5-1.43-.73-1.84Zm11.68,28.29c1.07,1.63,2,2.81,3.81,2.98-.93-1.23-1.85-2.46-2.74-3.64l-1.07,.65Zm-17.27-32.54l.45,3.05,.45,.12,2.12-2.37c-1.11-.29-2.06-.54-3.02-.8Zm-8.49,169.71l-1.26,.17c-.09,1.22-.16,2.28-.25,3.51,.32-.21,.6-.28,.68-.45,.57-1.19,1.12-2.4,1.63-3.62,.05-.12-.19-.35-.4-.71l-.41,1.1Zm.28,62.71c.99,.14,1.67,.23,2.04,.28v-3.39c-1.55,.26-1.35,1.72-2.04,3.11Zm-33.09-94.15c1.23,.86,2.16,1.51,3.09,2.17l.41-.34-1.31-2.73-2.2,.9Zm33.92,50.64c1.81,.47,3.29,.85,4.76,1.23l.09-.38c-1.32-.67-2.64-1.34-4.09-2.07l-.76,1.22Zm-53.39-11.32l.18-.47c-.74-.52-1.49-1.05-2.26-1.59l-.84,.89,1.33,1.64c.49-.15,1.03-.31,1.58-.47Zm207.41-7.27l-.09-1.51,.75-.64-.12-.39-1.74,.28,.45,.71c-.48,.44-.92,.85-1.36,1.26l.2,.29h1.91Zm-14.76,5.05l-2.14-1.63c-.23,.38-.43,.71-.66,1.08l1.75,1.72c.39-.44,.71-.8,1.05-1.18Zm-101.36-177.8v-1.48l-1.98-.25-.3,.33,1.29,1.92,1-.52Zm-33.66,39.6l.49,.51c.81-.46,1.63-.92,2.51-1.42l-1.46-1.07-1.55,1.98Zm43.16,135.24c.25,.98-1.33,2.12,.23,3.07,.83-1.15,.86-2.16-.23-3.07Zm-39.82,79.42c.16,1.33,.29,2.42,.44,3.72,.99-1.91,.93-2.66-.44-3.72Zm-6.36-254.53l.61-.04,.42-2.11-1.75,.21,.71,1.94Zm3.66-2.74c.22-1.11,.2-1.8-.98-1.8l-.67,1.26,1.66,.53Zm139.41,169.09c-.26-.9-.43-1.46-.59-2.03h-.35c-.26,.56-.52,1.11-.9,1.93l1.84,.1Zm2.2,.39c.61-.21,1.22-.42,2.04-.7-1.57-.96-1.65-.94-2.04,.7Zm-136.37-173.03l.48,.09,.48-2.54-.53-.1-.42,2.55Zm6.16,18.89l-.36,.44c.42,.46,.85,.91,1.32,1.42l.79-.59c-.65-.47-1.2-.87-1.75-1.26Zm43.68,177.81l.56-.75-1.53-1.19c-.34,1.1,.6,1.33,.97,1.94Zm-80.82-58.11l-.39-.51c-.44,.44-.88,.87-1.32,1.31l.24,.3,1.47-1.09Zm169.54,31.63l-.41-.48-1.01,1.09,.37,.36c.35-.32,.7-.64,1.05-.97Zm-208.76,3.14l.5-.27-.5-1.27-.72,.91,.72,.63Zm-63.74,20.32l-.29,.27,1.59,1.15,.22-.27c-.51-.38-1.01-.77-1.52-1.15Zm108.33,75.16l-.56-.11-.22,1.47,.42,.07,.36-1.43Zm6.82-51.43l-.21,.51c.44,.07,.87,.14,1.31,.19,.03,0,.08-.18,.13-.28l-1.22-.42Zm13.55,2.95l.26,.42c.29-.13,.64-.2,.82-.41,.09-.11-.16-.49-.29-.85l-.79,.84Z"
  />
  <path fill="#58b6d0"
    d="M403.03,306.5c-.54-.27-1.14-.46-1.63-.81-4.7-3.34-9.38-6.72-14.08-10.06-2.55-1.81-5.15-3.55-7.7-5.35-4.76-3.36-9.5-6.77-14.26-10.12-4.1-2.88-8.24-5.7-12.35-8.59-1.72-1.21-3.24-2.77-5.08-3.7-2.62-1.31-4.54-3.52-7.05-4.93-.92-.52-1.74-1.21-2.62-1.8-1.12-.75-2.28-1.45-3.39-2.23-.4-.28-.69-.73-1.04-1.1l.26-.43c.6,.23,1.27,.34,1.78,.7,1.55,1.09,2.99,2.32,4.55,3.39,2.66,1.82,5.39,3.54,8.06,5.35,1.09,.74,2.07,1.64,3.15,2.38,2.03,1.39,4.11,2.72,6.17,4.08,.29,.2,.55,.45,.83,.66,2.08,1.6,4.15,3.21,6.24,4.78,2.24,1.68,4.49,3.35,6.77,4.98,1.41,1.01,2.9,1.91,4.35,2.87,1.04,.7,2.07,1.42,3.16,2.04,.94,.72,1.85,1.5,2.84,2.15,2.71,1.78,5.41,3.54,7.84,5.71,1.4,1.24,2.98,2.29,4.52,3.36,2.31,1.61,4.68,3.13,6.98,4.76,.68,.48,1.21,1.18,1.81,1.78l-.11,.12Z"
  />
  <path fill="#58b6d0"
    d="M413.59,328.35c.69,.29,1.45,.47,2.06,.88,3.12,2.1,6.2,4.26,9.3,6.4,1.55,1.08,3.2,2.05,4.62,3.27,.77,.66,1.24,1.72,1.74,2.66,1.87,3.53,3.77,7.05,5.51,10.65,1.84,3.8,3.47,7.7,5.28,11.51,.78,1.65,1.79,3.19,2.75,4.87-1.16,.38-1.56-.33-1.9-1.09-1.07-2.34-2.05-4.72-3.19-7.02-1.56-3.16-3.24-6.26-4.86-9.39-1.15-2.23-2.29-4.47-3.43-6.7-.59-1.15-1.15-2.31-1.76-3.54l-1.37-.32,.55-.93c-3.08-2.2-6.15-4.37-9.2-6.58-2.09-1.51-4.14-3.05-6.21-4.58l.11-.11Z"
  />
  <path fill="#58b6d0"
    d="M331.55,271.81c.48,.1,1.06,.06,1.43,.32,2.47,1.78,4.87,3.66,7.34,5.44,2.39,1.72,4.82,3.37,7.25,5.02,3.65,2.49,7.31,4.95,10.96,7.44,2.17,1.48,4.33,2.98,6.48,4.49,.97,.68,1.91,1.4,2.81,2.16,.24,.2,.3,.61,.21,1.05l-36.66-25.36,.19-.57Z"
  />
  <path fill="#58b6d0"
    d="M231.86,581.08c-.44,.72-.95,1.23-1.08,1.82-.43,1.89-1.56,3.46-2.23,5.23-.78,2.07-1.67,4.1-2.54,6.14-.35,.83-.72,1.67-1.16,2.45-.11,.2-.58,.19-1.3,.4,.33-1.13,.4-2.04,.83-2.73,1.89-3.09,3.12-6.45,4.49-9.78,.91-2.22,2.02-4.36,3.08-6.51,.16-.31,.57-.5,1.16-.97-.23,1.36-.38,2.25-.54,3.19,4.55,1.42,9.06,2.84,13.56,4.25l-.16,.64c-1.47-.39-2.94-.76-4.4-1.18-1.57-.45-3.13-.93-4.69-1.4-1.61-.49-3.22-.99-5.02-1.55Z"
  />
  <path fill="#58b6d0"
    d="M382.99,518.18c-.1,.27-.13,.62-.32,.79-2.62,2.31-5.27,4.59-7.88,6.9-1.56,1.38-3.07,2.81-4.62,4.2-.88,.78-1.8,1.51-2.81,2.35,.59,1.26,1.15,2.4,1.66,3.57,.37,.85,.68,1.73,1.02,2.6l-.13,.11c-.71-1.06-1.44-2.1-2.11-3.19-.44-.72-.79-1.5-1.19-2.28-.49,.37-.78,.59-1.08,.8l-.36-.23c.3-.62,.6-1.24,.85-1.75-.49-1.28-.98-2.57-1.47-3.86,.96-.11,.9,.72,1.17,1.26,.36,.69,.78,1.36,1.24,2.15,2.18-2,4.11-3.81,6.09-5.56,2.78-2.46,5.59-4.9,8.42-7.31,.38-.32,.93-.44,1.4-.66l.12,.12Z"
  />
  <path fill="#58b6d0"
    d="M394.38,583.87c.37,.3,.87,.53,1.09,.92,1.17,2.03,2.28,4.09,3.39,6.15,1,1.86,1.98,3.73,2.96,5.6,1.45,2.74,2.88,5.49,4.34,8.22,.24,.44,.6,.82,.94,1.28-.73,1.08-1.23,.51-1.64-.24-1.02-1.87-2.03-3.74-3.02-5.63-1.55-2.96-3.09-5.92-4.62-8.88-.78-1.52-1.52-3.06-2.32-4.57-.43-.82-.94-1.61-1.42-2.41l.29-.43Z"
  />
  <path fill="#58b6d0"
    d="M408.87,324.56c-.59,.16-.82,.3-1,.25-.27-.07-.52-.25-.75-.42-8.7-6.08-17.39-12.17-25.9-18.53,4.78,2.73,9.29,5.84,13.74,9.05,4.46,3.22,9.05,6.28,13.92,9.64Z"
  />
  <path fill="#58b6d0"
    d="M264.23,219.67c1.51,4.32,1.92,8.52,2.74,12.63,.81,4.03,1.78,8.03,2.68,12.04l-.48,.27c-.26-.35-.66-.66-.75-1.04-.86-3.72-1.74-7.44-2.48-11.18-.63-3.21-1.03-6.47-1.61-9.69-.16-.87-1.09-1.6-.11-3.03Z"
  />
  <path fill="#58b6d0"
    d="M422.23,320.07c1.82,1.05,3.72,1.99,5.45,3.18,3.45,2.36,6.8,4.85,10.21,7.27,.57,.4,1.22,.69,1.8,1.08,.46,.3,.89,.67,1.58,1.2-.7,.37-1.12,.6-1.3,.69-2.12-1.72-3.96-3.34-5.93-4.78-3.18-2.33-6.46-4.52-9.66-6.82-.77-.55-2.04-.44-2.28-1.69l.12-.11Z"
  />
  <path fill="#58b6d0"
    d="M207.69,283.66c-.47,1.34-15.98,10.78-18.64,12.12,.34-.59,.43-1.01,.69-1.17,3.09-1.94,6.2-3.86,9.32-5.76,2.04-1.25,4.1-2.46,6.15-3.69,.74-.44,1.48-.89,2.48-1.49Z"
  />
  <path fill="#58b6d0"
    d="M341.2,204.94c.54,.43,.88,.59,.86,.7-.76,4.8-1.56,9.6-2.35,14.4l-.54,.03c-.07-.44-.27-.91-.2-1.32,.42-2.43,.94-4.84,1.34-7.26,.34-2.05,.56-4.12,.89-6.54Z"
  />
  <path fill="#58b6d0"
    d="M150.41,473.8l-.85,.07c-1.64-4.52-4.21-14.8-3.86-16.3,2.04,5.48,3.04,10.86,4.71,16.22Z"
  />
  <path fill="#58b6d0"
    d="M182.74,376.69l-.43-1.61,1.31-.96c-.48,5.7-.92,10.96-1.38,16.23,0,.1-.28,.17-.65,.39-.63-2.46,.39-4.71,.44-6.99,.05-2.35,.37-4.7,.56-7.05h.15Z"
  />
  <path fill="#58b6d0"
    d="M200.33,314.34c3.83-3.13,8.36-5.19,12.37-8.03l.32,.26c-.15,.3-.23,.7-.47,.87-1.31,.9-2.66,1.74-4,2.59-2.18,1.37-4.37,2.74-6.57,4.09-.45,.28-.95,.46-1.43,.69l-.23-.46Z"
  />
  <path fill="#58b6d0"
    d="M237.18,291.74c-1.47,1.15-2.89,2.38-4.42,3.44-1.39,.96-2.89,1.77-4.36,2.61-.39,.22-.86,.29-1.29,.43l-.11-.12c.8-.7,1.53-1.49,2.4-2.08,1.88-1.28,3.81-2.49,5.75-3.67,.58-.35,1.28-.48,1.93-.72l.09,.11Z"
  />
  <path fill="#58b6d0"
    d="M418.15,317.3c-.39-.1-.85-.11-1.15-.33-2.48-1.78-4.94-3.59-7.39-5.42-.56-.42-1.03-.96-1.53-1.44l.12-.13c.59,.22,1.25,.33,1.75,.66,1.83,1.24,3.65,2.5,5.4,3.85,1.04,.8,1.96,1.78,2.93,2.68l-.12,.12Z"
  />
  <path fill="#58b6d0"
    d="M443.48,500.9c-1,1.09-1.95,2.23-3.01,3.25-1.59,1.52-3.25,2.98-4.91,4.43-.35,.3-.83,.46-1.24,.68l-.24-.33c.73-.8,1.39-1.67,2.19-2.39,1.98-1.77,4.01-3.49,6.04-5.2,.3-.25,.7-.38,1.05-.56l.12,.13Z"
  />
  <path fill="#58b6d0"
    d="M342.34,324.22c-3.38-2-6.76-3.98-10.12-6-.23-.14-.3-.52-.31-.93,3.66,2.06,7.41,3.89,10.68,6.5l-.26,.43Z"
  />
  <path fill="#58b6d0"
    d="M412.72,348.67c-.41-.05-.92,.04-1.23-.16-2.59-1.71-5.14-3.47-7.69-5.55,.36,0,.78-.13,1.06,.02,1.34,.73,2.68,1.46,3.93,2.32,1.37,.95,2.64,2.03,3.96,3.06l-.03,.31Z"
  />
  <path fill="#58b6d0"
    d="M218,303.86c.46-.47,.86-1.03,1.39-1.4,1.91-1.3,3.85-2.56,5.82-3.77,.52-.32,1.19-.4,1.78-.6l.11,.12c-.57,.51-1.09,1.11-1.73,1.5-2.4,1.46-4.84,2.85-7.27,4.27l-.11-.12Z"
  />
  <path fill="#58b6d0"
    d="M216.95,317.61c3.03-2.22,6.1-4.27,9.48-5.81-.85,1.35-8.33,5.95-9.48,5.81Z"
  />
  <path fill="#58b6d0"
    d="M461.31,319.03c-2.77,1.84-5.53,3.68-8.3,5.52l-.38-.55c1.39-.96,2.73-2,4.18-2.86,1.45-.86,2.53-2.44,4.39-2.51l.11,.4Z"
  />
  <path fill="#58b6d0"
    d="M427.51,515.19c0-.06-.02-.15,.01-.18,1.93-1.81,3.86-3.62,5.81-5.41,.13-.12,.4-.08,.78,.16-.55,.53-1.11,1.05-1.66,1.58-1.25,1.19-2.48,2.4-3.76,3.56-.26,.24-.71,.27-1.07,.4l-.12-.12Z"
  />
  <path fill="#58b6d0"
    d="M223.82,273.42c.91-.64,1.79-1.32,2.72-1.92,1.75-1.12,3.54-2.2,5.46-3.38-.24,.95-1.74,2.29-3.67,3.39-1.39,.79-2.81,1.52-4.22,2.28l-.28-.37Z"
  />
  <path fill="#58b6d0"
    d="M243.66,287.77c-.47,1.2-1.71,1.45-2.64,2.04-1.2,.77-2.56,1.29-3.85,1.93l-.09-.11c1.93-1.69,3.97-3.21,6.48-3.96l.1,.11Z"
  />
  <path fill="#58b6d0"
    d="M378.55,304.34c-2.12-.91-4.12-2.01-5.81-3.57l.28-.47c1.29,.79,2.61,1.55,3.87,2.39,.64,.43,1.18,1.01,1.76,1.52l-.11,.12Z"
  />
  <path fill="#58b6d0"
    d="M408.07,310.11c-2-.75-3.75-1.86-5.04-3.6l.11-.12c2.1,.62,3.73,1.89,5.04,3.6l-.12,.13Z"
  />
  <path fill="#58b6d0"
    d="M413.48,328.46c-1.83-.77-3.25-2.06-4.82-3.16l.47-.6c1.38,1.37,3.53,1.69,4.47,3.65l-.11,.11Z"
  />
  <path fill="#58b6d0"
    d="M377.98,395.01c.62,1.35,1.23,2.69,1.9,4.17l-1.05,.19c-.48-1.41-.94-2.75-1.4-4.1l.55-.25Z"
  />
  <path fill="#58b6d0"
    d="M212.34,280.94c-.31,1.35-1.58,1.58-2.54,2.15-.52,.31-1.11,.5-1.67,.75l-.26-.5,4.37-2.52,.11,.12Z"
  />
  <path fill="#58b6d0"
    d="M418.27,317.18c1.61,.57,2.98,1.47,3.96,2.89l-.12,.11c-1.5-.71-3.09-1.32-3.97-2.88l.12-.12Z"
  />
  <path fill="#58b6d0"
    d="M218.46,277.25c-.81,1.22-2.12,1.71-3.4,2.22l-.25-.36,3.3-2.32,.35,.45Z"
  />
  <path fill="#58b6d0"
    d="M331.15,317.4c-1.04-.7-2.08-1.4-3.12-2.1l.36-.56c1.07,.66,2.15,1.32,3.22,1.99l-.46,.67Z"
  />
  <path fill="#58b6d0"
    d="M214.51,319.82c-.83,.63-1.63,1.29-2.5,1.86-.29,.19-.73,.15-1.17-.01,1.19-.71,1.97-2.08,3.55-1.97l.12,.12Z"
  />
  <path fill="#58b6d0"
    d="M218.11,303.98c-.76,.91-1.67,1.45-3.19,1.26,.96-1.08,1.92-1.45,3.08-1.39l.11,.12Z"
  />
  <path fill="#58b6d0"
    d="M401.8,356.83c-.45,1.34-1.45,2.03-2.7,1.83,.9-.61,1.8-1.22,2.7-1.83Z"
  />
  <path fill="#58b6d0" d="M182.87,374.18v-3.11c.92,1.27,.9,2.14,0,3.11Z" />
  <path fill="#58b6d0"
    d="M249.37,258.63c-.88,.5-1.77,1-2.65,1.51l-.32-.56,2.62-1.58,.35,.64Z"
  />
  <path fill="#58b6d0"
    d="M205.03,325.83c.52-1.09,.7-1.23,2.19-1.66-.03,1.42-1.33,1.27-2.07,1.77l-.12-.11Z"
  />
  <path fill="#58b6d0" d="M220.1,276.42c.31-1.6,1.45-1.47,2.21-2.12l.11,.93-2.32,1.18Z" />
  <path fill="#58b6d0"
    d="M214.39,319.71c.09-1.31,1.39-1.1,2.03-1.74-.06,1.26-1.17,1.36-1.91,1.86l-.12-.12Z"
  />
  <path fill="#58b6d0"
    d="M378.67,304.22c.95,.02,1.78,.23,2.23,1.52-1.09-.25-1.83-.62-2.34-1.39l.11-.12Z"
  />
  <path fill="#58b6d0"
    d="M370.48,299.33c-.57-.35-1.15-.71-1.72-1.06l.33-.53,1.72,1.07-.33,.53Z"
  />
  <path fill="#58b6d0"
    d="M345.08,325.93c-1.24,.13-1.61-.81-2.22-1.45l.29-.37,2.01,1.72-.09,.1Z"
  />
  <path fill="#58b6d0"
    d="M236.14,266.2c-.67,.48-1.34,.97-2.01,1.45l-.36-.53,2.08-1.35,.3,.43Z"
  />
  <path fill="#58b6d0" d="M212.23,280.82l1.81-1.35c.01,1.7-.96,1.41-1.7,1.47l-.11-.12Z" />
  <path fill="#58b6d0" d="M451.9,324.32c.45,1.37-.38,1.56-1.38,1.6l1.38-1.6Z" />
  <path fill="#58b6d0"
    d="M209.47,530.66c1.46,.97,2.93,1.91,4.37,2.91,2.27,1.59,4.51,3.21,6.74,4.85,.29,.22,.4,.67,.32,1.16-2.73-1.9-5.51-3.75-8.18-5.73-1.21-.9-2.24-2.04-3.36-3.08l.12-.12Z"
  />
  <path fill="#58b6d0"
    d="M230.85,546.56c.71,.43,1.42,.86,2.12,1.3l-.35,.56c-.68-.46-1.35-.91-2.03-1.37l.26-.49Z"
  />
  <path fill="#58b6d0"
    d="M227.94,544.43c1.03,.19,1.53,.99,1.82,2.06-.69-.56-1.38-1.12-2.07-1.68l.24-.38Z"
  />
  <path fill="#58b6d0"
    d="M224.52,541.74c.6,.42,1.2,.85,1.8,1.27l-.29,.43c-.64-.41-1.27-.81-1.91-1.22l.39-.48Z"
  />
  <path fill="#58b6d0"
    d="M328.1,544.78c.5,.52,.85,.88,1.27,1.32-1.42,.52-1.53,.42-1.27-1.32Z"
  />
  <path fill="#58b6d0"
    d="M363.47,526.38c1.4-.02,1.14,.98,1.11,1.83-1.25-.08-.9-1.13-1.11-1.83Z"
  />
  <path fill="#58b6d0"
    d="M336.76,406.08c.48,1.21,.94,2.39,1.51,3.82-2.02-.54-1.3-2.66-2.76-3.58l1.25-.24Z"
  />
  <path fill="#58b6d0"
    d="M333.55,392.18c-.94,.04-1.65-.33-2.43-1.4,1.23,.25,2.24,.04,2.56,1.28-.04,.04-.09,.08-.13,.13Z"
  />
  <path fill="#58b6d0"
    d="M218.28,357.14c.99-.35,1.48-.52,2.05-.71l1.49,.95-1.22,1.85-2.32-2.09Z"
  />
</svg>
