<?xml version="1.0" encoding="UTF-8"?>
<svg
  id="Layer_1"
  xmlns="http://www.w3.org/2000/svg"
  viewBox="0 0 595.28 841.89"
>
  <path fill="#58b6d0"
    d="M372.27,395.2c-1.08,1.32-2.64,.75-3.99,.95-1.53,.23-3.05,.34-4.35,2.16,3.51,.19,6.67,.37,9.82,.54l-.03-.06-3.47,1.22c5.98,1.38,11.73,.59,17.42-.69,2.13-.48,4.48-.65,6.28-2.52-.78-1.26-1.65-2.19-2.84-2.82-.1-.16-.2-.32-.3-.48-2.56-2.61-5.55-4.48-9.13-5.34-2.86-.69-5.73-1.39-9.12-2.21,.81-.5,1.23-.77,1.66-1.01,.09-.05,.24-.02,.36,0,7.31,.81,14.07,2.84,19.18,8.58,1.35,1.52,2.58,3.22,4.14,4.49,2.59,2.11,5.34,4.04,8.14,5.85,2.71,1.75,5.53,3.36,8.89,4.14-.71,.3-1.38,.74-2.12,.89-2.69,.56-5.4,1.03-8.11,1.53-.35,.07-.72,.08-1.06,.19-4.54,1.52-9.07,3.07-13.62,4.59-1,.33-2.02,.61-3.03,.89-1.37,.38-2.75,.73-4.08,1.41-.81-.08-1.68-.39-2.43-.2-3.84,.95-7.68,.66-11.39-.32-5.01-1.31-9.8-3.16-12.96-7.72-1.29-1.86-2.81-3.57-4.3-5.44-2.93-.87-5.98-1.79-9.72-2.91,.88,1.23,1.28,2.03,1.9,2.6,1.32,1.21,2.71,2.35,4.14,3.43,3.15,2.38,4.37,5.83,5.51,9.05-.67,1.9-2.05,2.5-3.33,3.09-5.01,2.29-10,4.63-15.1,6.68-3.63,1.46-6.76,3.56-9.64,6.13-5.48,4.88-11.53,8.91-18.27,12.39-.54-.68-1.21-1.23-1.47-1.93-.76-2-1.36-4.07-2.03-6.11-.25-.78-.51-1.55-.88-2.66-3.19,2.92-6.16,5.62-9.37,8.56,2.64,1.83,5.55,2.55,8.11,3.93,2.73,1.47,5.65,2.61,8.46,3.94,2.66,1.26,5.56,2.15,8.01,4.57-.65,.3-1.02,.63-1.38,.62-3.6-.05-7.08-.48-10.52-1.84-5-1.97-10.19-3.48-15.32-5.15-.79-.26-1.64-.3-2.56-.45-1.29,.6-2.04,2.72-3.86,1.43-1.83,1.84-3.91,3.04-4.93,5.45-.97,7.02-.14,14.43-2.49,21.63h-1.87c-.6,.8-1.3,1.71-2.31,3.03,0-3.42-.06-6.41,.02-9.4,.08-3.1,.2-6.21,.46-9.3,.25-3.08,.7-6.15,1.09-9.53-2.31,.95-4.37,1.99-6.56,2.64-2.16,.64-4.43,1.06-6.68,1.26-2.36,.21-4.76,.05-7.51,.05q-3.46,1.72-13.38,.91c-3.65,1.56-7.13,3.04-10.91,4.65,1.17,.55,2.11,.99,2.96,1.39,.36-.06,.6-.09,.83-.13,8.18-1.43,16.2-1.52,23.53,3.2,1.4,.9,2.85,1.83,3.99,3.02,2.32,2.4,4.51,4.94,6.62,7.53,1.2,1.48,1.84,3.29,2.59,5.06,2.15,5.09,3.11,10.55,5.07,15.69,.34,.89,.56,1.84,.72,2.78,1.23,7.32,1.73,14.69,1.75,22.49-1.59-1.46-1.36-3.29-2.17-5.03-2.28-.93-4.76-2.12-7.35-2.96-4.2-1.36-8.48-2.51-12.73-3.71-5.79-1.63-11.55-3.34-16.23-7.36-5.32-4.56-8.28-10.27-8.97-17.37-.51-5.27-.68-10.5-.41-15.77,.04-.7-.1-1.4-.17-2.18-3.55-.84-7.02-1.66-11.08-2.62-.4,.16-1.38,.54-2.62,1.03,1.38,2.69,3.32,4.48,5.98,5.78-.34,.68-.58,1.17-.81,1.63-5.59,.21-10.87-.74-16.05-2.27-1.13-.33-2.11-1.11-3.21-1.58-1.04-.46-2.14-.79-3.48-1.27l-1.19,4.31c-1.19,.9-2.29,1.74-3.7,2.81v-6.07c-4.84-.24-9.4,.82-14.23,.39-.43,1.33-.92,2.42-1.14,3.55-.94,5.03-3.18,9.54-5.74,13.86-1.25,2.11-3.08,3.95-4.88,5.66-2.76,2.63-5.72,5.04-8.99,7.89,6.16-1.19,11.92-2.31,17.72-3.43,2.9,.79,5.88,1.59,9.1,2.47l.73,1.34c-.44,.25-.72,.54-1.04,.59-4.85,.69-9.48,2.41-14.42,2.8-3.55,.27-7.15,.57-10.58,1.85-1.3,.48-2.8,.41-4.36,.62v3.09l-1.79,1.59c.09,.73,.19,1.54,.3,2.4l-1.31,1.82c3.85,6.83,10.06,11.43,15.59,16.75l1.45,7.25c-.66,.87-1.41,.83-2.18,.22-.38-.29-.71-.64-1.06-.97-4.12-3.99-8.25-7.97-12.34-12-1.02-1-1.9-2.16-2.85-3.23-.86-.97-1.74-1.94-2.96-3.3-.22,.94-.41,1.43-.44,1.92-.37,5.84,.89,11.41,2.72,16.9,.38,1.14,.83,2.25,1.18,3.39,1.76,5.71,4.96,10.56,8.83,15.03,.74,.86,1.51,1.76,1.58,3.43-4.03-2.55-7.73-4.87-11.63-7.33-6.5-11.15-9.03-23.27-7.51-36.54-.89-.37-1.95-.81-3.16-1.31-1.19,2.42-1.58,4.89-2.07,7.32-1.14,5.65-2.66,11.22-5.08,16.43-3.03,6.52-7.55,11.91-13.73,15.77-.6,.38-1.1,.91-1.68,1.33-.46,.33-.96,.59-1.48,.91q-.57-1.66,1.44-7.6c4.12-3.79,7.95-8.02,10.31-13.37,2.69-6.1,5.43-12.19,5.91-19.42-2.63,.72-5.06,1.18-7.33,2.07-3.89,1.52-7.66,3.35-11.52,4.97-1.83,.77-3.73,1.37-6.33,2.31,.62-1.41,.77-2.22,1.24-2.74,1.59-1.78,3.23-3.54,4.97-5.16,.75-.7,1.77-1.23,2.76-1.55,3.86-1.26,7.76-2.41,11.65-3.61,1.26-.39,2.53-.73,3.76-1.18,2.06-.74,3.4-2.12,3.79-4.36,.3-1.74,.71-3.45,1.17-5.64,.61-.72,1.51-1.81,2.45-2.93-.78-2.1-2.45-3.35-3.9-4.74-1.38-1.32-2.95-2.44-4.62-3.8-2.02,2.47-2.9,5.99-3.73,9.71-3.43,3.15-6.96,6.38-10.48,9.62-1.76,1.62-3.55,3.23-5.23,4.93-4.5,4.56-9.63,8.23-15.28,11.2-.74,.39-1.52,.73-2.33,.92-1.86,.42-3.74,.73-5.78,1.11l-.34-1.32c5.46-2.84,9.97-6.75,14.33-10.82,1.81-1.69,3.33-3.78,4.66-5.88,2.81-4.44,5.55-8.94,8.05-13.57,2.42-4.49,5.67-8.29,8.94-12.11,.22-.26,.42-.55,.68-.89-1.95-2.43-3.86-4.82-5.98-7.48,3.62-.88,5.59,1.91,8.58,2.72,1.92-1.89,3.94-3.87,5.87-5.77,.53-5.16,3.2-8.97,6.48-12.37,2.13-2.2,3.98-4.86,7.41-5.59,.76,2.07-1.14,3.28-1.5,4.94-.35,1.63-.73,3.26-1.15,5.11,1.31,.31,2.38-.13,3.45-.53,5.86-2.18,11.92-3.58,18.11-4.4,1.06-.14,2.14-.16,3.22-.25,.72-.06,1.44-.08,2.15-.19,.46-.08,.89-.29,1.29-.43,1.05-3.9,1.81-7.8,3.17-11.48,1.37-3.69,4.01-6.7,6.99-9.8-7.18-2.78-14.05-5.25-21.66-7.16,.81-.57,1.18-1,1.64-1.13,1.96-.53,3.97-.91,5.92-1.48,1.45-.42,2.8-.32,4.22,.12,4.8,1.47,9.61,2.87,14.59,4.35,.55-.52,1.04-.99,1.67-1.59l2.09-.3c.19-1.08,.38-2.19,.57-3.31,3.41-.29,6.63-.57,9.74-.84,1.06-5.14,.9-10.04,.78-14.94-.1-4.15,.48-6,2.98-9.39l2.72-1.04c.79,3.21,.38,6.42,.4,9.6,.02,3.23-.17,6.46-.21,9.69-.04,3.18,0,6.36,0,9.66,.93-.23,1.87-.4,2.76-.7,4.18-1.39,8.32-.91,12.33,.49,5.2,1.81,10.11,4.28,14.79,7.23,1.63,.18,3.28,.37,5.1,.57,1.34-1.44,2.35-3.12,2.64-5.43-.91-.42-1.73-.85-2.6-1.17-.82-.3-2.02,.27-2.43-1.41,2.72-.63,5.45-1.27,7.77-1.81,1.92-4.21,3.65-7.99,5.22-11.43-.14-2.97-.26-5.57-.39-8.41-1.94,.51-3.18,1.85-4.44,3.03-2.54,2.37-5.01,4.82-6.87,7.81-.65,1.04-1.28,2.39-2.99,2.01,.42-3.43,2.22-6.45,8.72-15.36,3.46-4.75,7.49-8.98,11.74-13.31-1.48-1.14-3.07-1.62-4.72-1.1-4.9,1.56-9.78,3.2-14.62,4.94-1.21,.44-2.22,1.41-3.39,2.02-.67,.36-1.46,.49-2.76,.91,.37-1.28,.37-2.18,.82-2.69,1.02-1.15,2.17-2.26,3.44-3.13,3.26-2.23,6.62-4.32,9.89-6.44,.42-2.17,.84-4.27,1.27-6.5-1.3-.53-2.57-.01-3.84,.08-1.55,.11-3.17,.53-4.63,.22-5.52-1.18-10.96-.17-16.01,.15-1.53,1.23-2.67,2.28-3.94,3.14-2.73,1.83-4.95,4.12-6.9,6.76-1.42,1.92-2.99,3.75-4.66,5.46-2.93,2.99-6.5,4.82-10.66,5.49-1.05,.17-2.05,.56-3.33,.93-1.85-.23-3.99-.49-6.12-.78-.83-.11-1.71-.13-2.47-.43-5.11-2.02-10.4-3.53-15.13-6.54-4.18-2.66-8.53-5.27-13.76-5.47-.42-.02-.83-.25-1.5-.46,.86-1.36,1.89-2.14,3.02-2.72,6.82-3.51,12.02-9.06,17.72-13.98,1.99-1.71,4.07-3.34,6.22-4.85,6.84-4.83,14.38-5.04,21.98-2.56,3.6,1.18,6.81,3.49,9.69,6.07,2.49,2.24,4.93,4.55,7.05,7.36,1.3,.09,2.6,.22,3.91,.26,1.31,.05,2.62,0,4.35,0-2.07-1.86-3.85-3.34-5.49-4.97-2.04-2.02-3.93-4.19-5.95-6.23-.73-.74-1.64-1.29-2.71-2.12-.22-.56-.37-1.7-1.01-2.39-3.51-3.76-6.95-7.63-11.97-9.65l-2.65,.41c-.28-.23-.63-.53-1.35-1.13,2.26-.94,4.01-1.58,5.68-2.39,4.41-2.15,8.68-4.63,13.21-6.5,5.51-2.27,11.13-4.24,17.31-4.26,3.38,0,6.65,.31,9.89,1.05,3.14,.72,6.23,1.61,9.48,2.46,.53-.63,1.21-1.46,1.88-2.26,2.75-1.27,5.09,.96,7.71,.8,.43-4.6-.94-8.74-3.02-12.43,.53-2.22,2.04-3.26,3.47-4.33,1.44-1.07,2.92-2.08,4.41-3.13,.79-3.57-1.11-6.37-2.62-9.15-1.36-2.51-3.25-4.73-5.14-7.4l.38-2.69c.77,.6,1.36,.85,1.63,1.3,1.53,2.49,3.69,4.36,5.8,6.34,2.34,2.2,4.41,4.68,6.76,7.21,4.69-2.71,6.99-8.55,12.45-10.84,.65,.35,1.47,.54,1.83,1.05,1.59,2.24,3.22,4.45,3.71,7.29,.32,1.86,.9,3.67,1.61,5.47,1.35-4.61,1.92-9.25,1.74-14.27,1.13-.08,2.09-.38,2.93-.18,6.46,1.55,12.84,.09,18.58-.31,2.85,.51,5.07,.91,7.17,1.29,2.27-1.96,3.41-4.34,4.6-6.68,1.19-2.35,2.49-4.66,3.49-7.09,.76-1.85,1.13-3.87,1.86-6.49l2.2-1.17c-.29-.34-.03-.16-.05-.04-1.16,6.48-2.35,12.95-3.51,19.42-.12,.67-.14,1.37-.23,2.29,4.85-.05,8.55-2.57,12.68-4.49l1.79,.24c.21,.34,.39,.53,.43,.74,.42,2.14-.48,3.99-1.29,5.86-2.09,4.84-4.23,9.65-5.37,14.84-.18,.81-.25,1.64-.4,2.68,1.53,.35,2.84-.08,4.33-.53,.16-.78,.33-1.58,.48-2.38,.65-3.53,1.08-7.11,1.98-10.57,1.17-4.5,3.75-8.3,7.17-11.39,4-3.6,8.24-6.93,12.33-10.44,1.82-1.56,3.57-3.21,5.2-4.95,.78-.83,1.21-1.98,2.13-3.57,.71-.38,2.03-1.09,3.58-1.91,.57,2.15-1.35,2.92-1.76,4.51,.96,4.14,2.14,8.41,2.92,12.75,1.24,6.9,.12,13.58-2.56,20.01-1.01,2.42-2.14,4.78-3.26,7.28,.27,.11,.64,.4,.83,.31,3.56-1.7,7.09-3.44,10.45-5.08,.88-2.82,1.65-5.46,2.52-8.06,1.4-4.18,4.2-7.51,6.94-10.82,2.29-2.75,4.89-5.24,7.45-7.93l.95,1.03c1.86-.75,3.81-1.54,6.25-2.52,.11,.02,.82,.31,1.47,.22,5.75-.8,11.42,.41,17.12,.62,3.79,.14,7.56-.09,11.24-1.41,2.01-.72,4.28-.74,6.49-1.08-.07,.29-.07,.46-.12,.48-5.75,1.8-8,6.88-10.69,11.49-2.71,4.66-5.46,9.28-8.77,13.56-3.38,4.36-7.92,6.76-13.03,8.35-3.81,1.18-7.75,1.96-11.68,1.55-5.2-.54-10.6-.45-15.42-3.64-2.72,1.36-5.35,2.76-8.04,4-2.5,1.14-5.05,2.19-7.62,3.14-2.81,1.04-4.86,2.96-6.74,5.19-1.81,3.99-.63,8.21-1.31,12.66,7.31-3.28,14.49-5.44,21.94-7.13l1.09,.96c-3.96,1.74-7.9,3.16-11.52,5.16-3.51,1.93-6.69,4.45-10.37,6.96,3.1,1.6,5.81,3,8.72,4.51,10.33-11.95,22.92-16.08,38.38-11.27,5.48-6.38,13.31-7.47,21.75-8.3-2.77-2.29-5.38-3.67-8.27-4.26-1.33-.27-2.49-.66-3.66-1.28-1.38-.73-2.82-1.32-4.21-2.02-1.27-.63-2.64-1.19-3.21-3.06,2.75-.78,5.48-1.18,8.1-1.24,6.78,2.85,12.55,7.34,18.95,9.57l10.44-3.14c1.63-3.58,1.45-7.12,2.09-10.5,.64-3.4,1.43-6.76,2.26-10.62l5.58-6.55,1.3,1.04-4.64,23.26c1.59-1.04,2.98-2.09,3.85-3.66,2.15-3.88,4.3-7.76,6.48-11.62,2.41-4.27,4.86-8.52,7.2-12.63,4.29-2.94,8.41-5.78,13.76-6.78-1.82,1.88-3.34,3.59-5,5.14-3.66,3.43-5.97,7.76-8.31,12.1-2.56,4.74-5.04,9.53-7.7,14.22-1.96,3.46-4.7,6.33-7.59,9.04-.94,.88-1.82,1.84-2.76,2.8l.72,1.7c.38,.09,.64,.23,.84,.18,1.83-.54,3.65-1.1,5.46-1.67,.34-.11,.66-.3,1-.4,10.8-3.07,21.52-4.32,32.31,.32,3.1,1.33,5.78,3.05,8.16,5.66-1.46-.14-2.93-.43-4.39-.39-1.42,.04-2.83,.41-4.24,.63-8.59-4.43-17.45-3.46-26.35-1.49-3.02,.67-6.02,1.47-9.43,2.3,.65,.71,.99,1.33,1.52,1.62,2.72,1.52,5.48,2.96,8.24,4.4,1.7,.88,3.45,1.65,5.12,2.58,.72,.4,1.38,.99,1.9,1.63,1.51,1.86,2.97,3.76,4.35,5.72,.35,.5,.33,1.26,.54,2.2-4.73-2.61-9.06-5.07-13.45-7.42-4.43-2.37-8.91-4.62-12.97-6.72l-7.57,2.8c-2.27,10.45-3.59,21.24-6.58,31.81-1.35-2.98-2.41-8.05-2.21-14.6,.15-4.96,1.13-9.9,1.77-15.04-.58,.15-1.11,.14-1.44,.39-5.51,4.2-11.66,3.84-17.86,2.38-3.83-.9-7.55-2.23-11.71-3.48-2.28,1.68-4.27,4.22-6.4,6.61-1.91,2.15-3.68,4.42-5.52,6.62-2.66,3.17-5.94,5.54-9.56,7.51-4.03,2.19-8.32,3.66-12.78,4.68-.93,.21-1.84,.48-2.86,.75-1.61,3.59-3.21,7.15-4.89,10.87,4.03,1.08,7.29-.8,10.75-1.44q-1.41,1.84-12.36,3.58l-1.77,2.34,5.67,.29-.04-.05Zm-243.27,120.32l-1.3,.16,.15,.43,1.1-.65c1.16-.31,2.32-.61,3.48-.92q-1.98-.08-3.44,.97Zm297.78-214.46l1.04-1.02,2.48-1.32-.94,1.93c3.76-1.69,6.87-4.03,8.16-6.08l-3.77,.88-2.41,2.23,.31-2.24-10.61-.86c-.93,1.82-1.66,3.32-2.47,4.8-.74,1.37-1.49,2.74-2.37,4.03-.94,1.38-2.01,2.68-3.08,3.98-.98,1.19-2.02,2.33-3.03,3.49l.43,.42c2.53-2.04,5.06-4.08,7.88-6.35v2.23c2.07-1.53,3.98-2.94,5.9-4.36l-.22,1.61,3.42-2.41-.73-.95ZM123.13,517.6l1.52-.19c-.38-.18-.63-.4-.75-.34-.27,.13-.48,.39-.71,.6-1.73,.33-3.48,.6-5.19,1.02-1.02,.25-1.75,.93-2.27,2.53,2.81-1.37,5.1-2.5,7.4-3.62Zm270.13-114.38h-3.01v.39l2.59,.41,.36-.87c2.18-.01,4.36-.03,6.55-.04-.64,1.6-2.76,.38-3.63,1.9,2.84,.61,5.53,1.34,8.73,.76-1.68-1.49-3.14-2.56-5.16-2.59-.48-1.35-1.28-2.29-2.87-2.2,.22-1.62-.66-2.38-1.25-2.54-5.4,1.33-10.03,2.46-14.73,3.62,1.5,.3,2.89,.58,4.34,.88,.87-.38,1.73-.76,1.93-.85,1.85-.1,3.02-.1,4.17-.25,1.88-.25,3.75-.61,5.62-.93l-3.63,2.31Zm-59.85-102.3c.14-.28,.28-.56,.09-.17,.06-.43,.02-.11-.03,.22-1.57,1.67-2.74,3.57-3.71,5.95h2.57c1.07-1.99,1.1-3.99,1.09-5.99Zm136.8,51.84c-2.97-1.83-5.93-3.65-9.05-5.58l-.27,1.56c3.08,1.42,5.92,3.35,9.34,4,1.98,2.51,4.99,3.23,8.2,5-.49-.99-.57-1.54-.87-1.71-2.34-1.31-4.56-2.95-7.34-3.27Zm-168.48,96.48c-1.37-.89-2.69-1.89-4.13-2.64-1.89-.99-3.87-1.8-5.83-2.66-.14-.06-.37,.11-.72,.22l.14,1.94c3.53,1.04,7.04,2.08,10.55,3.12,.89,.97,1.96,1.35,3.3,.9l-3.32-.87Zm-38.24-13.62c-.36-.28-.68-.68-1.09-.83-4.11-1.57-8.23-3.1-12.28-4.62l-2.78,.77c.31,.28,.46,.53,.67,.58,5.17,1.36,10.35,2.71,15.52,4.06,.85,.38,1.69,.82,2.57,1.12,.85,.28,1.6,1.28,2.95,.5-1.88-1.17-3.67-1.54-5.57-1.56Zm-91.43-55.56c-1.07,1.62-3.29,2.14-4.29,4.39,4.04-.85,7.67-1.66,11.09-3.33-1.58-.2-3.13-.11-4.66-.24-.76-.07-1.47-.56-2.21-.86,3.65,.2,7.42-.78,10.65,1.11,1.38-.24,2.5-.44,4.02-.7-1.51-1-2.65-1.76-3.78-2.52,1.81-.49,3.3,.49,4.72,1.26,2.01,1.09,3.99,.94,6.63,.67-3.88-3.09-8.07-4.01-12.71-5.27,2.06-.64,3.44-.5,4.8,.08,2.96,1.26,5.96,2.43,8.88,3.79,2.27,1.06,4.43,1.15,6.84,.16-4.07-4.43-9.34-6.04-14.55-7.78-1.35-.45-2.66-1.14-4.34-.36-.82,.73-1.77,1.64-2.79,2.47-1.08,.88-2.24,1.66-2.96,3.13,1.16,.31,2.08,.51,2.96,.82,.88,.31,1.73,.73,2.59,1.1l-7.14-.84c-1.35,1.05-2.55,1.98-3.76,2.92Zm100.74,118.87c.44-2.15-.91-3.5-2.2-4.87l1.6-.33c-.41-1.61-.78-3.04-1.07-4.18-1.27-1.12-3.07-1.1-3.25-2.89,.83,.24,1.66,.49,2.49,.74-.7-3.05-.73-3.02-2.76-4.59-.71-.55-1.28-1.29-1.92-1.94,.63,.12,1.25,.24,1.96,.37-.12-3.03-1.68-4.86-4.12-6.09l.95-.53c-1.88-1.88-3.63-3.65-5.33-5.35-3.29-.89-6.48-1.92-9.74-2.59-3.28-.68-6.57-1.81-10.78-.96,1.34,.66,2.01,1.13,2.74,1.33,2.88,.76,5.78,1.46,8.69,2.12,4.92,1.11,9.61,2.72,13.54,6.04-1.35-.43-2.83-.63-4.02-1.32-4.61-2.7-9.75-3.26-14.88-4.06,.48,.57,1.01,1.14,1.63,1.3,5.83,1.48,11.05,4.35,16.3,7.11,1.19,.62,2.1,1.79,3.13,2.71-.24,0-.52,.09-.7-.01-3.06-1.61-6.11-3.25-9.17-4.86-1.78-.93-3.6-1.78-6.46-2.04,1.06,.8,1.41,1.12,1.81,1.35,2.39,1.35,4.82,2.63,7.18,4.03,2.42,1.43,4.94,2.77,6.63,5.15-1.55,0-2.54-1.14-3.75-1.84-1.81-1.05-3.64-2.07-6.16-3.49,1.3,2.4,2.27,3.9,3.85,5.04,3.19,2.29,6.32,4.67,9.4,7.12,.89,.71,1.48,1.79,2.21,2.69-2.63-1.84-5.26-3.69-7.91-5.51-.15-.1-.4-.04-.71-.05,.62,.93,1.2,1.8,1.7,2.57,1.47,.75,3.1,1.06,3.53,2.85l-1.07,.58c2.68,4.6,5.27,9.06,8,13.75-.11-3.37,.27-6.48-1.35-9.31Zm-97.82-112.3c.84-.8,1.68-1.6,2.89-2.76-3.11,.75-5.71,1.23-8.21,2.03-2.53,.81-5.18,.93-7.77,1.96,2.45,.71,4.9,1.42,7.24,2.09,1.29-.52,2.49-1.01,3.68-1.49-.52,.48-1.07,.94-1.54,1.46-.2,.22-.22,.61-.36,1.04,.86,.47,1.67,.91,2.61,1.43,.87-.75,1.62-1.51,2.47-2.11,.83-.59,1.77-1.04,2.66-1.55-1.2,1.5-2.41,3-3.79,4.72l3.39,1.86,2.44-.33c-.05,.43-.11,.86-.17,1.37,.98,.4,1.81,.75,2.47,1.03,1.11-.28,1.98-.5,2.86-.72-.03,.57-.06,1.14-.09,1.86l4.1,1.15c.71-1.03,1.23-1.96,1.9-2.75,1.89-2.23,3.45-4.85,6.49-5.82-.99,1.18-2.02,2.32-2.95,3.55-1.18,1.56-3.11,2.64-3.28,5.03,1.63,.77,3.21,.72,5.08,.01,1.58-3.58,3.85-6.89,6.51-9.98,2.17-2.52,4.11-5.25,6.13-7.9,.11-.15,.04-.43,.05-.78h-2.36c-1.64,1.89-3.16,3.71-4.76,5.46-1.43,1.57-2.95,3.07-4.43,4.61,.45-.95,.76-2.01,1.37-2.84,1.47-2.01,3.1-3.91,4.62-5.89,.18-.23,.13-.64,.21-1.12h-2.43c-1.83,.97-3.27,1.73-4.71,2.5,.15-.65,.3-1.31,.5-2.16l-3.98,.4c-4.43,4.37-8.84,8.72-13.25,13.07,.45-.93,.78-1.96,1.39-2.78,.7-.95,1.7-1.66,2.45-2.58,1.95-2.35,4.42-4.27,6.1-7.2h-2.79c-2.03,1.75-3.65,3.7-6.27,4.12,.88-1.11,1.77-2.22,2.9-3.65-1.56,.18-2.72,.31-3.89,.45l.16,.44c-1.89,.92-3.78,1.84-5.68,2.76Zm239.11-35.32c3.31,2.35,7.22,3.01,11.05,3.75,5.99,1.16,11.87,1.27,17.02-2.85,.35-.28,.82-.4,1.24-.6l.15-1.42c-3.26,2.03-6.67,2.84-10.21,3.11-4.62,.35-9.23,.89-13.77-.88-1.72-.67-3.56-1.46-5.55-1.04l-.15-1.1c-2.45-1.26-4.93-2.49-7.8-2.5-1.14-.98-2.52-1.2-3.96-1.21-9.88-.11-18.05,3.69-24.71,10.89-.32,.35-.44,.89-.65,1.34l.57,.51c2.72-2.2,4.96-5.04,8.35-6.33,3.33-1.27,6.52-2.92,9.88-4.06,3.39-1.16,6.97-1.45,10.57-1.19,2.66,1.2,5.32,2.4,7.97,3.6Zm-195.38-1.88l.49-.54c2.28,1.29,4.59,2.53,6.83,3.88,1.02,.62,2.01,.81,3.87,.6-3.96-2.82-6.62-6.16-10.69-7.77-1.7,.93-3.37,1.83-5.03,2.76-.17,.1-.23,.38-.47,.79,2.42,1.68,4.92,3.14,8.48,3.44-1.4-1.27-2.45-2.21-3.49-3.16Zm-113.51,168.21c-1.01,.11-1.54,.77-1.69,1.83l1.67-1.85c1.49-1.15,3.07-2.21,4.46-3.47,3.71-3.37,7.4-6.76,10.96-10.29,1.77-1.75,3.24-3.8,4.92-5.82,.02,.02-.4-.32-.87-.68-3.18,1.35-5.48,3.52-7.45,6.14-2.15,2.87-4.29,5.74-6.59,8.49-1.67,1.99-3.6,3.77-5.42,5.65Zm267.09-210.24c.37-.57,.65-1.22,1.12-1.68,1.77-1.76,3.59-3.45,5.32-5.1l-.12-1.98c-1.59,.03-1.95,2.27-3.82,1.7l3.34-4c-.25-1.23-.51-2.46-.83-4.02-3.27,5.04-7.8,13.99-8.21,16.2l3.25-1.17c-.31,.45-.52,1.03-.94,1.34-1.31,.98-2.7,1.85-4.15,2.82-.4,1.12-.81,2.26-1.27,3.57,2.07,.26,2.94-1.43,4.38-1.78,.02,1.3-.97,1.83-1.89,2.36-1.43,.83-2.88,1.63-4.37,2.47-.3,1.16-.58,2.24-.99,3.83,5.14-2.95,10.16-4.9,14.24-8.21q1-2.69,.65-4.59c-1.12,.77-2.18,1.52-3.25,2.24-1.38,.92-2.7,2-4.49,1.99,.99-.82,1.95-1.68,2.96-2.46,1.95-1.51,3.94-2.97,5.75-4.34,.22-1.47,.67-2.61-.43-3.73-1.25,1.06-2.37,2.1-3.59,3.01-.81,.61-1.77,1.02-2.66,1.53Zm-149.04,49.67c-2.08,.96-4.15,1.91-6.43,2.96l2.84,3.08c2.67-1.12,5.14-2.27,7.69-3.2,2.44-.89,4.96-1.55,7.84-2.44-3.37-1.25-6.24-1.54-9.21-.54-.87,.29-1.88,.15-2.82,.2,.84-.54,1.69-1.09,2.99-1.93-4.57-.43-8.45,.64-12.48,1.57,.59,1.37,1.47,1.84,2.63,1.66,1.05-.16,2.08-.5,3.12-.71,1.27-.25,2.54-.45,3.82-.67Zm151.18,46.77c.55,.16,1.14,.23,1.64,.49,4.39,2.25,8.13,5.35,11.45,8.71,1.59,.24,2.78-.07,3.94-1.26-3.34-2.6-6.6-5.15-9.84-7.68l-7.23-1.55,.11,1.35c-1.05-.43-2.15-.76-3.13-1.32-1.53-.87-3.05-1.6-4.89-1.24,.29,.65,.56,1.24,.82,1.84-1.27,.19-1.81-.92-2.63-1.51-.92-.66-1.82-1.25-3.35-.83,1.53,1.67,3.71,2.3,4.18,4.45-2.1-1.44-4.21-2.87-6.33-4.32l-2.34,1.8c.41,.83,.71,1.46,1.02,2.09-1.05-.7-2.02-1.6-3.89-1.66,3.04,4.62,6.21,8.4,11.14,10.43v-1.89c1.41,1.02,2.81,2.04,4.56,3.3,.73,.07,1.87,.17,3.62,.33-1.33-1.8-2.37-3.08-3.26-4.45-.56-.85-.89-1.85-1.33-2.78,.55,.39,1.2,.68,1.62,1.18,1.63,1.91,3.18,3.88,4.68,5.72,1.78,.48,3.34,.83,4.99-.37-1.82-2.85-4.34-4.64-6.78-6.56-1.36-1.07-3.19-1.69-3.79-3.58,.64,.24,1.34,.38,1.89,.75,3.96,2.66,7.77,5.5,10.96,9.38l3.74-.91c-2.87-3.1-5.44-5.69-8.69-7.56-1.07-.62-2.54-.85-2.87-2.38Zm-128.83-29.49c.63-.5,1.2-1.12,1.9-1.47,1.9-.97,3.85-1.82,5.72-2.69,.04-.61,.11-.97,.06-1.3-.03-.19-.27-.35-.52-.65-6.96,1.69-13.57,4.49-21,7.62,2.39,.73,3.94,1.21,5.51,1.7,1.88-.82,3.61-1.63,5.38-2.34,.98-.39,2.02-.62,3.04-.92-1.53,.87-3.07,1.71-4.58,2.61-.52,.31-.93,.79-1.99,1.71,2.58,0,4.37,.1,6.14-.03,1.87-.14,3.72-.51,5.53-.77,.9-1.77,1.71-3.44,1.01-5.47-2.16,.7-4.18,1.36-6.2,2.01Zm159.04-55.47c-1.77-.1-3.54-.16-5.31-.32-.97-.08-1.75,.13-2.47,.84,.36,.27,.53,.51,.73,.54,4.45,.84,8.9,1.67,13.35,2.47,.93,.17,1.89,.25,2.84,.29,1.21,.05,2.3-.22,3.11-1.39-3.73-.59-7.26-1.12-10.78-1.72-.55-.09-1.05-.5-1.58-.77,1.77,.14,3.54,.25,5.31,.44,2.36,.25,4.71,.61,7.07,.84,2.81,.27,4.91-.97,6.8-3.34-1.65,0-2.96,.07-4.26-.01-4.86-.29-9.71-.7-14.58-.92-1.44-.07-2.9,.32-3.82,2.11,.93,.11,1.53,.1,2.09,.26,.52,.14,.99,.45,1.48,.69Zm-153.97,35.72c1.22,.67,2.44,1.34,3.73,2.04-.3-4.87-3.59-8.04-7-10.91-2.32-1.95-4.52-4.63-8.62-4.15,1.01,1.2,1.84,2.05,2.5,3.01,.44,.65,.64,1.47,.95,2.22-1.88-1.79-3.76-3.59-5.56-5.3h-4.09c-.31,.56-.48,.88-.65,1.19-1.81-.69-3.54-.69-5.41,.59,.89,.72,1.6,1.32,2.33,1.89,1.59,1.24,3.19,2.47,4.8,3.67,.8,.6,1.4,1.28,1.4,2.33-1.05-.78-2.1-1.57-3.16-2.35-2.4-1.77-4.8-3.53-7.24-5.33l-3.51,1.43c3.7,2.9,7.1,5.52,10.46,8.2,2.26,1.8,4.93,2.33,7.82,2.97-1.63-1.83-3.06-3.42-4.48-5.02,.94,.44,1.99,.74,2.79,1.36,1.78,1.36,3.49,2.83,5.13,4.37,1.5,1.4,3.16,1.76,5.58,1.39-1.01-1.17-1.78-2.03-2.51-2.93-.86-1.07-1.68-2.18-2.52-3.27,.98,.6,2.11,1.04,2.9,1.82,1.42,1.42,2.65,3.04,3.94,4.58,.99,1.18,2.1,2.06,4.22,1.69-1.4-2.03-2.6-3.76-3.79-5.49Zm153.37-42.93c-.27,.83-.54,1.66-1.01,3.13,1.33-.84,2.21-1.23,2.87-1.84,1.66-1.55,3.27-3.15,4.82-4.81,3.52-3.79,6.49-7.96,8.39-12.82,.07-.18-.05-.43-.13-.98l-2.86-.34c-.45,.77-.74,1.28-1.05,1.79-2.73,4.49-5.44,9-8.23,13.46-.67,1.07-1.3,2.34-2.84,2.48-.3-1.16,.65-1.72,1.22-2.44,3.47-4.44,6.3-9.26,8.86-14.49-1.88-.61-3.4-.25-5.16,.93-1.32,3.02-2.66,6.35-4.21,9.58-1.57,3.27-3.33,6.45-5,9.67,1.04-.58,1.8-1.44,2.65-2.2,.5-.45,1.13-.74,1.7-1.11Zm-170.64,157.78h-1.45v17.02c1.54-4.37,1.36-8.42,1.36-12.45,0-1.54,.02-3.09,.03-4.63,.3,.88,.85,1.76,.85,2.64,.02,4.65,.08,9.31-.26,13.95-.17,2.3,0,4.54,.5,6.68,.47,2.04,1.65,3.96,3.71,5.69-.22-1.43-.43-2.35-.5-3.28-.33-4.75-.59-9.51-.93-14.26-.17-2.49-.37-4.98-.7-7.45-.2-1.5-.68-2.96-1.11-4.72-.75,.41-1.13,.62-1.51,.83Zm-41.84-18.8c1.35-1.04,2.68-2.1,1.95-4.56-1.51,1.48-1.91,2.95-1.88,4.62-.71,1.09-1.44,2.17-2.12,3.27-2.02,3.27-4.28,6.29-7.28,8.81-3.19,2.67-6.98,4.17-10.6,5.96-4.31,2.13-8.64,4.23-12.3,7.35-4.4,3.76-8.21,8.06-9.74,13.89-.46,1.76-.99,3.42-2.48,4.66-.46,.38-.5,1.25-.74,1.9,.44,.3,.72,.49,1.14,.78,.67-1.02,1.41-1.95,1.92-2.99,.47-.96,.74-2.02,1-3.07,1.35-5.29,4.49-9.54,8.27-13.2,3.54-3.44,8.06-5.67,12.68-7.3,7.41-2.62,13.25-7.13,17.68-13.48,1.35-1.93,2.46-4.13,2.49-6.64Zm136.7-46.74c-.98-2.79-3.16-4.44-4.72-6.53-1.22-1.62-2.85-2.45-4.85-2.77-3.17-.51-6.36-1.02-9.37-2.93-.58,1.77-1.14,3.33-1.61,4.92-.47,1.61-.86,3.23-2.09,4.48-2.99,.37-5.18-.95-6.93-3.08-1.59-1.94-3.06-3.99-4.58-5.98-.31-.41-.66-.79-1.36-1.61-.74,4.14,.51,8.06-2.07,11.56-3.33-.15-6.76-.3-10.42-.47-1.21,1.06-2.68,2.2-3.86,3.82,1.42,1.14,2.63,2.1,3.83,3.06,5.28,1.98,10.43,4.21,15.5,6.63,1.69,.81,3.51,1.84,4.64,3.27,2.21,2.8,4,5.96,4.94,9.46,.62,2.31,1.01,4.68,1.54,7.18-.95,2.24-.08,4.39,.74,6.53,1.42-.58,2.74-.89,3.79-1.61,4.15-2.83,8.5-5.47,12.24-8.78,4.29-3.8,8.84-6.82,14.28-8.72,4.49-1.57,8.9-3.47,12.81-6.46-.05-2.91-1.59-5.02-3.42-6.91-2.15-2.23-4.42-4.35-6.68-6.47-.94-.88-1.99-1.65-3.13-2.6-1.03,1.04-1.9,1.84-2.67,2.72-1.02,1.18-1.88,2.48-2.93,3.63-1.42,1.55-2.84,1.52-4.66-.02,.31-.69,.64-1.41,1.05-2.33Zm-72.3-51.41c.92,5.22,1.06,10.2-.31,15.14-1.08,3.9-1.35,8.01-3.34,11.69-.83,1.54-1.1,3.39-1.58,5.11-.08,.3,.09,.67,.16,1.15,.7,.1,1.38,.19,2.07,.28,2.52,2.81,6.02,3.67,9.35,4.75,.58-.28,1.09-.52,1.69-.8,.14,.63,.25,1.16,.41,1.85,2.6,1.32,5.19,2.85,7.94,3.99,3.73,1.55,7.55,2.93,11.4,4.14,2.02,.63,4.22,.83,6.17-.53,.34-3.3,.67-6.5,.99-9.7,.16-1.64-.4-3.03-1.41-4.32-1.55-1.98-3.1-3.96-4.52-6.03-1.7-2.48-3.53-4.82-6.27-6.35-.44-6.41,3.1-11.66,5-17.77-5.39,1.26-9.74,4.04-14.53,5.7-.41-.51-.78-.84-.98-1.26-1.19-2.38-1.9-4.85-1.83-7.59,.06-2.35,.43-4.77-.41-7.12-2.55-1.25-5.01-2.35-7.72-1.93-2.62,3.01-.85,6.76-2.28,9.6Zm83.89-23.62c1.11-4.32,2.06-8.14,3.07-11.94,.99-3.74,3.12-7.11,4.1-11.54-4.38,2.35-9.02,2.59-12.3,5.75-4.28,.45-8.45,.77-12.58,1.35-3.48,.49-6.46-1.36-9.75-1.79-3.14-.42-6.19-1.54-9.29-2.28-.67-.16-1.41-.02-2.33-.02-.15,1.22-.27,2.39-.45,3.56-.38,2.6-.52,5.26-1.25,7.76-.99,3.42-2.3,6.78-3.73,10.05-1.98,4.55-2.27,9.23-1.85,14.07,.13,1.54,.88,2.67,1.75,3.84,1,1.33,1.85,2.77,2.79,4.14,.36,.52,.8,.99,1.17,1.46,1.78-2.23,3.37-4.22,4.93-6.17-1.85-2.4-4.76-1.76-7.36-2.5,.33-.84,.41-1.68,.87-2.08,3.4-3,5.53-6.89,7.63-10.79,1.77-3.29,4.46-5.53,7.4-6.98,2.52,.75,4.67,1.47,6.86,2.03,3.56,.9,6.91,2.03,8.6,5.73,.13,.28,.54,.43,1.04,.81l10.67-4.42Zm-74.76-1.21c.76,3.29,1.48,6.17,2.09,9.08,.39,1.87,.53,3.79,.95,5.65,.58,2.59,.94,5.15,.62,7.83-.16,1.4,0,2.88,.24,4.29,.21,1.27,.64,2.55,1.87,2.99,4.64-1.87,9.05-3.64,13.47-5.43-.05-4.69-.46-9.37,4.51-11.83l1.82,1.04c.09-.42,.23-.76,.22-1.09-.1-4.17,1.16-8,2.75-11.78,.59-1.41,.95-2.92,1.27-3.89-1.11-3.86-2.06-7.18-3.2-11.18-.69-1.06-1.79-2.74-2.82-4.33-1.54,.01-2.45,.78-3.26,1.67-2.89,3.19-5.76,6.41-8.44,9.4-4.41,2.27-8.5,4.49-12.08,7.59Zm90.86,62.25c-2.3,1.84-4.24,3.53-6.92,4.24-2.29,.61-4.45,1.73-6.66,2.62-.78,.31-1.64,.55-1.52,1.67,.14,.2,.24,.52,.41,.56,3.47,.84,6.95,1.66,10.59,2.52,3.06-1.07,6.21-2.17,9.28-3.24,3.87-2.93,4.12-7.28,4.25-11.41,.2-6.27,1.94-11.73,6.51-16.13,1.73-1.66,3.52-3.25,5.26-4.9,.92-.87,2.02-1.63,2.23-2.87-4.86-2.28-9.53-4.42-14.15-6.64-1.49-.72-2.95-.87-4.74-.3-.51,.9-1.41,1.88-1.6,2.97-.54,3.05-2.15,5.54-3.58,8.17-1.73,3.16-4.08,5.63-7.33,7.16-3.09,1.46-6.24,2.78-9.46,4.2,3.08,0,6.07,.06,9.05-.02,1.53-.04,2.93,.31,4,1.31,2.96,2.75,3.98,6.33,4.38,10.1Zm-53.63-8.71c-1.97-1.33-3.87-3.98-4.35-6.51-.91-4.85-1.19-9.73-.55-14.63,.18-1.4,.46-2.79,.62-3.81-1.57-2.46-2.32-4.9-4.37-6.57-1.97-1.61-3-4.23-5.57-5.61-1.81,3.29-1.41,6.58-.89,9.59-2.29,5.89-5.73,11.07-6.23,16.87,1.61,1.6,3.07,2.7,4.09,4.12,3.79,5.22,7.46,10.53,11.14,15.83,1.36,1.96,2.59,4.02,4.01,5.93,.98,1.32,2.13,2.62,4.23,2.05,.9-2.96,1.8-5.88,2.7-8.82-1.45-2.53-2.94-5.11-4.85-8.44Zm2.98,.78c1.03,1.99,1.81,4.12,3.96,5.79,.85-.13,1.88-.3,2.92-.43,3.8-.45,7.59-.86,11.14,.96,.45,.71,.73,1.41,1.23,1.89,1.98,1.89,3,4.25,3.77,6.82,.61,2.02,1.51,3.95,2.44,6.29,.94-1.07,1.54-1.79,2.17-2.48,2.01-2.23,4.04-4.45,6.92-5.57,2.89-1.12,5.81-2.2,8.74-3.23,1.84-.65,3.48-1.51,4.57-3.26-.6-3.1-1.31-6.09-4.26-8.23-1.62,0-3.43-.25-5.14,.04-6.42,1.09-12.84,.05-19.25,.13-3.4,.04-6.86-.88-10.21-1.71-3.68-.91-6.55,0-8.99,2.99Zm-47.39,48.5c5.18,2.57,10.23,4.58,15.94,4.91,1.29-2.06,3.08-3.24,5.44-2.89,.26-7.07,.51-13.86,.76-20.52-2.91-3.29-3.15-3.47-5.88-4.38-8.27,5.51-13.69,12.96-16.27,22.88Zm-32.95,30.92c.14-1.24,.85-1.51,1.83-1.88,3.5-1.34,7.15-2.52,10.29-4.48,6.93-4.31,12.47-10.05,15.76-17.7,.31-.72,.54-1.47,.88-2.43-1.77-.47-3.23-.86-4.86-1.29-.94,2.71-2.08,5.04-3.98,6.93-.85,.84-1.52,1.84-2.32,2.74-2.88,3.24-6,6.21-10,8.05-3.68,1.7-7.29,3.62-11.12,4.89-4.17,1.38-8.27,3.13-12.78,3.46-3.31,.24-6.58,.97-10.13,1.52-.15,1.73-.3,3.48-.43,5.02,6.58-.06,12.66-1.64,18.73-3.23l1.17-1.24c2.55,.76,4.79,1.57,7.09,2.07,2.35,.52,4.61,1.58,7.67,1.72-2.39-2.66-5.72-2.32-7.81-4.14Zm85.35-93.49c.48-.86,.78-1.21,.88-1.62,.36-1.39,.66-2.79,.97-4.18,1.72-7.72,3.2-15.47,3.01-23.44-.03-1.19,.12-2.4,.29-3.58,.16-1.08,.51-2.1,1.9-2.39,1.16,1.71-.09,3.69,.43,5.36,2.72-1.58,5.32-3.08,7.91-4.58-.81-2.58-2.83-3.61-5.1-4.17-2.77-.69-5.6-1.17-8.55-1.78-2.68,1.81-4.8,4.15-6.39,7.06-1.2,2.19-2.63,4.27-3.98,6.38-.35,.55-.78,1.05-1.21,1.63,2.07,.73,3.83,1.35,5.22,1.84,1.48,1.89,1.71,3.69,1.82,5.48,.16,2.75,.24,5.51,.25,8.26,.02,3.29,1.19,6.22,2.54,9.74Zm48.04-14.7c1.81-2.96,2.68-5.9,2.88-9.04,.2-3.18,.38-6.35,.56-9.54-2.92-1.52-5.86-3.07-8.83-4.57-.96-.48-1.95-.97-2.98-1.23-2.95-.74-5.67-.4-7.97,2.35,2.62,5.21,5.52,10.48,3.73,16.66,.69,.95,1.31,1.8,1.95,2.69,3.8-.36,7,1.46,10.66,2.68Zm-42.27,1.08c1.15-.49,1.99-.85,2.94-1.26,.89-1.74,1.92-3.5,2.71-5.37,.5-1.18,.65-2.52,1-3.98l1.95-.14c.33,2.18,.61,4.13,.92,6.2,3.16-.99,5.94-2.04,8.8-2.72,3.06-.73,6.02,.92,9.06,.95,1.12-5.21-.62-11.15-4.65-16.02-1.73,.69-3.46,1.51-5.26,2.08-1.91,.6-4.03,.61-5.42,2.21-4.93-.31-10.14,3.7-10.94,8.51-.51,3.05-.73,6.15-1.11,9.54Zm62.44,17.85c2.05-.55,3.18-.9,4.33-1.16,5.23-1.2,9.3-4.04,12.57-8.29,2.84-3.68,5.95-7.15,8.92-10.73,.42-.51,.78-1.07,1.33-1.81-3.36-.61-6.28-.01-9.18,.58-4.64,.95-8.75,3.11-12.5,5.93-1.12,.84-2.36,1.71-2.27,3.32l2.2,2.24c-1.76,3.22-3.4,6.24-5.4,9.92Zm-223.23,128.06c1.78-1.55,3.43-2.9,4.98-4.34,3.15-2.94,6.26-5.92,9.36-8.91,.42-.41,.78-.92,1.04-1.44,1.55-3.1,3.15-6.17,4.55-9.34,.63-1.43,1.35-2.97,.81-4.78-1.52,1.22-1.44,1.25-1.92,2.54-.86,2.34-1.6,4.77-2.8,6.94-2.55,4.63-5.8,8.82-9.72,12.36-2.28,2.07-4.98,3.67-7.51,5.46-.1,.07-.4-.12-.79-.25,.02-.5,.05-1.05,.07-1.49,.44-.35,.71-.58,1-.79,6.78-4.92,12.31-10.96,16.24-18.4,.45-.84,.89-1.71,1.16-2.61,.17-.58,.03-1.25,.03-2.36-2.45,1.38-4.45,2.68-6.6,3.68-6.03,2.78-9.56,7.77-12.16,13.56-1.07,2.39-1.81,4.93-2.68,7.41-.05,.15,.13,.39,.21,.6l1.95-.1,.2,1.46c1,.31,1.9,.59,2.57,.79Zm18.13-35.09c.03-.35,.1-.7,.06-1.05-.06-.57-.18-1.14-.3-1.85-.52,0-.98-.02-1.44,0-7.68,.42-15.11,1.91-22.43,4.36-5.32,1.78-10.11,4.33-14.21,8.06-1.89,1.72-4.11,3.21-5.59,5.7,1.57,1.12,2.99,2.12,4.59,3.26,.88-.93,1.82-1.7,2.46-2.67,1.64-2.49,4.03-4.06,6.5-5.51,1.44-.84,3.06-1.38,4.54-2.16,5.57-2.94,11.57-4.47,17.75-5.33,2.9-.4,5.59-1.17,8.06-2.83Zm-11.78,6.2c-10.46,1.65-19.56,5.68-26.53,14.22,3.19,2.86,6.26,5.62,9.33,8.37,1.77-1.02,2.67-2.41,3.12-4.26,.33-1.37,.92-2.7,1.55-3.97,2.55-5.12,6.33-9.21,10.77-12.75,.62-.49,1.17-1.08,1.76-1.62Zm37.2-12.65c8.08-.7,15.66-1.65,23.21-5.08-4.48-3.04-8.57-5.83-12.36-8.41-2.76,.96-5.09,1.76-7.38,2.56-.62-.39-1.17-.75-1.89-1.21-1.97,3.88-1.53,7.82-1.58,12.14Zm110.96-82.92c-1.15-4.3-2.48-8.4-3.31-12.59-.82-4.16-1.13-8.42-1.68-12.76-2.83,2.16-4.54,4.67-5.04,7.73-.83,5.11-.94,10.26,.29,15.32,.62,2.54,1.93,4.82,4.16,6.61,1.8-1.39,3.48-2.69,5.57-4.31Zm1.5,.28c4.1,1.43,8.26,1.8,12.37,2.25,3.18,.35,6.43,.16,9.65,.2,.08,0,.19-.12,.24-.2,.06-.1,.07-.22,.1-.33-3.86-3.67-9.49-3.71-13.48-6.5-2.17-2.35-2.05-5-1.98-7.64,.04-1.31,.07-2.63,.05-3.94-.02-1.26-.1-2.52-.16-4.23l-2.85,2.08c-1.38,4.25-2.63,8.09-3.93,12.09v6.23Zm31.91-8.86c-.62,1.36-1.43,2.83-1.99,4.4-.56,1.59-2.19,2.69-2.38,4.94,4.69-1.77,8.63-3.92,12.12-6.83,.71-.59,1.15-1.5,1.69-2.29,2.4-3.5,3.4-7.53,4.54-11.79-3.17-1.89-6.31-3.6-10.17-2.37-.13,1.96-.41,3.72-.31,5.45,.11,1.87,.58,3.72,.93,5.78-1.36,.83-2.66,1.63-4.43,2.71Zm-70.39,31.18c-2.4,2.31-4.85,4.42-7.01,6.81-2.48,2.75-4.8,5.66-6.99,8.65-1.4,1.91-2.54,4.04-3.6,6.17-1.27,2.53-1.85,5.39-3.92,7.91l3.92,1.66c3.38-9.62,8.4-17.72,17.29-22.36,.37-1.39,.65-2.41,.82-3.06,1.21-1.8,3.42-1.82,4.43-3.77-1.72-.69-3.25-1.31-4.95-2Zm-19,108.78c-.13-1.75-.38-3.38-.33-5.01,.12-4.44,.04-8.87-1.01-13.19-.99-4.05-2.25-8.04-3.51-12.02-.69-2.18-2.51-3.14-4.77-4.01,.08,.87,.07,1.34,.18,1.79,1.11,4.52,2.32,9.02,3.31,13.57,.48,2.2,.6,4.48,.79,6.74,.31,3.66,.55,7.34,.81,10.84,1.55,.92,2.8,1.48,4.54,1.3Zm188.76-161.78c-9.19-1.74-19.53,.06-23.94,4.15,.25,.23,.45,.59,.74,.68,6.04,1.92,12.15,2.37,18.33,.79,2.38-.61,4.37-1.82,5.67-4.17l-.79-1.45Zm-252.44,94.35c-7.32,5.2-11.52,13.12-10.26,18.97,1.3,.4,2.5-.2,3.8-.41,3.88-4.36,6.87-9.16,8.47-14.77-.68-1.29-1.28-2.41-2.01-3.79Zm51.56,30.39c-2.23,1.25-1.94,2.75-1.65,4.14,.52,2.46,1.19,4.88,1.78,7.32,1.44,5.95,2.37,11.96,2.35,18.1,0,1.08,.05,2.16,.14,3.23,.03,.34,.25,.66,.49,1.28,.76,.24,1.68,.52,2.66,.83,.98-10.82-1.81-20.76-4.23-30.75-.33-1.36-.98-2.63-1.55-4.15Zm12.79-106.41c-1.34,0-2.44-.2-3.44,.04-3.59,.82-7.29,1.12-10.72,2.66-4.01,1.8-8.12,3.39-12.18,5.1-.16,.07-.21,.37-.45,.81,.93,.78,1.9,1.6,3.03,2.55,1.67-.57,3.25-1.03,4.77-1.64,5.98-2.37,11.81-5.12,18.29-6.73,.2-.79,.42-1.65,.7-2.78Zm-11.35,139.12c0-2.06,.12-3.72-.02-5.37-.64-7.5-1.99-14.88-3.87-22.17-.36-1.38-.58-2.8-1-4.17-.12-.38-.73-.61-1.32-1.07,.35,5.37,.6,10.35,1.01,15.32,.43,5.09,1.01,10.16,1.51,15.05,.88,.76,1.49,1.33,2.15,1.84,.26,.2,.65,.25,1.55,.58Zm100.95-151.92c-6.98-2.94-13-1.3-18.97,1.84,.04,.7,.04,1.29,.13,1.86,.03,.17,.32,.31,.49,.46,9.56-1.2,11.01-1.22,13.75-.12,.85,1.59,.53,3.71,1.95,5.33,.92-.37,1.78-.72,2.66-1.08v-8.29Zm-94.48,96.21c2.35,2.38,5.09,2.95,7.98,2.82,4.81-.22,9.41-1.5,13.96-2.99,.55-.18,1.03-.56,1.71-.95-.5-.75-.94-1.39-1.22-1.82-3.63,.38-6.94,.9-10.26,1.01-3.32,.11-6.65-.18-10.41-.31-.41,.53-1.04,1.33-1.75,2.24Zm-20.12-77.08c6.77-3.41,13.81-6.49,22.35-7.48-2.87-1.75-5.12-2.07-7.52-1.55-2.45,.53-4.88,1.13-7.33,1.63-4.38,.9-8.36,2.7-12.08,5.14-.18,.12-.26,.38-.46,.68l1.17,1.58h3.88Zm178.12-18.89c-1.07,1.12-1.96,1.92-2.69,2.84-3.34,4.22-6.61,8.49-9.96,12.7-.66,.83-1.48,1.56-2.33,2.21-2.99,2.28-6.34,3.81-9.98,4.71-1.85,.45-3.69,.91-5.63,1.39l-.8,1.73c3.43-.26,6.35-1.34,9.18-2.51,5.57-2.31,10.7-5.26,14.42-10.28,1.7-2.29,3.82-4.27,5.74-6.39,1.52-1.67,3.03-3.35,4.72-5.22l-2.67-1.18Zm92.9-9.13l.1-.75c-4.48-1.95-9.1-3.49-13.98-3.97-2.48-.25-5.05-.35-7.51-.03-6.54,.85-12.75,3.08-19.04,4.93-.16,.05-.26,.33-.47,.62l.55,1.1c.84-.28,1.49-.56,2.17-.73,6.02-1.51,12-2.99,18.22-3.72,5.56-.65,10.65,.27,15.8,1.92,1.32,.42,2.77,.42,4.16,.62Zm-242.24,166.41c0-1.69-.02-3.22,0-4.75,.11-7.13-1.95-13.9-3.56-20.74-.5-2.12-1.66-3.23-3.69-4.23,2.69,8.54,4.34,17.16,4,26.08-.04,1.01,.32,2.04,.51,3.14l2.75,.5Zm6.05,1.92c-.31-2.4-.5-4.39-.83-6.37-.82-4.94-1.53-9.9-3.6-14.55-.56-1.25-1.09-2.33-2.72-3.06-.03,3.98,1.67,7.39,1.88,11.04,.22,3.79,.65,7.57,.99,11.34,1.47,.55,2.66,.99,4.29,1.59Zm-46.71-66.95c3.79,2.76,6.94,5.05,10.15,7.38,2.71-1.31,5.6-2.13,7.83-4.64-.98-.91-1.83-1.69-2.38-2.2-5.21-.18-9.97-.34-15.59-.54Zm-1.54-62.25h-3.63c-3.39,4.03-6.79,7.89-9.96,11.93-1.38,1.77-2.3,3.9-3.4,5.88-.07,.12,.12,.39,.25,.73l2.07-.27c3.36-2.54,4.79-6.2,7.22-9.09,2.52-2.99,4.93-6.08,7.44-9.19Zm-89.01,113.86c1.03-2.12,2.11-4.35,3.31-6.81-1.2-.99-2.34-1.93-3.43-2.84-4.29,3.81-9.36,11.24-10.51,15.25,3.03-2.69,5.55-6.35,10.63-5.6Zm267.32-177.33c3.48-2.47,5.9-5.89,7.67-9.63,1.8-3.8,3.8-7.55,5.31-12.43-2.4,1.51-4.09,2.56-5.35,3.36-2.69,6.58-5.16,12.64-7.63,18.7Zm-171.41,49.55c3.53-1.62,6.58-3.25,9.8-4.42,3.19-1.16,6.54-1.86,10.14-2.85-3.24-1.52-3.37-1.71-5.7-1.27-3.38,.63-6.78,1.32-10.03,2.41-2.28,.77-4.57,1.8-6.85,3.3,.99,1.06,1.78,1.91,2.65,2.84Zm-29.02-.99c3.02,1.86,6.14,3.54,8.99,5.59,2.89,2.08,5.51,4.54,8.32,6.9l3.64-.33c-5.18-5.48-9.98-10.62-17.7-12.53-.52,0-1.59-.02-2.66,.01-.18,0-.35,.21-.59,.35Zm14.35,12.36c-5.12-5.52-13.68-11.13-18.76-11.78-.92,.75-2.58,.69-3.25,2.27,3.3,1.18,6.69,2.06,9.75,3.59,3.17,1.59,6.02,3.83,9.21,5.91h3.04Zm-86.37,172.93c4.9-5.26,8.58-11.03,10.86-17.49,1.89-5.37,2.98-11.02,4.37-16.56,.08-.3-.32-.72-.62-1.32-1.21,1.57-1.37,3.13-1.73,4.61-.67,2.78-1.19,5.61-1.99,8.35-2.2,7.55-5.44,14.52-11.41,19.94-.84,.76-1.46,1.76-2.59,3.14,1.45-.31,2.22-.48,3.1-.67Zm249.42-224.87c-1.74-.81-2.79,1.48-4.55,.57,2.24-1.31,4.3-2.48,6.32-3.73,.68-.42,1.38-.97,.83-1.89-4.48,1.89-8.87,3.72-13.24,5.6-1.12,.48-2.16,1.11-1.97,2.78,1.52,1.81,3.77,2,5.96,2.41,2.24-1.93,4.39-3.79,6.65-5.75Zm-84.03,109.69c3.03,1.01,4.05,.93,5.61-.91,1.99-2.35,3.79-4.86,5.62-7.24-.74-1.9-2.09-2.86-3.79-3.63-1.27,2.19-2.36,4.15-3.52,6.08-1.14,1.89-3.17,3.18-3.92,5.71Zm71.85-113.75c2.5-3.05,2.62-5.97,2.07-8.95-.67-3.68-.72-7.34-.12-11.02,.07-.41-.1-.86-.21-1.59-1.66,.9-2.58,2.07-3.55,3.92,.15,2.39,.25,5.24,.53,8.07,.3,2.96,.77,5.89,1.27,9.57Zm-213.9,195.93c-.13,.31-.37,.62-.37,.93-.08,5.13-.36,10.26,.76,15.34,1.06,4.78,2.11,9.55,4.46,13.91,.96,1.78,1.61,2.35,3.58,3.14-2.8-5.01-4.23-10.58-6.07-15.99-1.91-5.62-1.25-11.53-2.36-17.33Zm62.83-76.7c5.65,3.73,10.85,7.17,16.29,10.76l1.32-.88c-4.69-3.32-9.12-6.47-13.45-9.54-.74,.3-1.24,.51-1.64,.67-2.13-3.15-3.55-6.33-4.79-9.63-.43-1.14-1.37-2.09-2.54-3.8,.28,5.37,3.18,8.75,4.8,12.41Zm112.66-73.37c2.06,2.15,4.6,3.25,7.68,3.64-3.48-4.56-5.24-4.05-6.12-19.52-1.14,1.32-1.5,2.69-1.53,4.08-.08,3.81-.03,7.62-.03,11.8Zm120.04-26.5l-4-1.72c-1.47,.18-2.65,.3-3.83,.46-4.37,.62-8.75,1.21-12.92,2.8-2.26,.86-4.09,2.26-5.75,3.93,.26,.34,.37,.6,.56,.69,.31,.15,.67,.19,1.16,.31,7.31-5.61,15.81-6.73,24.78-6.48Zm-83.87-14.34c.43-1.16,.88-1.81,.87-2.44-.02-1.67-.09-3.36-.4-5-.73-3.9-1.15-7.8-.99-11.77,.03-.75-.1-1.5-.18-2.49-2.9,2.63-2.88,4.58-2.69,7.03,.29,3.8,.77,7.61,2.07,11.24,.35,.98,.74,1.95,1.31,3.42Zm-114.83,111.87c-4.18,0-7.76-.25-11.29,.05-6.4,.55-12.76,.81-19.86-.79,1.22,.68,1.73,1.12,2.33,1.28,4.74,1.28,9.65,1.34,14.49,1.65,4.1,.27,8.22,.06,12.51,.06,.46-.57,.96-1.18,1.82-2.25Zm42.88-9.66l.51,.18c1.85-3.12,3.7-6.25,5.52-9.33-2.71-3.21-4.1-4.33-6.03-4.85v14Zm160.2-75.76c-.39,6.36-2.76,12.56-1.18,19.34,1.31-7.79,2.56-15.29,3.9-23.24-1.15-2.46-1.57-5.69-4.09-8.27-.23,2.5,1.12,4.14,1.81,5.62,.35,2.43,.64,4.5,.94,6.55h-1.38Zm-176.03,157.72c-.52-3.03-1.03-5.46-1.32-7.91-.5-4.15-2.18-7.68-5.3-10.9,1.21,6.18,2.36,12.06,3.5,17.85,1.05,.32,1.83,.56,3.13,.96Zm108.56-143.81c-6.92,5.47-10.49,11.99-10.09,20.91,2.53-2.44,2.62-5.48,3.94-7.8-.33-.8-.58-1.42-.89-2.16,.91-.61,1.67-1.12,2.54-1.7,1.41-2.9,2.85-5.86,4.5-9.24Zm-41.7,8.23c2.11-2.1,3.33-4.84,3.71-8.51-3.25,.44-6.47,.87-9.87,1.33l6.16,7.19Zm-33.62,52.36c-.14-1.12-.08-1.62-.26-1.99-.94-1.92-1.92-3.82-2.94-5.7-.33-.61-.75-1.23-1.28-1.67-2.73-2.28-5.96-3.62-9.39-4.65,4.47,4.52,8.94,9.04,13.87,14.02Zm-95.17-22.9l-.88-.03c-.35,1.25-.89,2.47-1,3.74-.5,5.78-.89,11.57-1.29,17.36-.02,.33,.16,.68,.27,1.11l1.41,.83c1.29-7.77,.12-15.47,1.49-23.02Zm202.83-82.27c-4.88-.95-9.76-1.92-14.65-2.84-1.57-.29-2.92,.1-4.08,1.8,6.36,1.88,12.41,3.14,18.73,1.03Zm-203.06,73.55c1.85-2.14,3.82-4.2,5.54-6.45,2.41-3.15,5.11-5.93,8.48-8.04,.5-.31,.89-.8,1.67-1.52-1.12,0-1.71-.02-2.3,0-.59,.02-1.17,.08-1.63,.11-8.22,8.33-10.8,11.6-11.76,15.89Zm-15.43,35.87c-.17,1.53-.52,2.38-.29,3.03,1.08,3.03,2.23,6.05,3.55,8.98,.51,1.12,1.26,2.27,2.46,2.83,1.78-.77,1.65-2.09,1.24-3.39-.25-.78-.76-1.48-1.18-2.21-1.23-2.17-2.44-4.36-3.71-6.5-.45-.76-1.07-1.42-2.09-2.74Zm227.62-103.44c.6,.48,.93,.87,1.34,1.05,6.59,2.94,13.18,5.85,20.08,8.91-.12-.66-.05-1.24-.3-1.45-.89-.76-1.82-1.56-2.87-2.04-5.18-2.38-10.41-4.67-15.75-7.04l-2.5,.58Zm-233.61,109.02c-7.42,6.72-10.92,18.43-9.89,25.42l.99-.34c.6-3.89,.92-7.57,1.77-11.14,1.09-4.6,3.15-8.73,7.26-11.51,.39-.26,.73-.6,1.04-.96,.12-.13,.06-.41,.11-.76-.35-.2-.75-.42-1.27-.71Zm23.25-5.51l.13,.82c1.59-.33,3.17-.82,4.78-.95,5.11-.41,10.01,.08,14.09,3.72,1.35,1.21,2.87,1.44,4.75,.14-4.37-2.3-8.54-4.27-13.13-5.29-3.79-.84-7.24,.06-10.61,1.55Zm202.5-119.99c-1,.61-2.08,1.28-3.7,2.28h17.83c.49-.67,.99-1.36,1.81-2.49-5.53,.65-10.5,.85-15.94,.21Zm17.73-3.29c-.22-.14-.42-.37-.6-.37-3.33,.12-6.67,.19-9.99,.46-1.63,.13-3.03,1-4.76,2.4,5.04,.49,9.41,.03,13.77-.51,.99-.13,1.74-.79,1.58-1.98Zm-240.69,152.44c-1.95,1.97-3.68,3.71-5.56,5.6,5.09,.49,7.21,.11,9.82-1.67-.19-1.12-.38-2.27-.59-3.51-1.26-.14-2.42-.27-3.67-.42Zm136.75-104.55c.54,2.96,0,5.8,2.17,8.13,.38-.49,.61-1.03,1.03-1.3,.56-.36,1.25-.52,1.94-.79v-7.13c-1.75,.37-3.23,.68-5.14,1.09Zm73.63-54.07l-.64-.25c-1.25,1.58-2.72,3.03-3.72,4.75-2.04,3.51-3.67,7.23-4.66,11.19-.04,.17,.19,.4,.36,.74l1.97-.8,6.69-15.64Zm-260.49,208.76c3.6,2.66,7.62,4,11.72,5.2,1.13-1.06,1.29-2.08,.45-3.34-1.47-.31-3-.54-4.46-.97-2.39-.71-4.74-1.57-7.12-2.34-.18-.06-.43,.12-.77,.23,.06,.42,.12,.86,.18,1.21Zm3.3-14.29c.71-.75,1.08-1.15,1.55-1.65-.55-.57-.94-1-1.35-1.4-2.98-2.91-6.15-5.66-8.88-8.79-1.76-2.01-3.78-3.37-6.59-4.98,2.21,3.74,5.45,5.53,7.76,8.2,2.41,2.78,4.83,5.55,7.52,8.63Zm10.7,14.25l-.91-1.98c-4.12-.92-7.54-3.63-12-4.26-.13,.9-.23,1.64-.33,2.28,5.36,2.95,7.96,3.72,13.24,3.95Zm110.55-106.86c2.9-2.65,5.42-4.96,8.21-7.51l-2.84-1.61-6.86,5.52,1.49,3.6Zm-122.96,97.62c3.74,2.44,10.12,4.76,13.42,4.88-.21-1.6-1.07-2.55-2.53-3.06-2.24-.79-4.45-1.66-6.71-2.39-.88-.28-1.86-.39-2.79-.35-.45,.02-.87,.56-1.39,.92Zm54.43-73.69c1.37,6.52,3.83,11.66,8.03,16.08,.23-.35,.37-.48,.34-.54-2.01-4.56-4-9.13-6.1-13.65-.29-.63-1.15-.99-2.27-1.89Zm107.66,2.85c-.57-.91-.97-1.55-1.45-2.32-.58,.44-1.04,.65-1.3,1.01-2.42,3.41-5.25,6.45-8.35,9.25-.2,.18-.08,.7-.14,1.42,4.33-2.68,7.73-5.77,11.25-9.36Zm-58.89,21.61c5.94,1.17,7.89,.78,10.63-1.84-1.89-.78-3.85-1.59-6.12-2.53-1.3,1.27-2.74,2.66-4.51,4.37Zm68.5-63.53c3.73,2.69,8.42,1.63,12.26,3.58-.93-1.3-1.86-2.6-2.73-3.81-4.12-1.28-5.82-1.26-9.54,.23Zm145.86-54.79c3.76-3.18,7.5-6.28,9.66-10.65,2.15-4.34,4.94-8.36,6.41-13.04-2.32,3.44-4.49,6.96-6.37,10.64-1.7,3.33-3.67,6.41-6.3,9.09-1.22,1.24-2.27,2.64-3.4,3.97ZM178.22,500.01c-1.12-.34-1.85-.83-2.46-.71-5.84,1.18-11.65,2.46-17.47,3.75-.11,.03-.15,.4-.22,.62,.17,.13,.37,.4,.51,.38,5.76-1,11.52-2.02,17.27-3.08,.66-.12,1.28-.51,2.37-.95Zm184.96-185.53c.53-1.04,.92-1.46,.93-1.88,.15-4.83,.24-9.67,.35-14.68l-1.93,1.44c-.01,4.93-.98,9.79,.65,15.13Zm-2.28,10.76l.54,.5c1.33-.51,2.7-.94,3.98-1.56,3.43-1.68,6.99-3.14,9.93-5.68,.61-.52,1.36-1.07,.68-2.09-4.7,2.42-9.38,4.8-14.01,7.26-.51,.27-.75,1.03-1.12,1.57Zm-210.32,194.08c3.27,4.31,13.17,13.64,15.57,14.39-2.24-2.58-4.93-4.7-7.34-7.12-2.43-2.44-4.59-5.16-6.92-7.82l-1.31,.54Zm107.93-117.16c-2.77,3.32-2.11,6.86-1.9,10.92,2.11-2.04,3.44-3.92,4.48-6-.83-1.58-1.63-3.11-2.58-4.92Zm29.66,43.61c.77-1.35,.62-2.37,.13-3.38-1.67-3.41-3.34-6.83-6.18-9.7l-1.18,1.5c2.42,3.88,4.74,7.6,7.23,11.58Zm56.28-84.21c-1.77,.68-3.29,1.32-4.84,1.86-1.46,.5-2.95,.88-4.42,1.36-1.43,.47-3.18,.18-4.65,1.98,5.32,.21,9.76-1.17,14.27-3.15-.12-.7-.23-1.31-.36-2.04Zm-155.87,75.37l.43-.71c-.43-.36-.8-.85-1.29-1.05-1.43-.58-2.89-1.1-4.38-1.53-3.3-.96-6.61-1.9-9.93-2.77-1.29-.34-2.65-.58-4.52,.09,6.92,2.1,13.31,4.03,19.69,5.96Zm7.07,30.58c.26-2.32,.55-4.31,.7-6.32,.15-2.03,.34-4.08,.18-6.09-.15-1.88,.78-3.83-.14-6-1.86,3.67-2.16,12.32-.73,18.41Zm200.97-56.96c-4.39-4.23-7.77-5.78-11.47-5.35,1.52,1.19,2.88,2.31,4.3,3.36,1.42,1.05,2.9,2.02,4.29,2.99l2.87-.99Zm-171.57,26.72c-4.35-2.54-8.9-3.29-14.13-1.34,4.82,1.75,9.45,1.77,14.13,1.34Zm225.62-87.54l.66-.55c-.83-4.04-2.02-7.94-4.99-11.39l-1.84-.4c.14,.67,.15,1.03,.29,1.33,1.48,3.12,3.36,6.04,4.28,9.42,.17,.63,1.05,1.07,1.6,1.59Zm-2.11-13.65c1.74,4.4,3.19,8.11,4.71,11.79,.2,.47,.77,.79,1.31,1.33l.82-1.22c-3.94-10.52-3.97-10.58-6.84-11.9Zm10.49-23.61c-1.18,.31-1.38,1.11-1.54,2.1-.5,3.06-1.17,6.09-1.66,9.16-.36,2.24-.56,4.5-.75,6.76-.03,.39,.4,.82,.85,1.69,1.09-6.93,2.08-13.26,3.1-19.71Zm-5.4,23.2l-.6,.59,4.09,11.25,1.77-.31c-.74-2.58-1.37-4.98-2.11-7.35-.32-1.01-.72-2.04-1.32-2.91-.4-.57-1.21-.86-1.83-1.27Zm-237.31,134.72c-1.48-1.77-2.44-2.92-3.51-4.2-2.55,.64-4.92,1.24-7.71,1.95,3.65,1.56,6.93,2.39,11.22,2.25Zm52.28-28.03c-4.17-.52-8.43-1.06-12.7-1.59-.36-.04-.8-.21-1.05-.06-.5,.28-.89,.74-1.45,1.24,3.89,1.67,5.66,1.69,15.21,.42Zm-14.14-96.96c-4.19-2.1-5.91-2.57-8.09-2.2,1.29,1.11,2.55,2.17,3.77,3.28,1.29,1.18,2.54,2.41,4.02,3.82,.18-1.16,.37-2.07,.45-3,.05-.58-.08-1.17-.15-1.91Zm21.57,126.5c.29-3.19,.77-6.37,.83-9.56,.06-3.2,.56-6.44-.03-10.34-.92,2.94-1.6,16.76-.8,19.91Zm-133.85-4.99c.48-1.97,.96-3.6,.87-5.71-3.09,2.7-5.37,5.4-6.17,9.29,1.74-1.17,3.48-2.35,5.3-3.58Zm220.93-113.56c1.24-1.03,2.22-1.88,3.25-2.67,1.03-.79,2.16-1.46,3.16-2.29,.89-.74,2.12-1.18,3.12-2.98-2.23,.95-3.78,1.51-5.23,2.25-1.58,.8-3.07,1.77-4.64,2.7l-1.66,2.88,2.02,.13Zm-92.33,159.32c1.46,.45,2.45,1.83,4.36,.75-2.27-3.22-3.59-6.89-6.32-9.79,.65,3,1.3,5.99,1.97,9.04Zm-71.87-83.61c.14,.99,.09,1.81,.38,2.48,1.08,2.5,2.28,4.95,3.44,7.41,.7,1.5,1.36,3.03,2.16,4.49,.18,.34,.83,.42,2.03,.97-.87-2.03-1.34-3.33-1.96-4.55-.59-1.15-1.42-2.18-2-3.34-.64-1.27-1.04-2.66-1.69-3.92-.59-1.15-.13-2.97-2.35-3.54Zm169.76-133.98c-2.19,.44-2.32,1.96-2.5,3.15-.41,2.7-.58,5.44-.8,8.17-.04,.47,.15,.97,.23,1.45,.72-4.3,2.86-8.16,3.07-12.77Zm53.36,12.57c2.03,.36,6.88,.42,8.01-.06,.62-.26,1.22-.74,1.61-1.28,.22-.31,0-.94-.04-1.58-3.45,.8-6.98,.18-9.58,2.91Zm-144.49,127.15c-.16,2.33,1.37,3.16,2.14,4.38,.82,1.31,1.73,2.55,2.5,3.88,.75,1.3,1.37,2.67,2.06,4.02l1.2-.45c-1.23-3.97-4.19-8.5-7.9-11.83Zm-19.19,18.69c5.81-1.18,11.31-1.38,16.09-5.24-4.77,1.28-9.08,2.43-14.08,3.77l-2.01,1.47Zm-2.76-15.25c3.52,1,6.78,1.44,10.48,1.31-3.29-1.86-6.47-2.92-10.01-3.39-.17,.77-.28,1.21-.47,2.08Zm19.6-.5l-.55,.48c2.08,3.52,4.17,7.04,6.47,10.93,.34-2.65,.33-2.97-.85-5.05-1.36-2.39-2.72-4.81-5.07-6.37Zm17.74-15.29c-.38,.18-.78,.24-.93,.47-2.01,3.09-4,6.19-5.94,9.32-.18,.29,.04,.83,.09,1.4,2.54-1.95,5.65-7.14,6.78-11.19Zm-84.06-53.01c.29,.56,.38,.88,.59,1.09,1.68,1.69,3.36,3.37,5.07,5.03,.94,.91,1.92,1.8,2.94,2.62,.67,.53,1.43,.61,2.27-.02-3.46-3.11-6.58-6.36-10.87-8.72Zm124.53-13.34l-.28,1.69c2.07,1.21,3.86,2.25,6.1,3.55-.41-1.89-.73-3.34-1.05-4.78l-4.76-.46Zm-72.15,43.29l3.68-3.18c-.08-1.75-.75-2.55-2.46-2.52l-2.66,2.19,1.43,3.51Zm21.55,30.77c.51-4.54-.24-8.92-.06-13.66-.78,4.75-1.4,9.16-1.36,13.66h1.42Zm69.7-118.18c-1.8,5.1-1.63,9.31,1.26,13.39-.41-4.38-.81-8.57-1.26-13.39Zm-107.51,79.81l.33,.55c2.7-.77,5.4-1.54,8.71-2.48-.79-.51-1.06-.76-1.38-.89-.76-.32-1.55-.58-2.42-.9-1.77,1.26-3.51,2.49-5.24,3.72Zm159.29,16.08c-2.8-.25-5.89-.54-9.79-.89,1.95,1.25,3.21,2.05,4.49,2.87,1.96-.73,3.79-1.42,5.3-1.98Zm-150.38,58.51c-1.8-1.86-4.23-2.3-6.67-2.73q-2.67-.47-5.25,.47c.88,0,1.62-.13,2.3,.02,3.22,.7,6.42,1.48,9.62,2.24Zm-98.51,36.39c-3.05-1.25-6.08-2.51-9.15-3.7-.23-.09-.66,.38-1.12,.66,2.59,1.65,7.69,3.46,10.27,3.04Zm101.56-103.43c-3.87,3.73-5.54,5.98-6.43,8.72,3.6-1.89,4.79-5.15,6.43-8.72Zm68.3-90.93c-3.19-.36-6.07-1.66-9.15-.59l2.99,1.61c2.1,.05,4.11,.24,6.15-1.03Zm46.35-12.61c2.11-1.77,2.77-3.97,3.7-6.94-1.56,1.3-2.51,2.09-3.4,2.83-.11,1.52-.21,2.82-.31,4.11Zm-159.68,59.94c2.09-.39,3.94-.73,5.78-1.07l-.03-.48c-2.42-.22-4.85-.44-7.27-.66l-.37,.67c.53,.44,1.07,.88,1.89,1.55Zm217.31-52.48l.02,.6,4.08-.94,2.48-4.07-6.59,4.41Zm-221.85,48.52h7.85l-3.42-2.18c-1.32,.5-2.42,.9-3.5,1.35-.28,.12-.48,.42-.93,.82Zm70.91,99.17c-.05-3.62-1.18-5.63-4.1-7.85,1.51,2.9,2.81,5.38,4.1,7.85Zm-6.78-136.33l-.54,.24c.34,1.67,.68,3.33,1.08,5.3l2.39-1.38c-1.07-1.52-2-2.84-2.92-4.15Zm-37.6,150.92c.04,1.42,0,1.49,1.79,2.33,1.01,.47,1.88,1.73,3.45,1.04-1.39-1.96-3.43-2.4-5.24-3.37Zm102.44-103.07c-.91-1.83-1.96-2.08-3.37-2.08l-.16,2.27,3.53-.19Zm-146.17,97.69c1.15-.39,1.82-.61,2.45-.82v-4.21c-.89,1.82-1.55,3.18-2.45,5.04Zm286.37-153.12c1.04-1.6,2.07-3.2,3.44-5.31-2.78,1.17-3.3,3.12-3.44,5.31Zm-126.42,15c-.14,1.92-.24,3.15-.34,4.45h2.31c-.62-1.41-1.13-2.56-1.97-4.45Zm18.79-20.66c.66-.93,1.53-1.8,.75-3.02-.26,1.06-.51,2.04-.75,3.02Zm-131.73,143.67c.55-.81,.87-1.28,1.56-2.3-1.23,.39-1.8,.56-2.48,.78l.92,1.52Zm-58.29,16.12l.54,.68,1.28-1.18-.31-.41c-.5,.3-1,.61-1.5,.91Zm151.14-152.11c.29,.13,.37,.21,.46,.2,.13,0,.27-.07,.49-.13l-.94-.07Zm40.44-14.89c0,.16,0,.39,0,0,.05,.38,.02,.15,0,0Zm-97.33,146.86l.43-.36c-.27-.38-.53-.76-1.24-1.78,.26,1,.28,1.21,.36,1.39,.13,.26,.3,.5,.45,.75Z"
  />
  <path fill="#58b6d0"
    d="M380.96,397.41c.92-.48,1.8-1.06,2.76-1.42,2.35-.88,4.73-1.67,7.1-2.49,.1,.16,.2,.32,.3,.48-2.7,1.1-5.39,2.24-8.12,3.28-.62,.23-1.38,.08-2.07,.11l.04,.05Z"
  />
  <path fill="#58b6d0"
    d="M379.42,393.71c-2.14,1.65-4.58,1.85-7.14,1.48l.04,.05c2.2-1.39,4.68-1.43,7.15-1.48l-.04-.05Z"
  />
  <path fill="#58b6d0"
    d="M373.76,398.86c1.88-.99,4.43-1.5,7.2-1.44l-.04-.05c-2.24,1.27-4.62,1.83-7.2,1.44l.03,.06Z"
  />
  <path fill="#58b6d0"
    d="M379.46,393.77c1.77-1.1,3.71-1.51,5.77-1.43l-.04-.05c-1.7,1.39-3.64,1.76-5.77,1.43l.04,.05Z"
  />
  <path fill="#58b6d0" d="M394.78,415.4l.68-.56,.24,.28-.66,.59-.26-.31Z" />
  <path fill="#58b6d0" d="M385.22,392.34l1.36-.71,.15,.51-1.55,.15,.04,.05Z" />
  <path fill="#58b6d0"
    d="M426.78,301.06l-.88-.13,1.71-2.29c.11,.11,.22,.21,.33,.32l-.12,1.09-1.04,1.02Z"
  />
  <path fill="#58b6d0"
    d="M418.99,304c.98-1.28,2.01-2.52,2.93-3.84,.93-1.34,1.76-2.74,2.83-3.99-.37,3.64-2.96,5.86-5.12,8.36l-.64-.53Z"
  />
  <path fill="#58b6d0"
    d="M427.61,298.63l1.02-2.04c.36,1.3,.15,1.95-.69,2.36-.11-.11-.22-.21-.33-.32Z"
  />
  <path fill="#58b6d0"
    d="M190.12,392.75c.05-.46-.07-1.05,.18-1.36,1.99-2.5,4.04-4.96,6.11-7.39,.19-.22,.63-.22,.96-.32-.23,2.04-1.72,3.34-2.94,4.75-1.33,1.53-2.86,2.89-4.31,4.32Z"
  />
  <path fill="#58b6d0"
    d="M185.79,396.7c.04-1.46,1.16-2,2.21-2.59,0,1.49-.79,2.31-2.21,2.59Z"
  />
  <path fill="#58b6d0"
    d="M235.47,345.52c.35,.03,.78-.06,1.02,.12,1.91,1.44,3.82,2.87,5.64,4.42,.58,.49,.89,1.32,1.32,1.99-3.08-.92-4.86-3.66-7.39-5.34-.32-.21-.4-.78-.59-1.19Z"
  />
  <path fill="#58b6d0"
    d="M231.87,342.64c1.76,.3,3.09,1.14,3.66,2.93-1.89-.14-2.84-1.46-3.66-2.93Z"
  />
  <path fill="#58b6d0"
    d="M365.12,411.82c-2.38-1.3-3.38-2.39-4.37-4.75,1.28,1.05,2.62,2.04,3.83,3.17,.36,.34,.38,1.04,.55,1.58Z"
  />
  <path fill="#58b6d0"
    d="M366.13,406c1.48,.01,2.32,.78,2.59,2.21-1.64,.18-1.91-1.27-2.59-2.21Z"
  />
  <path fill="#58b6d0"
    d="M242.39,346.95c.63,.27,1.38,.41,1.88,.83,1.9,1.6,3.75,3.25,5.54,4.98,.45,.43,.56,1.21,.83,1.82-3.22-2.03-5.68-4.89-8.25-7.64Z"
  />
  <path fill="#58b6d0"
    d="M178.59,388.77c.51-1.37,1.42-2.19,2.94-2.21-.42,1.49-1.63,1.91-2.94,2.21Z"
  />
  <path fill="#58b6d0"
    d="M367.22,403.12c1.17-.14,1.84,.46,2.23,1.49-1.18,.15-1.85-.46-2.23-1.49Z"
  />
  <path fill="#58b6d0"
    d="M264.99,484.48c1.31,.3,2.52,.73,2.94,2.21-1.47-.09-2.57-.66-2.94-2.21Z"
  />
  <path fill="#58b6d0" d="M218.7,349.42l-2.3-1.47c1.58-.45,2.19,.23,2.79,.94l-.49,.54Z" />
  <path fill="#58b6d0"
    d="M172.83,388.43c.25-1.22,.96-1.88,2.24-1.87-.75,.62-1.49,1.25-2.24,1.87Z"
  />
  <path fill="#58b6d0"
    d="M267.15,493.84c2.33,.6,3.79,2.08,4.44,4.38-1.64-1.3-3.58-2.29-4.44-4.38Z"
  />
</svg>
