<?xml version="1.0" encoding="UTF-8"?>
<svg
  id="Layer_1"
  xmlns="http://www.w3.org/2000/svg"
  viewBox="0 0 419.53 595.28"
>
  <path fill="#58b6d0"
    d="M250.14,387.52c-.39,.17-.74,.26-1.01,.45-2.72,1.97-5.39,4.01-8.17,5.9-1.15,.78-2.5,1.32-3.82,1.79-2.35,.85-4.75,1.58-7.14,2.32-.51,.16-1.07,.18-1.61,.22-.92,.06-1.7,.45-2.52,.81-.52,.23-1.14,.2-1.69,.37-1.19,.29-2.37,.77-3.57,.83-1.73,.09-3.38,.46-5.06,.78-1.36,.26-2.75,.37-4.14,.42-1.34,.04-2.68-.09-4.02-.16-.41-.02-.81-.12-1.22-.18-1.56-.26-3.13-.44-4.67-.79-1.88-.42-3.72-.97-5.58-1.48-1.21-.33-2.44-.59-3.6-1.05-1.14-.45-2.19-1.12-3.29-1.67-1.65-.83-3.31-1.64-4.96-2.48-.82-.42-1.66-.81-2.43-1.32-2.11-1.39-4.27-2.68-6.02-4.57-1.02-1.1-2.29-1.97-3.42-2.99-1.35-1.22-2.67-2.48-4-3.72-.97-.91-2.02-1.76-2.91-2.74-1.87-2.06-3.7-4.17-5.47-6.31-1.2-1.46-2.31-2.99-3.41-4.53-.58-.81-1.06-1.69-1.58-2.54-.81-1.31-1.63-2.62-2.42-3.94-.24-.41-.41-.86-.62-1.29-.36-.73-.73-1.46-1.1-2.18-.81-1.55-1.62-3.09-2.13-4.07-.76-1.84-1.28-3.09-1.81-4.34-.22-.53-.46-1.06-.7-1.59-.66-1.46-1.37-2.91-1.96-4.4-.54-1.36-.96-2.77-1.41-4.16-.36-1.11-.67-2.23-1-3.35-.58-1.95-1.13-3.92-1.74-5.86-.4-1.27-.88-2.52-1.32-3.78-.1-.29-.19-.59-.26-.89-.35-1.47-.61-2.96-1.04-4.4-.86-2.87-1.71-5.75-2.2-8.7-.42-2.51-.71-5.03-1.02-7.56-.19-1.57-.2-3.17-.46-4.72-.25-1.54-.3-3.07-.31-4.62,0-.54-.13-1.09-.14-1.62,.02-1.02,.04-2.05,.07-3.07,.08-3.11-.09-6.23,.33-9.33,.08-.6,.07-1.21,.07-1.84,.1-.84,.19-1.67,.31-2.5,.35-2.42,.68-4.85,1.1-7.26,.29-1.66,.74-3.29,1.11-4.93,.26-1.17,.52-2.33,.76-3.5,.22-1.08,.41-2.16,.62-3.24,.18-.9,.36-1.8,.57-2.7,.14-.62,.31-1.25,.5-1.86,.62-1.93,1.26-3.85,1.9-5.77,.15-.46,.31-.91,.48-1.35,.47-1.24,.88-2.52,1.45-3.72,.88-1.84,1.89-3.63,2.82-5.45,.15-.29,.19-.65,.32-.95,.75-1.77,1.5-3.54,2.28-5.29,.12-.27,.38-.48,.58-.72l-.18-.11c.39-.7,.79-1.4,1.18-2.1,.23-.41,.42-.85,.66-1.25,.31-.53,.66-1.04,1.09-1.73,.11-.8,.43-1.7,1.16-2.45,.31-.32,.35-.89,.61-1.29,1.17-1.85,2.43-3.64,3.55-5.52,.78-1.29,1.86-2.25,2.93-3.27,1.66-1.59,3.2-3.29,4.82-4.92,1.96-1.97,4.13-3.7,6.35-5.37,1.92-1.44,3.72-3.04,5.68-4.42,1.49-1.05,3.18-1.73,4.92-2.33,2.6-.89,5.28-.88,7.95-1,.58-.03,1.16,.11,1.74,.18,.99,.11,1.98,.23,2.97,.33,1.42,.14,2.57,.91,3.78,1.56,.71,.39,1.5,.64,2.26,.92,1.58,.57,3.14,1.24,4.77,1.64,1.25,.31,2.58,.34,3.88,.38,3.17,.09,6.15-.8,8.96-2.11,1.49-.69,3.03-1.18,4.55-1.61,1.54-.43,3.02-1.17,4.61-1.29,2.03-.16,4.08-.48,6.12-.06,1.78,.37,3.56,.75,5.3,1.28,1.24,.38,2.42,.98,3.59,1.55,2.38,1.16,4.39,2.81,6.24,4.7,1.18,1.2,2.52,2.24,3.74,3.39,.84,.8,1.62,1.67,2.41,2.52,.8,.85,1.62,1.69,2.38,2.57,.89,1.04,1.76,2.1,2.56,3.2,.76,1.05,1.42,2.18,2.11,3.28,.5,.78,1.04,1.54,1.47,2.35,1.15,2.19,2.25,4.42,3.37,6.63,1.41,2.79,2.81,5.58,4.24,8.36,1.02,1.99,2.17,3.92,3.1,5.94,1.03,2.25,1.95,4.55,2.79,6.88,.75,2.1,1.29,4.28,1.97,6.41,.38,1.18,.86,2.33,1.26,3.5,.24,.72,.35,1.48,.59,2.19,.61,1.83,1.31,3.63,1.89,5.47,.45,1.44,.77,2.92,1.15,4.38,.03,.1,.02,.21,.05,.31,1.1,3.49,1.37,7.14,2.06,10.71,.18,.91,.16,1.86,.25,2.78,.25,2.65,.57,5.29,.73,7.94,.15,2.3,.21,4.62,.15,6.93-.06,2.51-.31,5.02-.45,7.53-.06,1.17,0,2.35-.09,3.51-.15,2.13-.36,4.26-.53,6.39-.06,.79-.02,1.59-.12,2.38-.3,2.25-.65,4.49-.98,6.74-.04,.27-.09,.54-.13,.82-.34,2.28-.49,4.6-1.07,6.82-.93,3.56-1.7,7.18-3.21,10.57-.57,1.29-.94,2.66-1.42,4-.15,.42-.33,.82-.51,1.23-.9,2.05-1.7,4.14-2.72,6.13-.84,1.65-1.41,3.43-2.58,4.93-.6,.77-1.02,1.67-1.72,2.4-.36,.37-.45,.98-.71,1.46-.29,.54-.63,1.06-.95,1.58-1,1.6-1.96,3.24-3.02,4.8-1.41,2.07-2.86,4.13-4.38,6.12-1.65,2.16-3.31,4.32-5.12,6.34-1.72,1.91-3.65,3.64-5.48,5.45-.32,.32-.62,.64-.94,.97Zm-22.86-191.59c-.97-.47-1.86-.11-2.76,.3-.53,.24-1.08,.47-1.63,.65-1.11,.37-2.25,.64-3.34,1.07-3.4,1.34-6.87,2.46-10.46,3.12-.49,.09-1.02,.12-1.5,.03-1.08-.2-2.15-.44-3.2-.76-1.54-.47-3.07-.97-4.58-1.55-1.89-.73-3.75-1.55-5.63-2.32-.13-.05-.26-.08-.4-.1-3.01-.34-6.04-.71-9.07-.28-2.89,.42-5.52,1.49-8,3.08-3.55,2.28-6.8,4.95-9.87,7.8-2.54,2.36-4.87,4.95-7.28,7.45-.62,.64-1.28,1.28-1.76,2.01-1.23,1.87-2.39,3.78-3.55,5.7-.52,.85-.95,1.76-1.46,2.62-1.06,1.8-2.29,3.52-3.2,5.39-1.57,3.21-2.91,6.54-4.42,9.78-1.17,2.5-2.3,4.99-3.2,7.62-1.28,3.76-2.41,7.56-3.27,11.43-.66,2.92-1.22,5.87-1.76,8.82-.53,2.84-.99,5.69-1.46,8.55-.14,.85-.23,1.7-.3,2.56-.13,1.58-.24,3.16-.31,4.75-.07,1.41-.11,2.82-.13,4.22-.01,.86,.11,1.73,.05,2.58-.2,2.88-.1,5.76,.23,8.62,.38,3.21,.84,6.42,1.25,9.63,.34,2.59,.66,5.18,1.43,7.7,.45,1.5,.34,3.16,1.3,4.53,.09,.13,.11,.33,.12,.5,.04,1.24,.33,2.41,.79,3.58,.47,1.18,.65,2.46,1.04,3.67,.45,1.4,1.05,2.75,1.48,4.16,.63,2.07,1.17,4.16,1.75,6.25,.03,.1,.02,.21,.07,.3,.78,1.56,1.12,3.28,1.95,4.84,1.26,2.39,2.23,4.93,3.36,7.39,.62,1.34,1.33,2.64,1.97,3.97,1.36,2.81,2.71,5.62,4.61,8.12,.33,.43,.59,.91,.88,1.37,.82,1.3,1.58,2.63,2.47,3.88,.94,1.31,1.95,2.57,3.02,3.76,1.51,1.69,3.09,3.32,4.68,4.93,1.01,1.03,2.15,1.94,3.15,2.98,2.27,2.36,4.75,4.47,7.44,6.32,.53,.37,1.05,.76,1.61,1.09,1.92,1.13,3.88,2.21,5.78,3.36,1.36,.83,2.47,2.1,4.15,2.37,.06,0,.11,.08,.17,.11,1.02,.47,2.03,.98,3.08,1.39,1.79,.71,3.58,1.41,5.4,2.04,1.36,.47,2.74,.93,4.14,1.22,1.33,.27,2.71,.31,4.06,.45,.96,.1,1.93,.19,2.89,.3,.56,.06,1.11,.17,1.85,.28,.64-.36,1.37,.32,2.22,.33l.33-.55c.26,.04,.45,.11,.6,.07,.55-.14,1.08-.38,1.63-.49,.74-.13,1.5-.12,2.23-.27,1.39-.27,2.77-.61,4.15-.93,.81-.19,1.62-.4,2.43-.61l.03,.09,3.52-.98,.53,.19c1.58-.45,2.94-.96,4.34-1.22,2.03-.37,3.86-1.22,5.65-2.14,1.11-.57,2.15-1.28,3.2-1.95,1.28-.81,2.55-1.63,3.8-2.47,.74-.49,1.45-1.03,2.17-1.55,1.35-.99,2.84-1.86,4.01-3.03,1.45-1.46,3.14-2.77,4.12-4.79l.58-.32c.5-.7,.88-1.3,1.31-1.86,.76-.97,1.57-1.9,2.31-2.88,.87-1.15,1.51-2.54,2.57-3.45,1.53-1.32,2.3-3.12,3.48-4.65,1.58-2.05,2.26-4.66,3.74-6.83,.76-1.11,1.28-2.39,1.91-3.58,.24-.45,.55-.85,.75-1.31,.59-1.38,1.12-2.79,1.72-4.17,.52-1.2,1.02-2.41,1.67-3.54,.87-1.5,1.71-2.98,2.05-4.7,.2-1.01,.54-1.99,.83-2.98,1.41-4.84,2.59-9.73,3.37-14.72,.36-2.31,.64-4.64,.95-6.96,.09-.65,.25-1.29,.29-1.94,.15-2.67,.31-5.34,.39-8.01,.07-2.23,.04-4.47,.03-6.7,0-.91-.07-1.81-.11-2.72-.12-.32-.02-.66-.03-1-.05-2.37-.04-4.74-.2-7.1-.22-3.22-.58-6.44-.89-9.66-.07-.75-.12-1.52-.26-2.26-.43-2.23-.89-4.44-1.37-6.66-.45-2.08-.9-4.16-1.4-6.23-.28-1.17-.66-2.32-1-3.47-.55-1.83-1.17-3.64-1.65-5.49-.31-1.2-.43-2.46-.64-3.69-.02-.14-.04-.28-.09-.4-.78-2.01-1.56-4.02-2.36-6.02-.44-1.11-.9-2.22-1.4-3.3-.55-1.21-1.14-2.39-1.76-3.67l-3.28-6.18-.09,.03c-.62-1.36-1.23-2.72-1.98-4.37q-.42-.34-.66-1.39c-.47-.87-.84-1.78-1.22-2.69-.1-.25-.22-.5-.35-.74-.42-.77-.86-1.54-1.29-2.31l.15-.11-.75-.5c-.14-.56-.49-.98-.67-1.46-.63-1.63-1.8-2.91-2.73-4.35-.39-.6-.85-1.15-1.25-1.75-.56-.84-.99-1.8-1.66-2.54-1.73-1.9-3.55-3.73-5.36-5.55-1.03-1.04-2.12-2.02-3.19-3.02-.28-.39-.68-.66-1.05-.97-.81-.67-1.57-1.42-2.43-2.02-1.98-1.38-4.3-1.93-6.56-2.65-2.98-.95-5.98-1.36-9.07-.47Z"
  />
  <path fill="#58b6d0"
    d="M183.37,218.57c.62-.27,1.23-.55,1.85-.82,1.07-.46,2.17-.88,3.22-1.38,3.44-1.62,7.16-1.99,10.84-2.37,2.6-.27,5.24-.23,7.86-.13,2.02,.08,4.02,.48,6.03,.72,1.33,.16,2.67,.25,3.99,.45,1.77,.26,3.54,.51,5.28,.92,2.27,.54,4.49,1.28,6.75,1.86,1.55,.4,2.98,1.07,4.37,1.83,2.02,1.1,4.1,2.12,6.04,3.35,1.92,1.21,3.7,2.64,5.53,3.99,1.39,1.02,2.78,2.02,4.13,3.09,.94,.74,1.84,1.54,2.72,2.36,1.09,1.01,2.12,2.08,3.2,3.09,.31,.29,.72,.48,1.19,.59,3.14,3.73,6.28,7.47,9.42,11.2l-.15,.08c.4,.82,.81,1.63,1.19,2.46,1.38,2.93,2.65,5.91,4.15,8.78,1.35,2.59,1.92,5.43,2.91,8.13,1.11,2.99,1.65,6.11,2.23,9.22,.46,2.47,.78,4.94,.82,7.46,.02,1.19,.34,2.38,.5,3.58,.09,.7,.15,1.4,.15,2.11,.16,1.3,.37,2.59,.45,3.89,.12,2.06,.25,4.13,.19,6.2-.04,1.36-.38,2.71-.61,4.06-.38,2.31-.92,4.62-1.12,6.94-.2,2.33-.82,4.53-1.44,6.74-.52,1.85-.88,3.75-1.45,5.59-.58,1.87-1.34,3.68-2.01,5.52-.28,.77-.49,1.58-.81,2.34-1.05,2.47-2.13,4.92-3.19,7.38-.56,1.29-.99,2.65-1.67,3.87-.97,1.74-1.55,3.66-2.53,5.37-.77,1.34-1.75,2.55-2.64,3.82-.84,1.21-1.68,2.42-2.52,3.62-.1,.14-.18,.29-.29,.42-1.29,1.43-2.59,2.85-3.88,4.28-1.81,1.99-3.58,4.01-5.45,5.93-.78,.8-1.87,1.3-2.68,2.08-1.29,1.24-2.79,2.2-4.27,3.16-1.29,.83-2.71,1.49-4.13,2.1-1.74,.75-3.62,1.22-5.29,2.09-2.15,1.11-4.47,1.66-6.74,2.36-2.41,.75-4.93,.93-7.44,1.14-1.23,.1-2.46,.3-3.69,.46-1.87,.24-3.73,.31-5.53-.19-1.29,.74-2.9,.35-3.57-.12-.61-.03-1.09,0-1.55-.07-2.22-.38-4.48-.64-6.64-1.25-1.9-.54-3.72-1.42-5.53-2.25-1.57-.71-3.09-1.52-4.6-2.34-.93-.5-1.8-1.11-2.71-1.65-2.29-1.37-4.31-3.09-6.33-4.81-.42-.36-.89-.65-1.29-1.03-1.2-1.11-2.41-2.21-3.55-3.39-1.62-1.68-3.2-3.39-5.25-4.59-.21-.12-.41-.27-.56-.45-2.51-2.9-5.05-5.77-7.49-8.73-1.51-1.84-3.11-3.61-4.37-5.66-.91-1.49-1.88-2.96-2.79-4.45-.19-.31-.26-.7-.41-1.14l-.6-.5c-.46-1.22-.75-2.37-1.3-3.38-1.16-2.15-1.96-4.5-3.52-6.44-1.24-1.54-1.69-3.45-2.48-5.21-1.05-2.34-1.65-4.82-2.27-7.29-.52-2.06-1.15-4.09-1.6-6.16-.7-3.2-1.13-6.44-1.16-9.72-.02-2.33-.17-4.69,.14-6.98,.44-3.23,.08-6.54,.95-9.72,.19-.72,.25-1.52,.15-2.26-.18-1.4,.27-2.67,.58-3.97,.32-1.37,.81-2.71,1.17-4.08,.2-.75,.21-1.56,.46-2.29,.9-2.7,1.83-5.4,2.83-8.07,.36-.96,.92-1.84,1.4-2.75,1.23-2.34,2.44-4.69,3.73-7,.87-1.56,1.81-3.1,2.8-4.59,1.33-2,2.67-4,4.12-5.92,.78-1.03,1.8-1.87,2.71-2.79,.77-.78,1.54-1.56,2.3-2.36,.68-.72,1.34-1.47,2.01-2.2,.65-.71,1.27-1.44,1.97-2.1,1.44-1.36,2.86-2.76,4.42-3.99,1.61-1.27,3.38-2.35,5.07-3.53,1.5-1.04,2.95-2.14,4.48-3.13,.87-.56,1.84-.95,2.77-1.42l.03,.04Zm-38.57,77.46l-1.45-2.33-.31,.23c.66,.64,.9,1.61,1.79,2.08l1.1,1.41,2.7,3.76,.31-.24-3.02-3.5-1.1-1.41Zm125.06-6.96c.68-.72,1.37-1.44,2.05-2.17l-.16-.14c-.74,.68-1.75,1.12-1.87,2.33l-.71,.03-2.35,2.64,.21,.18c1.06-.84,2.06-1.74,2.83-2.87Zm-116.98,20.5l-.08,.7c-3.37-2.95-6.02-6.38-8.77-9.73,.31,.77,.69,1.49,1.2,2.11,2.01,2.4,4.09,4.75,6.07,7.17,.69,.84,1.39,1.5,2.66,1.49l1.5-.79-1.2-1.2,.04,.88-1.44-.61c-.17-.86-1.25-2.13-2.11-2.47,.16,.61,1.14,1.74,2.13,2.45Zm43.29,12.21c.1-.8,.93-.44,1.4-.92,.03-.09,.17-.33,.14-.54-.15-1.08-.34-2.15-.52-3.22,0-.03-.03-.06-.04-.1-.13-.62-.27-1.25-.4-1.87l.2-.08-.66-.84-.86,.78-.93-.59-1.94,1.86c.13,.5,.32,.84,.29,1.16-.13,1.44,.36,2.68,1.16,3.83,.04,.06,.08,.11,.06,.09,.65,.76,1.42,.36,2.11,.42l.56,1.11,.82-.07,.85,1.36,1.19-.91-2.1-1.81-1.34,.34Zm23.44,23.47l-.54-1.66,1.23,.61c-.2-.98-1.33-1.3-1.38-2.4l1.06,.26-.43-2.55-4.54,.69c.05,.48,.1,.85,.13,1.22,.02,.3,.1,.63,.02,.91-.31,1.02-.18,1.97,.32,2.89l-.75,1.32c-.02,.16,0,.46-.1,.7-.43,.94-.13,1.8,.17,2.69,.15,.44,.2,.92,.3,1.38,.11,.5,.22,1.01,.35,1.6,1.13-.99,2.09-1.83,3.04-2.67,.6-.53,1.27-.63,2.01-.33,.4,.16,.8,.32,1.23,.5l.46-1.04,.82-.1,1.16-1.45-2.45-1.75-.86,.04-1.24-.86Zm-14.52-42.34c.06,.59-.14,1.05-.6,1.44-.52,.45-.99,.96-1.47,1.45-.83,.86-1.65,1.73-2.81,2.93l-1.75,4.61c-.18,.32-.24,.7-.27,1.07-.09,1.16-.29,2.33-.23,3.49,.05,1.04,.39,2.06,.63,3.19l2.21,2.73c1.58-.05,2.59,.92,3.79,1.78l-1.59-3.41,.3-.54-.61-2.28,.23-.14c1.33,.88,1.62,2.67,2.98,3.55-.5-1.04-1.04-2.06-1.67-3.02-.66-1.01-.91-2.09-1.03-3.23l.25-.11,3.24,5.14,.16-1.14c-.99-1.62-1.92-3.16-2.87-4.68-.33-.53-.35-1.05-.14-1.82l1.22,1.24c-.31-.78-.71-1.46-1.1-2.16-.38-.69-.89-1.36-.38-2.4,.4,.62,.69,1.12,1.03,1.58,.28,.38,.62,.7,.93,1.05l1.71,3.15,.29-.18c-.51-1.09-1.24-2.04-2.02-2.96-.17-.93-1.16-1.64-.71-2.96,1.29,1.25,1.96,2.81,3.05,4.07,.38-.63,.09-1.02-.16-1.44-.83-1.35-1.63-2.72-2.45-4.08-.46-.76-.65-1.57-.5-2.49,1.51,1.84,2.5,4.03,4.1,5.84,.16-.38,.27-.75,.2-1.08-.34-1.72-.72-3.42-1.09-5.13-.03-.13-.06-.28-.14-.39-.86-1.14-1.12-2.4-.74-3.78,0-.04-.07-.1-.1-.14l-1.94,1.25c.4-1.04,1.06-1.82,2.17-2.21,.08-1.01-.09-1.91-.76-2.8-.48,.38-.91,.7-1.33,1.05-1.41,1.15-2.83,2.28-4.21,3.47-.72,.62-1.39,1.31-2.04,2-.82,.87-1.61,1.78-2.42,2.67-.5,.55-1.02,1.1-1.49,1.61l.31,1.07-1.98,.45c-1.32,1.3-2.54,2.49-3.9,3.82l2.44,1.78,2.58-2.11,.75,.44,1.2-.97,.78,.65c.12-.14,.21-.21,.25-.3,.68-1.71,1.33-3.42,2.04-5.11,.16-.38,.5-.71,.81-1,.3-.28,.7-.44,1-.72,.83-.76,1.65-1.53,2.45-2.33,.28-.28,.43-.67,.69-.97,.18-.21,.45-.34,.68-.5Zm25.89,31.46c-.25-.15-.61-.25-.72-.47-.58-1.09-1.14-2.19-1.62-3.32-.67-1.58-1.26-3.19-1.91-4.77-.12-.29-.39-.51-.69-.89l-.41,.76-1.6-.03c.12,1.03,1.84,.74,1.66,2.26l-2.59-1.29-.15,.26c1.18,1.59,3.52,1.69,4.57,3.28l.25,1.78-.23,.15-2.03-1.14-.15,.2c.2,.19,.37,.43,.6,.57,.52,.34,1.07,.63,1.6,.95,.62,.38,1.24,.75,1.83,1.16,.14,.1,.17,.34,.29,.61l-.79,.27-1.59-1.05-.14,.2c.82,1.06,1.79,1.99,3.09,2.38,1.51,.46,2.88,1.15,4.17,2.03,.25,.17,.45,.42,.8,.75-1.11,.26-1.68-.41-2.38-.69-.74-.3-1.5-.57-2.25-.86l-.09,.24c.71,.74,1.63,1.02,2.17,1.05,1.5,.73,2.63,1.23,3.71,1.81,.52,.27,1.21,.4,1.38,1.18l-.51,.46,2.4,1.73c.81,.25,2.14,.28,2.78,1.58-.82,.89-1.36-.36-2.03-.2l-.11,.23c1.45,.87,2.91,1.73,4.48,2.67l.24-1.98c-1.47-2.84-4.26-3.89-6.63-5.04l-1.27-3.48-.94-.07c-.23-.83-.8-1.15-1.57-1.36-1.05-.29-2.05-.76-3.07-1.18-.35-.14-.75-.27-.57-.81l3.52,.95,.77-2.24,1.26-.38c-.29,1.18-.54,2.19-.8,3.26l.61,.14c.52-1.26,1.02-2.46,1.54-3.72l.61,.25,1.15-.7,.25,.18c-.36,1.59-.72,3.19-1.09,4.78l.35,.1c.09-.24,.2-.48,.26-.73,.51-1.93,1.02-3.86,1.54-5.79,.04-.15,.19-.28,.28-.41l.09,.15,3.33-1.29-.3,1.67,.18,.04,1.27-3.72,1.39-.17c-.44,1.37-1.11,2.51-1,3.84l1.35-2.93,1.06-.11-.65,2.34,.69-.17c.41-.99,.8-1.9,1.18-2.83l1.11-.05-.96,3.15c1.5-.25,1.11-1.59,1.65-2.14l1.9-.43-.13,2.38,.22,.05,.39-1.27,.66-.1c.56-1.07-.03-2.55,1.42-3.19l.3-1.29-1.3-.03c-.66,.33-1.13,.65-1.64,.79-2.27,.63-4.63,.6-6.95,.71-1.78,.08-3.46,.09-4.98,1.18-1.43,1.01-2.94,1.91-4.42,2.84-.78,.49-1.54,1.1-2.39,1.41-1.24,.45-2.57,.69-3.84,1.01l-.59-1.51c.05-.67,.11-1.32,.14-1.97,.07-2.03-.11-4.05,.17-6.08,.24-1.74,.61-3.53-.08-5.41,1.09-.16,2.1-.37,3.12-.43,1.05-.06,2.12-.01,3.01,.8q.11-.81-.83-1.56c-1.99-.34-4.02-.45-6.17-.24l.49,1.51-.15,.07-1.38-1.07c-.1,.4-.21,.71-.25,1.03-.08,.65-.14,1.3-.19,1.95-.14,2.13-.28,4.25-.4,6.38-.01,.26,.07,.55,.18,.8,.76,1.77,1.58,3.52,2.28,5.32,.36,.93,.81,1.87,.78,2.92Zm-33.47-29.46c-2.59,.64-5.23,.1-8,.16l.18,4.03,2.69,.11,.72-.47,.86,.58c.64-.85,1.22-1.68,1.86-2.45,.33-.39,.8-.65,1.15-1.03,.24-.26,.35-.63,.53-.95,.43-.78,1.61-1.03,1.59-2.19-.22-.22-.43-.44-.64-.65-.05-.3-.02-.64-.16-.88-.64-1.1-1.37-2.14-1.98-3.25-.66-1.2-1.19-2.46-1.83-3.67-.19-.37-.5-.76-.86-.93-.51-.25-1.12-.39-1.69-.44-2.53-.2-5.07-.35-7.32-.5-.77,.57-1.32,.96-1.86,1.38-.6,.46-1.32,.83-1.74,1.42-.7,.99-1.68,1.6-2.55,2.37-.67,.59-1.24,1.29-1.32,2.25-.3,.21-.62,.39-.89,.62-1.37,1.19-2.65,2.4-4.5,2.99-2,.65-2.78,1.26-2.54,3.63,.04,.34-.03,.69-.08,1.03-.18,1.35-.36,2.71-.52,3.94,3.75,1.74,7.65,1.53,11.56,1.77,0-1.28-.72-2.33-.27-3.48l1.07,3.4,1.7-.23c-.1-.73-.24-1.37-.24-2.02,0-.67,.14-1.34,.23-2.13l-7.97-.15v-.2l4.4-.19c.42-.67,.48-1.56,1.15-2.07l.24,.09-.64,2.12h5.12l.07-4.12c.37,.23,.64,.3,.68,.43,.32,1.2,.42,2.41-.26,3.71l3.11,.09c-.31-1.47,.47-2.93-.53-4.2l-1.5,.45,.08-1.1,2-.33,.11-2.62c-.23-.02-.4-.05-.57-.06-.24,0-.48-.02-.72,0-3.21,.27-6.33-.32-9.43-1-.29-.06-.56-.24-.85-.37,.72,.08,1.44,.13,2.15,.24,1.41,.23,2.81,.49,4.43,.78-.15-.51-.21-.8-.31-1.07-.23-.61-.49-1.22-.7-1.84-.16-.48-.16-.94,.64-1.14l1.05,4.03c1.74,.21,3.44-.03,5.16-.11-.05-.81-.45-1.51-.07-2.16h.31l.46,2.39,7.17,.26c-1.07,.79-2.3,.11-3.34,.48-.63,.74-.09,1.89-.9,2.49l-.28-.05,.08-2.61-3.21-.3-.08,2.75,2.09,.1,.51,.94c.87-.09,1.76-.11,2.63-.28,.91-.17,1.76-.04,2.61,.26Zm-20.42-30.04v.02l.65-.94,.24,.03c-.52,1.26-.15,2.28,.64,3.1l.11,2.39c-.92,.97-1.69,1.77-2.52,2.64l1.17,2.4c-.06,1.17,.71,2.51-.03,3.76l-1.71,1.73-.75-.16-.56,2.07,.74,1.68,1.94,.05c.07,1.31-.19,2.59,.27,4.02,.97-1.56,3.11-1.72,3.28-3.51,.9-.64,1.72-1.1,2.39-1.72,.65-.61,1.4-.93,2.22-.93,1.78-.01,3.57,0,5.34,.18,1.49,.15,2.96,.56,4.55,.88l.65,2.41,.68-.11-.41-1.08,.18-.15,1.18,.97,.16-.11-1.15-1.89,1.61,.5,.57,1.48c.01-.93,.05-1.87,.04-2.81-.02-.94-.09-1.87-.14-2.78-1.13,.05-2.09-.04-2.99,.16-1.59,.35-3.12,.33-4.64-.28-.26-.11-.62-.14-.89-.05-.63,.2-1.1-.06-1.57-.38l-.74,.48c-.56-1.61-.85-3.11-.66-4.68,.05-.37-.07-.75-.05-1.12,.05-.94-.38-1.98,.46-2.8,1.07,.59,2.1,.39,3.12,.09,1.43,.55,2.88,.09,4.31,.12,1.41,.03,2.82,0,4.26,0l-.08-1.83c-.92-.03-1.84-.09-2.56-.81l2,.54c.8-1.15,.86-2.28,.68-3.45-.51-.58-1.14-.77-1.86-.79-.74-.01-1.43-.16-1.83-.63l-.54-1.69-2.55,.49-1.47,2.57c-1.95-1.58-4.15-1-6.4-1.32-1.05-2.36-1.07-5.01-1.16-7.39l.42-1.69c-1-.22-1.84-.38-2.67-.58-1.42-.35-2.8-.45-3.97,.54-1.45,.09-1.57,.14-2.77,1.19l-.06,.88v-.02c-.1,.32-.26,.63-.32,.96-.36,2.1-.76,4.19-1.03,6.3-.41,3.1-.69,6.22-1.11,9.31-.13,.97-.53,1.91-.84,2.85-.06,.18-.25,.34-.42,.44-.89,.5-1.58,1.3-2.65,1.53-.52,.11-.98,.46-1.49,.71-.05,1.71-.1,3.34,.75,4.83,1.13,.22,2.23,.44,3.34,.65l3.77-.47-.45-2.42c.16-.35,.26-.64,.41-.91,.17-.3,.37-.57,.57-.86,.9-.07,2.41-1.05,2.4-1.75-.01-1.02-.12-2.07-.38-3.05-.28-1.06-.78-2.07-1.16-3.02l2.58-2.14c.17-1.09,.28-2.06-.52-2.97-.35-.4-.4-1.07-.58-1.62Zm26.31,70.03l-.46,1.91c.99,.6,1.94,1.15,2.86,1.73,.4,.25,.92,.47,.7,1.29-1.09-1.21-2.51-1.58-3.8-2.2-.34-.17-.6-.5-.83-.71l.36-1.96-2.25-.39-1.3,2.02c-1.23-.37-1.36-.34-2.28,.52l1.11,3.21-1.25,.78c.15,1.64-.18,3.27,.37,4.69l4.59,1.87,2.98-1.78-.49-1.16c-2.03-.17-5.18-2.11-5.56-3.47,1.88,1.33,3.46,3.17,6.01,2.37l.43,2.07,1.56-.34c-.36-1.33-1.65-2.03-1.75-3.37,1.16,1.06,2.56,1.88,3.16,3.39l1.38-.06c-.37-.66-.68-1.18-.97-1.72-.27-.5-.86-.87-.67-1.84,.54,.53,1.02,.88,1.33,1.34,.55,.83,.99,1.73,1.52,2.58,.12,.19,.39,.29,.59,.43l.24-.19c-.18-.68-.39-1.36-.52-2.05-.54-2.84-.42-5.73-.47-8.6-.03-1.61-.03-3.22-.01-4.83,0-.35,.17-.7,.26-1.08,.63-.1,1.17-.22,1.72-.25,1.72-.1,3.44-.16,5.16-.23,1.47-.06,2.95-.13,4.42-.15,.24,0,.48,.18,.71,.27,.05,1.23,.06,2.37,.17,3.5,.11,1.13,.33,2.24,.49,3.31l3.53,2.47c.63-.46,1.46,0,2.02-.8l-1.24-1.03-.21-1.28,.55,.43,.57-.72h1.86l.04-.18-2.56-1.7,.13-.2,3.02,1.72-.41,.94,.8,1.33,1.94,.26-.03,.13h-2.78c.12-1.4-.17-1.71-1.65-1.9l-.76,1.06c.42,.28,.74,.48,1.04,.7,.42,.29,.97,.51,1.23,.91,.63,.97,1.14,2.02,1.66,3.06,.44,.88,.83,1.78,1.23,2.64l1.27,.1,.84-1.06c-.67-.62-1.36-1.11-1.35-2.21l1.07,.23c.46,.64,.81,1.29,1.72,1.21,.03-1.08-1.32-1.09-1.46-2.13,1.16-.05,1.81,.85,2.74,1.25l.84-.28,.08-1.05-.58-2.17-3.85-2.11c-.13-.97-.14-1.74-.36-2.46-.16-.52-.49-1.1-.93-1.4-.6-.42-1.35-.62-2.06-.87-.64-.23-1.32-.38-1.97-.58-.61-.19-1.21-.39-1.85-.6-.48-.39-1.01-.82-1.52-1.26-.15-.13-.32-.29-.38-.47-.67-1.95-1.49-3.86-1.91-5.86-.34-1.62-1.03-3.04-1.55-4.44l-2.14-1.28c-2.63,1.42-5.4,2.91-7.77,5.18h-1.27c-.44,.63-.39,1.16,0,1.69,.53,.74,1.04,1.48,1.59,2.26-.96-.25-2.3-2.39-2.45-3.77-2.78-.09-5.58,.32-8.03-.49l-1.84-2.01c-.43,.02-.97,.15-1.44,.03-.5-.12-.95-.47-1.24-.62-.85-1.89-1.57-3.56-2.35-5.22-.15-.33-.5-.57-.64-.72l-1.74,.73c-.72,.83-1.6,1.79-2.44,2.8-1.05,1.25-2.27,2.18-3.95,2.42-.8,.11-1.58,.34-2.44,.54-1.79-.51-3.57-.07-5.35,.48,.04,4.47-1.05,8.77-1.58,13.14,2.17,1.29,2.35,3.83,3.67,5.91-.11-2.12-.86-3.93-.68-5.86,1.03,1.82,1.15,3.88,1.66,5.93l.86,.43c.4-1.74,.22-3.29-.46-4.79l1.18-2.09-.21-4.81,1.34-.35c.82,.13,1.65,.06,2.46,.15,1.98,.23,3.96,.52,5.93,.82,.93,.14,1.86,.37,2.78,.56l-.02,.11,.99,.2-.11,5.19c.8,1.2,1.24,1.54,2.44,1.85l1.07-1.57,1.86-.21-.04,.23,2.1,.58-.02-.02Zm-36.6-75.26l-.25,.21c.17,2.15,1.34,3.99,2.08,6.03l-.94,.67c-1.62-.83-3.13-1.6-4.64-2.37l-.2,.19,.99,1.59c-.14,1.37,.78,2.41,1.48,3.48-.48,.83-.72,.95-1.41,.66-.7-.29-1.38-.64-2.03-.94l-1.22,.5,.66,.32,1.83,4.59-.92,.79c-1.37-.58-2.69-1.14-4.16-1.76l-2.1,.39c-.13,.37-.27,.75-.41,1.14-.13,.37-.25,.75-.39,1.17,2.2,.62,4.28,.99,6.25,.46,1.48,.67,2.61,1.45,3.13,2.9,.15,.43,.53,.78,.8,1.17l.21-.05-.1-2.36h.23c.43-2.52-.5-5.14,.36-7.71l.76-.66c-.2,2.57-.67,4.97-.28,7.4,.76-.41,1.44-.82,2.16-1.13,.94-.41,1.49-1.09,1.7-2.06,.2-.94,.42-1.87,.58-2.82,.28-1.62,.63-3.24,.74-4.87,.16-2.17,.36-4.33,.85-6.46,.39-1.73,.6-3.51,.9-5.28,1.32-1.02,2.93-1.32,4.42-1.87,1.63-.6,3.28-.11,4.87,.25,1.6,.37,3.15,.94,4.88,1.47l.43-.28c.15,1.14,.41,2.25,.41,3.36,0,1.71,.7,2.88,2.25,3.57,.09,.04,.18,.1,.41,.22,.73-.13,1.56-.39,2.4-.41,.81-.02,1.71-.28,2.44,.4l.16,1.49,2.88,.89,.28-4.92,.89-2.15c1.57-1.13,3.4-.62,5.14-1.02l.59-4.06,2.36-.31,1.08-2.34,1.24-.62,.68-1.54-.18-.04,.5-2.69-.16-1.11c.94-.15,1.19-.68,1.15-1.5-.03-.65,.04-1.31,.17-1.95,.06-.3,.35-.55,.53-.83l.23,.1-.16,3.64,1.81-.22c.02-1.11,.03-2.09,.06-3.08,.04-1.24,.1-2.48,.18-3.71,.03-.45,.15-.86,.86-.93l-.31,7.41c.9,.21,1.78,.36,2.61,.64,.5,.17,1.05,.45,1.36,.85,.91,1.16,2.1,1.92,3.41,2.43,1.24,.48,1.74,1.3,1.89,2.54,.16,1.4,.42,2.79,.65,4.25l4.2,2.28c.08-1.15,.16-2.06,.2-2.97,.04-.93,.02-1.86,.05-2.79,.01-.49,.16-.92,.74-1.23,.04,.4,.09,.7,.09,1,0,1.76-.01,3.52-.01,5.28,0,.3,.06,.61,.11,.91,.08,.5,.22,.99,.26,1.49,.04,.51-.01,1.03-.01,1.55,0,1.13,.04,2.26,0,3.39-.03,1.1-.19,2.2-.19,3.3,0,2.03,.1,4.06,.09,6.08,0,.81,.17,1.49,.79,2.09l.84-.12c.06-2.87,.12-5.72,.18-8.78,.94-.87,1.02-2.24,1.1-3.6,.1-1.91,.15-3.83,.23-5.74,.04-.86,.09-1.72,.13-2.58,.08-1.78,.15-3.57,.27-5.35,.01-.19,.32-.36,.49-.54l.29,.15c-.07,.84-.19,1.68-.22,2.52-.1,3.37-.19,6.74-.27,10.12-.01,.59-.13,1.22,.33,1.74,.68-1.29,1.32-2.51,2-3.81l1.18-.05,3.01-1.63-.1-.2,1.16-.43c.15-1.21,1.38-2.13,.75-3.46,1.37-.72,1.85-.6,3.73,.95,.06,4.51,.06,9.07,.57,13.47,1.41,.56,2.61,1.03,3.95,1.57,.04-.48,.1-.91,.1-1.33,.02-.89-.02-1.79,.02-2.68,.02-.53,.25-.97,.79-1.07l.24,5.44c.96,.84,1.85,1.6,2.7,2.39,.15,.14,.17,.45,.19,.68,.13,1.47,.22,2.95,.36,4.42,.04,.47,.16,.93,.25,1.39h-.05l.16,3.72c.99,.45,1.94,.39,2.91,.36,.95-.03,1.91,.18,2.84,.27-.37-1.62-.73-3.17-1.1-4.8-1.04,.17-2.11,.34-3.15,.51-.91-.71-.88-1.76-.65-2.5,.46-1.49,.77-3.1,1.86-4.24l.09-2.2-.87-2.29c-1.47,.09-2.91,.44-4.38-.37l.18-3.12-.4-.83,1.51-3.35-4.35,.19-.66-.71c.32-2.28,1.96-3.73,3.15-5.68l-4.76,.21-1-1.26,1.73-4.73-.16-.16c-1.83,1.22-3.89,1.79-5.89,2.41l-1.35-1.51c.54-1.21,1.06-2.36,1.57-3.52-.89-.25-.87-.23-1.53,.11-1.53,.78-3.07,1.54-4.53,2.27-.95-.81-1-1.27-.36-2.12,.53-.71,.97-1.45,1.21-2.44-.29,.09-.46,.11-.6,.18-1.37,.73-2.76,1.41-4.08,2.21-.86,.52-1.72,.73-2.81,.63-.09-.34-.28-.7-.25-1.04,.05-.61,.18-1.23,.38-1.81,.44-1.26,.77-2.53,.86-3.96-.19,.11-.29,.14-.36,.2-1.44,1.48-2.89,2.96-4.31,4.47-.39,.42-.81,.63-1.36,.5-.54-.26-.76-.68-.77-1.26-.03-2.24-.07-4.48-.12-6.73,0-.25-.06-.49-.09-.74l-.2-.02c-.78,2.68-2.13,5.08-3.57,7.54-.45-.46-.8-.92-1.02-1.43-.35-.82-.54-1.72-.94-2.51-.63-1.26-1.37-2.46-2.07-3.69-.53-.94-1.07-1.89-1.65-2.92-.81,.91-1.13,1.89-1.5,2.85-.27,.7-.45,1.45-.76,2.13-.38,.83-.87,1.61-1.29,2.42-.31,.6-.57,1.21-.85,1.81-.9-.34-.96-.37-1.22-1.11-.33-.94-.58-1.91-.93-2.85-.28-.75-.64-1.46-.97-2.19-.31,.95-.37,1.83-.55,2.68-.18,.87-.5,1.72-.74,2.59-.22,.83-.41,1.67-.62,2.5l-.41,.11c-1.5-2.08-2.12-4.73-3.95-6.62,.22,2.15,.6,4.25,.86,6.36,.26,2.12,.38,4.25,.58,6.57l-.38,.64-.92-.53c-1.06-2.04-2.12-4.06-3.23-6.19-.11,1.58-.23,3.01-.3,4.44-.07,1.46-.06,2.92-.48,4.47l-1.44-1.6-.16,.08-1.42-4.95c-.49,.7-1.02,1.37-1.46,2.1-.44,.73-.78,1.51-1.23,2.38l-1.06-.81c-.08-1.81-.2-3.53-.22-5.25-.02-1.72,.06-3.43-.45-5.13-.85,2.69-1.7,5.38-2.59,8.17l-1.11-.61c-.67-2.29-.99-4.56-1.9-6.7-.27,.81-.43,1.61-.49,2.41-.16,2-.23,4-.88,5.92-.11,.32-.3,.62-.55,1.11-1.06-2.34-2.01-4.46-3.02-6.69-1.41,2.67-1.26,5.42-1.43,8.06-.74,.17-1.18-.03-1.53-.48-.53-.68-1.07-1.34-1.62-2.01-.38-.47-.77-.93-1.16-1.39l-.31,.11c-.25,2.53,.39,5.03,.52,7.49-.64,.73-.97,.8-1.51,.39-1.35-1.02-2.71-2.04-4.1-3.07-.33,1.03-.77,1.94-.46,2.97,.32,1.05,.63,2.11,.95,3.16,.11,.36,.37,.71,.36,1.06-.01,.9,.29,1.68,.7,2.46,.12,.23,.14,.52,.22,.85l-.74,.51-3.01-1.38Zm45.66-15.85c-.27,1.78-.55,3.6-.82,5.41l-1.72,.53-.57,2.93-2.79-.21-.49,3.45-.11-.1-.8,1.07c-1.46,.55-3.08-.33-4.52,.91-.17,1.32-.44,2.77-.52,4.23-.11,1.82-.02,3.64-.12,5.46-.14,2.78-.3,5.56-.56,8.32-.33,3.44-.08,6.86,.05,10.29,.06,1.48,.12,2.92-.19,4.38-.13,.62,.05,1.27,.49,1.92,1.98-.99,3.34-2.61,4.9-4l-.09-.26-1.99-.23c-.14-.96-.47-1.98-.41-2.97,.14-2.4,.45-4.79,.7-7.19,0-.09,.1-.17,.17-.28l.73,.18c1.03-.24,1.72-1.31,2.91-.53-.03,3.08-.06,6.21-.09,9.33l.3-.08c.28,.56,.63,1.09,.83,1.67,.41,1.23,.98,2.47,.16,3.76-.04,.07,.03,.2,.02,.3-.11,.98,.02,1.88,.59,2.76,.32,.49,.38,1.17,.51,1.78,.35,1.54,.67,3.08,1.01,4.68l1-.04c-.64-.86-.52-1.82-.49-2.73,.07-1.65,.25-3.29,.4-4.94,.03-.33,.14-.65,.19-.89,1.06-.21,2.01-.38,2.95-.61,.47-.11,.87-.2,1.17,.35l-.27,.87h.18c.02,2.43,.05,4.86,.07,7.48,.3-.27,.63-.45,.77-.72,.32-.63,.55-1.31,.83-1.96,1.11-2.61,2.23-5.22,3.34-7.84,.1-.24,.12-.52,.2-.9l-1.33-.45c-.86-3.72-.17-7.49-.14-11.32l1.53,.52-.02-.16,2.79-.52c.1,2.22-.04,4.36-.11,6.49,.76,1.03,1.9,1.19,3.02,1.32,.21,.02,.44-.21,.75-.36l-1.72-2.85,.2-.13c1.16,.49,1.55,1.69,2.35,2.6,.08-.28,.1-.56,0-.78-.61-1.27-1.26-2.53-1.88-3.8-.08-.16-.09-.36-.14-.54,1.43,1.18,1.99,2.87,2.75,4.48l1.03-.87c-.61-1.34-1.19-2.64-1.78-3.93l.27-.14c.81,1.39,1.62,2.78,2.53,4.33,.16-2.05,.3-3.85,.42-5.47-.53-.53-1.02-1.03-1.51-1.5-.14-.14-.31-.27-.49-.36-.79-.39-1.59-.77-2.64-1.27-.12-.6-.32-1.39-.41-2.2-.07-.61,.02-1.24,0-1.85-.09-2.61-.2-5.23-.28-7.84-.02-.67,.03-1.34,.05-2.2-.77-.09-1.4-.12-2-.25-.39-.08-.79-.23-1.12-.45-.77-.54-1.5-1.14-2.24-1.72l-.11,.13-.44-.77c-.22-2.23-.42-4.25-.61-6.26-.03-.31-.03-.62-.01-.92,.08-1.2,.21-2.4,.24-3.61,.02-.94-.07-1.89-.12-2.93-.63-.13-1.14-.26-1.66-.34-.63-.1-1.27-.25-1.89-.2-1.04,.09-2.07,.33-3.17,.52Zm7.21,57.43c-.38,.07-.59,.16-.79,.15-2.13-.14-4.15,.48-6.2,.87-.5,.1-1.03,.01-1.53,.1-.63,.12-1.42-.2-1.84,.54l.31,1.55-.64,.81c.07,2.02-.77,3.96-.35,5.98l1.96,.2-.22,.57-1.91,.36-1.05,4.9,1.55,.75c2.27-1.28,2.79-3.22,3.03-5.28l-1.18-.73c1.38-1.5,1.54-3.86,3.78-4.54l2.83,.86c.84,.51,.69,1.77,.78,2.89,.66,.11,1.28,.1,1.79,.33,1.06,.46,2.13,.96,3.08,1.61,1.11,.76,2.37,.95,3.62,1.37l.32-4c-2.12-.11-4.13-.22-6.15-.32v-.25c2.08,.08,4.13-.43,6.22,.17l.42-4.38c.9-.96,2.09-1.31,3.36-1.39l.32-2.23c1.15,.64,.44,1.67,.74,2.16,1.71,.22,3.27,.42,4.64,.6l1.27,1.31,1.53-.31c.34-.78-.19-1.78,.69-2.44,.86,.78,0,1.64,.13,2.45,1.49,.45,3.13,.19,4.5,1.03-.24,.11-.47,.15-.69,.13-1.68-.18-3.36-.39-5.05-.56-.39-.04-.79,.03-1.26,.05-.33,2.81,.28,5.4,.32,7.92,1.08,.26,1.99,.37,2.8,.72,1.04,.45,1,.53,1.77-.16l2.45-.43c.26-2.52,.52-4.93,.77-7.36,1.01,.08,1.1-1.1,1.76-1.64-1.28,2.92-.88,6.01-1.31,9.14l3.58-.39c.29-2.95,.57-5.84,.84-8.74,.02-.18-.15-.37-.24-.59l-1.48,.07c-.9-.36-1.77-.61-2.53-1.04-.78-.44-1.46-1.06-2.42-1.78-.41-.01-1.16-.03-1.9-.06-.68-.02-1.37-.15-2.04-.05-1.87,.26-3.59-.24-5.25-.73,.01-.82,.01-1.5,.04-2.18,.03-.66-.18-1.38,.48-1.94,.18,.15,.46,.28,.46,.41,.01,1.19-.02,2.38-.04,3.67,1.1,.43,2.37,.39,3.63,.31,1.07-.07,2.12-.21,3.18,.1,.52,.15,1.1,.1,1.82,.15l-1.35-4.32c-.79-.04-1.45-.07-2.1-.1-.89-.04-1.81,.04-2.67-.15-1.05-.23-2.07-.45-3.15-.33-.95,.11-1.91,.13-2.87,.13-.78,0-1.56-.12-2.34-.11-.47,.01-1.01,.09-.91,.87l.63,.67,.11,2.61-1.58,.07c.31-1.36,.65-2.67,.5-4.1l-4.16-.13c-1.25,1.83-2.39,3.64-4.42,4.79l-.4-.59Zm-58.65,35.81c-.22-2.71-.3-5.23,.88-7.8l.94-.78,5.63-.5c-.16,.25-.23,.48-.33,.5-.87,.15-1.75,.24-2.62,.39-1.06,.19-2.23-.06-3.26,.89-.19,1.81-.46,3.71-.58,5.63-.1,1.5-.24,3.08,1.36,4.04,.08,.05,.14,.15,.2,.23,1.59,1.9,3.17,3.8,4.77,5.69,.29,.34,.68,.59,1.08,.92,.32-1.16-.49-2.21,.32-3.36l.06,1.44h.21c.08-.62,.23-1.26,.21-1.88-.06-1.48,.39-2.82,.81-4.21,.39-1.28,.9-2.45,1.87-3.36,.79-.75,1.38-1.53,1.18-2.9-.51-.93-1.11-2.05-1.73-3.16-.34-.61-.83-.99-1.56-1.04-.24-.02-.47-.12-.7-.19v-.2l.99-.39c-.05-.38-.06-.75-.15-1.1-.33-1.19-.64-2.38-1.04-3.54-.3-.86-.62-1.74-1.11-2.5-.49-.76-1.13-1.41-2.12-1.67-1.14-.29-2.04,.07-2.87,.76-1.17,.97-2.62,1.25-4.02,1.38-2.09,.18-3.68,1.22-4.11,3.29-.31,1.51-.44,3.06-.55,4.6-.03,.43,.21,.93,.45,1.33,.4,.67,.98,1.25,1.34,1.94,1.03,1.99,2.69,3.48,4,5.24,.07,.1,.21,.15,.45,.31Zm77.21-79c-.17,.3-.27,.48-.38,.66-1.04,1.62-1.61,3.56-3.1,4.86-1.26,1.09-1.08,2.49-.95,3.81,.14,1.38,.32,2.72,0,4.1-.11,.46-.09,.95-.13,1.46l1.95-1.32c.3-1.81,.61-3.71,.95-5.73,.46-.16,.99-.51,1.48-.48,1.5,.11,2.98,.37,4.63,.6,.26,4.71,.51,9.27,.76,14,.93-.04,1.68-.09,2.42-.1,.86-.02,1.8-.31,2.4,.41l.27,6.06,.88-.74c.25,.64,.7,.72,1.19,.47,.84-.97,1.44-1.98,1.45-3.26,0-1.08,.06-2.17,.09-3.25,0-.38,.06-.76,.01-1.13-.28-2.22-.57-4.43-.9-6.64-.19-1.29-.47-2.57-.74-3.99l-2.94-.95-.61-.88-.57-13.05c-.64-.52-.94-1.34-1.97-.88-.76,1.23-.14,2.95-.98,4.31l-.9-.28-.38,.84-2.06,.5-.47,1.11-1.4-.45Zm-44.35-31.11c1.1,.25,2.03,.52,2.98,.64,.81,.11,1.65,0,2.47,.08,2.8,.26,5.43-.36,7.99-1.4,.42-.17,.85-.29,1.28-.44l.23,.1c.12-.87,.32-1.73,.35-2.6,.06-1.51-.03-3.03,.04-4.54,.05-1.09-.02-2.11-.6-3.08-.35-.57-.51-1.26-.82-1.86-.27-.51-.6-.99-.95-1.46-.26-.34-.59-.62-.89-.93-2.15-1.66-4.32-3.36-7.3-2.21-.44,.39-.89,.75-1.37,1.08-.74,.52-1.43,1.08-1.81,1.94-1.02,2.31-1.69,4.73-1.84,7.25-.12,2.09,.02,4.2,.07,6.3,0,.36,.11,.72,.18,1.13Zm60.03,72.77l.41-.12c.71,.71,.49,1.77,.71,2.64,.23,.94,.13,1.96,.18,3l.71-.11c.46-1.16-.51-2.34,.24-3.65,.63,1.16,.9,2.18,1.01,3.24,.05,.46,.15,.8,.89,.63-.28-1.38-.55-2.72-.83-4.06-.08-.38-.31-.76,.29-1.21,.52,1.51,1.01,2.91,1.51,4.37,.5-1.34,.97-2.62,1.53-4.11-.21-.54,.5-1.43-.18-2.35-1.06,.59-1.99-.08-2.98-.33-.1-.03-.21-.08-.3-.06-.76,.22-1.22-.29-1.78-.68-.1-.68-.08-1.43-.79-1.82l-.04,.9-.29,.04-.7-1.44-1.41-.27-.85,.53-.86,1.62-1.95-.63c-.08-.39-.22-.8-.26-1.23-.14-1.57-.25-3.15-.39-4.73-.1-1.09-.3-2.18-.32-3.28-.02-.96,.19-1.91,.21-2.87,.02-.97-.07-1.95-.12-3.02l-2.3,.1v-.03l-1.89,.08-1.25,1.22-2.61-1.09c-.26-1.54-.49-2.83-.7-4.12-.21-1.29-.41-2.58-.62-3.88-.73-.2-1.41-.39-2.21-.61-.3,2.34-.54,4.54-.45,6.78,.09,2.2,.03,4.41,.04,6.56,1.29,.07,2.44-.46,3.44,.31,.42,1.3-.2,2.71,.65,3.87l2.03,.18c.33,1.97,.61,3.76,.96,5.53,.08,.38,.46,.7,.71,1.05,.29,.41,.69,.78,.83,1.24,.35,1.08,.56,2.2,.86,3.3,.09,.33,.3,.63,.46,.95l.17-.07c-.16-1.08-.31-2.16-.47-3.24l-.6-.3c-.25-2.31-.5-4.56-.74-6.82l.34-.05,.84,4.35,.69,.52c.33,2.15,.66,4.28,.98,6.41l-.19,.07,.52,.28c.51-1.95,0-3.85,.05-5.91,.23,.23,.38,.3,.39,.4,.32,1.86,.63,3.71,.94,5.59,.71-1.93-.09-4.01,.36-5.97h.22l1.93,5.28,.23-2.25c.6-.64,.91-1.65,2.01-1.88,.02,2.22,.03,4.39,.05,6.61l.92,.11-.25-5.61Zm-41.67-87.43c-1.2,.8-1.58,1.98-1.82,3.17-.25,1.28-.26,2.6-.42,3.9-.27,2.24-.32,4.45,.63,6.68,.42,.12,.9,.31,1.4,.4,1.52,.28,3.04,.53,4.56,.8,.46,.08,.91,.28,1.37,.3,.74,.03,1.48-.05,2.22-.08,.57,.04,1.14-.05,1.72-.08,1.85-.11,2.35-.56,2.55-2.37,.09-.84,.25-1.68,.23-2.52-.02-.88-.19-1.76-.35-2.64-.12-.64-.35-1.26-.48-1.9-.07-.39-.03-.8-.04-1.21l.29-.03,.66,2.63c.81-1.86,.66-4.18-.32-4.83,.14,.83,.26,1.51,.42,2.42-.25-.35-.42-.51-.49-.7-.47-1.14-.87-2.3-1.38-3.42-.58-1.26-1.52-2.25-2.52-3-.68-.15-1.24-.3-1.81-.4-.87-.16-1.75-.32-2.61,.11-.36,.18-.78,.3-1.18,.37-1.4,.25-2.04,1.28-2.63,2.39Zm42.21,21.59c-.06,1.34,.07,2.59-.21,3.73-.28,1.12,.07,2.35-.54,3.39-.11-1.9-.12-3.77-.12-5.65,0-1.83-.16-3.64-.58-5.43-.21-.89-.76-1.47-1.59-1.75-.55-.18-1.13-.29-1.71-.35-.87-.08-1.58,.23-1.91,1.08-.33,.87-.59,1.76-.88,2.64-.23,.68-.38,1.41-.7,2.04-.32,.61-.34,1.19-.16,1.8,.36,1.26,.69,2.54,1.18,3.75,.68,1.67,1.78,2.97,3.74,3.16,.57,.06,1.16,.04,1.84,.06,.07-.05,.25-.16,.41-.29,.18-.14,.35-.3,.53-.45l.16,.11-.99,1.83c0,1.57,.74,3.15,1.89,4.53,.27,.32,.71,.51,1.1,.68,.34,.15,.73,.19,1.09,.28l1.37-.35,1.34-1.26c.15-.73,.37-1.66,.52-2.6,.11-.71,.07-1.44,.21-2.14,.2-.99,.27-1.96,.04-2.96-.19-.83-.13-1.73-.39-2.52-.32-.96-.79-1.91-1.35-2.76-.59-.9-1.36-1.76-2.62-1.44-.57,.15-1.08,.55-1.67,.87Zm-88.74,79.56c-.72-2.35-1.36-3.56-2.66-4.94-1.45-.37-2.02-.23-3.08,.78-.63,.6-1.39,.97-2.24,.93-.81-.03-1.66-.15-2.42-.44-1.5-.57-3.81,.25-4.23,1.76-.38,1.35-.77,2.71-.95,4.1-.28,2.15-.08,4.24,1.21,6.13,.55,.81,.81,1.81,1.23,2.71,.3,.65,.65,1.28,1.01,1.97l1-3.38,.22,.06,.15-1.1c.69-.62,1.43-1.39,2.29-1.99,.47-.33,1.14-.41,1.73-.54,1.03-.22,2.2-.17,3.09-.65,1-.54,1.94-1.15,3.05-1.46,.26-.07,.48-.24,.76-.38l-.16-3.57Zm-6.62-51.57l-3.13-1.69c-1.03,.16-1.73,.27-2.23,.35-1.73-.63-2.61-1.84-3.34-3.15l-1.45,1.16c-.3,.48-.72,.97-.93,1.53-.98,2.57-2.09,5.09-1.97,7.96,.1,2.49,1.95,4.32,4.44,4.12,.54-.04,1.08-.14,1.68-.22,.48,.13,1.04,.29,1.6,.43,.6,.15,1.21,.29,1.81,.44,1.63,.41,2.91-.57,3.4-1.55,.51-1.01,.82-2.11,1.17-3.19,.14-.42,.23-.89,.17-1.32-.17-1.44,.09-2.83,.4-4.35l-1.64-.51Zm16.76-22.28c.71-.49,1.38-.88,1.97-1.37,.94-.78,1.78-1.67,2.19-2.88,.3-.88,.65-1.74,.96-2.61,.23-.64,.43-1.29,.73-2.17l-.22-4.92c-.16-.2-.48-.43-.51-.68-.15-1.66-1.36-2.84-1.86-4.33-.34-1.01-1.03-1.68-1.84-2.29-.85-.63-2.03-.42-2.58,.5-.26,.44-.49,.91-.65,1.4-.46,1.36-.93,2.73-1.31,4.12-.53,1.96-1.25,3.9-.88,5.98,.34,1.93,.62,3.89,1.66,5.61,.11,.18,.19,.37,.25,.56,.39,1.13,1.11,2.03,2.08,3.06Zm60.74-13.47c-.17-1.08-.53-2.59-.63-4.13-.17-2.54-1.25-4.69-2.63-6.72-.64-.94-1.52-1.71-2.29-2.54-1.57,0-2.81,.44-3.49,1.95-.55,1.22-1.23,2.38-1.73,3.61-.32,.78-.63,1.67-.56,2.49,.13,1.62,.04,3.22-.06,4.84-.02,.4,.14,.92,.4,1.22,.87,1.01,1.98,1.68,3.31,1.97,2.07,.45,4.21,.61,6.19,1.43,.33,.14,.71,.15,1.06,.22l.46-1.04h-.12l.08-3.28Zm-23.61,134.34c.66,.48,1.07,.86,1.55,1.12,.43,.23,.94,.46,1.41,.47,1.71,.03,3.33-.36,4.85-1.22,.72-.41,1.15-.95,1.44-1.67,.24-.6,.46-1.22,.69-1.83,.09-.26,.23-.51,.25-.78,.18-2.16,.35-4.33,.5-6.49,.03-.49-.04-.99-.06-1.48h-.16l.4-.5-1.12-1.43c-.86,.7-1.72,.35-2.58,.11-.23-.06-.48-.02-.72-.05-1.95-.18-3.72,.43-5.46,1.28l-1.05,1.36,.06,11.13Zm-19.91-133.99c0-.84,.04-1.83,0-2.82-.06-1.23-.33-2.47-.23-3.69,.13-1.54-.81-2.49-1.6-3.52-.58-.75-1.39-1.32-2.05-2.02-1.14-1.21-2.55-1.86-4.61-.68-2.66,5.19-2.67,10.69-2.1,16.3,1.99-.35,3.66-1.52,5.65-1.43,.28,.01,.59-.18,.87-.3,1.31-.59,2.62-1.19,4.08-1.85Zm-20.31,109.57c-.22,.49-.4,.89-.59,1.28-.76,1.62-1.56,3.22-1.65,5.08-.03,.71-.19,1.44-.43,2.12-.5,1.44-.29,2.33,.85,3.29,1,.83,1.99,1.68,2.97,2.53,.31,.27,.56,.6,.87,.86,.88,.76,1.74,1.55,2.68,2.24,.28,.21,.82,.23,1.19,.12,.88-.26,1.73-.64,2.67-1-.99-2.86-1.05-5.8-1.26-8.72-.04-.58-.07-1.21-.3-1.72-1.06-2.35-2.15-4.69-3.32-6.99-.31-.61-.96-1.05-1.63-1.13l-1.28,1.2c-.08,.37-.2,.9-.78,.85Zm97.74-36.23c-1.47,.09-2.55,1.1-3.87,.82-1.26-.27-2.5-.6-3.77-.91-1.25,.68-2.06,1.73-2.52,3.02-.35,1-.58,2.05-.79,3.1-.3,1.46-.33,2.92-.07,4.42,.24,.06,.46,.19,.63,.14,.96-.28,1.82,.01,2.7,.35,.68,.26,1.34,.2,1.95-.29,.23-.19,.53-.36,.82-.41,2.15-.39,4.1,.02,5.75,1.54,.28,.26,.59,.48,.94,.77,1.27-3.24,1.87-6.46,2.45-9.7-.94-.84-1.77-1.58-2.58-2.3l-.96,.28c-.15-.15-.28-.26-.39-.39-.11-.13-.21-.28-.31-.41Zm-59.52,47.55c-2.92-1.15-5.91-1.44-8.63,1.27,.03,.66,.05,1.48,.1,2.3,.15,2.4,.38,4.78,1.24,7.07,.67,1.79,1.75,3.16,3.63,3.6,1.72,.41,3.47,.43,5.03-.8-.1-4.24-.19-8.46-.29-12.63l-1.08-.82Zm-57.17-87.82c.33-.07,.7-.08,1-.22,.69-.33,1.34-.24,1.99,.07,1.03,.49,2.08,.93,3.06,1.5,1.17,.67,2.38,.83,3.68,.64,1.02-.85,3.34-6.57,3.17-7.83l-.37,.18-.24-1.36c-2.61,1-4.67-.04-6.58-1.12l-1.45-1.72-.17-3.79c-.9,.22-.9,.91-1.01,1.31-.83,.7-1.59,1.23-2.22,1.89-.82,.87-1.58,1.82-2.28,2.79-.48,.66-1.09,1.4-1.17,2.15-.26,2.49-.14,3.97,2.6,5.52Zm105.18,52.18c-1.97,1.27-3.07,5.77-2.24,8.32l2.83,.89c.61,.06,1.24-.11,1.88-.22,1.17-.19,2.35-.42,3.53-.48,.85-.05,1.59,.27,1.98,1.19,.26,.6,.72,1.1,1.19,1.8,.29-.46,.51-.72,.63-1.03,1-2.59,2-5.18,2.96-7.79,.18-.48,.15-1.04,.21-1.44-.55-.42-.95-.68-1.31-1-1.56-1.39-3.82-1.71-5.6-.66-.99,.59-1.87,.55-2.91,.14-.62-.24-1.39-.12-2.1-.08-.36,.02-.71,.23-1.06,.35Zm-109.95,5.76l.3-.07c.03-.26,.06-.52,.1-.79,.24-1.67,.42-3.35,.74-5,.37-1.97,2.65-3.39,4.38-2.83,.49,.16,.99,.28,1.5,.4,1,.24,2.01,.36,2.84-.41,1.02-.94,2.11-1.65,3.72-1.33-.14-.68-.17-1.21-.36-1.67-.42-1.01-.88-2.02-1.42-2.98-1.28-2.32-3.78-2.67-5.8-1.16-.75,.56-1.45,.51-2.24,.37-.84-.15-1.68-.35-2.53-.42-1.15-.1-2.56,.83-2.91,1.92-.61,1.87-1.16,3.75-1.73,5.62,.55,3.04,2.51,5.47,3.41,8.35Zm32.9,23.9c-.14,.49-.37,.97-.4,1.46-.16,2.73-.29,5.44,.46,8.15,.53,1.94,1.31,3.7,2.46,5.31,1.17,1.64,4,2.25,5.33-.15,.61-1.1,1.17-2.23,1.79-3.41l-.07-6.13-3.38-2.64c-1.14-.09-2.24,.2-3.06-.75-.51-.59-1.05-1.16-1.44-1.6l-1.69-.22Zm71.98,5.29c-.99-4.31-1.9-8.62-5.11-12.17-.55,.71-1.07,1.3-1.49,1.94-.67,1.03-1.32,2.07-1.89,3.15-.64,1.22-1.54,2.36-1.1,3.93,.48,1.73,.23,3.48,.03,5.23-.12,1.04-.12,2.1-.18,3.25l3.76,1.34,1.05-1.27,.6,.32-.17-.82c1.57-1.72,3.05-3.32,4.5-4.9Zm4.83-88.17c-.24,2.75-.06,5.21,.74,7.63,.7,.57,1.43,.48,2.2,.11,1.49-.7,2.92-1.34,4.71-.67,1.27,.47,3.1-.43,3.84-1.76,.86-1.54,1.2-3.15,.84-4.88-.3-1.44-.66-2.86-1.05-4.28-.29-1.06-.67-2.09-1.52-2.88-.75-.7-1.66-.92-2.47-.52l-.44,4.51c-.53,.37-.84,.84-1.25,1.2-.99,.86-2.05,1.56-3.48,1.45-.66-.05-1.33,.04-2.13,.08Zm-31.7,100.74c.91-.12,1.77-.19,2.61-.35,.39-.08,.82-.25,1.09-.52,1.76-1.74,3.1-3.72,3.5-6.24,.19-1.18,.48-2.34,.7-3.52,.14-.74,.27-1.49,.32-2.24,.03-.48-.11-.97-.17-1.43-1.94,.24-3.69,.46-5.04,.62l-5.34,2.76-.65,6.85c.93,.3,1.16,1.1,1.38,1.92,.25,.89,.74,1.62,1.6,2.15Zm25.93-29.65c.93-.04,1.8-.21,2.62-.08,.81,.13,1.57,.56,2.41,.89,.95-.67,2-.24,3.05-.15,1.19,.11,2.06,.65,2.55,1.8l1.35-1.53c.17-.29,.46-.71,.68-1.17,.71-1.52,1.4-3.05,2.08-4.59,.31-.7,.17-1.37-.37-1.9-.52-.52-1.09-.99-1.63-1.48-1.19-.52-2.44-.28-3.56,.05-1.56,.45-2.98,.57-4.52-.07-1.2-.5-2.32-.11-3.16,.88-.61,.72-.98,1.58-1.07,2.53-.15,1.6-.28,3.21-.42,4.83Zm-50.37,27.37c-.64-2.6-.54-5.38-1.19-8.05l-1.24,.05c-2.41-.87-4.59-2.51-7.44-2.17-.02,.03-.08,.11-.12,.21-.05,.13-.13,.26-.13,.39-.05,1.7-.49,3.4-.02,5.12,.23,.86,.35,1.75,.5,2.63,.28,1.64,.97,3.12,1.85,4.51,.15,.24,.44,.45,.71,.56,.51,.2,1.04,.35,1.58,.47,1.99,.45,3.16-.11,4.42-1.68,.46-.58,.71-1.32,1.08-2.02Zm52.72-11.67l.07,.09c.23-.42,.42-.87,.7-1.25,1.18-1.64,2.39-3.25,3.59-4.88,.47-.64,.94-1.29,1.4-1.94,.33-.46,.68-.92,.97-1.4,.44-.72,.92-1.44,1.25-2.21,.17-.4,.04-.92,.05-1.42l-.73-.08-.27-.76-2.98-.86-.03,.3-2.35,.1c-1.62-1.22-4.18-1.14-4.98,.33-.46,1.48-.87,2.78-1.26,4.03,.94,1.78,2.03,3.34,2.39,5.25,.35,1.83,.83,3.63,1.25,5.41l.94-.73Zm-94.09-107.05c-1.49,2.38-2.47,6.69-2.56,8.88-.03,.76,.04,1.68,.44,2.27,1.62,2.41,4.78,3.12,7.52,1.91,.34-.15,.72-.49,.84-.82,.63-1.69,1.25-3.39,1.73-5.13,.18-.64-.03-1.39-.06-2.04-.31-.1-.44-.14-.57-.18-2.42-.82-4.11-3.16-3.84-5.49,.1-.86-.03-1.61-.39-2.56l-.9,1.26c-1.36-.15-1.53,.79-1.51,1.87l-.71,.03Zm81.71-18.21c-.31,.07-.83,.11-1.27,.32-.39,.18-.65,.61-1.03,.84-1.37,.83-1.73,2.36-2.57,3.56-.05,.08-.04,.2-.06,.3-.17,.76-.34,1.52-.58,2.57,.07,.33,.24,.96,.36,1.6,.29,1.59,.6,3.17,1.46,4.57,.36,.59,.74,1.17,1.09,1.76,.55,.94,1.86,1.36,2.78,.78,1.39-.87,2.33-2.15,2.75-3.72,.34-1.25,.51-2.55,.68-3.43-.54-2.01-.99-3.63-1.42-5.26-.36-1.38-.62-2.81-2.2-3.89Zm-6.58,123.51c-1.03,2.98-.57,6.27-1.34,9.22,1.12,1.59,.98,3.68,2.54,4.95,.91-.14,1.73-.49,2.32-1.29,1-1.35,1.99-2.7,3.09-4.2,.53-3.34,1.08-6.85,.66-10.38l-1-.68-1.59,.07c-.53,.32-.93,.76-1.35,.78-1.3,.06-2.22,.82-3.34,1.52Zm-65.55-115.55c-.26-.36-.49-.65-.69-.95-.65-.97-1.8-1.21-2.68-.45-.48,.42-.99,.94-1.19,1.52-.67,1.88-1.18,3.82-1.03,5.85,.11,1.54,.32,3.08,.39,4.62,.06,1.4,.77,2.32,1.92,2.95,.83,.46,1.72,.8,2.57,1.23,.85,.42,1.71,.41,2.42-.18,.9-.76,1.7-1.65,2.57-2.51-2.83-3.64-4.09-7.67-4.27-12.08Zm87.19,29.37c1.28,.02,2.56,.04,3.84,.04,.16,0,.34-.08,.47-.18,.54-.38,1.1-.73,1.57-1.18,.72-.67,1.26-1.46,1.1-2.54-.03-.23,.06-.47,.11-.71,.64-3.29,0-6.36-1.54-9.21l-1.15-.68c-.78-.03-1.1,.41-1.18,1.13-.08,.75-.11,1.52-.29,2.25-.22,.92-.45,1.88-1.23,2.55-.33,.28-.65,.56-.97,.84l.05,.17-2.92,.13c-.36,2.68,.29,5.13,2.14,7.38Zm1.89,10.08c.11,1.57,.15,3.07,.96,4.42l1.04,.58c2.08-.85,4.1-.16,6.17,.18,.81,.13,1.86-.09,2.55-.53,1.69-1.09,2.28-2.94,2.71-4.8,.35-1.51-.24-2.94-.53-4.37-.12-.58-.64-1.09-.97-1.63-.2,2.28-.91,4.11-3.08,5.14-.42,.06-.93,.17-1.44,.21-.43,.03-.92,.07-1.3-.09-1.07-.47-2.07-.4-3.06,.18-.9,.53-1.86,.88-3.04,.73Zm-82.28,51.07l2.7-.34c-.23-1.23-.91-1.99-1.62-2.66l-4.09-.38-2.14-1.98c-.76-.79-1.62-.52-2.14-.21l-3.54,.16-.14,.19c.26,.26,.48,.61,.79,.76,.68,.33,1.39,.6,2.11,.82,.44,.14,.69,.27,.33,.94l-2.73-1.21-.14,.19c.16,.16,.3,.35,.49,.46,.78,.45,1.56,.87,2.35,1.3,.35,.19,.66,.39,.28,.97l-3.35-1.84,.08,1.78,1.4,.24,.54,1.34,.37-.52,2.82-.12,1.35,.62c1.43,1.77,2.12,3.89,3.62,5.72,.11-.43,.19-.61,.2-.81,.09-1.44,.16-2.89,.26-4.33,.03-.39,.13-.77,.19-1.06Zm80.3-28.94l-.2,.11c-.04,.63-.18,1.28-.09,1.89,.17,1.1,.48,2.18,.75,3.34,.56-1.02-.16-2.26,.81-3.1,.31,1.7,.64,3.38,.16,5.08l1.49-.22c.67-3.23,1.35-6.51,2.02-9.72,1.1-1.34,.57-2.83,.67-3.94l-.84-1.07c-1.04-.08-2.04-.17-3.05-.23-1.02-.06-2.05-.1-3.25-.15l.49,1.48c-.82,1.23,.43,2.14,.44,3.33h.98l-.15-1.72,2.51-1.27c.66,1.21,2.08,2.05,1.48,3.82-1.45-.03-2.87-.06-4.26-.09l-.24,1.54,.27,.92Zm-35.25-4.43c-1.37,5.3-3.85,10.04-5.74,15.21l1.62-.07,2.37-4.65,.3,.13c-.11,1.71-1.27,3.07-1.77,4.69,.75,.25,1.25,0,1.67-.53,1.15-1.46,2.32-2.91,3.46-4.33l-.05-1.2-.05-1.12-.79-.62c-.41-1.22,.07-2.3,.4-3.37,.33-1.09,.8-2.14,1.26-3.32l-2.68-.82Zm-52.23-.03c-.98,2.37-1.91,4.62-2.8,6.79l-2.92,.8-.7-.3c-.63,1.37-1.37,2.59-1.48,4.1-.12,1.6-.39,3.18-.59,4.78-.06,.52-.1,1.04-.16,1.66,1.03-.54,1.38-1.38,1.46-2.33,.06-.69,.36-.94,1.02-.83-.02-1.05-.65-2.06-.3-3.1l.33-.06,.84,2.57c.41-.62,.25-1.16,.13-1.67-.14-.6-.38-1.19-.5-1.79-.06-.31,.04-.64,.06-.97l.32-.03,.88,2.53c.35-.65,.61-1.06,.78-1.5,.19-.48,.29-.99,.41-1.43l.73-.62c-.2-2.12,1.16-3.05,2.49-3.17l.17-1.77,1.04,.27c.23-.32,.43-.85,.8-1.03,.37-.18,.9-.02,1.49,0,.32-.23,.22-1.06,1.17-1.13l.74,1.28,.72-.38-.36-3.31-5.77,.66Zm-13.94,4.3l.21-.29c1.34-.16,2,1.05,3.12,1.47l-2.1-2.33,.22-.28,2.96,1.57c0-1.34-1.79-1.54-1.56-3.1l1.85,1.31,1.65,.75c.68-.26,1.7-.23,2.21-1.29-.74-.96-1.9-1.08-2.89-1.42-1.3-.44-2.66-.69-3.98-1.05-.74-.2-1.34-.19-1.97,.42-.97,.94-1.76,2.17-3.33,2.26,.01,.27-.03,.47,.03,.6,.95,1.81,1.45,3.82,2.7,5.52,.97,1.32,1.58,2.92,2.46,4.59l.6-1.98c-.49-.49-.88-.87-1.26-1.26-.34-.35-.97-.64-.32-1.36l1.65,1.2,.19-.72c-1.13-.62-1.73-1.63-2.48-2.73,1.41-.11,1.85,1.07,2.73,1.52,.37-.59,.02-.87-.32-1.18-.8-.73-1.58-1.47-2.38-2.21Zm78.65-.07c-.14-1.65-.3-3.43-.47-5.32-1.27,.99-1.35,1.01-2,.56,1.44-1.35,1.99-2.51,1.81-3.84-1.03,1.28-1.08,1.31-1.9,1.05,.3-.61,.6-1.22,.9-1.82,.3-.6,.6-1.19,.89-1.78l.16,.06,.08-2.11q-1.71,1.81-3.03,2.05c-.08,.76-.21,1.57-.24,2.39-.08,2.3-.14,4.6-.17,6.9-.04,2.58-.04,5.17-.03,7.75,0,.26,.14,.51,.22,.79,2.44,.48,2.82-1.33,3.33-2.9l.93-.04-.31-2.02-.36-.04-.67,1.65c-.57,.55-1.29,.06-2.08-.08,.95-1.05,1.91-2.1,2.95-3.24Zm-69.68-.64l.55,1.02-.2,.12-1.16-.8c-1.15,.45-2.26,.88-3.18,1.24l-.96,1.55,.03,.6c-.43,.78-.69,1.6-.93,2.44-.29,1.05-.45,2.15-.87,3.15-.32,.75-.38,1.37,.04,2.09l2.32,1.4c.19-.82,.42-1.57,.53-2.34,.17-1.18,.23-2.39,.4-3.57,.21-1.39,.54-2.75,1.29-3.69,1.15-.3,2.08-.5,2.99-.79,.65-.21,1.08-.64,1.25-1.38,.15-.65,.44-1.29,.75-1.89,.5-.96,.81-1.94,.83-3.14l-1.76-.12c-.65,1.37-1.29,2.73-1.94,4.12Zm84.63,42.57l.74-1.83-.51-.33,.24-.73-1.37-1.12,.22-.12,.22-1.7,1.77,.32,.35-1.85,.83,.72,.14-.08-.23-.78c-.57-.08-1.04-.17-1.52-.2-.97-.07-1.9,.1-2.5,.93-.76,1.04-1.43,2.16-2.19,3.32l-2.66-.36c-.43,1.44-1.1,2.72-2.45,3.75,1.13,.93,2.14,1.76,3.17,2.61,1.28-.79,1.84-2.08,2.59-3.15l1.79-.54,1.39,1.14Zm-61.05-26.2c-1.33,.01-2.17,.47-2.86,1.35-.87,1.1-1.85,2.12-3.26,2.57-.06,.02-.09,.17-.19,.38,.72,.4,1.4,.86,2.14,1.18,.55,.23,.94,.5,1.13,1.09,.2,.62,.47,1.21,.73,1.87,.75-1.04-.23-2.31,.57-3.46l.88,1.77,.56-1.17,.75,.25,.68-.39c1.1,.34,.93,1.53,1.59,2.16l1.73-.77c-.15-.28-.2-.39-.27-.51-.66-1.09-1.3-2.16-1.44-3.49-.04-.43-.35-.9-.68-1.21-.66-.62-1.42-1.15-2.06-1.64Zm34.36-56.38c.04,1.96-1.4,3.51-1.16,5.53,.95-.95,.12-2.57,1.75-3.25,0,.73,.04,1.27-.03,1.79-.09,.68-.3,1.35-.4,2.03-.04,.29,.06,.6,.11,.94,.88-.43-.09-1.69,1.08-1.86,.88,.78,.17,1.76,.32,2.57l.85-.93c1.1,.67-.25,1.84,.85,2.55,.13-.55,.26-1.02,.36-1.5,.11-.57,.39-.86,1.08-.67,.35,1.62-.99,3.16-.3,4.87,.81-.71,.36-2.06,1.59-2.62,.49,2-.84,3.42-1.17,4.79l.61,2.68,.56-1.13,.28,.02,.15,1.43,.67,.34c0-.34,.02-.57,.02-.8-.03-2.17,0-4.34-.1-6.51-.04-.97,.2-2.02-.33-2.7-.7-.42-1.16-.88-1.69-.98-.93-.17-1.61-.74-2.38-1.17-1.15-.64-1.4-1.64-1.49-2.83-.08-1.08-.32-2.15-.56-3.21-.07-.31-.31-.66-.58-.82-1.08-.64-2.2-1.22-3.4-1.88l.07,1.55,.59,.65,1.07-.87c.71,.48,.52,.92,.35,1.4-.31,.88-.58,1.77-.81,2.67-.1,.38-.08,.8-.11,1.2h.24c.18-.62,.37-1.24,.54-1.87,.18-.65,.27-1.37,1.38-1.39Zm-58.85,58.02l-.19,.18c.28,.25,.53,.55,.85,.73,1.2,.68,2.43,1.29,3.62,1.98,.22,.13,.33,.45,.49,.69l-.22,.25-2.78-1.4c.75,2.12,3.62,3.22,5.39,2.23-.2-.38-.41-.76-.59-1.15-.4-.82-.31-1.77-.57-2.58-.45-1.42-1.2-2.75-1.94-4.06-.26-.46-.85-.73-1.29-1.09l-.08,.31-4.91,.68,.35,.69c1.84,.24,3.51,.63,4.96,1.78-.15,.17-.24,.32-.27,.3-1.04-.39-2.08-.8-3.21-1.24l.04,.96c1.03,.34,2.03,.66,3.04,1,.41,.14,.79,.32,.62,.92-.12,.03-.27,.13-.37,.09-.98-.41-1.95-.85-2.92-1.27Zm88.85-.24c-.38,1.53-.44,6.11-.07,7.29l1.48-.7,1.5,.36c.81-1.05,1.54-1.98,2.44-3.14-.01-.3-.05-.88-.06-1.47-.01-.58,0-1.17,0-1.76-.75-.74-3.44-1.04-5.29-.59Zm-23.11-22.27c-1.23,.62-2.35,1.18-3.52,1.77l.59,3.28c-.34,.58-.16,1.24,.27,1.95,.4,.67,.74,1.45,.47,2.27-.34,1.02,.01,1.87,.52,2.72l1.9-.08-.22-11.91Zm-70.18-3.88c1.44,1.33,2.98,2.57,4.97,3.57l.98,1.34,.7-.99c-.34-.51-.62-.94-.9-1.36-.23-.33-.47-.66-.72-.98-.31-.4-.73-.74-.93-1.18-.61-1.35-1.43-2.43-3.2-2.78-1.82,.4-3.81-.15-5.78-.45l-1.07,.73,.81,2.24c1.75-1.05,3.38-.56,5.14-.15Zm91.41,12.51c.34-1.24,0-2.54,.38-3.76l.32-.04c.29,1.08,.58,2.17,.92,3.41l.31-1.42h.35l.62,2.36h.26c.05-.71,.07-1.4,.16-2.09,.09-.67-.13-1.43,.64-2.18l.36,.87-.48-5.22-.85,.66-.82-1.07-.84,.14c-.41,.67-.85,1.26-1.14,1.91-.39,.89-1.4,.42-1.94,.98l.3,3.31,.8-.49,.66,2.63Zm-7.26,29.4c-.65,1.08-1.23,2.05-1.77,2.95,.68,1.04,.71,1.07,1.55,1.31l.51-1.74c1.05-.47,1.66,.58,2.64,.48l.61-1.3c1.31-1.24,2.72-1.34,4.22-1.15l.93,.5,1.05-1.97-1.98,.09c-.7-.13-1.37-.37-2.03-.66-.68-.3-1.3-.29-1.96,.11-1.15,.7-2.3,1.41-3.77,1.38Zm-91.65-35.9c1.05,0,1.68-.43,2.22-1.13,1.36-1.77,2.19-2.01,4.25-1.28,.16,.06,.31,.15,.48,.19,.67,.17,1.35,.34,2.03,.5l.04-.15c-1.1-1.18-2.2-2.37-3.58-3.85-.87-.28-2.05,.42-3.35,.55l-.81-1.38c-.44,1.64-.93,3.33-1.34,5.05-.11,.44,.02,.94,.05,1.5Zm30.81,13c-.13,1.42-.03,2.65,.42,3.72,1.14,.69,2.39-.08,3.59,.6l-1.81,.54-1.64-.08,.12,2.74c.59-.53,1.09-.86,1.42-1.32,.52-.72,1.17-1.12,2.03-1.27,.4-.07,.78-.3,1.03-.4l-.19-4.3-4.97-.23Zm39.58,41c-.13,1.93,.65,3.9-.5,5.84l.86-.15,.84,1.37,2.3-1.51c-.03-.57-.12-1.09-.06-1.6,.2-1.51-.13-2.93-.74-4.29-.2-.44-.53-.82-.89-1.38l-1.81,1.71Zm-27.33-.23l-1.5-.78-1.23-1.52-.89-.27-.9,.38c-.82-1.16-.98-2.85-2.79-3.15,.05,1.16,.1,2.3,.16,3.44,0,.09,.08,.19,.13,.28,.57,1.19,1.6,1.84,2.83,1.94,1.31,.1,2.22,.75,3.08,1.61,.14,.14,.39,.18,.5,.23l.61-2.14Zm-.52-10.78c-2.36-.2-4.49-.91-6.8-.94-.58,1.89,.05,3.68-.31,5.42l.23,.04,.46-1.31,.11,.17,2.91-1.57,3.38,.27,.02-2.09Zm20.25,17.03l5.36-.24-2.28-2.85c.87-.54,.94,.48,1.52,.54l.32-.7,1.32,1.27c-.3-1.04-1.03-1.82-1.39-2.78l.32-.23,1.35,1.49c.51-.99,.5-1.01-.29-1.87-.61-.1-1.18-.2-1.75-.29-2.24,1.06-3.42,2.58-4.05,4.18l-.72,.39,.28,1.08Zm-27.55-29.26c-.59-.95-1.14-1.8-1.64-2.68-.16-.28-.19-.64-.35-.93-.37-.65-.65-1.43-1.2-1.88-.87-.71-1.93-1.18-3.03-1.83,.78,2.18,.75,4.51,1.72,6.56l.22-.04,.32-2.35h.31c.85,1.18,.44,2.58,.51,3.86l2.21-1.08,.12,.99,.81-.63Zm-7.32-9.2c.88-1.07,1.61-.42,2.5-.03l-.33-3.54c-3.37-.12-6.6-.23-9.88-.35l1.25,2.89c.61-1.18,1.14-2.18,2.39-2.13,.96,.04,1.91,.31,2.71,.46l1.35,2.71Zm71.66-7.11l-.35,.05c-.39,4.43-.78,8.86-1.18,13.39h1.43c.31-.71,.39-1.4,.25-2.14-.06-.33-.06-.68-.05-1.02,.07-1.88,.17-3.75,.21-5.62,.02-1.03-.07-2.06-.13-3.09-.03-.53-.11-1.05-.17-1.58Zm-71.43,8.28l-1.35-.81,.13-.11-1.19-2.15-2.19-.21-1,1.19,2.63,3.77c0-1.36-1.13-2.21-.91-3.46,.34,.23,.57,.51,.76,.81,.64,1.02,1.22,2.08,1.92,3.05,.35,.49,.92,.83,1.39,1.24l.24-.17-.44-3.14Zm-25.63-70.3l-.19-.07c-.17,.4-.43,.8-.49,1.22-.15,1.16-.22,2.33-.32,3.49-.11,1.27-.19,2.54-.32,3.81-.04,.44-.2,.87-.3,1.3h-.26l-.37-.75c-.14,.81-.51,1.49-.25,2.27,1.29-1.33,2.52-2.61,3.69-3.83l.08-8.07-.24-.02c-.22,1.21-.48,2.42-.63,3.63-.19,1.54-.29,3.09-.44,4.63-.02,.19-.16,.37-.24,.55l-.3-.06c-.19-2.72,.1-5.41,.59-8.1Zm35.02,24.11l.16,.57h.21l.38-1.18-2.19-1.16c-.23-.5-.52-.94-.64-1.43-.32-1.36-.57-2.73-.85-4.11l-2.57-.69c1.39,1.95,1.74,3.92,1.84,6.04,1.16,.62,2.28,1.23,3.65,1.96Zm72.72,35.76l-.29-.24c.18-.26,.32-.56,.55-.76,1.53-1.34,3.07-2.66,4.61-3.99,.2-.17,.38-.36,.56-.55l-.17-.16c-2.13,1.44-4.27,2.87-6.44,4.33l-.47,2.27,2.76-.76c2.31-2.07,5.11-3.86,7.14-6.5-.26,.07-.5,.18-.68,.35-1.06,.97-2.07,2.01-3.19,2.91-.78,.62-1.74,1.02-2.58,1.59-.64,.44-1.21,.99-1.81,1.5Zm-90.01,12.61c1.21,.26,1.34,.24,2.02-.49-.33-.75-1.44-1.17-1.04-2.13l-2.25-4.52-1.43-.2-.12,.23c.19,.31,.39,.61,.57,.92,.61,1.04,1.23,2.06,1.02,3.36-.11,.66,.03,1.29,.53,1.81,.28,.29,.46,.67,.69,1.03Zm40.02,1.37c.46-.12,1-.09,1.28-.35,.69-.63,1.33-.4,2.01-.11,.3,.13,.57,.31,.98,.54l-.71-3.69-1.63-.49c-1.2,.91-2.2,1.78-2.58,3.22l.65,.88Zm-10.95,3.95l.25-.23c.71,0,.99,.61,1.41,1.04,.57,.59,1.08,1.48,1.77,1.66,1.3,.34,2.68,.86,4.05,.32-.35-.16-.74-.3-1.09-.49-1.36-.71-2.71-1.44-4.07-2.17-.15-.08-.34-.14-.43-.26-.91-1.26-2.41-1.29-3.69-1.81,.86,1.51,1.48,3.19,3.21,3.93-.15-.4-.41-.71-.66-1.03-.25-.32-.5-.64-.75-.96Zm-9.1,20.17c-.11-1.04-1.48-1.42-.71-2.67l1.42,1.62,.22-1.09-.49-2.47-.18,.14-.93-.48-2.96,1.88,2.15,2.72,1.49,.34Zm-13.29-22.18l1.37,2.27,.32-.15c-.18-.53-.28-1.1-.54-1.58-.62-1.14-1.74-1.71-2.84-2.26-.75-.38-1.55-.66-2.33-.99-.33-.12-.69-.02-1.06,.03-.38,.05-.77,.04-1.19,.06,.49,1.41,1.62,2.28,2.86,2.35,1.15,.07,2.3,.18,3.4,.27Zm9.56,29.08l2.18,.72c.27-.8-.98-1.16-.37-2.17l2.08,2.71c.04-.98-.93-1.56-.87-2.49l.26-.13,1.38,1.8,.22-.13-1.06-2.42c-.65-.13-1.36-.22-2.04-.43-.69-.21-1.34-.53-2.17-.87,.39,1.18-.17,2.39,.4,3.42Zm24.33-29.96c-.47,.63-.94,1.24-1.38,1.86-.53,.74-1.05,1.49-1.57,2.25-.1,.15-.13,.34-.2,.51l.21,.25c.99-.85,2.16-1.38,3.24-2.13,1.06-.73,2.41-1.02,3.63-1.51l.02-.24-3.95-1Zm-18.53-39.99l-2.15,2.22c1.99,.29,3.89,.61,5.83,.16l-.07-1.5-3.61-.88Zm-7.19,.23h.02l.15,3.45,.7-.69,1.29-.06c-.24-1.62,.36-3.18-.23-4.8l-2.01,.09,.09,2Zm53-7.36c-.18,3.34,.02,6.46,1.64,9.5-.04-.98-.07-1.79-.12-2.61-.07-1.19-.16-2.39-.22-3.58-.02-.4-.02-.81,.03-1.21,.12-.94-.22-1.55-1.34-2.1Zm28.44,19.79l-.21-.22c-1.27,.93-2.46,1.99-3.82,2.77-1.31,.76-1.79,1.92-2.14,3.23-.17,.63-.25,1.28-.37,1.92l.24,.09,1.11-1.02-.9-.37c1.4-1.28,2.69-2.46,4.02-3.68l.14-.76,1.92-1.95Zm-26.52,40.37c-.47-.46-.87-1.1-1.73-1.02l-2.34,3.24,.58,1.74c.6-.94,1.11-1.73,1.65-2.59l1.1-.05-.18,1.49,.23,.04c.33-.91,.93-1.74,.7-2.86Zm-85.8-28.11c-.3-.53-.56-1.1-.92-1.58-.36-.49-.85-.88-1.25-1.34-1.38-1.58-2.75-3.17-4.12-4.75-.11-.13-.26-.22-.49-.4,.34,1.5,5.18,7.36,6.78,8.08Zm41.7-21.28c-2.1-.12-3.97-.22-5.99-.34l-1.21,.92c2.35,.86,4.61,.27,6.98,.38l.22-.96Zm-55.18,8.31c.34,1.31,7.29,10.2,8.42,11,.04-.14,.15-.32,.1-.37-2.83-3.55-5.68-7.08-8.52-10.62Zm88.36-8.01c1.34-.76,1.45-2.5,3.13-2.57l.1-1.19-2.89,.13c-.64,1.2-.27,2.34-.34,3.64Zm5.34-51.36c.47-1.38-.77-11.99-1.45-12.72l1.45,12.72Zm-85.05,63.92c-.04-1.22-.61-2.17-1.34-3.04-.85-1-1.67-2.02-2.51-3.03-.35-.42-.71-.83-1.07-1.25l-.2,.12c.12,.34,.15,.74,.36,1.01,1.57,2.07,3.17,4.12,4.76,6.18Zm37.62,12.58c1.16-.92,2.31-1.58,3.01-2.99l-3.15-.16,.14,3.15Zm48.29-79.09c.42-.6,.83-1.14,.67-2-.41-2.27-.71-4.56-1.06-6.83-.03-.21-.1-.41-.15-.61l-.29,.04c-.13,3.15,.8,6.23,.83,9.4Zm-76.26,6.21l-.36-.03c-.69,2.62-.69,5.32-.71,8.05l.84-1.47c.04-1.18,.07-2.24,.11-3.31,.04-1.08,.08-2.17,.12-3.25Zm85.68-1.47c.53-.36,.3-.86,.24-1.3-.26-1.84-.53-3.68-.83-5.52-.08-.47-.1-1.03-.69-1.3-.25,1.4,.68,7.32,1.28,8.11Zm-104.31,52.82l-.27,.18c1.64,2.59,3.36,5.11,5.51,7.34,.13-.22,.22-.43,.15-.53-1.79-2.34-3.59-4.67-5.39-6.99Zm38.28-60.83l.27,.05c.35-2.57,.27-5.17,.44-7.81-.68,.03-.79,.35-.8,.77-.02,1.13-.08,2.27-.07,3.4,.01,1.2,.1,2.39,.15,3.59Zm-10.14-.32c-.89,1.08-.89,5.63-.13,6.74,1.07-2.18,.02-4.47,.13-6.74Zm-7.39,14.53c.61-.14,.65-.58,.65-.98,.02-2.12,.02-4.23,.02-6.35,0-.04-.09-.08-.14-.12-.47,.71-.77,4.67-.53,7.45Zm-.86,.51l.06-6.62c-.45,.44-.92,6.06-.74,7.12l.68-.51Zm75.24,80.26l.1,2.31c1.02-.45,1.94-.86,2.68-1.57l-.03-.32-2.75-.41Zm31.26-34.24c-1.5,1.41-3.55,2.36-4.1,4.78,1.78-1.38,2.99-3.05,4.1-4.78Zm-123.71-4.92l-.22,.2c1.68,2.62,3.41,5.2,5.5,7.51l.22-.17-5.51-7.54Zm79.95-66.57l-.49,.04c.1,2.24,.48,4.45,.72,6.68l.31,.04,.81-2.19-1.16,.05-.2-4.62Zm-74.33,77.33c0-1.44-1.95-4.36-3.26-4.91,.49,2.1,2.29,3.23,3.26,4.91Zm-.26,13.75l.05-.21-5.69-5.83-.09,.06,4.91,5.98h.82Zm41.56-91.9l-.35,.03,.07,7.76c.2,.3,.29,.45,.39,.58,.1,.14,.22,.26,.33,.4l.2-.07c-.95-2.85-.47-5.8-.64-8.7Zm17.03,5.18l.36,.03c.55-.73,.08-1.56,.15-2.34,.07-.84-.04-1.71-.08-2.56-.03-.78-.07-1.56-.1-2.35l-.34,.02,.02,7.2Zm54.72,74.13l.18,.14c1.56-1.22,3.13-2.42,4.66-3.67,.22-.18,.26-.6,.38-.91-1.69,1.18-3.22,2.41-4.72,3.67-.22,.19-.34,.51-.5,.77Zm-51.38,74.99c.26,1.01,1.07,1.81,2.44,2.54l1.05-.26c-1.25-.78-1.88-2.08-3.48-2.28Zm15.59-.03c-1.6-1.07-2.85-2.33-4.65-2.7,.98,1.1,2.17,1.9,3.56,2.47l.44,.71,.66-.47Zm-29.57-.36l-.11,.28c1.22,.58,1.62,2.38,3.53,2.13l-2.8-2.35,.14-.22-.77,.15Zm63.1-67.23l.18,.22c1.71-1.16,3.43-2.32,5.13-3.51,.16-.11,.2-.4,.3-.6l-.27-.22-5.34,4.1Zm-23.34-80.46l-.39,.06,.77,6.35c.74-.4,.5-.88,.45-1.28-.1-.78-.26-1.56-.39-2.34-.15-.93-.29-1.86-.44-2.79Zm-27.61-8.43l-.44,.03,.24,5.55c.21-.38,.47-.63,.46-.87-.07-1.57-.04-3.15-.26-4.71Zm17.22,5.99q-.36-2.39-.9-2.78c-.25,1.22-.41,2.38,0,3.66l.89-.89Zm-9.68,100l-.45,.9c.59,1.13,1.75,.92,2.68,1.39l.86-.52c-1.04-.71-2.39-.43-3.08-1.77Zm35.81-79.27c.87-.57,.49-1.2,.59-1.79-.79-.16-.93-.72-.93-1.39,0-.69-.05-1.38-.12-2.06-.02-.18-.18-.35-.28-.52l-.31,.11c.34,1.83,.68,3.66,1.06,5.66Zm-45.95-19.29h.09l.1-7.56-.24-.04c-.09,.12-.26,.24-.25,.36,.09,2.41,.2,4.83,.31,7.24Zm-28.49,7.13h.47c-.06-1.3-.09-2.58-.18-3.87-.09-1.28,.38-2.57,.11-3.85h-.34l-.07,7.72Zm67.66,.3l-.28,.09c.22,1.96,.36,3.92,1.05,5.81-.05-1.7-.23-3.38-.44-5.05-.04-.29-.22-.57-.34-.85Zm-35.09,144.44l1.01-.1c-1.04-1.44-2.39-2.27-3.3-1.9l2.29,2Zm-10.18-4.5c1.08,1.57,2.62,2.67,4.02,3.91-1.21-1.44-2.26-3.04-4.02-3.91Zm16.97,3.75c-1.31-1.46-1.77-1.68-2.95-1.44,.49,.98,1.94,1.73,2.95,1.44Zm-59.92-129.08l-.54,5.34c.88-1.26,1.05-2.59,.54-5.34Zm80.95-15.74c.65-.67,.34-3.13-.58-4.53,.07,1.59,.03,3.07,.58,4.53Zm-49.2-11.49c-.49,1.34-.33,5.61,.29,6.55l-.29-6.55Zm3.02,4.66h-.14c-.09-.48-.23-.97-.26-1.45-.08-1.1-.1-2.2-.17-3.29,0-.15-.13-.29-.19-.43l-.13,.05,.28,6.43,.18,.03,.44-1.33Zm10.81,152.15l.08-.21-3.63-3.14-.16,.15,2.79,3.17,.92,.03Zm2.23-153.68l.27-.16c-.15-.28-.3-.56-.43-.85-.19-.41-.46-.82-.52-1.25-.12-.85-.11-1.71-.18-2.56-.02-.22-.16-.44-.24-.65l-.12,.05,.18,4.13,1.05,1.3Zm54.13,30.13c.55-1.45-.21-5.87-1.09-6.47,.86,2.08,.98,4.27,1.09,6.47Zm4.05,57.49l2.58-2.51-.12-.13-3.54,2.29,1.08,.35Zm-74.79,59.49l-.22,.21c.95,1.47,2.22,2.63,3.47,3.82l.23-.21-3.49-3.81Zm65.29-126.72c.54-1.21,.07-2.79-1.03-3.67l.05,1.23,.19-.05,.79,2.48Zm-83.74-10c.82-1.11,.82-2.7-.15-3.4l.15,3.4Zm29.19-14.42l-.3-1.76-1,.34,.06,1.42h1.25Zm-52.08,92.64l-1.69-1.91-.14,.1,1.03,1.61-.19,.13c-.16-.16-.3-.33-.47-.47-.15-.13-.32-.22-.65-.45l.8,1.75,1.31-.78Zm71.71,62.1c.86,.62,1.6,1.18,2.36,1.68,.12,.08,.39-.09,.64-.16-.98-1.09-2.19-1.76-3.01-1.51Zm-26.35-150.71c.57-.72,.63-3.11,.09-4.35-.4,1.57,.08,2.97-.09,4.35Zm-5.61-2.36c-.58,2.01-.45,3.15,.37,3.68l-.37-3.68Zm19.64,156.16c-.51-1.15-1.67-1.55-2.57-2.25,.69,.93,1.44,1.8,2.57,2.25Zm40.89-139.03c.17-1.15-.06-2.25-.41-3.33-.43,1.17,.18,2.23,.41,3.33Zm-82.17-3.25l-.8,.77,.07,1.49,.92-.69c-.02-.46-.03-.8-.05-1.13,0-.1-.05-.19-.13-.44Zm67.84,137.13c-.03-.92-.84-1.64-2.17-1.99,.59,.94,1.31,1.45,2.17,1.99Zm-78.73-60.56l.17-.22-2.29-2.26-.17,.14,1.55,2.04,.73,.3Zm48.38-90.38l.37-.02c-.06-1.12-.03-2.26-.25-3.36l-.27,.02,.15,3.36Zm29.31,147.72c.79,.8,1.56,1.66,2.71,1.98-.63-1.01-1.79-1.33-2.71-1.98Zm-35.29-150.84c-.89,.6-.48,1.22-.44,1.88l.86-.16-.42-1.72Zm27.24,157.29l.13-.21-2.61-1.71c.78,1.21,1.67,1.86,2.48,1.92Zm16.9-144.72c-.41-.66-.33-1.39-1.02-1.92-.04,.82,.57,1.56-.13,2.23l1.15-.31Zm-60.27-6.92l-.15,3.36c.88-1.17,.62-.93,.15-3.36Zm-3.57,5.91l.1-4.15h-.29l.18,4.15Zm53.22-5.17l.27-.1-.47-1.64-.66-.07-.17,.18,1.02,1.63Zm-44.64-3.11c-.96,.55-.17,1.32-.42,1.88-.03,.07,.24,.27,.53,.57l-.11-2.46Zm63.06,14.78l-.23,.04c-.06,.88-.13,1.76,.33,2.55l.29-.05-.39-2.54Zm-16.31-11.96l-.2,.03,.37,3.33,.35-.05-.52-3.32Zm10.23,8.09c.07-1.42-.02-1.56-1.16-1.81l1.16,1.81Zm-23.11,144.03l-2-1.62-.21,.23c.51,.51,1.01,1.03,1.54,1.52,.07,.06,.3-.05,.68-.12Zm-25.89-154.32c.51-.61,.47-1.98,0-2.87v2.87Zm67.65,32.19c.27-1.08,0-3.2-.39-3.71l.39,3.71Zm-28.01,51.32l-.8,1.94q.84-.18,.8-1.94Zm-31.84-87.57l-.32,.05,.47,2.44,.3-.06-.45-2.42Zm-1.19-.05l-.34,.06c.12,.65-.21,1.37,.31,1.95l.27-.04-.24-1.97Zm18.02,2.59l1.11,.65c-.23-.55-.07-1.35-1.01-1.43l-.1,.77Zm-25.33,135.3c.08-1.17,.03-1.25-1.03-1.64l1.03,1.64Zm-20.76-127.09c-.74,.4-.85,.65-.67,1.5q.75-.9,.67-1.5Zm59.07,144.18c-.08-.77-.41-1.05-1.45-1.16,.37,.65,.9,.88,1.45,1.16Zm-43.15,0l.27-.27-1.38-1.41-.23,.23,1.35,1.45Zm-32.39-116.62c.77-1.1,.78-1.3,.17-1.93l-.17,1.93Zm71.92,118.01l.24-.34-1.7-1.11-.19,.28,1.64,1.17Zm-14.12-154.06c.65-.06,.64-.46,.51-.81-.07-.18-.34-.29-.53-.43l-.17,.17,.19,1.07Zm-29.34,1.93c-.56,.43-.53,.86,.06,1.3l-.06-1.3Zm-17.6,11.69h-.21l.13,2.85h.21l-.13-2.85Zm8.41-6.77q-.27,1.41,.38,1.64l-.38-1.64Zm-27.23,65.09l-.24,.14,1.13,1.6,.26-.18-1.15-1.56Zm4.31,13.47l.29-.19-.83-1.3-.29,.18,.83,1.3Zm116.11,3.84l-.17-.1-.86,1.05,.1,.19,.76-.15,.16-.99Zm-5.49-52.94l.08-.06-.08-1.77-.48,.58,.48,1.24Zm-35.69-33.14l.33-.06-.41-1.4-.3,.09,.38,1.38Zm39.81,85.68l-.19-.19-1.06,1.09,.15,.15,1.1-1.05Zm-19.11,6.41l.27-.08-.28-1.2c-.28,.48-.56,.96,0,1.28Zm-64.44-91.74l-.47-.9-.18,.06,.04,.95,.62-.11Zm4.84-2.93h-.26l.08,1.86h.07l.1-1.86Zm-32.22,32.67l.24,.02-.08-1.79h-.07l-.09,1.77Zm110.63,35.77l.29,.19,.72-.92-.25-.19-.76,.92Zm-57.84,88l-1-.8c.02,.67,.11,1.03,1,.8Zm13.26-155.24q.18-1.04-.37-1.61l.37,1.61Zm-10.74-3.38l-.39,.05,.24,.96,.19-.03-.04-.98Zm-5.98,1.06h.08l-.08-1.86h-.08l.08,1.86Zm-15.35,150.21l-.3,.16,.65,.94,.16-.1-.51-1.01Zm-33.08-124.97q-.45,.59-.09,1.34l.09-1.34Zm-15.11,45.15l-.19,.13,.75,.96,.18-.14-.75-.95Zm8.45,12.75l-.18,.16,.58,.71,.21-.18-.61-.7Zm96.14-3.53l.31,.06,.11-.66-.31-.04-.11,.64Zm-53.36,44.32h-.22l.04,.93h.22l-.04-.93Zm2.49-123.58l.24-.07-.24-.91-.2,.05,.2,.93Zm-40.43,35.43h-.04l-.06,1.13h.15l-.05-1.13Zm113.12,43.97l-.21-.16-.51,.65,.2,.16,.52-.65Zm-105.38-59.04l.17,.05c.07-.14,.17-.27,.21-.42,.04-.15,.01-.32,.02-.48l-.23-.02-.16,.86Z"
  />
  <path fill="#58b6d0"
    d="M185.23,384.23c1.76,1.01,3.54,1.97,5.26,3.03,1.6,1,3.37,1.56,5.13,2.14,2.06,.67,4.15,1.24,6.26,1.74,1.23,.29,2.52,.38,3.78,.53,1.71,.19,3.42,.36,5.13,.52,.75,.07,1.51,.11,2.26,.12,1.62,.02,3.24-.03,4.85,.03,2.33,.08,4.61-.15,6.86-.76,1.06-.28,2.19-.28,3.26-.54,3.1-.76,5.99-2.05,8.84-3.46,.99-.49,2.02-.93,3.03-1.39l.14,.24c-.7,.46-1.35,1.02-2.1,1.37-2.65,1.24-5.33,2.42-8.01,3.59-.53,.23-1.12,.33-1.7,.45-2.02,.41-4.04,.91-6.08,1.16-1.63,.2-3.3,.09-4.95,.11-2.24,.02-4.49,.07-6.73,0-1.37-.04-2.74-.27-4.11-.42-.27-.03-.54-.07-.81-.1-1.3-.14-2.64-.12-3.89-.46-2.6-.7-5.16-1.53-7.7-2.4-3.17-1.08-5.89-2.97-8.5-5.03-.13-.1-.24-.23-.35-.34l.12-.13Z"
  />
  <path fill="#58b6d0"
    d="M278.32,316.31c0,.23,.03,.47-.02,.69-.8,3.87-1.52,7.76-2.94,11.47-.88,2.28-1.83,4.53-2.71,6.81-.51,1.32-.95,2.66-1.47,3.98-.37,.96-.74,1.93-1.23,2.83-1.89,3.49-4.2,6.72-6.49,9.95-.6,.84-1.16,1.72-1.68,2.6-.93,1.57-2.27,2.76-3.57,3.98-.14,.13-.35,.19-.66,.35,.04-.27,.02-.45,.1-.56,1.71-2.38,3.47-4.72,5.13-7.13,2.01-2.92,3.93-5.9,5.91-8.84,.78-1.16,1.14-2.49,1.57-3.8,.33-1.01,.78-1.98,1.22-2.95,1.34-2.95,2.93-5.79,3.82-8.93,.96-3.38,1.81-6.79,2.71-10.19,.02-.09,.1-.17,.15-.25h.18Z"
  />
  <path fill="#58b6d0"
    d="M225.39,213.38c.27-.17,.54-.48,.82-.48,.75,0,1.54-.02,2.24,.2,2.62,.83,5.24,1.71,7.81,2.67,4.32,1.62,8.32,3.88,11.93,6.75,1.83,1.45,3.52,3.11,5.11,4.82,2.56,2.74,5.1,5.51,7.42,8.44,1.89,2.4,3.45,5.07,5.14,7.63,.14,.21,.2,.48,.29,.72l-.18,.1c-.35-.49-.7-.97-1.05-1.46-1.42-2.03-2.75-4.14-4.3-6.07-1.39-1.74-3.02-3.3-4.54-4.94-.47-.51-.89-1.06-1.37-1.55-1.66-1.69-3.34-3.36-5.02-5.04-.15-.15-.32-.27-.46-.42-4.4-4.45-9.8-7.16-15.69-9.03-1.28-.41-2.51-.94-3.75-1.46-1.07-.45-2.61-.72-4.22-.64l-.18-.25Z"
  />
  <path fill="#58b6d0"
    d="M155.53,232.83c.48-.76,.93-1.55,1.46-2.27,1.47-2,2.87-4.07,4.51-5.93,2.37-2.69,4.86-5.28,7.4-7.81,2.31-2.3,5.08-3.97,7.97-5.46,1.19-.61,2.29-1.41,3.42-2.14,.55-.36,1.05-.78,1.6-1.14,.87-.56,1.78-1.02,2.87-1.05,1.52-.04,2.86-.71,4.2-1.34,.78-.36,1.6-.64,2.41-.91,.24-.08,.54,0,.95,.02-.2,.25-.25,.36-.33,.4-1.5,.68-2.99,1.39-4.51,2.02-.79,.33-1.63,.67-2.46,.71-1.78,.09-3.09,1.05-4.44,2.03-1.08,.78-2.17,1.61-3.36,2.19-3.37,1.66-6.4,3.77-9.1,6.38-3.08,2.97-6.05,6.04-8.64,9.46-1.15,1.51-2.25,3.05-3.37,4.59-.11,.16-.14,.38-.2,.57l-.39-.31Z"
  />
  <path fill="#58b6d0"
    d="M220.19,210.44c-2.7-.35-5.39-.78-8.1-1.01-1.88-.16-3.79,.01-5.68-.02-3.37-.06-6.64,.6-9.95,1.07-3.03,.43-6.01,1.04-8.83,2.12-2.82,1.08-5.48,2.59-8.17,3.99-.65,.34-1.14,.99-1.68,1.51-.42,.4-.41,.41-1.1,.25,.36-1.03,1.09-1.8,1.94-2.31,1.64-1,3.38-1.85,5.11-2.72,2.2-1.1,4.55-1.76,6.92-2.41,3.01-.83,6.1-1.12,9.15-1.64,3.85-.66,7.71-.68,11.56-.47,2.84,.16,5.64,.9,8.46,1.38,.16,.03,.31,.11,.47,.17l-.09,.1Z"
  />
  <path fill="#58b6d0"
    d="M198.53,379.76c-2.86-.2-5.54-1.09-8.25-1.94-2.54-.8-4.79-2.03-6.84-3.73-.81-.67-1.86-1.04-2.73-1.64-1.1-.76-2.12-1.64-3.18-2.46-.44-.34-.91-.63-1.33-.98-.81-.67-1.6-1.38-2.41-2.05-.39-.33-.79-.64-1.21-.95-.68-.49-1.43-.93-1.57-2,.26,.06,.41,.05,.49,.13,1.23,1.04,2.45,2.1,3.69,3.12,.8,.65,1.64,1.24,2.45,1.88,.89,.7,1.77,1.41,2.65,2.11,.08,.06,.14,.16,.22,.21,2.67,1.63,5.26,3.42,8.04,4.85,3.1,1.6,6.46,2.57,9.88,3.28,.03,0,.09,.01,.09,.03,0,.04,0,.09-.01,.13Z"
  />
  <path fill="#58b6d0"
    d="M141.35,319.29c1.04,.51,1.08,1.31,1.29,1.96,.49,1.51,.76,3.09,1.36,4.55,1.16,2.82,2.43,5.61,3.77,8.36,1.34,2.76,2.8,5.47,4.25,8.18,.69,1.3,1.48,2.55,2.07,3.95-.18-.21-.38-.4-.54-.62-2.06-2.99-3.85-6.13-5.5-9.35-1.48-2.88-2.98-5.75-4.35-8.69-.62-1.33-.97-2.79-1.42-4.2-.31-.98-.61-1.98-.87-2.98-.08-.3-.04-.62-.06-1.15Z"
  />
  <path fill="#58b6d0"
    d="M231.88,379c.56-.73,1.27-.86,1.85-.93,1.46-.18,2.66-.93,3.89-1.59,1.81-.98,3.63-1.97,5.32-3.13,1.36-.93,2.53-2.12,3.79-3.19,1.76-1.49,3.52-2.99,5.28-4.47,.1-.08,.24-.12,.55-.09-.08,.19-.12,.44-.26,.58-1.49,1.38-2.99,2.74-4.49,4.12-.96,.88-1.96,1.74-2.87,2.67-1.38,1.42-3.15,2.21-4.81,3.17-1.19,.69-2.44,1.27-3.57,2.03-1.22,.82-2.62,.73-3.95,1-.17,.03-.37-.07-.73-.16Z"
  />
  <path fill="#58b6d0"
    d="M253.82,369.4c4-4.08,7.68-8.44,10.93-13.13,3.26-4.69,5.92-9.72,7.97-15.22,.79,.75,.49,1.33,.26,1.82-.58,1.25-1.21,2.48-1.84,3.7-1.92,3.71-3.83,7.42-6.3,10.8-.99,1.36-2.08,2.65-3.16,3.95-1.01,1.21-2.01,2.43-3.08,3.59-1.38,1.49-2.81,2.93-4.23,4.38-.11,.11-.26,.17-.4,.25l-.15-.15Z"
  />
  <path fill="#58b6d0"
    d="M162.49,362.52c-.66-.94-1.19-1.83-1.84-2.61-1.89-2.24-3.87-4.4-5.73-6.66-1.48-1.81-2.93-3.66-4.22-5.61-1.23-1.86-2.25-3.85-3.32-5.81-.29-.52-.43-1.12-.63-1.69l.29-.16c.17,.25,.36,.48,.51,.74,1.12,1.98,2.09,4.06,3.37,5.93,1.55,2.27,3.31,4.4,5.04,6.55,2.08,2.58,4.23,5.09,6.31,7.67,.32,.39,.9,.86,.24,1.65Z"
  />
  <path fill="#58b6d0"
    d="M270.38,248.33c-.25-.45-.52-.88-.75-1.34-2.08-4.12-4.14-8.26-6.73-12.09-1.27-1.87-2.84-3.54-4.31-5.27-1.16-1.36-2.39-2.67-3.58-4-.11-.12-.17-.28-.26-.43,.44-.58,.79-.29,1.11,.05,.8,.86,1.62,1.7,2.38,2.59,1.24,1.47,2.47,2.96,3.65,4.48,2.39,3.06,4.21,6.46,5.89,9.95,.85,1.77,1.7,3.53,2.55,5.3,.1,.21,.17,.43,.25,.65l-.19,.11Z"
  />
  <path fill="#58b6d0"
    d="M151.94,241.54c-5.13,7.98-8.84,16.65-12.16,25.5-.46-3.55,8.61-22.47,12.16-25.5Z"
  />
  <path fill="#58b6d0"
    d="M275.05,260.81c.16,.31,.37,.61,.48,.94,.92,2.66,1.92,5.3,2.72,8,.74,2.5,1.41,5.01,1.31,7.69-.04,1.2,.41,2.43,.76,3.62,.43,1.48,.61,2.96,.38,4.49-.02,.16-.08,.31-.31,.51-.09-.22-.26-.45-.26-.67,.06-2.08-.65-4-1.13-5.97-.21-.86-.33-1.77-.32-2.66,.03-2.27-.44-4.46-1.04-6.62-.8-2.88-1.71-5.74-2.58-8.6-.07-.22-.12-.45-.18-.67l.18-.07Z"
  />
  <path fill="#58b6d0"
    d="M219.27,205.89c2.13,.38,4.28,.68,6.39,1.16,4.59,1.03,9.03,2.57,13.25,4.66,2.93,1.45,5.81,3.03,8.57,4.79,2.52,1.61,4.91,3.46,6.84,5.8,.4,.48,.74,1.02,1.11,1.52l-.23,.18c-.47-.56-.92-1.14-1.41-1.69-1.56-1.72-3.32-3.19-5.2-4.56-4.1-3-8.59-5.26-13.24-7.2-4.31-1.79-8.81-2.99-13.41-3.8-.91-.16-1.81-.37-2.72-.56l.06-.3Z"
  />
  <path fill="#58b6d0"
    d="M182.71,201.5c-.99,.45-2.02,.83-2.97,1.36-2.01,1.13-3.83,2.54-5.64,3.97-2.66,2.11-5.04,4.49-7.3,6.99-2.43,2.68-4.63,5.56-6.97,8.32-.43,.51-1.04,.88-1.45,1.46,.1-.19,.19-.39,.31-.56,3.93-5.3,8.14-10.36,12.96-14.87,2.7-2.53,5.65-4.73,8.91-6.5,.51-.28,1.1-.41,1.66-.56,.16-.04,.37,.12,.56,.18l-.08,.21Z"
  />
  <path fill="#58b6d0"
    d="M211.49,387.33c-1.68-.08-3.35-.14-5.03-.26-1.2-.09-2.42-.13-3.58-.41-2.21-.53-4.4-1.15-6.56-1.83-1.64-.51-3.27-1.1-4.85-1.79-1.42-.62-2.76-1.4-4.12-2.14-.2-.11-.32-.39-.41-.66,3.82,2.1,7.91,3.41,12.01,4.7,4.09,1.29,8.34,1.61,12.59,1.98l-.04,.41Z"
  />
  <path fill="#58b6d0"
    d="M167.08,366.28c.31,.16,.66,.26,.92,.48,2.83,2.36,5.61,4.77,8.46,7.09,2.3,1.87,4.62,3.71,7.43,4.8,.55,.21,1.03,.61,1.5,1-1.66-.25-3.21-.82-4.54-1.78-2.71-1.94-5.36-3.97-7.98-6.04-1.46-1.15-2.82-2.43-4.2-3.67-.6-.54-1.14-1.12-1.71-1.69l.12-.18Z"
  />
  <path fill="#58b6d0"
    d="M247.93,375.59c-2.78,2.69-5.95,4.88-9.36,6.71-4.85,2.6-9.98,4.37-15.54,4.61,3.02-.57,6.03-1.19,8.91-2.31,2.87-1.11,5.73-2.24,8.31-3.92,2.57-1.67,5.04-3.51,7.55-5.27l.13,.18Z"
  />
  <path fill="#58b6d0"
    d="M170.36,223.18c-1.16,1.06-2.32,2.11-3.48,3.17-2.11,1.92-4.22,3.84-6.32,5.78-.79,.72-1.59,1.44-2.31,2.22-.54,.59-.96,1.29-1.57,2.13,0,0-.35,0-.44-.15-.12-.19-.14-.57-.03-.75,.31-.49,.68-.97,1.1-1.35,3.48-3.14,6.97-6.27,10.47-9.38,.76-.68,1.59-1.27,2.4-1.9l.18,.24Z"
  />
  <path fill="#58b6d0"
    d="M225.39,381.41c-1.85,.38-3.69,.89-5.56,1.1-2.6,.28-5.22,.44-7.83,.44-1.67,0-3.35-.34-5.02-.58-.44-.06-.85-.29-1.24-.6,6.6,.76,13.13,.69,19.63-.69v.34Z"
  />
  <path fill="#58b6d0"
    d="M216.22,396.17c-4.57,1.53-21.44-.9-23.66-3.41,7.62,3,15.57,3.63,23.66,3.41Z"
  />
  <path fill="#58b6d0"
    d="M153.9,230.78c-2.38,4.16-4.58,8.41-7.21,12.42l-.35-.14c.1-.32,.15-.67,.31-.95,1.73-2.98,3.46-5.95,5.22-8.91,.53-.9,1.15-1.75,1.74-2.62l.29,.21Z"
  />
  <path fill="#58b6d0"
    d="M249.09,380.33c4.41-4.22,8.76-8.13,11.86-13.17l.25,.16c-.25,.47-.44,1-.76,1.41-1.26,1.63-2.51,3.29-3.87,4.84-1.76,1.99-3.61,3.9-5.44,5.82-.3,.32-.67,.61-1.05,.83-.21,.12-.51,.07-.99,.11Z"
  />
  <path fill="#58b6d0"
    d="M136.4,289c-.02-5.17,1.11-10.15,2.39-15.11l.22,.03-2.39,15.09h-.22Z"
  />
  <path fill="#58b6d0"
    d="M228.03,199.84c.71-.49,1.36-.58,2.04-.37,1.58,.47,3.24,.81,4.72,1.51,2.36,1.11,4.62,2.45,6.9,3.73,.55,.31,1,.79,1.44,1.28-4.64-2.93-9.32-5.7-15.11-6.15Z"
  />
  <path fill="#58b6d0"
    d="M280.25,296.95c.06,1.25,.17,2.5,.15,3.75-.02,2.17-.12,4.34-.19,6.5-.02,.65,.04,1.32-.54,1.81-.48-.9-.16-10.93,.58-12.06Z"
  />
  <path fill="#58b6d0"
    d="M257.68,221.48c-4-4.09-8.31-7.8-13.19-11.01,.97-.15,1.61,.41,2.19,.84,3.83,2.83,7.5,5.85,10.69,9.41,.17,.19,.31,.4,.47,.61l-.15,.15Z"
  />
  <path fill="#58b6d0"
    d="M175.37,378.78c.85,.45,1.81,.8,2.27,1.94-1.85-.49-10.97-8.45-11.39-9.8l9.11,7.86Z"
  />
  <path fill="#58b6d0"
    d="M280.19,321.29c.02,.23,.12,.48,.06,.68-1.02,3.56-2.06,7.12-3.1,10.68-.03,.09-.21,.13-.42,.14,.88-3.91,1.79-7.79,3.17-11.54l.29,.03Z"
  />
  <path fill="#58b6d0"
    d="M212.43,205.26c-2.67,.14-9.58-.62-11.07-1.16,1.05-.49,7.86,.2,11.07,1.16Z"
  />
  <path fill="#58b6d0"
    d="M224.29,202.77c4.6,.68,8.8,2.53,12.98,4.47l-.08,.24c-2.14-.81-4.26-1.68-6.43-2.43-2.16-.74-4.37-1.37-6.55-2.04l.08-.23Z"
  />
  <path fill="#58b6d0"
    d="M137.13,298.03c.14,.14,.24,.2,.26,.29,.05,.16,.06,.34,.06,.51,.12,2.65,.23,5.3,.36,8.17-1.06-1.2-1.43-7.09-.69-8.96Z"
  />
  <path fill="#58b6d0" d="M160.45,353.72l6.19,6.31c-1.38-.26-6-4.92-6.19-6.31Z" />
  <path fill="#58b6d0"
    d="M193.06,200.33c-1.7-.18-3.4-.35-5.1-.55-.14-.02-.26-.25-.55-.55,1.89-.19,3.5,.26,5.12,.53,.22,.04,.41,.23,.62,.35l-.09,.22Z"
  />
  <path fill="#58b6d0"
    d="M239.31,265.9l-.77,.7c-.09-.25-.2-.4-.17-.49,.56-1.46,.22-2.98,.33-4.47,.02-.28,.23-.54,.35-.8l.36,.08-.12,4.99Z"
  />
  <path fill="#58b6d0" d="M224.66,246.01l-.34,1.07-.19-.06,.34-1.07,.2,.06Z" />
  <path fill="#58b6d0"
    d="M181.72,329.82c1.16,.21,1.27,1.09,1.46,1.89,.8,.63,1.65,.82,2.63,.71,.7-.08,1.41,0,2.17,.2-.18,.09-.36,.24-.56,.28-1.3,.22-2.56,.67-3.92-.03-1.29-.67-1.67-1.69-1.78-3.06Z"
  />
  <path fill="#58b6d0"
    d="M195.83,335.36c-1.87-.25-2.74-1.9-4.36-2.57,1.11-.46,2.81,.6,4.36,2.57Z"
  />
  <path fill="#58b6d0" d="M216.85,334.45l1.22,1.08,.89,.26c-.74,.39-1.5,0-2.31-1.12l.2-.22Z" />
  <path fill="#58b6d0"
    d="M203.43,344.93l.06-.95,.87-.35,.09,.14-.39,.38,.29,.91-.93-.14,.02,.02Z"
  />
  <path fill="#58b6d0" d="M215.78,335.32c.1-.58-.45-.99-.05-1.57q.62,.82,.05,1.57Z" />
  <path fill="#58b6d0"
    d="M211.07,295.37l.35,.52c-.57-2.92-.55-5.7,1.31-8.21l2.27,.13c.53,1.06,.82,2.12,.85,3.27,.05,1.82,.12,3.63,.19,5.45,.06,1.6-.2,1.93-1.81,2.26-.5,.1-1,.23-1.5,.25-.46,.02-.93-.08-1.52-.14-.18-1.1-.62-2.24-.36-3.46l.22-.05Z"
  />
  <path fill="#58b6d0"
    d="M206.66,282.38c-1.44,.14-2.72,.57-4.04-.19l-.33-.97,.68-3.51c-.64-.41-.46-1.03-.43-1.58,.04-.82,.15-1.63,.17-2.45,.02-.62,.11-1.17,.87-1.7l3.86,.53c0,1.23,0,2.32,0,3.42-.01,1.27,.05,2.54-.08,3.79-.09,.89-.45,1.76-.69,2.66Z"
  />
  <path fill="#58b6d0"
    d="M216.06,271.95l.44,.64-.38,.94,.42,.18c-.07,1.45-.18,2.89-.21,4.32-.01,.75,.13,1.51,.16,2.27,.04,.95-.3,1.38-1.22,1.63-.69,.19-1.38,.39-2.29,.65l-1.13-.4c-.07-3.05-.08-6.07,.26-9.07l.64-1.01,3.3-.15Z"
  />
  <path fill="#58b6d0"
    d="M219.58,272.51l3.5-.15,.66,.72c-.2,2.88-.39,5.79-.59,8.71l-.96,.48-2.99-.78c-.32-.89-.1-6.24,.38-8.97Z"
  />
  <path fill="#58b6d0"
    d="M182.65,287.98c-1.18-1.19-1.22-3.03-.04-4.29-.18,.6-.38,1.07-.44,1.56-.06,.51,.03,1.03,.05,1.5l1.19,1.22-1.71,2.76-.91-.72-1.07,.1-1.05-.51c.75-.03,1.26-.1,1.76-.07,1.58,.08,1.68,.03,2.23-1.54Z"
  />
  <path fill="#58b6d0"
    d="M185.7,277.63l3.26-1.1c.28,.45,.09,.8-.36,.91-1.38,.34-2.61,1.2-4.16,1-.75-.1-1.56,.25-2.53,.44,.35-.62,.81-.81,1.4-.88,.81-.11,1.61-.25,2.42-.38l-.02,.02Z"
  />
  <path fill="#58b6d0"
    d="M174.22,266.52q.31-.21,1.26-.06l1.02,4.65-.31,.09c-.57-.66-.42-1.62-.81-2.36-.41-.77-.76-1.57-1.14-2.35v.02Z"
  />
  <path fill="#58b6d0"
    d="M194.21,277.68c-1.55-.25-2.89-.46-4.23-.68l.04-.34c.71,.09,1.43,.12,2.12,.27,.64,.14,1.46-.29,2.07,.74Z"
  />
  <path fill="#58b6d0"
    d="M184.49,278.91c-.31,.91-.23,2.02-1.35,2.49,.16-.99,.72-1.76,1.35-2.49Z"
  />
  <path fill="#58b6d0" d="M179.67,270.18l-1.74,3.04q-.37-.77,1.74-3.04Z" />
  <path fill="#58b6d0" d="M177.1,274.88c-1.06-.46-1.38-1.23-.8-2.13l.79,2.14v-.02Z" />
  <path fill="#58b6d0"
    d="M185.72,277.61c-.83-.12-1.67-.25-2.5-.37l.02-.21,2.43-.11,.03,.71,.02-.02Z"
  />
  <path fill="#58b6d0" d="M178.49,292.45l-1.58-.84q.41-.31,1.16,0l.41,.86,.02-.02Z" />
  <path fill="#58b6d0" d="M176.15,291.22l-.86,.49-.18-.29,.84-.51,.19,.32Z" />
  <path fill="#58b6d0" d="M178.47,292.46l1.01,.86-.2,.19-.79-1.06-.02,.02Z" />
  <path fill="#58b6d0" d="M197.15,292.23l-.46-.93,.25-.12,.39,.92-.18,.12Z" />
  <path fill="#58b6d0"
    d="M241.33,317.97l.45,1.15-.54,2.75c-.92-.13-.83-.74-.85-1.28-.06-1.78,.06-2.13,.94-2.63Z"
  />
  <path fill="#58b6d0"
    d="M220.1,316.04c.09-1.31,.15-2.63,.92-3.78,.3-.44,.64-.95,1.25-.46l-1.86,4.35-.31-.11Z"
  />
  <path fill="#58b6d0" d="M230.36,311.03l1.23,.16-.02,.25-1.27-.11,.06-.3Z" />
  <path fill="#58b6d0"
    d="M165.65,332.33c-.68,.52-1.44,.81-2.28,.93-1.14,.17-2.29,.35-3.41,.64-.58,.15-1.09,.55-1.72,.88l-.33-.78,2.69-1.45,5.04-.22Z"
  />
  <path fill="#58b6d0"
    d="M167.58,342.03c-.92,.26-1.85,.04-2.82-.1l-.18-.6,2.98,.34,.02,.35Z"
  />
  <path fill="#58b6d0"
    d="M178.61,305.06l-.71-.38c.21-1.04-.59-2.04,.08-3.27,.83,1.2,.54,2.43,.98,3.48l-.35,.17Z"
  />
  <path fill="#58b6d0"
    d="M174.21,304.99c.94,1.42,.11,2.72-.3,4.06l-.27-.02,.28-4.02,.29-.02Z"
  />
  <path fill="#58b6d0" d="M175.37,310.48c.5,.73,.22,1.73-.89,2.52l.61-2.56,.28,.04Z" />
  <path fill="#58b6d0" d="M182.84,304.89l-3.37-.11v-.32l3.39,.09-.02,.34Z" />
  <path fill="#58b6d0" d="M172.29,309.03l-1.17,.05v-.19l1.16-.05v.19Z" />
  <path fill="#58b6d0" d="M184.91,302.87l-.19,1.07q-.38-.62,.19-1.07Z" />
  <path fill="#58b6d0"
    d="M153.79,325.44c-.47-1.03,.37-1.45,.57-2.09,.29-.9,1.13-.62,1.66-.96,1.99,.75,3.92,.51,5.84-.31l.1,.36c-.52,.27-1.02,.64-1.57,.78-.96,.24-1.92,.4-2.94,.12-.69-.19-1.48-.04-2.18-.05l-1.48,2.14Z"
  />
  <path fill="#58b6d0"
    d="M148.77,276.8l1.09,1.5c.5,.02,1.11,.1,1.71,.04,2.4-.22,5.25,1.22,6.3,3.34l-2.64-2.04c-1.6-.12-3.34-.24-5.08-.37-1.4-.11-1.89-.88-1.37-2.47Z"
  />
  <path fill="#58b6d0" d="M186.31,293.01c.84,.64,1.12,1.8,.72,2.9-.52-.96-.44-1.88-.72-2.9Z" />
  <path fill="#58b6d0"
    d="M191.63,296.27l.04-1.52,.23-.05,.37,1.46,.67,.51h-2.18l-.02-.19,.89-.21Z"
  />
  <path fill="#58b6d0"
    d="M262.48,313.79l-.78,.97-.24-.12,.22-.93,1.75-.99c.63,.25,1.33,.51,2.02,.81,.99,.44,2,.31,3.03,.19,.69-.08,1.39-.07,2.08-.1l.04,.37c-1.17,.17-2.34,.48-3.51,.46-.85-.01-1.68-.5-2.54-.69-.65-.15-1.32-.16-1.98-.24l-.08,.28Z"
  />
  <path fill="#58b6d0"
    d="M158.92,266.58c.25,.28,.55,.61,.85,.94,1.1,.28,1.1,.28,1.21,1l-1.41-.02-.74-.96c-1.46-.38-2.32-.34-3.94,.19,.5-1.1,1.58-1.42,4.03-1.16Z"
  />
  <path fill="#58b6d0"
    d="M263.86,323.78c1.96-.9,3.87-1.03,5.41,.94-.62-.23-1.24-.49-1.87-.7-.95-.31-1.81,.28-2.72,.34-.52,.03-1.11-.02-1.55-.25-.78-.4-1.45-.35-2.11,.16-.59,.44-1.17,.9-1.84,1.41,.08-1.86,2.62-2.88,4.69-1.9Z"
  />
  <path fill="#58b6d0"
    d="M158,315.56c-1.16,.42-2.36,.48-3.58,.29-1.07-.16-2.13-.35-3.2-.52-.95-.15-1.67,.21-2.21,1-.18,.27-.45,.47-.69,.71l-.25-.12c.16-.39,.27-.83,.51-1.17,.27-.38,.66-.69,1.1-1.13,.94-.11,1.98-.2,3.1,.06,1.33,.31,2.72,.33,4.08,.47,.36,.04,.73,.04,1.09,.06l.04,.33Z"
  />
  <path fill="#58b6d0"
    d="M265.07,273.32c-1.25-.03-2.58,.32-3.94-.47,.28-.04,.43-.08,.59-.09,.77-.05,1.54-.08,2.31-.14,.33-.02,.76-.23,.98-.09,.81,.49,1.63,.45,2.49,.31,.05,0,.11,.07,.17,.1-.29,.96-1.39,1.13-2.6,.38Z"
  />
  <path fill="#58b6d0"
    d="M262.17,334.17c-.72,.03-1.45,.17-2.15,.07-.73-.1-1.43-.43-2.03-.63l-1.44,.59c.51-.95,1.88-1.51,2.7-1.11,.86,.41,1.71,.7,2.66,.71,.08,0,.17,.1,.25,.15v.22Z"
  />
  <path fill="#58b6d0"
    d="M257.27,343.51c.93,.33,2.05-.57,2.85,.44-.97-.05-2.01,.4-2.85-.44Z"
  />
  <path fill="#58b6d0"
    d="M165.02,258.35c.17,.38,.79,.7,.13,1.32-.86-1.08-2.05-1.24-3.43-1.2,.37-.86,1.01-.8,1.52-.72,.56,.08,1.1,.36,1.78,.6Z"
  />
  <path fill="#58b6d0"
    d="M258.66,264.52c1.19-.92,2.32-1.65,3.87-1.35l.03,.74c-1.56-.83-2.46,.39-3.62,.92l-.28-.31Z"
  />
  <path fill="#58b6d0"
    d="M267.51,280.52c.22-.06,.43-.11,.71-.19l.03,.62c-1.08-.02-2.12,.03-3.14-.09-.51-.06-.99-.42-1.46-.69-.09-.05-.05-.32-.1-.68l1.08,.71,1.64-.31c.35,.18,.8,.41,1.25,.64Z"
  />
  <path fill="#58b6d0" d="M234.26,296.55c.88,.91,.5,2.03-.86,2.74l-.75-.4,1.62-2.34Z" />
  <path fill="#58b6d0" d="M162.2,300.71l.67,1.57c-.95-.49-1.12-.85-.67-1.57Z" />
  <path fill="#58b6d0"
    d="M215.46,345.21l1.22,.21-.03-.05,2.97-.13c.04,.44-.23,.61-.59,.71-1.12,.31-2.24,.73-3.48-.06l-.1-.67Z"
  />
  <path fill="#58b6d0" d="M253.68,320.98c.86-.39,1.67,.25,2.5,.29l-2.5,.11v-.4Z" />
</svg>
